<svg width="32" height="32" viewBox="0 0 32 32" fill="none" xmlns="http://www.w3.org/2000/svg">
<circle cx="16" cy="16" r="16" fill="#4E6297"/>
<path d="M23.2001 11.0547C23.2001 9.8568 22.1431 8.7998 20.9452 8.7998H11.855C10.6571 8.7998 9.6001 9.8568 9.6001 11.0547V20.1449C9.6001 21.3428 10.6571 22.3998 11.855 22.3998H16.4353V17.2558H14.7441V15.0008H16.4353V14.0848C16.4353 12.5345 17.5628 11.1957 18.9721 11.1957H20.8042V13.4506H18.9721C18.7607 13.4506 18.5493 13.662 18.5493 14.0848V15.0008H20.8042V17.2558H18.5493V22.3998H20.9452C22.1431 22.3998 23.2001 21.3428 23.2001 20.1449V11.0547Z" fill="white"/>
</svg>
