<svg width="14" height="16" viewBox="0 0 14 16" fill="none" xmlns="http://www.w3.org/2000/svg">
<path d="M6.5935 6.92675L4.00016 9.51808L1.40683 6.92675C0.894211 6.41389 0.545165 5.76055 0.403826 5.04933C0.262486 4.33812 0.335199 3.60096 0.612771 2.93107C0.890343 2.26117 1.36031 1.68862 1.96325 1.28579C2.5662 0.882972 3.27504 0.667969 4.00016 0.667969C4.72529 0.667969 5.43413 0.882972 6.03708 1.28579C6.64002 1.68862 7.10999 2.26117 7.38756 2.93107C7.66513 3.60096 7.73784 4.33812 7.5965 5.04933C7.45516 5.76055 7.10612 6.41389 6.5935 6.92675ZM4.00016 5.66675C4.35379 5.66675 4.69292 5.52628 4.94297 5.27623C5.19302 5.02618 5.3335 4.68704 5.3335 4.33342C5.3335 3.9798 5.19302 3.64066 4.94297 3.39061C4.69292 3.14056 4.35379 3.00008 4.00016 3.00008C3.64654 3.00008 3.3074 3.14056 3.05736 3.39061C2.80731 3.64066 2.66683 3.9798 2.66683 4.33342C2.66683 4.68704 2.80731 5.02618 3.05736 5.27623C3.3074 5.52628 3.64654 5.66675 4.00016 5.66675ZM12.5935 12.9268L10.0002 15.5188L7.40683 12.9261C6.89421 12.4132 6.54517 11.7599 6.40383 11.0487C6.26249 10.3374 6.3352 9.60029 6.61277 8.9304C6.89034 8.2605 7.36031 7.68795 7.96325 7.28513C8.5662 6.8823 9.27504 6.6673 10.0002 6.6673C10.7253 6.6673 11.4341 6.8823 12.0371 7.28513C12.64 7.68795 13.11 8.2605 13.3876 8.9304C13.6651 9.60029 13.7378 10.3374 13.5965 11.0487C13.4552 11.7599 13.1061 12.4132 12.5935 12.9261V12.9268ZM10.0002 11.6668C10.3538 11.6668 10.6929 11.5263 10.943 11.2762C11.193 11.0262 11.3335 10.687 11.3335 10.3334C11.3335 9.9798 11.193 9.64066 10.943 9.39061C10.6929 9.14056 10.3538 9.00008 10.0002 9.00008C9.64654 9.00008 9.3074 9.14056 9.05735 9.39061C8.80731 9.64066 8.66683 9.9798 8.66683 10.3334C8.66683 10.687 8.80731 11.0262 9.05735 11.2762C9.3074 11.5263 9.64654 11.6668 10.0002 11.6668Z" fill="#787887"/>
</svg>
