<svg width="14" height="12" viewBox="0 0 14 12" fill="none" xmlns="http://www.w3.org/2000/svg">
<path d="M13.6668 5.33341V11.3334H12.3335V9.33341H1.66683V11.3334H0.333496V0.666748H1.66683V7.33341H7.00016V2.66675H11.0002C11.7074 2.66675 12.3857 2.9477 12.8858 3.4478C13.3859 3.94789 13.6668 4.62617 13.6668 5.33341ZM4.3335 6.66675C3.80306 6.66675 3.29436 6.45603 2.91928 6.08096C2.54421 5.70589 2.3335 5.19718 2.3335 4.66675C2.3335 4.13631 2.54421 3.62761 2.91928 3.25253C3.29436 2.87746 3.80306 2.66675 4.3335 2.66675C4.86393 2.66675 5.37264 2.87746 5.74771 3.25253C6.12278 3.62761 6.3335 4.13631 6.3335 4.66675C6.3335 5.19718 6.12278 5.70589 5.74771 6.08096C5.37264 6.45603 4.86393 6.66675 4.3335 6.66675Z" fill="#FEB800"/>
</svg>
