<svg width="14" height="14" viewBox="0 0 14 14" fill="none" xmlns="http://www.w3.org/2000/svg">
<path d="M2.3335 4.33325C1.80306 4.33325 1.29436 4.12254 0.919283 3.74747C0.54421 3.37239 0.333496 2.86368 0.333496 2.33325C0.333496 1.80282 0.54421 1.29411 0.919283 0.919038C1.29436 0.543966 1.80306 0.333252 2.3335 0.333252C2.86393 0.333252 3.37264 0.543966 3.74771 0.919038C4.12278 1.29411 4.3335 1.80282 4.3335 2.33325C4.3335 2.86368 4.12278 3.37239 3.74771 3.74747C3.37264 4.12254 2.86393 4.33325 2.3335 4.33325ZM11.6668 4.33325C11.1364 4.33325 10.6277 4.12254 10.2526 3.74747C9.87754 3.37239 9.66683 2.86368 9.66683 2.33325C9.66683 1.80282 9.87754 1.29411 10.2526 0.919038C10.6277 0.543966 11.1364 0.333252 11.6668 0.333252C12.1973 0.333252 12.706 0.543966 13.081 0.919038C13.4561 1.29411 13.6668 1.80282 13.6668 2.33325C13.6668 2.86368 13.4561 3.37239 13.081 3.74747C12.706 4.12254 12.1973 4.33325 11.6668 4.33325ZM11.6668 13.6666C11.1364 13.6666 10.6277 13.4559 10.2526 13.0808C9.87754 12.7057 9.66683 12.197 9.66683 11.6666C9.66683 11.1362 9.87754 10.6274 10.2526 10.2524C10.6277 9.8773 11.1364 9.66659 11.6668 9.66659C12.1973 9.66659 12.706 9.8773 13.081 10.2524C13.4561 10.6274 13.6668 11.1362 13.6668 11.6666C13.6668 12.197 13.4561 12.7057 13.081 13.0808C12.706 13.4559 12.1973 13.6666 11.6668 13.6666ZM2.3335 13.6666C1.80306 13.6666 1.29436 13.4559 0.919283 13.0808C0.54421 12.7057 0.333496 12.197 0.333496 11.6666C0.333496 11.1362 0.54421 10.6274 0.919283 10.2524C1.29436 9.8773 1.80306 9.66659 2.3335 9.66659C2.86393 9.66659 3.37264 9.8773 3.74771 10.2524C4.12278 10.6274 4.3335 11.1362 4.3335 11.6666C4.3335 12.197 4.12278 12.7057 3.74771 13.0808C3.37264 13.4559 2.86393 13.6666 2.3335 13.6666ZM5.00016 1.66659H9.00016V2.99992H5.00016V1.66659ZM5.00016 10.9999H9.00016V12.3333H5.00016V10.9999ZM1.66683 4.99992H3.00016V8.99992H1.66683V4.99992ZM11.0002 4.99992H12.3335V8.99992H11.0002V4.99992Z" fill="#FEB800"/>
</svg>
