<svg width="24" height="24" viewBox="0 0 24 24" fill="none" xmlns="http://www.w3.org/2000/svg">
<path d="M12 0L13.8729 2.58446L16.5922 0.913445L17.3335 4.01789L20.4853 3.51472L19.9821 6.66653L23.0866 7.4078L21.4155 10.1271L24 12L21.4155 13.8729L23.0866 16.5922L19.9821 17.3335L20.4853 20.4853L17.3335 19.9821L16.5922 23.0866L13.8729 21.4155L12 24L10.1271 21.4155L7.4078 23.0866L6.66653 19.9821L3.51472 20.4853L4.01789 17.3335L0.913445 16.5922L2.58446 13.8729L0 12L2.58446 10.1271L0.913445 7.4078L4.01789 6.66653L3.51472 3.51472L6.66653 4.01789L7.4078 0.913445L10.1271 2.58446L12 0Z" fill="#11B34A"/>
<path d="M14.75 16.5C14.2859 16.5 13.8408 16.3156 13.5126 15.9874C13.1844 15.6592 13 15.2141 13 14.75C13 14.2859 13.1844 13.8408 13.5126 13.5126C13.8408 13.1844 14.2859 13 14.75 13C15.2141 13 15.6592 13.1844 15.9874 13.5126C16.3156 13.8408 16.5 14.2859 16.5 14.75C16.5 15.2141 16.3156 15.6592 15.9874 15.9874C15.6592 16.3156 15.2141 16.5 14.75 16.5ZM14.75 15.5C14.9489 15.5 15.1397 15.421 15.2803 15.2803C15.421 15.1397 15.5 14.9489 15.5 14.75C15.5 14.5511 15.421 14.3603 15.2803 14.2197C15.1397 14.079 14.9489 14 14.75 14C14.5511 14 14.3603 14.079 14.2197 14.2197C14.079 14.3603 14 14.5511 14 14.75C14 14.9489 14.079 15.1397 14.2197 15.2803C14.3603 15.421 14.5511 15.5 14.75 15.5ZM9.25 11C9.02019 11 8.79262 10.9547 8.5803 10.8668C8.36798 10.7788 8.17507 10.6499 8.01256 10.4874C7.85006 10.3249 7.72116 10.132 7.63321 9.9197C7.54527 9.70738 7.5 9.47981 7.5 9.25C7.5 9.02019 7.54527 8.79262 7.63321 8.5803C7.72116 8.36798 7.85006 8.17507 8.01256 8.01256C8.17507 7.85006 8.36798 7.72116 8.5803 7.63321C8.79262 7.54527 9.02019 7.5 9.25 7.5C9.71413 7.5 10.1592 7.68437 10.4874 8.01256C10.8156 8.34075 11 8.78587 11 9.25C11 9.71413 10.8156 10.1592 10.4874 10.4874C10.1592 10.8156 9.71413 11 9.25 11ZM9.25 10C9.44891 10 9.63968 9.92098 9.78033 9.78033C9.92098 9.63968 10 9.44891 10 9.25C10 9.05109 9.92098 8.86032 9.78033 8.71967C9.63968 8.57902 9.44891 8.5 9.25 8.5C9.05109 8.5 8.86032 8.57902 8.71967 8.71967C8.57902 8.86032 8.5 9.05109 8.5 9.25C8.5 9.44891 8.57902 9.63968 8.71967 9.78033C8.86032 9.92098 9.05109 10 9.25 10ZM15.5355 7.7575L16.2425 8.4645L8.465 16.2425L7.758 15.5355L15.535 7.7575H15.5355Z" fill="white"/>
</svg>
