<svg width="579" height="345" viewBox="0 0 579 345" fill="none" xmlns="http://www.w3.org/2000/svg">
<g opacity="0.2" clip-path="url(#clip0)">
<path d="M501.886 259.854L282.562 259.854" stroke="#63637C" stroke-width="3" stroke-linecap="round" stroke-linejoin="round"/>
<path d="M428.778 311.711L428.778 320.934L282.562 320.934L282.562 311.711L428.778 311.711Z" stroke="#63637C" stroke-linecap="round" stroke-linejoin="round"/>
<path d="M418.139 320.934L418.139 369.104" stroke="#63637C" stroke-linecap="round" stroke-linejoin="round"/>
<path d="M385.465 320.934L385.465 369.104" stroke="#63637C" stroke-linecap="round" stroke-linejoin="round"/>
<path d="M352.792 320.934L352.792 369.104" stroke="#63637C" stroke-linecap="round" stroke-linejoin="round"/>
<path d="M320.118 320.934L320.118 369.104" stroke="#63637C" stroke-linecap="round" stroke-linejoin="round"/>
<path d="M287.444 320.934L287.444 369.104" stroke="#63637C" stroke-linecap="round" stroke-linejoin="round"/>
<path d="M418.139 259.854L418.139 311.71" stroke="#63637C" stroke-linecap="round" stroke-linejoin="round"/>
<path d="M385.465 259.854L385.465 311.71" stroke="#63637C" stroke-linecap="round" stroke-linejoin="round"/>
<path d="M352.792 259.854L352.792 311.71" stroke="#63637C" stroke-linecap="round" stroke-linejoin="round"/>
<path d="M320.118 259.854L320.118 311.71" stroke="#63637C" stroke-linecap="round" stroke-linejoin="round"/>
<path d="M287.444 259.854L287.444 311.71" stroke="#63637C" stroke-linecap="round" stroke-linejoin="round"/>
<path d="M238.341 160.399L238.341 220.873C238.341 236.824 225.408 249.755 209.455 249.755C193.501 249.755 180.568 236.824 180.568 220.873L180.568 160.399C180.568 144.448 193.501 131.517 209.455 131.517C225.408 131.517 238.341 144.448 238.341 160.399Z" stroke="#63637C" stroke-linecap="round" stroke-linejoin="round"/>
<path d="M196.24 256.572L222.669 256.572L222.669 267.159L196.24 267.159L196.24 256.572Z" stroke="#63637C" stroke-linecap="round" stroke-linejoin="round"/>
<path d="M246 226.428L246 200.003L256.588 200.003L256.588 226.428L246 226.428Z" stroke="#63637C" stroke-linecap="round" stroke-linejoin="round"/>
<path d="M246 189.854L246 163.429L256.588 163.429L256.588 189.854L246 189.854Z" stroke="#63637C" stroke-linecap="round" stroke-linejoin="round"/>
<path d="M162.304 226.428L162.304 200.003L172.892 200.003L172.892 226.428L162.304 226.428Z" stroke="#63637C" stroke-linecap="round" stroke-linejoin="round"/>
<path d="M162.304 189.854L162.304 163.429L172.892 163.429L172.892 189.854L162.304 189.854Z" stroke="#63637C" stroke-linecap="round" stroke-linejoin="round"/>
<path d="M196.24 114.114L222.669 114.114L222.669 124.701L196.24 124.701L196.24 114.114Z" stroke="#63637C" stroke-linecap="round" stroke-linejoin="round"/>
<path d="M-9.88581 259.854L-9.88581 332.547L63.222 332.547L63.222 661.897L209.454 661.897L282.562 661.897L392.216 661.897L392.216 369.104L501.886 369.104L501.886 112.852L282.562 112.852L282.562 77.1028L136.33 77.1028L136.33 150.2L-9.8858 150.2L-9.88581 223.297L26.6765 223.297" stroke="#63637C" stroke-width="3" stroke-linecap="round" stroke-linejoin="round"/>
<path d="M63.2221 332.547L209.455 332.547L209.455 442.605" stroke="#63637C" stroke-width="3" stroke-linecap="round" stroke-linejoin="round"/>
<path d="M282.562 112.852L282.562 223.297L319.108 223.297" stroke="#63637C" stroke-width="3" stroke-linecap="round" stroke-linejoin="round"/>
<path d="M282.562 259.854C284.252 259.856 285.939 259.738 287.612 259.5" stroke="#63637C" stroke-linecap="round" stroke-linejoin="round"/>
<path d="M292.225 258.558C298.726 256.773 304.607 253.227 309.22 248.312C313.833 243.397 316.998 237.303 318.367 230.703" stroke="#63637C" stroke-linecap="round" stroke-linejoin="round" stroke-dasharray="5.62 2.81"/>
<path d="M318.771 228.347C318.995 226.673 319.107 224.986 319.108 223.297" stroke="#63637C" stroke-linecap="round" stroke-linejoin="round"/>
<path d="M-0.20636 258.558C6.29177 256.768 12.1702 253.221 16.7824 248.306C21.3946 243.392 24.562 237.301 25.936 230.703" stroke="#63637C" stroke-linecap="round" stroke-linejoin="round" stroke-dasharray="5.62 2.81"/>
<path d="M26.3232 228.347C26.5605 226.674 26.6787 224.987 26.6767 223.297" stroke="#63637C" stroke-linecap="round" stroke-linejoin="round"/>
<path d="M501.886 112.852L501.886 150.2L465.323 150.2L465.323 112.852L501.886 112.852Z" stroke="#63637C" stroke-linecap="round" stroke-linejoin="round"/>
<path d="M491.028 145.42C492.207 145.42 493.359 145.07 494.339 144.416C495.319 143.761 496.083 142.831 496.534 141.742C496.985 140.653 497.103 139.455 496.873 138.299C496.643 137.144 496.075 136.082 495.242 135.249C494.409 134.415 493.347 133.848 492.191 133.618C491.035 133.388 489.837 133.506 488.748 133.957C487.659 134.408 486.728 135.172 486.073 136.152C485.419 137.131 485.069 138.283 485.069 139.462C485.069 141.042 485.697 142.557 486.815 143.675C487.932 144.792 489.448 145.42 491.028 145.42V145.42Z" stroke="#63637C" stroke-linecap="round" stroke-linejoin="round"/>
<path d="M491.028 129.548C492.207 129.548 493.359 129.199 494.339 128.544C495.319 127.89 496.083 126.959 496.534 125.87C496.985 124.782 497.103 123.584 496.873 122.428C496.643 121.272 496.075 120.21 495.242 119.377C494.409 118.544 493.347 117.976 492.191 117.747C491.035 117.517 489.837 117.635 488.748 118.086C487.659 118.537 486.728 119.3 486.073 120.28C485.419 121.26 485.069 122.412 485.069 123.59C485.074 125.169 485.703 126.682 486.819 127.798C487.936 128.915 489.449 129.544 491.028 129.548Z" stroke="#63637C" stroke-linecap="round" stroke-linejoin="round"/>
<path d="M476.181 145.42C477.36 145.42 478.512 145.07 479.492 144.416C480.472 143.761 481.236 142.831 481.687 141.742C482.138 140.653 482.256 139.455 482.026 138.299C481.796 137.143 481.228 136.082 480.395 135.249C479.561 134.415 478.5 133.848 477.344 133.618C476.188 133.388 474.99 133.506 473.901 133.957C472.812 134.408 471.881 135.172 471.226 136.151C470.572 137.131 470.222 138.283 470.222 139.462C470.22 140.245 470.372 141.021 470.671 141.744C470.97 142.468 471.409 143.126 471.962 143.68C472.516 144.233 473.174 144.672 473.898 144.971C474.622 145.27 475.398 145.422 476.181 145.42V145.42Z" stroke="#63637C" stroke-linecap="round" stroke-linejoin="round"/>
<path d="M476.181 129.548C477.36 129.548 478.512 129.199 479.492 128.544C480.472 127.89 481.236 126.959 481.687 125.87C482.138 124.782 482.256 123.584 482.026 122.428C481.796 121.272 481.228 120.21 480.395 119.377C479.561 118.544 478.5 117.976 477.344 117.747C476.188 117.517 474.99 117.635 473.901 118.086C472.812 118.537 471.881 119.3 471.226 120.28C470.572 121.26 470.222 122.412 470.222 123.59C470.222 124.373 470.376 125.147 470.676 125.87C470.975 126.593 471.414 127.25 471.967 127.803C472.521 128.357 473.178 128.795 473.901 129.095C474.624 129.394 475.399 129.548 476.181 129.548V129.548Z" stroke="#63637C" stroke-linecap="round" stroke-linejoin="round"/>
<path d="M465.34 112.852L465.34 150.2L428.778 150.2L428.778 112.852L465.34 112.852Z" stroke="#63637C" stroke-linecap="round" stroke-linejoin="round"/>
<path d="M392.216 112.852L392.216 150.2L355.653 150.2L355.653 112.852L392.216 112.852Z" stroke="#63637C" stroke-linecap="round" stroke-linejoin="round"/>
<path d="M428.778 112.852L428.778 150.2L392.215 150.2L392.216 112.852L428.778 112.852Z" stroke="#63637C" stroke-linecap="round" stroke-linejoin="round"/>
<path d="M424.098 112.835L424.098 145.42L396.895 145.42L396.895 112.835L424.098 112.835Z" stroke="#63637C" stroke-linecap="round" stroke-linejoin="round"/>
<path d="M319.159 113.206L319.159 149.847L282.512 149.847L282.512 113.206L319.159 113.206Z" stroke="#63637C" stroke-linecap="round" stroke-linejoin="round"/>
<path d="M355.67 113.189L355.67 131.518L319.108 131.518L319.108 113.189L355.67 113.189Z" stroke="#63637C" stroke-linecap="round" stroke-linejoin="round"/>
<path d="M501.886 223.264L501.886 259.905L465.239 259.905L465.239 223.264L501.886 223.264Z" stroke="#63637C" stroke-linecap="round" stroke-linejoin="round"/>
<path d="M373.951 241.576L373.951 259.905L337.355 259.905L337.355 241.576L373.951 241.576Z" stroke="#63637C" stroke-linecap="round" stroke-linejoin="round"/>
<path d="M465.34 209.748L465.34 259.905L373.901 259.905L373.901 209.748L465.34 209.748Z" stroke="#63637C" stroke-linecap="round" stroke-linejoin="round"/>
<path d="M136.33 296.394L136.33 332.547L26.6594 332.547L26.6594 296.394L136.33 296.394Z" stroke="#63637C" stroke-linecap="round" stroke-linejoin="round"/>
<path d="M86.604 310.886L86.604 332.547L39.8574 332.547L39.8574 310.886L86.604 310.886Z" stroke="#63637C" stroke-linecap="round" stroke-linejoin="round"/>
<path d="M107.663 321.725C107.663 315.98 112.32 311.323 118.066 311.323C123.811 311.323 128.469 315.98 128.469 321.725C128.469 327.47 123.811 332.126 118.066 332.126C112.32 332.126 107.663 327.47 107.663 321.725Z" stroke="#63637C" stroke-linecap="round" stroke-linejoin="round"/>
<path d="M538.448 113.694L538.448 215.353" stroke="#63637C" stroke-linecap="round" stroke-linejoin="round"/>
<path d="M543.919 112.852L543.919 114.535L532.977 114.535L532.977 112.852L543.919 112.852Z" fill="#63637C"/>
<path d="M538.448 368.263L538.448 266.603" stroke="#63637C" stroke-linecap="round" stroke-linejoin="round"/>
<path d="M552.282 256.705C552.275 256.631 552.242 256.571 552.182 256.525C552.128 256.471 552.062 256.445 551.982 256.445L545.582 256.445C545.495 256.445 545.422 256.478 545.362 256.545C545.308 256.605 545.282 256.681 545.282 256.775C545.282 256.861 545.308 256.935 545.362 256.995C545.422 257.055 545.495 257.085 545.582 257.085L551.432 257.085L550.692 258.335C550.665 258.381 550.652 258.428 550.652 258.475C550.652 258.561 550.685 258.638 550.752 258.705C550.818 258.765 550.892 258.795 550.972 258.795C551.018 258.795 551.065 258.781 551.112 258.755C551.158 258.721 551.195 258.681 551.222 258.635L552.242 256.945C552.282 256.878 552.295 256.798 552.282 256.705ZM545.862 250.585C545.862 250.505 545.832 250.438 545.772 250.385C545.718 250.325 545.652 250.295 545.572 250.295C545.485 250.295 545.415 250.325 545.362 250.385C545.308 250.438 545.282 250.505 545.282 250.585L545.282 254.335C545.282 254.428 545.308 254.505 545.362 254.565C545.415 254.625 545.488 254.655 545.582 254.655C545.655 254.655 545.725 254.628 545.792 254.575L548.342 252.265C548.742 251.891 549.098 251.615 549.412 251.435C549.732 251.255 550.045 251.165 550.352 251.165C550.805 251.165 551.162 251.301 551.422 251.575C551.682 251.848 551.812 252.228 551.812 252.715C551.812 253.041 551.732 253.335 551.572 253.595C551.418 253.848 551.182 254.038 550.862 254.165C550.742 254.238 550.682 254.325 550.682 254.425C550.682 254.498 550.708 254.568 550.762 254.635C550.815 254.701 550.875 254.735 550.942 254.735C550.982 254.735 551.028 254.721 551.082 254.695C551.135 254.668 551.188 254.635 551.242 254.595C551.602 254.421 551.882 254.161 552.082 253.815C552.282 253.468 552.382 253.088 552.382 252.675C552.382 252.001 552.198 251.475 551.832 251.095C551.465 250.715 550.985 250.525 550.392 250.525C550.025 250.525 549.648 250.625 549.262 250.825C548.882 251.025 548.438 251.355 547.932 251.815L545.862 253.655L545.862 250.585ZM545.182 246.871C545.182 247.397 545.338 247.841 545.652 248.201C545.965 248.561 546.392 248.834 546.932 249.021C547.478 249.201 548.095 249.291 548.782 249.291C549.475 249.291 550.092 249.201 550.632 249.021C551.172 248.841 551.598 248.571 551.912 248.211C552.225 247.844 552.382 247.397 552.382 246.871C552.382 246.344 552.225 245.901 551.912 245.541C551.605 245.174 551.178 244.901 550.632 244.721C550.092 244.534 549.475 244.441 548.782 244.441C548.095 244.441 547.478 244.534 546.932 244.721C546.392 244.901 545.965 245.174 545.652 245.541C545.338 245.901 545.182 246.344 545.182 246.871ZM545.802 246.871C545.802 246.297 546.068 245.857 546.602 245.551C547.142 245.237 547.868 245.081 548.782 245.081C549.702 245.081 550.428 245.237 550.962 245.551C551.502 245.857 551.772 246.297 551.772 246.871C551.772 247.437 551.502 247.877 550.962 248.191C550.428 248.497 549.702 248.651 548.782 248.651C547.868 248.651 547.142 248.497 546.602 248.191C546.068 247.877 545.802 247.437 545.802 246.871ZM545.182 240.924C545.182 241.45 545.338 241.894 545.652 242.254C545.965 242.614 546.392 242.887 546.932 243.074C547.478 243.254 548.095 243.344 548.782 243.344C549.475 243.344 550.092 243.254 550.632 243.074C551.172 242.894 551.598 242.624 551.912 242.264C552.225 241.897 552.382 241.45 552.382 240.924C552.382 240.397 552.225 239.954 551.912 239.594C551.605 239.227 551.178 238.954 550.632 238.774C550.092 238.587 549.475 238.494 548.782 238.494C548.095 238.494 547.478 238.587 546.932 238.774C546.392 238.954 545.965 239.227 545.652 239.594C545.338 239.954 545.182 240.397 545.182 240.924ZM545.802 240.924C545.802 240.35 546.068 239.91 546.602 239.604C547.142 239.29 547.868 239.134 548.782 239.134C549.702 239.134 550.428 239.29 550.962 239.604C551.502 239.91 551.772 240.35 551.772 240.924C551.772 241.49 551.502 241.93 550.962 242.244C550.428 242.55 549.702 242.704 548.782 242.704C547.868 242.704 547.142 242.55 546.602 242.244C546.068 241.93 545.802 241.49 545.802 240.924Z" fill="#63637C"/>
<path d="M400.608 63.272C400.514 63.272 400.444 63.2986 400.398 63.352C400.344 63.4053 400.318 63.472 400.318 63.552C400.318 63.5853 400.328 63.632 400.348 63.692L403.098 70.102C403.124 70.162 403.164 70.212 403.218 70.252C403.271 70.2853 403.328 70.302 403.388 70.302C403.468 70.302 403.541 70.2753 403.608 70.222C403.668 70.1686 403.698 70.102 403.698 70.022C403.698 69.9686 403.688 69.9186 403.668 69.872L401.078 63.842L404.288 63.842C404.368 63.842 404.438 63.8153 404.498 63.762C404.551 63.7086 404.578 63.6386 404.578 63.552C404.578 63.472 404.551 63.4053 404.498 63.352C404.438 63.2986 404.368 63.272 404.288 63.272L400.608 63.272ZM397.472 65.622C397.045 65.622 396.662 65.7186 396.322 65.912C395.975 66.0986 395.705 66.3653 395.512 66.712C395.312 67.052 395.212 67.4353 395.212 67.862C395.212 68.3286 395.322 68.7486 395.542 69.122C395.755 69.4886 396.055 69.7753 396.442 69.982C396.829 70.1886 397.269 70.292 397.762 70.292C398.042 70.292 398.322 70.2453 398.602 70.152C398.875 70.0586 399.115 69.9253 399.322 69.752C399.362 69.7253 399.395 69.6886 399.422 69.642C399.442 69.5886 399.452 69.5386 399.452 69.492C399.452 69.4253 399.425 69.362 399.372 69.302C399.312 69.2353 399.242 69.202 399.162 69.202C399.089 69.202 399.015 69.232 398.942 69.292C398.769 69.4253 398.582 69.5286 398.382 69.602C398.175 69.6753 397.969 69.712 397.762 69.712C397.382 69.712 397.045 69.6353 396.752 69.482C396.452 69.3286 396.222 69.112 396.062 68.832C395.895 68.552 395.812 68.2353 395.812 67.882C395.812 67.3753 395.975 66.9686 396.302 66.662C396.629 66.3486 397.065 66.192 397.612 66.192C397.819 66.192 398.012 66.222 398.192 66.282C398.365 66.342 398.562 66.422 398.782 66.522C398.942 66.602 399.045 66.642 399.092 66.642C399.192 66.642 399.275 66.612 399.342 66.552C399.402 66.4853 399.432 66.4086 399.432 66.322C399.432 66.2886 399.429 66.262 399.422 66.242L398.992 63.522C398.979 63.4553 398.945 63.3986 398.892 63.352C398.832 63.2986 398.762 63.272 398.682 63.272L395.672 63.272C395.592 63.272 395.525 63.302 395.472 63.362C395.412 63.4153 395.382 63.4853 395.382 63.572C395.382 63.652 395.412 63.722 395.472 63.782C395.525 63.8353 395.592 63.862 395.672 63.862L398.472 63.862L398.812 65.932C398.639 65.8453 398.435 65.772 398.202 65.712C397.962 65.652 397.719 65.622 397.472 65.622ZM391.544 70.372C392.07 70.372 392.514 70.2153 392.874 69.902C393.234 69.5886 393.507 69.162 393.694 68.622C393.874 68.0753 393.964 67.4586 393.964 66.772C393.964 66.0786 393.874 65.462 393.694 64.922C393.514 64.382 393.244 63.9553 392.884 63.642C392.517 63.3286 392.07 63.172 391.544 63.172C391.017 63.172 390.574 63.3286 390.214 63.642C389.847 63.9486 389.574 64.3753 389.394 64.922C389.207 65.462 389.114 66.0786 389.114 66.772C389.114 67.4586 389.207 68.0753 389.394 68.622C389.574 69.162 389.847 69.5886 390.214 69.902C390.574 70.2153 391.017 70.372 391.544 70.372ZM391.544 69.752C390.97 69.752 390.53 69.4853 390.224 68.952C389.91 68.412 389.754 67.6853 389.754 66.772C389.754 65.852 389.91 65.1253 390.224 64.592C390.53 64.052 390.97 63.782 391.544 63.782C392.11 63.782 392.55 64.052 392.864 64.592C393.17 65.1253 393.324 65.852 393.324 66.772C393.324 67.6853 393.17 68.412 392.864 68.952C392.55 69.4853 392.11 69.752 391.544 69.752Z" fill="#63637C"/>
<path d="M137.171 40.5459L191.459 40.5459" stroke="#63637C" stroke-linecap="round" stroke-linejoin="round"/>
<path d="M138.013 35.076L138.013 46.0161L136.33 46.0161L136.33 35.076L138.013 35.076Z" fill="#63637C"/>
<path d="M281.721 40.5459L227.433 40.5459" stroke="#63637C" stroke-linecap="round" stroke-linejoin="round"/>
<path d="M282.563 35.076L282.562 46.0161L280.879 46.0161L280.879 35.076L282.563 35.076Z" fill="#63637C"/>
<path d="M217.829 26.7148C217.736 26.7148 217.666 26.7415 217.619 26.7948C217.566 26.8482 217.539 26.9148 217.539 26.9948C217.539 27.0282 217.549 27.0748 217.569 27.1348L220.319 33.5448C220.346 33.6048 220.386 33.6548 220.439 33.6948C220.493 33.7282 220.549 33.7448 220.609 33.7448C220.689 33.7448 220.763 33.7182 220.829 33.6648C220.889 33.6115 220.919 33.5448 220.919 33.4648C220.919 33.4115 220.909 33.3615 220.889 33.3148L218.299 27.2848L221.509 27.2848C221.589 27.2848 221.659 27.2582 221.719 27.2048C221.773 27.1515 221.799 27.0815 221.799 26.9948C221.799 26.9148 221.773 26.8482 221.719 26.7948C221.659 26.7415 221.589 26.7148 221.509 26.7148L217.829 26.7148ZM214.694 29.0648C214.267 29.0648 213.884 29.1615 213.544 29.3548C213.197 29.5415 212.927 29.8082 212.734 30.1548C212.534 30.4948 212.434 30.8782 212.434 31.3048C212.434 31.7715 212.544 32.1915 212.764 32.5648C212.977 32.9315 213.277 33.2182 213.664 33.4248C214.05 33.6315 214.49 33.7348 214.984 33.7348C215.264 33.7348 215.544 33.6882 215.824 33.5948C216.097 33.5015 216.337 33.3682 216.544 33.1948C216.584 33.1682 216.617 33.1315 216.644 33.0848C216.664 33.0315 216.674 32.9815 216.674 32.9348C216.674 32.8682 216.647 32.8048 216.594 32.7448C216.534 32.6782 216.464 32.6448 216.384 32.6448C216.31 32.6448 216.237 32.6748 216.164 32.7348C215.99 32.8682 215.804 32.9715 215.604 33.0448C215.397 33.1182 215.19 33.1548 214.984 33.1548C214.604 33.1548 214.267 33.0782 213.974 32.9248C213.674 32.7715 213.444 32.5548 213.284 32.2748C213.117 31.9948 213.034 31.6782 213.034 31.3248C213.034 30.8182 213.197 30.4115 213.524 30.1048C213.85 29.7915 214.287 29.6348 214.834 29.6348C215.04 29.6348 215.234 29.6648 215.414 29.7248C215.587 29.7848 215.784 29.8648 216.004 29.9648C216.164 30.0448 216.267 30.0848 216.314 30.0848C216.414 30.0848 216.497 30.0548 216.564 29.9948C216.624 29.9282 216.654 29.8515 216.654 29.7648C216.654 29.7315 216.65 29.7048 216.644 29.6848L216.214 26.9648C216.2 26.8982 216.167 26.8415 216.114 26.7948C216.054 26.7415 215.984 26.7148 215.904 26.7148L212.894 26.7148C212.814 26.7148 212.747 26.7448 212.694 26.8048C212.634 26.8582 212.604 26.9282 212.604 27.0148C212.604 27.0948 212.634 27.1648 212.694 27.2248C212.747 27.2782 212.814 27.3048 212.894 27.3048L215.694 27.3048L216.034 29.3748C215.86 29.2882 215.657 29.2148 215.424 29.1548C215.184 29.0948 214.94 29.0648 214.694 29.0648ZM208.765 33.8148C209.292 33.8148 209.735 33.6582 210.095 33.3448C210.455 33.0315 210.729 32.6048 210.915 32.0648C211.095 31.5182 211.185 30.9015 211.185 30.2148C211.185 29.5215 211.095 28.9048 210.915 28.3648C210.735 27.8248 210.465 27.3982 210.105 27.0848C209.739 26.7715 209.292 26.6148 208.765 26.6148C208.239 26.6148 207.795 26.7715 207.435 27.0848C207.069 27.3915 206.795 27.8182 206.615 28.3648C206.429 28.9048 206.335 29.5215 206.335 30.2148C206.335 30.9015 206.429 31.5182 206.615 32.0648C206.795 32.6048 207.069 33.0315 207.435 33.3448C207.795 33.6582 208.239 33.8148 208.765 33.8148ZM208.765 33.1948C208.192 33.1948 207.752 32.9282 207.445 32.3948C207.132 31.8548 206.975 31.1282 206.975 30.2148C206.975 29.2948 207.132 28.5682 207.445 28.0348C207.752 27.4948 208.192 27.2248 208.765 27.2248C209.332 27.2248 209.772 27.4948 210.085 28.0348C210.392 28.5682 210.545 29.2948 210.545 30.2148C210.545 31.1282 210.392 31.8548 210.085 32.3948C209.772 32.9282 209.332 33.1948 208.765 33.1948Z" fill="#63637C"/>
<path d="M26.6768 332.951L26.6768 464.031" stroke="#63637C" stroke-linecap="round" stroke-linejoin="round"/>
<path d="M32.1475 332.11L32.1475 333.793L21.2057 333.793L21.2057 332.11L32.1475 332.11Z" fill="#63637C"/>
<path d="M-9.04431 112.852L45.2437 112.852" stroke="#63637C" stroke-linecap="round" stroke-linejoin="round"/>
<path d="M135.488 112.852L81.2171 112.852" stroke="#63637C" stroke-linecap="round" stroke-linejoin="round"/>
<path d="M136.33 107.382L136.33 118.322L134.646 118.322L134.646 107.382L136.33 107.382Z" fill="#63637C"/>
<path d="M71.6136 99.021C71.5203 99.021 71.4503 99.0477 71.4036 99.101C71.3503 99.1543 71.3236 99.221 71.3236 99.301C71.3236 99.3343 71.3336 99.381 71.3536 99.441L74.1036 105.851C74.1303 105.911 74.1703 105.961 74.2236 106.001C74.2769 106.034 74.3336 106.051 74.3936 106.051C74.4736 106.051 74.5469 106.024 74.6136 105.971C74.6736 105.918 74.7036 105.851 74.7036 105.771C74.7036 105.718 74.6936 105.668 74.6736 105.621L72.0836 99.591L75.2936 99.591C75.3736 99.591 75.4436 99.5643 75.5036 99.511C75.5569 99.4577 75.5836 99.3877 75.5836 99.301C75.5836 99.221 75.5569 99.1543 75.5036 99.101C75.4436 99.0477 75.3736 99.021 75.2936 99.021L71.6136 99.021ZM68.4778 101.371C68.0511 101.371 67.6678 101.468 67.3278 101.661C66.9811 101.848 66.7111 102.114 66.5178 102.461C66.3178 102.801 66.2178 103.184 66.2178 103.611C66.2178 104.078 66.3278 104.498 66.5478 104.871C66.7611 105.238 67.0611 105.524 67.4478 105.731C67.8345 105.938 68.2745 106.041 68.7678 106.041C69.0478 106.041 69.3278 105.994 69.6078 105.901C69.8811 105.808 70.1211 105.674 70.3278 105.501C70.3678 105.474 70.4011 105.438 70.4278 105.391C70.4478 105.338 70.4578 105.288 70.4578 105.241C70.4578 105.174 70.4311 105.111 70.3778 105.051C70.3178 104.984 70.2478 104.951 70.1678 104.951C70.0945 104.951 70.0211 104.981 69.9478 105.041C69.7745 105.174 69.5878 105.278 69.3878 105.351C69.1811 105.424 68.9745 105.461 68.7678 105.461C68.3878 105.461 68.0511 105.384 67.7578 105.231C67.4578 105.078 67.2278 104.861 67.0678 104.581C66.9011 104.301 66.8178 103.984 66.8178 103.631C66.8178 103.124 66.9811 102.718 67.3078 102.411C67.6345 102.098 68.0711 101.941 68.6178 101.941C68.8245 101.941 69.0178 101.971 69.1978 102.031C69.3711 102.091 69.5678 102.171 69.7878 102.271C69.9478 102.351 70.0511 102.391 70.0978 102.391C70.1978 102.391 70.2811 102.361 70.3478 102.301C70.4078 102.234 70.4378 102.158 70.4378 102.071C70.4378 102.038 70.4345 102.011 70.4278 101.991L69.9978 99.271C69.9845 99.2043 69.9511 99.1477 69.8978 99.101C69.8378 99.0477 69.7678 99.021 69.6878 99.021L66.6778 99.021C66.5978 99.021 66.5311 99.051 66.4778 99.111C66.4178 99.1643 66.3878 99.2343 66.3878 99.321C66.3878 99.401 66.4178 99.471 66.4778 99.531C66.5311 99.5843 66.5978 99.611 66.6778 99.611L69.4778 99.611L69.8178 101.681C69.6445 101.594 69.4411 101.521 69.2078 101.461C68.9678 101.401 68.7245 101.371 68.4778 101.371ZM62.5495 106.121C63.0762 106.121 63.5195 105.964 63.8795 105.651C64.2395 105.338 64.5129 104.911 64.6995 104.371C64.8795 103.824 64.9695 103.208 64.9695 102.521C64.9695 101.828 64.8795 101.211 64.6995 100.671C64.5195 100.131 64.2495 99.7043 63.8895 99.391C63.5229 99.0777 63.0762 98.921 62.5495 98.921C62.0229 98.921 61.5795 99.0777 61.2195 99.391C60.8529 99.6977 60.5795 100.124 60.3995 100.671C60.2129 101.211 60.1195 101.828 60.1195 102.521C60.1195 103.208 60.2129 103.824 60.3995 104.371C60.5795 104.911 60.8529 105.338 61.2195 105.651C61.5795 105.964 62.0229 106.121 62.5495 106.121ZM62.5495 105.501C61.9762 105.501 61.5362 105.234 61.2295 104.701C60.9162 104.161 60.7595 103.434 60.7595 102.521C60.7595 101.601 60.9162 100.874 61.2295 100.341C61.5362 99.801 61.9762 99.531 62.5495 99.531C63.1162 99.531 63.5562 99.801 63.8695 100.341C64.1762 100.874 64.3295 101.601 64.3295 102.521C64.3295 103.434 64.1762 104.161 63.8695 104.701C63.5562 105.234 63.1162 105.501 62.5495 105.501Z" fill="#63637C"/>
<path d="M574.994 656.814L574.994 82.1859" stroke="#63637C" stroke-linecap="round" stroke-linejoin="round"/>
<path d="M574.994 77.103C574.066 79.6992 572.712 82.1225 570.987 84.2729L574.994 82.8255L579 84.2729C577.287 82.1143 575.934 79.6931 574.994 77.103Z" fill="#63637C"/>
<path d="M-4.85243 4.00584L496.802 4.00586" stroke="#63637C" stroke-linecap="round" stroke-linejoin="round"/>
<path d="M501.886 4.00595C499.289 3.06719 496.862 1.71444 494.698 0.000182791L496.146 4.00595L494.698 8.01172C496.859 6.29246 499.287 4.93923 501.886 4.00595Z" fill="#63637C"/>
<path d="M283.353 77.103L370.265 77.103" stroke="#63637C" stroke-linecap="round" stroke-linejoin="round"/>
<path d="M284.195 71.6331L284.195 82.5732L282.512 82.5732L282.512 71.6331L284.195 71.6331Z" fill="#63637C"/>
<path d="M501.044 77.103L414.133 77.103" stroke="#63637C" stroke-linecap="round" stroke-linejoin="round"/>
<path d="M501.886 71.6331L501.886 82.5732L500.202 82.5732L500.202 71.6331L501.886 71.6331Z" fill="#63637C"/>
</g>
<defs>
<clipPath id="clip0">
<rect width="345" height="579" fill="white" transform="matrix(4.37114e-08 -1 -1 -4.37114e-08 579 345)"/>
</clipPath>
</defs>
</svg>
