<svg width="24" height="24" viewBox="0 0 24 24" fill="none" xmlns="http://www.w3.org/2000/svg">
<circle cx="12" cy="12" r="12" fill="#2F89CE"/>
<path d="M5.61081 12.2245L8.36967 13.2532L9.44515 16.7134C9.49191 16.9472 9.77247 16.994 9.95951 16.8537L11.5026 15.5912C11.6429 15.4509 11.8767 15.4509 12.0637 15.5912L14.8226 17.6019C15.0096 17.7421 15.2902 17.6486 15.3369 17.4148L17.3944 7.5952C17.4411 7.3614 17.2073 7.1276 16.9735 7.22112L5.61081 11.6166C5.33025 11.7101 5.33025 12.1309 5.61081 12.2245ZM9.30487 12.7388L14.729 9.41884C14.8226 9.37208 14.9161 9.51237 14.8226 9.55913L10.3804 13.7208C10.2401 13.8611 10.0998 14.0481 10.0998 14.2819L9.95951 15.4041C9.95951 15.5444 9.72571 15.5912 9.67895 15.4041L9.11782 13.3467C8.97754 13.1129 9.07107 12.8323 9.30487 12.7388Z" fill="white"/>
</svg>
