<svg width="32" height="32" viewBox="0 0 32 32" fill="none" xmlns="http://www.w3.org/2000/svg">
<circle cx="16" cy="16" r="16" fill="#7294C7"/>
<path d="M23.8453 20.0924C23.8453 20.026 23.7789 20.026 23.7789 19.9596C23.5132 19.4282 22.9154 18.764 22.1184 18.0334C21.7199 17.7013 21.5207 17.4357 21.3878 17.3028C21.1886 17.0372 21.1886 16.8379 21.255 16.5722C21.3214 16.373 21.5871 16.0409 22.052 15.4431C22.3177 15.111 22.4505 14.9118 22.6498 14.7125C23.646 13.3842 24.111 12.5207 23.9781 12.1222L23.9117 12.0558C23.8453 11.9894 23.7789 11.923 23.646 11.923C23.5132 11.8565 23.314 11.8565 23.1147 11.923H20.5908C20.5244 11.923 20.5244 11.923 20.3915 11.923C20.3251 11.923 20.2587 11.923 20.2587 11.923H20.1923H20.1259L20.0594 11.9894C19.993 12.0558 19.993 12.0558 19.993 12.1222C19.7274 12.8528 19.3953 13.4506 19.0632 14.1147C18.8639 14.4468 18.6647 14.7789 18.4654 15.0446C18.2662 15.3103 18.1333 15.5095 18.0005 15.6424C17.8676 15.7752 17.7348 15.8416 17.6684 15.9745C17.602 16.0409 17.4691 16.1073 17.4691 16.0409C17.4027 16.0409 17.3363 16.0409 17.3363 15.9745C17.2699 15.908 17.2035 15.8416 17.137 15.7752C17.0706 15.7088 17.0706 15.576 17.0042 15.4431C17.0042 15.3103 17.0042 15.1774 17.0042 15.111C17.0042 15.0446 17.0042 14.8454 17.0042 14.7125C17.0042 14.5133 17.0042 14.3804 17.0042 14.314C17.0042 14.1147 17.0042 13.8491 17.0042 13.5834C17.0042 13.3177 17.0042 13.1185 17.0042 12.9856C17.0042 12.8528 17.0042 12.6535 17.0042 12.5207C17.0042 12.3215 17.0042 12.1886 17.0042 12.1222C17.0042 12.0558 16.9378 11.9229 16.9378 11.8565C16.8714 11.7901 16.8049 11.7237 16.7385 11.6573C16.6721 11.5909 16.5393 11.5909 16.4729 11.5244C16.1408 11.458 15.7423 11.3916 15.2773 11.3916C14.2146 11.3916 13.484 11.458 13.2184 11.5909C13.0855 11.6573 12.9527 11.7237 12.8863 11.8565C12.7534 11.9894 12.7534 12.0558 12.8199 12.0558C13.1519 12.1222 13.4176 12.255 13.5505 12.4543L13.6169 12.5871C13.6833 12.6536 13.6833 12.7864 13.7497 12.9856C13.8161 13.1849 13.8161 13.3841 13.8161 13.6498C13.8161 14.0483 13.8161 14.4468 13.8161 14.7125C13.8161 15.0446 13.7497 15.2439 13.7497 15.4431C13.7497 15.6424 13.6833 15.7752 13.6169 15.8416C13.5505 15.9745 13.5505 16.0409 13.484 16.0409C13.484 16.0409 13.484 16.1073 13.4176 16.1073C13.3512 16.1073 13.2848 16.1737 13.1519 16.1737C13.0855 16.1737 12.9527 16.1073 12.8863 16.0409C12.7534 15.9745 12.6206 15.8416 12.5542 15.7088C12.4213 15.576 12.2885 15.3767 12.1557 15.111C12.0228 14.8453 11.8236 14.5797 11.6907 14.1812L11.5579 13.9155C11.4915 13.7827 11.3587 13.517 11.2258 13.1849C11.093 12.8528 10.9601 12.5871 10.8273 12.255C10.7609 12.1222 10.6945 12.0558 10.6281 11.9894H10.5616C10.5616 11.9894 10.4952 11.923 10.4288 11.923C10.3624 11.923 10.296 11.8565 10.2295 11.8565H7.83848C7.5728 11.8565 7.43997 11.9229 7.37355 11.9894L7.30713 12.0558C7.30713 12.0558 7.30713 12.1222 7.30713 12.1886C7.30713 12.255 7.30713 12.3215 7.37355 12.4543C7.70564 13.2513 8.10415 14.0483 8.50266 14.8454C8.90117 15.576 9.29969 16.2401 9.56536 16.7051C9.89745 17.17 10.1631 17.6349 10.4952 18.0334C10.8273 18.4319 11.0266 18.6976 11.093 18.8305C11.2258 18.9633 11.2922 19.0297 11.3586 19.0961L11.5579 19.2954C11.6907 19.4282 11.89 19.6275 12.1557 19.8267C12.4213 20.026 12.7534 20.2252 13.0855 20.4245C13.4176 20.6237 13.8161 20.7566 14.2146 20.8894C14.6796 21.0223 15.0781 21.0887 15.4766 21.0223H16.4729C16.6721 21.0223 16.805 20.9558 16.9378 20.823L17.0042 20.7566C17.0042 20.6902 17.0706 20.6902 17.0706 20.6237C17.0706 20.5573 17.0706 20.4909 17.0706 20.3581C17.0706 20.0924 17.0706 19.8931 17.137 19.6939C17.2035 19.4946 17.2035 19.3618 17.2699 19.229C17.3363 19.0961 17.4027 19.0297 17.4691 18.9633C17.5356 18.8969 17.602 18.8305 17.602 18.8305H17.6684C17.8012 18.764 18.0005 18.8305 18.1333 18.9633C18.3326 19.0961 18.5318 19.2954 18.6647 19.4946C18.7975 19.6939 18.9968 19.8931 19.2624 20.1588C19.5281 20.4245 19.7274 20.6238 19.8602 20.6902L20.0594 20.823C20.1923 20.8894 20.3251 20.9558 20.5244 21.0223C20.7236 21.0887 20.8565 21.0887 20.9893 21.0887L23.2475 21.0223C23.4468 21.0223 23.646 20.9558 23.7789 20.8894C23.9117 20.823 23.9781 20.7566 23.9781 20.6237C23.9781 20.5573 23.9781 20.4245 23.9781 20.3581C23.8453 20.2252 23.8453 20.1588 23.8453 20.0924Z" fill="white"/>
</svg>
