<svg width="368" height="208" viewBox="0 0 368 208" fill="none" xmlns="http://www.w3.org/2000/svg">
<circle cx="4" cy="4" r="4" fill="#E3E8EF"/>
<circle cx="44" cy="4" r="4" fill="#E3E8EF"/>
<circle cx="84" cy="4" r="4" fill="#E3E8EF"/>
<circle cx="124" cy="4" r="4" fill="#E3E8EF"/>
<circle cx="164" cy="4" r="4" fill="#E3E8EF"/>
<circle cx="204" cy="4" r="4" fill="#E3E8EF"/>
<circle cx="244" cy="4" r="4" fill="#E3E8EF"/>
<circle cx="284" cy="4" r="4" fill="#E3E8EF"/>
<circle cx="324" cy="4" r="4" fill="#E3E8EF"/>
<circle cx="364" cy="4" r="4" fill="#E3E8EF"/>
<circle cx="4" cy="44" r="4" fill="#E3E8EF"/>
<circle cx="44" cy="44" r="4" fill="#E3E8EF"/>
<circle cx="84" cy="44" r="4" fill="#E3E8EF"/>
<circle cx="124" cy="44" r="4" fill="#E3E8EF"/>
<circle cx="164" cy="44" r="4" fill="#E3E8EF"/>
<circle cx="204" cy="44" r="4" fill="#E3E8EF"/>
<circle cx="244" cy="44" r="4" fill="#E3E8EF"/>
<circle cx="284" cy="44" r="4" fill="#E3E8EF"/>
<circle cx="324" cy="44" r="4" fill="#E3E8EF"/>
<circle cx="364" cy="44" r="4" fill="#E3E8EF"/>
<circle cx="4" cy="84" r="4" fill="#E3E8EF"/>
<circle cx="44" cy="84" r="4" fill="#E3E8EF"/>
<circle cx="84" cy="84" r="4" fill="#E3E8EF"/>
<circle cx="124" cy="84" r="4" fill="#E3E8EF"/>
<circle cx="164" cy="84" r="4" fill="#E3E8EF"/>
<circle cx="204" cy="84" r="4" fill="#E3E8EF"/>
<circle cx="244" cy="84" r="4" fill="#E3E8EF"/>
<circle cx="284" cy="84" r="4" fill="#E3E8EF"/>
<circle cx="324" cy="84" r="4" fill="#E3E8EF"/>
<circle cx="364" cy="84" r="4" fill="#E3E8EF"/>
<circle cx="4" cy="124" r="4" fill="#E3E8EF"/>
<circle cx="44" cy="124" r="4" fill="#E3E8EF"/>
<circle cx="84" cy="124" r="4" fill="#E3E8EF"/>
<circle cx="124" cy="124" r="4" fill="#E3E8EF"/>
<circle cx="164" cy="124" r="4" fill="#E3E8EF"/>
<circle cx="204" cy="124" r="4" fill="#E3E8EF"/>
<circle cx="244" cy="124" r="4" fill="#E3E8EF"/>
<circle cx="284" cy="124" r="4" fill="#E3E8EF"/>
<circle cx="324" cy="124" r="4" fill="#E3E8EF"/>
<circle cx="364" cy="124" r="4" fill="#E3E8EF"/>
<circle cx="4" cy="164" r="4" fill="#E3E8EF"/>
<circle cx="44" cy="164" r="4" fill="#E3E8EF"/>
<circle cx="84" cy="164" r="4" fill="#E3E8EF"/>
<circle cx="124" cy="164" r="4" fill="#E3E8EF"/>
<circle cx="164" cy="164" r="4" fill="#E3E8EF"/>
<circle cx="204" cy="164" r="4" fill="#E3E8EF"/>
<circle cx="244" cy="164" r="4" fill="#E3E8EF"/>
<circle cx="284" cy="164" r="4" fill="#E3E8EF"/>
<circle cx="324" cy="164" r="4" fill="#E3E8EF"/>
<circle cx="364" cy="164" r="4" fill="#E3E8EF"/>
<circle cx="4" cy="204" r="4" fill="#E3E8EF"/>
<circle cx="44" cy="204" r="4" fill="#E3E8EF"/>
<circle cx="84" cy="204" r="4" fill="#E3E8EF"/>
<circle cx="124" cy="204" r="4" fill="#E3E8EF"/>
<circle cx="164" cy="204" r="4" fill="#E3E8EF"/>
<circle cx="204" cy="204" r="4" fill="#E3E8EF"/>
<circle cx="244" cy="204" r="4" fill="#E3E8EF"/>
<circle cx="284" cy="204" r="4" fill="#E3E8EF"/>
<circle cx="324" cy="204" r="4" fill="#E3E8EF"/>
<circle cx="364" cy="204" r="4" fill="#E3E8EF"/>
</svg>
