<svg width="32" height="32" viewBox="0 0 32 32" fill="none" xmlns="http://www.w3.org/2000/svg">
<path d="M28.904 10.6399L27.0174 12.5239L24.1907 9.69728L21.3614 12.5239L26.0747 17.2386L24.1894 19.1239L23.2467 18.1813L14.7614 26.6666H7.2187L4.3907 29.4946L2.50537 27.6093L5.33337 24.7813V17.2386L13.8187 8.75328L12.876 7.81061L14.7614 5.92528L19.476 10.6386L22.3027 7.81061L19.476 4.98261L21.3614 3.09595L28.904 10.6386V10.6399ZM12.876 19.1226L9.10404 15.3519L7.2187 17.2373L10.9907 21.0079L12.876 19.1226ZM16.6467 15.3519L12.876 11.5813L10.9907 13.4679L14.7614 17.2386L16.6467 15.3533V15.3519Z" fill="#E41C40"/>
</svg>
