<svg width="32" height="32" viewBox="0 0 32 32" fill="none" xmlns="http://www.w3.org/2000/svg">
<path d="M24.4853 14.6399C26.568 16.7213 26.568 20.0986 24.4853 22.1812L16.9426 29.7239C16.4226 30.2439 15.5773 30.2439 15.0573 29.7239L7.51464 22.1812C5.43197 20.0986 5.43197 16.7213 7.51464 14.6386C9.5973 12.5559 12.9746 12.5559 15.0573 14.6386L15.9986 15.5813L16.9426 14.6386C19.0253 12.5559 22.4026 12.5559 24.4853 14.6386V14.6399ZM16 1.33325C18.9466 1.33325 21.3333 3.71992 21.3333 6.66658C21.3333 9.61325 18.9466 11.9999 16 11.9999C13.0533 11.9999 10.6666 9.61325 10.6666 6.66658C10.6666 3.71992 13.0533 1.33325 16 1.33325Z" fill="#E41C40"/>
</svg>
