<svg width="32" height="32" viewBox="0 0 32 32" fill="none" xmlns="http://www.w3.org/2000/svg">
<path d="M14.6667 2.66675C20.0907 2.66675 24.568 6.71475 25.2453 11.9534L28.2453 16.6721C28.4427 16.9827 28.4027 17.4454 27.9453 17.6427L25.3333 18.7601V22.6667C25.3333 24.1401 24.14 25.3334 22.6667 25.3334H20.0013L20 29.3334H8V24.4081C8 22.8347 7.41867 21.3454 6.34133 20.0014C4.876 18.1747 4 15.8561 4 13.3334C4 7.44275 8.776 2.66675 14.6667 2.66675ZM14.6667 9.33342C13.9307 9.33342 13.3333 9.93075 13.3333 10.6667V11.9987L12 12.0001C11.264 12.0001 10.6667 12.5974 10.6667 13.3334C10.6667 14.0694 11.264 14.6667 12 14.6667L13.3333 14.6654V16.0001C13.3333 16.7361 13.9307 17.3334 14.6667 17.3334C15.4027 17.3334 16 16.7361 16 16.0001V14.6667H17.3333C18.0693 14.6667 18.6667 14.0694 18.6667 13.3334C18.6667 12.5974 18.0693 12.0001 17.3333 12.0001H16V10.6667C16 9.93075 15.4027 9.33342 14.6667 9.33342Z" fill="#E41C40"/>
</svg>
