<svg width="32" height="32" viewBox="0 0 32 32" fill="none" xmlns="http://www.w3.org/2000/svg">
<circle cx="16" cy="16" r="16" fill="#4E6297"/>
<path d="M23.2 11.0547C23.2 9.8568 22.143 8.7998 20.9451 8.7998H11.8549C10.657 8.7998 9.59998 9.8568 9.59998 11.0547V20.1449C9.59998 21.3428 10.657 22.3998 11.8549 22.3998H16.4352V17.2558H14.744V15.0008H16.4352V14.0848C16.4352 12.5345 17.5627 11.1957 18.972 11.1957H20.8041V13.4506H18.972C18.7606 13.4506 18.5492 13.662 18.5492 14.0848V15.0008H20.8041V17.2558H18.5492V22.3998H20.9451C22.143 22.3998 23.2 21.3428 23.2 20.1449V11.0547Z" fill="white"/>
</svg>
