<svg width="24" height="24" viewBox="0 0 24 24" fill="none" xmlns="http://www.w3.org/2000/svg">
<circle cx="12" cy="12" r="12" fill="#2F89CE"/>
<path d="M5.61057 12.2245L8.36943 13.2532L9.4449 16.7134C9.49166 16.9472 9.77223 16.994 9.95927 16.8537L11.5023 15.5912C11.6426 15.4509 11.8764 15.4509 12.0635 15.5912L14.8223 17.6019C15.0094 17.7422 15.2899 17.6486 15.3367 17.4148L17.3941 7.59521C17.4409 7.3614 17.2071 7.12761 16.9733 7.22113L5.61057 11.6166C5.33001 11.7101 5.33001 12.1309 5.61057 12.2245ZM9.30463 12.7388L14.7288 9.41885C14.8223 9.37209 14.9158 9.51237 14.8223 9.55913L10.3801 13.7208C10.2398 13.8611 10.0995 14.0481 10.0995 14.2819L9.95927 15.4042C9.95927 15.5444 9.72546 15.5912 9.6787 15.4042L9.11758 13.3467C8.9773 13.1129 9.07083 12.8323 9.30463 12.7388Z" fill="white"/>
</svg>
