<svg width="32" height="32" viewBox="0 0 32 32" fill="none" xmlns="http://www.w3.org/2000/svg">
<circle cx="16" cy="16" r="16" fill="#7294C7"/>
<path d="M23.8452 20.0924C23.8452 20.026 23.7788 20.026 23.7788 19.9596C23.5131 19.4282 22.9153 18.764 22.1183 18.0334C21.7198 17.7013 21.5205 17.4357 21.3877 17.3028C21.1884 17.0372 21.1885 16.8379 21.2549 16.5722C21.3213 16.373 21.5869 16.0409 22.0519 15.4431C22.3176 15.111 22.4504 14.9118 22.6496 14.7125C23.6459 13.3842 24.1108 12.5207 23.978 12.1222L23.9116 12.0558C23.8452 11.9894 23.7787 11.923 23.6459 11.923C23.5131 11.8565 23.3138 11.8565 23.1146 11.923H20.5907C20.5243 11.923 20.5243 11.923 20.3914 11.923C20.325 11.923 20.2586 11.923 20.2586 11.923H20.1922H20.1257L20.0593 11.9894C19.9929 12.0558 19.9929 12.0558 19.9929 12.1222C19.7272 12.8528 19.3951 13.4506 19.0631 14.1147C18.8638 14.4468 18.6645 14.7789 18.4653 15.0446C18.266 15.3103 18.1332 15.5095 18.0004 15.6424C17.8675 15.7752 17.7347 15.8416 17.6683 15.9745C17.6018 16.0409 17.469 16.1073 17.469 16.0409C17.4026 16.0409 17.3362 16.0409 17.3362 15.9745C17.2698 15.908 17.2033 15.8416 17.1369 15.7752C17.0705 15.7088 17.0705 15.576 17.0041 15.4431C17.0041 15.3103 17.0041 15.1774 17.0041 15.111C17.0041 15.0446 17.0041 14.8454 17.0041 14.7125C17.0041 14.5133 17.0041 14.3804 17.0041 14.314C17.0041 14.1147 17.0041 13.8491 17.0041 13.5834C17.0041 13.3177 17.0041 13.1185 17.0041 12.9856C17.0041 12.8528 17.0041 12.6535 17.0041 12.5207C17.0041 12.3215 17.0041 12.1886 17.0041 12.1222C17.0041 12.0558 16.9377 11.9229 16.9377 11.8565C16.8713 11.7901 16.8048 11.7237 16.7384 11.6573C16.672 11.5909 16.5392 11.5909 16.4727 11.5244C16.1406 11.458 15.7421 11.3916 15.2772 11.3916C14.2145 11.3916 13.4839 11.458 13.2182 11.5909C13.0854 11.6573 12.9526 11.7237 12.8862 11.8565C12.7533 11.9894 12.7533 12.0558 12.8197 12.0558C13.1518 12.1222 13.4175 12.255 13.5503 12.4543L13.6168 12.5871C13.6832 12.6536 13.6832 12.7864 13.7496 12.9856C13.816 13.1849 13.816 13.3841 13.816 13.6498C13.816 14.0483 13.816 14.4468 13.816 14.7125C13.816 15.0446 13.7496 15.2439 13.7496 15.4431C13.7496 15.6424 13.6832 15.7752 13.6168 15.8416C13.5503 15.9745 13.5503 16.0409 13.4839 16.0409C13.4839 16.0409 13.4839 16.1073 13.4175 16.1073C13.3511 16.1073 13.2847 16.1737 13.1518 16.1737C13.0854 16.1737 12.9526 16.1073 12.8862 16.0409C12.7533 15.9745 12.6205 15.8416 12.5541 15.7088C12.4212 15.576 12.2884 15.3767 12.1555 15.111C12.0227 14.8453 11.8234 14.5797 11.6906 14.1812L11.5578 13.9155C11.4914 13.7827 11.3585 13.517 11.2257 13.1849C11.0929 12.8528 10.96 12.5871 10.8272 12.255C10.7608 12.1222 10.6944 12.0558 10.6279 11.9894H10.5615C10.5615 11.9894 10.4951 11.923 10.4287 11.923C10.3622 11.923 10.2958 11.8565 10.2294 11.8565H7.83836C7.57268 11.8565 7.43985 11.9229 7.37343 11.9894L7.30701 12.0558C7.30701 12.0558 7.30701 12.1222 7.30701 12.1886C7.30701 12.255 7.30701 12.3215 7.37343 12.4543C7.70552 13.2513 8.10403 14.0483 8.50254 14.8454C8.90105 15.576 9.29956 16.2401 9.56524 16.7051C9.89733 17.17 10.163 17.6349 10.4951 18.0334C10.8272 18.4319 11.0264 18.6976 11.0929 18.8305C11.2257 18.9633 11.2921 19.0297 11.3585 19.0961L11.5578 19.2954C11.6906 19.4282 11.8899 19.6275 12.1555 19.8267C12.4212 20.026 12.7533 20.2252 13.0854 20.4245C13.4175 20.6237 13.816 20.7566 14.2145 20.8894C14.6794 21.0223 15.078 21.0887 15.4765 21.0223H16.4727C16.672 21.0223 16.8048 20.9558 16.9377 20.823L17.0041 20.7566C17.0041 20.6902 17.0705 20.6902 17.0705 20.6237C17.0705 20.5573 17.0705 20.4909 17.0705 20.3581C17.0705 20.0924 17.0705 19.8931 17.1369 19.6939C17.2033 19.4946 17.2034 19.3618 17.2698 19.229C17.3362 19.0961 17.4026 19.0297 17.469 18.9633C17.5354 18.8969 17.6019 18.8305 17.6019 18.8305H17.6683C17.8011 18.764 18.0004 18.8305 18.1332 18.9633C18.3325 19.0961 18.5317 19.2954 18.6645 19.4946C18.7974 19.6939 18.9966 19.8931 19.2623 20.1588C19.528 20.4245 19.7272 20.6238 19.8601 20.6902L20.0593 20.823C20.1922 20.8894 20.325 20.9558 20.5243 21.0223C20.7235 21.0887 20.8563 21.0887 20.9892 21.0887L23.2474 21.0223C23.4467 21.0223 23.6459 20.9558 23.7788 20.8894C23.9116 20.823 23.978 20.7566 23.978 20.6237C23.978 20.5573 23.978 20.4245 23.978 20.3581C23.8452 20.2252 23.8452 20.1588 23.8452 20.0924Z" fill="white"/>
</svg>
