<svg width="48" height="48" viewBox="0 0 48 48" fill="none" xmlns="http://www.w3.org/2000/svg">
<rect width="48" height="48" rx="5" fill="#FECA36"/>
<path d="M21.8667 16C19.805 16 18.1333 17.6701 18.1333 19.7312C18.1333 21.7924 19.805 23.4625 21.8667 23.4625C23.9284 23.4625 25.6 21.7924 25.6 19.7312C25.6 17.6701 23.9284 16 21.8667 16Z" fill="#262626"/>
<path d="M19.7333 25.5938C17.6716 25.5938 16 27.2646 16 29.3265V31.9903H27.7333V29.3265C27.7333 27.2646 26.0617 25.5938 24 25.5938H19.7333Z" fill="#262626"/>
<path d="M29.3333 26.6667H28.8V32H32V29.3333C32 27.8606 30.8061 26.6667 29.3333 26.6667Z" fill="#262626"/>
<path d="M28.2667 20.2667C26.7939 20.2667 25.6 21.4606 25.6 22.9333C25.6 24.4061 26.7939 25.6 28.2667 25.6C29.7394 25.6 30.9333 24.4061 30.9333 22.9333C30.9333 21.4606 29.7394 20.2667 28.2667 20.2667Z" fill="#262626"/>
</svg>
