<svg width="48" height="48" viewBox="0 0 48 48" fill="none" xmlns="http://www.w3.org/2000/svg">
<rect width="48" height="48" rx="5" fill="#FECA36"/>
<path fill-rule="evenodd" clip-rule="evenodd" d="M21.3333 18.6667V19.2H17.6C16.7163 19.2 16 19.9163 16 20.8V30.4C16 31.2837 16.7163 32 17.6 32H30.4C31.2837 32 32 31.2837 32 30.4V20.8C32 19.9163 31.2837 19.2 30.4 19.2H26.6667V18.6667C26.6667 17.1939 25.4728 16 24 16C22.5272 16 21.3333 17.1939 21.3333 18.6667ZM24 17.0667C23.1163 17.0667 22.4 17.783 22.4 18.6667V19.2H25.6V18.6667C25.6 17.783 24.8837 17.0667 24 17.0667ZM16.7049 23.8586C20.8249 27.6616 27.1752 27.6616 31.2951 23.8586L30.5716 23.0748C26.8603 26.5006 21.1398 26.5006 17.4284 23.0748L16.7049 23.8586Z" fill="#262626"/>
</svg>
