<svg width="1920" height="2654" viewBox="0 0 1920 2654" fill="none" xmlns="http://www.w3.org/2000/svg">
<path d="M1764.66 1426.87C1764.69 1442.6 1761.81 1458.21 1756.16 1472.89C1738.6 1517.72 1696.89 1552.91 1644.65 1567.05C1624.59 1572.49 1603.45 1574.99 1582.99 1577.37C1542.87 1582.1 1505.02 1586.55 1479.89 1611.85C1467.08 1624.75 1459.04 1641.97 1450.51 1660.22C1442.07 1677.76 1433.57 1696.18 1420.08 1711.77C1389.25 1747.16 1347.04 1756.45 1306.18 1765.44C1284.87 1770.11 1264.79 1774.53 1246.48 1782.44C1229.26 1789.86 1215.57 1801.68 1201.15 1814.18C1176.81 1835.14 1149.22 1858.92 1103.74 1856.99C1052.09 1854.84 1003.73 1819.33 986.16 1770.68C977.66 1746.82 976.272 1721.77 975.025 1697.54C973.665 1670.65 972.362 1645.23 961.397 1623.44C946.664 1594.11 915.696 1574.84 885.748 1556.2C881.668 1553.65 877.588 1551.13 873.593 1548.58C840.217 1527.41 821.801 1499.81 804.008 1473.12C790.493 1452.86 777.715 1433.73 758.675 1417.12C729.549 1391.76 682.431 1363.45 623.357 1372.58C620.524 1373 617.691 1373.51 614.687 1374.02C598.027 1376.86 579.129 1380.23 560.855 1373C525.127 1358.84 517.647 1336.93 517.647 1321.03C517.647 1274.39 582.388 1228.09 602.221 1215.03C626.02 1199.33 649.14 1188.39 664.015 1185.7C725.129 1174.73 786.866 1188.7 839.226 1203.83C856.225 1208.77 875.917 1212.96 896.6 1217.41C966.469 1232.37 1045.66 1249.34 1086.01 1306.16C1100.8 1326.99 1108.13 1350.9 1115.24 1374C1121.17 1393.35 1126.78 1411.65 1136.38 1427.61C1160.92 1468.47 1214.1 1489.95 1260.11 1477.45C1263.77 1476.43 1267.48 1475.24 1271.44 1473.97C1283 1470.25 1296.12 1466 1310.29 1466.94C1332.73 1468.44 1349.96 1481.96 1365.28 1493.92C1373.37 1500.78 1382.2 1506.73 1391.6 1511.65C1421.75 1525.82 1458.47 1510.78 1479.18 1488.79C1499.89 1466.8 1512.7 1435.63 1519.3 1392.44C1520.43 1385.02 1521.4 1377.31 1522.3 1369.77C1524.85 1349.34 1527.49 1328.2 1534.2 1307.72C1545.54 1272.98 1567.86 1247.27 1595.32 1237.27C1604.57 1234.02 1614.37 1232.69 1624.15 1233.34C1633.93 1233.99 1643.48 1236.62 1652.21 1241.07C1659.4 1244.52 1665.78 1249.43 1670.97 1255.48C1676.15 1261.54 1680.02 1268.6 1682.33 1276.23C1683.71 1281.44 1684.66 1286.74 1685.16 1292.1C1685.44 1296.84 1686.4 1301.52 1687.99 1305.99C1691.17 1313.24 1699.67 1318.68 1708.65 1324.43C1712.25 1326.73 1715.96 1329.11 1719.56 1331.72C1747.89 1352.37 1764.89 1387.91 1764.89 1426.76L1764.66 1426.87Z" stroke="#E4E4E4" stroke-miterlimit="10"/>
<path d="M609.984 1226.82C552.893 1264.45 491.864 1330.41 566.04 1359.8C583.351 1366.66 602.703 1361.39 621.119 1358.55C676.227 1350.05 726.687 1370.54 767.883 1406.41C814.491 1446.99 826.051 1501.68 881.215 1536.59C916.263 1558.83 955.447 1579.95 974.091 1617.07C996.757 1662.4 982.335 1718.23 999.59 1765.83C1015.23 1809.1 1058.49 1840.9 1104.42 1842.82C1168.68 1845.66 1190.41 1791.28 1241.04 1769.4C1296.46 1745.43 1366.73 1751.61 1409.57 1702.44C1435.38 1672.83 1442.29 1629.76 1469.95 1601.88C1512.44 1559.03 1582.8 1569.15 1641.05 1553.39C1685.5 1541.35 1726.27 1510.61 1743.05 1467.7C1759.82 1424.8 1748.37 1370.4 1711.14 1343.28C1698.05 1333.73 1681.51 1326.67 1674.96 1311.82C1670.63 1301.96 1671.7 1290.57 1668.76 1280.23C1661.11 1253.37 1626.46 1241.13 1600.22 1250.7C1573.98 1260.28 1556.3 1285.7 1547.61 1312.22C1538.91 1338.74 1537.46 1367.02 1533.24 1394.62C1527.57 1432.34 1515.59 1470.68 1489.44 1498.48C1463.29 1526.28 1420.14 1540.59 1385.57 1524.46C1358.71 1511.97 1338.85 1483.01 1309.3 1481.05C1293.69 1480.03 1278.87 1487 1263.77 1491.08C1211.8 1505.25 1151.94 1481.02 1124.23 1434.89C1101.73 1397.49 1099.69 1349.88 1074.45 1314.35C1025.77 1245.83 909.86 1238.94 835.259 1217.41C780.407 1201.57 722.664 1189.52 666.508 1199.61C653.617 1201.94 632.112 1212.25 609.984 1226.82Z" stroke="#E4E4E4" stroke-miterlimit="10"/>
<path d="M1722.16 1426.87C1722.17 1437.3 1720.25 1447.63 1716.5 1457.36C1704 1489.24 1672.16 1515.54 1633.43 1526.02C1616.43 1530.64 1597.7 1532.85 1577.92 1535.17C1534.46 1540.27 1485.19 1546.05 1449.6 1581.93C1431.61 1600.06 1421.27 1622.45 1411.89 1642.23C1404.55 1657.93 1397.72 1672.78 1387.98 1683.83C1366.39 1708.62 1334.14 1715.71 1297 1723.89C1274.67 1728.8 1251.67 1733.87 1229.57 1743.39C1206.39 1753.39 1188.8 1768.58 1173.27 1781.96C1148.22 1803.52 1132.75 1815.65 1105.27 1814.52C1070.93 1813.07 1037.56 1788.56 1025.94 1756.23C1019.48 1738.32 1018.4 1717.43 1017.27 1695.33C1015.74 1665.24 1014.15 1634.1 999.165 1604.31C979.048 1564.3 941.309 1540.81 907.989 1520.07C904.023 1517.61 900.056 1515.14 896.146 1512.67C870.363 1496.3 855.914 1474.62 839.14 1449.51C824.691 1427.81 809.731 1405.36 786.356 1385.05C734.875 1340.19 676.198 1321.35 616.67 1330.53C613.525 1331.04 610.38 1331.58 607.207 1332.11C594.996 1334.27 583.464 1336.25 576.352 1333.45C572.528 1331.92 560.004 1326.53 560.004 1321.01C560.004 1307.55 584.484 1277.48 625.482 1250.48C648.006 1235.63 665.148 1228.6 671.381 1227.52C723.882 1218.09 779.67 1230.87 827.212 1244.53C845.77 1249.88 866.028 1254.22 887.476 1258.69C949.809 1272.04 1020.36 1287.17 1051.13 1330.53C1061.95 1345.77 1068.13 1365.41 1074.39 1386.21C1080.65 1407.01 1087.45 1428.71 1099.72 1449.26C1110.57 1466.85 1124.82 1482.1 1141.63 1494.13C1158.44 1506.15 1177.48 1514.7 1197.64 1519.28C1217.78 1523.92 1240.42 1525.37 1260.73 1520.61C1284.73 1514.94 1312.13 1512.31 1336.38 1522.22C1365.08 1533.98 1379.73 1558.13 1413.45 1559.26C1449.69 1560.48 1485.24 1543.82 1509.78 1517.66C1536.27 1489.52 1553.02 1450.59 1560.95 1398.65C1562.2 1390.63 1563.19 1382.64 1564.15 1374.87C1566.53 1355.61 1568.8 1337.38 1574.24 1320.81C1581.43 1298.85 1594.64 1282.5 1609.54 1277.06C1617.15 1274.57 1625.43 1275.19 1632.58 1278.78C1636.48 1280.54 1639.53 1283.75 1641.08 1287.74C1641.76 1290.71 1642.24 1293.74 1642.49 1296.78C1643.22 1305.89 1645.38 1314.83 1648.9 1323.27C1657.4 1342.23 1672.95 1352.29 1685.56 1360.34C1688.73 1362.38 1691.76 1364.33 1694.31 1366.2C1711.77 1378.87 1722.16 1401.57 1722.16 1426.87Z" stroke="#E4E4E4" stroke-miterlimit="10"/>
<path d="M1065.52 1439.74C1065.52 1454.44 1061.92 1467.9 1057.93 1481.53L1048.38 1514.03C1046.65 1519.93 1042.71 1533.67 1029.11 1541.92C1014.01 1551.13 994.971 1548.83 978.113 1535.83C960.689 1522.34 948.704 1505.7 937.087 1489.64C927.567 1476.4 918.558 1463.91 907.763 1455.41C898.816 1448.96 889.248 1443.41 879.203 1438.86C867.869 1433.53 856.958 1427.34 846.564 1420.35C832.184 1409.62 821.542 1394.63 816.143 1377.52C810.743 1360.4 810.859 1342.02 816.474 1324.97C823.076 1305.45 836.76 1291.17 854.072 1285.81C866.963 1281.84 887.391 1280.91 911.588 1299.1C920.087 1305.56 927.907 1312.08 935.387 1318.37C951.254 1331.72 964.967 1343.25 982.76 1351.3C985.593 1352.57 988.426 1353.85 991.458 1355.12C1017.55 1366.46 1050.05 1380.63 1061.7 1415.45C1064.27 1423.29 1065.56 1431.49 1065.52 1439.74V1439.74Z" stroke="#E4E4E4" stroke-miterlimit="10"/>
<path d="M843.334 1334.01C836.62 1353.85 841.578 1382.18 862.884 1397.15C882.717 1410.97 906.46 1418.23 925.387 1433.1C953.38 1455.21 967.319 1491.56 995.539 1513.41C1000.95 1517.6 1008.49 1521.26 1014.35 1517.69C1018.29 1515.28 1019.88 1510.46 1021.18 1506.04L1030.73 1473.51C1035.43 1457.5 1040.13 1440.27 1034.84 1424.46C1026.17 1398.53 995.992 1388.36 971.088 1377.11C940.346 1363.23 920.655 1341.38 894.589 1321.74C868.522 1302.11 850.106 1313.92 843.334 1334.01Z" stroke="#E4E4E4" stroke-miterlimit="10"/>
<path d="M1022.94 1439.74C1024.24 1457.7 1015.49 1477.88 1011.77 1494.99C1011.09 1498.17 1009.99 1501.85 1006.93 1502.93C1003.13 1504.29 999.505 1500.74 997.04 1497.6C977.349 1472.35 959.499 1442 934.141 1422.03C922.942 1413.74 910.911 1406.63 898.243 1400.83C888.815 1396.42 879.724 1391.33 871.044 1385.58C856.651 1375.47 842.088 1330.84 869.684 1327.3C880.535 1325.91 889.744 1334.61 897.648 1342.17C920.399 1363.97 946.676 1381.77 975.366 1394.79C987.889 1400.46 1001.12 1405.39 1011.15 1414.63C1018.25 1421.11 1022.49 1430.14 1022.94 1439.74V1439.74Z" stroke="#E4E4E4" stroke-miterlimit="10"/>
<path d="M1185.71 1555.92C1140.89 1576.74 1001.55 1751.86 1114.62 1758.38C1144.23 1760.08 1168.74 1735.71 1197.5 1728.49C1216.28 1723.7 1236.11 1726.39 1255.35 1723.95C1286.74 1720.01 1329.02 1698.08 1353.92 1678.61C1365.4 1669.66 1373.76 1655.29 1371.49 1640.93C1365.82 1604.43 1325.7 1612.93 1301.65 1601.48C1274.48 1588.56 1259.15 1555.15 1228.46 1548.32C1214.1 1545.29 1199.08 1549.8 1185.71 1555.92Z" stroke="#E4E4E4" stroke-miterlimit="10"/>
<path d="M1357.72 1645.86C1357.72 1653.17 1352.79 1661.7 1345.2 1667.59C1322.27 1685.44 1282.38 1706.35 1253.57 1710.09C1246.23 1710.87 1238.87 1711.26 1231.5 1711.26C1218.9 1711.02 1206.32 1712.26 1194.01 1714.97C1180.89 1718.28 1169.16 1724.43 1157.8 1730.33C1143.12 1738.01 1129.27 1745.23 1115.3 1744.5C1085.41 1742.77 1085.41 1728.32 1085.41 1721.37C1085.41 1674.48 1161.57 1582.98 1191.55 1569.04C1205.32 1562.63 1216.34 1560.53 1225.29 1562.49C1238.66 1565.3 1249.4 1575.75 1260.73 1587.09C1271.02 1597.29 1281.67 1607.83 1295.67 1614.49C1304.91 1618.4 1314.63 1621.06 1324.57 1622.42C1346.81 1626.47 1355.42 1629.34 1357.63 1643.33C1357.72 1644.17 1357.75 1645.01 1357.72 1645.86V1645.86Z" stroke="#E4E4E4" stroke-miterlimit="10"/>
<path d="M1320.83 1650.05C1322.95 1662.55 1299.58 1674.99 1290.63 1677.54C1275.07 1681.96 1258.55 1680.14 1242.46 1680.14C1206.51 1680.25 1171.19 1689.64 1139.92 1707.4C1135.6 1710.29 1130.81 1712.39 1125.76 1713.61C1123.22 1714.18 1120.57 1713.98 1118.14 1713.05C1115.71 1712.12 1113.61 1710.49 1112.1 1708.37C1108.22 1701.71 1113.35 1693.57 1118.22 1687.62L1172.9 1620.72C1182.68 1608.76 1194.01 1595.93 1209.37 1594.06C1223.53 1592.33 1237.11 1600.69 1247.47 1610.55C1257.84 1620.41 1266.63 1632.17 1278.64 1639.99C1285.36 1644.52 1293.21 1647.05 1301.31 1647.3C1308.31 1647.3 1318.56 1640.36 1320.69 1649.54L1320.83 1650.05Z" stroke="#E4E4E4" stroke-miterlimit="10"/>
<path d="M1248.52 1651.92C1248.48 1652.27 1248.34 1652.6 1248.12 1652.89C1247.91 1653.17 1247.63 1653.39 1247.3 1653.54C1246.34 1653.93 1245.26 1653.34 1244.3 1652.91C1238.32 1650.08 1229.54 1653.08 1223.42 1654.44C1216.56 1655.94 1209.79 1657.79 1202.99 1659.57C1197.34 1661.2 1191.58 1662.45 1185.77 1663.34C1183.16 1663.65 1178.34 1664.44 1176.5 1661.84C1176.39 1661.7 1176.31 1661.55 1176.25 1661.38C1173.64 1655.43 1182.22 1648.46 1186.02 1645.26C1188.46 1643.19 1191.29 1641.55 1193.7 1639.59C1197.18 1636.41 1200.42 1632.97 1203.39 1629.31C1205.74 1626.64 1209.06 1622.71 1212.85 1622.25C1214.61 1622.03 1220.05 1623.61 1228.01 1631.15C1230.84 1633.98 1233.68 1636.82 1236.79 1640.19C1239.91 1643.56 1244.19 1644.95 1247.13 1648.52C1247.82 1649.24 1248.29 1650.13 1248.52 1651.1C1248.56 1651.37 1248.56 1651.65 1248.52 1651.92V1651.92Z" stroke="#E4E4E4" stroke-miterlimit="10"/>
<path d="M1685.3 1077.03C1685.3 1107.15 1665.47 1138.97 1634.96 1158.13C1612.91 1171.9 1588.41 1179.18 1564.69 1186.24C1555.99 1188.82 1546.98 1191.48 1538.43 1194.4C1502.3 1206.72 1478.93 1223.95 1469.1 1245.63C1464.47 1256.43 1462.23 1268.11 1462.55 1279.86C1463 1294.92 1464.6 1309.93 1467.34 1324.75C1468.61 1332.79 1469.92 1341.12 1470.85 1349.34C1471.56 1355.38 1471.91 1361.46 1471.9 1367.53C1471.9 1415.05 1452.32 1449.51 1419.51 1459.71C1392.31 1468.21 1364.43 1456.45 1345.85 1446.91C1341.23 1444.52 1336.58 1442.06 1331.96 1439.57C1310.74 1428.23 1290.71 1417.38 1269.49 1416.9C1263.11 1416.88 1256.74 1417.27 1250.42 1418.09C1239.76 1419.61 1228.94 1419.75 1218.24 1418.48C1172.36 1411.6 1146.33 1362.92 1140.83 1317.72C1140.17 1312.18 1139.5 1306.77 1138.82 1301.48C1135.84 1277.85 1133.01 1255.52 1133.01 1235.06C1133.01 1176.57 1157.72 1141.55 1215.63 1118.34C1230.19 1112.48 1245.18 1107.75 1259.66 1103.18C1278.4 1097.76 1296.75 1091.06 1314.57 1083.12C1359.9 1061.67 1400.7 1021.38 1432.91 966.601C1435.38 962.407 1437.82 958.1 1440.28 953.821C1455.44 927.157 1471.14 899.557 1498.73 882.668C1509.48 876.435 1521.52 872.751 1533.92 871.902C1546.32 871.052 1558.74 873.058 1570.24 877.766C1587.64 885.275 1599.2 898.792 1602.74 915.765C1603.66 920.363 1604.1 925.046 1604.04 929.735V929.735C1604.04 932.569 1604.04 935.403 1603.79 938.236C1603.53 941.07 1603.59 943.195 1603.59 945.66C1603.58 947.468 1603.67 949.274 1603.85 951.073C1605.86 969.831 1622.04 984.51 1639.15 1000.04C1657.34 1016.56 1676.18 1033.62 1682.95 1058.75C1684.55 1064.71 1685.34 1070.86 1685.3 1077.03V1077.03Z" stroke="#E4E4E4" stroke-miterlimit="10"/>
<path d="M1506.07 894.768C1477.37 912.336 1462.12 944.782 1445.07 973.77C1415.15 1024.78 1373.9 1070.62 1320.57 1095.9C1288.67 1111.03 1253.62 1118.29 1220.87 1131.49C1130.06 1168.05 1144.37 1229.73 1154.85 1316.02C1159.59 1355.18 1181.26 1398.62 1220.27 1404.49C1236.68 1406.95 1253.28 1402.16 1269.86 1402.64C1299.55 1403.49 1325.84 1420.78 1352.28 1434.32C1371.8 1444.35 1394.35 1452.71 1415.29 1446.2C1451.24 1435.03 1461.1 1388.39 1456.8 1351.01C1452.49 1313.64 1440.59 1274.02 1456.2 1239.77C1470.06 1209.39 1502.24 1191.79 1533.86 1181.02C1565.48 1170.26 1599.03 1163.85 1627.36 1146.14C1655.7 1128.43 1677.85 1094.77 1669.15 1062.52C1657.11 1017.98 1594.55 998.536 1589.59 952.659C1588.38 941.325 1591.07 929.792 1588.74 918.656C1581.94 885.7 1534.77 877.199 1506.07 894.768Z" stroke="#E4E4E4" stroke-miterlimit="10"/>
<path d="M1642.8 1077.03C1642.8 1092.36 1630.31 1111.03 1612.43 1122.08C1595.43 1132.79 1574.55 1139.09 1552.59 1145.49C1543.5 1148.32 1534.06 1150.99 1524.71 1154.16C1477.08 1170.4 1445.38 1195.25 1430.42 1227.84C1423.24 1244.17 1419.7 1261.88 1420.05 1279.72C1420.47 1296.98 1422.25 1314.19 1425.35 1331.18C1426.6 1339.17 1427.79 1346.71 1428.64 1354.1C1429.15 1358.51 1429.4 1362.95 1429.4 1367.39C1429.4 1387.97 1423.51 1413.81 1406.88 1418.99C1397.5 1421.83 1384.21 1418.71 1365.23 1408.96C1360.83 1406.7 1356.44 1404.34 1352.05 1401.96C1328.56 1389.35 1301.96 1375.04 1270.65 1374.14C1262.4 1374.07 1254.16 1374.55 1245.97 1375.55C1238.87 1376.62 1231.66 1376.86 1224.5 1376.29C1207.5 1373.71 1187.66 1350.96 1182.99 1312.42L1180.92 1295.98C1178.09 1272.75 1175.45 1252.66 1175.45 1234.89C1175.45 1199.39 1184.38 1176.55 1231.47 1157.59C1244.47 1152.35 1258.04 1148.07 1272.38 1143.42C1292.98 1137.41 1313.14 1129.98 1332.73 1121.21C1385.65 1096.1 1432.97 1049.97 1469.49 987.825C1472.07 983.461 1474.62 979.013 1477.14 974.535C1490.23 951.526 1502.64 929.792 1520.86 918.627C1525.78 915.914 1531.24 914.315 1536.85 913.943C1542.47 913.571 1548.09 914.435 1553.33 916.474C1560.1 919.308 1560.84 922.963 1561.09 924.153C1561.39 925.893 1561.53 927.658 1561.49 929.423C1561.49 931.662 1561.49 933.929 1561.29 936.196C1561.15 939.03 1561.04 942.147 1561.04 945.434C1561.01 948.765 1561.18 952.095 1561.52 955.408C1565.29 990.234 1589.31 1012.08 1610.53 1031.29C1624.7 1044.27 1638.33 1056.51 1641.87 1069.6C1642.52 1072.02 1642.83 1074.52 1642.8 1077.03V1077.03Z" stroke="#E4E4E4" stroke-miterlimit="10"/>
<path d="M1235.8 1229.76C1210.44 1250.62 1196.76 1282.5 1217.73 1314.77C1227.87 1330.33 1249.97 1331.15 1266.32 1339.96C1284.39 1349.74 1296.32 1370.14 1316.18 1375.38C1336.89 1380.85 1358.09 1367.42 1372.14 1351.27C1381.49 1340.53 1381.21 1333.47 1377.35 1321.06C1373.53 1309.5 1372.17 1297.28 1373.36 1285.16C1375.74 1255.21 1384.69 1225.82 1382.88 1195.56C1382.25 1184.59 1379.22 1172.24 1369.59 1166.97C1358.91 1161.16 1345.87 1166.83 1335.11 1172.47C1301.45 1190.01 1265.27 1205.51 1235.8 1229.76Z" stroke="#E4E4E4" stroke-miterlimit="10"/>
<path d="M1368.88 1203.38C1367.92 1230.56 1361.37 1256.82 1359.22 1283.94C1358.94 1287.48 1358.79 1290.71 1358.79 1293.89C1358.79 1314.8 1372.39 1336.39 1352.22 1353.11C1347.65 1356.76 1342.29 1359.32 1336.58 1360.58C1330.86 1361.84 1324.93 1361.78 1319.24 1360.39C1299.92 1355.77 1290 1336.65 1273.03 1327.5C1266.43 1324.14 1259.53 1321.39 1252.43 1319.28C1242.26 1315.93 1233.51 1313.04 1229.6 1307.04C1224.57 1299.78 1221.79 1291.21 1221.61 1282.38C1221.61 1262.8 1236.14 1247.93 1244.78 1240.81C1266.63 1222.85 1293.35 1209.45 1319.19 1196.47C1327.97 1192.07 1336.18 1187.97 1344.68 1182.95C1350.92 1179.21 1359.7 1177.28 1364.91 1182.27C1368.65 1185.9 1369.05 1191.68 1369.05 1196.86C1368.99 1198.88 1368.94 1201.17 1368.88 1203.38Z" stroke="#E4E4E4" stroke-miterlimit="10"/>
<path d="M1335.85 1222.31C1337.85 1224.27 1339.04 1226.91 1339.19 1229.71C1339.18 1233.5 1338.52 1237.27 1337.23 1240.84C1332.65 1256.89 1330.42 1273.52 1330.6 1290.2C1330.63 1298.75 1331.36 1307.28 1332.79 1315.71C1333.78 1320.95 1338.08 1329.59 1330.94 1332.71C1323.8 1335.83 1315.5 1325.6 1311.11 1321.52C1303.8 1314.02 1295.48 1307.56 1286.4 1302.33C1277.71 1297.63 1268.81 1296.66 1260.08 1292.75C1258.12 1292 1256.34 1290.85 1254.83 1289.39C1253.32 1287.93 1252.12 1286.19 1251.3 1284.25C1250.53 1281.53 1250.48 1278.66 1251.16 1275.92C1251.84 1273.17 1253.23 1270.65 1255.18 1268.61C1262.69 1259.97 1275.64 1252.46 1285.21 1246.2C1297.09 1238.4 1309.35 1231.32 1321.42 1223.84C1324.99 1221.63 1329.19 1219.33 1333.18 1220.69C1334.18 1221.03 1335.09 1221.58 1335.85 1222.31Z" stroke="#E4E4E4" stroke-miterlimit="10"/>
<path d="M1312.22 1258.55C1312.7 1258.8 1313.13 1259.15 1313.47 1259.57C1313.81 1260 1314.06 1260.49 1314.2 1261.02C1314.52 1262.26 1314.59 1263.55 1314.43 1264.81C1314.23 1271.06 1313.66 1277.28 1312.73 1283.46C1312.67 1285.02 1312.19 1286.54 1311.34 1287.85C1310.81 1288.48 1310.12 1288.95 1309.35 1289.2C1308.57 1289.45 1307.74 1289.47 1306.95 1289.27C1304.54 1288.56 1303.8 1285.7 1301.65 1284.45C1298.89 1283.17 1295.98 1282.27 1292.98 1281.79C1290.14 1281.05 1280.96 1277.59 1285.87 1273.68C1287.02 1272.9 1288.3 1272.33 1289.66 1272.01C1296.17 1269.92 1302.03 1266.18 1306.66 1261.16C1308.02 1259.69 1309.69 1257.96 1311.68 1258.33C1311.87 1258.37 1312.05 1258.45 1312.22 1258.55V1258.55Z" stroke="#E4E4E4" stroke-miterlimit="10"/>
<path d="M1458.87 1038.15C1452.66 1057.14 1442.89 1075.95 1433.68 1093.58C1415.8 1127.89 1445.89 1137.56 1474.79 1140.62C1494.64 1142.73 1514.71 1140.23 1533.44 1133.33C1551.2 1126.73 1566.33 1107.63 1585.26 1106.16C1594.3 1105.45 1606.93 1106.87 1609 1098.05C1610.73 1090.63 1602.09 1085.59 1596.34 1080.6C1584.41 1070.23 1582.54 1052.83 1577.47 1037.84C1568.37 1010.98 1544.06 988.08 1515.73 986.833C1489.35 985.7 1467.93 1010.27 1458.87 1038.15Z" stroke="#E4E4E4" stroke-miterlimit="10"/>
<path d="M1560.72 1081.9L1560.41 1082.72C1556.98 1090.37 1544.72 1093.12 1538.28 1097.66C1533.72 1101.21 1528.79 1104.26 1523.58 1106.75C1506.41 1113.13 1483.91 1117.41 1466.04 1110.98C1451.59 1105.76 1467.93 1089.16 1472.18 1080.23C1477.43 1069.42 1481.98 1058.29 1485.81 1046.91C1491.73 1028.66 1504.34 1014.72 1514.48 1015.14C1529.19 1015.79 1544.72 1029.45 1550.64 1046.93C1551.6 1049.77 1552.54 1053.11 1553.47 1056.63C1555.54 1064.08 1563.61 1073.66 1560.72 1081.9Z" stroke="#E4E4E4" stroke-miterlimit="10"/>
<path d="M1544.06 1076.18C1542.53 1082.58 1534.71 1082.78 1530.04 1086.1C1526.41 1088.85 1522.58 1091.31 1518.56 1093.46C1510.93 1096.35 1502.98 1098.33 1494.88 1099.36C1491.73 1099.73 1481.93 1101.34 1479.78 1097.86C1477.62 1094.37 1488.28 1078.67 1489.75 1074.96L1502.95 1043.02C1504.99 1038.07 1507.54 1032.6 1512.61 1030.75C1514.67 1030.16 1516.84 1030.08 1518.93 1030.53C1521.02 1030.98 1522.97 1031.94 1524.6 1033.33C1527.82 1036.16 1530.46 1039.58 1532.36 1043.42C1536.27 1050.37 1539.64 1057.61 1542.45 1065.07C1544.01 1068.39 1544.62 1072.08 1544.21 1075.72L1544.06 1076.18Z" stroke="#E4E4E4" stroke-miterlimit="10"/>
<path d="M1552.25 503.299C1514.97 536.368 1458.24 559.632 1416.4 532.57C1395.71 519.224 1383.5 496.441 1368.23 477.229C1326.67 425.26 1250.53 398.34 1190.19 426.223C1129.84 454.107 1103.52 543.622 1148.65 592.53C1176.56 622.794 1199.28 630.105 1210.98 669.039C1219.74 698.424 1218.49 737.642 1251.53 752.604C1273.4 762.521 1307.14 758.271 1313.86 781.393C1315.31 788.109 1314.86 795.097 1312.56 801.569C1295.19 862.464 1236.51 901.597 1204.52 956.23C1192.76 976.32 1184.55 1000.07 1189.79 1022.71C1195.03 1045.35 1217.67 1064.96 1240.42 1060.17C1261.9 1055.63 1273.99 1033.67 1288.42 1017.15C1317.6 983.518 1363.16 968.755 1396.73 939.313C1428.24 911.742 1447.48 873.062 1474.22 840.844C1557.89 740.164 1680.63 818.996 1651.42 938.973C1649.72 945.887 1647.48 952.886 1648.05 959.97C1652.21 1011.4 1695.48 922.368 1702.08 919.704C1719.08 912.79 1738.2 914.32 1755.91 909.73C1788.8 901.229 1813.23 872.269 1825.61 840.645C1837.99 809.022 1840.34 774.479 1843.29 740.617C1848.53 680.005 1874.45 625.372 1871.79 563.882C1869.41 508.796 1847.93 451.783 1803.28 419.366C1783.34 405.288 1760.07 396.651 1735.77 394.306C1711.47 391.96 1686.98 395.988 1664.71 405.991C1619.57 427.073 1589.54 470.258 1552.25 503.299Z" stroke="#E4E4E4" stroke-miterlimit="10"/>
<path d="M1842.32 549.572C1842.92 554.701 1843.34 559.915 1843.57 565.101C1844.93 596.639 1837.59 627.129 1829.83 659.433C1823.8 684.511 1817.53 710.439 1815.15 738.18L1814.62 744.216C1811.98 775.131 1809.49 804.346 1799.32 830.302C1788.69 857.449 1769.88 876.859 1748.94 882.3C1732.45 886.579 1709.84 896.468 1692.27 887.372C1665.75 873.884 1674.25 841.722 1659.49 820.271C1643.69 796.871 1620.37 779.575 1593.39 771.249C1544.18 756.656 1491.59 775.896 1452.66 822.736C1441.81 835.799 1432.32 849.543 1423.14 862.832C1408.97 883.546 1395.32 903.099 1378.29 917.975C1365.68 929.027 1350.47 938.094 1334.37 947.672C1310.91 961.642 1286.63 976.009 1267 998.678C1263.28 1002.93 1259.91 1007.18 1256.63 1011.4C1249.01 1021.15 1241.1 1031.24 1234.5 1032.6C1229 1033.76 1219.51 1025.99 1217.33 1016.5C1217.04 1015.3 1216.82 1014.08 1216.68 1012.85C1215.32 1001.26 1219.51 986.691 1228.89 970.738C1240.22 951.242 1255.98 933.447 1272.55 914.632C1299.58 883.943 1327.54 852.291 1339.7 809.531C1342.48 800.633 1343.44 791.267 1342.53 781.988C1342.21 779.179 1341.65 776.401 1340.86 773.686C1331.62 741.836 1300.23 735.545 1281.36 731.776C1275.08 730.774 1268.92 729.17 1262.94 726.987C1251.98 722.028 1248.64 710.524 1243.54 685.446C1241.95 677.483 1240.28 669.237 1237.87 661.105C1227.5 626.364 1209.08 610.099 1191.29 594.429C1183.59 587.84 1176.24 580.85 1169.28 573.488C1160.92 564.237 1155.77 552.544 1154.57 540.136C1150.43 504.971 1171.23 466.461 1201.92 452.095C1224.02 441.837 1250.96 440.76 1277.79 448.949C1304.59 457.168 1328.33 473.202 1345.96 494.996C1349.7 499.672 1353.36 504.744 1357.29 510.099C1368.63 525.911 1381.52 543.82 1401.04 556.43C1436.82 579.552 1502.81 585.078 1571.04 524.579C1583.7 513.245 1595.37 501.23 1606.68 489.527C1629.35 466.093 1650.65 443.962 1676.69 431.862C1694.38 423.966 1713.81 420.777 1733.1 422.604C1752.38 424.431 1770.87 431.212 1786.76 442.29C1816.6 464.024 1836.86 503.072 1842.32 549.572Z" stroke="#E4E4E4" stroke-miterlimit="10"/>
<path d="M1816.06 558.215C1816.99 580.884 1813.23 604.063 1809.68 626.704L1784.89 780.345C1781.81 799.614 1770.73 836.055 1757.78 850.591C1748.32 861.274 1729.59 865.014 1720.1 854.332C1715 848.664 1713.86 840.39 1712.22 832.853C1702.22 787.004 1664.05 751.98 1619.29 740.504C1566.36 726.959 1508.79 744.131 1464.84 776.576C1429.91 802.334 1404.01 852.008 1377.95 886.607C1374.95 891.339 1370.81 895.238 1365.91 897.942C1360.81 900.237 1353.72 899.132 1351.2 894.145C1347.83 887.485 1354.18 880.288 1359.33 874.876C1392 840.56 1390.16 782.697 1367.44 743.309C1353.81 719.733 1331.91 711.317 1312.75 693.947C1302.95 685.049 1295.5 673.941 1288.1 662.947L1228.92 574.678C1216.03 555.466 1202.57 532.485 1210.08 510.609C1217.1 490.094 1241.47 479.439 1262.94 482.273C1284.42 485.106 1302.98 498.906 1317.97 514.605C1332.96 530.303 1345.31 548.325 1360.69 563.599C1390.72 593.33 1430.66 610.939 1472.86 613.051C1515.06 615.163 1556.55 601.631 1589.4 575.047C1617.19 552.377 1637.31 521.859 1663.8 497.773C1690.29 473.687 1727.86 456.147 1761.55 468.19C1789.88 478.306 1808.07 507.379 1813.65 536.962C1814.98 543.978 1815.78 551.081 1816.06 558.215V558.215Z" stroke="#E4E4E4" stroke-miterlimit="10"/>
<path d="M1772.43 525.769C1772.76 535.673 1772.26 545.587 1770.95 555.409L1751.83 733.618C1751.12 740.079 1750.07 747.248 1745 751.328C1739.02 756.145 1729.73 754.332 1723.72 749.515C1717.72 744.697 1714.03 737.67 1709.92 731.124C1668.96 665.667 1585.26 656.514 1517.26 678.56C1499.64 684.38 1482.66 691.976 1466.57 701.229C1451.84 709.56 1426.91 760.906 1408.52 720.526C1404.98 712.762 1404.61 703.978 1402.46 695.704C1395.94 670.796 1367.86 659.149 1350.13 643.763C1331.71 627.781 1316.98 608.172 1303.57 587.94C1291.96 570.428 1281.45 540.674 1265.66 527.555C1260.9 523.588 1255.44 520.187 1252.09 515.001C1248.75 509.816 1248.38 501.882 1253.34 498.17C1255.2 496.973 1257.35 496.312 1259.56 496.257C1261.77 496.202 1263.95 496.756 1265.86 497.858C1269.66 500.117 1273.01 503.056 1275.75 506.529C1303.09 537.302 1328.56 571.703 1363.33 594.684C1401.25 619.81 1446.2 632.179 1491.64 629.993C1537.08 627.807 1580.64 611.178 1615.97 582.527C1634.11 567.821 1648.53 551.357 1662.47 535.375C1671.78 524.258 1681.73 513.681 1692.24 503.695C1713.86 484.03 1751.01 468.274 1767.24 503.497C1770.35 510.531 1772.11 518.086 1772.43 525.769Z" stroke="#E4E4E4" stroke-miterlimit="10"/>
<path d="M1727.46 532.003C1728.2 538.776 1727.12 546.965 1727.46 551.839L1731.06 622.085C1732 639.654 1734.66 660.113 1730.69 677.313C1729.3 683.349 1724.4 689.073 1718.2 689.299C1711.57 689.554 1705.22 681.875 1699.81 678.56C1690.79 673.136 1681.38 668.4 1671.65 664.392C1655.22 657.759 1638.12 652.942 1620.65 650.025C1610.25 648.127 1583.05 644.896 1581.43 631.125C1579.28 612.763 1619.29 610.326 1630.11 602.051C1654.65 583.349 1676.46 559.207 1695.84 535.319C1700.35 529.652 1705.11 523.984 1711.85 521.604C1723.16 517.75 1726.61 523.871 1727.46 532.003Z" stroke="#E4E4E4" stroke-miterlimit="10"/>
<path d="M1709.92 542.346C1712.76 543.536 1713.49 547.504 1713.66 550.847L1716.33 610.666C1717.01 626.251 1722.33 642.544 1720.44 658.555C1719.19 669.266 1716.5 668.756 1707.2 665.1C1700.21 662.267 1693.69 658.526 1686.81 655.579C1674.85 650.471 1662.54 646.237 1649.97 642.913C1641.67 640.702 1622.91 640.816 1618.81 631.918C1613.82 621.405 1630.9 614.35 1637.76 610.382C1663.69 595.36 1685.39 574.022 1700.86 548.354C1702.84 545.038 1706.07 541.1 1709.73 542.346C1709.79 542.34 1709.86 542.34 1709.92 542.346Z" stroke="#E4E4E4" stroke-miterlimit="10"/>
<path d="M1693.12 601.683C1693.6 609.504 1702.42 629.481 1696.18 636.14C1689.07 643.678 1675.47 635.035 1668.87 630.898C1654.85 622.085 1673.46 612.508 1680.69 605.395C1683.04 603.213 1692.58 592.842 1693.12 601.683Z" stroke="#E4E4E4" stroke-miterlimit="10"/>
<path d="M1490.54 661.388C1496.61 674.225 1465.38 672.553 1452.92 679.609C1444.79 684.199 1448.92 703.666 1431.84 699.019C1414.75 694.372 1430.85 694.173 1430.17 691.567C1424.78 670.937 1393.33 662.89 1397.81 646.511C1402.29 630.133 1444.98 660.056 1469.43 661.303C1476.46 661.643 1484.56 648.58 1490.54 661.388Z" stroke="#E4E4E4" stroke-miterlimit="10"/>
<path d="M1616.82 366.66L1617.13 366.971C1619.29 368.934 1621.85 370.39 1624.64 371.233C1627.43 372.077 1630.38 372.286 1633.26 371.845C1654.11 369.493 1675.76 355.013 1694.94 347.334C1717.6 338.285 1740.69 330.332 1764.21 323.475C1812.38 309.306 1873.35 290.519 1923.87 297.575C1934.94 299.134 1947.95 300.409 1955.68 292.418C1964.18 283.492 1960.67 268.814 1955.23 257.706C1942.45 231.579 1923.41 216.816 1902.45 198.199C1880.46 178.59 1864.37 150.877 1846.63 127.556C1839.12 117.638 1828.38 106.559 1816.4 109.902C1804.41 113.246 1801.1 127.273 1798.27 138.947C1775.6 231.693 1687.29 278.788 1624.1 341.582C1617.73 347.929 1608.61 357.79 1616.82 366.66Z" stroke="#E4E4E4" stroke-miterlimit="10"/>
<path d="M1925.74 282.954C1918.4 283.974 1910.01 281.962 1903.07 281.905C1887.29 281.88 1871.54 283.207 1855.98 285.872C1825.78 290.774 1796.31 299.36 1766.99 307.918L1760.3 309.873C1730.99 318.483 1702.29 329.058 1674.4 341.525C1671.56 342.744 1668.22 343.962 1665.67 342.234C1656.8 336.17 1683.07 308.031 1687.68 304.149C1713.49 282.529 1739.48 260.794 1761.66 235.348C1786.42 207.012 1798.81 177.853 1811.1 143.226C1811.77 141.052 1812.87 139.033 1814.33 137.286C1815.79 135.54 1817.58 134.101 1819.6 133.053C1825.95 130.22 1833.77 133.053 1838.61 138.125C1847.28 147.165 1853.54 161.503 1861.28 171.903C1870.61 185.275 1881.34 197.623 1893.27 208.74C1895.73 210.95 1898.2 213.104 1900.61 215.229C1912.87 225.997 1930.41 239.315 1938.29 253.88C1942.14 261.049 1942.79 270.627 1937.61 276.918C1936.13 278.66 1934.32 280.091 1932.28 281.127C1930.24 282.164 1928.02 282.784 1925.74 282.954V282.954Z" stroke="#E4E4E4" stroke-miterlimit="10"/>
<path d="M1875.56 269.182C1873.35 273.234 1866.72 275.473 1862.87 276.124C1850.17 278.335 1837.73 271.024 1824.98 273.092C1799.06 277.314 1776.82 293.155 1752 300.862C1748.45 302.138 1744.72 302.836 1740.95 302.931C1739.09 302.937 1737.25 302.557 1735.55 301.816C1733.85 301.074 1732.32 299.987 1731.06 298.624C1721.91 287.601 1740.64 277.088 1747.66 272.441C1760.48 263.497 1770.86 251.498 1777.87 237.53C1784.53 225.119 1787.98 211.659 1793.68 198.879C1797.61 190.066 1806.91 186.949 1811.78 197.264C1817.45 209.619 1822.97 220.528 1832.32 230.644C1836.62 235.26 1841.27 239.533 1846.23 243.424C1850.91 247.108 1857.91 249.743 1861.99 253.823C1866.24 256.119 1876.15 260.256 1876.47 266.036C1876.46 267.149 1876.15 268.238 1875.56 269.182V269.182Z" stroke="#E4E4E4" stroke-miterlimit="10"/>
<path d="M1951.12 2154.58C1982.6 2199.73 2003.28 2251.51 2011.56 2305.93C2027.88 2416.27 1985.26 2496.18 1934.01 2588.5C1876.38 2692.32 1800.25 2653.67 1711.79 2602.67C1620.19 2549.88 1508.19 2536.87 1405.8 2561.07C1300.4 2585.92 1213.96 2686.54 1099.24 2633.7C1020.7 2597.62 984.517 2496.55 971.994 2416.86C969.16 2398.59 967.914 2378.36 978.425 2363.03C990.722 2345.23 1014.38 2340.36 1035.35 2335.14C1082.24 2323.21 1121.62 2263.56 1113.49 2214.6C1108.3 2183.43 1088.3 2153.11 1097.31 2122.96C1109.21 2083.09 1161.65 2073.34 1189.42 2042.34C1227.7 1999.67 1214.64 1922 1262.41 1890.32C1296.97 1867.39 1343.47 1882.72 1384.24 1874.96C1494.17 1854.02 1520.97 1682.1 1630.73 1660.9C1683.49 1650.73 1740.98 1687.06 1754.44 1739.11C1774.69 1817.55 1678.22 1915.11 1734.15 1982.1C1759.03 2011.85 1797.22 2026.1 1831.13 2044.95C1878.98 2071.85 1920.03 2109.35 1951.12 2154.58V2154.58Z" stroke="#E4E4E4" stroke-miterlimit="10"/>
<path d="M1986.79 2352.94C1986.79 2435.11 1949.14 2502.92 1909.28 2574.73C1893.89 2602.44 1877.37 2618.42 1858.79 2623.58C1825.21 2632.9 1778.77 2608.45 1725.96 2578.01C1630.73 2523.1 1511.68 2506.83 1399.34 2533.38C1360.41 2542.59 1325.08 2560.59 1290.91 2577.99C1228.58 2609.75 1174.74 2637.18 1110.94 2607.94C1030.59 2571.1 1005.6 2449 999.873 2412.42C998.862 2406.57 998.303 2400.66 998.202 2394.73C997.814 2389.33 999.005 2383.92 1001.63 2379.18C1006.96 2371.47 1022.48 2367.59 1037.5 2363.85L1042.2 2362.66C1096.72 2348.8 1142.78 2287.11 1142.78 2227.94C1142.78 2221.94 1142.29 2215.94 1141.31 2210.01C1139 2197.79 1135.71 2185.77 1131.48 2174.08C1127.23 2161.27 1123.21 2149.17 1123.21 2139.28C1123.18 2136.52 1123.56 2133.77 1124.34 2131.12C1128.36 2117.69 1144.43 2108.05 1163.07 2096.89C1178.74 2087.51 1196.48 2076.85 1210.42 2061.33C1232.4 2036.79 1240.48 2005.19 1247.62 1977.31C1254.76 1949.42 1260.93 1925.28 1277.96 1914C1292.13 1904.62 1312.41 1905.05 1335.93 1905.5C1353.24 1905.9 1371.12 1906.3 1389.39 1902.67C1455.61 1890.06 1495.44 1833.81 1530.61 1784.17C1562.37 1739.37 1592.34 1697.03 1636.06 1688.59C1674 1681.28 1717.32 1708.65 1726.95 1746.05C1728.31 1751.42 1728.97 1756.95 1728.91 1762.49C1728.91 1785.33 1719.64 1811.48 1709.84 1839.17C1699.16 1869.29 1688.11 1900.43 1688.11 1931.37C1687.68 1956.46 1696.3 1980.87 1712.39 2000.12C1735.2 2027.41 1765.17 2042.62 1794.13 2057.42C1802.26 2061.55 1809.91 2065.46 1817.33 2069.57C1861.36 2094.5 1899.18 2129.06 1927.96 2170.66C1956.75 2212.27 1975.76 2259.85 1983.56 2309.84C1985.7 2324.1 1986.78 2338.51 1986.79 2352.94V2352.94Z" stroke="#E4E4E4" stroke-miterlimit="10"/>
<path d="M1942.79 2352.99C1944.38 2408.68 1930.54 2463.72 1902.79 2512.02C1889.95 2534.15 1873.38 2555.35 1850.37 2566.51C1813.54 2584.33 1782.91 2568.24 1753.16 2547.41C1724.26 2527.15 1692.95 2513.15 1658.73 2502.07C1571.58 2474.38 1478.54 2470.9 1389.56 2492.01C1345.73 2502.36 1308.05 2521.57 1271.64 2540.1C1207.24 2572.89 1171.66 2589.07 1128.7 2569.32C1098.19 2555.32 1078.04 2520.26 1066.37 2493.32C1057.16 2471.78 1039.68 2434.92 1049.37 2410.46C1056 2393.46 1064.27 2393.18 1079.77 2387.31C1104.42 2378.02 1118.96 2370.79 1138.08 2348.63C1166.73 2315.51 1185.26 2272.12 1185.26 2228C1185.26 2198.99 1163.33 2174.5 1177.12 2145.49C1189.34 2119.81 1218.46 2110.07 1239.06 2092.78C1263.94 2071.9 1273.23 2048.07 1278.19 2016.44C1282.15 1990.94 1289.04 1962.23 1311.85 1950.42C1326.5 1942.82 1343.95 1944.5 1360.44 1944.38C1454.13 1943.76 1514.82 1880.2 1565.26 1808.99C1581.83 1785.58 1601.75 1751.15 1627.28 1736.73C1643.14 1727.75 1665.87 1728.09 1677.12 1742.4C1688.36 1756.71 1683.86 1777.08 1678.96 1794.48C1656.72 1873.26 1619.66 1955.6 1679.75 2027.55C1719.9 2075.72 1779.51 2088.98 1827.08 2125.96C1877.49 2165.2 1914.19 2219.39 1931.91 2280.76C1938.52 2304.3 1942.17 2328.56 1942.79 2352.99V2352.99Z" stroke="#E4E4E4" stroke-miterlimit="10"/>
<path d="M1928.71 2361.21C1928.87 2411.64 1915.7 2461.21 1890.55 2504.91C1876.21 2529.62 1861.05 2545.6 1844.17 2553.79C1815.83 2567.5 1792.37 2557.58 1761.29 2535.79C1733.36 2516.21 1702.13 2501.22 1663.06 2488.61C1573.48 2459.97 1477.78 2456.38 1386.31 2478.24C1340.77 2489.01 1302.38 2508.53 1265.24 2527.43C1185.91 2567.84 1119.98 2581.58 1073.43 2487.42C1061.72 2463.79 1060.25 2433.16 1076.8 2412.64C1082.63 2405.99 1089.3 2400.12 1096.63 2395.16C1156.13 2351.12 1199.42 2308.51 1199.42 2227.97C1199.42 2214.63 1195.63 2202.47 1192.28 2191.67C1189.45 2182.46 1186.62 2173.74 1186.62 2165.63C1186.56 2160.73 1187.64 2155.88 1189.79 2151.46C1196.25 2137.86 1209.96 2129.16 1224.5 2119.98C1232.7 2115.02 1240.56 2109.52 1248.04 2103.52C1279.21 2077.45 1287.57 2047.24 1292.07 2018.51C1295.61 1995.84 1301.51 1971.56 1318.25 1962.89C1327.4 1958.15 1339.44 1958.27 1352.25 1958.41C1355.08 1958.41 1357.77 1958.41 1360.52 1958.41C1463.34 1957.7 1527.69 1886.55 1576.79 1817.04C1579.79 1812.81 1582.91 1808.22 1586.11 1803.49C1600.28 1782.69 1616.11 1759.17 1634.28 1748.92C1644.33 1743.25 1659.46 1742.74 1665.98 1751.04C1668.88 1755.17 1670.28 1760.17 1669.95 1765.21C1669.53 1773.87 1667.99 1782.45 1665.36 1790.71C1662.52 1800.6 1659.44 1810.8 1656.43 1820.66C1644.9 1858.58 1632.97 1897.77 1632.97 1936.56C1632.34 1973.21 1645.11 2008.84 1668.9 2036.73C1694.79 2067.7 1727.75 2085.04 1759.56 2101.9C1780.5 2112.93 1800.28 2123.3 1818.27 2137.32C1866.33 2174.69 1901.31 2226.34 1918.17 2284.84C1924.47 2307.21 1927.96 2330.28 1928.57 2353.5L1928.71 2361.21Z" stroke="#E4E4E4" stroke-miterlimit="10"/>
<path d="M1876.83 2352.71C1877.22 2393.44 1867.87 2433.67 1849.55 2470.05C1842.64 2483.8 1833.4 2497.85 1818.89 2503.01C1806.79 2507.32 1793.08 2504.42 1781.83 2498.25C1764.3 2488.58 1690.26 2446.96 1667.62 2439.68C1585.99 2413.55 1499.42 2406.61 1414.67 2419.39C1377.93 2425.26 1341.7 2433.95 1306.29 2445.4C1275.13 2455.15 1254.44 2480.85 1225.49 2495.22C1199.99 2507.88 1169.08 2512.73 1142.93 2501.39C1116.77 2490.06 1098.33 2459.57 1106.46 2432.25C1114.22 2406.24 1140.91 2391.79 1162.25 2375.01C1195.23 2349.03 1214.84 2312.95 1227.93 2273.82C1240.28 2236.98 1217.05 2197.31 1232.03 2161.67C1245.12 2130.5 1286.29 2120.24 1303.43 2091.02C1316.98 2067.93 1312.84 2037.18 1327.54 2014.91C1343.61 1990.4 1375.88 1984.11 1403.79 1975.24C1458.11 1957.97 1505.77 1924.32 1540.21 1878.9C1547.86 1868.72 1555.2 1857.64 1566.31 1851.38C1577.41 1845.12 1593.67 1845.71 1600.56 1856.45C1612.29 1874.67 1589.99 1902.3 1586.85 1921.06C1582.47 1947.8 1585.05 1975.21 1594.35 2000.66C1616 2059.77 1677.77 2102.67 1731.34 2131.01C1751.4 2141.55 1768.72 2150.64 1783.73 2162.35C1844.22 2209.33 1876.1 2280.14 1876.83 2352.71Z" stroke="#E4E4E4" stroke-miterlimit="10"/>
<path d="M1836.23 2355.01C1836.52 2361.76 1836.45 2368.52 1836.03 2375.27C1834.79 2394.88 1829.57 2415.99 1813.99 2428C1800.67 2438.26 1782.23 2439.59 1765.83 2435.93C1749.42 2432.28 1734.38 2424.18 1719.22 2416.92C1562.71 2342.06 1367.89 2353.9 1221.63 2447.18C1212.17 2453.22 1202.71 2459.65 1191.94 2462.74C1181.18 2465.83 1168.57 2465.04 1160.1 2457.7C1122.75 2425.31 1198.83 2399.95 1214.75 2384.73C1248.04 2353.05 1272.07 2304 1270.4 2257.53C1269.29 2227.41 1266.46 2194.59 1283.63 2169.85C1297.94 2149.25 1323.6 2138.68 1337.2 2117.55C1349.81 2098.08 1350.1 2072.86 1361.4 2052.6C1375.82 2026.76 1401.86 2018.59 1427.33 2007.91C1456.4 1995.73 1482.89 1975.86 1509.67 1959.03C1517.2 1954.3 1526.16 1949.37 1534.52 1952.43C1554.72 1959.82 1549.3 1996.69 1553.67 2012.87C1560.86 2039.65 1576.33 2063.88 1595.43 2083.85C1624.13 2113.92 1660.6 2135.37 1695.79 2157.22C1767.89 2201.85 1832.46 2267.59 1836.23 2355.01Z" stroke="#E4E4E4" stroke-miterlimit="10"/>
<path d="M1812.18 2343.5C1809.34 2364.56 1792.35 2375.83 1764.01 2364.33C1721.51 2347.1 1681.62 2328.79 1636.26 2318.99C1580.67 2307.32 1523.65 2304.02 1467.08 2309.19C1419.43 2313.29 1376.81 2325.14 1331.43 2339.51C1323.44 2342.06 1313.75 2344.24 1307.48 2338.68C1300.37 2332.34 1302.92 2320.86 1306.01 2311.88C1314.03 2288.61 1325.67 2271.33 1325.14 2246.7C1324.48 2217.52 1326.69 2191.67 1344.97 2167.36C1357.94 2150.05 1376.13 2136.9 1387.61 2118.59C1398.49 2101.28 1402.77 2080.48 1413.51 2063.08C1431.92 2033.3 1492.5 1981.13 1528.68 2006.24C1544.15 2016.98 1552.59 2035.03 1559.85 2052.4C1570.7 2077.9 1585.68 2106.24 1608.78 2122.82C1645.33 2149.11 1686.44 2167.25 1721.54 2196.35C1759.14 2227.52 1791.64 2266.48 1807.98 2312.53C1811.79 2322.38 1813.22 2332.99 1812.18 2343.5V2343.5Z" stroke="#E4E4E4" stroke-miterlimit="10"/>
<path d="M1798.44 2336.87C1798.45 2338.45 1798.35 2340.03 1798.15 2341.6C1797.62 2345.51 1796.11 2350.7 1791.98 2353.11C1787.27 2355.94 1778.97 2355.15 1769.31 2351.21C1762.03 2348.38 1754.83 2345.29 1747.66 2342.31C1711.85 2327.52 1678.05 2313.52 1639.21 2305.16C1582.24 2293.2 1523.8 2289.81 1465.84 2295.1C1444.25 2296.97 1423.82 2304.11 1403.33 2310.72C1387.35 2315.9 1349.76 2332.85 1333.15 2325.05C1315.64 2316.87 1339.27 2268.01 1339.27 2248.35L1339.27 2246.34C1339.27 2243.76 1339.27 2241.18 1339.27 2238.6C1339.27 2214.6 1342.11 2194.73 1356.27 2175.78C1361.81 2168.77 1367.81 2162.14 1374.24 2155.94C1383.74 2146.93 1392.24 2136.9 1399.57 2126.05C1405.22 2116.39 1409.97 2106.22 1413.73 2095.67C1416.87 2086.94 1420.78 2078.5 1425.41 2070.45C1437.19 2051.35 1469.92 2020.49 1498.19 2014.6C1507.32 2012.7 1514.6 2013.75 1520.43 2017.8C1532.65 2026.3 1539.84 2041.55 1546.73 2057.84C1556.62 2081.13 1572.93 2114.51 1600.56 2134.35C1616.71 2145.97 1633.77 2156.06 1650.23 2165.8C1672.38 2178.95 1693.35 2191.31 1712.56 2207.29C1753.08 2240.89 1780.56 2277.9 1794.72 2317.29C1797.03 2323.57 1798.29 2330.18 1798.44 2336.87V2336.87Z" stroke="#E4E4E4" stroke-miterlimit="10"/>
<path d="M1731.4 2289.32C1722.9 2305.5 1676.41 2269.71 1648.1 2263.62C1587.08 2250.77 1524.49 2247.09 1462.38 2252.71C1442.97 2254.38 1420.33 2259.94 1403.56 2269.57C1396.85 2273.42 1387.47 2275.81 1382.06 2270.28C1377.38 2265.49 1378.57 2257.67 1380.5 2251.24C1385.6 2234.24 1378.54 2216.87 1390.22 2201.28C1394.62 2195.82 1399.35 2190.63 1404.38 2185.75C1416.13 2174.6 1426.58 2162.17 1435.55 2148.69C1442.68 2136.83 1448.66 2124.31 1453.4 2111.31C1455.67 2104.94 1458.44 2098.75 1461.67 2092.81C1468.58 2081.61 1482.81 2058.8 1498.67 2064.92C1513.35 2070.59 1521.34 2103.09 1529.36 2116.21C1541.6 2136.36 1556.53 2154.86 1575.77 2168.72C1593.45 2181.44 1611.33 2192.01 1628.58 2202.24C1650.17 2215.05 1668.81 2226.1 1685.44 2239.9C1702.08 2253.7 1739.93 2273.14 1731.4 2289.32Z" stroke="#E4E4E4" stroke-miterlimit="10"/>
<path d="M1578.66 2219.5C1577.95 2226.07 1572.99 2229.25 1566.67 2231.01C1552.25 2235.03 1535.79 2230.41 1521.34 2228.46C1501.34 2225.62 1481.67 2218.25 1461.22 2219.61C1451.64 2220.39 1442.43 2223.63 1434.47 2229.02C1426.6 2233.81 1422.4 2235.26 1417.47 2225.51C1406.71 2204.09 1448.1 2193.83 1463.14 2169.97C1469.15 2160.42 1466.29 2113.81 1487.57 2118.96C1489.77 2119.65 1491.68 2121.05 1493.01 2122.93C1498.67 2130.01 1501 2139.2 1506.04 2146.7C1511.61 2155.04 1517.63 2163.07 1524.06 2170.76C1531.72 2179.91 1539.98 2188.54 1548.8 2196.58C1552.99 2200.78 1557.57 2204.57 1562.48 2207.91C1569.99 2212.42 1578.57 2205.45 1578.66 2217.77C1578.7 2218.35 1578.7 2218.93 1578.66 2219.5V2219.5Z" stroke="#E4E4E4" stroke-miterlimit="10"/>
<path d="M646.845 1476.57C613.583 1494.88 589.698 1535.43 551.76 1534.95C530.17 1534.66 511.669 1520.5 492.261 1510.86C414.289 1472.04 321.442 1517.44 282.597 1592.36C261.489 1633.1 272.313 1677.37 253.358 1717.04C232.476 1760.85 187.2 1788.39 155.326 1823.33C131.541 1849.44 113.655 1880.37 102.882 1914C81.0936 1982.18 99.8784 2117.49 192.697 2125.54C221.342 2128 249.958 2114.2 269.423 2093.09C315.775 2042.85 331.415 1924.29 426.727 1937.95C448.317 1941.01 468.886 1953.85 490.391 1950.3C525.297 1944.64 538.784 1902.13 564.907 1878.33C589.528 1855.83 625.454 1850.67 658.745 1852.43C692.036 1854.19 725.044 1861.75 758.335 1860.45C802.053 1858.75 846.451 1839.9 872.064 1804.46C897.677 1769.01 900.397 1716.27 872.545 1682.61C844.694 1648.94 791.57 1635.49 779.302 1593.52C774.485 1577.03 777.375 1559.34 775.279 1542.31C768.309 1485.98 696.485 1449.26 646.845 1476.57Z" stroke="#E4E4E4" stroke-miterlimit="10"/>
<path d="M864.074 1740.95C864.045 1757.75 858.841 1774.12 849.171 1787.85C830.216 1814.06 795.877 1830.64 757.287 1832.14C739.466 1832.85 721.134 1830.58 701.755 1828.23C688.325 1826.59 674.47 1824.89 660.303 1824.12C611.344 1821.54 572.84 1832.62 545.867 1857.39C535.243 1867.75 525.745 1879.2 517.534 1891.56C504.671 1909.58 496.114 1920.66 485.886 1922.36C479.199 1923.47 470.048 1920.55 459.48 1917.18C450.144 1913.95 440.552 1911.51 430.807 1909.9C344.901 1897.71 308.352 1968.47 281.691 2020.12C270.754 2041.26 260.441 2061.27 248.768 2073.96C234.035 2089.97 213.578 2098.93 195.36 2097.37C172.694 2095.41 155.496 2082.81 142.463 2058.86C130.223 2036.36 123.196 2005.02 123.196 1973.09C122.97 1956.04 125.281 1939.05 130.053 1922.68C139.609 1892.93 155.435 1865.59 176.462 1842.48C186.958 1831.37 198.013 1820.79 209.583 1810.8C235.678 1787.51 262.679 1763.45 278.971 1729.25C290.304 1705.65 292.854 1681.5 295.177 1660.19C297.33 1640.36 299.342 1621.68 307.814 1605.36C338.583 1545.86 414.969 1503.97 479.653 1536.19C483.733 1538.23 487.954 1540.59 492.431 1543.11C508.977 1552.4 527.762 1562.94 551.335 1563.25C586.411 1563.71 611.627 1541.41 631.886 1523.58C641.774 1514.83 651.124 1506.58 660.445 1501.45C675.518 1493.15 695.578 1493.86 714.108 1503.35C732.637 1512.84 744.991 1528.66 747.087 1545.71C747.651 1551.36 747.897 1557.04 747.824 1562.72C747.416 1575.7 748.857 1588.68 752.102 1601.25C762.33 1636.25 790.493 1655.09 815.37 1672.1C829.139 1681.39 842.144 1690.17 850.672 1700.43C859.684 1711.99 864.42 1726.3 864.074 1740.95V1740.95Z" stroke="#E4E4E4" stroke-miterlimit="10"/>
<path d="M820.781 1769.43C821.348 1772.67 821.348 1775.97 820.781 1779.21C815.795 1805.48 778.537 1817.12 755.616 1818C741.222 1818.57 725.328 1816.61 706.911 1814.37C692.745 1812.64 678.182 1810.86 662.542 1810.01C628.542 1808.22 593.438 1811.91 561.875 1825.57C527.167 1840.61 509.572 1869.23 483.053 1893.4C477.05 1899.33 469.066 1902.82 460.641 1903.21C448.515 1903.21 438.4 1895.16 426.642 1893.74C414.204 1892.27 399.102 1894.28 386.806 1896.24C355.576 1901.62 326.781 1916.55 304.385 1938.97C268.289 1974.13 250.553 2021.14 224.657 2063.25C218.99 2072.29 211.68 2082.18 201.055 2082.72C193.264 2083.15 186.039 2078.02 181.704 2071.53C169.067 2052.51 165.696 2023.58 165.696 2001.39C165.459 1988.75 167.062 1976.14 170.456 1963.96C178.129 1940.04 190.855 1918.04 207.77 1899.47C216.043 1890.4 226.668 1880.94 237.916 1870.9C265.824 1846.03 297.415 1817.83 317.419 1775.89C331.755 1745.8 334.928 1716.61 337.478 1693.15C339.263 1676.74 340.793 1662.55 345.61 1653.28C366.633 1612.67 419.105 1581.87 460.755 1602.61C463.871 1604.17 467.64 1606.27 471.606 1608.51C490.589 1619.13 516.457 1633.67 550.938 1634.01C576.07 1634.35 599.104 1626.53 620.722 1614.18C627.947 1609.98 636.447 1605.99 642.539 1600.18C651.039 1592.19 655.09 1581.48 665.205 1574.9C676.057 1567.9 692.178 1567.22 700.678 1576.94C708.016 1585.3 707.336 1597.71 707.563 1608.85C708.28 1631.43 714.446 1653.51 725.536 1673.2C736.627 1692.88 752.312 1709.6 771.255 1721.91C782.588 1729.17 795.197 1734.78 805.255 1743.67C813.22 1750.23 818.7 1759.32 820.781 1769.43V1769.43Z" stroke="#E4E4E4" stroke-miterlimit="10"/>
<path d="M772.077 1773.29C772.087 1775.57 771.654 1777.83 770.802 1779.94C763.237 1798.87 737.511 1797.2 729.067 1796.66C716.839 1795.45 704.809 1792.72 693.255 1788.53C683.026 1785.3 673.422 1782.21 663.958 1781.73C621.261 1779.46 583.096 1785.47 550.627 1799.58C533.285 1807.29 517.284 1817.72 503.226 1830.47C499.447 1834.16 495.934 1838.12 492.714 1842.31C485.036 1851.81 476.309 1862.57 464.523 1867.36C452.736 1872.15 441.007 1869.83 431.912 1867.84C428.898 1867.1 425.842 1866.54 422.76 1866.17C409.239 1865.16 395.644 1865.86 382.301 1868.27C354.733 1872.69 334.9 1893.01 311.922 1916.44C306.935 1921.57 301.779 1926.84 296.452 1932.03C296.112 1932.37 260.441 1962.94 237.576 1954.98C233.592 1953.57 230.098 1951.04 227.511 1947.7C224.923 1944.36 223.352 1940.35 222.985 1936.14C222.848 1935.08 222.782 1934.02 222.786 1932.96C223.119 1926.28 225.318 1919.83 229.133 1914.34L233.496 1906.92C240.579 1894.82 247.889 1882.27 259.789 1872.12C265.937 1866.88 272.397 1862.18 278.631 1857.61C282.937 1854.47 287.13 1851.49 290.955 1848.38C316.908 1827.92 333.455 1808.71 342.975 1788.13C359.464 1753.51 363.063 1720.32 365.641 1696.07C368.474 1668.58 380.204 1634.41 418.425 1627.89C445.03 1623.36 469.113 1636.56 488.436 1647.19C508.269 1658.04 524.39 1661.98 550.457 1662.32C571.818 1662.28 592.898 1657.43 612.137 1648.15C613.894 1647.36 617.804 1644.95 621.487 1642.48C637.07 1632.74 656.507 1620.64 672.487 1625.14C675.72 1626.05 678.725 1627.63 681.307 1629.78C683.889 1631.93 685.991 1634.6 687.475 1637.61C690.39 1644.02 691.721 1651.04 691.356 1658.07L691.356 1662.94C691.583 1679.07 701.074 1697.17 720.398 1718.23C721.871 1719.81 728.331 1724.83 733.062 1728.49C751.422 1742.65 764.795 1753.51 769.725 1763.74C771.23 1766.7 772.035 1769.96 772.077 1773.29V1773.29Z" stroke="#E4E4E4" stroke-miterlimit="10"/>
<path d="M757.06 1770.17C757.465 1770.84 757.726 1771.58 757.829 1772.36C757.931 1773.13 757.872 1773.92 757.655 1774.67C754.057 1783.66 737.284 1783 729.974 1782.52C707.562 1781.08 686.879 1768.75 664.808 1767.56C619.9 1765.21 579.583 1771.59 545.016 1786.58C526.302 1794.89 509.03 1806.13 493.847 1819.87C482.854 1829.65 472.541 1848.8 459.196 1854.24C447.523 1859 435.906 1853.19 424.148 1852.06C409.418 1850.95 394.608 1851.7 380.062 1854.27C341.133 1860.53 316.568 1892.75 286.564 1921.97C281.152 1927.24 239.786 1955.77 237.038 1934.41C236.471 1929.9 238.908 1925.65 241.231 1921.77C249.731 1907.6 256.701 1893.43 268.969 1882.98C278.744 1874.65 289.652 1867.56 299.738 1859.6C322.405 1841.66 343.513 1820.83 355.838 1794.14C373.262 1757.53 377.031 1722.96 379.779 1697.8C382.527 1672.63 391.934 1646.99 420.862 1642.06C442.111 1638.43 462.794 1649.43 481.692 1659.8C505.095 1672.66 524.192 1676.35 550.315 1676.8C573.758 1676.76 596.898 1671.5 618.059 1661.41C629.618 1656.17 666.026 1626.67 674.98 1644.41C677.813 1650.08 677.274 1657.05 677.359 1663.57C677.699 1688.16 694.189 1710.86 710.141 1728.23C716.742 1735.31 751.195 1757.98 757.06 1770.17Z" stroke="#E4E4E4" stroke-miterlimit="10"/>
<path d="M682.063 1746.34C680.781 1747.59 679.185 1748.47 677.445 1748.89C673.563 1750.08 669.54 1748.01 665.885 1746.25C640.64 1734.07 614.885 1737.89 588.196 1741.38C564.351 1744.38 541.037 1750.67 518.922 1760.08C502.519 1767.33 487.113 1776.66 473.079 1787.82C459.933 1798.16 450.724 1816.16 436.02 1823.7C424.035 1829.82 413.155 1824.38 401.085 1823.16C385.445 1821.6 368.446 1823.41 354.421 1830.84C350.454 1832.96 346.176 1835.54 341.756 1834.63C340.129 1834.29 338.634 1833.48 337.446 1832.32C336.257 1831.16 335.423 1829.68 335.041 1828.06C332.378 1816.22 356.546 1799.72 362.411 1789.98C379.694 1760.99 381.79 1727.27 385.332 1694.48C388.874 1661.7 401.595 1659.66 407.715 1658.61C421.655 1656.23 438.74 1665.61 453.784 1673.88C482.656 1689.75 506.37 1693.23 533.117 1693.57C550.478 1693.56 567.752 1691.1 584.428 1686.26C597.659 1682.61 622.932 1659.77 635.427 1662.26C638.464 1663.05 641.26 1664.58 643.564 1666.71C645.867 1668.84 647.608 1671.51 648.63 1674.48C651.803 1682.67 650.472 1691.48 653.588 1699.75C657.405 1710.23 663.238 1719.86 670.758 1728.09C674.243 1731.6 686.879 1740.93 682.063 1746.34Z" stroke="#E4E4E4" stroke-miterlimit="10"/>
<path d="M633.642 1709.33C632.767 1710.6 631.642 1711.67 630.336 1712.49C629.031 1713.31 627.572 1713.86 626.049 1714.09C587.176 1720.92 549.919 1720.81 512.547 1736.96C496.274 1743.97 480.964 1753.04 466.988 1763.93C459.995 1769.37 453.369 1775.27 447.155 1781.59C435.17 1793.83 427.52 1803.04 408.424 1802.5C401.539 1802.3 394.257 1798.59 391.991 1792.07C390.878 1787.38 391.094 1782.48 392.614 1777.9L407.319 1715.56C409.359 1706.81 410.011 1698.05 411.427 1689.55C412.702 1681.9 414.459 1675.86 424.46 1680.91C457.015 1697.4 487.473 1711.31 524.617 1713.3C546.793 1714.51 569.015 1712.03 590.378 1705.96C600.408 1703.12 613.044 1694.31 622.989 1693.4C631.517 1692.53 639.366 1700.86 633.642 1709.33Z" stroke="#E4E4E4" stroke-miterlimit="10"/>
<path d="M93.4182 334.611C59.4187 354.447 33.9191 386.297 12.9527 419.479C-96.894 592.332 -111.145 810.665 -81.6226 1013.41C-75.4177 1055.92 -66.9461 1099.39 -43.0331 1134.98C-28.3019 1156.48 -8.58652 1174.1 14.4296 1186.32C37.4457 1198.55 63.0788 1205.03 89.14 1205.19C182.922 1204.94 232.873 1093.86 320.705 1097.2C375.954 1099.33 427.917 1129.14 484.016 1113.21C514.474 1104.71 539.888 1077.94 571.536 1078.96C608.652 1080.15 633.161 1118.06 667.273 1132.79C741.194 1164.64 832.709 1080.32 901.87 1121.46C923.035 1134.07 936.521 1156.12 954.598 1172.86C972.674 1189.61 1001.29 1200.72 1021.46 1186.61C1057.5 1161.36 1020.87 1102.53 1035.63 1061.13C1046.68 1030.41 1083.8 1016.78 1099.72 988.363C1118.14 955.606 1101.62 911.288 1070.9 889.639C1040.19 867.99 999.817 864.986 962.587 870.143C931.421 874.45 900.255 884.312 875.464 903.552C835.939 934.212 807.465 989.865 757.372 989.242C709.348 988.675 674.753 933.192 626.757 934.212C580.036 935.204 546.377 989.582 499.684 987.712C481.494 986.975 464.58 977.284 451.518 964.447C396.042 909.248 416.045 815.085 451.716 745.434C487.388 675.783 536.46 605.197 527.677 527.441C519.744 457.11 458.091 396.611 387.627 390.009C348.67 386.354 306.822 397.008 271.746 379.694C246.699 367.34 229.756 342.63 205.503 328.831C171.589 309.363 127.418 314.946 93.4182 334.611Z" stroke="#E4E4E4" stroke-miterlimit="10"/>
<path d="M1079.21 949.514C1079.31 955.273 1077.9 960.958 1075.13 966.006C1070.34 974.507 1060.96 982.498 1051.04 990.914C1035.4 1004.18 1017.67 1019.25 1009.08 1043.08C1005.3 1054.09 1003.47 1065.67 1003.67 1077.31C1003.92 1089.65 1005.02 1101.96 1006.98 1114.15C1008.41 1122.95 1009.28 1131.82 1009.59 1140.73C1009.59 1152.06 1006.96 1153.79 1005.23 1154.9C999.562 1158.89 984.573 1153.51 973.835 1143.56C968.169 1138.41 962.927 1132.23 957.232 1125.8C946.154 1113.19 933.603 1098.88 916.376 1088.62C869.967 1060.96 819.053 1075.92 774.145 1089.13C738.474 1099.64 704.757 1109.53 678.465 1098.22C668.35 1093.86 658.121 1085.78 647.298 1077.23C627.069 1061.24 604.119 1043.22 572.443 1042.12C545.64 1041.27 524.107 1053.25 505.124 1063.85C494.952 1069.52 485.291 1074.9 476.281 1077.45C448.486 1085.36 420.89 1078.9 388.93 1071.45C367.539 1066.46 345.411 1061.3 321.781 1060.39C267.694 1058.33 226.498 1090.4 190.118 1118.68C157.365 1144.19 126.454 1168.24 89.0547 1168.36C67.6612 1168.14 46.6335 1162.78 27.74 1152.74C8.84659 1142.7 -7.36013 1128.27 -19.5171 1110.66C-40.7951 1079.01 -48.2467 1037.36 -53.5733 1000.83C-62.1062 943.368 -66.4808 885.363 -66.6631 827.27C-66.6631 669.237 -31.8419 534.27 36.8654 426.167C51.7685 402.704 75.3132 369.493 107.499 350.678C135.832 334.214 168.953 331.976 191.733 345.011C201.097 350.962 209.806 357.886 217.714 365.668C229.388 376.294 242.647 388.337 259.449 396.64C288.915 411.12 320.62 410.241 348.414 409.391C360.687 408.775 372.986 408.879 385.247 409.703C441.913 415.03 493.394 465.469 499.769 522.114C500.337 527.185 500.621 532.284 500.619 537.387V537.387C500.619 587.515 474.269 635.942 446.39 687.231C439.845 699.246 433.073 711.685 426.755 724.068C402.36 771.646 388.959 821.49 388.959 864.391C388.959 909.559 403.777 948.182 431.798 976.065C451.234 995.391 474.977 1006.58 498.664 1007.55C531.785 1008.88 557.653 991.509 580.489 976.179C597.177 964.844 612.931 954.388 627.465 954.076C642.85 953.736 658.632 964.391 677.19 976.745C699.601 991.764 725.016 1008.74 757.145 1009.13C803.809 1009.7 834.182 977.199 860.985 948.522C870.836 937.34 881.52 926.92 892.945 917.352C911.22 903.184 936.011 893.861 966.61 889.61C992.308 886.068 1028.46 885.7 1054.7 904.204C1069.12 914.462 1079.21 933.05 1079.21 949.514Z" stroke="#E4E4E4" stroke-miterlimit="10"/>
<path d="M1067.33 954.275C1065.35 960.877 1058.27 965.609 1051.95 971.05C1038.41 982.384 1025.15 994.428 1014.55 1008.74C999.42 1029.14 996.36 1046.68 992.96 1071.36C992.167 1077.31 991.062 1083.8 986.585 1087.8C980.919 1092.76 972.051 1091.85 965.846 1087.8C953.747 1079.78 949.611 1070.57 935.331 1064.73C918.043 1057.65 899.464 1054.27 880.79 1054.81C842.172 1055.86 805.453 1070.51 768.847 1081.28C738.531 1090.2 707.194 1087.29 691.101 1080.34C684.67 1077.51 675.121 1070.06 665.913 1062.78C650.783 1050.82 629.364 1046.48 613.016 1036.17C599.671 1027.67 589.839 1011.12 606.556 1000.6C624.122 989.554 641.235 1004.69 655.09 1013.95C681.893 1031.89 715.269 1039.06 760.46 1039.45C801.94 1039.96 849.511 1026.79 879.742 996.949C905.921 970.965 932.696 944.243 968.254 931.775C991.855 923.529 1047.95 914.32 1064.42 940.276C1068.07 945.915 1068.52 950.392 1067.33 954.275Z" stroke="#E4E4E4" stroke-miterlimit="10"/>
<path d="M460.329 1056.17C462.143 1074.73 401.51 1057.65 390.602 1055.1C369.182 1050.11 344.901 1044.44 318.552 1043.42C267.552 1041.49 217.233 1066.09 179.125 1098.59C142.462 1129.76 106.99 1159.46 54.6587 1140.59C-2.48881 1119.99 -9.79871 1065.44 -17.3636 1013.58C-25.4777 958.895 -29.6439 903.695 -29.8301 848.409C-29.8301 712.394 -0.873853 579.779 72.5934 463.798C86.7599 441.298 103.76 418.714 128.013 407.975C177 386.354 203.067 437.501 241.514 456.487C277.865 474.452 314.812 473.489 344.476 472.44C355.087 471.901 365.719 471.967 376.322 472.638C416.385 476.379 454.011 513.33 458.488 553.284C458.915 557.047 459.123 560.832 459.111 564.619C459.111 605.225 435.283 649.062 410.039 695.449C403.494 707.492 396.779 719.818 390.432 732.286C364.196 783.49 349.746 837.698 349.746 884.878C349.746 919.704 358.246 957.023 377.852 987.117C388.079 1002.9 401.376 1016.45 416.952 1026.99C427.917 1034.35 456.618 1040.5 460.103 1055.01C460.198 1055.39 460.274 1055.78 460.329 1056.17V1056.17Z" stroke="#E4E4E4" stroke-miterlimit="10"/>
<path d="M1024.44 953.056C1022.37 967.508 1000.64 979.891 991.77 991.877C981.485 1005.73 981.315 1043.85 959.244 1045.46C952.756 1045.91 927.709 1035.18 919.578 1032.85C906.261 1029.05 894.447 1025.06 902.578 1008.74C914.365 985.076 954.116 966.714 977.717 958.468C992.053 953.424 1009.51 947.927 1024.44 953.056Z" stroke="#E4E4E4" stroke-miterlimit="10"/>
<path d="M415.224 565.554C415.945 577.113 414.631 588.708 411.342 599.813C402.644 629.169 383.689 654.19 367.908 680.43C337.617 731.243 318.664 788.002 312.347 846.822C309.514 873.204 304.754 908.171 314.16 933.532C322.008 954.671 344.958 974.932 343.966 998.961C343.06 1020.47 323.538 1014.21 304.867 1013.5C230.21 1010.66 176.519 1052.4 137.334 1082.89C113.875 1101.14 91.7468 1118.4 76.107 1118.43C14.0862 1118.57 6.748 1050.11 -2.06354 1003.35C-34.085 832.698 -9.6266 656.255 67.6071 500.748C78.0619 480.034 90.0468 458.782 109.426 445.124C133.198 428.405 145.664 436.311 166.687 452.321C206.353 482.443 253.103 501.003 303.224 501.825C333.512 502.335 367.058 497.575 391.056 515.993C406.526 527.498 413.977 546.058 415.224 565.554Z" stroke="#E4E4E4" stroke-miterlimit="10"/>
<path d="M1184.77 771.391C1184.77 813.102 1156.78 838.548 1130.43 841.325C1119.18 842.131 1107.89 840.567 1097.28 836.735C1074.76 829.339 1053.65 817.097 1033.22 805.253C998.457 785.077 965.647 766.035 931.704 774.281C905.27 780.713 885.323 802.391 864.187 825.286C859.399 830.472 854.44 835.884 849.454 841.013C810.241 881.506 765.843 895.675 731.079 878.899C721.031 873.572 711.756 866.898 703.511 859.064C693.311 850.138 684.471 842.43 674.413 841.297C666.281 840.362 657.101 843.904 647.383 847.644C643.332 849.203 639.138 850.818 634.775 852.206C598.651 863.768 558.645 854.586 535.213 829.537C525.06 818.848 519.497 804.607 519.715 789.866C519.715 759.914 539.548 727.894 559.013 696.922C572.103 675.953 584.513 656.117 588.451 640.391C590.717 631.266 592.899 621.83 594.996 612.678C602.901 578.305 611.06 542.743 628.514 510.524C644.862 480.374 679.796 447.986 719.717 425.997C793.949 385.079 862.799 390.207 899.405 439.4C921.363 468.955 921.533 506.926 921.674 540.419L921.674 551.159C922.184 594.174 932.781 622 953.152 634.043C962.899 639.711 975.139 641.977 988.087 644.301L990.155 644.669C1032.65 652.292 1066.65 661.416 1096.43 673.403C1140.15 690.943 1167.26 713.981 1179.45 743.847C1182.98 752.657 1184.76 762.07 1184.69 771.561L1184.77 771.391Z" stroke="#E4E4E4" stroke-miterlimit="10"/>
<path d="M732.212 441.072C694.36 461.927 661.635 492.276 646.619 519.96C625.539 558.867 618.626 603.582 607.831 646.511C594.769 698.594 508.666 776.86 551.165 822.566C572.018 844.952 606.896 850.903 636.164 841.495C651.237 836.706 665.998 828.205 681.695 829.991C706.061 832.824 720.851 858.327 742.922 868.982C777.602 885.7 818.146 861.614 844.921 834.014C871.695 806.414 896.6 772.467 933.999 763.371C995.057 748.523 1047.64 806.528 1107.34 826.108C1116.04 829.317 1125.31 830.669 1134.57 830.075C1167.92 826.562 1184.69 782.895 1172.05 751.838C1159.42 720.781 1127.99 701.711 1096.89 689.215C1063.65 675.896 1028.63 667.566 993.385 661.275C979.02 658.696 964.231 656.344 951.679 648.92C920.881 630.785 913.656 589.753 913.231 553.993C912.806 518.232 914.988 479.212 893.653 450.536C856.084 399.955 788.481 410.043 732.212 441.072Z" stroke="#E4E4E4" stroke-miterlimit="10"/>
<path d="M1142.27 771.39C1142.27 783.66 1135.59 798.055 1125.96 799.047C1120.67 799.141 1115.42 798.177 1110.51 796.213C1092.24 790.234 1073.94 779.608 1054.56 768.358C1015.94 745.973 972.192 720.583 921.675 732.881C882.717 742.459 856.254 771.192 832.908 796.497C828.091 801.711 823.529 806.641 818.939 811.373C799.815 831.209 770.15 850.506 749.524 840.56C742.971 836.762 736.901 832.186 731.447 826.93C718.499 815.595 702.434 801.597 679.173 798.933C660.7 796.837 644.834 802.957 632.084 807.86C628.429 809.276 624.972 810.693 621.827 811.628C601.371 818.146 578.535 813.499 566.266 800.294C564.878 798.891 563.798 797.214 563.095 795.369C562.393 793.525 562.083 791.554 562.186 789.582C562.186 771.787 579.64 743.819 595.053 719.138C609.956 695.25 624.066 672.666 629.619 650.45C632.027 640.901 634.237 631.238 636.39 621.915C643.984 588.847 651.152 557.62 665.857 530.502C678.323 507.464 707.506 480.941 740.202 462.947C766.24 448.581 792.561 440.647 814.321 440.59C836.591 440.59 853.251 448.354 865.32 464.478C878.949 482.811 879.09 510.751 879.204 540.334L879.204 551.386C879.912 610.297 897.535 650.337 931.591 670.399C947.968 680.033 965.336 683.122 980.692 685.871L982.704 686.211C1022.37 693.323 1053.54 701.683 1080.65 712.592C1112.64 725.429 1132.64 741.212 1140.15 759.574C1141.6 763.302 1142.32 767.276 1142.27 771.277L1142.27 771.39Z" stroke="#E4E4E4" stroke-miterlimit="10"/>
<path d="M870.732 695.023C864.215 722.17 829.564 727.78 810.978 746.029C795.055 761.614 781.937 790.914 758.335 794.4C730.002 798.565 702.548 763.909 669.398 763.994C652.824 763.994 632.82 760.169 626.899 744.641C618.399 721.971 653.73 683.944 659.482 660.963C661.975 651.045 664.242 641.127 666.423 631.748C673.677 600.124 679.91 572.95 691.923 550.932C707.449 522.312 773.493 467.85 807.748 488.422C821.093 496.413 828.063 512.309 829.224 527.809C831.859 562.748 825.796 584.908 838.489 619.818C846.791 642.686 874.84 664.902 871.469 691.056C871.297 692.391 871.051 693.716 870.732 695.023Z" stroke="#E4E4E4" stroke-miterlimit="10"/>
<path d="M826.532 686.324C825.54 700.124 810.637 703.326 799.871 708.993C785.15 716.484 772.742 727.837 763.973 741.836C758.306 751.527 750.317 761.898 739.068 762.635C733.87 762.601 728.736 761.481 723.995 759.348C703.218 751.791 682.516 744.15 661.89 736.423C638.317 727.752 647.723 710.92 657.753 695.279C672.939 671.646 678.663 645.18 684.783 618.147C694.047 577.37 711.67 539.853 749.778 518.515C759.128 513.245 771.736 512.253 780.123 518.969C792.504 528.886 789.388 547.957 787.886 563.74C784.967 595.324 793.219 626.932 811.204 653.057C817.494 662.182 825.37 671.164 826.419 682.187C826.584 683.56 826.622 684.945 826.532 686.324Z" stroke="#E4E4E4" stroke-miterlimit="10"/>
<path d="M765.957 673.346C762.585 686.664 751.791 697.177 741.449 706.67C732.524 714.859 723.259 723.303 711.784 727.242C667.727 742.346 678.323 697.461 684.613 673.403C691.101 648.438 696.286 622.397 707.279 598.934C710.283 592.559 717.876 573.431 727.113 575.783C735.612 577.852 751.677 622.85 756.012 631.323C762.104 643.309 768.394 656.287 766.58 669.606C766.444 670.863 766.236 672.112 765.957 673.346Z" stroke="#E4E4E4" stroke-miterlimit="10"/>
<path d="M797.236 1908.65L794.403 1910.35C761.877 1930.78 732.722 1940.58 693.679 1942.34C649.792 1944.3 602.136 1942.85 566.748 1968.89C537.055 1990.77 521.104 2028.94 488.577 2046.34C460.981 2061.1 427.747 2057.67 396.439 2057.67C333.483 2058.07 278.064 2103.18 269.111 2167.25C264.039 2203.49 276.845 2272.29 294.95 2306.1C323.283 2359.11 386.862 2364.19 439.165 2373.93C538.84 2392.67 583.578 2506.21 687.616 2506.21C714.155 2506.25 740.399 2500.65 764.608 2489.77C788.817 2478.9 810.437 2463 828.034 2443.13C842.881 2426.13 854.695 2406.07 859.2 2383.97C871.327 2323.1 826.363 2258.63 847.867 2200.4C859.2 2169.86 887.278 2147.98 917.736 2136.45C949.356 2124.49 984.942 2129.16 1010.95 2108.34C1027.61 2094.99 1042.8 2065.83 1055.92 2048.38C1069.91 2029.9 1136.35 1957.53 1117.71 1930.92C1100.26 1906.04 1037.1 1914.32 1009.34 1910.21C934.906 1899.18 862.629 1866.54 797.236 1908.65Z" stroke="#E4E4E4" stroke-miterlimit="10"/>
<path d="M1052.52 1965.95C1058.01 2001.71 1002.39 2059.06 973.977 2072.58C945.559 2086.09 914.818 2092.16 887.193 2106.3C866.361 2117.15 848.009 2132.21 833.299 2150.53C818.59 2168.84 807.844 2190.01 801.741 2212.7C782.815 2284.65 850.077 2353.5 796.075 2415.16C782.542 2430.47 765.905 2442.71 747.273 2451.08C728.64 2459.45 708.438 2463.75 688.013 2463.7L687.644 2463.7C647.27 2463.7 616.585 2437.81 581.084 2407.83C538.132 2371.58 494.074 2341.66 437.833 2331.32C412.588 2326.75 386.579 2323.41 363.742 2311.71C319.345 2289.04 310.647 2231.01 310.647 2185.47C310.591 2181.34 310.828 2177.21 311.355 2173.11C325.521 2071.1 439.363 2119.08 502.829 2088.64C541.787 2069.97 561.053 2024.21 598.169 2002.1C664.978 1962.43 747.285 1990.09 817.154 1946.22L820.299 1944.21C858.237 1919.81 914.449 1920.78 957.431 1925.25C981.004 1927.69 1007.92 1931.12 1029.54 1941.6C1044.53 1949.03 1051.07 1957.19 1052.52 1965.95Z" stroke="#E4E4E4" stroke-miterlimit="10"/>
<path d="M994.405 1984.82C999.93 2000.18 986.642 2019.47 955.702 2034.21C943.809 2039.51 931.625 2044.14 919.21 2048.06C901.587 2053.56 884.406 2060.38 867.814 2068.47C841.653 2082.07 818.605 2100.97 800.129 2123.95C781.654 2146.94 768.155 2173.51 760.488 2201.99C757.218 2214.64 755.59 2227.66 755.644 2240.72C755.644 2266.6 761.565 2290.71 766.807 2311.99C771 2328.99 774.938 2344.97 774.938 2358.18C775.136 2363.51 774.276 2368.82 772.409 2373.82C770.542 2378.81 767.704 2383.39 764.058 2387.28C754.571 2398 742.911 2406.58 729.853 2412.44C716.795 2418.3 702.638 2421.32 688.325 2421.29L687.616 2421.29C663.93 2421.29 643.162 2404.71 608.482 2375.44C575.248 2347.38 539.463 2321.6 498.891 2305.3C457.581 2288.7 404.315 2297.14 372.781 2261.78C354.506 2241.26 339.405 2191.56 356.461 2165.63C371.449 2142.96 402.7 2145.32 427.662 2144.21C457.61 2142.91 491.581 2141.38 521.16 2127.21C549.777 2113.49 568.958 2091.31 585.873 2071.73C597.433 2058.35 608.341 2045.71 619.872 2038.86C644.125 2024.4 673.421 2021.66 707.364 2018.51C748.56 2014.68 795.196 2010.35 839.707 1982.44L843.221 1980.2C872.659 1961.21 918.19 1955.57 952.246 1960.87C976.527 1964.59 990.41 1973.65 994.405 1984.82Z" stroke="#E4E4E4" stroke-miterlimit="10"/>
<path d="M981.457 1991.85C981.457 1999.01 971.626 2010.94 949.639 2021.4C938.241 2026.46 926.568 2030.88 914.676 2034.63C896.354 2040.35 878.491 2047.44 861.241 2055.86C833.329 2070.37 808.735 2090.52 789.016 2115.04C769.298 2139.56 754.885 2167.9 746.691 2198.28C743.105 2212.1 741.315 2226.33 741.364 2240.61C741.364 2268.18 747.512 2293.18 752.952 2315.22C756.919 2331.37 760.659 2346.59 760.659 2358.07C760.859 2361.7 760.306 2365.34 759.033 2368.76C757.76 2372.17 755.796 2375.28 753.264 2377.9C745.141 2387.08 735.157 2394.43 723.974 2399.45C712.792 2404.48 700.668 2407.06 688.41 2407.03L687.701 2407.03C668.832 2407.03 649.735 2391.67 617.577 2364.53C575.588 2329.11 540.625 2306.75 504.246 2292.1C487.813 2285.47 470.246 2282.58 453.247 2279.77C425.99 2275.27 400.292 2271.04 383.519 2252.26C373.603 2241.12 363.346 2216.55 363.346 2194.71C362.976 2187.23 364.756 2179.81 368.474 2173.31C376.833 2160.59 393.662 2159.14 418.397 2158.61C421.825 2158.61 425.169 2158.44 428.455 2158.29C459.763 2156.91 495.264 2155.32 527.45 2139.9C558.758 2124.91 578.931 2101.54 596.753 2080.91C607.548 2068.44 617.747 2056.62 627.296 2050.93C648.8 2038.12 676.652 2035.54 708.866 2032.54C751.62 2028.57 800.098 2024.04 847.442 1994.34C848.547 1993.66 849.794 1992.87 851.097 1992.02C875.124 1976.52 915.895 1969.35 950.263 1974.79C970.351 1977.93 979.502 1984.73 981.259 1989.61C981.454 1990.34 981.521 1991.09 981.457 1991.85Z" stroke="#E4E4E4" stroke-miterlimit="10"/>
<path d="M719.406 2191.08C715.198 2207.25 713.093 2223.9 713.144 2240.61C712.962 2258.01 714.681 2275.38 718.272 2292.41C721.531 2306.92 729.294 2320.75 730.88 2335.74C732.325 2349.62 728.047 2364.98 716.544 2373.03C706.797 2379.91 693.509 2380.23 682.233 2376.31C664.496 2370.19 649.962 2354.75 635.88 2342.88C591.482 2305.39 554.111 2281.64 514.729 2265.8C495.377 2258.01 475.346 2254.72 457.666 2251.8C434.575 2248.01 414.628 2244.72 404.542 2233.44C395.56 2223.38 385.105 2203.04 396.892 2191.53C409.188 2179.52 432.025 2185.16 447.211 2185.21C468.161 2185.28 489.003 2182.2 509.034 2176.06C537.142 2167.51 563.184 2153.25 585.533 2134.18C605.167 2117.32 619.532 2088.47 641.632 2075.27C657.64 2065.75 682.516 2063.42 711.302 2060.76C754.963 2056.71 737.369 2122.65 719.406 2191.08Z" stroke="#E4E4E4" stroke-miterlimit="10"/>
<path d="M706.684 2095.67C707.084 2096.27 707.434 2096.91 707.733 2097.57C710.113 2102.9 708.838 2109.1 707.506 2114.8C702.293 2137.47 698.1 2160.33 692.291 2182.8L692.008 2183.97C680.118 2227.93 682.368 2274.53 698.44 2317.15C700.822 2322.22 702.317 2327.67 702.859 2333.24C702.859 2338.91 700.451 2344.89 695.295 2347.07C688.381 2349.91 680.873 2344.95 675.093 2340.19C649.339 2319.02 624.321 2295.95 597.404 2276.32C578.336 2262.4 548.332 2245.46 525.297 2239.7C506.937 2232.31 488.011 2235.26 468.886 2233.3C457.726 2232.22 446.936 2228.72 437.267 2223.04C434.915 2221.63 425.225 2216.33 425.168 2213.21C425.168 2203.89 455.91 2205.5 461.69 2205.81C480.276 2206.78 499.146 2208.9 517.307 2203.35C549.158 2193.63 578.67 2177.47 604.006 2155.86C613.865 2146.87 622.831 2136.96 630.781 2126.25C645.372 2107.85 663.817 2091.36 688.353 2088.5C695.238 2087.51 702.973 2090 706.684 2095.67Z" stroke="#E4E4E4" stroke-miterlimit="10"/>
<path d="M898.895 1991.36C890.395 1994.99 883.227 2000.94 875.152 2005.36C859.002 2014.26 840.217 2016.7 822.793 2022.76C811.46 2026.61 807.918 2033.87 800.806 2042.11C799.506 2043.38 798.483 2044.91 797.803 2046.59C797.484 2047.44 797.461 2048.37 797.739 2049.24C798.017 2050.1 798.578 2050.85 799.333 2051.35C800.144 2051.64 801.009 2051.73 801.863 2051.64C802.718 2051.54 803.538 2051.25 804.263 2050.78C810.735 2047.9 817.355 2045.35 824.096 2043.16C860.929 2031.83 902.097 2031.2 935.133 2011.03C940.544 2007.74 946.296 2001.45 943.151 1995.95C941.78 1993.92 939.794 1992.38 937.484 1991.56C931.402 1988.91 924.844 1987.53 918.21 1987.49C911.576 1987.46 905.004 1988.78 898.895 1991.36Z" stroke="#E4E4E4" stroke-miterlimit="10"/>
<path d="M410.379 1323.41C389.469 1326.67 372.498 1341.72 358.19 1357.42C340.935 1376.21 325.21 1397.51 319.232 1422.31C315.889 1436.14 316.115 1461.27 336.232 1461.22C340.958 1460.91 345.583 1459.71 349.86 1457.67C370.855 1449.17 394.938 1429.93 417.661 1443.28C427.265 1448.95 434.66 1457.45 443.585 1464.33C461.091 1477.67 483.161 1483.55 504.983 1480.68C534.222 1476.69 589.273 1448.8 557.2 1415.51C536.319 1393.92 497.389 1405.51 479.143 1376.63C475.148 1370.31 473.221 1362.92 470.076 1356.14C459.707 1334.13 434.405 1319.7 410.379 1323.41Z" stroke="#E4E4E4" stroke-miterlimit="10"/>
<path d="M555.556 1433.05C555.556 1443.25 530.992 1460.28 505.86 1463.71C487.798 1466.01 469.552 1461.15 455.031 1450.16C452.198 1447.9 449.195 1445.29 446.135 1442.51C440.518 1437.09 434.356 1432.27 427.747 1428.12C398.139 1410.72 374.849 1432.65 348.414 1442.48C346.412 1443.35 344.22 1443.67 342.054 1443.43C339.888 1443.18 337.823 1442.38 336.061 1441.1C331.103 1436.87 334.56 1428.03 335.835 1422.68C341.643 1398.56 358.954 1377.68 371.477 1364.05C382.811 1351.75 397.969 1337.3 415.365 1334.58C432.761 1331.86 452.198 1342.8 460.046 1359.35C461.009 1361.44 461.916 1363.77 462.879 1366.23C464.756 1371.5 467.138 1376.58 469.991 1381.39C483.137 1402.16 504.189 1406.89 520.99 1410.78C532.947 1413.61 543.26 1415.82 549.748 1422.54C552.411 1425.26 555.556 1429.28 555.556 1433.05Z" stroke="#E4E4E4" stroke-miterlimit="10"/>
<path d="M520.707 1437.33C520.783 1438.35 520.555 1439.37 520.05 1440.26C519.546 1441.16 518.789 1441.88 517.873 1442.34C511.413 1445.66 498.805 1444.33 491.75 1443.87C482.498 1443.58 473.55 1440.5 466.081 1435.03C463.842 1433.3 461.406 1431.09 458.573 1428.57C451.763 1422.07 444.278 1416.31 436.246 1411.4C407.432 1394.4 373.149 1426.93 362.581 1412.42C360.944 1410.44 360.099 1407.93 360.209 1405.36C360.319 1402.8 361.376 1400.36 363.176 1398.53C365.48 1396.23 368.081 1394.25 370.91 1392.64C379.227 1387.25 386.949 1380.99 393.945 1373.97C399.98 1367.9 407.233 1361.19 416.073 1359.8C423.411 1358.67 433.271 1364.36 436.728 1371.76C437.38 1373.12 438.116 1375.07 438.91 1377.14C441.307 1383.81 444.363 1390.23 448.033 1396.3C455.133 1407.53 464.957 1416.78 476.592 1423.19C487.472 1429.19 499.485 1435.4 512.263 1434.15C515.238 1433.87 518.978 1433.59 520.395 1436.22C520.568 1436.57 520.674 1436.94 520.707 1437.33V1437.33Z" stroke="#E4E4E4" stroke-miterlimit="10"/>
<path d="M554.763 16.2503C509.431 29.5684 464.523 45.7203 422.959 68.3328C393.747 84.3146 365.415 104.207 347.281 132.317C330.82 158.018 324.218 188.621 317.9 218.516C298.69 309.448 437.408 278.845 483.704 299.786C502.636 308.453 519.603 320.888 533.569 336.332C547.535 351.776 558.208 369.905 564.935 389.612C569.752 404.064 572.67 419.734 582.331 431.494C591.993 443.253 611.769 448.496 622.224 437.529C626.332 433.166 628.174 427.158 630.724 421.774C645.429 391.851 683.423 382.641 716.714 380.941C750.006 379.241 786.13 380.941 813.188 361.417C830.188 349.148 841.521 329.765 859.852 319.479C891.557 301.599 932.073 316.901 967.319 307.72C998.287 299.672 1023.53 267.68 1017.13 236.312C1008.63 195.309 958.196 179.639 916.376 179.327C874.557 179.015 828.034 184.541 795.31 158.471C757.202 128.123 756.182 68.7011 722.608 33.3938C702.151 11.8864 671.608 2.22366 642.029 1.34523C612.449 0.4668 583.238 7.891 554.763 16.2503Z" stroke="#E4E4E4" stroke-miterlimit="10"/>
<path d="M1004.04 246.258C1004.04 266.83 985.991 288.253 963.834 294.033C950.829 297.405 936.436 296.867 921.165 296.442C898.3 295.677 874.67 294.912 852.967 307.125C840.926 313.897 832.029 323.39 823.416 332.628C817.841 338.978 811.685 344.794 805.028 349.998C785.195 364.166 758.364 365.271 730.059 366.32C725.356 366.49 720.709 366.66 716.091 366.887C666.424 369.409 632.537 386.24 618.116 415.597C617.294 417.212 616.586 418.884 615.849 420.556C614.881 423.187 613.546 425.667 611.883 427.923C611.227 428.558 610.432 429.032 609.562 429.307C608.692 429.583 607.769 429.652 606.868 429.51C604.262 429.309 601.721 428.595 599.392 427.408C597.063 426.221 594.991 424.586 593.296 422.596C587.63 415.654 584.655 405.849 581.566 395.478C580.518 392.021 579.498 388.592 578.365 385.192C570.978 363.653 559.293 343.839 544.02 326.951C528.746 310.064 510.203 296.454 489.513 286.949C473.136 279.553 449.167 277.853 423.809 276.068C367.143 272.073 330.31 267.029 330.31 234.612C330.364 230.208 330.867 225.822 331.812 221.52C337.79 193.184 343.967 163.94 359.266 140.053C373.206 118.262 395.617 99.4748 429.787 80.8577C465.373 61.5039 506.286 45.3237 558.815 29.8519C583.805 22.5128 612.903 14.7486 641.802 15.5137C670.702 16.2787 696.485 26.3382 712.634 43.1418C726.319 57.5651 734.139 77.1456 742.412 98.058C752.726 124.071 763.407 150.962 786.782 169.579C818.316 194.686 860.051 194.119 896.855 193.637C903.683 193.637 910.115 193.467 916.547 193.637C955.249 193.977 997.154 208.23 1003.53 239.287C1003.99 241.63 1004.23 244.012 1004.24 246.4L1004.04 246.258Z" stroke="#E4E4E4" stroke-miterlimit="10"/>
<path d="M956.751 263.997C954.323 267.448 950.781 269.96 946.721 271.109C939.071 273.348 930.373 271.109 922.581 270.939C896.543 270.089 864.187 269.04 832.143 287.091C802.195 303.923 791.655 332.628 754.312 338.097C731.363 341.525 707.251 339.967 685.831 348.893C666.508 356.912 650.047 373.206 629.166 374.651C602.334 376.493 580.773 353.2 566.465 330.418C551.052 305.821 537.679 283.095 511.414 268.871C481.126 252.435 446.248 248.667 412.447 252.35C402.644 253.399 392.302 255.184 383.293 251.104C356.49 239.174 374.793 203.753 385.588 187.375C398.337 167.907 425.679 152.776 444.945 140.534C490.673 111.434 541.258 90.7882 594.288 79.5824C618.427 74.5102 644.862 71.7616 666.65 83.3512C693.793 97.8029 705.523 129.766 716.573 158.5C730.456 194.572 748.957 215.456 782.192 234.073C816.673 253.399 858.889 253.597 897.252 253.087C915.073 252.889 941.309 254.759 956.751 263.997Z" stroke="#E4E4E4" stroke-miterlimit="10"/>
<path d="M814.973 271.194C816.984 279.865 802.336 287.686 795.14 293.637C787.228 300.634 777.578 305.371 767.204 307.352C760.8 308.315 754 308.825 746.776 309.392C729.776 310.724 710.736 312.226 692.036 319.99C683.731 323.66 675.71 327.941 668.038 332.798C659.17 338.153 650.784 343.226 644.324 343.651C633.925 344.359 620.184 332.769 607.491 312.481L605.338 309.08C589.698 284.059 573.52 258.216 541.928 241.072C509.204 223.334 469.85 224.864 433.782 223.107C428.937 222.852 423.469 222.285 420.579 218.403C419.55 216.795 418.955 214.947 418.851 213.041C418.747 211.134 419.137 209.233 419.984 207.522C421.746 204.125 424.13 201.088 427.01 198.568C477.018 150.141 549.72 118.517 617.124 104.377C634.124 100.778 655.77 97.633 670.305 105.397C687.475 114.55 697.051 139.401 706.288 163.515L707.138 165.726C715.921 188.395 728.246 209.874 745.84 227.046C756.664 237.204 768.863 245.789 782.078 252.549C791.116 257.423 803.47 258.5 811.375 265.612C813.135 267.044 814.395 268.999 814.973 271.194V271.194Z" stroke="#E4E4E4" stroke-miterlimit="10"/>
<path d="M784.741 269.437C785.563 272.271 782.588 275.105 772.303 276.55C766.637 277.371 760.262 277.881 753.462 278.42C725.355 280.602 696.116 284.597 672.486 301.089C666.82 305.113 660.445 309.052 653.447 309.137C641.83 309.137 638.175 296.98 633.075 288.819C616.67 262.608 598.084 232.911 561.251 212.934C540.014 201.666 516.169 196.23 492.147 197.179C486.821 197.377 480.389 197.349 477.584 192.815C475.176 188.99 477.017 183.662 480.417 180.687C492.657 170.118 512.264 162.297 526.742 154.816C551.48 142.055 577.262 131.428 603.807 123.051C620.807 117.723 639.053 113.275 656.252 117.893C683.451 125.176 688.523 146.627 695.549 169.834C702.576 193.042 721.049 218.006 738.502 235.008C745.842 241.979 753.906 248.144 762.557 253.399C768.478 257.083 783.155 263.77 784.741 269.437Z" stroke="#E4E4E4" stroke-miterlimit="10"/>
<path d="M714.05 262.24C713.894 263.245 713.538 264.209 713.002 265.073C708.327 272.724 691.356 272.101 683.848 274.594C673.109 278.193 664.014 285.929 653.135 289.074C642.255 292.22 640.951 281.083 635.795 273.518C631.885 267.85 627.862 262.041 623.697 256.516C601.625 227.102 573.264 199.843 536.346 191.512C533.702 191.255 531.224 190.105 529.32 188.253C525.523 183.436 533.541 180.12 536.573 178.42C544.336 174.028 552.978 171.563 561.166 168.106C574.558 162.438 588.214 157.413 602.135 153.03C617.888 148.072 635.455 141.299 649.848 153.597C660.87 163.033 664.014 178.448 668.803 192.107C674.981 209.385 684.809 225.129 697.617 238.267C702.321 243.141 715.184 253.824 714.05 262.24Z" stroke="#E4E4E4" stroke-miterlimit="10"/>
<path d="M668.378 266.604L669.143 267.737C669.594 268.231 669.917 268.827 670.085 269.474C670.252 270.121 670.26 270.799 670.107 271.449C669.483 272.81 667.698 273.064 666.197 273.093C661.896 273.421 657.582 272.671 653.645 270.911C647.185 267.482 649.055 261.277 645.145 256.233C636.362 244.53 623.782 236.397 612.137 227.698C604.912 222.37 586.298 210.696 591.936 199.078C592.532 197.89 593.418 196.872 594.513 196.119C595.608 195.366 596.875 194.902 598.198 194.771C604.232 194.261 608.822 197.831 615.197 195.422C618.161 193.871 621.3 192.681 624.547 191.88C626.116 191.703 627.705 191.901 629.183 192.457C630.66 193.014 631.985 193.914 633.047 195.082C635.88 198.398 636.702 205.283 638.062 209.562C639.025 212.396 639.989 215.456 640.895 218.318C647.355 236.142 658.065 251.132 668.378 266.604Z" stroke="#E4E4E4" stroke-miterlimit="10"/>
<path d="M1093.09 148.299C1063.68 163.827 1037.78 194.742 1038.92 226.564C1039.71 249.8 1051.58 272.243 1048.61 295.28C1044.38 328.179 1012.65 349.119 992.988 375.982C960.916 419.564 961.482 478.589 967.489 532.372C968.679 542.856 971.172 555.041 980.692 559.603C988.342 563.287 997.493 560.397 1005.14 556.77C1033.01 543.122 1054.9 519.733 1066.68 491.029C1076.88 465.923 1078.81 437.926 1089.97 413.217C1112.64 363.316 1171.6 336 1226.14 341.355C1280.68 346.711 1329.73 379.95 1364.04 422.71C1384.29 447.901 1405.46 479.382 1437.7 480.374C1454.7 480.828 1471.22 471.647 1482.81 458.98C1494.4 446.314 1501.79 430.417 1508.02 414.435C1513.38 400.72 1518.99 385.475 1531.97 378.533C1544.23 371.987 1559.59 374.877 1572.48 369.635C1587.58 363.486 1596.11 347.674 1602.66 332.798C1609.2 317.921 1614.98 301.231 1609.99 285.787C1606.68 275.615 1599.11 267.482 1591.46 260.001C1559.02 228.321 1519.67 201.486 1474.96 193.892C1448.89 189.472 1422.23 191.71 1395.83 191.993C1335.3 192.589 1275.13 182.695 1217.98 162.75C1187.24 151.982 1155.14 133.904 1121.65 138.664C1111.65 140.227 1101.99 143.485 1093.09 148.299V148.299Z" stroke="#E4E4E4" stroke-miterlimit="10"/>
<path d="M1581.77 298.511C1583.15 304.387 1582.91 310.524 1581.09 316.278C1579.01 322.698 1575.49 328.557 1570.8 333.405C1566.1 338.253 1560.36 341.961 1554.01 344.246C1546.5 346.909 1538.43 347.448 1530.61 349.006C1504.28 354.277 1490.94 380.177 1482.16 402.846L1481.7 404.007C1476.97 416.164 1470.91 429.907 1461.87 439.712C1454.82 447.419 1445.81 452.095 1438.41 451.896C1422.77 451.5 1407.41 432.061 1392.57 413.104C1390.39 410.27 1388.18 407.436 1386.02 404.801C1343.52 352.067 1286.38 318.573 1228.92 312.934C1158.57 306.02 1090.82 342.376 1064.16 401.315C1057.94 416.192 1053.2 431.644 1049.99 447.447C1047.66 458.565 1044.51 469.495 1040.56 480.148C1036.05 490.15 1029.67 499.193 1021.75 506.784C1012.54 516.305 995.142 539.683 987.945 517.92C985.594 510.808 988.257 501.315 990.269 494.429C1000.55 459.349 992.195 424.75 1015.77 392.645C1021.53 385.242 1027.69 378.166 1034.24 371.449C1052.23 352.265 1072.6 330.531 1076.74 298.737C1077.23 294.979 1077.46 291.193 1077.45 287.403C1077.04 274.478 1075.07 261.651 1071.56 249.205C1069.36 241.407 1067.92 233.418 1067.25 225.346L1067.25 224.354C1067.25 206.927 1084.08 184.91 1106.35 173.15C1112.4 169.819 1118.97 167.538 1125.78 166.406C1146.16 163.572 1167.66 172.442 1185.79 180.574C1207.99 190.609 1231.14 198.375 1254.9 203.753C1302.02 214.606 1350.55 217.582 1398.72 219.197C1434.76 220.415 1471.47 221.095 1505.62 232.657C1529.33 241.101 1574.89 267.851 1581.77 298.511Z" stroke="#E4E4E4" stroke-miterlimit="10"/>
<path d="M1567.44 306.275C1567.42 309.329 1566.85 312.355 1565.74 315.201C1563.84 319.249 1561.12 322.853 1557.74 325.782C1554.36 328.71 1550.41 330.898 1546.13 332.203C1532.93 336.878 1520.49 335.037 1508.22 342.829C1497.8 349.686 1489.04 358.787 1482.58 369.465C1471.96 386.467 1468.87 408.201 1457.56 424.155C1452.49 431.324 1443.85 436.651 1435.18 435.263C1426.51 433.874 1420.73 427.13 1416.08 420.188C1374.43 357.847 1306.66 306.417 1230.42 298.908C1154.17 291.398 1080.51 331.154 1051.35 395.563C1044.72 411.237 1039.64 427.523 1036.2 444.189C1034.04 454.62 1031.11 464.877 1027.44 474.877C1025.23 480.318 1017.52 498.907 1009.9 498.765C996.218 498.482 1009.9 464.478 1010.64 457.705C1012.74 436.595 1014.55 418.346 1027.21 401.032C1032.64 394.101 1038.45 387.478 1044.61 381.197C1063.08 361.361 1086.09 336.935 1090.77 300.608C1091.31 296.275 1091.59 291.912 1091.59 287.545C1091.17 273.515 1089.07 259.586 1085.33 246.06C1083.38 239.174 1082.07 232.128 1081.39 225.006L1081.39 224.496C1081.39 213.87 1094.08 195.762 1112.95 185.816C1117.56 183.258 1122.57 181.486 1127.77 180.574C1144.09 178.251 1163.21 186.241 1179.87 193.722C1202.95 204.125 1227.01 212.193 1251.7 217.808C1300.2 228.973 1350.86 231.976 1398.21 233.62L1403.65 233.79C1436.54 234.895 1470.57 236 1501.03 246.343C1521 253.116 1546.05 267.397 1559.33 284.172C1564.45 290.414 1567.31 298.204 1567.44 306.275V306.275Z" stroke="#E4E4E4" stroke-miterlimit="10"/>
<path d="M1533.47 303.243C1531.71 309.93 1515.5 309.845 1507.77 313.189C1497.47 317.578 1487.91 323.533 1479.44 330.842C1462.22 345.508 1450.84 365.855 1447.34 388.196C1446.68 392.644 1445.95 397.802 1442.12 400.154C1437.7 402.987 1432.01 400.154 1427.59 397.32C1401.07 380.46 1378.03 358.754 1354.4 338.012C1330.77 317.269 1306.07 297.264 1277.31 284.456C1248.55 271.647 1215.23 266.632 1185.54 276.89C1173.84 280.942 1162.87 287.176 1151.2 291.058C1114.93 302.563 1117.91 272.243 1113.2 245.72C1111.48 235.972 1110.03 224.836 1116.18 217.071C1121.08 210.866 1129.69 208.57 1137.54 209.392C1145.35 210.608 1152.93 213.006 1160.01 216.505C1225.57 244.202 1295.71 259.443 1366.84 261.446C1397.38 262.268 1428.15 260.653 1458.39 265.328C1474.12 267.493 1489.5 271.733 1504.11 277.938C1512.78 281.792 1524.94 287.856 1530.75 295.535C1533.27 298.766 1533.98 301.287 1533.47 303.243Z" stroke="#E4E4E4" stroke-miterlimit="10"/>
<path d="M1484.25 300.948C1484.22 301.405 1484.12 301.855 1483.94 302.28C1482.58 305.623 1475.44 306.927 1472.61 308.457C1466.22 311.727 1460.25 315.751 1454.82 320.443C1447.09 327.625 1440.9 336.301 1436.63 345.946C1433.65 352.067 1430.02 370.287 1421.81 371.137C1413.59 371.987 1406.14 359.803 1400.73 355.496C1392.43 348.808 1384.35 341.866 1376.36 334.782L1366.9 326.281C1352.83 313.88 1337.77 302.649 1321.88 292.702C1314.31 287.998 1305.53 281.367 1296.97 278.817C1293.06 277.627 1279.15 279.072 1279.15 272.555C1279.15 268.106 1344.32 281.594 1349.76 282.302C1368.8 284.824 1389.25 283.039 1408.49 284.201C1427.73 285.363 1447.59 287.035 1467.06 289.33C1471.12 289.517 1475.1 290.56 1478.73 292.39C1481.16 293.977 1484.56 297.632 1484.25 300.948Z" stroke="#E4E4E4" stroke-miterlimit="10"/>
<path d="M1446.29 306.7C1447.62 309.533 1443.45 311.715 1441.02 312.367C1428.1 316.391 1424.9 327.754 1419.57 338.635C1418.76 340.42 1417.35 341.857 1415.57 342.687C1411.58 344.302 1407.92 340.675 1405.15 338.323C1401.21 334.979 1397.04 331.834 1393.02 328.604L1380.72 318.771C1378.43 316.957 1376.33 314.86 1374.04 313.104C1371.74 311.347 1369.36 310.27 1367.32 308.655C1366.77 308.239 1366.31 307.711 1365.98 307.105C1365.65 306.499 1365.45 305.83 1365.4 305.141C1365.49 303.939 1366.02 302.813 1366.88 301.966C1367.74 301.118 1368.87 300.606 1370.07 300.522C1372.49 300.614 1374.89 301.024 1377.21 301.741C1379.9 302.109 1382.88 302.024 1385.71 302.137C1391.66 302.392 1397.61 302.393 1403.59 302.619C1415.36 303.091 1427.12 303.431 1438.89 303.639C1441.15 303.435 1443.4 304.026 1445.27 305.311C1445.69 305.706 1446.04 306.177 1446.29 306.7V306.7Z" stroke="#E4E4E4" stroke-miterlimit="10"/>
<path d="M1884.37 937.669C1864.31 944.045 1849.66 968.188 1828.92 964.674C1820.65 963.286 1813.88 957.562 1806.26 953.85C1798.99 950.264 1790.94 948.548 1782.85 948.858C1774.75 949.168 1766.86 951.493 1759.88 955.624C1752.91 959.755 1747.08 965.56 1742.92 972.514C1738.76 979.468 1736.39 987.351 1736.05 995.448C1734.83 1023.78 1757.55 1047.33 1763.33 1075.02C1775.83 1134.98 1707.18 1190.57 1721.63 1250.11C1731.34 1290.03 1773.45 1311.29 1802.46 1340.39C1837.51 1375.55 1835.84 1457.62 1887.63 1475.67C1900.8 1480.26 1917.97 1478.84 1925.4 1467C1929.68 1460.17 1929.68 1451.55 1929.11 1443.5C1923.98 1371.53 1884.97 1300.66 1902.08 1230.58C1908.11 1205.9 1920.81 1183.43 1930.41 1159.88C1949.61 1111.92 1956.43 1059.89 1950.24 1008.6C1948.09 990.205 1944.04 971.305 1932.93 956.485C1921.83 941.665 1902.02 932.031 1884.37 937.669Z" stroke="#E4E4E4" stroke-miterlimit="10"/>
<path d="M1938.26 1045.46C1938.31 1082.83 1931.2 1119.86 1917.32 1154.56C1914.49 1161.84 1910.98 1169.26 1907.72 1176.43C1900.38 1192.53 1892.81 1209.16 1888.39 1227.21C1885.18 1240.58 1883.6 1254.29 1883.69 1268.05C1883.69 1300.97 1891.94 1333.81 1899.9 1365.55C1906.44 1391.56 1913.19 1418.46 1915.06 1444.5C1915.23 1446.74 1915.28 1448.49 1915.28 1450.16C1915.53 1453.41 1914.9 1456.65 1913.47 1459.57C1910.24 1464.73 1900.01 1465.04 1892.36 1462.41C1868.28 1453.9 1857.82 1425.57 1846.77 1395.25C1838.27 1371.62 1829.21 1347.22 1812.58 1330.5C1803.46 1321.67 1793.91 1313.31 1783.96 1305.45C1762 1287.51 1741.26 1270.57 1735.48 1246.88C1734.4 1242.39 1733.86 1237.78 1733.87 1233.16C1733.87 1212.28 1744.15 1190.8 1755.03 1167.99C1766.87 1143.25 1779.11 1117.69 1779.11 1090.12C1779.12 1084.09 1778.5 1078.08 1777.27 1072.18C1774.44 1058.78 1768.6 1046.91 1762.91 1035.35C1756.39 1022.25 1750.24 1009.84 1750.24 997.629L1750.24 996.071C1750.48 990.32 1752.16 984.721 1755.11 979.78C1758.06 974.839 1762.2 970.714 1767.15 967.779C1772.1 964.843 1777.7 963.19 1783.45 962.97C1789.21 962.749 1794.92 963.968 1800.08 966.516C1801.98 967.451 1804.02 968.669 1806.14 969.973C1812.35 974.086 1819.28 976.972 1826.57 978.474C1844.99 981.591 1859.15 970.851 1870.52 962.209C1876.89 957.392 1882.9 952.829 1888.68 950.874C1900.61 947.049 1914.18 954.955 1921.6 964.702C1931.35 977.709 1934.52 995.731 1936.19 1010.04C1937.56 1021.72 1938.25 1033.47 1938.26 1045.23L1938.26 1045.46Z" stroke="#E4E4E4" stroke-miterlimit="10"/>
<path d="M1910.55 1045.55C1907.72 1071.9 1907.72 1098.39 1896.38 1123.59C1883.32 1152.4 1871.17 1181.85 1864 1212.76C1854.82 1252.43 1854.25 1295.19 1870.06 1332.71C1872.9 1339.42 1876.27 1346.08 1877.32 1353.31C1881 1379.04 1860.68 1369.26 1853.4 1354.78C1846.12 1340.3 1844.56 1322.28 1832.69 1310.38C1822.93 1300.88 1812.69 1291.9 1802.01 1283.46C1791.27 1274.68 1774.24 1264.84 1768.01 1252.29C1759.85 1236.19 1765.51 1212.79 1771.72 1197.12C1779.82 1176.57 1792.49 1158.07 1800.05 1137.33C1806.87 1118.05 1809.13 1097.46 1806.67 1077.17C1804.22 1056.87 1797.1 1037.42 1785.89 1020.33C1782.93 1016.6 1780.72 1012.34 1779.4 1007.77C1778.49 1003.13 1780.22 997.516 1784.61 995.759C1787.72 994.901 1791.02 995.04 1794.04 996.156C1813.08 1001.11 1835.04 1011.91 1854 1004.17C1869.24 997.969 1886.98 978.672 1904.57 988.675C1917.29 995.731 1917.12 1010.04 1914.29 1022.42C1912.6 1030.05 1911.36 1037.77 1910.55 1045.55Z" stroke="#E4E4E4" stroke-miterlimit="10"/>
<path d="M1889.73 1019.08C1891.33 1019.87 1892.76 1020.99 1893.91 1022.36C1895.07 1023.73 1895.93 1025.32 1896.44 1027.04C1900.07 1037.92 1890.49 1053.96 1887.77 1064.33L1871.39 1126.67L1839.43 1248.52C1837.25 1256.77 1834.19 1266.12 1826.34 1269.46C1817.67 1273.2 1807.67 1267.39 1801.89 1259.94C1784.13 1237.13 1791.69 1203.89 1803.79 1177.76C1815.89 1151.64 1832.12 1124.83 1829.29 1096.07C1827.73 1080.4 1820.45 1064.59 1825.01 1049.51C1828.81 1036.85 1840.48 1027.81 1853.03 1023.61C1862.5 1020.19 1879.64 1014.15 1889.73 1019.08Z" stroke="#E4E4E4" stroke-miterlimit="10"/>
<path d="M812.734 2652.54C851.352 2604.37 891.273 2553.76 902.465 2493.15C916.404 2417.77 884.133 2335.2 916.291 2265.63C921.164 2255.09 927.624 2244.92 937.144 2238.26C966.242 2217.8 1011.06 2236.73 1039.6 2215.59C1059.6 2200.71 1062.94 2172.21 1061.55 2147.3C1060.17 2122.39 1056.03 2096.04 1066.85 2073.62C1081.84 2042.45 1119.3 2030.55 1145.5 2008.03C1176.02 1981.81 1190.36 1942.09 1208.26 1906.01C1226.17 1869.94 1252.86 1833.36 1292.3 1825.48C1311.39 1821.68 1331.17 1825.23 1350.55 1823.44C1393.05 1819.53 1429.43 1790.54 1457.25 1758.04C1485.07 1725.54 1507.49 1688.3 1538.28 1658.61C1569.08 1628.91 1611.95 1606.89 1653.8 1615.17C1685.98 1621.49 1712.11 1644.18 1736.33 1666.17C1788.18 1713.41 1840.91 1764.67 1862.58 1831.38C1877.43 1877.05 1876.44 1926.47 1888.93 1972.86C1901.43 2019.25 1934.26 2066.2 1982.09 2071.05" stroke="#E4E4E4" stroke-miterlimit="10"/>
<path d="M154.334 2228.88C194.344 2211.64 229.549 2184.9 256.899 2150.98C281.01 2121.06 298.435 2086.23 322.263 2056.08C346.091 2025.93 378.929 1999.64 417.377 1997.12C431.827 1996.18 446.418 1998.67 460.811 1996.86C516.372 1989.8 545.357 1924.86 596.469 1901.96C649.31 1878.27 712.634 1904.6 768.195 1887.79C809.646 1875.32 846.706 1839.22 889.205 1847.19C920.57 1853.08 942.103 1880.28 971.37 1891.25C991.203 1898.67 1046.25 1898.33 1021.86 1861.67C1016.99 1854.33 1009.34 1849.31 1001.57 1845.12C981.145 1834.1 960.859 1826.98 954.852 1801.73C950.829 1784.87 953.521 1767.28 955.362 1750.05C960.236 1703.86 944.426 1652.57 906.601 1623.41C874.132 1598.36 828.261 1590.83 803.526 1558.24C786.526 1535.57 783.183 1505.59 770.008 1480.51C728.246 1401.03 630.27 1402.67 554.678 1387C484.186 1372.38 468.688 1275.24 414.713 1237.24C390.885 1220.44 359.011 1217.69 330.933 1225.54C302.855 1233.39 278.262 1250.84 257.607 1271.39" stroke="#E4E4E4" stroke-miterlimit="10"/>
<path d="M142.661 88.5649C127.956 146.938 164.222 207.975 212.785 243.537C261.348 279.1 320.733 295.705 376.918 317.212C433.102 338.72 490.079 368.615 521.246 420.102C529.745 434.072 536.149 449.402 546.207 462.296C554.99 473.63 566.352 482.726 574.285 494.627C595.194 525.968 587.403 568.983 569.043 601.881C550.683 634.78 523.314 661.785 503.226 693.692C477.783 734.242 464.863 781.396 466.081 829.254C466.761 853.906 471.606 879.296 485.914 899.386C500.222 919.477 525.58 932.909 549.777 927.723C586.383 919.732 613.753 872.778 649.537 883.943C673.563 891.424 682.12 920.781 700.99 937.556C735.754 968.273 791.655 946.057 825.201 914.065C858.747 882.073 886.627 839.823 930.911 825.938C985.395 808.936 1041.86 841.297 1089.75 872.41C1108.08 884.283 1127.29 897.205 1136.38 917.068C1148.51 943.45 1139.21 974.988 1124.17 999.84C1109.13 1024.69 1088.67 1046.17 1076 1072.27C1066.46 1091.71 1064.67 1120.86 1084.5 1129.59C1097.62 1135.4 1113.55 1127.75 1121.82 1116.02C1130.09 1104.29 1132.59 1089.61 1134.85 1075.44C1147.09 999.613 1163.18 917.522 1221.24 867.139C1272.75 822.396 1240.9 765.326 1201.24 719.988C1164.2 677.483 1084.39 655.806 1084.79 588.563C1084.99 555.438 1107.94 522.397 1115.76 489.782C1122.16 463.117 1128.25 435.943 1141.99 412.168C1155.73 388.394 1178.82 368.388 1206.05 365.611C1250.11 361.134 1325.33 408.739 1357.29 437.104C1390.27 466.348 1411.72 507.946 1462.49 503.752C1478.93 502.448 1487.17 492.049 1501.37 484.823C1517.43 476.662 1535.37 473.12 1551.77 465.384C1623.28 431.38 1666.29 355.325 1756.45 376.237C1834.42 394.316 1873.69 471.817 1931.52 519.365" stroke="#E4E4E4" stroke-miterlimit="10"/>
<path d="M1915.93 1643.59C1861.62 1635.54 1802.32 1606.44 1790.84 1552.71C1781.98 1511.37 1804.64 1468.84 1799.34 1426.87C1793.68 1381.76 1757.98 1347.53 1728.51 1312.9C1699.04 1278.27 1673.04 1231.18 1690.66 1189.27C1700.94 1164.87 1724.97 1146.14 1727.49 1119.82C1728.96 1104.97 1723.21 1090.43 1717.01 1076.86C1707.54 1056.12 1696.75 1035.6 1692.53 1013.19C1688.31 990.772 1691.79 965.496 1707.8 949.259C1734.97 921.687 1780.53 932.427 1818.92 927.468C1836.71 925.044 1853.78 918.891 1869.02 909.413C1884.26 899.935 1897.33 887.345 1907.38 872.467" stroke="#E4E4E4" stroke-miterlimit="10"/>
</svg>
