<svg width="48" height="48" viewBox="0 0 48 48" fill="none" xmlns="http://www.w3.org/2000/svg">
<rect width="48" height="48" rx="5" fill="#303030"/>
<path d="M29.2 25.6C32.96 25.6 36 22.56 36 18.8C36 15.04 32.96 12 29.2 12C26.393 12 23.9875 13.6945 22.9484 16.1178C22.6189 16.0449 22.2894 16 21.96 16C19.08 16 16.76 18.52 16.76 21.6V29.6842C15.8202 29.9339 14.8952 30.2823 14 30.72C13.68 30.88 13.36 31.04 13.04 31.2C12.4 31.52 12 32.16 12 32.88V35.6C12 35.84 12.16 36 12.4 36H22H22.04H31.6C31.72 36 31.92 35.96 32 35.88C32.08 35.8 32.12 35.72 32.12 35.6V32.88C32.12 32.16 31.72 31.52 31.08 31.2C30.7599 31.04 30.44 30.88 30.12 30.72C29.1315 30.2473 28.1315 29.8796 27.12 29.627V25.2765C27.7755 25.4863 28.4742 25.6 29.2 25.6ZM18.08 30.6L20.6 34.28L17.32 32.24L18.08 30.6ZM26.68 32.24L23.4 34.24L25.92 30.6L26.68 32.24ZM22 34.896L18.7022 30.1143C19.0043 30.0753 19.304 30.0454 19.6 30.0241V30.4C19.6 30.64 19.76 30.8 20 30.8C20.24 30.8 20.4 30.64 20.4 30.4V29.6V29.56V28.4C21.3999 28.96 22.5999 28.96 23.6 28.4V29.56V29.6V30.4C23.6 30.64 23.76 30.8 24 30.8C24.24 30.8 24.3999 30.64 24.3999 30.4V30.0241C24.696 30.0454 24.9956 30.0753 25.2977 30.1143L22 34.896ZM22 28C21.662 28 21.3382 27.9323 21.035 27.8059C20.7847 27.698 20.544 27.5495 20.32 27.36C20.2901 27.33 20.2576 27.3051 20.2234 27.2858C19.3585 26.5088 18.8 25.1662 18.8 23.6V21.92C19.32 21.8 19.68 21.48 19.96 20.96C20.24 21.56 20.68 22 21.6 22H23.197C23.2576 22.1136 23.321 22.2254 23.3878 22.335C23.8506 23.106 24.4593 23.7544 25.16 24.28C24.92 26.44 23.64 28 22 28ZM29.2 12.8C32.52 12.8 35.2 15.48 35.2 18.8C35.2 22.12 32.52 24.8 29.2 24.8C27.9899 24.8 26.865 24.4437 25.9237 23.8304C25.8994 23.8042 25.8711 23.7808 25.84 23.76C25 23.16 24.28 22.36 23.84 21.44C23.813 21.3861 23.781 21.342 23.745 21.3062C23.3952 20.544 23.2 19.6954 23.2 18.8C23.2 15.48 25.88 12.8 29.2 12.8ZM17.6 21.6C17.6 18.96 19.56 16.8 22 16.8C22.2382 16.8 22.4372 16.8394 22.6748 16.8791C22.656 16.9431 22.638 17.0074 22.6211 17.0721C22.4806 17.5658 22.4145 18.1027 22.4024 18.6212C22.4023 18.6235 22.4023 18.6258 22.4022 18.6282C22.4009 18.6857 22.4 18.743 22.4 18.8C22.4 18.8753 22.4017 18.9503 22.4041 19.0251C22.4047 19.0435 22.4055 19.0619 22.4062 19.0803C22.409 19.1489 22.4126 19.2173 22.4174 19.2854C22.4178 19.2913 22.4181 19.2973 22.4185 19.3032C22.4243 19.3823 22.4316 19.4611 22.44 19.5395C22.4406 19.5449 22.4413 19.5502 22.4419 19.5555C22.505 20.1283 22.639 20.6793 22.835 21.2H21.64C20.84 21.2 20.68 20.76 20.44 19.56V19.52C20.4 19.32 20.24 19.2 20.04 19.2C19.8401 19.2 19.68 19.32 19.6401 19.52C19.4001 20.92 18.8001 21.16 18.36 21.2C18.16 21.24 18 21.4 18 21.6V23.6C18 25.3717 18.6164 26.8852 19.6 27.815V29.24C19.0972 29.24 18.5697 29.3141 18.0369 29.404C18.0123 29.4016 17.987 29.4 17.9601 29.4C17.9358 29.408 17.9116 29.4182 17.8877 29.4295C17.7919 29.4461 17.696 29.463 17.6001 29.4799V21.6H17.6ZM12.8 32.88C12.8 32.48 13.04 32.08 13.4 31.88C13.68 31.72 14 31.56 14.32 31.4C15.2265 30.9468 16.1523 30.6009 17.088 30.3613C17.152 30.3794 17.216 30.3814 17.28 30.36C17.2902 30.3578 17.3004 30.3559 17.3106 30.3537L16.44 32.24C16.36 32.44 16.44 32.64 16.6 32.76L20.565 35.2H17.6V34.4C17.6 34.16 17.44 34 17.2 34C16.96 34 16.8 34.16 16.8 34.4V35.2H12.8V32.88ZM30.6 31.88C30.96 32.08 31.2 32.48 31.2 32.88V35.2H27.2V34.4C27.2 34.16 27.04 34 26.8 34C26.56 34 26.4 34.16 26.4 34.4V35.2H23.4351L27.4001 32.76C27.5601 32.64 27.6401 32.44 27.5601 32.24L26.6895 30.3537C26.6997 30.3559 26.7098 30.3578 26.7201 30.36C26.7201 30.36 26.76 30.36 26.8001 30.36C26.8313 30.36 26.8625 30.3598 26.889 30.355C27.8325 30.5949 28.7662 30.943 29.6801 31.4C29.96 31.56 30.28 31.72 30.6 31.88ZM26.4 29.44C25.7481 29.325 25.0966 29.2471 24.48 29.2056V27.7381C25.2008 27.0233 25.7188 25.9886 25.9233 24.7615C26.0787 24.8469 26.2375 24.9268 26.4 25.0001V29.44Z" fill="#FECA36"/>
<path d="M25.72 20.28C25.8 20.36 25.88 20.4 26 20.4C26.12 20.4 26.2 20.36 26.28 20.28L26.4 20.16V22.4C26.4 22.64 26.5599 22.8 26.7999 22.8H31.5999C31.8399 22.8 31.9999 22.64 31.9999 22.4V20.16L32.1199 20.28C32.1999 20.36 32.2799 20.4 32.3999 20.4C32.5199 20.4 32.5999 20.36 32.6799 20.28L33.8799 19.08C33.9599 19 33.9999 18.92 33.9999 18.8C33.9999 18.68 33.9599 18.6 33.8799 18.52L29.4799 14.12C29.3999 14.04 29.3199 14 29.1999 14C29.0799 14 28.9999 14.04 28.9199 14.12L24.5199 18.52C24.3599 18.68 24.3599 18.92 24.5199 19.08L25.72 20.28ZM31.2 22H27.2V19.36L29.2 17.36L31.2 19.36V22H31.2ZM29.2 14.96L33.04 18.8L32.4 19.44L31.8801 18.92L31.88 18.92L29.48 16.52C29.44 16.44 29.36 16.4 29.28 16.4C29.28 16.4 29.2401 16.4 29.2001 16.4H29.2C29.08 16.4 29 16.44 28.92 16.52L26.52 18.92L26.52 18.92L26.0001 19.44L25.3601 18.8L29.2 14.96Z" fill="#FECA36"/>
</svg>
