<svg width="48" height="48" viewBox="0 0 48 48" fill="none" xmlns="http://www.w3.org/2000/svg">
<rect width="48" height="48" rx="5" fill="#303030"/>
<path d="M34.0003 12H18.8003H15.6003C14.9203 12 14.4003 12.52 14.4003 13.2V13.2387C13.4777 13.4196 12.8003 14.2173 12.8003 15.2C12.8003 16.1826 13.4777 16.9803 14.4003 17.1613V17.6386C13.4777 17.8196 12.8003 18.6173 12.8003 19.5999C12.8003 20.5826 13.4777 21.3803 14.4003 21.5612V22.0386C13.4777 22.2195 12.8003 23.0173 12.8003 23.9999C12.8003 24.9825 13.4777 25.7803 14.4003 25.9612V26.4386C13.4777 26.6195 12.8003 27.4172 12.8003 28.3999C12.8003 29.3825 13.4777 30.1802 14.4003 30.3612V30.8385C13.4777 31.0195 12.8003 31.8172 12.8003 32.7998C12.8003 33.7825 13.4777 34.5802 14.4003 34.7611V34.7998C14.4003 35.4798 14.9203 35.9998 15.6003 35.9998H18.8003H34.0003C34.6803 35.9998 35.2003 35.4798 35.2003 34.7998V13.2C35.2003 12.52 34.6803 12 34.0003 12ZM13.6003 15.2C13.6003 14.6614 13.9267 14.2235 14.4003 14.0645V16.3355C13.9267 16.1766 13.6003 15.7386 13.6003 15.2ZM13.6003 19.6C13.6003 19.0613 13.9267 18.6234 14.4003 18.4645V20.7355C13.9267 20.5766 13.6003 20.1386 13.6003 19.6ZM13.6003 24C13.6003 23.4614 13.9267 23.0235 14.4003 22.8645V25.1355C13.9267 24.9765 13.6003 24.5386 13.6003 24ZM13.6003 28.4C13.6003 27.8614 13.9267 27.4235 14.4003 27.2645V29.5355C13.9267 29.3766 13.6003 28.9386 13.6003 28.4ZM13.6003 32.8C13.6003 32.2613 13.9267 31.8234 14.4003 31.6645V33.9355C13.9267 33.7766 13.6003 33.3386 13.6003 32.8ZM15.2003 34.8V31.6645C15.6739 31.8234 16.0003 32.2614 16.0003 32.8C16.0003 33.04 16.1603 33.2 16.4003 33.2C16.6403 33.2 16.8003 33.04 16.8003 32.8C16.8003 31.8173 16.1228 31.0196 15.2003 30.8387V27.2645C15.6739 27.4234 16.0003 27.8614 16.0003 28.4C16.0003 28.64 16.1603 28.8 16.4003 28.8C16.6403 28.8 16.8003 28.64 16.8003 28.4C16.8003 27.4173 16.1228 26.6196 15.2003 26.4387V22.8645C15.6739 23.0235 16.0003 23.4614 16.0003 24C16.0003 24.24 16.1602 24.4 16.4002 24.4C16.6402 24.4 16.8003 24.24 16.8003 24C16.8003 23.0174 16.1228 22.2196 15.2003 22.0387V18.4645C15.6739 18.6234 16.0003 19.0614 16.0003 19.6C16.0003 19.84 16.1603 20 16.4003 20C16.6403 20 16.8003 19.84 16.8003 19.6C16.8003 18.6173 16.1228 17.8196 15.2003 17.6387V14.0645C15.6739 14.2234 16.0003 14.6614 16.0003 15.2C16.0003 15.44 16.1603 15.6 16.4003 15.6C16.6403 15.6 16.8003 15.44 16.8003 15.2C16.8003 14.2173 16.1228 13.4196 15.2003 13.2387V13.2C15.2003 12.96 15.3603 12.8 15.6003 12.8H18.4003V35.2H15.6003C15.3603 35.2 15.2003 35.04 15.2003 34.8ZM34.4003 34.8C34.4003 35.04 34.2403 35.2 34.0003 35.2H19.2003V12.8H34.0003C34.2403 12.8 34.4002 12.96 34.4002 13.2V34.8H34.4003Z" fill="#FECA36"/>
<path d="M23.3204 20.6799C23.4004 20.7599 23.4804 20.7999 23.6004 20.7999C23.7204 20.7999 23.8004 20.7599 23.8804 20.6799L24.0004 20.5599V22.7999C24.0004 23.0399 24.1604 23.1999 24.4004 23.1999H29.2004C29.4404 23.1999 29.6004 23.0399 29.6004 22.7999V20.5599L29.7204 20.6799C29.8004 20.7599 29.8804 20.7999 30.0004 20.7999C30.1204 20.7999 30.2004 20.7599 30.2803 20.6799L31.4803 19.4799C31.5604 19.3999 31.6003 19.3199 31.6003 19.1999C31.6003 19.0799 31.5604 18.9999 31.4803 18.9199L27.0805 14.5199C27.0005 14.4399 26.9205 14.3999 26.8005 14.3999C26.6805 14.3999 26.6005 14.4399 26.5205 14.5199L22.1205 18.9199C21.9605 19.0799 21.9605 19.3199 22.1205 19.4799L23.3204 20.6799ZM28.8005 22.3999H24.8005V19.7599L26.8005 17.7599L28.8005 19.7599V22.3999H28.8005ZM26.8004 15.3599L30.6404 19.1999L30.0005 19.8399L29.4805 19.3199L29.4805 19.3199L27.0805 16.9199C27.0405 16.8399 26.9605 16.7999 26.8805 16.7999C26.8805 16.7999 26.8405 16.7999 26.8004 16.7999C26.6804 16.7999 26.6004 16.8399 26.5205 16.9199L24.1204 19.3199L24.1204 19.3199L23.6005 19.8399L22.9604 19.1999L26.8004 15.3599Z" fill="#FECA36"/>
<path d="M21.2003 27.1999H25.2003C25.4403 27.1999 25.6003 27.0399 25.6003 26.7999C25.6003 26.5599 25.4403 26.3999 25.2003 26.3999H21.2003C20.9603 26.3999 20.8003 26.5599 20.8003 26.7999C20.8003 27.0399 20.9603 27.1999 21.2003 27.1999Z" fill="#FECA36"/>
<path d="M26.8004 26.3999C26.5604 26.3999 26.4004 26.5599 26.4004 26.7999C26.4004 27.0399 26.5604 27.1999 26.8004 27.1999H29.6004C29.8404 27.1999 30.0003 27.0399 30.0003 26.7999C30.0003 26.5599 29.8404 26.3999 29.6004 26.3999H26.8004Z" fill="#FECA36"/>
<path d="M32.4003 26.3999H31.2003C30.9603 26.3999 30.8003 26.5599 30.8003 26.7999C30.8003 27.0399 30.9603 27.1999 31.2003 27.1999H32.4003C32.6403 27.1999 32.8003 27.0399 32.8003 26.7999C32.8003 26.5599 32.6403 26.3999 32.4003 26.3999Z" fill="#FECA36"/>
<path d="M32.4002 28.8003H29.6002C29.3602 28.8003 29.2002 28.9603 29.2002 29.2003C29.2002 29.4403 29.3602 29.6003 29.6002 29.6003H32.4002C32.6402 29.6003 32.8001 29.4403 32.8001 29.2003C32.8001 28.9603 32.6402 28.8003 32.4002 28.8003Z" fill="#FECA36"/>
<path d="M28.4004 29.2003C28.4004 28.9603 28.2404 28.8003 28.0004 28.8003H24.8004C24.5604 28.8003 24.4004 28.9603 24.4004 29.2003C24.4004 29.4403 24.5604 29.6003 24.8004 29.6003H28.0004C28.2403 29.6003 28.4004 29.4403 28.4004 29.2003Z" fill="#FECA36"/>
<path d="M21.2003 29.6003H23.2003C23.4403 29.6003 23.6003 29.4403 23.6003 29.2003C23.6003 28.9603 23.4403 28.8003 23.2003 28.8003H21.2003C20.9603 28.8003 20.8003 28.9603 20.8003 29.2003C20.8003 29.4403 20.9603 29.6003 21.2003 29.6003Z" fill="#FECA36"/>
<path d="M24.0003 31.1997H21.2003C20.9603 31.1997 20.8003 31.3597 20.8003 31.5997C20.8003 31.8397 20.9603 31.9997 21.2003 31.9997H24.0003C24.2402 31.9997 24.4002 31.8397 24.4002 31.5997C24.4002 31.3597 24.2402 31.1997 24.0003 31.1997Z" fill="#FECA36"/>
<path d="M29.2002 31.1997H25.6002C25.3602 31.1997 25.2002 31.3597 25.2002 31.5997C25.2002 31.8397 25.3602 31.9997 25.6002 31.9997H29.2002C29.4402 31.9997 29.6002 31.8397 29.6002 31.5997C29.6002 31.3597 29.4402 31.1997 29.2002 31.1997Z" fill="#FECA36"/>
<path d="M32.4004 31.1997H30.8004C30.5604 31.1997 30.4004 31.3597 30.4004 31.5997C30.4004 31.8397 30.5604 31.9997 30.8004 31.9997H32.4004C32.6404 31.9997 32.8003 31.8397 32.8003 31.5997C32.8003 31.3597 32.6404 31.1997 32.4004 31.1997Z" fill="#FECA36"/>
</svg>
