<svg width="48" height="48" viewBox="0 0 48 48" fill="none" xmlns="http://www.w3.org/2000/svg">
<rect width="48" height="48" rx="5" fill="#303030"/>
<g clip-path="url(#clip0)">
<path d="M16.3771 18.7415H16.7773C16.828 18.7415 16.8749 18.734 16.9181 18.7208C16.9606 18.7341 17.0071 18.7415 17.0574 18.7415H17.1374C17.1374 18.7415 17.1774 18.7415 17.2175 18.7415C17.2175 18.7415 17.2575 18.7415 17.2975 18.7415H17.3776C17.4128 18.7415 17.4461 18.7376 17.4776 18.731C17.5091 18.7376 17.5424 18.7415 17.5776 18.7415C17.5776 18.9816 17.7377 19.1416 17.9778 19.1416C18.2179 19.1416 18.3779 18.9816 18.3779 18.7415V18.3413C18.3779 18.1012 18.2179 17.9412 17.9778 17.9412H17.5776C17.5424 17.9412 17.5091 17.945 17.4776 17.9517C17.4461 17.945 17.4128 17.9412 17.3776 17.9412H17.2975C17.2975 17.9412 17.2575 17.9412 17.2175 17.9412C17.2175 17.9412 17.1775 17.9412 17.1374 17.9412H17.0648C17.0448 17.8982 17.0159 17.8596 16.9774 17.8211C16.8173 17.6611 16.5772 17.621 16.4171 17.7811L16.137 18.0612C16.017 18.1813 15.977 18.3814 16.017 18.5014C16.057 18.6214 16.2171 18.7415 16.3771 18.7415Z" fill="#FECA36"/>
<path d="M17.5776 23.223C17.5776 23.4631 17.7377 23.6231 17.9778 23.6231C18.2179 23.6231 18.3779 23.4631 18.3779 23.223V22.4627C18.3779 22.2226 18.2179 22.0625 17.9778 22.0625C17.7377 22.0625 17.5776 22.2226 17.5776 22.4627V23.223Z" fill="#FECA36"/>
<path d="M17.9768 21.3824C18.2169 21.3824 18.377 21.2223 18.377 20.9822V20.2219C18.377 19.9818 18.2169 19.8218 17.9768 19.8218C17.7367 19.8218 17.5767 19.9818 17.5767 20.2219V20.9822C17.5766 21.2223 17.7367 21.3824 17.9768 21.3824Z" fill="#FECA36"/>
<path d="M17.5776 25.1436C17.5776 25.3837 17.7377 25.5437 17.9778 25.5437H18.378C18.6181 25.5437 18.7781 25.3837 18.7781 25.1436C18.7781 24.9035 18.6181 24.7434 18.378 24.7434C18.378 24.5033 18.2179 24.3433 17.9778 24.3433C17.7377 24.3433 17.5777 24.5033 17.5777 24.7434V25.1436H17.5776Z" fill="#FECA36"/>
<path d="M22.3392 25.544C22.5393 25.544 22.7394 25.3839 22.7394 25.1438C22.7394 24.9037 22.5793 24.7437 22.3392 24.7437H21.699C21.4589 24.7437 21.2988 24.9037 21.2988 25.1438C21.2988 25.3839 21.4589 25.544 21.699 25.544H22.3392Z" fill="#FECA36"/>
<path d="M19.2979 25.1438C19.2979 25.3839 19.4579 25.544 19.698 25.544H20.3383C20.5784 25.544 20.7384 25.3839 20.7384 25.1438C20.7384 24.9037 20.5784 24.7437 20.3383 24.7437H19.698C19.4579 24.7436 19.2979 24.9037 19.2979 25.1438Z" fill="#FECA36"/>
<path d="M27.2212 25.1438C27.2212 25.3839 27.3812 25.544 27.6213 25.544H28.2616C28.5017 25.544 28.6617 25.3839 28.6617 25.1438C28.6617 24.9037 28.5017 24.7437 28.2616 24.7437H27.6213C27.3812 24.7436 27.2212 24.9037 27.2212 25.1438Z" fill="#FECA36"/>
<path d="M25.6604 24.7437C25.4203 24.7437 25.2603 24.9037 25.2603 25.1438C25.2603 25.3839 25.4203 25.544 25.6604 25.544H26.3007C26.5008 25.544 26.7008 25.3839 26.7008 25.1438C26.7008 24.9037 26.5408 24.7437 26.3007 24.7437H25.6604Z" fill="#FECA36"/>
<path d="M29.5823 25.5437H29.9824C30.2225 25.5437 30.3826 25.3837 30.3826 25.1436V24.7434C30.3826 24.5033 30.2225 24.3433 29.9824 24.3433C29.7423 24.3433 29.5823 24.5033 29.5823 24.7434C29.3422 24.7434 29.1821 24.9035 29.1821 25.1436C29.1821 25.3837 29.3422 25.5437 29.5823 25.5437Z" fill="#FECA36"/>
<path d="M29.9827 22.062C29.7426 22.062 29.5825 22.2221 29.5825 22.4622V23.2225C29.5825 23.4626 29.7426 23.6226 29.9827 23.6226C30.2228 23.6226 30.3828 23.4626 30.3828 23.2225V22.4622C30.3828 22.2221 30.2228 22.062 29.9827 22.062Z" fill="#FECA36"/>
<path d="M30.3828 20.2219C30.3828 19.9818 30.2228 19.8218 29.9827 19.8218C29.7426 19.8218 29.5825 19.9818 29.5825 20.2219V20.9822C29.5825 21.2223 29.7426 21.3824 29.9827 21.3824C30.2228 21.3824 30.3828 21.2223 30.3828 20.9822V20.2219Z" fill="#FECA36"/>
<path d="M30.3828 17.9405H29.9827C29.7426 17.9405 29.5825 18.1005 29.5825 18.3406V18.7408C29.5825 18.9809 29.7426 19.1409 29.9827 19.1409C30.2228 19.1409 30.3828 18.9809 30.3828 18.7408C30.4334 18.7408 30.4802 18.7333 30.5229 18.7198C30.5656 18.7333 30.6124 18.7408 30.663 18.7408H30.743C30.743 18.7408 30.783 18.7408 30.8231 18.7408C30.8231 18.7408 30.8631 18.7408 30.9031 18.7408H30.9832C31.0184 18.7408 31.0517 18.7369 31.0832 18.7303C31.1147 18.7369 31.148 18.7408 31.1832 18.7408H31.5834C31.7434 18.7408 31.9035 18.6207 31.9835 18.4607C32.0235 18.3006 31.9835 18.1405 31.8635 18.0205L31.5834 17.7404C31.4233 17.6203 31.1832 17.6203 31.0231 17.7804C30.9777 17.8258 30.9457 17.8839 30.9261 17.9404H30.9031C30.9031 17.9404 30.8631 17.9404 30.823 17.9404C30.823 17.9404 30.783 17.9404 30.743 17.9404H30.6629C30.6124 17.9404 30.5656 17.9479 30.5229 17.9614C30.4802 17.948 30.4334 17.9405 30.3828 17.9405Z" fill="#FECA36"/>
<path d="M29.9427 17.3804C30.0227 17.4604 30.1428 17.5004 30.2228 17.5004C30.3028 17.5004 30.4229 17.4604 30.5029 17.3404C30.6229 17.1803 30.6229 16.9402 30.4629 16.7801L29.9427 16.2999C29.7826 16.1799 29.5025 16.1799 29.3824 16.3399C29.2624 16.5 29.2624 16.7401 29.4225 16.9002L29.9427 17.3804Z" fill="#FECA36"/>
<path d="M28.3021 15.9399C28.3821 16.02 28.5022 16.06 28.5822 16.06C28.7022 16.06 28.8223 16.02 28.8623 15.8999C28.9823 15.7399 28.9823 15.4998 28.8223 15.3397L28.3021 14.8595C28.142 14.7395 27.9019 14.7395 27.7418 14.8995C27.6218 15.0596 27.6218 15.2996 27.7818 15.4597L28.3021 15.9399Z" fill="#FECA36"/>
<path d="M22.6189 13.1788C22.699 13.1788 22.779 13.1388 22.899 13.1388C23.0591 13.0187 23.2192 12.9387 23.4192 12.8587C23.6193 12.7787 23.7394 12.5385 23.6593 12.3385C23.5793 12.0984 23.3392 11.9783 23.1391 12.0984C22.859 12.1784 22.6189 12.2985 22.3788 12.4585C22.2188 12.5786 22.1787 12.8587 22.2988 13.0188C22.3788 13.1388 22.4989 13.1788 22.6189 13.1788Z" fill="#FECA36"/>
<path d="M24.5807 12.8186C24.7408 12.8987 24.9409 12.9787 25.1009 13.0987C25.181 13.1387 25.261 13.1788 25.341 13.1788C25.4611 13.1788 25.5811 13.0987 25.6612 13.0587C25.7812 12.8586 25.7412 12.6185 25.5811 12.4985C25.341 12.2984 25.1009 12.1783 24.8208 12.0983C24.5807 12.0183 24.3806 12.1383 24.3006 12.3384C24.2606 12.5385 24.3806 12.7786 24.5807 12.8186Z" fill="#FECA36"/>
<path d="M20.9783 14.6194C21.0983 14.6194 21.1784 14.5794 21.2584 14.5393L21.7786 14.0591C21.9386 13.8991 21.9787 13.659 21.8186 13.4989C21.6585 13.3388 21.4184 13.2988 21.2583 13.4589L20.7381 13.9391C20.5781 14.0991 20.538 14.3392 20.6981 14.4993C20.7782 14.5794 20.8582 14.6194 20.9783 14.6194Z" fill="#FECA36"/>
<path d="M26.701 14.4995C26.781 14.5796 26.9011 14.6196 26.9811 14.6196C27.0611 14.6196 27.1812 14.5796 27.2612 14.4595C27.3812 14.2995 27.3812 14.0594 27.2212 13.8993L26.701 13.4191C26.5409 13.299 26.2608 13.299 26.1407 13.4591C26.0207 13.6191 26.0207 13.8592 26.1807 14.0193L26.701 14.4995Z" fill="#FECA36"/>
<path d="M19.3782 16.0603C19.4582 16.0603 19.5783 16.0203 19.6583 15.9402L20.1785 15.5C20.3385 15.34 20.3786 15.0999 20.2185 14.9398C20.0584 14.7797 19.8183 14.7397 19.6582 14.8998L19.138 15.38C18.978 15.54 18.9379 15.7801 19.098 15.9402C19.1781 16.0203 19.2581 16.0603 19.3782 16.0603Z" fill="#FECA36"/>
<path d="M17.7771 17.5002C17.8571 17.5002 17.9371 17.4602 18.0572 17.4202L18.5774 16.94C18.7374 16.7799 18.7775 16.5398 18.6174 16.3797C18.4573 16.2197 18.2172 16.1796 18.0571 16.3397L17.5369 16.8199C17.3769 16.98 17.3368 17.2201 17.4969 17.3802C17.577 17.4602 17.657 17.5002 17.7771 17.5002Z" fill="#FECA36"/>
<path d="M23.5794 24.7504C23.3845 24.7823 23.2593 24.9318 23.2593 25.1441C23.2593 25.3564 23.3845 25.5058 23.5794 25.5377V29.3859L22.2589 28.0653C22.0988 27.9053 21.8587 27.9053 21.6987 28.0653C21.5386 28.2254 21.5386 28.4655 21.6987 28.6256L23.631 30.5579C23.6964 30.6756 23.8202 30.7465 23.9796 30.7465C24.139 30.7465 24.2627 30.6756 24.3281 30.5579L26.2605 28.6256C26.4206 28.4655 26.4206 28.2254 26.2605 28.0653C26.1005 27.9053 25.8604 27.9053 25.7003 28.0653L24.3798 29.3858V25.5376C24.5747 25.5058 24.6999 25.3563 24.6999 25.144C24.6999 24.9317 24.5747 24.7823 24.3798 24.7504V21.9827C24.3798 21.7426 24.2197 21.5825 23.9796 21.5825C23.7395 21.5825 23.5795 21.7426 23.5795 21.9827V24.7504H23.5794Z" fill="#FECA36"/>
<path d="M35.8649 35.2684L31.8633 31.6669C31.7832 31.5869 31.6632 31.5469 31.5832 31.5469H16.3768C16.2968 31.5469 16.1767 31.5869 16.1367 31.6669L12.135 35.2684C12.015 35.3885 11.975 35.5886 12.015 35.7086C12.055 35.8287 12.2151 35.9487 12.3751 35.9487H35.5848C35.7448 35.9487 35.9449 35.8687 35.9849 35.7086C36.025 35.5485 35.985 35.3885 35.8649 35.2684ZM13.4156 35.1484L16.5369 32.3472H31.4231L34.5444 35.1484H13.4156Z" fill="#FECA36"/>
</g>
<defs>
<clipPath id="clip0">
<rect width="24" height="24" fill="white" transform="translate(12 12)"/>
</clipPath>
</defs>
</svg>
