<svg width="48" height="48" viewBox="0 0 48 48" fill="none" xmlns="http://www.w3.org/2000/svg">
<rect width="48" height="48" rx="5" fill="#303030"/>
<g clip-path="url(#clip0)">
<path d="M29.7131 15.24C29.5996 15.0504 29.3538 14.9888 29.1641 15.1023C28.9746 15.2159 28.9129 15.4617 29.0265 15.6513C29.5684 16.5558 29.8548 17.5946 29.8548 18.6552C29.8548 20.8661 28.631 22.8647 26.6612 23.8713C26.5273 23.9397 26.443 24.0773 26.443 24.2277V26.3342L25.1264 28.1892C25.0279 28.328 25.0279 28.5137 25.1264 28.6525L26.3645 30.397L25.62 31.622C25.5424 31.7498 25.5424 31.91 25.62 32.0378L26.338 33.2191L24.3572 35.1999H23.3251V28.717C23.3251 28.496 23.1459 28.3168 22.9249 28.3168C22.7039 28.3168 22.5247 28.496 22.5247 28.717V34.8723L21.5572 34.2587V27.4364C21.5572 27.2154 21.378 27.0362 21.157 27.0362C20.936 27.0362 20.7568 27.2154 20.7568 27.4364V34.4787C20.7568 34.6157 20.827 34.7433 20.9427 34.8167L22.7105 35.938C22.7746 35.9786 22.849 36.0002 22.9249 36.0002H24.523C24.6291 36.0002 24.7309 35.9581 24.806 35.883L27.1262 33.5627C27.2566 33.4323 27.281 33.2296 27.1852 33.0719L26.4303 31.8298L27.1852 30.5878C27.2681 30.4513 27.262 30.2785 27.1696 30.1483L25.9435 28.4208C26.3038 27.9131 27.1341 26.7433 27.1682 26.6952C27.2164 26.628 27.2434 26.5465 27.2434 26.4617V24.4675C29.3541 23.2903 30.6551 21.0856 30.6551 18.6552C30.6552 17.4498 30.3295 16.2688 29.7131 15.24Z" fill="#FECA36"/>
<path d="M28.8319 14.0786C27.5619 12.7382 25.8459 12 24.0002 12C20.3306 12 17.3452 14.9854 17.3452 18.655C17.3452 21.0854 18.6462 23.2902 20.7569 24.4673V25.9956C20.7569 26.2166 20.9361 26.3958 21.1571 26.3958C21.3782 26.3958 21.5573 26.2166 21.5573 25.9956V24.2275C21.5573 24.0772 21.4731 23.9395 21.3392 23.8711C19.3694 22.8646 18.1457 20.8659 18.1457 18.655C18.1457 15.4268 20.772 12.8004 24.0002 12.8004C25.624 12.8004 27.1336 13.4498 28.2509 14.6291C28.4029 14.7895 28.6562 14.7963 28.8167 14.6444C28.9771 14.4923 28.9839 14.239 28.8319 14.0786Z" fill="#FECA36"/>
<path d="M22.9251 24.5259C22.7041 24.5259 22.5249 24.7051 22.5249 24.9261V27.3826C22.5249 27.6036 22.7041 27.7828 22.9251 27.7828C23.1461 27.7828 23.3253 27.6036 23.3253 27.3826V24.9261C23.3252 24.705 23.1461 24.5259 22.9251 24.5259Z" fill="#FECA36"/>
<path d="M24.0003 14.6753C22.8627 14.6753 21.937 15.6009 21.937 16.7386C21.937 17.8763 22.8626 18.8019 24.0003 18.8019C25.138 18.8019 26.0636 17.8763 26.0636 16.7386C26.0636 15.6009 25.138 14.6753 24.0003 14.6753ZM24.0003 18.0015C23.3039 18.0015 22.7374 17.435 22.7374 16.7386C22.7374 16.0422 23.3039 15.4757 24.0003 15.4757C24.6967 15.4757 25.2632 16.0422 25.2632 16.7386C25.2632 17.435 24.6967 18.0015 24.0003 18.0015Z" fill="#FECA36"/>
<path d="M26.561 20.313H21.4388C21.2178 20.313 21.0386 20.4922 21.0386 20.7132C21.0386 20.9342 21.2178 21.1134 21.4388 21.1134H26.561C26.7821 21.1134 26.9612 20.9342 26.9612 20.7132C26.9612 20.4922 26.7821 20.313 26.561 20.313Z" fill="#FECA36"/>
</g>
<defs>
<clipPath id="clip0">
<rect width="24" height="24" fill="white" transform="translate(12 12)"/>
</clipPath>
</defs>
</svg>
