<svg width="48" height="48" viewBox="0 0 48 48" fill="none" xmlns="http://www.w3.org/2000/svg">
<rect width="48" height="48" rx="5" fill="#303030"/>
<g clip-path="url(#clip0)">
<path d="M35.5522 16.3676C35.7996 16.3676 36 16.1671 36 15.9198V14.2183C36 13.971 35.7996 13.7705 35.5522 13.7705H12.4478C12.2005 13.7706 12 13.971 12 14.2183V26.8451V33.7816C12 34.0289 12.2005 34.2294 12.4478 34.2294H35.5522C35.7996 34.2294 36 34.0289 36 33.7816V26.8451V17.6213C36 17.374 35.7996 17.1735 35.5522 17.1735C35.3049 17.1735 35.1045 17.374 35.1045 17.6213V26.3974H27.2687V25.5017H31.6117C31.8591 25.5017 32.0595 25.3012 32.0595 25.0539C32.0595 24.1157 32.8228 23.3524 33.7611 23.3524C34.0084 23.3524 34.2089 23.1519 34.2089 22.9046V18.1587C34.2089 17.9114 34.0084 17.7109 33.7611 17.7109C32.8228 17.7109 32.0595 16.9476 32.0595 16.0093C32.0595 15.762 31.8591 15.5615 31.6117 15.5615H27.2687V14.6661H35.1045V15.9198C35.1045 16.1671 35.3048 16.3676 35.5522 16.3676ZM12.8955 14.6661H20.7313V15.5616H16.3882C16.1409 15.5616 15.9405 15.762 15.9405 16.0094C15.9405 16.9476 15.1771 17.7109 14.2389 17.7109C13.9916 17.7109 13.7911 17.9114 13.7911 18.1587V22.9046C13.7911 23.1519 13.9916 23.3524 14.2389 23.3524C15.1771 23.3524 15.9405 24.1157 15.9405 25.054C15.9405 25.3013 16.1409 25.5018 16.3882 25.5018H20.7313V26.3974H12.8955V14.6661ZM20.7314 33.3338H12.8955V32.4955H20.7313V33.3338H20.7314ZM20.7314 29.8655H16.1195C15.8722 29.8655 15.6717 30.066 15.6717 30.3133C15.6717 30.5606 15.8722 30.7611 16.1195 30.7611H20.7313V31.5999H12.8955V30.7611H14.6269C14.8742 30.7611 15.0747 30.5606 15.0747 30.3133C15.0747 30.066 14.8742 29.8655 14.6269 29.8655H12.8955V29.0272H20.7313V29.8655H20.7314ZM20.7314 28.1317H12.8955V27.2929H20.7313V28.1317H20.7314ZM26.3731 33.3338H21.6269V27.2929H26.3731V33.3338ZM26.3731 26.3973H21.6269V23.1077C21.6269 22.8604 21.4264 22.6599 21.1791 22.6599C20.9318 22.6599 20.7313 22.8604 20.7313 23.1077V24.6061H16.7975C16.61 23.5323 15.7606 22.6829 14.6867 22.4954V18.5678C15.7606 18.3803 16.61 17.5309 16.7975 16.4571H20.7313V21.615C20.7313 21.8624 20.9318 22.0628 21.1791 22.0628C21.4264 22.0628 21.6269 21.8624 21.6269 21.615V14.6661H26.3731V26.3973ZM35.1045 31.5999H28.2985C28.0511 31.5999 27.8507 31.8004 27.8507 32.0477C27.8507 32.295 28.0511 32.4955 28.2985 32.4955H35.1044V33.3338H27.2687V30.7611H35.1045V31.5999ZM35.1045 29.8655H27.2687V29.0272H35.1045V29.8655ZM35.1045 27.2929V28.1317H27.2687V27.2929H35.1045ZM31.2025 16.4571C31.3899 17.531 32.2394 18.3803 33.3133 18.5678V22.4954C32.2394 22.6829 31.3899 23.5323 31.2025 24.6062H27.2686V16.4571H31.2025Z" fill="#FECA36"/>
</g>
<defs>
<clipPath id="clip0">
<rect width="24" height="24" fill="white" transform="translate(12 12)"/>
</clipPath>
</defs>
</svg>
