<svg width="48" height="48" viewBox="0 0 48 48" fill="none" xmlns="http://www.w3.org/2000/svg">
<rect width="48" height="48" rx="5" fill="#303030"/>
<path d="M32.8198 15.5928C32.5872 15.5928 32.3988 15.7813 32.3988 16.0139V30.9964H31.862C31.6294 30.9964 31.4409 31.185 31.4409 31.4175C31.4409 31.6501 31.6294 31.8386 31.862 31.8386H32.8198C33.0524 31.8386 33.2409 31.6501 33.2409 31.4175V16.0139C33.2409 15.7813 33.0525 15.5928 32.8198 15.5928Z" fill="#FECA36"/>
<path d="M32.8196 12H19.3409C19.1083 12 18.9198 12.1885 18.9198 12.4211V14.0807H17.2602C17.0276 14.0807 16.8391 14.2693 16.8391 14.5018V15.459C16.8391 15.6916 17.0276 15.8801 17.2602 15.8801C17.4928 15.8801 17.6813 15.6916 17.6813 15.459V14.9229H30.3178V33.0772H29.0795V16.5821C29.0795 16.3496 28.8911 16.161 28.6585 16.161H15.1799C14.9473 16.161 14.7588 16.3496 14.7588 16.5821V35.5789C14.7588 35.8114 14.9473 36 15.1799 36H17.8746C18.1072 36 18.2956 35.8114 18.2956 35.5789C18.2956 35.3463 18.1072 35.1578 17.8746 35.1578H15.6009V17.0032H28.2374V33.4929C28.2374 33.4947 28.2372 33.4965 28.2372 33.4983C28.2372 33.5002 28.2374 33.5019 28.2374 33.5037V35.1578H19.2781C19.0455 35.1578 18.8571 35.3463 18.8571 35.5789C18.8571 35.8114 19.0455 36 19.2781 36H28.6585C28.8911 36 29.0796 35.8114 29.0796 35.5789V33.9193H30.739C30.9716 33.9193 31.16 33.7308 31.16 33.4982V14.5018C31.16 14.2693 30.9716 14.0807 30.739 14.0807H19.762V12.8422H32.3985V14.6104C32.3985 14.8429 32.587 15.0314 32.8196 15.0314C33.0522 15.0314 33.2407 14.8429 33.2407 14.6104V12.4211C33.2407 12.1885 33.0522 12 32.8196 12Z" fill="#FECA36"/>
<path d="M25.0514 18.5166H22.3942C22.1616 18.5166 21.9731 18.7051 21.9731 18.9377C21.9731 19.1702 22.1616 19.3588 22.3942 19.3588H25.0514C25.284 19.3588 25.4725 19.1702 25.4725 18.9377C25.4725 18.7051 25.284 18.5166 25.0514 18.5166Z" fill="#FECA36"/>
<path d="M20.9909 18.5166H18.7878C18.5552 18.5166 18.3667 18.7051 18.3667 18.9377C18.3667 19.1702 18.5552 19.3588 18.7878 19.3588H20.9909C21.2235 19.3588 21.412 19.1702 21.412 18.9377C21.412 18.7051 21.2235 18.5166 20.9909 18.5166Z" fill="#FECA36"/>
<path d="M26.2117 21.4312H17.6271C17.3945 21.4312 17.2061 21.6197 17.2061 21.8522C17.2061 22.0848 17.3945 22.2733 17.6271 22.2733H26.2117C26.4443 22.2733 26.6327 22.0848 26.6327 21.8522C26.6327 21.6197 26.4443 21.4312 26.2117 21.4312Z" fill="#FECA36"/>
<path d="M26.2118 23.5791H24.9206C24.688 23.5791 24.4995 23.7676 24.4995 24.0002C24.4995 24.2327 24.688 24.4213 24.9206 24.4213H26.2118C26.4444 24.4213 26.6328 24.2327 26.6328 24.0002C26.6328 23.7676 26.4444 23.5791 26.2118 23.5791Z" fill="#FECA36"/>
<path d="M23.5169 23.5791H17.6271C17.3945 23.5791 17.2061 23.7676 17.2061 24.0002C17.2061 24.2327 17.3945 24.4213 17.6271 24.4213H23.5169C23.7495 24.4213 23.938 24.2327 23.938 24.0002C23.938 23.7676 23.7495 23.5791 23.5169 23.5791Z" fill="#FECA36"/>
<path d="M26.2117 25.7266H17.6271C17.3945 25.7266 17.2061 25.9151 17.2061 26.1476C17.2061 26.3802 17.3945 26.5687 17.6271 26.5687H26.2117C26.4443 26.5687 26.6327 26.3802 26.6327 26.1476C26.6327 25.9151 26.4443 25.7266 26.2117 25.7266Z" fill="#FECA36"/>
<path d="M26.2116 27.8745H20.7448C20.5122 27.8745 20.3237 28.063 20.3237 28.2956C20.3237 28.5281 20.5122 28.7167 20.7448 28.7167H26.2116C26.4442 28.7167 26.6327 28.5281 26.6327 28.2956C26.6327 28.063 26.4442 27.8745 26.2116 27.8745Z" fill="#FECA36"/>
<path d="M19.3412 27.8745H17.6271C17.3945 27.8745 17.2061 28.063 17.2061 28.2956C17.2061 28.5281 17.3945 28.7167 17.6271 28.7167H19.3412C19.5738 28.7167 19.7623 28.5281 19.7623 28.2956C19.7623 28.063 19.5738 27.8745 19.3412 27.8745Z" fill="#FECA36"/>
<path d="M26.2114 32.1694H23.3483C23.1157 32.1694 22.9272 32.358 22.9272 32.5905C22.9272 32.8231 23.1157 33.0116 23.3483 33.0116H26.2114C26.444 33.0116 26.6325 32.8231 26.6325 32.5905C26.6325 32.358 26.444 32.1694 26.2114 32.1694Z" fill="#FECA36"/>
</svg>
