<svg width="1045" height="891" viewBox="0 0 1045 891" fill="none" xmlns="http://www.w3.org/2000/svg">
<g clip-path="url(#clip0)">
<g opacity="0.2" clip-path="url(#clip1)">
<path opacity="0.5" d="M378.797 669.645L1109.79 469.593" stroke="#FAFAFA" stroke-width="0.15" stroke-miterlimit="10" stroke-linecap="round"/>
<path d="M962.984 283.819L1116.64 558.268" stroke="#FAFAFA" stroke-width="0.26" stroke-miterlimit="10" stroke-linecap="round"/>
<path d="M1116.64 871.584L652.469 1308.67" stroke="#FAFAFA" stroke-width="0.26" stroke-miterlimit="10" stroke-linecap="round"/>
<path d="M1116.64 854.134L652.469 1227.76" stroke="#FAFAFA" stroke-width="0.26" stroke-miterlimit="10" stroke-linecap="round"/>
<path d="M0.35498 630.204L350.966 499.051" stroke="#FAFAFA" stroke-width="0.26" stroke-miterlimit="10" stroke-linecap="round"/>
<path d="M962.985 680.422L311.909 499.051" stroke="#FAFAFA" stroke-width="0.26" stroke-miterlimit="10" stroke-linecap="round"/>
<path d="M0.35498 880.309L375.711 996.938" stroke="#FAFAFA" stroke-width="0.26" stroke-miterlimit="10" stroke-linecap="round"/>
<path d="M684.206 634.443L1116.64 723.829" stroke="#FAFAFA" stroke-width="0.26" stroke-miterlimit="10" stroke-linecap="round"/>
<path d="M730.637 637.588L0.35498 735.946" stroke="#FAFAFA" stroke-width="0.26" stroke-miterlimit="10" stroke-linecap="round"/>
<path d="M0.35498 873.444L751.094 1078.64" stroke="#FAFAFA" stroke-width="0.26" stroke-miterlimit="10" stroke-linecap="round"/>
<path d="M694.475 1078.64L1116.64 830.091" stroke="#FAFAFA" stroke-width="0.26" stroke-miterlimit="10" stroke-linecap="round"/>
<path d="M1034.27 307.615L0.35498 679.136" stroke="#FAFAFA" stroke-width="0.26" stroke-miterlimit="10" stroke-linecap="round"/>
<path d="M375.711 759.031L0.35498 766.635" stroke="#FAFAFA" stroke-width="0.26" stroke-miterlimit="10" stroke-linecap="round"/>
<path d="M311.909 759.031L1116.65 773.117" stroke="#FAFAFA" stroke-width="0.26" stroke-miterlimit="10" stroke-linecap="round"/>
<path d="M330.918 996.938L1116.64 797.816" stroke="#FAFAFA" stroke-width="0.26" stroke-miterlimit="10" stroke-linecap="round"/>
<g opacity="0.5">
<path opacity="0.5" d="M962.984 275.23L1116.64 549.707" stroke="#FAFAFA" stroke-width="0.15" stroke-miterlimit="10" stroke-linecap="round"/>
<path opacity="0.5" d="M1116.64 863.022L652.469 1300.08" stroke="#FAFAFA" stroke-width="0.15" stroke-miterlimit="10" stroke-linecap="round"/>
<path opacity="0.5" d="M1116.64 845.572L652.469 1219.17" stroke="#FAFAFA" stroke-width="0.15" stroke-miterlimit="10" stroke-linecap="round"/>
<path opacity="0.5" d="M0.35498 621.615L350.966 490.462" stroke="#FAFAFA" stroke-width="0.15" stroke-miterlimit="10" stroke-linecap="round"/>
<path opacity="0.5" d="M962.985 671.86L311.909 490.462" stroke="#FAFAFA" stroke-width="0.15" stroke-miterlimit="10" stroke-linecap="round"/>
<path opacity="0.5" d="M0.35498 871.748L375.711 988.349" stroke="#FAFAFA" stroke-width="0.15" stroke-miterlimit="10" stroke-linecap="round"/>
<path opacity="0.5" d="M684.206 625.882L1116.64 715.241" stroke="#FAFAFA" stroke-width="0.15" stroke-miterlimit="10" stroke-linecap="round"/>
<path opacity="0.5" d="M730.637 629.027L0.35498 727.385" stroke="#FAFAFA" stroke-width="0.15" stroke-miterlimit="10" stroke-linecap="round"/>
<path opacity="0.5" d="M0.35498 864.883L751.094 1070.05" stroke="#FAFAFA" stroke-width="0.15" stroke-miterlimit="10" stroke-linecap="round"/>
<path opacity="0.5" d="M694.475 1070.05L1116.64 821.503" stroke="#FAFAFA" stroke-width="0.15" stroke-miterlimit="10" stroke-linecap="round"/>
<path opacity="0.5" d="M1034.27 299.026L0.35498 670.547" stroke="#FAFAFA" stroke-width="0.15" stroke-miterlimit="10" stroke-linecap="round"/>
<path opacity="0.5" d="M375.711 750.47L0.35498 758.046" stroke="#FAFAFA" stroke-width="0.15" stroke-miterlimit="10" stroke-linecap="round"/>
<path opacity="0.5" d="M311.909 750.47L1116.65 764.556" stroke="#FAFAFA" stroke-width="0.15" stroke-miterlimit="10" stroke-linecap="round"/>
<path opacity="0.5" d="M330.918 988.349L1116.64 789.254" stroke="#FAFAFA" stroke-width="0.15" stroke-miterlimit="10" stroke-linecap="round"/>
</g>
<g opacity="0.5">
<path opacity="0.5" d="M962.984 290.383L1116.64 564.832" stroke="#FAFAFA" stroke-width="0.15" stroke-miterlimit="10" stroke-linecap="round"/>
<path opacity="0.5" d="M1116.64 878.176L652.469 1315.23" stroke="#FAFAFA" stroke-width="0.15" stroke-miterlimit="10" stroke-linecap="round"/>
<path opacity="0.5" d="M1116.64 860.725L652.469 1234.32" stroke="#FAFAFA" stroke-width="0.15" stroke-miterlimit="10" stroke-linecap="round"/>
<path opacity="0.5" d="M0.35498 636.768L350.966 505.615" stroke="#FAFAFA" stroke-width="0.15" stroke-miterlimit="10" stroke-linecap="round"/>
<path opacity="0.5" d="M962.985 687.013L311.909 505.615" stroke="#FAFAFA" stroke-width="0.15" stroke-miterlimit="10" stroke-linecap="round"/>
<path opacity="0.5" d="M0.35498 886.901L375.711 1003.5" stroke="#FAFAFA" stroke-width="0.15" stroke-miterlimit="10" stroke-linecap="round"/>
<path opacity="0.5" d="M684.206 641.035L1116.64 730.393" stroke="#FAFAFA" stroke-width="0.15" stroke-miterlimit="10" stroke-linecap="round"/>
<path opacity="0.5" d="M730.637 644.18L0.35498 742.538" stroke="#FAFAFA" stroke-width="0.15" stroke-miterlimit="10" stroke-linecap="round"/>
<path opacity="0.5" d="M0.35498 880.008L751.094 1085.2" stroke="#FAFAFA" stroke-width="0.15" stroke-miterlimit="10" stroke-linecap="round"/>
<path opacity="0.5" d="M694.475 1085.2L1116.64 836.655" stroke="#FAFAFA" stroke-width="0.15" stroke-miterlimit="10" stroke-linecap="round"/>
<path opacity="0.5" d="M1034.27 314.179L0.35498 685.7" stroke="#FAFAFA" stroke-width="0.15" stroke-miterlimit="10" stroke-linecap="round"/>
<path opacity="0.5" d="M375.711 765.623L0.35498 773.199" stroke="#FAFAFA" stroke-width="0.15" stroke-miterlimit="10" stroke-linecap="round"/>
<path opacity="0.5" d="M311.909 765.623L1116.65 779.709" stroke="#FAFAFA" stroke-width="0.15" stroke-miterlimit="10" stroke-linecap="round"/>
<path opacity="0.5" d="M330.918 1003.5L1116.64 804.408" stroke="#FAFAFA" stroke-width="0.15" stroke-miterlimit="10" stroke-linecap="round"/>
</g>
<path d="M12.6729 626.374V953.257L23.0243 958.454V622.518L12.6729 626.374Z" stroke="#FAFAFA" stroke-width="0.26" stroke-miterlimit="10" stroke-linecap="round"/>
<path d="M23.0244 622.518L34.2499 624.897V955.089L23.0244 958.454" stroke="#FAFAFA" stroke-width="0.26" stroke-miterlimit="10" stroke-linecap="round"/>
<path d="M355.718 990.647V511.25L378.797 517.678V984.794L355.718 990.647Z" stroke="#FAFAFA" stroke-width="0.26" stroke-miterlimit="10" stroke-linecap="round"/>
<path d="M355.718 511.25L333.568 518.088V983.782L355.718 990.647V511.25Z" stroke="#FAFAFA" stroke-width="0.26" stroke-miterlimit="10" stroke-linecap="round"/>
<path d="M463.985 675.225V1000.17L480.755 1004.73V673.009L463.985 675.225Z" stroke="#FAFAFA" stroke-width="0.26" stroke-miterlimit="10" stroke-linecap="round"/>
<path d="M480.755 673.009L497.771 675.662V998.606L480.755 1004.73" stroke="#FAFAFA" stroke-width="0.26" stroke-miterlimit="10" stroke-linecap="round"/>
<path d="M712.42 1068.05V640.242L688.685 643.25V1061.57L712.42 1068.05Z" stroke="#FAFAFA" stroke-width="0.26" stroke-miterlimit="10" stroke-linecap="round"/>
<path d="M712.419 640.242L733.969 644.727V1055.36L712.419 1068.05V640.242Z" stroke="#FAFAFA" stroke-width="0.26" stroke-miterlimit="10" stroke-linecap="round"/>
<path d="M986.009 324.957V994.613L998.9 982.469V347.932L986.009 324.957Z" stroke="#FAFAFA" stroke-width="0.51" stroke-miterlimit="10" stroke-linecap="round"/>
<path d="M986.009 324.957L965.907 332.177V991.823L986.009 994.613V324.957Z" stroke="#FAFAFA" stroke-width="0.51" stroke-miterlimit="10" stroke-linecap="round"/>
<path d="M617.372 457.421V943.793L634.743 946.966V451.185L617.372 457.421Z" stroke="#FAFAFA" stroke-width="0.26" stroke-miterlimit="10" stroke-linecap="round"/>
<path d="M634.743 451.185L652.469 460.704V938.623L634.743 946.966V451.185Z" stroke="#FAFAFA" stroke-width="0.26" stroke-miterlimit="10" stroke-linecap="round"/>
<path d="M1002.92 996.938L0.35498 858.756" stroke="#FAFAFA" stroke-width="0.26" stroke-miterlimit="10" stroke-linecap="round"/>
<path d="M1077.18 968.355L910.981 951.178V681.078" stroke="#FAFAFA" stroke-width="0.51" stroke-miterlimit="10" stroke-linecap="round"/>
<path d="M890.169 399.49L704.198 461.333" stroke="#FAFAFA" stroke-width="0.51" stroke-miterlimit="10" stroke-linecap="round"/>
<path d="M715.916 448.669V640.242" stroke="#FAFAFA" stroke-width="0.51" stroke-miterlimit="10" stroke-linecap="round"/>
<path d="M715.916 457.449L753.935 474.052L881.184 434.392" stroke="#FAFAFA" stroke-width="0.51" stroke-miterlimit="10" stroke-linecap="round"/>
<path d="M753.935 474.052V646.642" stroke="#FAFAFA" stroke-width="0.51" stroke-miterlimit="10" stroke-linecap="round"/>
<path d="M767.4 651.593V483.57L881.184 448.669" stroke="#FAFAFA" stroke-width="0.51" stroke-miterlimit="10" stroke-linecap="round"/>
<path d="M767.4 483.57L776.905 489.122L881.184 457.394" stroke="#FAFAFA" stroke-width="0.51" stroke-miterlimit="10" stroke-linecap="round"/>
<path d="M776.905 489.123V653.617" stroke="#FAFAFA" stroke-width="0.51" stroke-miterlimit="10" stroke-linecap="round"/>
<path d="M836.883 462.263V665.98" stroke="#FAFAFA" stroke-width="0.51" stroke-miterlimit="10" stroke-linecap="round"/>
<path d="M845.568 667.785V459.583L852.642 466.065V669.235" stroke="#FAFAFA" stroke-width="0.51" stroke-linecap="round" stroke-linejoin="round"/>
<path d="M1016.33 463.083V640.242L1065.71 665.351V528.126L1016.33 463.083Z" stroke="#FAFAFA" stroke-width="0.51" stroke-miterlimit="10" stroke-linecap="round"/>
<path d="M1065.71 528.126H1051.7L1016.33 491.119" stroke="#FAFAFA" stroke-width="0.51" stroke-miterlimit="10" stroke-linecap="round"/>
<path d="M1046.94 655.832V531.299L1016.33 499.051" stroke="#FAFAFA" stroke-width="0.51" stroke-miterlimit="10" stroke-linecap="round"/>
<path d="M1046.94 531.299H1043.12L1016.33 505.534" stroke="#FAFAFA" stroke-width="0.51" stroke-miterlimit="10" stroke-linecap="round"/>
<path d="M1043.12 531.299V653.863" stroke="#FAFAFA" stroke-width="0.51" stroke-miterlimit="10" stroke-linecap="round"/>
<path d="M666.48 1056.43V699.076L510.935 715.323V1012.99L550.839 996.938V711.165" stroke="#FAFAFA" stroke-width="0.51" stroke-miterlimit="10" stroke-linecap="round"/>
<path d="M602.869 739.666L563.785 742.839V815.403H602.869V739.666Z" stroke="#FAFAFA" stroke-width="0.51" stroke-miterlimit="10" stroke-linecap="round"/>
<path d="M611.309 739.666V815.404H659.351V735.946L611.309 739.666Z" stroke="#FAFAFA" stroke-width="0.51" stroke-miterlimit="10" stroke-linecap="round"/>
<path d="M563.785 824.785H602.869V894.615L563.785 891.961V824.785Z" stroke="#FAFAFA" stroke-width="0.51" stroke-miterlimit="10" stroke-linecap="round"/>
<path d="M611.309 824.785V894.615L659.351 897.377V825.852L611.309 824.785Z" stroke="#FAFAFA" stroke-width="0.51" stroke-miterlimit="10" stroke-linecap="round"/>
<path d="M758.359 699.076V766.854L894.13 769.233V716.116L758.359 699.076Z" stroke="#FAFAFA" stroke-width="0.51" stroke-miterlimit="10" stroke-linecap="round"/>
<path d="M878.89 768.96V714.201" stroke="#FAFAFA" stroke-width="0.51" stroke-miterlimit="10" stroke-linecap="round"/>
<path d="M821.533 707.008V767.975" stroke="#FAFAFA" stroke-width="0.51" stroke-miterlimit="10" stroke-linecap="round"/>
<path d="M832.649 708.403V767.975" stroke="#FAFAFA" stroke-width="0.51" stroke-miterlimit="10" stroke-linecap="round"/>
<path d="M813.558 707.008V767.866" stroke="#FAFAFA" stroke-width="0.51" stroke-miterlimit="10" stroke-linecap="round"/>
<path d="M1016.33 731.187V771.367L1065.71 772.242V738.189L1016.33 731.187Z" stroke="#FAFAFA" stroke-width="0.51" stroke-miterlimit="10" stroke-linecap="round"/>
<path d="M1041.02 734.688V771.805" stroke="#FAFAFA" stroke-width="0.51" stroke-miterlimit="10" stroke-linecap="round"/>
<path d="M1034.27 734.141V771.695" stroke="#FAFAFA" stroke-width="0.51" stroke-miterlimit="10" stroke-linecap="round"/>
<path d="M1030.06 733.129V771.613" stroke="#FAFAFA" stroke-width="0.51" stroke-miterlimit="10" stroke-linecap="round"/>
<path d="M12.6729 618.551V919.094L673.254 1211.02L986.009 958.946L910.982 951.178L712.42 1068.05V640.241L393.819 682.965V980.991" stroke="#FAFAFA" stroke-width="1.03" stroke-miterlimit="10" stroke-linecap="round"/>
<path d="M986.036 307.615V696.833" stroke="#FAFAFA" stroke-width="1.03" stroke-miterlimit="10" stroke-linecap="round"/>
<path d="M334.305 505.288V759.906H355.718V990.647L393.819 980.992L510.935 1012.99" stroke="#FAFAFA" stroke-width="1.03" stroke-miterlimit="10" stroke-linecap="round"/>
<path d="M116.16 916.277L34.2495 927.847V766.635L114.603 764.31L116.16 916.277ZM116.16 916.277L355.718 990.647" stroke="#FAFAFA" stroke-width="1.03" stroke-miterlimit="10" stroke-linecap="round"/>
<path d="M673.035 1289.3L1096.98 890.102V523.148L986.009 324.957L617.372 457.422V584.143L334.305 505.288L12.6729 626.375" stroke="#FAFAFA" stroke-width="1.03" stroke-miterlimit="10" stroke-linecap="round"/>
<path d="M617.372 584.143V652.906" stroke="#FAFAFA" stroke-width="1.03" stroke-miterlimit="10" stroke-linecap="round"/>
<path d="M986.036 958.946V696.833" stroke="#FAFAFA" stroke-width="1.03" stroke-miterlimit="10" stroke-linecap="round"/>
<path d="M712.419 640.242L909.862 681.078L910.982 951.178" stroke="#FAFAFA" stroke-width="1.03" stroke-miterlimit="10" stroke-linecap="round"/>
<path d="M396.387 566.009V640.242L594.949 679.136V617.13L396.387 566.009Z" stroke="#FAFAFA" stroke-width="0.51" stroke-miterlimit="10" stroke-linecap="round"/>
<path d="M594.949 617.129L578.943 621.205L579.735 676.155" stroke="#FAFAFA" stroke-width="0.51" stroke-miterlimit="10" stroke-linecap="round"/>
<path d="M578.916 621.177L396.387 575.718" stroke="#FAFAFA" stroke-width="0.51" stroke-miterlimit="10" stroke-linecap="round"/>
<path d="M573.454 674.924V624.651L396.387 581.024" stroke="#FAFAFA" stroke-width="0.51" stroke-miterlimit="10" stroke-linecap="round"/>
<path d="M573.453 624.651H569.056V674.076" stroke="#FAFAFA" stroke-width="0.51" stroke-miterlimit="10" stroke-linecap="round"/>
<path d="M532.185 614.476V666.828" stroke="#FAFAFA" stroke-width="0.51" stroke-miterlimit="10" stroke-linecap="round"/>
<path d="M526.039 612.972V665.16" stroke="#FAFAFA" stroke-width="0.51" stroke-miterlimit="10" stroke-linecap="round"/>
<path d="M521.806 612.972V664.996" stroke="#FAFAFA" stroke-width="0.51" stroke-miterlimit="10" stroke-linecap="round"/>
<path d="M463.985 598.448V653.48" stroke="#FAFAFA" stroke-width="0.51" stroke-miterlimit="10" stroke-linecap="round"/>
<path d="M455.518 651.812V595.576" stroke="#FAFAFA" stroke-width="0.51" stroke-miterlimit="10" stroke-linecap="round"/>
<path d="M450.547 594.345V650.635" stroke="#FAFAFA" stroke-width="0.51" stroke-miterlimit="10" stroke-linecap="round"/>
<path d="M334.305 759.906L114.604 764.31" stroke="#FAFAFA" stroke-width="1.03" stroke-miterlimit="10" stroke-linecap="round"/>
<path d="M275.993 580.095V698.83" stroke="#FAFAFA" stroke-width="0.51" stroke-miterlimit="10" stroke-linecap="round"/>
<path d="M188.046 611.686V710.673" stroke="#FAFAFA" stroke-width="0.51" stroke-miterlimit="10" stroke-linecap="round"/>
<path d="M134.65 630.887V717.866" stroke="#FAFAFA" stroke-width="0.51" stroke-miterlimit="10" stroke-linecap="round"/>
<path d="M63.7197 656.352V729.6" stroke="#FAFAFA" stroke-width="0.51" stroke-miterlimit="10" stroke-linecap="round"/>
<path d="M63.7197 656.352L74.2897 657.829V725.99" stroke="#FAFAFA" stroke-width="0.51" stroke-miterlimit="10" stroke-linecap="round"/>
<path d="M74.29 657.829L134.651 638.382" stroke="#FAFAFA" stroke-width="0.51" stroke-miterlimit="10" stroke-linecap="round"/>
<path d="M188.046 611.686L202.331 613.409V708.457" stroke="#FAFAFA" stroke-width="0.51" stroke-miterlimit="10" stroke-linecap="round"/>
<path d="M202.331 613.409L275.993 588.027" stroke="#FAFAFA" stroke-width="0.51" stroke-miterlimit="10" stroke-linecap="round"/>
<path d="M206.811 708.156V616.172L275.993 592.923" stroke="#FAFAFA" stroke-width="0.51" stroke-miterlimit="10" stroke-linecap="round"/>
<path d="M246.167 602.934V702.85" stroke="#FAFAFA" stroke-width="0.51" stroke-miterlimit="10" stroke-linecap="round"/>
<path d="M251.849 702.084V601.019L255.918 602.934V701.537" stroke="#FAFAFA" stroke-width="0.51" stroke-miterlimit="10" stroke-linecap="round"/>
<path d="M206.811 616.172L209.979 617.513V707.719" stroke="#FAFAFA" stroke-width="0.51" stroke-miterlimit="10" stroke-linecap="round"/>
<path d="M209.979 617.512L246.168 605.86" stroke="#FAFAFA" stroke-width="0.51" stroke-miterlimit="10" stroke-linecap="round"/>
<path d="M255.918 602.934L275.993 596.096" stroke="#FAFAFA" stroke-width="0.51" stroke-miterlimit="10" stroke-linecap="round"/>
<path d="M78.0044 725.497V660.071L134.651 643.141" stroke="#FAFAFA" stroke-width="0.51" stroke-miterlimit="10" stroke-linecap="round"/>
<path d="M106.328 651.62V721.696" stroke="#FAFAFA" stroke-width="0.51" stroke-miterlimit="10" stroke-linecap="round"/>
<path d="M110.097 721.176V650.471L112.828 651.62V720.82" stroke="#FAFAFA" stroke-width="0.51" stroke-miterlimit="10" stroke-linecap="round"/>
<path d="M78.0044 660.072L80.5445 661.002V725.142" stroke="#FAFAFA" stroke-width="0.51" stroke-miterlimit="10" stroke-linecap="round"/>
<path d="M80.5449 661.002L106.328 653.453" stroke="#FAFAFA" stroke-width="0.51" stroke-miterlimit="10" stroke-linecap="round"/>
<path d="M112.828 651.62L134.651 645.138" stroke="#FAFAFA" stroke-width="0.51" stroke-miterlimit="10" stroke-linecap="round"/>
<path d="M22.9971 531.299V1062.12" stroke="#FAFAFA" stroke-width="0.15" stroke-miterlimit="10" stroke-linecap="round"/>
<path d="M333.541 432.039V1223.79" stroke="#FAFAFA" stroke-width="0.15" stroke-miterlimit="10" stroke-linecap="round"/>
<path d="M355.718 440.764V1246.8" stroke="#FAFAFA" stroke-width="0.15" stroke-miterlimit="10" stroke-linecap="round"/>
<path d="M616.443 424.107V1322.78" stroke="#FAFAFA" stroke-width="0.15" stroke-miterlimit="10" stroke-linecap="round"/>
<path d="M986.036 265.903V1077.27" stroke="#FAFAFA" stroke-width="0.15" stroke-miterlimit="10" stroke-linecap="round"/>
<path d="M480.755 369.267V1044.07" stroke="#FAFAFA" stroke-width="0.15" stroke-miterlimit="10" stroke-linecap="round"/>
<path d="M713.185 577.223V1100.52" stroke="#FAFAFA" stroke-width="0.15" stroke-miterlimit="10" stroke-linecap="round"/>
<path d="M0.35498 592.978L1030.06 183.219" stroke="#FAFAFA" stroke-width="0.15" stroke-miterlimit="10" stroke-linecap="round"/>
<path d="M1116.64 509.363L929.472 183.219" stroke="#FAFAFA" stroke-width="0.15" stroke-miterlimit="10" stroke-linecap="round"/>
<path d="M881.184 394.348V674.486" stroke="#FAFAFA" stroke-width="0.51" stroke-miterlimit="10" stroke-linecap="round"/>
<path d="M136.59 779.709H333.568V905.063L136.59 877.547V779.709Z" stroke="#FAFAFA" stroke-width="0.51" stroke-miterlimit="10" stroke-linecap="round"/>
<path d="M149.072 779.709V875.55L136.59 877.547" stroke="#FAFAFA" stroke-width="0.51" stroke-miterlimit="10" stroke-linecap="round"/>
<path d="M149.072 875.55L333.541 899.894" stroke="#FAFAFA" stroke-width="0.51" stroke-miterlimit="10" stroke-linecap="round"/>
<path d="M155.053 779.709V871.748L333.567 892.618" stroke="#FAFAFA" stroke-width="0.51" stroke-miterlimit="10" stroke-linecap="round"/>
<path d="M235.079 779.709V881.102" stroke="#FAFAFA" stroke-width="0.51" stroke-miterlimit="10" stroke-linecap="round"/>
<path d="M249.855 882.169V779.709" stroke="#FAFAFA" stroke-width="0.51" stroke-miterlimit="10" stroke-linecap="round"/>
<path d="M244.311 779.709V882.169" stroke="#FAFAFA" stroke-width="0.51" stroke-miterlimit="10" stroke-linecap="round"/>
<path d="M155.053 871.748H159.559V779.709" stroke="#FAFAFA" stroke-width="0.51" stroke-miterlimit="10" stroke-linecap="round"/>
</g>
</g>
<defs>
<clipPath id="clip0">
<rect width="1045" height="891" fill="white"/>
</clipPath>
<clipPath id="clip1">
<rect width="1117" height="748" fill="white" transform="translate(0 183)"/>
</clipPath>
</defs>
</svg>
