<svg width="32" height="32" viewBox="0 0 32 32" fill="none" xmlns="http://www.w3.org/2000/svg">
<path d="M20.0971 2.66699H11.9165C4.44425 2.66699 2.6665 4.44474 2.6665 11.9031V20.0837C2.6665 27.5558 4.43042 29.3337 11.9026 29.3337H20.0832C27.5554 29.3337 29.3332 27.5697 29.3332 20.0975V11.917C29.3332 4.44474 27.5693 2.66699 20.0971 2.66699ZM24.1943 21.6947H22.2498C21.5138 21.6947 21.2915 21.0975 19.9721 19.7781C18.8193 18.667 18.3332 18.5281 18.0415 18.5281C17.6388 18.5281 17.5276 18.6392 17.5276 19.1947V20.9447C17.5276 21.417 17.3748 21.6947 16.1388 21.6947C14.9393 21.6141 13.7761 21.2498 12.745 20.6316C11.7139 20.0134 10.8444 19.1592 10.2082 18.1392C8.69765 16.259 7.64665 14.0524 7.13876 11.6947C7.13876 11.4031 7.24984 11.1392 7.80542 11.1392H9.74984C10.2498 11.1392 10.4304 11.3614 10.6248 11.8753C11.5693 14.6531 13.1804 17.0697 13.8332 17.0697C14.0832 17.0697 14.1943 16.9587 14.1943 16.3337V13.4725C14.1109 12.167 13.4165 12.0558 13.4165 11.5837C13.4256 11.4591 13.483 11.343 13.5763 11.26C13.6697 11.177 13.7917 11.1337 13.9165 11.1392H16.9721C17.3888 11.1392 17.5276 11.3475 17.5276 11.8475V15.7087C17.5276 16.1253 17.7082 16.2642 17.8332 16.2642C18.0832 16.2642 18.2776 16.1253 18.7359 15.667C19.7208 14.4659 20.5256 13.1278 21.1248 11.6947C21.186 11.5223 21.3019 11.3746 21.4549 11.2743C21.6079 11.174 21.7896 11.1265 21.9721 11.1392H23.9165C24.4998 11.1392 24.6248 11.4308 24.4998 11.8475C23.7923 13.4319 22.917 14.9359 21.8888 16.3337C21.6804 16.6531 21.5971 16.8197 21.8888 17.1947C22.0832 17.4864 22.7638 18.0558 23.2221 18.5975C23.8887 19.2625 24.4423 20.0319 24.8609 20.8753C25.0276 21.417 24.7498 21.6947 24.1943 21.6947Z" fill="#FECA36"/>
</svg>
