<svg width="345" height="579" viewBox="0 0 345 579" fill="none" xmlns="http://www.w3.org/2000/svg">
<g opacity="0.2" clip-path="url(#clip0)">
<path d="M85.146 77.1143V296.438" stroke="#9D9D9D" stroke-width="3" stroke-linecap="round" stroke-linejoin="round"/>
<path d="M33.2893 150.222H24.0659V296.438H33.2893V150.222Z" stroke="#9D9D9D" stroke-linecap="round" stroke-linejoin="round"/>
<path d="M24.0659 160.861H-24.1045" stroke="#9D9D9D" stroke-linecap="round" stroke-linejoin="round"/>
<path d="M24.0659 193.535H-24.1045" stroke="#9D9D9D" stroke-linecap="round" stroke-linejoin="round"/>
<path d="M24.0659 226.208H-24.1045" stroke="#9D9D9D" stroke-linecap="round" stroke-linejoin="round"/>
<path d="M24.0659 258.882H-24.1045" stroke="#9D9D9D" stroke-linecap="round" stroke-linejoin="round"/>
<path d="M24.0659 291.556H-24.1045" stroke="#9D9D9D" stroke-linecap="round" stroke-linejoin="round"/>
<path d="M85.146 160.861H33.2896" stroke="#9D9D9D" stroke-linecap="round" stroke-linejoin="round"/>
<path d="M85.146 193.535H33.2896" stroke="#9D9D9D" stroke-linecap="round" stroke-linejoin="round"/>
<path d="M85.146 226.208H33.2896" stroke="#9D9D9D" stroke-linecap="round" stroke-linejoin="round"/>
<path d="M85.146 258.882H33.2896" stroke="#9D9D9D" stroke-linecap="round" stroke-linejoin="round"/>
<path d="M85.146 291.556H33.2896" stroke="#9D9D9D" stroke-linecap="round" stroke-linejoin="round"/>
<path d="M184.601 340.659H124.127C108.176 340.659 95.2446 353.592 95.2446 369.545C95.2446 385.499 108.176 398.432 124.127 398.432H184.601C200.552 398.432 213.483 385.499 213.483 369.545C213.483 353.592 200.552 340.659 184.601 340.659Z" stroke="#9D9D9D" stroke-linecap="round" stroke-linejoin="round"/>
<path d="M88.4277 382.76V356.331H77.841V382.76H88.4277Z" stroke="#9D9D9D" stroke-linecap="round" stroke-linejoin="round"/>
<path d="M118.572 333H144.997V322.412H118.572V333Z" stroke="#9D9D9D" stroke-linecap="round" stroke-linejoin="round"/>
<path d="M155.146 333H181.571V322.412H155.146V333Z" stroke="#9D9D9D" stroke-linecap="round" stroke-linejoin="round"/>
<path d="M118.572 416.696H144.997V406.108H118.572V416.696Z" stroke="#9D9D9D" stroke-linecap="round" stroke-linejoin="round"/>
<path d="M155.146 416.696H181.571V406.108H155.146V416.696Z" stroke="#9D9D9D" stroke-linecap="round" stroke-linejoin="round"/>
<path d="M230.886 382.76V356.331H220.299V382.76H230.886Z" stroke="#9D9D9D" stroke-linecap="round" stroke-linejoin="round"/>
<path d="M85.1458 588.886H12.4526V515.778H-316.897V369.546V296.438V186.784H-24.1044V77.1143H232.148V296.438H267.897V442.67H194.8V588.886H121.703V552.323" stroke="#9D9D9D" stroke-width="3" stroke-linecap="round" stroke-linejoin="round"/>
<path d="M12.4526 515.778V369.545H-97.6055" stroke="#9D9D9D" stroke-width="3" stroke-linecap="round" stroke-linejoin="round"/>
<path d="M232.148 296.438H121.703V259.892" stroke="#9D9D9D" stroke-width="3" stroke-linecap="round" stroke-linejoin="round"/>
<path d="M85.146 296.438C85.1439 294.748 85.262 293.061 85.4995 291.388" stroke="#9D9D9D" stroke-linecap="round" stroke-linejoin="round"/>
<path d="M86.4419 286.775C88.2269 280.274 91.7727 274.393 96.688 269.78C101.603 265.167 107.697 262.002 114.297 260.633" stroke="#9D9D9D" stroke-linecap="round" stroke-linejoin="round" stroke-dasharray="5.62 2.81"/>
<path d="M116.653 260.229C118.327 260.005 120.014 259.893 121.703 259.892" stroke="#9D9D9D" stroke-linecap="round" stroke-linejoin="round"/>
<path d="M86.4419 579.207C88.2321 572.709 91.7794 566.83 96.6939 562.218C101.608 557.606 107.699 554.438 114.297 553.064" stroke="#9D9D9D" stroke-linecap="round" stroke-linejoin="round" stroke-dasharray="5.62 2.81"/>
<path d="M116.653 552.677C118.326 552.44 120.013 552.321 121.703 552.323" stroke="#9D9D9D" stroke-linecap="round" stroke-linejoin="round"/>
<path d="M232.148 77.1143H194.8V113.677H232.148V77.1143Z" stroke="#9D9D9D" stroke-linecap="round" stroke-linejoin="round"/>
<path d="M199.58 87.9718C199.58 86.7932 199.93 85.641 200.584 84.6611C201.239 83.6811 202.169 82.9173 203.258 82.4663C204.347 82.0153 205.545 81.8973 206.701 82.1272C207.856 82.3571 208.918 82.9247 209.751 83.7581C210.585 84.5915 211.152 85.6533 211.382 86.8092C211.612 87.9651 211.494 89.1633 211.043 90.2522C210.592 91.3411 209.828 92.2717 208.848 92.9265C207.869 93.5813 206.717 93.9308 205.538 93.9308C203.958 93.9308 202.443 93.303 201.325 92.1854C200.208 91.0679 199.58 89.5522 199.58 87.9718V87.9718Z" stroke="#9D9D9D" stroke-linecap="round" stroke-linejoin="round"/>
<path d="M215.452 87.9718C215.452 86.7932 215.801 85.641 216.456 84.6611C217.11 83.6811 218.041 82.9173 219.13 82.4663C220.218 82.0153 221.416 81.8973 222.572 82.1272C223.728 82.3571 224.79 82.9247 225.623 83.7581C226.456 84.5915 227.024 85.6533 227.253 86.8092C227.483 87.9651 227.365 89.1633 226.914 90.2522C226.463 91.3411 225.7 92.2717 224.72 92.9265C223.74 93.5813 222.588 93.9308 221.41 93.9308C219.831 93.9264 218.318 93.2971 217.202 92.1805C216.085 91.064 215.456 89.5508 215.452 87.9718Z" stroke="#9D9D9D" stroke-linecap="round" stroke-linejoin="round"/>
<path d="M199.58 102.819C199.58 101.64 199.93 100.488 200.584 99.5082C201.239 98.5283 202.169 97.7645 203.258 97.3135C204.347 96.8624 205.545 96.7444 206.701 96.9744C207.857 97.2043 208.918 97.7718 209.751 98.6052C210.585 99.4386 211.152 100.5 211.382 101.656C211.612 102.812 211.494 104.01 211.043 105.099C210.592 106.188 209.828 107.119 208.849 107.774C207.869 108.428 206.717 108.778 205.538 108.778C204.755 108.78 203.979 108.628 203.256 108.329C202.532 108.03 201.874 107.591 201.32 107.038C200.767 106.484 200.328 105.826 200.029 105.102C199.73 104.378 199.578 103.602 199.58 102.819V102.819Z" stroke="#9D9D9D" stroke-linecap="round" stroke-linejoin="round"/>
<path d="M215.452 102.819C215.452 101.64 215.801 100.488 216.456 99.5082C217.11 98.5283 218.041 97.7645 219.13 97.3135C220.218 96.8624 221.416 96.7444 222.572 96.9744C223.728 97.2043 224.79 97.7718 225.623 98.6052C226.456 99.4386 227.024 100.5 227.253 101.656C227.483 102.812 227.365 104.01 226.914 105.099C226.463 106.188 225.7 107.119 224.72 107.774C223.74 108.428 222.588 108.778 221.41 108.778C220.627 108.778 219.853 108.624 219.13 108.324C218.407 108.025 217.75 107.586 217.197 107.033C216.643 106.479 216.205 105.822 215.905 105.099C215.606 104.376 215.452 103.601 215.452 102.819V102.819Z" stroke="#9D9D9D" stroke-linecap="round" stroke-linejoin="round"/>
<path d="M232.148 113.66H194.8V150.222H232.148V113.66Z" stroke="#9D9D9D" stroke-linecap="round" stroke-linejoin="round"/>
<path d="M232.148 186.784H194.8V223.347H232.148V186.784Z" stroke="#9D9D9D" stroke-linecap="round" stroke-linejoin="round"/>
<path d="M232.148 150.222H194.8V186.785H232.148V150.222Z" stroke="#9D9D9D" stroke-linecap="round" stroke-linejoin="round"/>
<path d="M232.165 154.902H199.58V182.105H232.165V154.902Z" stroke="#9D9D9D" stroke-linecap="round" stroke-linejoin="round"/>
<path d="M231.794 259.842H195.153V296.488H231.794V259.842Z" stroke="#9D9D9D" stroke-linecap="round" stroke-linejoin="round"/>
<path d="M231.811 223.33H213.482V259.892H231.811V223.33Z" stroke="#9D9D9D" stroke-linecap="round" stroke-linejoin="round"/>
<path d="M121.736 77.1143H85.0952V113.761H121.736V77.1143Z" stroke="#9D9D9D" stroke-linecap="round" stroke-linejoin="round"/>
<path d="M103.424 205.049H85.0952V241.645H103.424V205.049Z" stroke="#9D9D9D" stroke-linecap="round" stroke-linejoin="round"/>
<path d="M135.252 113.66H85.0952V205.099H135.252V113.66Z" stroke="#9D9D9D" stroke-linecap="round" stroke-linejoin="round"/>
<path d="M48.6057 442.67H12.4526V552.341H48.6057V442.67Z" stroke="#9D9D9D" stroke-linecap="round" stroke-linejoin="round"/>
<path d="M34.1141 492.396H12.4526V539.143H34.1141V492.396Z" stroke="#9D9D9D" stroke-linecap="round" stroke-linejoin="round"/>
<path d="M23.2751 471.337C29.0197 471.337 33.6767 466.68 33.6767 460.934C33.6767 455.189 29.0197 450.531 23.2751 450.531C17.5305 450.531 12.8735 455.189 12.8735 460.934C12.8735 466.68 17.5305 471.337 23.2751 471.337Z" stroke="#9D9D9D" stroke-linecap="round" stroke-linejoin="round"/>
<path d="M231.306 40.5518H129.647" stroke="#9D9D9D" stroke-linecap="round" stroke-linejoin="round"/>
<path d="M232.148 35.0811H230.465V46.0228H232.148V35.0811Z" fill="#9D9D9D"/>
<path d="M-23.2627 40.5518H78.3967" stroke="#9D9D9D" stroke-linecap="round" stroke-linejoin="round"/>
<path d="M88.2953 26.7183C88.3686 26.7249 88.4286 26.7583 88.4753 26.8183C88.5286 26.8716 88.5553 26.9383 88.5553 27.0183V33.4183C88.5553 33.5049 88.5219 33.5783 88.4553 33.6383C88.3953 33.6916 88.3186 33.7183 88.2253 33.7183C88.1386 33.7183 88.0653 33.6916 88.0053 33.6383C87.9453 33.5783 87.9153 33.5049 87.9153 33.4183V27.5683L86.6653 28.3083C86.6186 28.3349 86.5719 28.3483 86.5253 28.3483C86.4386 28.3483 86.3619 28.3149 86.2953 28.2483C86.2353 28.1816 86.2053 28.1083 86.2053 28.0283C86.2053 27.9816 86.2186 27.9349 86.2453 27.8883C86.2786 27.8416 86.3186 27.8049 86.3653 27.7783L88.0553 26.7583C88.1219 26.7183 88.2019 26.7049 88.2953 26.7183ZM94.4154 33.1383C94.4954 33.1383 94.562 33.1683 94.6154 33.2283C94.6754 33.2816 94.7054 33.3483 94.7054 33.4283C94.7054 33.5149 94.6754 33.5849 94.6154 33.6383C94.562 33.6916 94.4954 33.7183 94.4154 33.7183H90.6654C90.572 33.7183 90.4954 33.6916 90.4354 33.6383C90.3754 33.5849 90.3454 33.5116 90.3454 33.4183C90.3454 33.3449 90.372 33.2749 90.4254 33.2083L92.7354 30.6583C93.1087 30.2583 93.3854 29.9016 93.5654 29.5883C93.7454 29.2683 93.8354 28.9549 93.8354 28.6483C93.8354 28.1949 93.6987 27.8383 93.4254 27.5783C93.152 27.3183 92.772 27.1883 92.2854 27.1883C91.9587 27.1883 91.6654 27.2683 91.4054 27.4283C91.152 27.5816 90.962 27.8183 90.8354 28.1383C90.762 28.2583 90.6754 28.3183 90.5754 28.3183C90.502 28.3183 90.432 28.2916 90.3654 28.2383C90.2987 28.1849 90.2654 28.1249 90.2654 28.0583C90.2654 28.0183 90.2787 27.9716 90.3054 27.9183C90.332 27.8649 90.3654 27.8116 90.4054 27.7583C90.5787 27.3983 90.8387 27.1183 91.1854 26.9183C91.532 26.7183 91.912 26.6183 92.3254 26.6183C92.9987 26.6183 93.5254 26.8016 93.9054 27.1683C94.2854 27.5349 94.4754 28.0149 94.4754 28.6083C94.4754 28.9749 94.3754 29.3516 94.1754 29.7383C93.9754 30.1183 93.6454 30.5616 93.1854 31.0683L91.3454 33.1383H94.4154ZM98.1292 33.8183C97.6025 33.8183 97.1592 33.6616 96.7992 33.3483C96.4392 33.0349 96.1658 32.6083 95.9792 32.0683C95.7992 31.5216 95.7092 30.9049 95.7092 30.2183C95.7092 29.5249 95.7992 28.9083 95.9792 28.3683C96.1592 27.8283 96.4292 27.4016 96.7892 27.0883C97.1558 26.7749 97.6025 26.6183 98.1292 26.6183C98.6558 26.6183 99.0992 26.7749 99.4592 27.0883C99.8258 27.3949 100.099 27.8216 100.279 28.3683C100.466 28.9083 100.559 29.5249 100.559 30.2183C100.559 30.9049 100.466 31.5216 100.279 32.0683C100.099 32.6083 99.8258 33.0349 99.4592 33.3483C99.0992 33.6616 98.6558 33.8183 98.1292 33.8183ZM98.1292 33.1983C98.7025 33.1983 99.1425 32.9316 99.4492 32.3983C99.7625 31.8583 99.9192 31.1316 99.9192 30.2183C99.9192 29.2983 99.7625 28.5716 99.4492 28.0383C99.1425 27.4983 98.7025 27.2283 98.1292 27.2283C97.5625 27.2283 97.1225 27.4983 96.8092 28.0383C96.5025 28.5716 96.3492 29.2983 96.3492 30.2183C96.3492 31.1316 96.5025 31.8583 96.8092 32.3983C97.1225 32.9316 97.5625 33.1983 98.1292 33.1983ZM104.076 33.8183C103.55 33.8183 103.106 33.6616 102.746 33.3483C102.386 33.0349 102.113 32.6083 101.926 32.0683C101.746 31.5216 101.656 30.9049 101.656 30.2183C101.656 29.5249 101.746 28.9083 101.926 28.3683C102.106 27.8283 102.376 27.4016 102.736 27.0883C103.103 26.7749 103.55 26.6183 104.076 26.6183C104.603 26.6183 105.046 26.7749 105.406 27.0883C105.773 27.3949 106.046 27.8216 106.226 28.3683C106.413 28.9083 106.506 29.5249 106.506 30.2183C106.506 30.9049 106.413 31.5216 106.226 32.0683C106.046 32.6083 105.773 33.0349 105.406 33.3483C105.046 33.6616 104.603 33.8183 104.076 33.8183ZM104.076 33.1983C104.65 33.1983 105.09 32.9316 105.396 32.3983C105.71 31.8583 105.866 31.1316 105.866 30.2183C105.866 29.2983 105.71 28.5716 105.396 28.0383C105.09 27.4983 104.65 27.2283 104.076 27.2283C103.51 27.2283 103.07 27.4983 102.756 28.0383C102.45 28.5716 102.296 29.2983 102.296 30.2183C102.296 31.1316 102.45 31.8583 102.756 32.3983C103.07 32.9316 103.51 33.1983 104.076 33.1983Z" fill="#9D9D9D"/>
<path d="M281.728 178.392C281.728 178.486 281.701 178.556 281.648 178.602C281.595 178.656 281.528 178.682 281.448 178.682C281.415 178.682 281.368 178.672 281.308 178.652L274.898 175.902C274.838 175.876 274.788 175.836 274.748 175.782C274.715 175.729 274.698 175.672 274.698 175.612C274.698 175.532 274.725 175.459 274.778 175.392C274.831 175.332 274.898 175.302 274.978 175.302C275.031 175.302 275.081 175.312 275.128 175.332L281.158 177.922V174.712C281.158 174.632 281.185 174.562 281.238 174.502C281.291 174.449 281.361 174.422 281.448 174.422C281.528 174.422 281.595 174.449 281.648 174.502C281.701 174.562 281.728 174.632 281.728 174.712V178.392ZM279.378 181.528C279.378 181.955 279.281 182.338 279.088 182.678C278.901 183.025 278.635 183.295 278.288 183.488C277.948 183.688 277.565 183.788 277.138 183.788C276.671 183.788 276.251 183.678 275.878 183.458C275.511 183.245 275.225 182.945 275.018 182.558C274.811 182.171 274.708 181.731 274.708 181.238C274.708 180.958 274.755 180.678 274.848 180.398C274.941 180.125 275.075 179.885 275.248 179.678C275.275 179.638 275.311 179.605 275.358 179.578C275.411 179.558 275.461 179.548 275.508 179.548C275.575 179.548 275.638 179.575 275.698 179.628C275.765 179.688 275.798 179.758 275.798 179.838C275.798 179.911 275.768 179.985 275.708 180.058C275.575 180.231 275.471 180.418 275.398 180.618C275.325 180.825 275.288 181.031 275.288 181.238C275.288 181.618 275.365 181.955 275.518 182.248C275.671 182.548 275.888 182.778 276.168 182.938C276.448 183.105 276.765 183.188 277.118 183.188C277.625 183.188 278.031 183.025 278.338 182.698C278.651 182.371 278.808 181.935 278.808 181.388C278.808 181.181 278.778 180.988 278.718 180.808C278.658 180.635 278.578 180.438 278.478 180.218C278.398 180.058 278.358 179.955 278.358 179.908C278.358 179.808 278.388 179.725 278.448 179.658C278.515 179.598 278.591 179.568 278.678 179.568C278.711 179.568 278.738 179.571 278.758 179.578L281.478 180.008C281.545 180.021 281.601 180.055 281.648 180.108C281.701 180.168 281.728 180.238 281.728 180.318V183.328C281.728 183.408 281.698 183.475 281.638 183.528C281.585 183.588 281.515 183.618 281.428 183.618C281.348 183.618 281.278 183.588 281.218 183.528C281.165 183.475 281.138 183.408 281.138 183.328V180.528L279.068 180.188C279.155 180.361 279.228 180.565 279.288 180.798C279.348 181.038 279.378 181.281 279.378 181.528ZM274.628 187.456C274.628 186.93 274.785 186.486 275.098 186.126C275.411 185.766 275.838 185.493 276.378 185.306C276.925 185.126 277.541 185.036 278.228 185.036C278.921 185.036 279.538 185.126 280.078 185.306C280.618 185.486 281.045 185.756 281.358 186.116C281.671 186.483 281.828 186.93 281.828 187.456C281.828 187.983 281.671 188.426 281.358 188.786C281.051 189.153 280.625 189.426 280.078 189.606C279.538 189.793 278.921 189.886 278.228 189.886C277.541 189.886 276.925 189.793 276.378 189.606C275.838 189.426 275.411 189.153 275.098 188.786C274.785 188.426 274.628 187.983 274.628 187.456ZM275.248 187.456C275.248 188.03 275.515 188.47 276.048 188.776C276.588 189.09 277.315 189.246 278.228 189.246C279.148 189.246 279.875 189.09 280.408 188.776C280.948 188.47 281.218 188.03 281.218 187.456C281.218 186.89 280.948 186.45 280.408 186.136C279.875 185.83 279.148 185.676 278.228 185.676C277.315 185.676 276.588 185.83 276.048 186.136C275.515 186.45 275.248 186.89 275.248 187.456Z" fill="#9D9D9D"/>
<path d="M304.454 441.829V387.541" stroke="#9D9D9D" stroke-linecap="round" stroke-linejoin="round"/>
<path d="M309.924 440.987H298.984V442.67H309.924V440.987Z" fill="#9D9D9D"/>
<path d="M304.454 297.279V351.567" stroke="#9D9D9D" stroke-linecap="round" stroke-linejoin="round"/>
<path d="M309.924 296.438H298.984V298.121H309.924V296.438Z" fill="#9D9D9D"/>
<path d="M318.285 361.171C318.285 361.264 318.258 361.334 318.205 361.381C318.152 361.434 318.085 361.461 318.005 361.461C317.972 361.461 317.925 361.451 317.865 361.431L311.455 358.681C311.395 358.654 311.345 358.614 311.305 358.561C311.272 358.507 311.255 358.451 311.255 358.391C311.255 358.311 311.282 358.237 311.335 358.171C311.388 358.111 311.455 358.081 311.535 358.081C311.588 358.081 311.638 358.091 311.685 358.111L317.715 360.701V357.491C317.715 357.411 317.742 357.341 317.795 357.281C317.848 357.227 317.918 357.201 318.005 357.201C318.085 357.201 318.152 357.227 318.205 357.281C318.258 357.341 318.285 357.411 318.285 357.491V361.171ZM315.935 364.306C315.935 364.733 315.838 365.116 315.645 365.456C315.458 365.803 315.192 366.073 314.845 366.266C314.505 366.466 314.122 366.566 313.695 366.566C313.228 366.566 312.808 366.456 312.435 366.236C312.068 366.023 311.782 365.723 311.575 365.336C311.368 364.95 311.265 364.51 311.265 364.016C311.265 363.736 311.312 363.456 311.405 363.176C311.498 362.903 311.632 362.663 311.805 362.456C311.832 362.416 311.868 362.383 311.915 362.356C311.968 362.336 312.018 362.326 312.065 362.326C312.132 362.326 312.195 362.353 312.255 362.406C312.322 362.466 312.355 362.536 312.355 362.616C312.355 362.69 312.325 362.763 312.265 362.836C312.132 363.01 312.028 363.196 311.955 363.396C311.882 363.603 311.845 363.81 311.845 364.016C311.845 364.396 311.922 364.733 312.075 365.026C312.228 365.326 312.445 365.556 312.725 365.716C313.005 365.883 313.322 365.966 313.675 365.966C314.182 365.966 314.588 365.803 314.895 365.476C315.208 365.15 315.365 364.713 315.365 364.166C315.365 363.96 315.335 363.766 315.275 363.586C315.215 363.413 315.135 363.216 315.035 362.996C314.955 362.836 314.915 362.733 314.915 362.686C314.915 362.586 314.945 362.503 315.005 362.436C315.072 362.376 315.148 362.346 315.235 362.346C315.268 362.346 315.295 362.35 315.315 362.356L318.035 362.786C318.102 362.8 318.158 362.833 318.205 362.886C318.258 362.946 318.285 363.016 318.285 363.096V366.106C318.285 366.186 318.255 366.253 318.195 366.306C318.142 366.366 318.072 366.396 317.985 366.396C317.905 366.396 317.835 366.366 317.775 366.306C317.722 366.253 317.695 366.186 317.695 366.106V363.306L315.625 362.966C315.712 363.14 315.785 363.343 315.845 363.576C315.905 363.816 315.935 364.06 315.935 364.306ZM311.185 370.235C311.185 369.708 311.342 369.265 311.655 368.905C311.968 368.545 312.395 368.271 312.935 368.085C313.482 367.905 314.098 367.815 314.785 367.815C315.478 367.815 316.095 367.905 316.635 368.085C317.175 368.265 317.602 368.535 317.915 368.895C318.228 369.261 318.385 369.708 318.385 370.235C318.385 370.761 318.228 371.205 317.915 371.565C317.608 371.931 317.182 372.205 316.635 372.385C316.095 372.571 315.478 372.665 314.785 372.665C314.098 372.665 313.482 372.571 312.935 372.385C312.395 372.205 311.968 371.931 311.655 371.565C311.342 371.205 311.185 370.761 311.185 370.235ZM311.805 370.235C311.805 370.808 312.072 371.248 312.605 371.555C313.145 371.868 313.872 372.025 314.785 372.025C315.705 372.025 316.432 371.868 316.965 371.555C317.505 371.248 317.775 370.808 317.775 370.235C317.775 369.668 317.505 369.228 316.965 368.915C316.432 368.608 315.705 368.455 314.785 368.455C313.872 368.455 313.145 368.608 312.605 368.915C312.072 369.228 311.805 369.668 311.805 370.235Z" fill="#9D9D9D"/>
<path d="M12.0488 552.323H-119.031" stroke="#9D9D9D" stroke-linecap="round" stroke-linejoin="round"/>
<path d="M12.8901 546.853H11.207V557.794H12.8901V546.853Z" fill="#9D9D9D"/>
<path d="M232.148 588.044V533.756" stroke="#9D9D9D" stroke-linecap="round" stroke-linejoin="round"/>
<path d="M232.148 443.512V497.783" stroke="#9D9D9D" stroke-linecap="round" stroke-linejoin="round"/>
<path d="M237.618 442.67H226.678V444.354H237.618V442.67Z" fill="#9D9D9D"/>
<path d="M245.979 507.386C245.979 507.48 245.952 507.55 245.899 507.596C245.846 507.65 245.779 507.676 245.699 507.676C245.666 507.676 245.619 507.666 245.559 507.646L239.149 504.896C239.089 504.87 239.039 504.83 238.999 504.776C238.966 504.723 238.949 504.666 238.949 504.606C238.949 504.526 238.976 504.453 239.029 504.386C239.082 504.326 239.149 504.296 239.229 504.296C239.282 504.296 239.332 504.306 239.379 504.326L245.409 506.916V503.706C245.409 503.626 245.436 503.556 245.489 503.496C245.542 503.443 245.612 503.416 245.699 503.416C245.779 503.416 245.846 503.443 245.899 503.496C245.952 503.556 245.979 503.626 245.979 503.706V507.386ZM243.629 510.522C243.629 510.949 243.532 511.332 243.339 511.672C243.152 512.019 242.886 512.289 242.539 512.482C242.199 512.682 241.816 512.782 241.389 512.782C240.922 512.782 240.502 512.672 240.129 512.452C239.762 512.239 239.476 511.939 239.269 511.552C239.062 511.166 238.959 510.726 238.959 510.232C238.959 509.952 239.006 509.672 239.099 509.392C239.192 509.119 239.326 508.879 239.499 508.672C239.526 508.632 239.562 508.599 239.609 508.572C239.662 508.552 239.712 508.542 239.759 508.542C239.826 508.542 239.889 508.569 239.949 508.622C240.016 508.682 240.049 508.752 240.049 508.832C240.049 508.906 240.019 508.979 239.959 509.052C239.826 509.226 239.722 509.412 239.649 509.612C239.576 509.819 239.539 510.026 239.539 510.232C239.539 510.612 239.616 510.949 239.769 511.242C239.922 511.542 240.139 511.772 240.419 511.932C240.699 512.099 241.016 512.182 241.369 512.182C241.876 512.182 242.282 512.019 242.589 511.692C242.902 511.366 243.059 510.929 243.059 510.382C243.059 510.176 243.029 509.982 242.969 509.802C242.909 509.629 242.829 509.432 242.729 509.212C242.649 509.052 242.609 508.949 242.609 508.902C242.609 508.802 242.639 508.719 242.699 508.652C242.766 508.592 242.842 508.562 242.929 508.562C242.962 508.562 242.989 508.566 243.009 508.572L245.729 509.002C245.796 509.016 245.852 509.049 245.899 509.102C245.952 509.162 245.979 509.232 245.979 509.312V512.322C245.979 512.402 245.949 512.469 245.889 512.522C245.836 512.582 245.766 512.612 245.679 512.612C245.599 512.612 245.529 512.582 245.469 512.522C245.416 512.469 245.389 512.402 245.389 512.322V509.522L243.319 509.182C243.406 509.356 243.479 509.559 243.539 509.792C243.599 510.032 243.629 510.276 243.629 510.522ZM238.879 516.45C238.879 515.924 239.036 515.48 239.349 515.12C239.662 514.76 240.089 514.487 240.629 514.3C241.176 514.12 241.792 514.03 242.479 514.03C243.172 514.03 243.789 514.12 244.329 514.3C244.869 514.48 245.296 514.75 245.609 515.11C245.922 515.477 246.079 515.924 246.079 516.45C246.079 516.977 245.922 517.42 245.609 517.78C245.302 518.147 244.876 518.42 244.329 518.6C243.789 518.787 243.172 518.88 242.479 518.88C241.792 518.88 241.176 518.787 240.629 518.6C240.089 518.42 239.662 518.147 239.349 517.78C239.036 517.42 238.879 516.977 238.879 516.45ZM239.499 516.45C239.499 517.024 239.766 517.464 240.299 517.77C240.839 518.084 241.566 518.24 242.479 518.24C243.399 518.24 244.126 518.084 244.659 517.77C245.199 517.464 245.469 517.024 245.469 516.45C245.469 515.884 245.199 515.444 244.659 515.13C244.126 514.824 243.399 514.67 242.479 514.67C241.566 514.67 240.839 514.824 240.299 515.13C239.766 515.444 239.499 515.884 239.499 516.45Z" fill="#9D9D9D"/>
<path d="M-311.814 4.00635H262.814" stroke="#9D9D9D" stroke-linecap="round" stroke-linejoin="round"/>
<path d="M267.897 4.00637C265.301 4.93356 262.878 6.28762 260.727 8.01274L262.174 4.00637L260.727 0C262.886 1.71294 265.307 3.06583 267.897 4.00637Z" fill="#9D9D9D"/>
<path d="M340.994 583.852V82.1978" stroke="#9D9D9D" stroke-linecap="round" stroke-linejoin="round"/>
<path d="M340.994 77.1143C341.933 79.7107 343.286 82.138 345 84.3022L340.994 82.8545L336.988 84.3022C338.708 82.1414 340.061 79.7132 340.994 77.1143Z" fill="#9D9D9D"/>
<path d="M267.897 295.647V208.735" stroke="#9D9D9D" stroke-linecap="round" stroke-linejoin="round"/>
<path d="M273.367 294.805H262.427V296.488H273.367V294.805Z" fill="#9D9D9D"/>
<path d="M267.897 77.9561V164.867" stroke="#9D9D9D" stroke-linecap="round" stroke-linejoin="round"/>
<path d="M273.367 77.1143H262.427V78.7976H273.367V77.1143Z" fill="#9D9D9D"/>
</g>
<defs>
<clipPath id="clip0">
<rect width="345" height="579" fill="white"/>
</clipPath>
</defs>
</svg>
