<svg width="721" height="475" viewBox="0 0 721 475" fill="none" xmlns="http://www.w3.org/2000/svg">
<g opacity="0.2" clip-path="url(#clip0)">
<path d="M162.628 12.4241L162.628 22.4092L320.918 22.4092L320.918 12.4241L162.628 12.4241Z" stroke="#9D9D9D" stroke-linecap="round" stroke-linejoin="round"/>
<path d="M174.145 22.4092L174.145 74.5576" stroke="#9D9D9D" stroke-linecap="round" stroke-linejoin="round"/>
<path d="M209.517 22.4092L209.517 74.5576" stroke="#9D9D9D" stroke-linecap="round" stroke-linejoin="round"/>
<path d="M244.889 22.4092L244.889 74.5576" stroke="#9D9D9D" stroke-linecap="round" stroke-linejoin="round"/>
<path d="M280.262 22.4092L280.262 74.5576" stroke="#9D9D9D" stroke-linecap="round" stroke-linejoin="round"/>
<path d="M315.634 22.4092L315.634 74.5576" stroke="#9D9D9D" stroke-linecap="round" stroke-linejoin="round"/>
<path d="M174.145 -43.715L174.145 12.4238" stroke="#9D9D9D" stroke-linecap="round" stroke-linejoin="round"/>
<path d="M209.517 -43.715L209.517 12.4238" stroke="#9D9D9D" stroke-linecap="round" stroke-linejoin="round"/>
<path d="M244.889 -43.715L244.889 12.4238" stroke="#9D9D9D" stroke-linecap="round" stroke-linejoin="round"/>
<path d="M280.262 -43.715L280.262 12.4238" stroke="#9D9D9D" stroke-linecap="round" stroke-linejoin="round"/>
<path d="M315.634 -43.715L315.634 12.4238" stroke="#9D9D9D" stroke-linecap="round" stroke-linejoin="round"/>
<path d="M393.121 357.621C393.121 364.386 390.433 370.874 385.648 375.658C380.864 380.442 374.374 383.13 367.608 383.13C360.841 383.13 354.352 380.442 349.567 375.658C344.783 370.874 342.095 364.386 342.095 357.621L342.095 306.729C342.095 299.964 344.783 293.475 349.567 288.691C354.352 283.908 360.841 281.22 367.608 281.22C374.374 281.22 380.864 283.908 385.648 288.691C390.433 293.475 393.121 299.964 393.121 306.729L393.121 357.621Z" stroke="#9D9D9D" stroke-linecap="round" stroke-linejoin="round"/>
<path d="M389.476 306.729L389.476 357.621C389.476 363.42 387.172 368.981 383.071 373.082C378.97 377.182 373.407 379.486 367.608 379.486V379.486C361.808 379.486 356.245 377.182 352.144 373.082C348.043 368.981 345.739 363.42 345.739 357.621L345.739 306.729C345.739 300.93 348.043 295.369 352.144 291.268C356.245 287.168 361.808 284.864 367.608 284.864V284.864C373.407 284.864 378.97 287.168 383.071 291.268C387.172 295.369 389.476 300.93 389.476 306.729V306.729Z" stroke="#9D9D9D" stroke-linecap="round" stroke-linejoin="round"/>
<path d="M219.74 391.53L219.74 382.419C219.74 380.921 220.335 379.485 221.395 378.425C222.454 377.366 223.891 376.771 225.39 376.771L258.192 376.771C259.69 376.771 261.127 377.366 262.187 378.425C263.246 379.485 263.841 380.921 263.841 382.419L263.841 391.53L219.74 391.53Z" stroke="#9D9D9D" stroke-linecap="round" stroke-linejoin="round"/>
<path d="M225.007 368.498C224.996 371.314 225.383 374.117 226.155 376.825L257.409 376.825C258.172 374.115 258.558 371.313 258.557 368.498C258.557 355.744 251.049 345.485 241.773 345.485C232.497 345.485 225.007 355.78 225.007 368.498Z" stroke="#9D9D9D" stroke-linecap="round" stroke-linejoin="round"/>
<path d="M229.818 369.865C229.812 372.209 230.087 374.546 230.639 376.825L252.926 376.825C253.462 374.544 253.731 372.208 253.728 369.865C253.728 359.224 248.388 350.587 241.773 350.587C235.158 350.587 229.818 359.224 229.818 369.865Z" stroke="#9D9D9D" stroke-linecap="round" stroke-linejoin="round"/>
<path d="M282.667 385.608C282.669 387.65 283.104 389.668 283.942 391.53L318.749 391.53C319.579 389.665 320.014 387.649 320.025 385.608C320.025 376.497 311.66 369.209 301.346 369.209C291.031 369.209 282.667 376.607 282.667 385.608Z" stroke="#9D9D9D" stroke-linecap="round" stroke-linejoin="round"/>
<path d="M288.025 386.574C288.024 388.267 288.333 389.947 288.936 391.53L313.738 391.53C314.341 389.947 314.65 388.267 314.649 386.574C314.716 384.784 314.42 383 313.781 381.327C313.142 379.655 312.172 378.128 310.929 376.839C309.687 375.549 308.197 374.524 306.549 373.823C304.9 373.123 303.128 372.762 301.337 372.762C299.546 372.762 297.774 373.123 296.126 373.823C294.477 374.524 292.987 375.549 291.745 376.839C290.502 378.128 289.532 379.655 288.893 381.327C288.254 383 287.959 384.784 288.025 386.574V386.574Z" stroke="#9D9D9D" stroke-linecap="round" stroke-linejoin="round"/>
<path d="M303.332 382.765L303.332 391.53L298.54 391.53L298.54 382.765C298.54 382.132 298.791 381.525 299.239 381.078C299.686 380.63 300.294 380.379 300.927 380.379V380.379C301.562 380.379 302.171 380.629 302.621 381.077C303.072 381.524 303.328 382.131 303.332 382.765V382.765Z" stroke="#9D9D9D" stroke-linecap="round" stroke-linejoin="round"/>
<path d="M83.4824 74.5576L83.4824 391.53" stroke="#9D9D9D" stroke-width="3" stroke-linecap="round" stroke-linejoin="round"/>
<path d="M107.009 164.66L107.009 310.374C107.009 316.663 112.109 321.762 118.399 321.762L169.917 321.762C176.208 321.762 181.307 316.663 181.307 310.374L181.307 164.66C181.307 158.371 176.208 153.272 169.917 153.272L118.399 153.272C112.109 153.272 107.009 158.371 107.009 164.66Z" stroke="#9D9D9D" stroke-linecap="round" stroke-linejoin="round"/>
<path d="M123.647 216.845L123.647 274.168C123.647 278.657 127.286 282.295 131.775 282.295L156.523 282.295C161.012 282.295 164.651 278.657 164.651 274.168L164.651 216.845C164.651 212.357 161.012 208.719 156.523 208.719L131.775 208.719C127.286 208.719 123.647 212.357 123.647 216.845Z" stroke="#9D9D9D" stroke-linecap="round" stroke-linejoin="round"/>
<path d="M131.192 282.295L121.479 298.894L166.837 298.894L155.684 282.295L131.192 282.295Z" stroke="#9D9D9D" stroke-linecap="round" stroke-linejoin="round"/>
<path d="M128.914 208.718L117.579 189.659L170.61 189.659L157.58 208.718L128.914 208.718Z" stroke="#9D9D9D" stroke-linecap="round" stroke-linejoin="round"/>
<path d="M121.479 189.659L107.009 169.069C118.29 169.069 127.438 162 127.438 153.272L160.86 153.272C160.86 162 169.972 169.069 181.307 169.069L166.837 189.659L121.479 189.659Z" stroke="#9D9D9D" stroke-linecap="round" stroke-linejoin="round"/>
<path d="M114.299 245.507L114.299 282.295L123.648 275.152L123.648 245.507L123.648 215.861L114.299 208.719L114.299 245.507Z" stroke="#9D9D9D" stroke-linecap="round" stroke-linejoin="round"/>
<path d="M174.145 245.507L174.145 208.719L164.796 215.861L164.796 245.507L164.796 275.152L174.145 282.295L174.145 245.507Z" stroke="#9D9D9D" stroke-linecap="round" stroke-linejoin="round"/>
<path d="M107.009 210.796C107.009 210.796 99.2456 220.963 96.7854 216.098C94.3252 211.233 107.009 204.473 107.009 210.796Z" stroke="#9D9D9D" stroke-linecap="round" stroke-linejoin="round"/>
<path d="M181.307 210.796C181.307 210.796 189.07 220.963 191.531 216.098C193.991 211.233 181.307 204.473 181.307 210.796Z" stroke="#9D9D9D" stroke-linecap="round" stroke-linejoin="round"/>
<path d="M439.645 292.608L428.183 292.608L428.183 343.627L439.645 343.627L518.791 343.627L530.253 343.627L530.253 332.184L530.253 292.608L518.791 292.608L518.791 332.184L439.645 332.184L439.645 292.608Z" stroke="#9D9D9D" stroke-linecap="round" stroke-linejoin="round"/>
<path d="M439.646 292.608L439.646 332.184L479.227 332.184L479.227 292.608L439.646 292.608Z" stroke="#9D9D9D" stroke-linecap="round" stroke-linejoin="round"/>
<path d="M479.227 292.608L479.227 332.184L518.809 332.184L518.809 292.608L479.227 292.608Z" stroke="#9D9D9D" stroke-linecap="round" stroke-linejoin="round"/>
<path d="M439.645 134.341L428.183 134.341L428.183 83.3221L439.645 83.3221L479.227 83.3221L490.671 83.3221L490.671 94.7649L490.671 134.341L479.227 134.341L479.227 94.7649L439.645 94.7649L439.645 134.341Z" stroke="#9D9D9D" stroke-linecap="round" stroke-linejoin="round"/>
<path d="M479.227 134.341L479.227 94.7646L439.645 94.7647L439.645 134.341L479.227 134.341Z" stroke="#9D9D9D" stroke-linecap="round" stroke-linejoin="round"/>
<path d="M507.346 251.483L507.346 262.926L558.372 262.926L558.372 251.483L558.372 172.349L558.372 160.888L546.909 160.888L507.346 160.888L507.346 172.349L546.909 172.349L546.909 251.483L507.346 251.483Z" stroke="#9D9D9D" stroke-linecap="round" stroke-linejoin="round"/>
<path d="M507.346 251.465L546.928 251.465L546.928 211.889L507.346 211.889L507.346 251.465Z" stroke="#9D9D9D" stroke-linecap="round" stroke-linejoin="round"/>
<path d="M507.327 211.907L546.909 211.907L546.909 172.331L507.327 172.331L507.327 211.907Z" stroke="#9D9D9D" stroke-linecap="round" stroke-linejoin="round"/>
<path d="M436.456 186.015L436.456 237.799C436.456 250.489 446.745 260.776 459.436 260.776C472.128 260.776 482.416 250.489 482.416 237.799L482.416 186.015C482.416 173.326 472.128 163.039 459.436 163.039C446.745 163.039 436.456 173.326 436.456 186.015Z" stroke="#9D9D9D" stroke-linecap="round" stroke-linejoin="round"/>
<path d="M637.517 -43.7148L637.517 34.9816L558.372 34.9816L558.372 391.53L400.063 391.53L320.918 391.53L202.209 391.53L202.209 74.5576L83.4824 74.5576L83.4824 -202.857L320.918 -202.857L320.918 -241.558L479.227 -241.558L479.227 -162.424L637.517 -162.424L637.517 -83.2907L597.936 -83.2907" stroke="#9D9D9D" stroke-width="3" stroke-linecap="round" stroke-linejoin="round"/>
<path d="M558.372 34.9815L400.063 34.9815L400.063 154.128" stroke="#9D9D9D" stroke-width="3" stroke-linecap="round" stroke-linejoin="round"/>
<path d="M400.063 391.53L400.063 272.82L281.354 272.82" stroke="#9D9D9D" stroke-width="3" stroke-linecap="round" stroke-linejoin="round"/>
<path d="M281.355 272.748C281.357 274.576 281.229 276.403 280.972 278.214" stroke="#9D9D9D" stroke-linecap="round" stroke-linejoin="round"/>
<path d="M279.951 283.297C278.014 290.337 274.169 296.705 268.84 301.699C263.512 306.692 256.907 310.116 249.755 311.594" stroke="#9D9D9D" stroke-linecap="round" stroke-linejoin="round" stroke-dasharray="5.62 2.81"/>
<path d="M247.222 312.032C245.41 312.275 243.583 312.396 241.755 312.396" stroke="#9D9D9D" stroke-linecap="round" stroke-linejoin="round"/>
<path d="M202.209 74.5578L320.918 74.9951" stroke="#9D9D9D" stroke-width="3" stroke-linecap="round" stroke-linejoin="round"/>
<path d="M202.209 272.82L241.773 272.82L241.773 312.396" stroke="#9D9D9D" stroke-width="3" stroke-linecap="round" stroke-linejoin="round"/>
<path d="M202.21 391.529L181.307 431.105" stroke="#9D9D9D" stroke-width="3" stroke-linecap="round" stroke-linejoin="round"/>
<path d="M83.4824 391.53L104.64 431.106" stroke="#9D9D9D" stroke-width="3" stroke-linecap="round" stroke-linejoin="round"/>
<path d="M180.961 431.762C173.647 427.889 167.526 422.098 163.256 415.01C158.986 407.922 156.728 399.804 156.723 391.53" stroke="#9D9D9D" stroke-linecap="round" stroke-linejoin="round" stroke-dasharray="6 3"/>
<path d="M105.442 431.434C112.762 427.562 118.888 421.769 123.161 414.677C127.435 407.585 129.695 399.463 129.698 391.183" stroke="#9D9D9D" stroke-linecap="round" stroke-linejoin="round" stroke-dasharray="6 3"/>
<path d="M479.227 -4.15718L479.227 34.9814L597.954 34.9814L597.954 -4.15719L479.227 -4.15718Z" stroke="#9D9D9D" stroke-linecap="round" stroke-linejoin="round"/>
<path d="M533.059 11.5311L533.059 34.9814L583.666 34.9814L583.666 11.5311L533.059 11.5311Z" stroke="#9D9D9D" stroke-linecap="round" stroke-linejoin="round"/>
<path d="M510.262 23.2653C510.262 17.0463 505.219 12.0047 499 12.0047C492.78 12.0047 487.737 17.0463 487.737 23.2653C487.737 29.4844 492.78 34.5259 499 34.5259C505.219 34.5259 510.262 29.4844 510.262 23.2653Z" stroke="#9D9D9D" stroke-linecap="round" stroke-linejoin="round"/>
<path d="M202.209 431.105L344.117 431.105" stroke="#9D9D9D" stroke-linecap="round" stroke-linejoin="round"/>
<path d="M201.298 425.184L201.298 437.028L203.121 437.028L203.121 425.184L201.298 425.184Z" fill="#9D9D9D"/>
<path d="M557.461 431.105L415.535 431.105" stroke="#9D9D9D" stroke-linecap="round" stroke-linejoin="round"/>
<path d="M556.55 425.184L556.55 437.028L558.372 437.028L558.372 425.184L556.55 425.184Z" fill="#9D9D9D"/>
<path d="M393.639 439.907C393.559 439.907 393.492 439.877 393.439 439.817C393.379 439.763 393.349 439.697 393.349 439.617C393.349 439.53 393.379 439.46 393.439 439.407C393.492 439.353 393.559 439.327 393.639 439.327L397.389 439.327C397.482 439.327 397.559 439.353 397.619 439.407C397.679 439.46 397.709 439.533 397.709 439.627C397.709 439.7 397.682 439.77 397.629 439.837L395.319 442.387C394.946 442.787 394.669 443.143 394.489 443.457C394.309 443.777 394.219 444.09 394.219 444.397C394.219 444.85 394.356 445.207 394.629 445.467C394.902 445.727 395.282 445.857 395.769 445.857C396.096 445.857 396.389 445.777 396.649 445.617C396.902 445.463 397.092 445.227 397.219 444.907C397.292 444.787 397.379 444.727 397.479 444.727C397.552 444.727 397.622 444.753 397.689 444.807C397.756 444.86 397.789 444.92 397.789 444.987C397.789 445.027 397.776 445.073 397.749 445.127C397.722 445.18 397.689 445.233 397.649 445.287C397.476 445.647 397.216 445.927 396.869 446.127C396.522 446.327 396.142 446.427 395.729 446.427C395.056 446.427 394.529 446.243 394.149 445.877C393.769 445.51 393.579 445.03 393.579 444.437C393.579 444.07 393.679 443.693 393.879 443.307C394.079 442.927 394.409 442.483 394.869 441.977L396.709 439.907L393.639 439.907ZM389.925 439.227C390.452 439.227 390.895 439.383 391.255 439.697C391.615 440.01 391.888 440.437 392.075 440.977C392.255 441.523 392.345 442.14 392.345 442.827C392.345 443.52 392.255 444.137 392.075 444.677C391.895 445.217 391.625 445.643 391.265 445.957C390.898 446.27 390.452 446.427 389.925 446.427C389.398 446.427 388.955 446.27 388.595 445.957C388.228 445.65 387.955 445.223 387.775 444.677C387.588 444.137 387.495 443.52 387.495 442.827C387.495 442.14 387.588 441.523 387.775 440.977C387.955 440.437 388.228 440.01 388.595 439.697C388.955 439.383 389.398 439.227 389.925 439.227ZM389.925 439.847C389.352 439.847 388.912 440.113 388.605 440.647C388.292 441.187 388.135 441.913 388.135 442.827C388.135 443.747 388.292 444.473 388.605 445.007C388.912 445.547 389.352 445.817 389.925 445.817C390.492 445.817 390.932 445.547 391.245 445.007C391.552 444.473 391.705 443.747 391.705 442.827C391.705 441.913 391.552 441.187 391.245 440.647C390.932 440.113 390.492 439.847 389.925 439.847ZM383.978 439.227C384.504 439.227 384.948 439.383 385.308 439.697C385.668 440.01 385.941 440.437 386.128 440.977C386.308 441.523 386.398 442.14 386.398 442.827C386.398 443.52 386.308 444.137 386.128 444.677C385.948 445.217 385.678 445.643 385.318 445.957C384.951 446.27 384.504 446.427 383.978 446.427C383.451 446.427 383.008 446.27 382.648 445.957C382.281 445.65 382.008 445.223 381.828 444.677C381.641 444.137 381.548 443.52 381.548 442.827C381.548 442.14 381.641 441.523 381.828 440.977C382.008 440.437 382.281 440.01 382.648 439.697C383.008 439.383 383.451 439.227 383.978 439.227ZM383.978 439.847C383.404 439.847 382.964 440.113 382.658 440.647C382.344 441.187 382.188 441.913 382.188 442.827C382.188 443.747 382.344 444.473 382.658 445.007C382.964 445.547 383.404 445.817 383.978 445.817C384.544 445.817 384.984 445.547 385.298 445.007C385.604 444.473 385.758 443.747 385.758 442.827C385.758 441.913 385.604 441.187 385.298 440.647C384.984 440.113 384.544 439.847 383.978 439.847ZM378.03 439.227C378.557 439.227 379 439.383 379.36 439.697C379.72 440.01 379.994 440.437 380.18 440.977C380.36 441.523 380.45 442.14 380.45 442.827C380.45 443.52 380.36 444.137 380.18 444.677C380 445.217 379.73 445.643 379.37 445.957C379.004 446.27 378.557 446.427 378.03 446.427C377.504 446.427 377.06 446.27 376.7 445.957C376.334 445.65 376.06 445.223 375.88 444.677C375.694 444.137 375.6 443.52 375.6 442.827C375.6 442.14 375.694 441.523 375.88 440.977C376.06 440.437 376.334 440.01 376.7 439.697C377.06 439.383 377.504 439.227 378.03 439.227ZM378.03 439.847C377.457 439.847 377.017 440.113 376.71 440.647C376.397 441.187 376.24 441.913 376.24 442.827C376.24 443.747 376.397 444.473 376.71 445.007C377.017 445.547 377.457 445.817 378.03 445.817C378.597 445.817 379.037 445.547 379.35 445.007C379.657 444.473 379.81 443.747 379.81 442.827C379.81 441.913 379.657 441.187 379.35 440.647C379.037 440.113 378.597 439.847 378.03 439.847Z" fill="#9D9D9D"/>
<path d="M43.9004 74.0842L43.9004 200.52" stroke="#9D9D9D" stroke-linecap="round" stroke-linejoin="round"/>
<path d="M37.978 73.173L37.978 74.9951L49.8234 74.9951L49.8234 73.173L37.978 73.173Z" fill="#9D9D9D"/>
<path d="M43.9004 390.619L43.9004 264.183" stroke="#9D9D9D" stroke-linecap="round" stroke-linejoin="round"/>
<path d="M37.978 389.708L37.978 391.53L49.8234 391.53L49.8234 389.708L37.978 389.708Z" fill="#9D9D9D"/>
<path d="M28.6768 249.598C28.6834 249.525 28.7168 249.465 28.7768 249.418C28.8301 249.365 28.8968 249.338 28.9768 249.338L35.3768 249.338C35.4634 249.338 35.5368 249.372 35.5968 249.438C35.6501 249.498 35.6768 249.575 35.6768 249.668C35.6768 249.755 35.6501 249.828 35.5968 249.888C35.5368 249.948 35.4634 249.978 35.3768 249.978L29.5268 249.978L30.2668 251.228C30.2934 251.275 30.3068 251.322 30.3068 251.368C30.3068 251.455 30.2734 251.532 30.2068 251.598C30.1401 251.658 30.0668 251.688 29.9868 251.688C29.9401 251.688 29.8934 251.675 29.8468 251.648C29.8001 251.615 29.7634 251.575 29.7368 251.528L28.7168 249.838C28.6768 249.772 28.6634 249.692 28.6768 249.598ZM35.0968 243.478C35.0968 243.398 35.1268 243.332 35.1868 243.278C35.2401 243.218 35.3068 243.188 35.3868 243.188C35.4734 243.188 35.5434 243.218 35.5968 243.278C35.6501 243.332 35.6768 243.398 35.6768 243.478L35.6768 247.228C35.6768 247.322 35.6501 247.398 35.5968 247.458C35.5434 247.518 35.4701 247.548 35.3768 247.548C35.3034 247.548 35.2334 247.522 35.1668 247.468L32.6168 245.158C32.2168 244.785 31.8601 244.508 31.5468 244.328C31.2268 244.148 30.9134 244.058 30.6068 244.058C30.1534 244.058 29.7968 244.195 29.5368 244.468C29.2768 244.742 29.1468 245.122 29.1468 245.608C29.1468 245.935 29.2268 246.228 29.3868 246.488C29.5401 246.742 29.7768 246.932 30.0968 247.058C30.2168 247.132 30.2768 247.218 30.2768 247.318C30.2768 247.392 30.2501 247.462 30.1968 247.528C30.1434 247.595 30.0834 247.628 30.0168 247.628C29.9768 247.628 29.9301 247.615 29.8768 247.588C29.8234 247.562 29.7701 247.528 29.7168 247.488C29.3568 247.315 29.0768 247.055 28.8768 246.708C28.6768 246.362 28.5768 245.982 28.5768 245.568C28.5768 244.895 28.7601 244.368 29.1268 243.988C29.4934 243.608 29.9734 243.418 30.5668 243.418C30.9334 243.418 31.3101 243.518 31.6968 243.718C32.0768 243.918 32.5201 244.248 33.0268 244.708L35.0968 246.548L35.0968 243.478ZM35.7768 239.764C35.7768 240.291 35.6201 240.734 35.3068 241.094C34.9934 241.454 34.5668 241.728 34.0268 241.914C33.4801 242.094 32.8634 242.184 32.1768 242.184C31.4834 242.184 30.8668 242.094 30.3268 241.914C29.7868 241.734 29.3601 241.464 29.0468 241.104C28.7334 240.738 28.5768 240.291 28.5768 239.764C28.5768 239.238 28.7334 238.794 29.0468 238.434C29.3534 238.068 29.7801 237.794 30.3268 237.614C30.8668 237.428 31.4834 237.334 32.1768 237.334C32.8634 237.334 33.4801 237.428 34.0268 237.614C34.5668 237.794 34.9934 238.068 35.3068 238.434C35.6201 238.794 35.7768 239.238 35.7768 239.764ZM35.1568 239.764C35.1568 239.191 34.8901 238.751 34.3568 238.444C33.8168 238.131 33.0901 237.974 32.1768 237.974C31.2568 237.974 30.5301 238.131 29.9968 238.444C29.4568 238.751 29.1868 239.191 29.1868 239.764C29.1868 240.331 29.4568 240.771 29.9968 241.084C30.5301 241.391 31.2568 241.544 32.1768 241.544C33.0901 241.544 33.8168 241.391 34.3568 241.084C34.8901 240.771 35.1568 240.331 35.1568 239.764ZM35.7768 233.817C35.7768 234.344 35.6201 234.787 35.3068 235.147C34.9934 235.507 34.5668 235.78 34.0268 235.967C33.4801 236.147 32.8634 236.237 32.1768 236.237C31.4834 236.237 30.8668 236.147 30.3268 235.967C29.7868 235.787 29.3601 235.517 29.0468 235.157C28.7334 234.79 28.5768 234.344 28.5768 233.817C28.5768 233.29 28.7334 232.847 29.0468 232.487C29.3534 232.12 29.7801 231.847 30.3268 231.667C30.8668 231.48 31.4834 231.387 32.1768 231.387C32.8634 231.387 33.4801 231.48 34.0268 231.667C34.5668 231.847 34.9934 232.12 35.3068 232.487C35.6201 232.847 35.7768 233.29 35.7768 233.817ZM35.1568 233.817C35.1568 233.244 34.8901 232.804 34.3568 232.497C33.8168 232.184 33.0901 232.027 32.1768 232.027C31.2568 232.027 30.5301 232.184 29.9968 232.497C29.4568 232.804 29.1868 233.244 29.1868 233.817C29.1868 234.384 29.4568 234.824 29.9968 235.137C30.5301 235.444 31.2568 235.597 32.1768 235.597C33.0901 235.597 33.8168 235.444 34.3568 235.137C34.8901 234.824 35.1568 234.384 35.1568 233.817Z" fill="#9D9D9D"/>
<path d="M43.9004 73.646L43.9004 -36.4087" stroke="#9D9D9D" stroke-linecap="round" stroke-linejoin="round"/>
<path d="M37.978 72.7355L37.978 74.5576L49.8234 74.5576L49.8234 72.7354L37.978 72.7355Z" fill="#9D9D9D"/>
<path d="M597.936 390.619L597.936 248.732" stroke="#9D9D9D" stroke-linecap="round" stroke-linejoin="round"/>
<path d="M592.013 389.708L592.013 391.53L603.859 391.53L603.859 389.708L592.013 389.708Z" fill="#9D9D9D"/>
<path d="M597.936 35.4187L597.936 177.324" stroke="#9D9D9D" stroke-linecap="round" stroke-linejoin="round"/>
<path d="M592.013 34.508L592.013 36.3301L603.859 36.3301L603.859 34.508L592.013 34.508Z" fill="#9D9D9D"/>
<path d="M582.712 228.462C582.719 228.389 582.752 228.329 582.812 228.282C582.865 228.229 582.932 228.202 583.012 228.202L589.412 228.202C589.499 228.202 589.572 228.235 589.632 228.302C589.685 228.362 589.712 228.439 589.712 228.532C589.712 228.619 589.685 228.692 589.632 228.752C589.572 228.812 589.499 228.842 589.412 228.842L583.562 228.842L584.302 230.092C584.329 230.139 584.342 230.185 584.342 230.232C584.342 230.319 584.309 230.395 584.242 230.462C584.175 230.522 584.102 230.552 584.022 230.552C583.975 230.552 583.929 230.539 583.882 230.512C583.835 230.479 583.799 230.439 583.772 230.392L582.752 228.702C582.712 228.635 582.699 228.555 582.712 228.462ZM585.062 224.742C585.062 224.315 585.159 223.932 585.352 223.592C585.539 223.245 585.805 222.975 586.152 222.782C586.492 222.582 586.875 222.482 587.302 222.482C587.769 222.482 588.189 222.592 588.562 222.812C588.929 223.025 589.215 223.325 589.422 223.712C589.629 224.099 589.732 224.539 589.732 225.032C589.732 225.312 589.685 225.592 589.592 225.872C589.499 226.145 589.365 226.385 589.192 226.592C589.165 226.632 589.129 226.665 589.082 226.692C589.029 226.712 588.979 226.722 588.932 226.722C588.865 226.722 588.802 226.695 588.742 226.642C588.675 226.582 588.642 226.512 588.642 226.432C588.642 226.359 588.672 226.285 588.732 226.212C588.865 226.039 588.969 225.852 589.042 225.652C589.115 225.445 589.152 225.239 589.152 225.032C589.152 224.652 589.075 224.315 588.922 224.022C588.769 223.722 588.552 223.492 588.272 223.332C587.992 223.165 587.675 223.082 587.322 223.082C586.815 223.082 586.409 223.245 586.102 223.572C585.789 223.899 585.632 224.335 585.632 224.882C585.632 225.089 585.662 225.282 585.722 225.462C585.782 225.635 585.862 225.832 585.962 226.052C586.042 226.212 586.082 226.315 586.082 226.362C586.082 226.462 586.052 226.545 585.992 226.612C585.925 226.672 585.849 226.702 585.762 226.702C585.729 226.702 585.702 226.699 585.682 226.692L582.962 226.262C582.895 226.249 582.839 226.215 582.792 226.162C582.739 226.102 582.712 226.032 582.712 225.952L582.712 222.942C582.712 222.862 582.742 222.795 582.802 222.742C582.855 222.682 582.925 222.652 583.012 222.652C583.092 222.652 583.162 222.682 583.222 222.742C583.275 222.795 583.302 222.862 583.302 222.942L583.302 225.742L585.372 226.082C585.285 225.909 585.212 225.705 585.152 225.472C585.092 225.232 585.062 224.989 585.062 224.742ZM589.812 218.814C589.812 219.34 589.655 219.784 589.342 220.144C589.029 220.504 588.602 220.777 588.062 220.964C587.515 221.144 586.899 221.234 586.212 221.234C585.519 221.234 584.902 221.144 584.362 220.964C583.822 220.784 583.395 220.514 583.082 220.154C582.769 219.787 582.612 219.34 582.612 218.814C582.612 218.287 582.769 217.844 583.082 217.484C583.389 217.117 583.815 216.844 584.362 216.664C584.902 216.477 585.519 216.384 586.212 216.384C586.899 216.384 587.515 216.477 588.062 216.664C588.602 216.844 589.029 217.117 589.342 217.484C589.655 217.844 589.812 218.287 589.812 218.814ZM589.192 218.814C589.192 218.24 588.925 217.8 588.392 217.494C587.852 217.18 587.125 217.024 586.212 217.024C585.292 217.024 584.565 217.18 584.032 217.494C583.492 217.8 583.222 218.24 583.222 218.814C583.222 219.38 583.492 219.82 584.032 220.134C584.565 220.44 585.292 220.594 586.212 220.594C587.125 220.594 587.852 220.44 588.392 220.134C588.925 219.82 589.192 219.38 589.192 218.814ZM589.812 212.866C589.812 213.393 589.655 213.836 589.342 214.196C589.029 214.556 588.602 214.83 588.062 215.016C587.515 215.196 586.899 215.286 586.212 215.286C585.519 215.286 584.902 215.196 584.362 215.016C583.822 214.836 583.395 214.566 583.082 214.206C582.769 213.84 582.612 213.393 582.612 212.866C582.612 212.34 582.769 211.896 583.082 211.536C583.389 211.17 583.815 210.896 584.362 210.716C584.902 210.53 585.519 210.436 586.212 210.436C586.899 210.436 587.515 210.53 588.062 210.716C588.602 210.896 589.029 211.17 589.342 211.536C589.655 211.896 589.812 212.34 589.812 212.866ZM589.192 212.866C589.192 212.293 588.925 211.853 588.392 211.546C587.852 211.233 587.125 211.076 586.212 211.076C585.292 211.076 584.565 211.233 584.032 211.546C583.492 211.853 583.222 212.293 583.222 212.866C583.222 213.433 583.492 213.873 584.032 214.186C584.565 214.493 585.292 214.646 586.212 214.646C587.125 214.646 587.852 214.493 588.392 214.186C588.925 213.873 589.192 213.433 589.192 212.866Z" fill="#9D9D9D"/>
<path d="M677.081 34.5078L677.081 -34.2764" stroke="#9D9D9D" stroke-linecap="round" stroke-linejoin="round"/>
<path d="M671.158 33.5964L671.158 35.4185L683.004 35.4185L683.004 33.5964L671.158 33.5964Z" fill="#9D9D9D"/>
<path d="M4.3374 386.027L4.33738 -236.056" stroke="#9D9D9D" stroke-linecap="round" stroke-linejoin="round"/>
<path d="M4.33723 391.53C5.33915 388.713 6.8051 386.083 8.67445 383.749L4.33723 385.316L-3.40091e-07 383.749C1.85611 386.092 3.32079 388.719 4.33723 391.53Z" fill="#9D9D9D"/>
<path d="M632.068 470.663L88.9858 470.663" stroke="#9D9D9D" stroke-linecap="round" stroke-linejoin="round"/>
<path d="M637.572 470.663C634.751 469.658 632.115 468.193 629.772 466.327L631.34 470.663L629.772 475C632.124 473.147 634.757 471.683 637.572 470.663Z" fill="#9D9D9D"/>
<path d="M83.4824 470.663C86.2999 469.662 88.93 468.196 91.2639 466.327L89.6967 470.663L91.2639 475C88.9211 473.144 86.2933 471.68 83.4824 470.663Z" fill="#9D9D9D"/>
<path d="M716.663 30.3535L716.663 -156.922" stroke="#9D9D9D" stroke-linecap="round" stroke-linejoin="round"/>
<path d="M716.663 35.874C717.679 33.0636 719.144 30.4362 721 28.0937L716.663 29.6607L712.326 28.0937C714.187 30.4325 715.652 33.0609 716.663 35.874Z" fill="#9D9D9D"/>
<path d="M637.518 386.027L637.518 40.4842" stroke="#9D9D9D" stroke-linecap="round" stroke-linejoin="round"/>
<path d="M637.517 391.53C638.528 388.717 639.993 386.088 641.855 383.749L637.517 385.316L633.18 383.749C635.036 386.092 636.501 388.719 637.517 391.53Z" fill="#9D9D9D"/>
<path d="M637.517 34.9818C638.528 37.795 639.993 40.4233 641.855 42.7622L637.517 41.1952L633.18 42.7622C635.036 40.4197 636.501 37.7923 637.517 34.9818Z" fill="#9D9D9D"/>
</g>
<defs>
<clipPath id="clip0">
<rect width="475" height="721" fill="white" transform="translate(0 475) rotate(-90)"/>
</clipPath>
</defs>
</svg>
