<?xml version="1.0" encoding="utf-8"?>
<!-- Generator: Adobe Illustrator 21.0.0, SVG Export Plug-In . SVG Version: 6.00 Build 0)  -->
<svg version="1.1" id="Слой_1" xmlns="http://www.w3.org/2000/svg" xmlns:xlink="http://www.w3.org/1999/xlink" x="0px" y="0px"
	 viewBox="0 0 30 26" style="enable-background:new 0 0 30 26;" xml:space="preserve">
<style type="text/css">
	.st0{fill:#FFFFFF;}
</style>
<path class="st0" d="M27.6,2.5c-1.6-1.6-3.7-2.5-6-2.5c-1.7,0-3.3,0.5-4.7,1.6c-0.7,0.5-1.3,1.2-1.9,1.9c-0.6-0.8-1.2-1.4-1.9-1.9
	C11.7,0.5,10.1,0,8.4,0c-2.3,0-4.4,0.9-6,2.5C0.8,4.2,0,6.4,0,8.8c0,2.5,0.9,4.7,3,7.1c1.8,2.1,4.4,4.3,7.4,6.8l0,0
	c1,0.9,2.2,1.8,3.4,2.9c0.3,0.3,0.7,0.4,1.2,0.4c0.4,0,0.8-0.2,1.2-0.4c1.2-1,2.4-2,3.4-2.9c3-2.5,5.6-4.7,7.4-6.8
	c2-2.4,3-4.6,3-7.1C30,6.4,29.2,4.2,27.6,2.5z M25.6,14.9c-1.7,2-4.3,4.1-7.2,6.6c-1,0.9-2.2,1.8-3.4,2.9c-1.2-1-2.4-2-3.4-2.9l0,0
	c-2.9-2.4-5.5-4.6-7.2-6.6c-1.8-2.1-2.6-3.9-2.6-6c0-2,0.7-3.8,1.9-5.1c1.2-1.3,2.9-2,4.7-2C9.7,1.8,11,2.2,12,3
	c1,0.7,1.6,1.6,2,2.3c0.2,0.3,0.6,0.5,0.9,0.5s0.7-0.2,0.9-0.5C16.3,4.7,17,3.8,18,3c1.1-0.8,2.3-1.2,3.6-1.2c1.8,0,3.5,0.7,4.7,2
	c1.2,1.3,1.9,3.1,1.9,5.1C28.2,10.9,27.4,12.8,25.6,14.9z"/>
</svg>
