<?xml version="1.0" encoding="utf-8"?>
<!-- Generator: Adobe Illustrator 21.0.0, SVG Export Plug-In . SVG Version: 6.00 Build 0)  -->
<svg version="1.1" id="Capa_1" xmlns="http://www.w3.org/2000/svg" xmlns:xlink="http://www.w3.org/1999/xlink" x="0px" y="0px"
	 viewBox="0 0 26 26" style="enable-background:new 0 0 26 26;" xml:space="preserve">
<style type="text/css">
	.st0{fill:#FFFFFF;}
</style>
<path class="st0" d="M25.8,24.3l-7.6-7.6c1.4-1.8,2.3-4,2.3-6.5C20.6,4.6,16,0,10.3,0S0,4.6,0,10.3s4.6,10.3,10.3,10.3
	c2.4,0,4.7-0.9,6.5-2.3l7.6,7.6c0.2,0.2,0.6,0.2,0.8,0l0.8-0.8C26.1,24.9,26.1,24.5,25.8,24.3z M10.3,18.7c-4.6,0-8.4-3.8-8.4-8.4
	s3.8-8.4,8.4-8.4s8.4,3.8,8.4,8.4S14.9,18.7,10.3,18.7z"/>
</svg>
