<?xml version="1.0" encoding="utf-8"?>
<!-- Generator: Adobe Illustrator 21.0.0, SVG Export Plug-In . SVG Version: 6.00 Build 0)  -->
<svg version="1.1" id="Capa_1" xmlns="http://www.w3.org/2000/svg" xmlns:xlink="http://www.w3.org/1999/xlink" x="0px" y="0px"
	 viewBox="0 0 21 26" style="enable-background:new 0 0 21 26;" xml:space="preserve">
<style type="text/css">
	.st0{fill:#FFFFFF;}
</style>
<path class="st0" d="M21,24.9L19.4,7.3c0-0.5-0.4-0.8-0.9-0.8h-3.2V5c0-2.7-2.2-5-4.9-5C7.8,0,5.6,2.3,5.6,5v1.5H2.5
	C2,6.5,1.6,6.8,1.6,7.3L0,25c0,0.3,0.1,0.5,0.2,0.7S0.7,26,0.9,26h19.2c0,0,0,0,0,0c0.5,0,0.9-0.4,0.9-0.9C21,25,21,25,21,24.9z
	 M7.5,5c0-1.7,1.4-3.1,3-3.1c1.7,0,3,1.4,3,3.1v1.5H7.5V5z M1.9,24.1L3.3,8.3h2.4V10c0,0.5,0.4,0.9,0.9,0.9s0.9-0.4,0.9-0.9V8.3h6.1
	V10c0,0.5,0.4,0.9,0.9,0.9c0.5,0,0.9-0.4,0.9-0.9V8.3h2.4l1.4,15.8L1.9,24.1L1.9,24.1z"/>
</svg>
