<svg width="139" height="64" viewBox="0 0 139 64" fill="none" xmlns="http://www.w3.org/2000/svg">
<path d="M63.8252 28.7346C62.7456 28.7346 62.2058 28.1762 62.2058 27.0593V10.2785C62.2058 9.16167 62.7642 8.60324 63.8811 8.60324C64.3464 8.60324 64.7094 8.69631 64.97 8.88245C65.2492 9.04998 65.5005 9.34781 65.7239 9.77594L72.1738 21.6984L78.6236 9.77594C78.847 9.34781 79.089 9.04998 79.3496 8.88245C79.6102 8.69631 79.9731 8.60324 80.4385 8.60324C81.5181 8.60324 82.0579 9.16167 82.0579 10.2785V27.0593C82.0579 28.1762 81.5181 28.7346 80.4385 28.7346C79.3589 28.7346 78.8191 28.1762 78.8191 27.0593V15.2485L73.5698 24.8256C73.3837 25.142 73.1882 25.3747 72.9835 25.5236C72.7787 25.6725 72.4995 25.747 72.1458 25.747C71.7922 25.747 71.5036 25.6725 71.2803 25.5236C71.0569 25.3561 70.8614 25.1234 70.6939 24.8256L65.4447 15.3044V27.0593C65.4447 28.1762 64.9049 28.7346 63.8252 28.7346ZM89.713 28.7904C88.7264 28.7904 87.8423 28.6043 87.0605 28.232C86.2973 27.8411 85.6923 27.3199 85.2456 26.6684C84.8174 26.0169 84.6034 25.2816 84.6034 24.4626C84.6034 23.4574 84.864 22.6663 85.3852 22.0893C85.9064 21.4936 86.7533 21.0655 87.926 20.8049C89.0987 20.5443 90.6716 20.414 92.6448 20.414H93.622V19.8277C93.622 18.8969 93.4172 18.2268 93.0077 17.8173C92.5982 17.4078 91.9095 17.203 90.9415 17.203C90.4017 17.203 89.8154 17.2682 89.1825 17.3985C88.5682 17.5288 87.9167 17.7522 87.228 18.0686C86.7812 18.2734 86.409 18.3013 86.1111 18.1524C85.8133 17.9848 85.6085 17.7336 85.4969 17.3985C85.4038 17.0448 85.4224 16.6912 85.5527 16.3375C85.7016 15.9838 85.9901 15.7232 86.4183 15.5557C87.2745 15.202 88.0936 14.9507 88.8754 14.8018C89.6758 14.6529 90.4017 14.5784 91.0532 14.5784C93.045 14.5784 94.5248 15.0438 95.4927 15.9745C96.4607 16.8866 96.9447 18.3106 96.9447 20.2465V26.9476C96.9447 28.1389 96.4048 28.7346 95.3252 28.7346C94.227 28.7346 93.6778 28.1389 93.6778 26.9476V26.3334C93.3614 27.0965 92.8588 27.7015 92.1701 28.1483C91.4814 28.5764 90.6623 28.7904 89.713 28.7904ZM90.439 26.3892C91.3511 26.3892 92.1049 26.0728 92.7006 25.4399C93.3149 24.807 93.622 24.0066 93.622 23.0386V22.4244H92.6727C90.9229 22.4244 89.7037 22.564 89.015 22.8432C88.3448 23.1038 88.0098 23.5877 88.0098 24.2951C88.0098 24.9094 88.2239 25.4119 88.652 25.8029C89.0801 26.1938 89.6758 26.3892 90.439 26.3892ZM101.437 28.7346C100.282 28.7346 99.7054 28.1389 99.7054 26.9476V16.3933C99.7054 15.2206 100.273 14.6343 101.409 14.6343C102.544 14.6343 103.112 15.2206 103.112 16.3933V16.9518C103.521 16.2072 104.089 15.6301 104.815 15.2206C105.541 14.7925 106.379 14.5784 107.328 14.5784C109.376 14.5784 110.716 15.4719 111.349 17.2589C111.777 16.4212 112.391 15.7697 113.191 15.3044C113.992 14.8204 114.904 14.5784 115.928 14.5784C118.999 14.5784 120.535 16.4492 120.535 20.1906V26.9476C120.535 28.1389 119.948 28.7346 118.776 28.7346C117.622 28.7346 117.045 28.1389 117.045 26.9476V20.3302C117.045 19.2878 116.868 18.5247 116.514 18.0407C116.179 17.5567 115.602 17.3147 114.783 17.3147C113.871 17.3147 113.154 17.6405 112.633 18.292C112.112 18.9249 111.851 19.809 111.851 20.9445V26.9476C111.851 28.1389 111.274 28.7346 110.12 28.7346C108.947 28.7346 108.361 28.1389 108.361 26.9476V20.3302C108.361 19.2878 108.184 18.5247 107.831 18.0407C107.495 17.5567 106.928 17.3147 106.127 17.3147C105.215 17.3147 104.499 17.6405 103.977 18.292C103.456 18.9249 103.196 19.809 103.196 20.9445V26.9476C103.196 28.1389 102.609 28.7346 101.437 28.7346ZM127.793 28.7904C126.806 28.7904 125.922 28.6043 125.141 28.232C124.377 27.8411 123.772 27.3199 123.326 26.6684C122.897 26.0169 122.683 25.2816 122.683 24.4626C122.683 23.4574 122.944 22.6663 123.465 22.0893C123.986 21.4936 124.833 21.0655 126.006 20.8049C127.179 20.5443 128.752 20.414 130.725 20.414H131.702V19.8277C131.702 18.8969 131.497 18.2268 131.088 17.8173C130.678 17.4078 129.99 17.203 129.022 17.203C128.482 17.203 127.895 17.2682 127.263 17.3985C126.648 17.5288 125.997 17.7522 125.308 18.0686C124.861 18.2734 124.489 18.3013 124.191 18.1524C123.893 17.9848 123.689 17.7336 123.577 17.3985C123.484 17.0448 123.502 16.6912 123.633 16.3375C123.782 15.9838 124.07 15.7232 124.498 15.5557C125.355 15.202 126.174 14.9507 126.955 14.8018C127.756 14.6529 128.482 14.5784 129.133 14.5784C131.125 14.5784 132.605 15.0438 133.573 15.9745C134.541 16.8866 135.025 18.3106 135.025 20.2465V26.9476C135.025 28.1389 134.485 28.7346 133.405 28.7346C132.307 28.7346 131.758 28.1389 131.758 26.9476V26.3334C131.441 27.0965 130.939 27.7015 130.25 28.1483C129.561 28.5764 128.742 28.7904 127.793 28.7904ZM128.519 26.3892C129.431 26.3892 130.185 26.0728 130.781 25.4399C131.395 24.807 131.702 24.0066 131.702 23.0386V22.4244H130.753C129.003 22.4244 127.784 22.564 127.095 22.8432C126.425 23.1038 126.09 23.5877 126.09 24.2951C126.09 24.9094 126.304 25.4119 126.732 25.8029C127.16 26.1938 127.756 26.3892 128.519 26.3892Z" fill="#7DCBBD"/>
<path d="M63.7995 53.7021C63.1852 53.7021 62.7199 53.5439 62.4034 53.2275C62.1056 52.8924 61.9753 52.4643 62.0125 51.9431C62.0684 51.4219 62.3011 50.8821 62.7106 50.3237L72.5389 37.0051H63.5203C62.4593 37.0051 61.9288 36.5025 61.9288 35.4974C61.9288 34.5108 62.4593 34.0175 63.5203 34.0175H75.0798C75.6941 34.0175 76.1501 34.1851 76.4479 34.5201C76.7644 34.8366 76.904 35.2554 76.8668 35.7766C76.8295 36.2792 76.5968 36.819 76.1687 37.396L66.3404 50.7146H75.7778C76.8388 50.7146 77.3693 51.2078 77.3693 52.1944C77.3693 53.1996 76.8388 53.7021 75.7778 53.7021H63.7995ZM80.4538 37.2564C79.8023 37.2564 79.2904 37.0982 78.9181 36.7818C78.5644 36.4467 78.3876 35.9906 78.3876 35.4136C78.3876 34.8179 78.5644 34.3619 78.9181 34.0454C79.2904 33.729 79.8023 33.5708 80.4538 33.5708C81.8312 33.5708 82.52 34.1851 82.52 35.4136C82.52 36.6421 81.8312 37.2564 80.4538 37.2564ZM80.4538 53.8976C79.8954 53.8976 79.4672 53.7301 79.1694 53.395C78.8716 53.06 78.7227 52.5946 78.7227 51.9989V41.7518C78.7227 40.486 79.2997 39.8531 80.4538 39.8531C81.6265 39.8531 82.2128 40.486 82.2128 41.7518V51.9989C82.2128 52.5946 82.0639 53.06 81.7661 53.395C81.4683 53.7301 81.0308 53.8976 80.4538 53.8976ZM86.7328 53.9255C85.5788 53.9255 85.0017 53.3299 85.0017 52.1385V41.5842C85.0017 40.4115 85.5694 39.8252 86.7049 39.8252C87.8404 39.8252 88.4081 40.4115 88.4081 41.5842V42.1706C88.8735 41.3888 89.4971 40.7931 90.2789 40.3836C91.0793 39.9741 91.9728 39.7693 92.9593 39.7693C96.1796 39.7693 97.7897 41.6401 97.7897 45.3816V52.1385C97.7897 53.3299 97.2127 53.9255 96.0586 53.9255C94.8859 53.9255 94.2996 53.3299 94.2996 52.1385V45.5491C94.2996 44.4881 94.0948 43.7156 93.6853 43.2316C93.2944 42.7476 92.6801 42.5056 91.8425 42.5056C90.8187 42.5056 89.9997 42.8314 89.3854 43.4829C88.7897 44.1158 88.4919 44.9627 88.4919 46.0238V52.1385C88.4919 53.3299 87.9055 53.9255 86.7328 53.9255ZM104.992 53.9814C104.006 53.9814 103.122 53.7952 102.34 53.4229C101.577 53.032 100.972 52.5108 100.525 51.8593C100.097 51.2078 99.8828 50.4726 99.8828 49.6535C99.8828 48.6484 100.143 47.8573 100.665 47.2802C101.186 46.6846 102.033 46.2564 103.205 45.9958C104.378 45.7352 105.951 45.6049 107.924 45.6049H108.901V45.0186C108.901 44.0879 108.697 43.4177 108.287 43.0082C107.878 42.5987 107.189 42.394 106.221 42.394C105.681 42.394 105.095 42.4591 104.462 42.5894C103.848 42.7197 103.196 42.9431 102.507 43.2595C102.061 43.4643 101.688 43.4922 101.391 43.3433C101.093 43.1758 100.888 42.9245 100.776 42.5894C100.683 42.2357 100.702 41.8821 100.832 41.5284C100.981 41.1747 101.27 40.9141 101.698 40.7466C102.554 40.3929 103.373 40.1416 104.155 39.9927C104.955 39.8438 105.681 39.7693 106.333 39.7693C108.324 39.7693 109.804 40.2347 110.772 41.1654C111.74 42.0775 112.224 43.5015 112.224 45.4374V52.1385C112.224 53.3299 111.684 53.9255 110.605 53.9255C109.506 53.9255 108.957 53.3299 108.957 52.1385V51.5243C108.641 52.2875 108.138 52.8924 107.449 53.3392C106.761 53.7673 105.942 53.9814 104.992 53.9814ZM105.718 51.5801C106.63 51.5801 107.384 51.2637 107.98 50.6308C108.594 49.9979 108.901 49.1975 108.901 48.2295V47.6153H107.952C106.202 47.6153 104.983 47.7549 104.294 48.0341C103.624 48.2947 103.289 48.7787 103.289 49.486C103.289 50.1003 103.503 50.6029 103.931 50.9938C104.359 51.3847 104.955 51.5801 105.718 51.5801Z" fill="white"/>
<path fill-rule="evenodd" clip-rule="evenodd" d="M20.5251 2.23242C13.9413 3.08074 5.35088 5.9829 3.27204 8.06262C1.55575 9.77891 1.57361 12.239 3.32919 15.6323C4.41058 17.7237 4.48827 18.6157 3.67567 19.5953C1.96563 21.6563 3.98666 23.536 7.73624 25.8961C10.5053 27.6401 11.5213 31.0718 14.6949 37.4538C17.5444 43.1831 18.7785 46.071 18.4525 47.7739C21.1315 49.1134 20.2385 47.9463 19.4652 50.3528C21.1315 49.5599 21.8342 51.6708 22.9183 53.7014C25.9106 59.3075 29.8531 58.6717 33.2375 52.0378C34.176 50.1983 35.3217 46.7488 36.312 46.4345C37.3023 46.1201 37.2049 45.9996 37.2049 45.5415C37.2049 45.0834 36.6763 44.7307 37.6514 43.7555C37.2174 40.7194 36.8772 42.8724 39.4374 41.0766C38.5828 39.2023 40.683 36.9458 44.3174 30.1145C46.6276 25.7738 49.3413 21.5768 50.3468 20.7892C51.3523 20.0016 51.9863 18.7961 51.755 18.1103C51.5237 17.4245 51.8273 15.6582 52.4292 14.1848C53.9437 10.4763 52.8158 8.17067 48.1492 5.43551C42.8673 2.34047 30.6657 0.925112 20.5251 2.23242ZM34.7832 4.83989C41.6475 5.95432 50.1155 9.02793 50.7299 10.6281C50.979 11.2773 50.5236 12.8141 49.7181 14.0428C48.292 16.219 48.1679 16.2422 45.0023 14.9197C36.8244 11.5059 32.806 10.6129 39.0568 13.2919C40.8427 14.1848 44.9523 17.337 45.689 17.9148C46.8481 18.8238 46.4597 20.1133 42.7994 27.5008C38.7015 35.7715 37.9773 37.5744 35.8655 36.6118C26.9 35.3938 26.5956 39.808 26.4893 41.5231C26.3829 43.2382 28.2752 43.0099 29.1682 44.6485C30.5791 45.5361 29.2119 46.9909 30.421 47.2194C32.7838 47.6659 32.1266 48.0713 30.421 51.4146C29.4673 53.2844 28.1922 54.8123 27.5885 54.8096C26.984 54.8061 24.4399 50.7707 21.9333 45.8406C17.7355 37.5824 16.5148 36.9627 18.0061 36.1653C18.8963 35.6884 21.9333 35.6161 22.5368 34.7231C24.2012 31.387 22.6834 27.1186 20.8243 25.0317C19.6536 23.7182 15.7736 26.7087 13.9877 27.1552C12.2017 27.6017 11.4775 25.8042 9.24423 21.1196C7.64313 17.7612 7.49669 18.0541 12.3482 14.9072C13.8448 13.9366 21.1974 11.5059 18.965 11.9524C17.6514 11.9229 10.4817 13.7383 8.75399 15.0778C7.35634 15.9708 7.35634 15.9708 6.90985 15.9708C5.75435 15.9708 4.32218 11.3586 5.03387 10.2066C5.95185 8.72164 11.6079 6.5669 18.007 5.26495C25.3356 3.77369 27.8207 3.71029 34.7832 4.83989ZM29.3075 16.2646C27.2269 18.564 27.4019 23.7896 29.6272 25.8042C31.9319 27.8892 36.2289 27.8892 38.5337 25.8042C40.8741 23.686 40.9679 18.163 38.698 16.1092C36.4914 14.1116 31.1756 14.2 29.3075 16.2646Z" fill="#7DCBBD"/>
<circle cx="34.0791" cy="20.9849" r="6.69728" fill="#7DCBBD"/>
<circle cx="18.8989" cy="29.9146" r="6.69728" fill="#7DCBBD"/>
<circle cx="23.8099" cy="33.9329" r="1.78594" fill="#7DCBBD"/>
<circle cx="30.0605" cy="30.3607" r="0.892971" fill="#7DCBBD"/>
<circle cx="19.7915" cy="48.667" r="2.23243" fill="#7DCBBD"/>
<circle cx="51.0454" cy="19.1987" r="2.23243" fill="#7DCBBD"/>
<circle cx="38.9904" cy="41.9694" r="2.67891" fill="#7DCBBD"/>
<circle cx="7.64036" cy="24.9074" r="2.67891" transform="rotate(111.576 7.64036 24.9074)" fill="#7DCBBD"/>
<circle cx="38.5439" cy="2.23243" r="2.23243" fill="#7DCBBD"/>
<circle cx="41.2227" cy="3.12549" r="2.23243" fill="#7DCBBD"/>
<circle cx="31.8465" cy="2.67901" r="1.78594" fill="#7DCBBD"/>
<circle cx="36.7577" cy="45.9882" r="3.1254" fill="#7DCBBD"/>
<circle cx="4.51705" cy="21.353" r="3.48096" transform="rotate(111.576 4.51705 21.353)" fill="#7DCBBD"/>
<circle cx="14.4338" cy="16.5197" r="0.446485" fill="#7DCBBD"/>
<circle cx="30.0605" cy="10.7157" r="0.892971" fill="#7DCBBD"/>
<circle cx="9.96885" cy="14.734" r="1.33946" fill="#7DCBBD"/>
<ellipse cx="32.7396" cy="41.523" rx="6.25079" ry="6.69728" fill="#7DCBBD"/>
</svg>
