<svg id="Layer_1" data-name="Layer 1" xmlns="http://www.w3.org/2000/svg" xmlns:xlink="http://www.w3.org/1999/xlink" viewBox="0 0 843.66 351.76"><defs><style>.cls-1{fill:none;}.cls-2,.cls-52{fill:#1d2445;}.cls-3{fill:#7ec7bb;}.cls-4,.cls-55{fill:#fff;}.cls-4,.cls-52{fill-rule:evenodd;}.cls-5{fill:#293042;}.cls-6{clip-path:url(#clip-path);}.cls-7{fill:#e7957c;}.cls-8{fill:#e8967d;}.cls-9{fill:#e8977e;}.cls-10{fill:#e9987e;}.cls-11{fill:#e9997f;}.cls-12{fill:#ea9a80;}.cls-13{fill:#ea9b81;}.cls-14{fill:#eb9c82;}.cls-15{fill:#eb9d82;}.cls-16{fill:#ec9e83;}.cls-17{fill:#ec9f84;}.cls-18{fill:#eda085;}.cls-19{fill:#eea186;}.cls-20{fill:#eea286;}.cls-21{fill:#efa387;}.cls-22{fill:#efa488;}.cls-23{fill:#f0a589;}.cls-24{fill:#f0a68a;}.cls-25{fill:#f1a78a;}.cls-26{fill:#f1a88b;}.cls-27{fill:#f2a98c;}.cls-28{fill:#f2aa8d;}.cls-29{fill:#f3ac8e;}.cls-30{fill:#f4ad8e;}.cls-31{fill:#f4ae8f;}.cls-32{fill:#f5af90;}.cls-33{fill:#f5b091;}.cls-34{fill:#f6b191;}.cls-35{fill:#f6b292;}.cls-36{fill:#f7b393;}.cls-37{fill:#f7b494;}.cls-38{fill:#f8b595;}.cls-39{fill:#f8b695;}.cls-40{fill:#f9b796;}.cls-41{fill:#fab897;}.cls-42{fill:#fab998;}.cls-43{fill:#fbba99;}.cls-44{fill:#fbbb99;}.cls-45{fill:#fcbc9a;}.cls-46{fill:#fcbd9b;}.cls-47{fill:#fdbe9c;}.cls-48{fill:#fdbf9d;}.cls-49{fill:#fec09d;}.cls-50{fill:#fec19e;}.cls-51{fill:#ffc29f;}.cls-53{fill:#e09473;}.cls-54{fill:#4c4949;}.cls-56{fill:#464f70;}.cls-57{fill:#b03d5c;}.cls-58{fill:#7f3030;}.cls-59{fill:#772a2a;}.cls-60{clip-path:url(#clip-path-2);}.cls-61{fill:#ffc19e;}.cls-62{fill:#ffc09e;}.cls-63{fill:#ffbf9d;}.cls-64{fill:#ffbe9d;}.cls-65{fill:#ffbd9c;}.cls-66{fill:#ffbc9b;}.cls-67{fill:#ffbb9b;}.cls-68{fill:#ffba9a;}.cls-69{fill:#ffb99a;}.cls-70{fill:#ffb899;}.cls-71{fill:#ffb798;}.cls-72{fill:#ffb698;}.cls-73{fill:#ffb597;}.cls-74{fill:#ffb397;}.cls-75{fill:#ffb296;}.cls-76{fill:#ffb196;}.cls-77{fill:#ffb095;}.cls-78{fill:#ffaf94;}.cls-79{fill:#ffae94;}.cls-80{fill:#ffad93;}.cls-81{fill:#ffac93;}.cls-82{fill:#ffab92;}.cls-83{fill:#ffaa91;}.cls-84{fill:#ffa991;}.cls-85{fill:#ffa890;}.cls-86{fill:#ffa790;}.cls-87{fill:#ffa68f;}.cls-88{clip-path:url(#clip-path-3);}.cls-89{fill:#fefefe;}</style><clipPath id="clip-path"><path class="cls-1" d="M133.5,167c.65,2.79,7.29,33.8-13.66,55.59a56.14,56.14,0,0,1-28.33,15.55,127.61,127.61,0,0,0,48.44,22c15.06,3.25,33,7.13,52.15-1.52,14.42-6.53,23-17.26,27.33-23.65-7.34-1.26-16.71-4.21-22.19-12-6.13-8.68-3.14-17.35-5.17-25.21C189.3,187,176.36,174.74,133.5,167Z"/></clipPath><clipPath id="clip-path-2"><path class="cls-1" d="M218.44,154.14a21,21,0,0,0-10-4.43c-10.11-1.62-19.41,3.92-20.76,12.39s5.73,16.64,15.83,18.26a21.83,21.83,0,0,0,5.33.2C214,173,217.31,166,218,162A44.21,44.21,0,0,0,218.44,154.14Z"/></clipPath><clipPath id="clip-path-3"><path class="cls-1" d="M132.15,151c-12.73-3.65-25,.1-27.34,8.38s6,18,18.75,21.6,25-.11,27.34-8.39S144.88,154.65,132.15,151Z"/></clipPath></defs><path class="cls-2" d="M156.23,351.76a149.95,149.95,0,1,1,0-299.89c4.36,0,8.64.18,12.73.54l2.28.21c3.29.32,6.57.76,9.77,1.31a149,149,0,0,1,23.43,5.87l3,1.06c.94.34,1.85.69,2.79,1.07a144.19,144.19,0,0,1,17.37,8,150,150,0,0,1-71.41,281.82Zm0-290.53A140.57,140.57,0,1,0,296.79,201.81,139.22,139.22,0,0,0,252.6,99.49a140.65,140.65,0,0,0-29.42-21.32,136.71,136.71,0,0,0-16.34-7.53c-.88-.36-1.66-.66-2.46-.94l-3-1a139.56,139.56,0,0,0-22-5.49c-3-.52-6-.93-9.09-1.22l-2.24-.21C164.33,61.4,160.32,61.23,156.23,61.23Z"/><path class="cls-3" d="M304.82,202.14A145.31,145.31,0,1,1,159.58,56.87c4.14,0,8.26.17,12.33.52l2.25.21c3.16.3,6.29.72,9.41,1.26a144.38,144.38,0,0,1,22.72,5.69l3,1c.86.31,1.7.63,2.57,1a139.16,139.16,0,0,1,16.9,7.79,145.5,145.5,0,0,1,76.06,127.76Z"/><path class="cls-3" d="M73.37,60.73C27.12,61-1.08,94,2.27,117.07,4.86,135,27.11,151.76,55.8,155.55Q64.58,108.15,73.37,60.73Z"/><path class="cls-2" d="M57.42,157.79l-1.88-.25C26.34,153.68,3.11,136.78.29,117.36-1.2,107.08,3.08,95.21,12,84.81c14.15-16.44,36.5-25.95,61.32-26.08h2.42ZM71,62.77C48.27,63.48,28,72.39,15.07,87.42,6.87,97,2.93,107.65,4.25,116.79c2.46,17,23.77,32.48,49.93,36.51Z"/><path class="cls-4" d="M273.31,287.75c-1,1.45-2.17,3-3.48,4.68a128.91,128.91,0,0,1-19,19.66c-3.21,2.67-6.53,5.15-10,7.49-38.29,25.88-89.85,30.82-133,16.12a147.79,147.79,0,0,1-18.84-7.91q-6.37-3.23-12-6.78a162,162,0,0,1-36.26-31.18,1.51,1.51,0,0,0,.14-.37c1.17-3.07,6.93-17.69,14.61-27.87a108,108,0,0,1,7.07-8.33l.06-.08a65,65,0,0,1,13.81-10.9q4.5-2.67,9.34-5.2a160.32,160.32,0,0,1,32.72-12.94,141.84,141.84,0,0,1,32.76-4.89c3.38-.1,4.39,0,8.87,0,8.71,0,21.14-.28,36.74-1.78C220,232.28,229.33,238.24,231,239.26c.21.13,1.15.7,2.39,1.52,0,0,1.51,1,3.09,2.15a114.45,114.45,0,0,1,14.23,12.24c.63.64,1.24,1.27,1.84,1.92s1.2,1.29,1.78,2,1.22,1.35,1.8,2c1.27,1.5,2.51,3,3.66,4.5.65.84,1.28,1.66,1.87,2.5.16.21.33.42.49.65a1.57,1.57,0,0,1,.12.19v0c.46.6.89,1.21,1.31,1.82.23.33.44.66.68,1v0c.07.14.16.23.23.35l.8,1.17c.42.68.84,1.33,1.24,2a0,0,0,0,1,0,0c.89,1.43,1.73,2.86,2.53,4.26.42.73.82,1.43,1.19,2.15s.77,1.45,1.15,2.18C272.1,285.2,272.73,286.49,273.31,287.75Z"/><path class="cls-2" d="M158.07,346a158.54,158.54,0,0,1-50.93-8.35,150.93,150.93,0,0,1-19.09-8c-4.2-2.12-8.3-4.44-12.2-6.88a162.94,162.94,0,0,1-36.7-31.56l-.87-1,.66-1.38c1.56-4.11,7.26-18.28,14.87-28.37a108.92,108.92,0,0,1,7.22-8.5l.07-.08a66.85,66.85,0,0,1,14.23-11.24c3.1-1.84,6.27-3.61,9.44-5.25a162.2,162.2,0,0,1,33.12-13.1,144.84,144.84,0,0,1,33.22-5c2.24-.07,3.44-.05,5.27,0,1,0,2.11,0,3.67,0,11.71,0,24-.56,36.54-1.77l.68-.06.58.37C219,229.3,230.19,236.42,232,237.55c.32.2,1.24.76,2.43,1.55.54.32,1.44,1,3.18,2.22a114.8,114.8,0,0,1,14.48,12.45c.64.64,1.26,1.29,1.89,2s1.2,1.3,1.8,2,1.24,1.38,1.83,2.06c1.15,1.37,2.48,3,3.72,4.59.68.87,1.3,1.68,1.9,2.53.16.2.31.41.47.63a1.7,1.7,0,0,1,.22.34l.08.11c.4.54.78,1.08,1.15,1.62.14.19.26.37.38.55l.31.45.38.57.38.58.82,1.26.18.29h.89v1.44c.76,1.24,1.53,2.53,2.28,3.85.42.74.84,1.47,1.23,2.23s.76,1.43,1.14,2.17c.69,1.33,1.34,2.66,1.94,3.94l.48,1-.67,1c-1.26,1.78-2.39,3.3-3.54,4.76a131.4,131.4,0,0,1-19.34,20c-3.14,2.61-6.55,5.17-10.13,7.6C217.87,337.5,188.18,346,158.07,346ZM43,289.42a158.6,158.6,0,0,0,35,29.89c3.79,2.38,7.78,4.63,11.87,6.7a147.85,147.85,0,0,0,18.58,7.8c44.21,15.05,94.5,9,131.26-15.89,3.51-2.39,6.72-4.8,9.81-7.37a127.17,127.17,0,0,0,18.75-19.35c.91-1.15,1.8-2.33,2.75-3.66-.43-.9-.88-1.81-1.36-2.73-.37-.71-.73-1.43-1.12-2.14s-.77-1.41-1.17-2.11c-.64-1.13-1.29-2.23-1.93-3.28h0l-.58-1c-.24-.4-.49-.8-.74-1.2l-.76-1.16-.46-.69-.09-.12a3.22,3.22,0,0,1-.27-.43l-.24-.34c-.1-.16-.2-.31-.31-.46-.44-.63-.83-1.2-1.27-1.77l-.41-.61-.19-.24-.07-.09c-.54-.79-1.14-1.56-1.8-2.42-1.2-1.56-2.49-3.11-3.6-4.43l-1.77-2c-.57-.64-1.14-1.28-1.73-1.89s-1.2-1.28-1.82-1.89a111.59,111.59,0,0,0-14-12c-1.49-1.08-2.93-2-3-2.1h0c-1.14-.76-2-1.3-2.28-1.46-1.9-1.16-12.92-8.17-33.72-21.46-12.41,1.17-24.62,1.75-36.24,1.72-1.58,0-2.73,0-3.71,0-1.77,0-3,0-5.1,0a140.75,140.75,0,0,0-32.3,4.82,159.44,159.44,0,0,0-32.31,12.78c-3.11,1.61-6.21,3.34-9.24,5.15A63,63,0,0,0,64,254.56c-.1.11-3.77,4-7,8.23C50.12,271.93,44.81,284.69,43,289.42Z"/><path class="cls-5" d="M180.39,244.33l-37.76,12.2a117.23,117.23,0,0,1-30.93-26c-47.5-57-21.6-140.72-18-151.66H222.11c26.52,35.19,32.12,80.35,14,116.21C219.67,227.47,189.75,240.65,180.39,244.33Z"/><g class="cls-6"><rect class="cls-7" x="91.51" y="166.97" width="127.91" height="8.16"/><rect class="cls-7" x="91.51" y="175.13" width="127.91" height="1.15"/><rect class="cls-8" x="91.51" y="176.28" width="127.91" height="1.15"/><rect class="cls-9" x="91.51" y="177.42" width="127.91" height="1.15"/><rect class="cls-10" x="91.51" y="178.57" width="127.91" height="1.15"/><rect class="cls-11" x="91.51" y="179.71" width="127.91" height="1.15"/><rect class="cls-12" x="91.51" y="180.86" width="127.91" height="1.15"/><rect class="cls-13" x="91.51" y="182" width="127.91" height="1.15"/><rect class="cls-14" x="91.51" y="183.15" width="127.91" height="1.15"/><rect class="cls-15" x="91.51" y="184.29" width="127.91" height="1.15"/><rect class="cls-16" x="91.51" y="185.44" width="127.91" height="1.15"/><rect class="cls-17" x="91.51" y="186.58" width="127.91" height="1.15"/><rect class="cls-18" x="91.51" y="187.73" width="127.91" height="1.15"/><rect class="cls-19" x="91.51" y="188.87" width="127.91" height="1.15"/><rect class="cls-20" x="91.51" y="190.02" width="127.91" height="1.15"/><rect class="cls-21" x="91.51" y="191.16" width="127.91" height="1.15"/><rect class="cls-22" x="91.51" y="192.31" width="127.91" height="1.15"/><rect class="cls-23" x="91.51" y="193.45" width="127.91" height="1.15"/><rect class="cls-24" x="91.51" y="194.6" width="127.91" height="1.15"/><rect class="cls-25" x="91.51" y="195.75" width="127.91" height="1.15"/><rect class="cls-26" x="91.51" y="196.89" width="127.91" height="1.15"/><rect class="cls-27" x="91.51" y="198.04" width="127.91" height="1.15"/><rect class="cls-28" x="91.51" y="199.18" width="127.91" height="1.15"/><rect class="cls-29" x="91.51" y="200.33" width="127.91" height="1.15"/><rect class="cls-30" x="91.51" y="201.47" width="127.91" height="1.15"/><rect class="cls-31" x="91.51" y="202.62" width="127.91" height="1.15"/><rect class="cls-32" x="91.51" y="203.76" width="127.91" height="1.15"/><rect class="cls-33" x="91.51" y="204.91" width="127.91" height="1.15"/><rect class="cls-34" x="91.51" y="206.05" width="127.91" height="1.15"/><rect class="cls-35" x="91.51" y="207.2" width="127.91" height="1.15"/><rect class="cls-36" x="91.51" y="208.34" width="127.91" height="1.15"/><rect class="cls-37" x="91.51" y="209.49" width="127.91" height="1.15"/><rect class="cls-38" x="91.51" y="210.63" width="127.91" height="1.15"/><rect class="cls-39" x="91.51" y="211.78" width="127.91" height="1.15"/><rect class="cls-40" x="91.51" y="212.93" width="127.91" height="1.15"/><rect class="cls-41" x="91.51" y="214.07" width="127.91" height="1.15"/><rect class="cls-42" x="91.51" y="215.22" width="127.91" height="1.15"/><rect class="cls-43" x="91.51" y="216.36" width="127.91" height="1.15"/><rect class="cls-44" x="91.51" y="217.51" width="127.91" height="1.15"/><rect class="cls-45" x="91.51" y="218.65" width="127.91" height="1.15"/><rect class="cls-46" x="91.51" y="219.8" width="127.91" height="1.15"/><rect class="cls-47" x="91.51" y="220.94" width="127.91" height="1.15"/><rect class="cls-48" x="91.51" y="222.09" width="127.91" height="1.15"/><rect class="cls-49" x="91.51" y="223.23" width="127.91" height="1.15"/><rect class="cls-50" x="91.51" y="224.38" width="127.91" height="1.15"/><rect class="cls-51" x="91.51" y="225.52" width="127.91" height="1.15"/><rect class="cls-51" x="91.51" y="226.67" width="127.91" height="40.54"/></g><path class="cls-2" d="M167,265.81c-10,0-19.25-2-27.45-3.77a129.1,129.1,0,0,1-49.2-22.31l-3.57-2.61,4.32-1a54,54,0,0,0,27.32-15c20-20.85,13.92-50.44,13.15-53.75l-.68-3,3,.55c36.59,6.62,56.27,17.16,60.15,32.22a41.53,41.53,0,0,1,1,9.1c.15,5.33.3,10.36,3.9,15.46,4,5.71,11.07,9.46,20.9,11.15l3,.53L221.09,236a68.15,68.15,0,0,1-28.17,24.35A61.79,61.79,0,0,1,167,265.81ZM96.18,239a124.51,124.51,0,0,0,44.19,19.16c15.18,3.27,32.39,7,50.9-1.39A63.53,63.53,0,0,0,216,236.28c-9.33-2.12-16.2-6.21-20.41-12.19s-4.48-12.22-4.64-17.64a37.59,37.59,0,0,0-.84-8.23c-3.3-12.82-21.5-22.49-54.11-28.74,1.51,9.08,3.81,35.18-14.74,54.46A57.11,57.11,0,0,1,96.18,239Z"/><path class="cls-7" d="M163.93,209.22a29.73,29.73,0,0,0,20.53-4.58,65,65,0,0,1-2.27-10.46L133.5,167a112.26,112.26,0,0,1,.44,20.49,26.28,26.28,0,0,1,3.16,2.43C145.61,197.6,151.43,207.47,163.93,209.22Z"/><path class="cls-2" d="M168.15,211.52a32.39,32.39,0,0,1-4.49-.32h0c-10.1-1.41-16.17-7.79-22-14-1.87-2-3.81-4-5.86-5.87a22.32,22.32,0,0,0-2.91-2.23l-1-.65.1-1.18a110.94,110.94,0,0,0-.44-20.12l-.41-3.85L184,192.93l.14,1a61.76,61.76,0,0,0,2.19,10.13l.46,1.45-1.29.83A32.13,32.13,0,0,1,168.15,211.52ZM136,186.46a27.48,27.48,0,0,1,2.42,1.95c2.17,2,4.16,4.05,6.08,6.07,5.65,5.94,11,11.54,19.69,12.76h0a27.39,27.39,0,0,0,17.9-3.51,66.13,66.13,0,0,1-1.76-8.28l-44.51-24.88A111.83,111.83,0,0,1,136,186.46Z"/><path class="cls-51" d="M102.43,168.65s6.84,22.42,32,37.17c11.14,6.53,24.08,13.78,37.45,12.89,12.8-.85,21.18-10.89,29.11-19.84,13-14.63,21.1-35.49,21.1-43.41,0-9.72-3.59-15.83-2.4-23s2.64-10.79-.24-17.51a194.56,194.56,0,0,0-2.6-23.1c-3.89-22-22.13-39.39-46.41-42.63A78.61,78.61,0,0,0,146,50.28a86,86,0,0,0-21.87,7.21c-8.77,4.47-18.86,11.1-24.66,19.23a64.87,64.87,0,0,0-8.53,16.12,65.94,65.94,0,0,0-3.28,26.34,132.75,132.75,0,0,0,3.27,21.17s-4.55-3.84-7.43-.24,1.44,19.42,4.31,24.22,7,8.64,10.8,8.15A4,4,0,0,0,102.43,168.65Z"/><path class="cls-2" d="M169.67,220.79c-13.62,0-26.61-7.61-36.23-13.24a76.34,76.34,0,0,1-31.37-34.3,6.75,6.75,0,0,1-3.23,1.22c-4.23.53-9-2.87-12.75-9.11-2.63-4.38-8.09-21.6-4.16-26.5a5.76,5.76,0,0,1,4-2.26,6.31,6.31,0,0,1,2.09.14,140,140,0,0,1-2.39-17.4A68.56,68.56,0,0,1,89,92.19a66.67,66.67,0,0,1,8.79-16.63c6.41-9,17.34-15.75,25.38-19.85a88.2,88.2,0,0,1,22.39-7.39,81.12,81.12,0,0,1,25.13-1.12c24.68,3.3,44,21.09,48.11,44.27a205.25,205.25,0,0,1,2.62,23c2.49,6,1.77,9.89.78,15.19-.18,1-.37,2-.55,3.1-.58,3.49.1,6.8.9,10.62a57.07,57.07,0,0,1,1.53,12.08c0,8.48-8.23,29.61-21.61,44.73l-.93,1.05c-7.7,8.71-16.42,18.59-29.55,19.47C171.24,220.76,170.45,220.79,169.67,220.79Zm-65.32-52.73c.06.22,7,21.89,31.11,36,9.73,5.7,23.07,13.5,36.31,12.62,11.48-.77,19.28-9.59,26.81-18.13l.93-1.05c12.39-14,20.61-34.6,20.61-42.08a52.54,52.54,0,0,0-1.45-11.26c-.84-4-1.63-7.87-.93-12.1.19-1.14.39-2.19.57-3.18,1-5.23,1.52-8.1-.67-13.21l-.15-.34V115a197.2,197.2,0,0,0-2.58-22.84c-3.79-21.46-21.75-37.93-44.7-41a76.76,76.76,0,0,0-23.83,1.07,84.1,84.1,0,0,0-21.34,7c-6.26,3.18-17.69,9.84-23.94,18.6a63.23,63.23,0,0,0-8.27,15.6A64.43,64.43,0,0,0,89.65,119a128.42,128.42,0,0,0,3.21,20.83l1.48,6-4.71-4a5.5,5.5,0,0,0-3.29-1.3,1.81,1.81,0,0,0-1.29.78c-1.63,2,.86,15.93,4.47,21.94,2.81,4.69,6.28,7.52,8.83,7.2,2-.26,2.08-1.69,2.08-1.85V155.23Z"/><path class="cls-52" d="M241.11,322.69a152.91,152.91,0,0,1-152.77,7.49c-5-2.53-9-4.91-11.94-6.76.19-.8.35-1.59.52-2.41,2-9.27,3.76-19.19,5.19-29.68a391.91,391.91,0,0,0,3.51-45.61v0c.07-2.93.09-5.81.07-8.62A112.74,112.74,0,0,1,118.41,223v1.12q.14,22,.3,44a23.51,23.51,0,0,0,11.68,20.29,56.79,56.79,0,0,0,62.6-3.35,15.54,15.54,0,0,0,5.93-8.63,15.19,15.19,0,0,0,.51-3.58c.12-4.78,1.57-21,4.23-47.73a163.37,163.37,0,0,1,27.55,14.21l2.18,1.43q1.89,21.22,3.92,42.61Q239.17,303.12,241.11,322.69Z"/><path class="cls-53" d="M162.51,169.85s.18-2.7,4.68-2.52,5.94,2,9.17,1.62a13.36,13.36,0,0,0,5.58-2,7.44,7.44,0,0,1-4.86,6.3s-.89,4.31-4.85,4.31-7.74-1.62-9.72-7Z"/><path class="cls-54" d="M165.66,169.31s1.35,2.16,4.41,1A5.17,5.17,0,0,0,165.66,169.31Z"/><path class="cls-54" d="M164.25,170c-.05.05,0,.16.1.12a4.8,4.8,0,0,1,3.81-.61,4.83,4.83,0,0,1,1.73.82c.47.3.89.65,1.34,1,.07.05.14,0,.09-.12C169.59,169.06,166.48,168,164.25,170Zm17-1.92c-1.2,2.76-3.73,3.54-6.42,4.31a.06.06,0,1,0,0,.11c2.55-.65,5.71-1.49,6.53-4.35C181.43,168.1,181.31,168.05,181.27,168.12Z"/><path class="cls-2" d="M113.88,118.05s3.12-8.15,14.39-9.11c10.21-.87,17.87,2.2,23.14,2.78a2.61,2.61,0,0,0,2.5-1.17,1.74,1.74,0,0,1,.11-.18,2.61,2.61,0,0,0-1.8-3.91c-3.66-.64-9.78-1.69-14.35-2.32C130.91,103.19,119.16,104.14,113.88,118.05Z"/><path class="cls-2" d="M220.73,119s-2.3-8.16-10.65-9.12c-7.05-.81-12.45,1.81-16.32,2.64a2.57,2.57,0,0,1-2.87-1.54l0,0a2.63,2.63,0,0,1,1.79-3.6c2.73-.64,7.06-1.64,10.33-2.25C208.13,104.14,216.83,105.1,220.73,119Z"/><path d="M130.68,121.93a18.49,18.49,0,0,0-5.23,1.41,5.41,5.41,0,0,1-1.07-3.37,4.69,4.69,0,0,0,.56,3.61,15,15,0,0,0-1.54.84,6.37,6.37,0,0,1-1.8-3.45,5.41,5.41,0,0,0,1.26,3.8,16.74,16.74,0,0,0-1.38,1.06,7.76,7.76,0,0,1-3.11-3.85,6.66,6.66,0,0,0,2.51,4.38,17.83,17.83,0,0,0-1.41,1.5,9.12,9.12,0,0,1-4.08-4.3,8,8,0,0,0,3.5,5,11.92,11.92,0,0,0-.75,1.1,10.53,10.53,0,0,1-5.68-4.45,9.37,9.37,0,0,0,5.09,5.43c-.23.42-.43.83-.61,1.22a11.8,11.8,0,0,1-7.08-3.77,10.47,10.47,0,0,0,6.58,5c-.1.26-.18.5-.25.72a12.78,12.78,0,0,1-8.94-3.72c2.31,4,7,5,8.64,5.21,8.73,16.65,29.44,12.44,29.44,12.44l10.56-5C152.79,131.93,143.28,120.39,130.68,121.93Z"/><path class="cls-55" d="M117.28,135.21c4.26,10,19.13,14.08,30.83,12.12,0,0,3.15-.39,5-.84s3.55-.92,3.55-.92c-4.12-12.73-10.93-19.53-19.29-21.63-8-2-17.39,1.85-20.27,10.89Z"/><path class="cls-2" d="M135,123.81a11.57,11.57,0,1,0,11.79,11.56A11.68,11.68,0,0,0,135,123.81Z"/><path d="M142,135.37a7.09,7.09,0,1,1-7.09-7A7,7,0,0,1,142,135.37Z"/><path class="cls-55" d="M138.54,131.64c0,1.48-1.61,1.48-3.59,1.48s-3.6,0-3.6-1.48S133,129,135,129,138.54,130.15,138.54,131.64Z"/><path class="cls-55" d="M135.81,140.1a.86.86,0,1,1-.86-.85A.86.86,0,0,1,135.81,140.1Z"/><path d="M155.76,142.82c-.11-.33-.24-.66-.36-1,0,0,0,0,0,0s0-.05-.05-.08c-.44-1.1-.9-2.2-1.44-3.28-.25-.48-.53-1-.87-1.64a26.47,26.47,0,0,0-9.71-10.66c-.18-.11-.36-.23-.57-.34a19.88,19.88,0,0,0-10.51-2.51.51.51,0,0,0-.2,0,16.52,16.52,0,0,0-6,1.43c-.44.18-.9.39-1.34.62a17,17,0,0,0-2.48,1.69,15.47,15.47,0,0,0-4,5.15c-.21.41-.41.85-.59,1.28s-.34.9-.49,1.36c2.56-7.59,10.36-11.94,18.1-11a.21.21,0,0,1,.13,0,13.24,13.24,0,0,1,2,.33,19.88,19.88,0,0,1,3.71,1.31h0c6,2.8,10.36,8.2,13.23,14.15.15.28.28.59.41.9,0,0,0,.05,0,.08a23.31,23.31,0,0,1,1,2.25c.36.9.67,1.82,1,2.72,0,0,.07,0,.07,0C156.42,144.64,156.11,143.74,155.76,142.82Zm-7.64,4.51c0-.05,0-.05,0-.05-.82.13-1.62.23-2.44.31a38.51,38.51,0,0,1-11.38-.67h0a32.47,32.47,0,0,1-4.21-1.18,8.33,8.33,0,0,1-1.1-.43s0,0-.05,0a24,24,0,0,1-8-5,10.55,10.55,0,0,0,1.13,1.08c.26.23.54.43.82.66a12.61,12.61,0,0,0,1.16.82,25.78,25.78,0,0,0,5.74,2.9.18.18,0,0,0,.13,0s0,0,.05,0a26,26,0,0,0,3.36,1s0,0,0,0a36.8,36.8,0,0,0,12,.89c1-.1,1.87-.23,2.8-.38,0,0,0,0,0,0ZM119.66,139a.44.44,0,0,0,.1.15,2.32,2.32,0,0,1,.16.18,1.18,1.18,0,0,1-.13-.18A.58.58,0,0,1,119.66,139Zm-2.36-3.74h0c.13.25.24.51.36.77s.23.48.39.74c.25.44.51.85.79,1.26a1.75,1.75,0,0,0,.16.2,3,3,0,0,0,.38.46l.31.31a15.1,15.1,0,0,1-1.9-2.77C117.61,135.85,117.45,135.54,117.3,135.21Z"/><path d="M117.1,135.2s6.58-9.59,17-9,16.72,7.33,21.25,15.67c0,0-5.26-15.37-18.89-18.67,0,0-16.11-1.59-20.15,12.18Z"/><path d="M216.57,137.54a7.11,7.11,0,0,0-.08-.75,8.19,8.19,0,0,0,5.59-3.89,8.79,8.79,0,0,1-5.8,2.69q-.12-.59-.3-1.26a8.29,8.29,0,0,0,4.56-4.52,8.71,8.71,0,0,1-4.85,3.51c-.14-.4-.27-.77-.44-1.15a7.88,7.88,0,0,0,3.37-4.46,8.5,8.5,0,0,1-3.71,3.65,17,17,0,0,0-.86-1.62,6.79,6.79,0,0,0,2.53-3.93,7.61,7.61,0,0,1-2.9,3.34,10.7,10.7,0,0,0-.92-1.17,6.21,6.21,0,0,0,1.51-3.54,7.14,7.14,0,0,1-1.86,3.13,10.06,10.06,0,0,0-1-1,5.66,5.66,0,0,0,.93-3.42,6.21,6.21,0,0,1-1.3,3.11,12.76,12.76,0,0,0-3.76-2c-9.38-3-18.23,7-22.11,17.17l.1.09,0,0,0,0,7,5.76.1.09.1.09a.11.11,0,0,0,.07,0,18.72,18.72,0,0,0,3.93,1,19.67,19.67,0,0,0,8.86-.35c3.88-1.09,8-3.72,11.26-9.24a8.83,8.83,0,0,0,7.26-4A9.09,9.09,0,0,1,216.57,137.54Zm-12.07,9.85s0,0,0,0l-.08,0c-.28.08-.56.12-.85.19s-.86.18-1.3.25-.87.13-1.31.18-1,.08-1.51.1h-.17a.05.05,0,0,1-.05,0c-.54,0-1.12,0-1.68,0,0,0,0,0,0,0-.3,0-.62,0-.92,0l.37-2.53,8.63,1.24,0,.22a5.69,5.69,0,0,1-.65.24l-.06,0Z"/><path class="cls-55" d="M215.56,138.76c-4.64,9.17-16.52,11.35-25.15,8a36.57,36.57,0,0,1-3.69-1.42c-1.36-.67-2.57-1.32-2.57-1.32,4.91-11.85,11-17.62,17.69-18.65,6.37-1,13,3.89,13.9,13Z"/><path class="cls-2" d="M202,126.33c-5.23-.89-10.18,3.34-11.06,9.46s2.65,11.79,7.87,12.68S209,145.13,209.85,139,207.21,127.22,202,126.33Z"/><path d="M194.7,136.43c-.53,3.68,1.58,7.09,4.73,7.63s6.11-2,6.64-5.69-1.58-7.09-4.73-7.62S195.23,132.75,194.7,136.43Z"/><path class="cls-55" d="M198,133.33c-.21,1.42,1.08,1.64,2.68,1.91s2.88.5,3.09-.92a2.87,2.87,0,0,0-2.52-3.07A2.69,2.69,0,0,0,198,133.33Z"/><path class="cls-55" d="M199,141.81a.79.79,0,0,0,.58.92.73.73,0,0,0,.8-.69.79.79,0,0,0-.57-.93A.76.76,0,0,0,199,141.81Z"/><path d="M215.7,138.78S212,128.68,204,128s-13.75,5.08-18.36,12.62c0,0,6.15-14.27,17-15.82,0,0,12.47.4,13.63,14.25Z"/><path d="M205.52,147.08c-.37.13-.77.25-1.14.35a22.55,22.55,0,0,1-7.82.67,20.79,20.79,0,0,1-4.27-.76c-.62-.17-1.25-.36-1.87-.58,0,0,0,.05,0,.08a16.31,16.31,0,0,0,2.08.68.11.11,0,0,0,.07,0,21.61,21.61,0,0,0,4,.73l0,.32a19.67,19.67,0,0,0,8.86-.35l.15-1.07a16.81,16.81,0,0,0,10.06-8.42A17.23,17.23,0,0,1,205.52,147.08Z"/><path d="M201.86,125.65c6.67-1,12.89,4.37,13.88,12.76a16.81,16.81,0,0,0-2.82-8.18c-3.79-5.36-10-6.41-15.43-3.69s-9.37,8.62-12.27,15c-.39.83-.76,1.69-1.1,2.53,0,0,0,.06,0,0,.37-.84.73-1.67,1.12-2.48.48-1,1-2,1.52-3C190.41,132.12,195.56,126.57,201.86,125.65Z"/><path class="cls-2" d="M259,92.68a150.43,150.43,0,0,0-31.38-22.74,144.19,144.19,0,0,0-17.37-8c-.94-.38-1.85-.73-2.79-1.07l-3-1.06A148.89,148.89,0,0,0,181,53.93c-3.21-.55-6.49-1-9.78-1.31L169,52.41c-4.09-.36-8.38-.54-12.73-.54a149.53,149.53,0,0,0-85.84,27l-.28.2V90.7c1.85-1.44,3.73-2.82,5.65-4.17a140,140,0,0,1,80.47-25.29c4.09,0,8.1.16,11.89.49l2.24.21c3,.29,6.09.7,9.09,1.22a139.56,139.56,0,0,1,22,5.49l3,1c.8.28,1.57.58,2.47.94a134.9,134.9,0,0,1,16.32,7.53A140.73,140.73,0,1,1,15.65,201.82,160.41,160.41,0,0,1,17,182.54,188.45,188.45,0,0,1,23.56,151H15.17A149.92,149.92,0,1,0,259,92.68Z"/><path class="cls-56" d="M243.17,77c-9.8-16.07-30.64-50.26-64.75-52.2a59.84,59.84,0,0,0-29,6.1,64,64,0,0,0-21.89-1.75c-34.27,3.3-54,34.2-57.29,39.55-2,6.16-30.7,97.3-8.13,139.33a64.28,64.28,0,0,0,19.2,22c17.92,11.6,38.17,8.55,45.37,7.1a122.51,122.51,0,0,1-16.26-29,120,120,0,0,1-8.24-52.56,120.59,120.59,0,0,1,46.59-83.35c6,.65,48.72,6,70.73,42.69,13.24,22,12.14,44,11.62,52.07-2.59,40.83-30.45,66.14-37,71.78a59.16,59.16,0,0,0,27.75-7.08C263.3,208.58,274.19,127.92,243.17,77Z"/><path class="cls-2" d="M188.61,240.87l4.2-3.62c10.12-8.74,33.91-33.09,36.29-70.38.45-7.16,1.84-29-11.34-50.92-20.27-33.78-58.93-40.49-68.44-41.64a118.58,118.58,0,0,0-45.17,81.44,118.19,118.19,0,0,0,8.1,51.66,120.69,120.69,0,0,0,16,28.5l1.92,2.54-3.13.62c-10.1,2-29.62,3.77-46.85-7.38A65.77,65.77,0,0,1,60.32,209C37.15,165.85,67,72.08,68.3,68.11l.08-.23.12-.21C73.86,59,93.94,30.39,127.3,27.18a66,66,0,0,1,21.88,1.62,61.28,61.28,0,0,1,29.35-6c35.16,2,56.22,36.55,66.34,53.16,17.79,29.17,23,69.45,13.62,105.11-6.46,24.54-19.12,43.12-35.65,52.35a60.75,60.75,0,0,1-28.69,7.33ZM72,69.57C70,76,41.8,166.06,63.84,207.1a63,63,0,0,0,18.52,21.23c14.43,9.34,30.73,8.94,40.78,7.38a124.13,124.13,0,0,1-14.61-26.84,122.4,122.4,0,0,1-8.37-53.46,122.74,122.74,0,0,1,47.36-84.77l.64-.49.8.09c8.22.89,50.36,7.21,72.23,43.65,13.82,23,12.37,45.76,11.9,53.23-2.18,34.26-21.69,58-33.46,69.31a54.68,54.68,0,0,0,21.26-6.49c15.58-8.68,27.56-26.39,33.73-49.86,9-34.13,3.82-74.17-13.16-102-9.77-16-30.09-49.37-63.15-51.24a57.6,57.6,0,0,0-28.07,5.9l-.65.31-.7-.18a62.13,62.13,0,0,0-21.2-1.69C96.42,34.17,77.33,61,72,69.57Z"/><path class="cls-57" d="M148.14,186.9a19.62,19.62,0,0,0,6.93,1.07c3.81-.11,5.62-1.34,9.29-1a15.28,15.28,0,0,1,3,.58,6.37,6.37,0,0,0,3.91,0,11.33,11.33,0,0,1,2.48-.51c1.57-.45,4.72-.18,11.66,2.86-.66,1.27-4.85,9.11-13.4,10.95C163,202.79,152.74,197.24,148.14,186.9Z"/><path class="cls-58" d="M148.1,186.86a19.55,19.55,0,0,0,9.38.38,39.17,39.17,0,0,1,4.73-1,16.33,16.33,0,0,1,5,.42,6.19,6.19,0,0,0,4.23-.13,17.66,17.66,0,0,1,2.4-.49,8.16,8.16,0,0,1,2.69-.06,38,38,0,0,1,9.33,2.94l1,.41-.5,1a22.79,22.79,0,0,1-8.31,9.11A18.09,18.09,0,0,1,166,201.94a22.29,22.29,0,0,1-11-5.17A25.21,25.21,0,0,1,148.1,186.86Zm.08.08a33.17,33.17,0,0,0,3,5.05,26.43,26.43,0,0,0,4.11,4.28A21.59,21.59,0,0,0,166.07,201a17.07,17.07,0,0,0,11.37-2.45,22.88,22.88,0,0,0,7.89-8.68l0,.15a37.09,37.09,0,0,0-9-2.95,12.76,12.76,0,0,0-4.67.46,7.11,7.11,0,0,1-4.73,0,16.23,16.23,0,0,0-4.7-.52c-1.58.11-3.12.55-4.69.8A18.77,18.77,0,0,1,148.18,186.94Z"/><path class="cls-59" d="M143.17,183.72a45.39,45.39,0,0,0,5.7,3,49.07,49.07,0,0,0,5.92,2.32,51.18,51.18,0,0,0,31.14.13,45.34,45.34,0,0,0,6-2.2l.06.1a45.67,45.67,0,0,1-48.92-3.22Z"/><g class="cls-60"><rect class="cls-51" x="186.31" y="148.09" width="32.18" height="32.62"/><ellipse class="cls-51" cx="205.96" cy="165.04" rx="11.49" ry="13.72" transform="translate(10.31 342.18) rotate(-80.86)"/><ellipse class="cls-61" cx="205.96" cy="165.04" rx="11.08" ry="13.23" transform="translate(10.31 342.18) rotate(-80.86)"/><ellipse class="cls-62" cx="205.96" cy="165.04" rx="10.67" ry="12.74" transform="translate(10.31 342.18) rotate(-80.86)"/><ellipse class="cls-63" cx="205.96" cy="165.04" rx="10.26" ry="12.25" transform="translate(10.31 342.18) rotate(-80.86)"/><ellipse class="cls-64" cx="205.96" cy="165.04" rx="9.85" ry="11.76" transform="translate(10.31 342.18) rotate(-80.86)"/><ellipse class="cls-65" cx="205.96" cy="165.04" rx="9.44" ry="11.27" transform="translate(10.31 342.18) rotate(-80.86)"/><ellipse class="cls-66" cx="205.96" cy="165.04" rx="9.03" ry="10.78" transform="translate(10.31 342.18) rotate(-80.86)"/><ellipse class="cls-67" cx="205.96" cy="165.04" rx="8.62" ry="10.29" transform="translate(10.31 342.18) rotate(-80.86)"/><ellipse class="cls-68" cx="205.96" cy="165.04" rx="8.21" ry="9.8" transform="translate(10.31 342.18) rotate(-80.86)"/><ellipse class="cls-69" cx="205.96" cy="165.04" rx="7.8" ry="9.31" transform="matrix(0.16, -0.99, 0.99, 0.16, 10.31, 342.18)"/><ellipse class="cls-70" cx="205.96" cy="165.04" rx="7.39" ry="8.82" transform="translate(10.31 342.18) rotate(-80.86)"/><ellipse class="cls-71" cx="205.96" cy="165.04" rx="6.98" ry="8.33" transform="translate(10.31 342.18) rotate(-80.86)"/><ellipse class="cls-72" cx="205.96" cy="165.04" rx="6.57" ry="7.84" transform="translate(10.31 342.18) rotate(-80.86)"/><ellipse class="cls-73" cx="205.96" cy="165.04" rx="6.16" ry="7.35" transform="translate(10.31 342.18) rotate(-80.86)"/><ellipse class="cls-74" cx="205.96" cy="165.04" rx="5.75" ry="6.86" transform="translate(10.31 342.18) rotate(-80.86)"/><ellipse class="cls-75" cx="205.96" cy="165.04" rx="5.34" ry="6.37" transform="translate(10.31 342.18) rotate(-80.86)"/><ellipse class="cls-76" cx="205.96" cy="165.04" rx="4.93" ry="5.88" transform="translate(10.31 342.18) rotate(-80.86)"/><ellipse class="cls-77" cx="205.96" cy="165.04" rx="4.51" ry="5.39" transform="translate(10.31 342.18) rotate(-80.86)"/><ellipse class="cls-78" cx="205.96" cy="165.04" rx="4.1" ry="4.9" transform="translate(10.31 342.18) rotate(-80.86)"/><ellipse class="cls-79" cx="205.96" cy="165.04" rx="3.69" ry="4.41" transform="translate(10.31 342.18) rotate(-80.86)"/><ellipse class="cls-80" cx="205.96" cy="165.04" rx="3.28" ry="3.92" transform="translate(10.31 342.18) rotate(-80.86)"/><ellipse class="cls-81" cx="205.96" cy="165.04" rx="2.87" ry="3.43" transform="translate(10.31 342.18) rotate(-80.86)"/><ellipse class="cls-82" cx="205.96" cy="165.04" rx="2.46" ry="2.94" transform="translate(10.31 342.18) rotate(-80.86)"/><ellipse class="cls-83" cx="205.96" cy="165.04" rx="2.05" ry="2.45" transform="translate(10.31 342.18) rotate(-80.86)"/><ellipse class="cls-84" cx="205.96" cy="165.04" rx="1.64" ry="1.96" transform="translate(10.31 342.18) rotate(-80.86)"/><ellipse class="cls-85" cx="205.96" cy="165.04" rx="1.23" ry="1.47" transform="translate(10.31 342.18) rotate(-80.86)"/><ellipse class="cls-86" cx="205.96" cy="165.04" rx="0.82" ry="0.98" transform="translate(10.31 342.18) rotate(-80.86)"/><ellipse class="cls-87" cx="205.96" cy="165.04" rx="0.41" ry="0.49" transform="translate(10.31 342.18) rotate(-80.86)"/></g><g class="cls-88"><rect class="cls-51" x="102.44" y="147.35" width="50.84" height="37.28"/><ellipse class="cls-51" cx="127.86" cy="165.99" rx="11.55" ry="17.75" transform="translate(-66.94 243.15) rotate(-74)"/><ellipse class="cls-61" cx="127.86" cy="165.99" rx="11.13" ry="17.12" transform="translate(-66.94 243.15) rotate(-74)"/><ellipse class="cls-62" cx="127.86" cy="165.99" rx="10.72" ry="16.48" transform="translate(-66.94 243.15) rotate(-74)"/><ellipse class="cls-63" cx="127.86" cy="165.99" rx="10.31" ry="15.85" transform="translate(-66.94 243.15) rotate(-74)"/><ellipse class="cls-64" cx="127.86" cy="165.99" rx="9.9" ry="15.21" transform="translate(-66.94 243.15) rotate(-74)"/><ellipse class="cls-65" cx="127.86" cy="165.99" rx="9.48" ry="14.58" transform="matrix(0.28, -0.96, 0.96, 0.28, -66.94, 243.15)"/><ellipse class="cls-66" cx="127.86" cy="165.99" rx="9.07" ry="13.95" transform="translate(-66.94 243.15) rotate(-74)"/><ellipse class="cls-67" cx="127.86" cy="165.99" rx="8.66" ry="13.31" transform="translate(-66.94 243.15) rotate(-74)"/><ellipse class="cls-68" cx="127.86" cy="165.99" rx="8.25" ry="12.68" transform="translate(-66.94 243.15) rotate(-74)"/><ellipse class="cls-69" cx="127.86" cy="165.99" rx="7.84" ry="12.04" transform="matrix(0.28, -0.96, 0.96, 0.28, -66.94, 243.15)"/><ellipse class="cls-70" cx="127.86" cy="165.99" rx="7.42" ry="11.41" transform="translate(-66.94 243.15) rotate(-74)"/><ellipse class="cls-71" cx="127.86" cy="165.99" rx="7.01" ry="10.78" transform="translate(-66.94 243.15) rotate(-74)"/><ellipse class="cls-72" cx="127.86" cy="165.99" rx="6.6" ry="10.14" transform="translate(-66.94 243.15) rotate(-74)"/><ellipse class="cls-73" cx="127.86" cy="165.99" rx="6.19" ry="9.51" transform="translate(-66.94 243.15) rotate(-74)"/><ellipse class="cls-74" cx="127.86" cy="165.99" rx="5.77" ry="8.87" transform="translate(-66.94 243.15) rotate(-74)"/><ellipse class="cls-75" cx="127.86" cy="165.99" rx="5.36" ry="8.24" transform="translate(-66.94 243.15) rotate(-74)"/><ellipse class="cls-76" cx="127.86" cy="165.99" rx="4.95" ry="7.61" transform="translate(-66.94 243.15) rotate(-74)"/><ellipse class="cls-77" cx="127.86" cy="165.99" rx="4.54" ry="6.97" transform="translate(-66.94 243.15) rotate(-74)"/><ellipse class="cls-78" cx="127.86" cy="165.99" rx="4.12" ry="6.34" transform="translate(-66.94 243.15) rotate(-74)"/><ellipse class="cls-79" cx="127.86" cy="165.99" rx="3.71" ry="5.71" transform="translate(-66.94 243.15) rotate(-74)"/><ellipse class="cls-80" cx="127.86" cy="165.99" rx="3.3" ry="5.07" transform="translate(-66.94 243.15) rotate(-74)"/><ellipse class="cls-81" cx="127.86" cy="165.99" rx="2.89" ry="4.44" transform="translate(-66.94 243.15) rotate(-74)"/><ellipse class="cls-82" cx="127.86" cy="165.99" rx="2.47" ry="3.8" transform="translate(-66.94 243.15) rotate(-74)"/><ellipse class="cls-83" cx="127.86" cy="165.99" rx="2.06" ry="3.17" transform="translate(-66.94 243.15) rotate(-74)"/><ellipse class="cls-84" cx="127.86" cy="165.99" rx="1.65" ry="2.54" transform="translate(-66.94 243.15) rotate(-74)"/><ellipse class="cls-85" cx="127.86" cy="165.99" rx="1.24" ry="1.9" transform="translate(-66.94 243.15) rotate(-74)"/><ellipse class="cls-86" cx="127.86" cy="165.99" rx="0.82" ry="1.27" transform="translate(-66.94 243.15) rotate(-74)"/><ellipse class="cls-87" cx="127.86" cy="165.99" rx="0.41" ry="0.63" transform="translate(-66.94 243.15) rotate(-74)"/></g><circle class="cls-55" cx="104.41" cy="288.83" r="12.46"/><path class="cls-2" d="M104.41,303.3a14.47,14.47,0,1,1,14.46-14.47A14.48,14.48,0,0,1,104.41,303.3Zm0-24.93a10.47,10.47,0,1,0,10.46,10.46A10.47,10.47,0,0,0,104.41,278.37Z"/><circle class="cls-55" cx="217.35" cy="288.83" r="12.46"/><path class="cls-2" d="M217.35,303.3a14.47,14.47,0,1,1,14.46-14.47A14.48,14.48,0,0,1,217.35,303.3Zm0-24.93a10.47,10.47,0,1,0,10.46,10.46A10.48,10.48,0,0,0,217.35,278.37Z"/><path class="cls-2" d="M177.05,5.8c-.15,2.16-5.62,3.54-12.22,3.09S153,6.33,153.15,4.18s5.61-3.54,12.21-3.1S177.2,3.64,177.05,5.8Z"/><path class="cls-2" d="M167.24,10c-.82,0-1.65,0-2.47-.08a29.2,29.2,0,0,1-8.68-1.79c-3.39-1.36-4-2.92-3.94-4s.9-2.53,4.44-3.42a29.18,29.18,0,0,1,8.84-.6,29.54,29.54,0,0,1,8.68,1.78c3.39,1.37,4,2.93,3.94,4h0C177.86,8.67,172.8,10,167.24,10ZM162.9,2a24.49,24.49,0,0,0-5.82.62c-2.11.54-2.91,1.27-2.93,1.62s.67,1.19,2.69,2a27.41,27.41,0,0,0,8.06,1.64C172,8.37,176,6.72,176.05,5.73h0c0-.36-.67-1.19-2.69-2a27.4,27.4,0,0,0-8.06-1.65C164.48,2,163.68,2,162.9,2Z"/><path class="cls-3" d="M251.2,93a121,121,0,0,0-11.94-4,119.62,119.62,0,0,0-15.6-3.21c-2-29.11-12.37-50.71-26.24-54.19a20.81,20.81,0,0,0-16.06,2.63c-9.16,6.1-10.72,19.34-11.87,29.79a80,80,0,0,0-.33,13.64A234.6,234.6,0,0,0,61.55,100.46,104.38,104.38,0,0,1,64.3,82.32c1.93-7.93,8.89-37,35.19-56.82,31.1-23.41,66.56-18.31,78.65-15.77,9.28,1.95,37.52,8.54,56.73,35.28A89.29,89.29,0,0,1,251.2,93Z"/><path class="cls-2" d="M59.35,103.73l.21-3.39a105.59,105.59,0,0,1,2.8-18.49l0-.14c6.09-25,18.17-44.45,35.9-57.8,30.93-23.29,66.43-19,80.26-16.14C209.73,14.33,227.27,31,236.5,43.85a90.82,90.82,0,0,1,16.7,49.09l.13,3.07-2.86-1.12a117.16,117.16,0,0,0-27.08-7.07l-1.61-.23L221.67,86c-2-28.11-11.9-49.16-24.74-52.38a18.73,18.73,0,0,0-14.46,2.35c-8.5,5.66-9.94,18.78-11,28.35a77.72,77.72,0,0,0-.31,13.3l.13,2.18-2.18-.06a232.2,232.2,0,0,0-106.7,22.56ZM155.86,9.45c-15.92,0-36.44,3.55-55.16,17.65-17,12.78-28.56,31.48-34.42,55.56l0,.14a101,101,0,0,0-2.42,14.39A236.64,236.64,0,0,1,167.06,75.66a81.68,81.68,0,0,1,.44-11.81c1.14-10.36,2.7-24.54,12.76-31.24a22.84,22.84,0,0,1,17.64-2.9c14.49,3.63,25.26,24.9,27.64,54.38a121.57,121.57,0,0,1,14.25,3C242.89,88,246,89,249,90.06a86.39,86.39,0,0,0-15.77-43.88c-8.81-12.26-25.6-28.2-55.52-34.5A108.45,108.45,0,0,0,155.86,9.45Z"/><path class="cls-2" d="M296.57,209.52A140.55,140.55,0,0,1,96.12,328.9,140.92,140.92,0,0,1,49,292.71q-2.08-2.44-4-5l-.54-.71-.65-.86a139.18,139.18,0,0,1-24.69-53.32,142.18,142.18,0,0,1-3.2-23.3H6.48A148.16,148.16,0,0,0,33,287.3c1.26,1.81,2.57,3.6,3.91,5.37a149.89,149.89,0,0,0,240.15-2.15,148.55,148.55,0,0,0,28.86-81Z"/><path class="cls-2" d="M222.2,85.47c-13.23-4.36-22.36-5.74-28-6.21-3.11-.27-13.2-.93-23.34-1.46l-1.68-.09c0-5.13.3-10.65.91-16.5q.47-4.38,1.1-8.43a125.92,125.92,0,0,1,47.71,6.33,54.33,54.33,0,0,1,3.32,26.36Z"/><path class="cls-2" d="M223.89,88.14l-2.31-.77A122.77,122.77,0,0,0,194,81.25c-2.91-.25-12.88-.9-23.28-1.46l-3.59-.18V77.7c0-5.56.35-11.18.92-16.7.3-2.84.68-5.71,1.12-8.53l.25-1.59,1.6-.1a127.56,127.56,0,0,1,48.47,6.44l.88.3.34.87a56.51,56.51,0,0,1,3.45,27.33Zm-52.7-12.33c10.35.55,20.25,1.21,23.16,1.45a122.64,122.64,0,0,1,26.1,5.55,51.43,51.43,0,0,0,0-7.85,52.58,52.58,0,0,0-3.1-14.25,123.63,123.63,0,0,0-44.44-6c-.33,2.24-.61,4.49-.85,6.73C171.56,66.18,171.27,71,171.19,75.81Z"/><path class="cls-89" d="M189.71,66.16a4,4,0,1,1-4-4.34A4.18,4.18,0,0,1,189.71,66.16Z"/><path class="cls-89" d="M210.37,67.86a4.2,4.2,0,1,1-4.18-4.53A4.37,4.37,0,0,1,210.37,67.86Z"/><path class="cls-55" d="M417.78,145.16l-7.6-9c-1.44-1.7-4.42-.78-4.42,1.36v39c0,9.55-7.52,14.7-16,14.7-8.85,0-16.37-5-16.37-14.7V99.09c0-9.85,8.19-15.61,17-15.61a21.66,21.66,0,0,1,16.19,7.42l23,26.83L452.84,90.9a21.35,21.35,0,0,1,16-7.42c8.85,0,17.2,5.76,17.2,15.61v77.43c0,9.7-7.52,14.7-16.36,14.7-8.69,0-16-5-16-14.7V137.58c0-2.14-3-3.06-4.43-1.35l-7.43,8.93c-3.84,4.69-7.68,6.21-12.19,6.21C425.29,151.37,421.28,149.25,417.78,145.16Z"/><path class="cls-55" d="M655.59,145.16l-7.68-9c-1.45-1.7-4.46-.78-4.46,1.36v39c0,9.55-7.59,14.7-16.19,14.7-8.94,0-16.53-5-16.53-14.7V99.09c0-9.85,8.27-15.61,17.2-15.61a22,22,0,0,1,16.36,7.42l23.27,26.83L691,90.9a21.64,21.64,0,0,1,16.19-7.42c8.93,0,17.37,5.76,17.37,15.61v77.43c0,9.7-7.59,14.7-16.53,14.7-8.77,0-16.19-5-16.19-14.7V137.58c0-2.14-3-3.06-4.47-1.35l-7.5,8.93c-3.88,4.69-7.76,6.21-12.31,6.21C663.18,151.37,659.13,149.25,655.59,145.16Z"/><path class="cls-55" d="M829.42,83.48h-4.75a14.2,14.2,0,0,0-13.81,10.89,48.14,48.14,0,0,0-30.38-10.89c-27.8,0-50.36,24.11-50.36,53.88s22.56,53.87,50.36,53.87a47.8,47.8,0,0,0,30.35-10.92,14.26,14.26,0,0,0,13.84,10.92h4.75A14.24,14.24,0,0,0,843.66,177V97.72A14.22,14.22,0,0,0,829.42,83.48Zm-48.33,75.87a23.18,23.18,0,1,1,23.18-23.18A23.18,23.18,0,0,1,781.09,159.35Z"/><path class="cls-3" d="M829.42,197.73h-4.75a14.27,14.27,0,0,0-13.9,11.11,47.2,47.2,0,0,0-30.29-11.11c-27.8,0-50.36,24.7-50.36,55.19s22.56,55.2,50.36,55.2A47.21,47.21,0,0,0,810.77,297a14.28,14.28,0,0,0,13.9,11.12h4.75a14.24,14.24,0,0,0,14.24-14.24V212A14.23,14.23,0,0,0,829.42,197.73Zm-48.33,77.72c-12.8,0-23.18-10.63-23.18-23.74S768.29,228,781.09,228s23.18,10.63,23.18,23.74S793.89,275.45,781.09,275.45Z"/><path class="cls-55" d="M590.94,83.48h-4.76a14.16,14.16,0,0,0-13.81,10.89A48.2,48.2,0,0,0,542,83.48c-27.83,0-50.36,24.11-50.36,53.88s22.53,53.87,50.36,53.87a47.86,47.86,0,0,0,30.35-10.92,14.24,14.24,0,0,0,13.84,10.92h4.76A14.25,14.25,0,0,0,605.17,177V97.72A14.23,14.23,0,0,0,590.94,83.48Zm-48.33,75.87a23.18,23.18,0,1,1,23.18-23.18A23.18,23.18,0,0,1,542.61,159.35Z"/><path class="cls-3" d="M723.84,292.93c0,10-9.41,15.18-20.49,15.18-10.87,0-20.07-5.16-20.07-15.18V273.52c0-3.72-4-6.73-9-6.73H659.24c-5,0-9,3-9,6.73v19.41c0,10-9.41,15.18-20.49,15.18-10.87,0-20.07-5.16-20.07-15.18V211.85c0-9.55,9.2-15,20.07-15,11.08,0,20.49,5.47,20.49,15v19.57c0,3.72,4,6.73,9,6.73H674.3c5,0,9-3,9-6.73V211.85c0-9.55,9.2-15,20.07-15,11.08,0,20.49,5.47,20.49,15Z"/><path class="cls-3" d="M530.27,247.41l37-42.08a23.16,23.16,0,0,1,17.68-7.61c9.55,0,18.49,5.59,18.49,14.91v81.2c0,9.32-8.53,14.28-18.49,14.28-10.56,0-19.1-5-19.1-14.28V258.27l-36.78,42.08a23.21,23.21,0,0,1-17.88,7.76c-9.55,0-18.69-5.59-18.69-15.06V212c0-9.32,8.73-14.29,18.69-14.29,10.57,0,19.1,5,19.1,14.29Z"/><path class="cls-3" d="M477.56,251.1c4.81-5.43,7.24-12.24,7.24-20.31,0-29.77-24.57-36-45.18-36H418.14a51.29,51.29,0,0,0-28.53,8.6c-9.33,6.11-14.07,14.15-14.07,23.89a13.35,13.35,0,0,0,2.8,8.18,10.57,10.57,0,0,0,8.8,4.31h8.33c4.15,0,9.86-1.62,13.45-9.3,2.15-4.37,5.75-6.32,11.67-6.32h17c5.9,0,8.69,1,10,1.86.9.59,1.92,1.65,1.92,4.69s-1,4.1-1.92,4.68c-1.3.85-4.09,1.87-10,1.87H421.84a10.2,10.2,0,0,0-7.73,3.51,11.4,11.4,0,0,0-3,7.75v5.9a11.18,11.18,0,0,0,3.2,7.94,10.7,10.7,0,0,0,7.83,3.32h18.06c5.19,0,7.73,1,8.94,1.78.49.32,1.78,1.18,1.78,4.81s-1.29,4.49-1.78,4.81c-1.21.81-3.75,1.77-8.94,1.77h-21.9a14.13,14.13,0,0,1-7-1.74,9,9,0,0,1-4-4.06c-4-8.76-9.88-10.6-14.12-10.6H384.9a12.2,12.2,0,0,0-7.45,2.78c-1.92,1.47-4.21,4.34-4.21,9.7,0,10,4.69,18.23,13.95,24.44a50.6,50.6,0,0,0,28.64,8.77h26.8c13.49,0,24.13-2.77,31.61-8.23,7.93-5.78,12-15.08,12-27.64C486.2,263.54,483.3,256.45,477.56,251.1Z"/></svg>