<svg width="212" height="316" viewBox="0 0 212 316" fill="none" xmlns="http://www.w3.org/2000/svg">
<path d="M8.33379 315.927C7.23724 315.927 6.14069 315.709 5.11724 315.272C1.97379 313.961 0 310.976 0 307.627V128.075C0 61.8893 37.3559 30.5078 68.6441 15.7999C101.906 0.218381 134.657 0.0727539 136.046 0.0727539C140.651 0.0727539 144.379 3.78611 144.379 8.37321V68.2239C144.379 72.811 140.651 76.5244 136.046 76.5244C133.779 76.5244 83.1917 77.2525 77.3434 119.774H136.046C140.651 119.774 144.379 123.487 144.379 128.075V169.431L195.259 124.361V8.37321C195.259 3.78611 198.988 0.0727539 203.593 0.0727539C208.199 0.0727539 211.927 3.78611 211.927 8.37321V128.075C211.927 130.477 210.903 132.734 209.149 134.264L141.528 194.114C139.043 196.299 135.534 196.808 132.537 195.498C129.539 194.187 127.639 191.202 127.639 187.925V136.375H68.3517C63.7462 136.375 60.0179 132.662 60.0179 128.075C60.0179 92.6884 81.0717 75.9419 98.7628 68.0783C109.655 63.2727 120.474 61.3068 127.639 60.4331V17.1105C116.454 18.1299 95.6924 21.3336 75.2234 31.0175C36.3324 49.4386 16.6676 82.058 16.6676 128.002V287.458L60.091 244.208V187.78C60.091 183.193 63.8193 179.479 68.4248 179.479C73.0303 179.479 76.7586 183.193 76.7586 187.78V247.63C76.7586 249.815 75.8814 251.926 74.3462 253.528L14.2552 313.379C12.6469 315.126 10.5269 315.927 8.33379 315.927Z" fill="#FFAF29"/>
</svg>
