<svg width="168" height="168" viewBox="0 0 168 168" fill="none" xmlns="http://www.w3.org/2000/svg">
<path d="M69.9703 108.507C69.8019 108.507 69.6335 108.473 69.4763 108.406C68.9936 108.205 68.6904 107.746 68.6904 107.232V79.6576C68.6904 69.4934 74.4273 64.674 79.2323 62.4153C84.3405 60.0224 89.37 60 89.5833 60C90.2906 60 90.8632 60.5703 90.8632 61.2747V70.4662C90.8632 71.1706 90.2906 71.7409 89.5833 71.7409C89.2353 71.7409 81.4664 71.8527 80.5683 78.3829H89.5833C90.2906 78.3829 90.8632 78.9532 90.8632 79.6576V86.0089L98.677 79.0874V61.2747C98.677 60.5703 99.2496 60 99.9568 60C100.664 60 101.237 60.5703 101.237 61.2747V79.6576C101.237 80.0266 101.08 80.3733 100.81 80.6081L90.4254 89.7995C90.0436 90.135 89.5048 90.2133 89.0445 90.012C88.5842 89.8107 88.2923 89.3523 88.2923 88.8491V80.9324H79.1874C78.4801 80.9324 77.9076 80.3621 77.9076 79.6576C77.9076 74.2233 81.1409 71.6515 83.8577 70.4438C85.5305 69.7058 87.1921 69.4039 88.2923 69.2697V62.6165C86.5746 62.7731 83.3862 63.2651 80.2427 64.7523C74.2701 67.5813 71.2501 72.5907 71.2501 79.6464V104.135L77.9188 97.4926V88.8267C77.9188 88.1223 78.4914 87.552 79.1986 87.552C79.9059 87.552 80.4785 88.1223 80.4785 88.8267V98.0182C80.4785 98.3536 80.3438 98.6779 80.108 98.9239L70.8796 108.115C70.6327 108.384 70.3071 108.507 69.9703 108.507Z" fill="#FFAF29"/>
<path d="M153.843 86.2028C153.861 85.7979 154.016 85.458 154.306 85.1832C154.596 84.919 154.954 84.7967 155.38 84.8164C155.785 84.8352 156.12 84.9948 156.383 85.2953C156.658 85.5963 156.786 85.9439 156.767 86.3382C156.749 86.7324 156.59 87.0614 156.289 87.3251C155.999 87.6 155.651 87.7281 155.246 87.7093C154.82 87.6896 154.475 87.5295 154.211 87.229C153.947 86.9391 153.824 86.5971 153.843 86.2028Z" fill="#FFAF29"/>
<path d="M155.989 106.575L147.829 104.268L148.248 102.79L155.114 104.732L156.11 101.222L154.319 100.616C153.236 100.254 152.345 99.897 151.646 99.5443C150.958 99.1946 150.44 98.7931 150.092 98.3399C149.744 97.8866 149.653 97.3676 149.819 96.7827C149.894 96.5158 150.026 96.2262 150.215 95.9137L151.436 96.3587C151.367 96.4834 151.317 96.6022 151.285 96.7151C151.168 97.1256 151.261 97.4842 151.562 97.7911C151.863 98.0979 152.251 98.3518 152.726 98.5527C153.201 98.7536 153.888 99.0089 154.787 99.3186L157.766 100.311L155.989 106.575Z" fill="#919298"/>
<path d="M150.456 119.731L143.892 111.937C143.275 111.232 142.918 110.581 142.818 109.986C142.713 109.4 142.811 108.801 143.112 108.188C143.296 107.815 143.537 107.482 143.835 107.188C144.12 106.9 144.433 106.697 144.776 106.58L145.521 107.676C144.955 107.885 144.545 108.248 144.291 108.765C144.126 109.101 144.081 109.423 144.155 109.732C144.214 110.046 144.415 110.4 144.757 110.793L145.168 111.297L154.42 111.66L153.715 113.096L146.317 112.769L151.119 118.381L150.456 119.731Z" fill="#919298"/>
<path d="M143.801 129.919L136.94 124.935L137.844 123.694L140.615 125.706C140.809 124.714 141.174 123.851 141.708 123.118C142.329 122.265 143.008 121.75 143.745 121.572C144.481 121.395 145.246 121.595 146.04 122.172L148.266 123.789L147.362 125.03L145.213 123.47C144.738 123.125 144.273 123.011 143.818 123.129C143.357 123.255 142.931 123.585 142.542 124.12C142.102 124.723 141.779 125.484 141.572 126.402L144.705 128.677L143.801 129.919Z" fill="#919298"/>
<path d="M131.09 143.013L125.379 136.745L134.32 128.622L140.031 134.891L138.894 135.924L134.089 130.649L131.317 133.166L136.123 138.441L134.986 139.474L130.18 134.199L127.421 136.705L132.227 141.981L131.09 143.013Z" fill="#919298"/>
<path d="M123.522 148.247C122.509 148.839 121.59 149.043 120.765 148.859C119.93 148.68 119.224 148.098 118.646 147.114L116.056 142.697L117.313 141.962L117.879 142.928C117.901 142.459 118.064 142.011 118.371 141.584C118.673 141.172 119.105 140.802 119.667 140.474C120.487 139.994 121.261 139.807 121.99 139.912C122.71 140.022 123.259 140.399 123.637 141.043C124.015 141.687 124.082 142.34 123.839 143.001C123.602 143.671 122.972 144.305 121.95 144.903L119.851 146.131L120.005 146.393C120.339 146.964 120.761 147.304 121.271 147.413C121.781 147.523 122.358 147.39 123.002 147.013C123.435 146.759 123.815 146.438 124.143 146.049C124.477 145.668 124.716 145.275 124.861 144.869L125.996 145.539C125.797 146.064 125.481 146.558 125.048 147.021C124.62 147.494 124.111 147.902 123.522 148.247ZM120.045 141.624C119.539 141.92 119.166 142.287 118.927 142.723C118.694 143.168 118.616 143.647 118.693 144.158L119.292 145.179L121.336 143.983C122.46 143.326 122.8 142.62 122.357 141.866C122.141 141.498 121.829 141.292 121.419 141.247C121.01 141.202 120.552 141.328 120.045 141.624Z" fill="#919298"/>
<path d="M108.413 155.288L105.43 147.35L106.719 146.868L107.665 149.384L109.972 148.519L110.137 148.457L110.929 145.29L112.472 144.712L111.558 148.147C112.225 148.102 112.795 148.225 113.269 148.514C113.746 148.814 114.101 149.273 114.334 149.892C114.675 150.801 114.624 151.606 114.181 152.307C113.742 153.018 112.978 153.578 111.889 153.986L108.413 155.288ZM112.848 150.397C112.649 149.868 112.336 149.536 111.909 149.399C111.476 149.277 110.925 149.341 110.255 149.592L108.053 150.417L109.229 153.547L111.372 152.745C112.75 152.228 113.242 151.446 112.848 150.397Z" fill="#919298"/>
<path d="M89.8984 157.761L94.5711 157.219L93.7466 150.131L95.2724 149.954L96.2521 158.377L90.0537 159.096L89.8984 157.761Z" fill="#919298"/>
<path d="M82.1565 159.361C80.9845 159.306 80.1028 158.977 79.5115 158.373C78.9095 157.769 78.635 156.896 78.6879 155.756L78.9253 150.642L80.3797 150.709L80.3278 151.828C80.6018 151.446 80.9835 151.159 81.4729 150.968C81.9511 150.787 82.5152 150.712 83.1652 150.742C84.1135 150.786 84.8647 151.05 85.4188 151.535C85.9623 152.019 86.2167 152.634 86.1821 153.38C86.1475 154.126 85.8481 154.71 85.2839 155.133C84.7192 155.566 83.8455 155.755 82.6628 155.7L80.2334 155.588L80.2193 155.891C80.1886 156.552 80.3569 157.067 80.7242 157.436C81.0915 157.806 81.6481 158.008 82.3939 158.042C82.8947 158.065 83.3888 158.003 83.8762 157.854C84.3631 157.717 84.7782 157.517 85.1213 157.255L85.7072 158.436C85.2541 158.767 84.7196 159.009 84.1038 159.162C83.4876 159.326 82.8385 159.392 82.1565 159.361ZM82.8546 151.913C82.2685 151.886 81.7565 151.99 81.3184 152.226C80.8798 152.473 80.5535 152.831 80.3395 153.302L80.2846 154.485L82.65 154.594C83.95 154.654 84.6202 154.248 84.6608 153.374C84.6806 152.948 84.531 152.604 84.212 152.344C83.8931 152.084 83.4406 151.94 82.8546 151.913Z" fill="#919298"/>
<path d="M67.8608 157.636C67.0597 157.454 66.3819 157.115 65.8276 156.618C65.2732 156.121 64.8911 155.515 64.6814 154.8C64.4612 154.083 64.4456 153.309 64.6344 152.477C64.8232 151.644 65.1729 150.947 65.6834 150.384C66.1811 149.83 66.7874 149.448 67.5022 149.238C68.2171 149.027 68.9751 149.013 69.7762 149.194C70.3692 149.328 70.8894 149.566 71.3369 149.908C71.7739 150.248 72.1145 150.675 72.3587 151.189L73.3288 146.914L74.827 147.253L72.2636 158.55L70.8279 158.225L71.1253 156.914C70.6885 157.297 70.1893 157.545 69.6276 157.658C69.0635 157.782 68.4746 157.775 67.8608 157.636ZM69.6036 150.533C69.073 150.413 68.5725 150.426 68.1021 150.571C67.6189 150.724 67.2081 150.992 66.8697 151.375C66.5185 151.765 66.278 152.247 66.1481 152.819C66.0183 153.391 66.0287 153.924 66.1792 154.417C66.317 154.919 66.5721 155.337 66.9443 155.673C67.3062 156.007 67.7524 156.233 68.283 156.353C68.8032 156.471 69.3049 156.453 69.7881 156.3C70.2585 156.155 70.6681 155.892 71.017 155.512C71.3554 155.129 71.5895 154.652 71.7193 154.08C71.8492 153.507 71.8452 152.971 71.7074 152.469C71.5672 151.978 71.3122 151.56 70.9423 151.213C70.57 150.878 70.1238 150.651 69.6036 150.533Z" fill="#919298"/>
<path d="M55.8941 153.979C54.8149 153.519 54.1042 152.902 53.7618 152.13C53.4096 151.353 53.458 150.44 53.9071 149.391L55.9217 144.684L57.2608 145.255L56.8202 146.285C57.2109 146.023 57.669 145.888 58.1944 145.88C58.7058 145.878 59.2607 146.005 59.8592 146.26C60.7323 146.633 61.3436 147.143 61.6929 147.79C62.0324 148.434 62.0552 149.099 61.7614 149.785C61.4676 150.472 60.9824 150.914 60.3058 151.113C59.625 151.321 58.7401 151.193 57.6511 150.728L55.4143 149.773L55.2947 150.053C55.0345 150.661 55.0117 151.202 55.2264 151.676C55.4411 152.151 55.8918 152.534 56.5785 152.827C57.0396 153.024 57.5245 153.138 58.0331 153.17C58.5376 153.211 58.9964 153.169 59.4096 153.044L59.545 154.354C59.0043 154.506 58.4186 154.546 57.7881 154.474C57.1533 154.412 56.522 154.247 55.8941 153.979ZM59.1579 147.248C58.6183 147.018 58.1019 146.936 57.6088 147.004C57.1114 147.082 56.68 147.304 56.3145 147.67L55.8487 148.758L58.0266 149.688C59.2235 150.199 59.9941 150.052 60.3382 149.248C60.5061 148.855 60.4862 148.482 60.2786 148.126C60.071 147.771 59.6975 147.478 59.1579 147.248Z" fill="#919298"/>
<path d="M46.9308 149.762L45.6466 148.919L47.6255 145.912L43.5855 143.261L41.6066 146.268L40.3223 145.426L44.9837 138.342L46.268 139.184L44.3155 142.152L48.3555 144.802L50.308 141.835L51.5922 142.678L46.9308 149.762Z" fill="#919298"/>
<path d="M31.7965 136.499L34.0789 138.602L38.9229 133.362L40.0523 134.403L35.2083 139.643L37.4906 141.747L36.5783 142.734L30.8842 137.485L31.7965 136.499Z" fill="#919298"/>
<path d="M27.6367 134.312L26.7009 133.094L31.6035 129.338L23.5327 128.971L22.6846 127.867L29.4162 122.71L30.352 123.928L25.4494 127.684L33.5104 128.039L34.3683 129.155L27.6367 134.312Z" fill="#919298"/>
<path d="M15.7919 116.164L23.3515 112.322L23.9764 113.548L21.5801 114.766L22.6991 116.961L22.779 117.118L26.0182 117.554L26.7666 119.022L23.2476 118.495C23.3671 119.152 23.3094 119.732 23.0745 120.234C22.8301 120.741 22.4132 121.145 21.8236 121.444C20.9583 121.884 20.152 121.923 19.4048 121.561C18.648 121.204 18.0056 120.507 17.4776 119.471L15.7919 116.164ZM21.1543 120.026C21.6583 119.77 21.954 119.422 22.0414 118.983C22.1144 118.539 21.9886 117.998 21.6641 117.362L20.596 115.266L17.6149 116.781L18.654 118.82C19.3224 120.131 20.1559 120.533 21.1543 120.026Z" fill="#919298"/>
<path d="M9.69407 97.0544L19.679 99.1202C20.6 99.2937 21.2841 99.5835 21.7314 99.9894C22.1764 100.385 22.4707 100.916 22.6141 101.584C22.7015 101.991 22.7189 102.401 22.6662 102.816C22.6217 103.219 22.5012 103.572 22.3047 103.876L21.0404 103.476C21.3553 102.961 21.4523 102.422 21.3312 101.859C21.2528 101.494 21.0887 101.213 20.839 101.015C20.5975 100.805 20.2208 100.651 19.7088 100.554L19.0728 100.412L11.5833 105.846L11.2471 104.281L17.2587 99.966L10.0101 98.5248L9.69407 97.0544Z" fill="#919298"/>
<path d="M17.2892 87.6575C17.3226 88.5208 17.166 89.3008 16.8193 89.9973C16.4723 90.6832 15.9811 91.2305 15.3457 91.6392C14.6998 92.0484 13.9611 92.269 13.1297 92.301C12.2983 92.333 11.5501 92.1697 10.8851 91.811C10.2094 91.4528 9.67732 90.9449 9.28893 90.2874C8.88947 89.6196 8.67302 88.854 8.63961 87.9906C8.6099 87.2232 8.73805 86.5351 9.02405 85.9263C9.30963 85.3069 9.73915 84.8206 10.3126 84.4676L11.1092 85.6058C10.7145 85.8879 10.4235 86.23 10.2363 86.6322C10.049 87.0344 9.96466 87.4753 9.98323 87.9549C10.0047 88.5092 10.1466 89.0054 10.4091 89.4436C10.6712 89.8712 11.0363 90.204 11.5046 90.4422C11.9617 90.6701 12.4834 90.7728 13.0697 90.7502C13.6665 90.7272 14.1894 90.5843 14.6383 90.3215C15.076 90.0484 15.409 89.6887 15.6373 89.2422C15.8651 88.7851 15.9683 88.2795 15.9468 87.7252C15.9282 87.2456 15.8101 86.8125 15.5923 86.4259C15.3745 86.0393 15.0579 85.7206 14.6426 85.4697L15.3329 84.2743C15.9319 84.5821 16.403 85.0336 16.7463 85.6289C17.0785 86.2139 17.2595 86.8901 17.2892 87.6575Z" fill="#919298"/>
<path d="M9.76442 70.6429L18.1589 71.8445L17.9402 73.3648L10.8762 72.3537L10.195 77.089L17.259 78.1001L17.0404 79.6204L8.6459 78.4189L9.76442 70.6429Z" fill="#919298"/>
<path d="M17.4579 58.8121C17.5692 58.8491 17.7126 58.908 17.888 58.9888L15.7121 65.5157C16.451 65.6601 17.1258 65.5416 17.7365 65.1601C18.3404 64.7651 18.7739 64.1729 19.0371 63.3836C19.3576 62.4223 19.2917 61.5405 18.8396 60.7383L20.0491 60.2467C20.3528 60.7523 20.5249 61.3154 20.5654 61.9358C20.6093 62.5462 20.5199 63.1853 20.2973 63.8531C20.0139 64.7031 19.5905 65.3998 19.0271 65.9432C18.4535 66.4831 17.7922 66.831 17.0432 66.9866C16.2976 67.1322 15.53 67.0738 14.7405 66.8113C13.9611 66.5522 13.3149 66.1463 12.8021 65.5937C12.2926 65.0309 11.967 64.3887 11.8252 63.6672C11.6767 62.9321 11.7307 62.1801 11.9871 61.411C12.2435 60.642 12.6483 60.0178 13.2016 59.5386C13.7482 59.0458 14.3909 58.7368 15.1298 58.6115C15.8721 58.476 16.6481 58.5429 17.4579 58.8121ZM13.2169 61.8199C12.9841 62.5181 13.001 63.1756 13.2676 63.7926C13.5376 64.3994 14.0032 64.8576 14.6645 65.1674L16.385 60.0066C15.6798 59.8622 15.0354 59.957 14.4517 60.2913C13.8613 60.6121 13.4497 61.1216 13.2169 61.8199Z" fill="#919298"/>
<path d="M25.2738 51.9862L21.2565 52.6362L22.971 56.3431L22.171 57.8567L19.8977 52.8787L14.7438 53.7616L15.5438 52.248L19.339 51.6075L17.7195 48.1316L18.5046 46.6463L20.6753 51.4075L26.0888 50.4443L25.2738 51.9862Z" fill="#919298"/>
<path d="M22.8695 39.8023C23.5809 38.8693 24.3535 38.3311 25.1871 38.1878C26.0273 38.036 26.9016 38.3055 27.8101 38.9963L31.8858 42.0952L31.0029 43.253L30.1114 42.5751C30.2703 43.0176 30.2891 43.4942 30.1679 44.005C30.0446 44.5009 29.7857 45.0075 29.3912 45.5249C28.8155 46.2798 28.1705 46.7474 27.4561 46.9279C26.7482 47.0998 26.0971 46.9598 25.5027 46.5079C24.9084 46.0559 24.5978 45.4781 24.571 44.7744C24.5358 44.0642 24.8771 43.2383 25.5951 42.2968L27.0698 40.3629L26.8278 40.1789C26.3014 39.7787 25.7816 39.6247 25.2686 39.717C24.7555 39.8093 24.2726 40.1523 23.8199 40.746C23.5159 41.1447 23.2863 41.5865 23.1311 42.0715C22.9674 42.55 22.8956 43.0047 22.9159 43.4355L21.6108 43.2471C21.5958 42.6863 21.7004 42.1093 21.9248 41.5161C22.1406 40.9164 22.4555 40.3451 22.8695 39.8023ZM28.6039 44.6047C28.9597 44.1382 29.165 43.6578 29.2199 43.1636C29.2664 42.6629 29.1568 42.191 28.8911 41.7478L27.9486 41.0312L26.5127 42.9141C25.7236 43.9489 25.6772 44.731 26.3735 45.2604C26.7131 45.5187 27.0808 45.5906 27.4766 45.4761C27.8724 45.3617 28.2482 45.0712 28.6039 44.6047Z" fill="#919298"/>
<path d="M37.9579 31.567C37.6481 31.8285 37.2936 31.9463 36.8944 31.9204C36.5032 31.8876 36.1698 31.7084 35.8942 31.3827C35.6323 31.0734 35.5218 30.72 35.5626 30.3225C35.5966 29.917 35.7644 29.5869 36.066 29.3323C36.3676 29.0777 36.7174 28.9709 37.1154 29.0118C37.5146 29.0377 37.8452 29.2053 38.1071 29.5147C38.3828 29.8403 38.5002 30.2019 38.4593 30.5993C38.4266 30.9899 38.2594 31.3125 37.9579 31.567Z" fill="#FFAF29"/>
<path d="M47.7995 17.8689C48.8415 17.3296 49.7699 17.1733 50.5847 17.4001C51.409 17.6221 52.0841 18.2395 52.6099 19.2525L54.9688 23.7967L53.6757 24.466L53.1597 23.472C53.1142 23.9399 52.9275 24.3789 52.5995 24.7889C52.276 25.1845 51.8254 25.5319 51.2475 25.831C50.4044 26.2673 49.6215 26.4144 48.8986 26.2721C48.1852 26.1249 47.6565 25.7199 47.3125 25.0572C46.9685 24.3945 46.9349 23.7393 47.2116 23.0916C47.4834 22.4345 48.145 21.8338 49.1965 21.2895L51.3564 20.1716L51.2163 19.9018C50.9116 19.3148 50.5077 18.9534 50.0045 18.8175C49.5013 18.6816 48.9181 18.7852 48.255 19.1285C47.8098 19.3589 47.4133 19.6602 47.0657 20.0323C46.7131 20.395 46.4539 20.7754 46.288 21.1735L45.1889 20.4453C45.4151 19.9318 45.7564 19.4549 46.2128 19.0144C46.6643 18.5646 47.1932 18.1827 47.7995 17.8689ZM50.9294 24.6624C51.4504 24.3928 51.8414 24.0463 52.1024 23.6229C52.3584 23.1901 52.4611 22.7166 52.4105 22.2023L51.865 21.1514L49.762 22.2399C48.6063 22.8381 48.23 23.5254 48.6329 24.3017C48.8295 24.6804 49.1311 24.9026 49.5378 24.9683C49.9445 25.0341 50.4084 24.9321 50.9294 24.6624Z" fill="#FFAF29"/>
<path d="M68.7596 10.1004L67.991 19.1179L66.573 19.5131L62.4832 13.9759L61.826 20.8364L60.4081 21.2316L55.0887 13.9111L56.4913 13.5201L60.6826 19.3612L61.3308 12.1711L62.5792 11.8231L66.8254 17.6821L67.4341 10.4698L68.7596 10.1004Z" fill="#FFAF29"/>
<path d="M73.9767 9.36871L75.505 9.2152L76.3549 17.6525L74.8266 17.806L73.9767 9.36871ZM74.5773 7.66817C74.2801 7.69802 74.0211 7.62755 73.8002 7.45677C73.5899 7.28493 73.4709 7.06104 73.4431 6.7851C73.4153 6.50916 73.4873 6.26608 73.6591 6.05586C73.8404 5.83396 74.0797 5.70809 74.3768 5.67824C74.674 5.64839 74.9277 5.71939 75.138 5.89124C75.3578 6.05141 75.4816 6.26946 75.5094 6.54539C75.5383 6.83194 75.4621 7.08617 75.2807 7.30807C75.1089 7.51829 74.8744 7.63832 74.5773 7.66817Z" fill="#FFAF29"/>
<path d="M90.3144 5.5607L89.7654 17.42L88.295 17.3518L88.3571 16.0092C87.9945 16.4622 87.5464 16.7992 87.013 17.02C86.4795 17.2409 85.8985 17.3367 85.2698 17.3076C84.4493 17.2695 83.7225 17.0542 83.0893 16.6618C82.4561 16.2694 81.9681 15.7395 81.6253 15.0723C81.2936 14.3948 81.1475 13.6299 81.1869 12.7775C81.2264 11.9251 81.4423 11.1823 81.8347 10.5491C82.2377 9.91644 82.7726 9.43404 83.4393 9.10191C84.106 8.76979 84.8496 8.62275 85.6701 8.66081C86.2774 8.68899 86.8314 8.83214 87.332 9.09029C87.8331 9.33777 88.2438 9.69318 88.564 10.1565L88.7801 5.48952L90.3144 5.5607ZM85.4598 15.9709C85.9926 15.9956 86.4831 15.8956 86.9313 15.6708C87.38 15.4353 87.7372 15.0995 88.003 14.6634C88.2693 14.2166 88.416 13.7001 88.4431 13.1141C88.4702 12.5281 88.3716 12.0056 88.1473 11.5467C87.9234 11.0772 87.5987 10.7097 87.1732 10.4444C86.7477 10.179 86.2686 10.034 85.7358 10.0093C85.1924 9.9841 84.6966 10.0839 84.2484 10.3087C83.8108 10.534 83.4536 10.8698 83.1766 11.3161C82.9108 11.7523 82.7644 12.2634 82.7373 12.8494C82.7101 13.4354 82.8085 13.9632 83.0323 14.4328C83.2674 14.8922 83.592 15.2596 84.0064 15.5351C84.4319 15.8004 84.9164 15.9457 85.4598 15.9709Z" fill="#FFAF29"/>
<path d="M102.374 15.3717C102.348 15.4861 102.304 15.6346 102.241 15.8171L95.5302 14.2989C95.4586 15.0482 95.6425 15.7077 96.082 16.2774C96.5343 16.8391 97.1662 17.2117 97.9776 17.3953C98.966 17.6189 99.8374 17.4661 100.592 16.9369L101.199 18.0915C100.726 18.4436 100.182 18.6706 99.5684 18.7723C98.965 18.8764 98.3201 18.8508 97.6334 18.6954C96.7595 18.4977 96.0246 18.1455 95.4286 17.6388C94.8349 17.1217 94.424 16.4983 94.1958 15.7687C93.9781 15.0413 93.9612 14.272 94.1453 13.4606C94.3271 12.6596 94.668 11.9767 95.168 11.4118C95.6785 10.8492 96.286 10.4617 96.9905 10.2493C97.7077 10.0288 98.4617 10.008 99.2523 10.1869C100.043 10.3658 100.704 10.7067 101.235 11.2097C101.779 11.7046 102.15 12.3134 102.347 13.036C102.554 13.7609 102.563 14.5395 102.374 15.3717ZM98.9656 11.4508C98.2477 11.2884 97.5947 11.3703 97.0066 11.6965C96.4289 12.0252 96.0182 12.5337 95.7745 13.2223L101.08 14.4227C101.155 13.7069 100.998 13.0753 100.608 12.5278C100.231 11.9722 99.6834 11.6132 98.9656 11.4508Z" fill="#FFAF29"/>
<path d="M110.254 22.5488L109.222 18.6169L105.693 20.6825L104.109 20.0341L108.85 17.2892L107.477 12.2496L109.061 12.898L110.063 16.6099L113.37 14.6614L114.925 15.2977L110.39 17.9194L111.868 23.2094L110.254 22.5488Z" fill="#FFAF29"/>
<path d="M121.883 29.0405C121.321 28.6351 120.833 28.1718 120.42 27.6506C120.013 27.1208 119.747 26.6331 119.622 26.1877L120.853 25.5764C121 26.0108 121.243 26.4488 121.582 26.8903C121.92 27.3319 122.311 27.7117 122.752 28.0298C123.842 28.8156 124.612 28.8974 125.062 28.275C125.212 28.0675 125.257 27.8503 125.198 27.6232C125.138 27.3961 125.015 27.1756 124.827 26.9616C124.655 26.7451 124.39 26.4558 124.033 26.0935C123.542 25.6078 123.159 25.181 122.886 24.8129C122.621 24.451 122.46 24.0456 122.403 23.5968C122.346 23.1479 122.492 22.6814 122.842 22.1974C123.292 21.575 123.911 21.265 124.699 21.2675C125.493 21.2614 126.327 21.5733 127.201 22.2033C127.659 22.5338 128.077 22.9206 128.455 23.3635C128.832 23.8065 129.099 24.2291 129.256 24.6313L128.011 25.2332C127.711 24.4647 127.181 23.8061 126.419 23.2572C125.891 22.8767 125.426 22.6731 125.025 22.6464C124.623 22.6197 124.319 22.749 124.112 23.0343C123.95 23.259 123.9 23.4924 123.962 23.7343C124.024 23.9763 124.145 24.2086 124.327 24.4312C124.516 24.6602 124.791 24.9632 125.15 25.3404C125.635 25.8347 126.006 26.2596 126.262 26.6152C126.533 26.9685 126.696 27.3621 126.751 27.796C126.806 28.23 126.664 28.6804 126.327 29.1472C125.877 29.7696 125.249 30.0733 124.444 30.0583C123.654 30.0409 122.8 29.7017 121.883 29.0405Z" fill="#FFAF29"/>
<path d="M131.448 36.19C131.153 36.1749 130.849 36.0921 130.536 35.9418C130.23 35.7837 129.949 35.5835 129.694 35.3412C129.075 34.7538 128.753 34.1324 128.729 33.4771C128.705 32.8218 128.987 32.1851 129.575 31.5669L132.785 28.1943L131.74 27.2031L132.612 26.2875L133.656 27.2787L134.936 25.9343L136.05 26.9916L134.77 28.3361L136.534 30.0102L135.663 30.9258L133.899 29.2516L130.733 32.5779C130.417 32.9102 130.256 33.2422 130.249 33.5741C130.25 33.9134 130.405 34.2299 130.715 34.5236C131.055 34.8466 131.437 35.0254 131.861 35.0599L131.448 36.19Z" fill="#FFAF29"/>
<path d="M145.382 40.215L138.65 45.3722L137.763 44.2176L138.779 43.4392C138.244 43.4599 137.722 43.3418 137.216 43.085C136.724 42.8302 136.296 42.4659 135.932 41.9923C135.243 41.0957 134.946 40.2013 135.041 39.3091C135.144 38.4104 135.678 37.5913 136.644 36.8518L140.517 33.884L141.453 35.102L137.719 37.9627C137.067 38.4622 136.692 38.9982 136.594 39.5707C136.504 40.1366 136.683 40.7114 137.132 41.295C137.626 41.9378 138.21 42.2961 138.886 42.3699C139.561 42.4437 140.255 42.2081 140.966 41.6632L144.446 38.997L145.382 40.215Z" fill="#FFAF29"/>
<path d="M155.606 51.0337L145.003 56.3735L144.339 55.0596L145.54 54.4551C144.967 54.3615 144.453 54.1366 143.998 53.7804C143.543 53.4242 143.174 52.9653 142.89 52.4035C142.52 51.6704 142.35 50.9319 142.381 50.1879C142.411 49.444 142.633 48.7591 143.046 48.1332C143.473 47.512 144.068 47.0095 144.83 46.6257C145.592 46.2419 146.345 46.0655 147.09 46.0966C147.839 46.1372 148.523 46.3663 149.14 46.784C149.757 47.2016 150.251 47.777 150.621 48.5102C150.895 49.0529 151.043 49.6055 151.064 50.1681C151.095 50.7259 150.987 51.2578 150.741 51.764L154.914 49.6626L155.606 51.0337ZM144.148 51.9133C144.389 52.3893 144.717 52.7674 145.133 53.0474C145.559 53.3226 146.027 53.469 146.538 53.4864C147.058 53.4991 147.581 53.3735 148.105 53.1097C148.629 52.8458 149.035 52.5036 149.325 52.0831C149.624 51.6578 149.784 51.1948 149.806 50.6941C149.828 50.1934 149.719 49.705 149.479 49.2289C149.233 48.7434 148.903 48.3606 148.486 48.0805C148.075 47.81 147.607 47.6637 147.081 47.6415C146.571 47.624 146.053 47.7472 145.529 48.0111C145.005 48.2749 144.594 48.6195 144.295 49.0448C144.01 49.4748 143.85 49.9378 143.813 50.4338C143.791 50.9345 143.903 51.4277 144.148 51.9133Z" fill="#FFAF29"/>
<path d="M154.754 57.8358L155.245 59.2911L147.208 61.9963L146.717 60.541L154.754 57.8358ZM156.546 58.0428C156.451 57.7598 156.462 57.4917 156.579 57.2384C156.699 56.9953 156.891 56.8295 157.154 56.741C157.417 56.6525 157.67 56.6686 157.913 56.7893C158.17 56.9166 158.346 57.1218 158.442 57.4048C158.537 57.6878 158.525 57.9508 158.404 58.194C158.297 58.4439 158.112 58.613 157.849 58.7015C157.576 58.7934 157.312 58.7756 157.055 58.6483C156.811 58.5276 156.642 58.3258 156.546 58.0428Z" fill="#FFAF29"/>
<path d="M149.434 70.2904C149.283 69.4615 149.33 68.6831 149.576 67.955C149.822 67.2269 150.231 66.6156 150.802 66.121C151.385 65.635 152.086 65.3173 152.905 65.1679C153.723 65.0185 154.486 65.069 155.193 65.3194C155.913 65.5783 156.512 66.0057 156.99 66.6016C157.478 67.1956 157.798 67.907 157.95 68.7359C158.101 69.5648 158.053 70.338 157.805 71.0556C157.569 71.7817 157.16 72.3878 156.576 72.8738C156.005 73.3684 155.311 73.6904 154.492 73.8398C153.674 73.9892 152.905 73.9344 152.185 73.6755C151.478 73.4251 150.88 73.0029 150.392 72.409C149.905 71.8255 149.586 71.1193 149.434 70.2904ZM150.756 70.049C150.854 70.5842 151.063 71.0395 151.381 71.4151C151.711 71.7994 152.119 72.0719 152.604 72.2328C153.099 72.3917 153.636 72.4185 154.213 72.3131C154.79 72.2078 155.277 71.9942 155.673 71.6724C156.08 71.3487 156.365 70.9498 156.528 70.4755C156.692 70.0118 156.725 69.5124 156.627 68.9773C156.529 68.4421 156.32 67.9815 156 67.5954C155.682 67.2198 155.274 66.9472 154.777 66.7778C154.292 66.6169 153.761 66.5892 153.184 66.6945C152.607 66.7999 152.115 67.0144 151.708 67.3381C151.313 67.6704 151.028 68.0694 150.853 68.535C150.691 69.0093 150.659 69.5139 150.756 70.049Z" fill="#FFAF29"/>
<path d="M138.315 83.7893C138.315 113.791 113.958 138.114 83.9104 138.114C53.8631 138.114 29.5061 113.791 29.5061 83.7893C29.5061 53.7871 53.8631 29.4644 83.9104 29.4644C113.958 29.4644 138.315 53.7871 138.315 83.7893Z" stroke="#919298"/>
</svg>
