<svg width="100" height="30" viewBox="0 0 100 30" fill="none" xmlns="http://www.w3.org/2000/svg">
<g clip-path="url(#clip0)">
<path d="M37.9354 19.1667H31.2204L29.8969 22.2282H27.3266L33.3659 9.00051H35.8178L41.878 22.2282H39.2728L37.9354 19.1667ZM37.1065 17.2378L34.5779 11.458L32.0633 17.2378H37.1065Z" fill="#E9E9EB"/>
<path d="M58.8186 12.1375L55.0432 22.2282H52.7445L50.0975 15.2746L47.4157 22.2282H45.117L41.3555 12.1375H43.6194L46.3221 19.5854L49.1432 12.1375H51.1563L53.9147 19.6198L56.6941 12.1375H58.8186Z" fill="#E9E9EB"/>
<path d="M60.581 10.0645C60.2884 9.79678 60.1421 9.45356 60.1421 9.05542C60.1421 8.65042 60.2884 8.31407 60.581 8.04636C60.8735 7.77865 61.2427 7.64136 61.6746 7.64136C62.1065 7.64136 62.4756 7.77178 62.7682 8.02576C63.0608 8.28661 63.207 8.60924 63.207 9.00051C63.207 9.41924 63.0608 9.76932 62.7752 10.0508C62.4896 10.3322 62.1204 10.4764 61.6746 10.4764C61.2427 10.4764 60.8735 10.3391 60.581 10.0645ZM60.4625 12.1375H62.8588V22.2282H60.4625V12.1375Z" fill="#E9E9EB"/>
<path d="M76.0379 8.20423V22.2282H73.7392V20.924C73.3422 21.4045 72.8546 21.7614 72.2694 22.0017C71.6843 22.2419 71.0435 22.3586 70.3399 22.3586C69.3578 22.3586 68.4731 22.1458 67.686 21.7134C66.8989 21.2878 66.2859 20.6769 65.8331 19.8874C65.3873 19.098 65.1644 18.1988 65.1644 17.176C65.1644 16.1532 65.3873 15.254 65.8331 14.4714C66.2789 13.6889 66.8989 13.0848 67.686 12.6592C68.4731 12.2336 69.3578 12.014 70.3399 12.014C71.0156 12.014 71.6356 12.1307 72.1998 12.3572C72.764 12.5837 73.2446 12.9269 73.6347 13.38V8.20423H76.0379ZM72.1859 19.9492C72.6456 19.6884 73.0078 19.3246 73.2795 18.8441C73.5511 18.3635 73.6835 17.8144 73.6835 17.1829C73.6835 16.5513 73.5511 15.9953 73.2795 15.5217C73.0078 15.0412 72.6456 14.6774 72.1859 14.4165C71.7261 14.1557 71.2106 14.0321 70.6325 14.0321C70.0543 14.0321 69.5389 14.1625 69.0791 14.4165C68.6194 14.6774 68.2572 15.0412 67.9855 15.5217C67.7139 16.0022 67.5815 16.5582 67.5815 17.1829C67.5815 17.8144 67.7139 18.3704 67.9855 18.8441C68.2572 19.3246 68.6194 19.6884 69.0791 19.9492C69.5389 20.2101 70.0543 20.3336 70.6325 20.3336C71.2037 20.3405 71.7261 20.2101 72.1859 19.9492Z" fill="#E9E9EB"/>
<path d="M88.7713 17.938H80.7328C80.8721 18.6793 81.2413 19.2697 81.8334 19.7021C82.4255 20.1346 83.1638 20.3542 84.0485 20.3542C85.17 20.3542 86.1034 19.9904 86.8278 19.2559L88.1095 20.7112C87.6498 21.2535 87.0646 21.6653 86.3611 21.9399C85.6576 22.2145 84.8635 22.3586 83.9858 22.3586C82.8573 22.3586 81.8682 22.139 81.0114 21.6997C80.1546 21.2603 79.4929 20.6425 79.0262 19.86C78.5595 19.0706 78.3296 18.1782 78.3296 17.1829C78.3296 16.2013 78.5595 15.3158 79.0123 14.5264C79.465 13.7369 80.0989 13.126 80.9 12.6867C81.708 12.2474 82.6135 12.0277 83.6236 12.0277C84.6197 12.0277 85.5113 12.2474 86.2984 12.6798C87.0855 13.1123 87.6985 13.7232 88.1374 14.5126C88.5762 15.302 88.7991 16.2081 88.7991 17.2447C88.813 17.4025 88.7991 17.6359 88.7713 17.938ZM81.6871 14.5813C81.1577 15.0275 80.8303 15.6247 80.7189 16.366H86.5283C86.4238 15.6384 86.1103 15.0412 85.5879 14.5881C85.0655 14.1351 84.4107 13.9086 83.6305 13.9086C82.8643 13.9154 82.2165 14.1351 81.6871 14.5813Z" fill="#E9E9EB"/>
<path d="M97.346 22.2282L94.72 18.7342L92.073 22.2282H89.426L93.4174 17.1074L89.6002 12.1375H92.268L94.7827 15.4462L97.2973 12.1375H99.8885L96.0504 17.0731L100.056 22.2351H97.346V22.2282Z" fill="#E9E9EB"/>
<path d="M0.74534 29.8889C0.640854 29.8889 0.536369 29.8683 0.438849 29.8271C0.139323 29.7036 -0.0487518 29.4221 -0.0487518 29.1064V12.1787C-0.0487518 5.93899 3.51073 2.98043 6.49206 1.59382C9.66147 0.124834 12.7821 0.111105 12.9145 0.111105C13.3533 0.111105 13.7086 0.461189 13.7086 0.893647V6.53619C13.7086 6.96865 13.3533 7.31873 12.9145 7.31873C12.6985 7.31873 7.87824 7.38738 7.32098 11.3962H12.9145C13.3533 11.3962 13.7086 11.7463 13.7086 12.1787V16.0777L18.5567 11.8286V0.893647C18.5567 0.461189 18.9119 0.111105 19.3508 0.111105C19.7896 0.111105 20.1449 0.461189 20.1449 0.893647V12.1787C20.1449 12.4053 20.0474 12.6181 19.8802 12.7622L13.4369 18.4047C13.2001 18.6107 12.8657 18.6587 12.5801 18.5352C12.2945 18.4116 12.1134 18.1302 12.1134 17.8213V12.9613H6.4642C6.02536 12.9613 5.6701 12.6112 5.6701 12.1787C5.6701 8.84263 7.67623 7.26382 9.36194 6.52246C10.3998 6.06941 11.4308 5.88407 12.1134 5.8017V1.71738C11.0476 1.81348 9.06938 2.11551 7.11898 3.02848C3.41321 4.76517 1.53943 7.84043 1.53943 12.1719V27.2049L5.67707 23.1275V17.8075C5.67707 17.3751 6.03232 17.025 6.47116 17.025C6.91 17.025 7.26526 17.3751 7.26526 17.8075V23.4501C7.26526 23.656 7.18167 23.8551 7.03539 24.0061L1.30956 29.6624C1.15632 29.8134 0.954312 29.8889 0.74534 29.8889Z" fill="#FFAF29"/>
</g>
<defs>
<clipPath id="clip0">
<rect width="100" height="30" fill="white"/>
</clipPath>
</defs>
</svg>
