<svg width="32" height="32" viewBox="0 0 32 32" fill="none" xmlns="http://www.w3.org/2000/svg">
<path d="M31.6876 0.312444C32.0293 0.654156 32.0986 1.18291 31.8565 1.60113L23.6626 15.7541L16.2459 8.33739L30.3989 0.14357C30.8171 -0.0985577 31.3459 -0.0292679 31.6876 0.312444Z" fill="#FFCC00"/>
<path d="M14.3352 9.44362L10.1322 11.8769C9.84544 12.0429 9.65211 12.3328 9.60905 12.6614C9.56599 12.99 9.6781 13.3199 9.91243 13.5543L18.4458 22.0876C18.6801 22.3219 19.01 22.434 19.3386 22.391C19.6672 22.3479 19.9571 22.1546 20.1231 21.8678L22.5564 17.6648L14.3352 9.44362Z" fill="#FFCC00"/>
<path d="M2.11251 22.2743C2.91019 19.4634 5.47696 17.5237 8.39884 17.5237H8.5334C12.068 17.5237 14.9334 20.3891 14.9334 23.9237V24.0365C14.9334 27.5088 12.1185 30.3237 8.64618 30.3237H8.47591C7.65284 30.3237 6.84013 30.1401 6.097 29.7862C5.01642 29.2717 3.74492 29.3632 2.74911 30.027L1.65841 30.7542C1.28662 31.002 0.799752 30.9919 0.438608 30.7288C0.0774634 30.4657 -0.0814045 30.0053 0.0405813 29.5755L2.11251 22.2743Z" fill="#FFCC00"/>
</svg>
