<svg width="1920" height="566" viewBox="0 0 1920 566" fill="none" xmlns="http://www.w3.org/2000/svg">
<mask id="mask0" mask-type="alpha" maskUnits="userSpaceOnUse" x="0" y="0" width="1920" height="566">
<rect width="1920" height="566" fill="white"/>
</mask>
<g mask="url(#mask0)">
<line x1="2.32322" y1="-1.64645" x2="-591.646" y2="592.323" stroke="#272727"/>
<line x1="19.2929" y1="-1.64645" x2="-574.677" y2="592.323" stroke="#272727"/>
<line x1="36.2625" y1="-1.64645" x2="-557.707" y2="592.323" stroke="#272727"/>
<line x1="53.2322" y1="-1.64645" x2="-540.737" y2="592.323" stroke="#272727"/>
<line x1="70.2019" y1="-1.64645" x2="-523.768" y2="592.323" stroke="#272727"/>
<line x1="87.1715" y1="-1.64645" x2="-506.798" y2="592.323" stroke="#272727"/>
<line x1="104.141" y1="-1.64645" x2="-489.828" y2="592.323" stroke="#272727"/>
<line x1="121.111" y1="-1.64645" x2="-472.859" y2="592.323" stroke="#272727"/>
<line x1="138.081" y1="-1.64645" x2="-455.889" y2="592.323" stroke="#272727"/>
<line x1="155.05" y1="-1.64645" x2="-438.919" y2="592.323" stroke="#272727"/>
<line x1="172.02" y1="-1.64645" x2="-421.95" y2="592.323" stroke="#272727"/>
<line x1="188.99" y1="-1.64645" x2="-404.98" y2="592.323" stroke="#272727"/>
<line x1="205.959" y1="-1.64645" x2="-388.01" y2="592.323" stroke="#272727"/>
<line x1="222.929" y1="-1.64645" x2="-371.041" y2="592.323" stroke="#272727"/>
<line x1="239.899" y1="-1.64645" x2="-354.071" y2="592.323" stroke="#272727"/>
<line x1="256.868" y1="-1.64645" x2="-337.101" y2="592.323" stroke="#272727"/>
<line x1="273.838" y1="-1.64645" x2="-320.132" y2="592.323" stroke="#272727"/>
<line x1="290.808" y1="-1.64645" x2="-303.162" y2="592.323" stroke="#272727"/>
<line x1="307.777" y1="-1.64645" x2="-286.192" y2="592.323" stroke="#272727"/>
<line x1="324.747" y1="-1.64645" x2="-269.223" y2="592.323" stroke="#272727"/>
<line x1="341.717" y1="-1.64645" x2="-252.253" y2="592.323" stroke="#272727"/>
<line x1="358.686" y1="-1.64645" x2="-235.283" y2="592.323" stroke="#272727"/>
<line x1="375.656" y1="-1.64645" x2="-218.314" y2="592.323" stroke="#272727"/>
<line x1="392.626" y1="-1.64645" x2="-201.344" y2="592.323" stroke="#272727"/>
<line x1="409.595" y1="-1.64645" x2="-184.374" y2="592.323" stroke="#272727"/>
<line x1="426.565" y1="-1.64645" x2="-167.405" y2="592.323" stroke="#272727"/>
<line x1="443.535" y1="-1.64645" x2="-150.435" y2="592.323" stroke="#272727"/>
<line x1="460.504" y1="-1.64645" x2="-133.465" y2="592.323" stroke="#272727"/>
<line x1="477.474" y1="-1.64645" x2="-116.496" y2="592.323" stroke="#272727"/>
<line x1="494.444" y1="-1.64645" x2="-99.5258" y2="592.323" stroke="#272727"/>
<line x1="511.414" y1="-1.64645" x2="-82.5561" y2="592.323" stroke="#272727"/>
<line x1="528.383" y1="-1.64645" x2="-65.5863" y2="592.323" stroke="#272727"/>
<line x1="545.353" y1="-1.64645" x2="-48.6166" y2="592.323" stroke="#272727"/>
<line x1="562.323" y1="-1.64645" x2="-31.6469" y2="592.323" stroke="#272727"/>
<line x1="579.293" y1="-1.64645" x2="-14.6772" y2="592.323" stroke="#272727"/>
<line x1="596.262" y1="-1.64645" x2="2.29256" y2="592.323" stroke="#272727"/>
<line x1="613.232" y1="-1.64645" x2="19.2623" y2="592.323" stroke="#272727"/>
<line x1="630.202" y1="-1.64645" x2="36.232" y2="592.323" stroke="#272727"/>
<line x1="647.171" y1="-1.64645" x2="53.2017" y2="592.323" stroke="#272727"/>
<line x1="664.141" y1="-1.64645" x2="70.1715" y2="592.323" stroke="#272727"/>
<line x1="681.111" y1="-1.64645" x2="87.1412" y2="592.323" stroke="#272727"/>
<line x1="698.081" y1="-1.64645" x2="104.111" y2="592.323" stroke="#272727"/>
<line x1="715.05" y1="-1.64645" x2="121.081" y2="592.323" stroke="#272727"/>
<line x1="732.02" y1="-1.64645" x2="138.05" y2="592.323" stroke="#272727"/>
<line x1="748.99" y1="-1.64645" x2="155.02" y2="592.323" stroke="#272727"/>
<line x1="765.96" y1="-1.64645" x2="171.99" y2="592.323" stroke="#272727"/>
<line x1="782.929" y1="-1.64645" x2="188.96" y2="592.323" stroke="#272727"/>
<line x1="799.899" y1="-1.64645" x2="205.929" y2="592.323" stroke="#272727"/>
<line x1="816.869" y1="-1.64645" x2="222.899" y2="592.323" stroke="#272727"/>
<line x1="833.838" y1="-1.64645" x2="239.869" y2="592.323" stroke="#272727"/>
<line x1="850.808" y1="-1.64645" x2="256.838" y2="592.323" stroke="#272727"/>
<line x1="867.778" y1="-1.64645" x2="273.808" y2="592.323" stroke="#272727"/>
<line x1="884.748" y1="-1.64645" x2="290.778" y2="592.323" stroke="#272727"/>
<line x1="901.717" y1="-1.64645" x2="307.748" y2="592.323" stroke="#272727"/>
<line x1="918.687" y1="-1.64645" x2="324.717" y2="592.323" stroke="#272727"/>
<line x1="935.657" y1="-1.64645" x2="341.687" y2="592.323" stroke="#272727"/>
<line x1="952.627" y1="-1.64645" x2="358.657" y2="592.323" stroke="#272727"/>
<line x1="969.596" y1="-1.64645" x2="375.627" y2="592.323" stroke="#272727"/>
<line x1="986.566" y1="-1.64645" x2="392.596" y2="592.323" stroke="#272727"/>
<line x1="1003.54" y1="-1.64645" x2="409.566" y2="592.323" stroke="#272727"/>
<line x1="1020.51" y1="-1.64645" x2="426.536" y2="592.323" stroke="#272727"/>
<line x1="1037.48" y1="-1.64645" x2="443.505" y2="592.323" stroke="#272727"/>
<line x1="1054.44" y1="-1.64645" x2="460.475" y2="592.323" stroke="#272727"/>
<line x1="1071.41" y1="-1.64645" x2="477.445" y2="592.323" stroke="#272727"/>
<line x1="1088.38" y1="-1.64645" x2="494.415" y2="592.323" stroke="#272727"/>
<line x1="1105.35" y1="-1.64645" x2="511.384" y2="592.323" stroke="#272727"/>
<line x1="1122.32" y1="-1.64645" x2="528.354" y2="592.323" stroke="#272727"/>
<line x1="1139.29" y1="-1.64645" x2="545.324" y2="592.323" stroke="#272727"/>
<line x1="1156.26" y1="-1.64645" x2="562.294" y2="592.323" stroke="#272727"/>
<line x1="1173.23" y1="-1.64645" x2="579.263" y2="592.323" stroke="#272727"/>
<line x1="1190.2" y1="-1.64645" x2="596.233" y2="592.323" stroke="#272727"/>
<line x1="1207.17" y1="-1.64645" x2="613.203" y2="592.323" stroke="#272727"/>
<line x1="1224.14" y1="-1.64645" x2="630.172" y2="592.323" stroke="#272727"/>
<line x1="1241.11" y1="-1.64645" x2="647.142" y2="592.323" stroke="#272727"/>
<line x1="1258.08" y1="-1.64645" x2="664.112" y2="592.323" stroke="#272727"/>
<line x1="1275.05" y1="-1.64645" x2="681.082" y2="592.323" stroke="#272727"/>
<line x1="1292.02" y1="-1.64645" x2="698.051" y2="592.323" stroke="#272727"/>
<line x1="1308.99" y1="-1.64645" x2="715.021" y2="592.323" stroke="#272727"/>
<line x1="1325.96" y1="-1.64645" x2="731.991" y2="592.323" stroke="#272727"/>
<line x1="1342.93" y1="-1.64645" x2="748.961" y2="592.323" stroke="#272727"/>
<line x1="1359.9" y1="-1.64645" x2="765.93" y2="592.323" stroke="#272727"/>
<line x1="1376.87" y1="-1.64645" x2="782.9" y2="592.323" stroke="#272727"/>
<line x1="1393.84" y1="-1.64645" x2="799.87" y2="592.323" stroke="#272727"/>
<line x1="1410.81" y1="-1.64645" x2="816.839" y2="592.323" stroke="#272727"/>
<line x1="1427.78" y1="-1.64645" x2="833.809" y2="592.323" stroke="#272727"/>
<line x1="1444.75" y1="-1.64645" x2="850.779" y2="592.323" stroke="#272727"/>
<line x1="1461.72" y1="-1.64645" x2="867.749" y2="592.323" stroke="#272727"/>
<line x1="1478.69" y1="-1.64645" x2="884.718" y2="592.323" stroke="#272727"/>
<line x1="1495.66" y1="-1.64645" x2="901.688" y2="592.323" stroke="#272727"/>
<line x1="1512.63" y1="-1.64645" x2="918.658" y2="592.323" stroke="#272727"/>
<line x1="1529.6" y1="-1.64645" x2="935.628" y2="592.323" stroke="#272727"/>
<line x1="1546.57" y1="-1.64645" x2="952.597" y2="592.323" stroke="#272727"/>
<line x1="1563.54" y1="-1.64645" x2="969.567" y2="592.323" stroke="#272727"/>
<line x1="1580.51" y1="-1.64645" x2="986.537" y2="592.323" stroke="#272727"/>
<line x1="1597.48" y1="-1.64645" x2="1003.51" y2="592.323" stroke="#272727"/>
<line x1="1614.45" y1="-1.64645" x2="1020.48" y2="592.323" stroke="#272727"/>
<line x1="1631.42" y1="-1.64645" x2="1037.45" y2="592.323" stroke="#272727"/>
<line x1="1648.39" y1="-1.64645" x2="1054.42" y2="592.323" stroke="#272727"/>
<line x1="1665.36" y1="-1.64645" x2="1071.39" y2="592.323" stroke="#272727"/>
<line x1="1682.32" y1="-1.64645" x2="1088.36" y2="592.323" stroke="#272727"/>
<line x1="1699.29" y1="-1.64645" x2="1105.32" y2="592.323" stroke="#272727"/>
<line x1="1716.26" y1="-1.64645" x2="1122.29" y2="592.323" stroke="#272727"/>
<line x1="1733.23" y1="-1.64645" x2="1139.26" y2="592.323" stroke="#272727"/>
<line x1="1750.2" y1="-1.64645" x2="1156.23" y2="592.323" stroke="#272727"/>
<line x1="1767.17" y1="-1.64645" x2="1173.2" y2="592.323" stroke="#272727"/>
<line x1="1784.14" y1="-1.64645" x2="1190.17" y2="592.323" stroke="#272727"/>
<line x1="1801.11" y1="-1.64645" x2="1207.14" y2="592.323" stroke="#272727"/>
<line x1="1818.08" y1="-1.64645" x2="1224.11" y2="592.323" stroke="#272727"/>
<line x1="1835.05" y1="-1.64645" x2="1241.08" y2="592.323" stroke="#272727"/>
<line x1="1852.02" y1="-1.64645" x2="1258.05" y2="592.323" stroke="#272727"/>
<line x1="1868.99" y1="-1.64645" x2="1275.02" y2="592.323" stroke="#272727"/>
<line x1="1885.96" y1="-1.64645" x2="1291.99" y2="592.323" stroke="#272727"/>
<line x1="1902.93" y1="-1.64645" x2="1308.96" y2="592.323" stroke="#272727"/>
<line x1="1919.9" y1="-1.64645" x2="1325.93" y2="592.323" stroke="#272727"/>
<line x1="1936.87" y1="-1.64645" x2="1342.9" y2="592.323" stroke="#272727"/>
<line x1="1953.84" y1="-1.64645" x2="1359.87" y2="592.323" stroke="#272727"/>
<line x1="1970.81" y1="-1.64645" x2="1376.84" y2="592.323" stroke="#272727"/>
<line x1="1987.78" y1="-1.64645" x2="1393.81" y2="592.323" stroke="#272727"/>
<line x1="2004.75" y1="-1.64645" x2="1410.78" y2="592.323" stroke="#272727"/>
<line x1="2021.72" y1="-1.64645" x2="1427.75" y2="592.323" stroke="#272727"/>
<line x1="2038.69" y1="-1.64645" x2="1444.72" y2="592.323" stroke="#272727"/>
<line x1="2055.66" y1="-1.64645" x2="1461.69" y2="592.323" stroke="#272727"/>
<line x1="2072.63" y1="-1.64645" x2="1478.66" y2="592.323" stroke="#272727"/>
<line x1="2089.6" y1="-1.64645" x2="1495.63" y2="592.323" stroke="#272727"/>
<line x1="2106.57" y1="-1.64645" x2="1512.6" y2="592.323" stroke="#272727"/>
<line x1="2123.54" y1="-1.64645" x2="1529.57" y2="592.323" stroke="#272727"/>
<line x1="2140.51" y1="-1.64645" x2="1546.54" y2="592.323" stroke="#272727"/>
<line x1="2157.48" y1="-1.64645" x2="1563.51" y2="592.323" stroke="#272727"/>
<line x1="2174.45" y1="-1.64645" x2="1580.48" y2="592.323" stroke="#272727"/>
<line x1="2191.42" y1="-1.64645" x2="1597.45" y2="592.323" stroke="#272727"/>
<line x1="2208.39" y1="-1.64645" x2="1614.42" y2="592.323" stroke="#272727"/>
<line x1="2225.36" y1="-1.64645" x2="1631.39" y2="592.323" stroke="#272727"/>
<line x1="2242.33" y1="-1.64645" x2="1648.36" y2="592.323" stroke="#272727"/>
<line x1="2259.3" y1="-1.64645" x2="1665.33" y2="592.323" stroke="#272727"/>
<line x1="2276.27" y1="-1.64645" x2="1682.3" y2="592.323" stroke="#272727"/>
<line x1="2293.23" y1="-1.64645" x2="1699.27" y2="592.323" stroke="#272727"/>
<line x1="2310.2" y1="-1.64645" x2="1716.23" y2="592.323" stroke="#272727"/>
<line x1="2327.17" y1="-1.64645" x2="1733.2" y2="592.323" stroke="#272727"/>
<line x1="2344.14" y1="-1.64645" x2="1750.17" y2="592.323" stroke="#272727"/>
<line x1="2361.11" y1="-1.64645" x2="1767.14" y2="592.323" stroke="#272727"/>
<line x1="2378.08" y1="-1.64645" x2="1784.11" y2="592.323" stroke="#272727"/>
<line x1="2395.05" y1="-1.64645" x2="1801.08" y2="592.323" stroke="#272727"/>
<line x1="2412.02" y1="-1.64645" x2="1818.05" y2="592.323" stroke="#272727"/>
<line x1="2428.99" y1="-1.64645" x2="1835.02" y2="592.323" stroke="#272727"/>
<line x1="2445.96" y1="-1.64645" x2="1851.99" y2="592.323" stroke="#272727"/>
<line x1="2462.93" y1="-1.64645" x2="1868.96" y2="592.323" stroke="#272727"/>
<line x1="2479.9" y1="-1.64645" x2="1885.93" y2="592.323" stroke="#272727"/>
</g>
</svg>
