<svg width="24" height="24" viewBox="0 0 24 24" fill="none" xmlns="http://www.w3.org/2000/svg">
<path d="M10.4 18.3998V17.8998C10.2807 17.8998 10.1653 17.9425 10.0747 18.0202L10.4 18.3998ZM4.80005 23.1998H4.30005C4.30005 23.3951 4.41372 23.5725 4.59112 23.6541C4.76852 23.7357 4.97719 23.7065 5.12544 23.5794L4.80005 23.1998ZM4.80005 1.2998H19.2001V0.299805H4.80005V1.2998ZM22.7 4.79602C22.7 4.80141 22.7 4.80681 22.7 4.81222C22.7 4.81762 22.7 4.82303 22.7 4.82844C22.7 4.83385 22.7 4.83926 22.7 4.84468C22.7 4.8501 22.7 4.85552 22.7 4.86094C22.7 4.86637 22.7 4.8718 22.7 4.87723C22.7 4.88266 22.7 4.8881 22.7 4.89354C22.7 4.89898 22.7 4.90442 22.7 4.90986C22.7 4.91531 22.7 4.92076 22.7 4.92622C22.7 4.93167 22.7 4.93713 22.7 4.94259C22.7 4.94805 22.7 4.95351 22.7 4.95898C22.7 4.96445 22.7 4.96992 22.7 4.97539C22.7 4.98087 22.7 4.98635 22.7 4.99183C22.7 4.99731 22.7 5.0028 22.7 5.00829C22.7 5.01378 22.7 5.01927 22.7 5.02477C22.7 5.03026 22.7 5.03576 22.7 5.04126C22.7 5.04677 22.7 5.05227 22.7 5.05778C22.7 5.06329 22.7 5.06881 22.7 5.07432C22.7 5.07984 22.7 5.08536 22.7 5.09089C22.7 5.09641 22.7 5.10194 22.7 5.10747C22.7 5.113 22.7 5.11853 22.7 5.12407C22.7 5.12961 22.7 5.13515 22.7 5.1407C22.7 5.14624 22.7 5.15179 22.7 5.15734C22.7 5.16289 22.7 5.16845 22.7 5.17401C22.7 5.17956 22.7 5.18512 22.7 5.19069C22.7 5.19626 22.7 5.20182 22.7 5.2074C22.7 5.21297 22.7 5.21854 22.7 5.22412C22.7 5.2297 22.7 5.23528 22.7 5.24087C22.7 5.24645 22.7 5.25204 22.7 5.25763C22.7 5.26323 22.7 5.26882 22.7 5.27442C22.7 5.28002 22.7 5.28562 22.7 5.29123C22.7 5.29683 22.7 5.30244 22.7 5.30805C22.7 5.31366 22.7 5.31928 22.7 5.3249C22.7 5.33052 22.7 5.33614 22.7 5.34176C22.7 5.34739 22.7 5.35302 22.7 5.35865C22.7 5.36428 22.7 5.36992 22.7 5.37555C22.7 5.38119 22.7 5.38683 22.7 5.39248C22.7 5.39812 22.7 5.40377 22.7 5.40942C22.7 5.41507 22.7 5.42073 22.7 5.42639C22.7 5.43204 22.7 5.43771 22.7 5.44337C22.7 5.44903 22.7 5.4547 22.7 5.46037C22.7 5.46604 22.7 5.47172 22.7 5.47739C22.7 5.48307 22.7 5.48875 22.7 5.49443C22.7 5.50012 22.7 5.5058 22.7 5.51149C22.7 5.51718 22.7 5.52288 22.7 5.52857C22.7 5.53427 22.7 5.53997 22.7 5.54567C22.7 5.55137 22.7 5.55708 22.7 5.56279C22.7 5.56849 22.7 5.57421 22.7 5.57992C22.7 5.58564 22.7 5.59135 22.7 5.59707C22.7 5.6028 22.7 5.60852 22.7 5.61425C22.7 5.61997 22.7 5.62571 22.7 5.63144C22.7 5.63717 22.7 5.64291 22.7 5.64865C22.7 5.65439 22.7 5.66013 22.7 5.66588C22.7 5.67162 22.7 5.67737 22.7 5.68312C22.7 5.68888 22.7 5.69463 22.7 5.70039C22.7 5.70615 22.7 5.71191 22.7 5.71767C22.7 5.72343 22.7 5.7292 22.7 5.73497C22.7 5.74074 22.7 5.74652 22.7 5.75229C22.7 5.75807 22.7 5.76385 22.7 5.76963C22.7 5.77541 22.7 5.7812 22.7 5.78698C22.7 5.79277 22.7 5.79856 22.7 5.80436C22.7 5.81015 22.7 5.81595 22.7 5.82175C22.7 5.82755 22.7 5.83335 22.7 5.83916C22.7 5.84496 22.7 5.85077 22.7 5.85658C22.7 5.8624 22.7 5.86821 22.7 5.87403C22.7 5.87985 22.7 5.88567 22.7 5.89149C22.7 5.89731 22.7 5.90314 22.7 5.90897C22.7 5.9148 22.7 5.92063 22.7 5.92646C22.7 5.9323 22.7 5.93814 22.7 5.94398C22.7 5.94982 22.7 5.95566 22.7 5.96151C22.7 5.96736 22.7 5.97321 22.7 5.97906C22.7 5.98491 22.7 5.99076 22.7 5.99662C22.7 6.00248 22.7 6.00834 22.7 6.0142C22.7 6.02007 22.7 6.02593 22.7 6.0318C22.7 6.03767 22.7 6.04355 22.7 6.04942C22.7 6.05529 22.7 6.06117 22.7 6.06705C22.7 6.07293 22.7 6.07882 22.7 6.0847C22.7 6.09059 22.7 6.09648 22.7 6.10237C22.7 6.10826 22.7 6.11416 22.7 6.12005C22.7 6.12595 22.7 6.13185 22.7 6.13775C22.7 6.14365 22.7 6.14956 22.7 6.15547C22.7 6.16138 22.7 6.16729 22.7 6.1732C22.7 6.17911 22.7 6.18503 22.7 6.19095C22.7 6.19687 22.7 6.20279 22.7 6.20871C22.7 6.21464 22.7 6.22057 22.7 6.2265C22.7 6.23243 22.7 6.23836 22.7 6.24429C22.7 6.25023 22.7 6.25617 22.7 6.26211C22.7 6.26805 22.7 6.27399 22.7 6.27994C22.7 6.28588 22.7 6.29183 22.7 6.29778C22.7 6.30373 22.7 6.30969 22.7 6.31564C22.7 6.3216 22.7 6.32756 22.7 6.33352C22.7 6.33948 22.7 6.34545 22.7 6.35141C22.7 6.35738 22.7 6.36335 22.7 6.36932C22.7 6.37529 22.7 6.38127 22.7 6.38725C22.7 6.39322 22.7 6.3992 22.7 6.40518C22.7 6.41117 22.7 6.41715 22.7 6.42314C22.7 6.42913 22.7 6.43512 22.7 6.44111C22.7 6.4471 22.7 6.4531 22.7 6.4591C22.7 6.46509 22.7 6.47109 22.7 6.4771C22.7 6.4831 22.7 6.4891 22.7 6.49511C22.7 6.50112 22.7 6.50713 22.7 6.51314C22.7 6.51916 22.7 6.52517 22.7 6.53119C22.7 6.53721 22.7 6.54323 22.7 6.54925C22.7 6.55527 22.7 6.5613 22.7 6.56733C22.7 6.57335 22.7 6.57938 22.7 6.58542C22.7 6.59145 22.7 6.59748 22.7 6.60352C22.7 6.60956 22.7 6.6156 22.7 6.62164C22.7 6.62768 22.7 6.63373 22.7 6.63978C22.7 6.64582 22.7 6.65187 22.7 6.65793C22.7 6.66398 22.7 6.67003 22.7 6.67609C22.7 6.68215 22.7 6.68821 22.7 6.69427C22.7 6.70033 22.7 6.70639 22.7 6.71246C22.7 6.71853 22.7 6.72459 22.7 6.73067C22.7 6.73674 22.7 6.74281 22.7 6.74889C22.7 6.75496 22.7 6.76104 22.7 6.76712C22.7 6.7732 22.7 6.77928 22.7 6.78537C22.7 6.79146 22.7 6.79754 22.7 6.80363C22.7 6.80972 22.7 6.81581 22.7 6.82191C22.7 6.828 22.7 6.8341 22.7 6.8402C22.7 6.8463 22.7 6.8524 22.7 6.8585C22.7 6.86461 22.7 6.87071 22.7 6.87682C22.7 6.88293 22.7 6.88904 22.7 6.89515C22.7 6.90127 22.7 6.90738 22.7 6.9135C22.7 6.91962 22.7 6.92573 22.7 6.93186C22.7 6.93798 22.7 6.9441 22.7 6.95023C22.7 6.95636 22.7 6.96248 22.7 6.96861C22.7 6.97474 22.7 6.98088 22.7 6.98701C22.7 6.99315 22.7 6.99928 22.7 7.00542C22.7 7.01156 22.7 7.0177 22.7 7.02385C22.7 7.02999 22.7 7.03614 22.7 7.04229C22.7 7.04843 22.7 7.05458 22.7 7.06074C22.7 7.06689 22.7 7.07304 22.7 7.0792C22.7 7.08536 22.7 7.09152 22.7 7.09768C22.7 7.10384 22.7 7.11 22.7 7.11617C22.7 7.12233 22.7 7.1285 22.7 7.13467C22.7 7.14084 22.7 7.14701 22.7 7.15318C22.7 7.15936 22.7 7.16553 22.7 7.17171C22.7 7.17789 22.7 7.18407 22.7 7.19025C22.7 7.19643 22.7 7.20262 22.7 7.2088C22.7 7.21499 22.7 7.22118 22.7 7.22737C22.7 7.23356 22.7 7.23975 22.7 7.24594C22.7 7.25214 22.7 7.25833 22.7 7.26453C22.7 7.27073 22.7 7.27693 22.7 7.28313C22.7 7.28934 22.7 7.29554 22.7 7.30175C22.7 7.30795 22.7 7.31416 22.7 7.32037C22.7 7.32658 22.7 7.33279 22.7 7.33901C22.7 7.34522 22.7 7.35144 22.7 7.35766C22.7 7.36387 22.7 7.3701 22.7 7.37632C22.7 7.38254 22.7 7.38876 22.7 7.39499C22.7 7.40122 22.7 7.40744 22.7 7.41367C22.7 7.4199 22.7 7.42614 22.7 7.43237C22.7 7.4386 22.7 7.44484 22.7 7.45108C22.7 7.45731 22.7 7.46355 22.7 7.46979C22.7 7.47604 22.7 7.48228 22.7 7.48852C22.7 7.49477 22.7 7.50102 22.7 7.50727C22.7 7.51351 22.7 7.51977 22.7 7.52602C22.7 7.53227 22.7 7.53853 22.7 7.54478C22.7 7.55104 22.7 7.5573 22.7 7.56356C22.7 7.56982 22.7 7.57608 22.7 7.58234C22.7 7.58861 22.7 7.59487 22.7 7.60114C22.7 7.60741 22.7 7.61368 22.7 7.61995C22.7 7.62622 22.7 7.63249 22.7 7.63876C22.7 7.64504 22.7 7.65132 22.7 7.65759C22.7 7.66387 22.7 7.67015 22.7 7.67643C22.7 7.68271 22.7 7.689 22.7 7.69528C22.7 7.70157 22.7 7.70785 22.7 7.71414C22.7 7.72043 22.7 7.72672 22.7 7.73301C22.7 7.73931 22.7 7.7456 22.7 7.7519C22.7 7.75819 22.7 7.76449 22.7 7.77079C22.7 7.77709 22.7 7.78339 22.7 7.78969C22.7 7.79599 22.7 7.8023 22.7 7.8086C22.7 7.81491 22.7 7.82122 22.7 7.82753C22.7 7.83383 22.7 7.84015 22.7 7.84646C22.7 7.85277 22.7 7.85908 22.7 7.8654C22.7 7.87172 22.7 7.87803 22.7 7.88435C22.7 7.89067 22.7 7.89699 22.7 7.90331C22.7 7.90964 22.7 7.91596 22.7 7.92229C22.7 7.92861 22.7 7.93494 22.7 7.94127C22.7 7.9476 22.7 7.95393 22.7 7.96026C22.7 7.96659 22.7 7.97292 22.7 7.97926C22.7 7.98559 22.7 7.99193 22.7 7.99827C22.7 8.00461 22.7 8.01095 22.7 8.01729C22.7 8.02363 22.7 8.02997 22.7 8.03632C22.7 8.04266 22.7 8.04901 22.7 8.05536C22.7 8.0617 22.7 8.06805 22.7 8.0744C22.7 8.08075 22.7 8.08711 22.7 8.09346C22.7 8.09981 22.7 8.10617 22.7 8.11252C22.7 8.11888 22.7 8.12524 22.7 8.1316C22.7 8.13796 22.7 8.14432 22.7 8.15068C22.7 8.15705 22.7 8.16341 22.7 8.16978C22.7 8.17614 22.7 8.18251 22.7 8.18888C22.7 8.19524 22.7 8.20161 22.7 8.20799C22.7 8.21436 22.7 8.22073 22.7 8.2271C22.7 8.23348 22.7 8.23985 22.7 8.24623C22.7 8.25261 22.7 8.25899 22.7 8.26537C22.7 8.27175 22.7 8.27813 22.7 8.28451C22.7 8.29089 22.7 8.29728 22.7 8.30366C22.7 8.31005 22.7 8.31643 22.7 8.32282C22.7 8.32921 22.7 8.3356 22.7 8.34199C22.7 8.34838 22.7 8.35477 22.7 8.36117C22.7 8.36756 22.7 8.37396 22.7 8.38035C22.7 8.38675 22.7 8.39315 22.7 8.39955C22.7 8.40594 22.7 8.41234 22.7 8.41875C22.7 8.42515 22.7 8.43155 22.7 8.43795C22.7 8.44436 22.7 8.45076 22.7 8.45717C22.7 8.46358 22.7 8.46999 22.7 8.4764C22.7 8.4828 22.7 8.48922 22.7 8.49563C22.7 8.50204 22.7 8.50845 22.7 8.51487C22.7 8.52128 22.7 8.5277 22.7 8.53411C22.7 8.54053 22.7 8.54695 22.7 8.55337C22.7 8.55979 22.7 8.56621 22.7 8.57263C22.7 8.57905 22.7 8.58547 22.7 8.5919C22.7 8.59832 22.7 8.60475 22.7 8.61117C22.7 8.6176 22.7 8.62403 22.7 8.63046C22.7 8.63689 22.7 8.64332 22.7 8.64975C22.7 8.65618 22.7 8.66261 22.7 8.66905C22.7 8.67548 22.7 8.68191 22.7 8.68835C22.7 8.69479 22.7 8.70122 22.7 8.70766C22.7 8.7141 22.7 8.72054 22.7 8.72698C22.7 8.73342 22.7 8.73986 22.7 8.7463C22.7 8.75275 22.7 8.75919 22.7 8.76564C22.7 8.77208 22.7 8.77853 22.7 8.78497C22.7 8.79142 22.7 8.79787 22.7 8.80432C22.7 8.81077 22.7 8.81722 22.7 8.82367C22.7 8.83012 22.7 8.83657 22.7 8.84303C22.7 8.84948 22.7 8.85593 22.7 8.86239C22.7 8.86885 22.7 8.8753 22.7 8.88176C22.7 8.88822 22.7 8.89468 22.7 8.90114C22.7 8.9076 22.7 8.91406 22.7 8.92052C22.7 8.92698 22.7 8.93344 22.7 8.93991C22.7 8.94637 22.7 8.95284 22.7 8.9593C22.7 8.96577 22.7 8.97223 22.7 8.9787C22.7 8.98517 22.7 8.99164 22.7 8.99811C22.7 9.00458 22.7 9.01105 22.7 9.01752C22.7 9.02399 22.7 9.03046 22.7 9.03694C22.7 9.04341 22.7 9.04988 22.7 9.05636C22.7 9.06283 22.7 9.06931 22.7 9.07579C22.7 9.08226 22.7 9.08874 22.7 9.09522C22.7 9.1017 22.7 9.10818 22.7 9.11466C22.7 9.12114 22.7 9.12762 22.7 9.13411C22.7 9.14059 22.7 9.14707 22.7 9.15356C22.7 9.16004 22.7 9.16652 22.7 9.17301C22.7 9.1795 22.7 9.18598 22.7 9.19247C22.7 9.19896 22.7 9.20545 22.7 9.21194C22.7 9.21843 22.7 9.22492 22.7 9.23141C22.7 9.2379 22.7 9.24439 22.7 9.25088C22.7 9.25737 22.7 9.26387 22.7 9.27036C22.7 9.27686 22.7 9.28335 22.7 9.28985C22.7 9.29634 22.7 9.30284 22.7 9.30934C22.7 9.31583 22.7 9.32233 22.7 9.32883C22.7 9.33533 22.7 9.34183 22.7 9.34833C22.7 9.35483 22.7 9.36133 22.7 9.36783C22.7 9.37434 22.7 9.38084 22.7 9.38734C22.7 9.39384 22.7 9.40035 22.7 9.40685C22.7 9.41336 22.7 9.41986 22.7 9.42637C22.7 9.43288 22.7 9.43938 22.7 9.44589C22.7 9.4524 22.7 9.45891 22.7 9.46542C22.7 9.47192 22.7 9.47843 22.7 9.48494C22.7 9.49145 22.7 9.49796 22.7 9.50448C22.7 9.51099 22.7 9.5175 22.7 9.52401C22.7 9.53053 22.7 9.53704 22.7 9.54355C22.7 9.55007 22.7 9.55658 22.7 9.5631C22.7 9.56961 22.7 9.57613 22.7 9.58265C22.7 9.58916 22.7 9.59568 22.7 9.6022C22.7 9.60872 22.7 9.61523 22.7 9.62175C22.7 9.62827 22.7 9.63479 22.7 9.64131C22.7 9.64783 22.7 9.65435 22.7 9.66087C22.7 9.6674 22.7 9.67392 22.7 9.68044C22.7 9.68696 22.7 9.69349 22.7 9.70001C22.7 9.70653 22.7 9.71306 22.7 9.71958C22.7 9.7261 22.7 9.73263 22.7 9.73916C22.7 9.74568 22.7 9.75221 22.7 9.75873C22.7 9.76526 22.7 9.77179 22.7 9.77832C22.7 9.78484 22.7 9.79137 22.7 9.7979C22.7 9.80443 22.7 9.81096 22.7 9.81749C22.7 9.82402 22.7 9.83055 22.7 9.83708C22.7 9.84361 22.7 9.85014 22.7 9.85667C22.7 9.8632 22.7 9.86973 22.7 9.87627C22.7 9.8828 22.7 9.88933 22.7 9.89586C22.7 9.9024 22.7 9.90893 22.7 9.91546C22.7 9.922 22.7 9.92853 22.7 9.93507C22.7 9.9416 22.7 9.94814 22.7 9.95467C22.7 9.96121 22.7 9.96774 22.7 9.97428C22.7 9.98082 22.7 9.98735 22.7 9.99389C22.7 10.0004 22.7 10.007 22.7 10.0135C22.7 10.02 22.7 10.0266 22.7 10.0331C22.7 10.0397 22.7 10.0462 22.7 10.0527C22.7 10.0593 22.7 10.0658 22.7 10.0724C22.7 10.0789 22.7 10.0854 22.7 10.092C22.7 10.0985 22.7 10.1051 22.7 10.1116C22.7 10.1181 22.7 10.1247 22.7 10.1312C22.7 10.1378 22.7 10.1443 22.7 10.1508C22.7 10.1574 22.7 10.1639 22.7 10.1705C22.7 10.177 22.7 10.1836 22.7 10.1901C22.7 10.1966 22.7 10.2032 22.7 10.2097C22.7 10.2163 22.7 10.2228 22.7 10.2294C22.7 10.2359 22.7 10.2424 22.7 10.249C22.7 10.2555 22.7 10.2621 22.7 10.2686C22.7 10.2752 22.7 10.2817 22.7 10.2883C22.7 10.2948 22.7 10.3014 22.7 10.3079C22.7 10.3144 22.7 10.321 22.7 10.3275C22.7 10.3341 22.7 10.3406 22.7 10.3472C22.7 10.3537 22.7 10.3603 22.7 10.3668C22.7 10.3734 22.7 10.3799 22.7 10.3865C22.7 10.393 22.7 10.3995 22.7 10.4061C22.7 10.4126 22.7 10.4192 22.7 10.4257C22.7 10.4323 22.7 10.4388 22.7 10.4454C22.7 10.4519 22.7 10.4585 22.7 10.465C22.7 10.4716 22.7 10.4781 22.7 10.4847C22.7 10.4912 22.7 10.4978 22.7 10.5043C22.7 10.5109 22.7 10.5174 22.7 10.524C22.7 10.5305 22.7 10.5371 22.7 10.5436C22.7 10.5501 22.7 10.5567 22.7 10.5632C22.7 10.5698 22.7 10.5763 22.7 10.5829C22.7 10.5894 22.7 10.596 22.7 10.6025C22.7 10.6091 22.7 10.6156 22.7 10.6222C22.7 10.6287 22.7 10.6353 22.7 10.6418C22.7 10.6484 22.7 10.6549 22.7 10.6615C22.7 10.668 22.7 10.6746 22.7 10.6811C22.7 10.6877 22.7 10.6942 22.7 10.7008C22.7 10.7073 22.7 10.7139 22.7 10.7204C22.7 10.7269 22.7 10.7335 22.7 10.74C22.7 10.7466 22.7 10.7531 22.7 10.7597C22.7 10.7662 22.7 10.7728 22.7 10.7793C22.7 10.7859 22.7 10.7924 22.7 10.799C22.7 10.8055 22.7 10.8121 22.7 10.8186C22.7 10.8252 22.7 10.8317 22.7 10.8383C22.7 10.8448 22.7 10.8513 22.7 10.8579C22.7 10.8644 22.7 10.871 22.7 10.8775C22.7 10.8841 22.7 10.8906 22.7 10.8972C22.7 10.9037 22.7 10.9103 22.7 10.9168C22.7 10.9234 22.7 10.9299 22.7 10.9364C22.7 10.943 22.7 10.9495 22.7 10.9561C22.7 10.9626 22.7 10.9692 22.7 10.9757C22.7 10.9823 22.7 10.9888 22.7 10.9953C22.7 11.0019 22.7 11.0084 22.7 11.015C22.7 11.0215 22.7 11.0281 22.7 11.0346C22.7 11.0411 22.7 11.0477 22.7 11.0542C22.7 11.0608 22.7 11.0673 22.7 11.0739C22.7 11.0804 22.7 11.0869 22.7 11.0935C22.7 11.1 22.7 11.1066 22.7 11.1131C22.7 11.1196 22.7 11.1262 22.7 11.1327C22.7 11.1393 22.7 11.1458 22.7 11.1523C22.7 11.1589 22.7 11.1654 22.7 11.172C22.7 11.1785 22.7 11.185 22.7 11.1916C22.7 11.1981 22.7 11.2046 22.7 11.2112C22.7 11.2177 22.7 11.2243 22.7 11.2308C22.7 11.2373 22.7 11.2439 22.7 11.2504C22.7 11.2569 22.7 11.2635 22.7 11.27C22.7 11.2765 22.7 11.2831 22.7 11.2896C22.7 11.2961 22.7 11.3027 22.7 11.3092C22.7 11.3157 22.7 11.3223 22.7 11.3288C22.7 11.3353 22.7 11.3419 22.7 11.3484C22.7 11.3549 22.7 11.3615 22.7 11.368C22.7 11.3745 22.7 11.3811 22.7 11.3876C22.7 11.3941 22.7 11.4006 22.7 11.4072C22.7 11.4137 22.7 11.4202 22.7 11.4268C22.7 11.4333 22.7 11.4398 22.7 11.4463C22.7 11.4529 22.7 11.4594 22.7 11.4659C22.7 11.4724 22.7 11.479 22.7 11.4855C22.7 11.492 22.7 11.4985 22.7 11.5051C22.7 11.5116 22.7 11.5181 22.7 11.5246C22.7 11.5312 22.7 11.5377 22.7 11.5442C22.7 11.5507 22.7 11.5572 22.7 11.5638C22.7 11.5703 22.7 11.5768 22.7 11.5833C22.7 11.5898 22.7 11.5964 22.7 11.6029C22.7 11.6094 22.7 11.6159 22.7 11.6224C22.7 11.629 22.7 11.6355 22.7 11.642C22.7 11.6485 22.7 11.655 22.7 11.6615C22.7 11.668 22.7 11.6746 22.7 11.6811C22.7 11.6876 22.7 11.6941 22.7 11.7006C22.7 11.7071 22.7 11.7136 22.7 11.7201C22.7 11.7266 22.7 11.7332 22.7 11.7397C22.7 11.7462 22.7 11.7527 22.7 11.7592C22.7 11.7657 22.7 11.7722 22.7 11.7787C22.7 11.7852 22.7 11.7917 22.7 11.7982C22.7 11.8047 22.7 11.8112 22.7 11.8177C22.7 11.8242 22.7 11.8308 22.7 11.8373C22.7 11.8438 22.7 11.8503 22.7 11.8568C22.7 11.8633 22.7 11.8698 22.7 11.8763C22.7 11.8828 22.7 11.8893 22.7 11.8958C22.7 11.9022 22.7 11.9087 22.7 11.9152C22.7 11.9217 22.7 11.9282 22.7 11.9347C22.7 11.9412 22.7 11.9477 22.7 11.9542C22.7 11.9607 22.7 11.9672 22.7 11.9737C22.7 11.9802 22.7 11.9867 22.7 11.9932C22.7 11.9996 22.7 12.0061 22.7 12.0126C22.7 12.0191 22.7 12.0256 22.7 12.0321C22.7 12.0386 22.7 12.0451 22.7 12.0515C22.7 12.058 22.7 12.0645 22.7 12.071C22.7 12.0775 22.7 12.084 22.7 12.0904C22.7 12.0969 22.7 12.1034 22.7 12.1099C22.7 12.1164 22.7 12.1228 22.7 12.1293C22.7 12.1358 22.7 12.1423 22.7 12.1487C22.7 12.1552 22.7 12.1617 22.7 12.1682C22.7 12.1746 22.7 12.1811 22.7 12.1876C22.7 12.1941 22.7 12.2005 22.7 12.207C22.7 12.2135 22.7 12.2199 22.7 12.2264C22.7 12.2329 22.7 12.2393 22.7 12.2458C22.7 12.2523 22.7 12.2587 22.7 12.2652C22.7 12.2717 22.7 12.2781 22.7 12.2846C22.7 12.291 22.7 12.2975 22.7 12.304C22.7 12.3104 22.7 12.3169 22.7 12.3233C22.7 12.3298 22.7 12.3363 22.7 12.3427C22.7 12.3492 22.7 12.3556 22.7 12.3621C22.7 12.3685 22.7 12.375 22.7 12.3814C22.7 12.3879 22.7 12.3943 22.7 12.4008C22.7 12.4072 22.7 12.4137 22.7 12.4201C22.7 12.4266 22.7 12.433 22.7 12.4395C22.7 12.4459 22.7 12.4524 22.7 12.4588C22.7 12.4652 22.7 12.4717 22.7 12.4781C22.7 12.4846 22.7 12.491 22.7 12.4975C22.7 12.5039 22.7 12.5103 22.7 12.5168C22.7 12.5232 22.7 12.5296 22.7 12.5361C22.7 12.5425 22.7 12.5489 22.7 12.5554C22.7 12.5618 22.7 12.5682 22.7 12.5747C22.7 12.5811 22.7 12.5875 22.7 12.5939C22.7 12.6004 22.7 12.6068 22.7 12.6132C22.7 12.6196 22.7 12.6261 22.7 12.6325C22.7 12.6389 22.7 12.6453 22.7 12.6518C22.7 12.6582 22.7 12.6646 22.7 12.671C22.7 12.6774 22.7 12.6838 22.7 12.6903C22.7 12.6967 22.7 12.7031 22.7 12.7095C22.7 12.7159 22.7 12.7223 22.7 12.7287C22.7 12.7351 22.7 12.7415 22.7 12.748C22.7 12.7544 22.7 12.7608 22.7 12.7672C22.7 12.7736 22.7 12.78 22.7 12.7864C22.7 12.7928 22.7 12.7992 22.7 12.8056C22.7 12.812 22.7 12.8184 22.7 12.8248C22.7 12.8312 22.7 12.8376 22.7 12.844C22.7 12.8504 22.7 12.8567 22.7 12.8631C22.7 12.8695 22.7 12.8759 22.7 12.8823C22.7 12.8887 22.7 12.8951 22.7 12.9015C22.7 12.9079 22.7 12.9142 22.7 12.9206C22.7 12.927 22.7 12.9334 22.7 12.9398C22.7 12.9461 22.7 12.9525 22.7 12.9589C22.7 12.9653 22.7 12.9717 22.7 12.978C22.7 12.9844 22.7 12.9908 22.7 12.9972C22.7 13.0035 22.7 13.0099 22.7 13.0163C22.7 13.0226 22.7 13.029 22.7 13.0354C22.7 13.0417 22.7 13.0481 22.7 13.0545C22.7 13.0608 22.7 13.0672 22.7 13.0735C22.7 13.0799 22.7 13.0863 22.7 13.0926C22.7 13.099 22.7 13.1053 22.7 13.1117C22.7 13.118 22.7 13.1244 22.7 13.1307C22.7 13.1371 22.7 13.1434 22.7 13.1498C22.7 13.1561 22.7 13.1625 22.7 13.1688C22.7 13.1752 22.7 13.1815 22.7 13.1879C22.7 13.1942 22.7 13.2005 22.7 13.2069C22.7 13.2132 22.7 13.2196 22.7 13.2259C22.7 13.2322 22.7 13.2386 22.7 13.2449C22.7 13.2512 22.7 13.2576 22.7 13.2639C22.7 13.2702 22.7 13.2765 22.7 13.2829C22.7 13.2892 22.7 13.2955 22.7 13.3018C22.7 13.3082 22.7 13.3145 22.7 13.3208C22.7 13.3271 22.7 13.3334 22.7 13.3398C22.7 13.3461 22.7 13.3524 22.7 13.3587C22.7 13.365 22.7 13.3713 22.7 13.3776C22.7 13.3839 22.7 13.3903 22.7 13.3966C22.7 13.4029 22.7 13.4092 22.7 13.4155C22.7 13.4218 22.7 13.4281 22.7 13.4344C22.7 13.4407 22.7 13.447 22.7 13.4533C22.7 13.4596 22.7 13.4659 22.7 13.4722C22.7 13.4784 22.7 13.4847 22.7 13.491C22.7 13.4973 22.7 13.5036 22.7 13.5099C22.7 13.5162 22.7 13.5225 22.7 13.5287C22.7 13.535 22.7 13.5413 22.7 13.5476C22.7 13.5539 22.7 13.5601 22.7 13.5664C22.7 13.5727 22.7 13.579 22.7 13.5852C22.7 13.5915 22.7 13.5978 22.7 13.604C22.7 13.6103 22.7 13.6166 22.7 13.6228C22.7 13.6291 22.7 13.6354 22.7 13.6416C22.7 13.6479 22.7 13.6541 22.7 13.6604C22.7 13.6667 22.7 13.6729 22.7 13.6792C22.7 13.6854 22.7 13.6917 22.7 13.6979C22.7 13.7042 22.7 13.7104 22.7 13.7167C22.7 13.7229 22.7 13.7292 22.7 13.7354C22.7 13.7416 22.7 13.7479 22.7 13.7541C22.7 13.7604 22.7 13.7666 22.7 13.7728C22.7 13.7791 22.7 13.7853 22.7 13.7915C22.7 13.7978 22.7 13.804 22.7 13.8102C22.7 13.8164 22.7 13.8227 22.7 13.8289C22.7 13.8351 22.7 13.8413 22.7 13.8475C22.7 13.8538 22.7 13.86 22.7 13.8662C22.7 13.8724 22.7 13.8786 22.7 13.8848C22.7 13.891 22.7 13.8973 22.7 13.9035C22.7 13.9097 22.7 13.9159 22.7 13.9221C22.7 13.9283 22.7 13.9345 22.7 13.9407C22.7 13.9469 22.7 13.9531 22.7 13.9593C22.7 13.9655 22.7 13.9717 22.7 13.9778C22.7 13.984 22.7 13.9902 22.7 13.9964C22.7 14.0026 22.7 14.0088 22.7 14.015C22.7 14.0211 22.7 14.0273 22.7 14.0335C22.7 14.0397 22.7 14.0459 22.7 14.052C22.7 14.0582 22.7 14.0644 22.7 14.0706C22.7 14.0767 22.7 14.0829 22.7 14.0891C22.7 14.0952 22.7 14.1014 22.7 14.1075C22.7 14.1137 22.7 14.1199 22.7 14.126C22.7 14.1322 22.7 14.1383 22.7 14.1445C22.7 14.1506 22.7 14.1568 22.7 14.1629C22.7 14.1691 22.7 14.1752 22.7 14.1814C22.7 14.1875 22.7 14.1937 22.7 14.1998C22.7 14.2059 22.7 14.2121 22.7 14.2182C22.7 14.2244 22.7 14.2305 22.7 14.2366C22.7 14.2428 22.7 14.2489 22.7 14.255C22.7 14.2611 22.7 14.2673 22.7 14.2734C22.7 14.2795 22.7 14.2856 22.7 14.2917C22.7 14.2979 22.7 14.304 22.7 14.3101C22.7 14.3162 22.7 14.3223 22.7 14.3284C22.7 14.3345 22.7 14.3406 22.7 14.3467C22.7 14.3528 22.7 14.3589 22.7 14.365C22.7 14.3711 22.7 14.3772 22.7 14.3833C22.7 14.3894 22.7 14.3955 22.7 14.4016H23.7C23.7 14.3955 23.7 14.3894 23.7 14.3833C23.7 14.3772 23.7 14.3711 23.7 14.365C23.7 14.3589 23.7 14.3528 23.7 14.3467C23.7 14.3406 23.7 14.3345 23.7 14.3284C23.7 14.3223 23.7 14.3162 23.7 14.3101C23.7 14.304 23.7 14.2979 23.7 14.2917C23.7 14.2856 23.7 14.2795 23.7 14.2734C23.7 14.2673 23.7 14.2611 23.7 14.255C23.7 14.2489 23.7 14.2428 23.7 14.2366C23.7 14.2305 23.7 14.2244 23.7 14.2182C23.7 14.2121 23.7 14.2059 23.7 14.1998C23.7 14.1937 23.7 14.1875 23.7 14.1814C23.7 14.1752 23.7 14.1691 23.7 14.1629C23.7 14.1568 23.7 14.1506 23.7 14.1445C23.7 14.1383 23.7 14.1322 23.7 14.126C23.7 14.1199 23.7 14.1137 23.7 14.1075C23.7 14.1014 23.7 14.0952 23.7 14.0891C23.7 14.0829 23.7 14.0767 23.7 14.0706C23.7 14.0644 23.7 14.0582 23.7 14.052C23.7 14.0459 23.7 14.0397 23.7 14.0335C23.7 14.0273 23.7 14.0211 23.7 14.015C23.7 14.0088 23.7 14.0026 23.7 13.9964C23.7 13.9902 23.7 13.984 23.7 13.9778C23.7 13.9717 23.7 13.9655 23.7 13.9593C23.7 13.9531 23.7 13.9469 23.7 13.9407C23.7 13.9345 23.7 13.9283 23.7 13.9221C23.7 13.9159 23.7 13.9097 23.7 13.9035C23.7 13.8973 23.7 13.891 23.7 13.8848C23.7 13.8786 23.7 13.8724 23.7 13.8662C23.7 13.86 23.7 13.8538 23.7 13.8475C23.7 13.8413 23.7 13.8351 23.7 13.8289C23.7 13.8227 23.7 13.8164 23.7 13.8102C23.7 13.804 23.7 13.7978 23.7 13.7915C23.7 13.7853 23.7 13.7791 23.7 13.7728C23.7 13.7666 23.7 13.7604 23.7 13.7541C23.7 13.7479 23.7 13.7416 23.7 13.7354C23.7 13.7292 23.7 13.7229 23.7 13.7167C23.7 13.7104 23.7 13.7042 23.7 13.6979C23.7 13.6917 23.7 13.6854 23.7 13.6792C23.7 13.6729 23.7 13.6667 23.7 13.6604C23.7 13.6541 23.7 13.6479 23.7 13.6416C23.7 13.6354 23.7 13.6291 23.7 13.6228C23.7 13.6166 23.7 13.6103 23.7 13.604C23.7 13.5978 23.7 13.5915 23.7 13.5852C23.7 13.579 23.7 13.5727 23.7 13.5664C23.7 13.5601 23.7 13.5539 23.7 13.5476C23.7 13.5413 23.7 13.535 23.7 13.5287C23.7 13.5225 23.7 13.5162 23.7 13.5099C23.7 13.5036 23.7 13.4973 23.7 13.491C23.7 13.4847 23.7 13.4784 23.7 13.4722C23.7 13.4659 23.7 13.4596 23.7 13.4533C23.7 13.447 23.7 13.4407 23.7 13.4344C23.7 13.4281 23.7 13.4218 23.7 13.4155C23.7 13.4092 23.7 13.4029 23.7 13.3966C23.7 13.3903 23.7 13.3839 23.7 13.3776C23.7 13.3713 23.7 13.365 23.7 13.3587C23.7 13.3524 23.7 13.3461 23.7 13.3398C23.7 13.3334 23.7 13.3271 23.7 13.3208C23.7 13.3145 23.7 13.3082 23.7 13.3018C23.7 13.2955 23.7 13.2892 23.7 13.2829C23.7 13.2765 23.7 13.2702 23.7 13.2639C23.7 13.2576 23.7 13.2512 23.7 13.2449C23.7 13.2386 23.7 13.2322 23.7 13.2259C23.7 13.2196 23.7 13.2132 23.7 13.2069C23.7 13.2005 23.7 13.1942 23.7 13.1879C23.7 13.1815 23.7 13.1752 23.7 13.1688C23.7 13.1625 23.7 13.1561 23.7 13.1498C23.7 13.1434 23.7 13.1371 23.7 13.1307C23.7 13.1244 23.7 13.118 23.7 13.1117C23.7 13.1053 23.7 13.099 23.7 13.0926C23.7 13.0863 23.7 13.0799 23.7 13.0735C23.7 13.0672 23.7 13.0608 23.7 13.0545C23.7 13.0481 23.7 13.0417 23.7 13.0354C23.7 13.029 23.7 13.0226 23.7 13.0163C23.7 13.0099 23.7 13.0035 23.7 12.9972C23.7 12.9908 23.7 12.9844 23.7 12.978C23.7 12.9717 23.7 12.9653 23.7 12.9589C23.7 12.9525 23.7 12.9461 23.7 12.9398C23.7 12.9334 23.7 12.927 23.7 12.9206C23.7 12.9142 23.7 12.9079 23.7 12.9015C23.7 12.8951 23.7 12.8887 23.7 12.8823C23.7 12.8759 23.7 12.8695 23.7 12.8631C23.7 12.8567 23.7 12.8504 23.7 12.844C23.7 12.8376 23.7 12.8312 23.7 12.8248C23.7 12.8184 23.7 12.812 23.7 12.8056C23.7 12.7992 23.7 12.7928 23.7 12.7864C23.7 12.78 23.7 12.7736 23.7 12.7672C23.7 12.7608 23.7 12.7544 23.7 12.748C23.7 12.7415 23.7 12.7351 23.7 12.7287C23.7 12.7223 23.7 12.7159 23.7 12.7095C23.7 12.7031 23.7 12.6967 23.7 12.6903C23.7 12.6838 23.7 12.6774 23.7 12.671C23.7 12.6646 23.7 12.6582 23.7 12.6518C23.7 12.6453 23.7 12.6389 23.7 12.6325C23.7 12.6261 23.7 12.6196 23.7 12.6132C23.7 12.6068 23.7 12.6004 23.7 12.5939C23.7 12.5875 23.7 12.5811 23.7 12.5747C23.7 12.5682 23.7 12.5618 23.7 12.5554C23.7 12.5489 23.7 12.5425 23.7 12.5361C23.7 12.5296 23.7 12.5232 23.7 12.5168C23.7 12.5103 23.7 12.5039 23.7 12.4975C23.7 12.491 23.7 12.4846 23.7 12.4781C23.7 12.4717 23.7 12.4652 23.7 12.4588C23.7 12.4524 23.7 12.4459 23.7 12.4395C23.7 12.433 23.7 12.4266 23.7 12.4201C23.7 12.4137 23.7 12.4072 23.7 12.4008C23.7 12.3943 23.7 12.3879 23.7 12.3814C23.7 12.375 23.7 12.3685 23.7 12.3621C23.7 12.3556 23.7 12.3492 23.7 12.3427C23.7 12.3363 23.7 12.3298 23.7 12.3233C23.7 12.3169 23.7 12.3104 23.7 12.304C23.7 12.2975 23.7 12.291 23.7 12.2846C23.7 12.2781 23.7 12.2717 23.7 12.2652C23.7 12.2587 23.7 12.2523 23.7 12.2458C23.7 12.2393 23.7 12.2329 23.7 12.2264C23.7 12.2199 23.7 12.2135 23.7 12.207C23.7 12.2005 23.7 12.1941 23.7 12.1876C23.7 12.1811 23.7 12.1746 23.7 12.1682C23.7 12.1617 23.7 12.1552 23.7 12.1487C23.7 12.1423 23.7 12.1358 23.7 12.1293C23.7 12.1228 23.7 12.1164 23.7 12.1099C23.7 12.1034 23.7 12.0969 23.7 12.0904C23.7 12.084 23.7 12.0775 23.7 12.071C23.7 12.0645 23.7 12.058 23.7 12.0515C23.7 12.0451 23.7 12.0386 23.7 12.0321C23.7 12.0256 23.7 12.0191 23.7 12.0126C23.7 12.0061 23.7 11.9996 23.7 11.9932C23.7 11.9867 23.7 11.9802 23.7 11.9737C23.7 11.9672 23.7 11.9607 23.7 11.9542C23.7 11.9477 23.7 11.9412 23.7 11.9347C23.7 11.9282 23.7 11.9217 23.7 11.9152C23.7 11.9087 23.7 11.9022 23.7 11.8958C23.7 11.8893 23.7 11.8828 23.7 11.8763C23.7 11.8698 23.7 11.8633 23.7 11.8568C23.7 11.8503 23.7 11.8438 23.7 11.8373C23.7 11.8308 23.7 11.8242 23.7 11.8177C23.7 11.8112 23.7 11.8047 23.7 11.7982C23.7 11.7917 23.7 11.7852 23.7 11.7787C23.7 11.7722 23.7 11.7657 23.7 11.7592C23.7 11.7527 23.7 11.7462 23.7 11.7397C23.7 11.7332 23.7 11.7266 23.7 11.7201C23.7 11.7136 23.7 11.7071 23.7 11.7006C23.7 11.6941 23.7 11.6876 23.7 11.6811C23.7 11.6746 23.7 11.668 23.7 11.6615C23.7 11.655 23.7 11.6485 23.7 11.642C23.7 11.6355 23.7 11.629 23.7 11.6224C23.7 11.6159 23.7 11.6094 23.7 11.6029C23.7 11.5964 23.7 11.5898 23.7 11.5833C23.7 11.5768 23.7 11.5703 23.7 11.5638C23.7 11.5572 23.7 11.5507 23.7 11.5442C23.7 11.5377 23.7 11.5312 23.7 11.5246C23.7 11.5181 23.7 11.5116 23.7 11.5051C23.7 11.4985 23.7 11.492 23.7 11.4855C23.7 11.479 23.7 11.4724 23.7 11.4659C23.7 11.4594 23.7 11.4529 23.7 11.4463C23.7 11.4398 23.7 11.4333 23.7 11.4268C23.7 11.4202 23.7 11.4137 23.7 11.4072C23.7 11.4006 23.7 11.3941 23.7 11.3876C23.7 11.3811 23.7 11.3745 23.7 11.368C23.7 11.3615 23.7 11.3549 23.7 11.3484C23.7 11.3419 23.7 11.3353 23.7 11.3288C23.7 11.3223 23.7 11.3157 23.7 11.3092C23.7 11.3027 23.7 11.2961 23.7 11.2896C23.7 11.2831 23.7 11.2765 23.7 11.27C23.7 11.2635 23.7 11.2569 23.7 11.2504C23.7 11.2439 23.7 11.2373 23.7 11.2308C23.7 11.2243 23.7 11.2177 23.7 11.2112C23.7 11.2046 23.7 11.1981 23.7 11.1916C23.7 11.185 23.7 11.1785 23.7 11.172C23.7 11.1654 23.7 11.1589 23.7 11.1523C23.7 11.1458 23.7 11.1393 23.7 11.1327C23.7 11.1262 23.7 11.1196 23.7 11.1131C23.7 11.1066 23.7 11.1 23.7 11.0935C23.7 11.0869 23.7 11.0804 23.7 11.0739C23.7 11.0673 23.7 11.0608 23.7 11.0542C23.7 11.0477 23.7 11.0411 23.7 11.0346C23.7 11.0281 23.7 11.0215 23.7 11.015C23.7 11.0084 23.7 11.0019 23.7 10.9953C23.7 10.9888 23.7 10.9823 23.7 10.9757C23.7 10.9692 23.7 10.9626 23.7 10.9561C23.7 10.9495 23.7 10.943 23.7 10.9364C23.7 10.9299 23.7 10.9234 23.7 10.9168C23.7 10.9103 23.7 10.9037 23.7 10.8972C23.7 10.8906 23.7 10.8841 23.7 10.8775C23.7 10.871 23.7 10.8644 23.7 10.8579C23.7 10.8513 23.7 10.8448 23.7 10.8383C23.7 10.8317 23.7 10.8252 23.7 10.8186C23.7 10.8121 23.7 10.8055 23.7 10.799C23.7 10.7924 23.7 10.7859 23.7 10.7793C23.7 10.7728 23.7 10.7662 23.7 10.7597C23.7 10.7531 23.7 10.7466 23.7 10.74C23.7 10.7335 23.7 10.7269 23.7 10.7204C23.7 10.7139 23.7 10.7073 23.7 10.7008C23.7 10.6942 23.7 10.6877 23.7 10.6811C23.7 10.6746 23.7 10.668 23.7 10.6615C23.7 10.6549 23.7 10.6484 23.7 10.6418C23.7 10.6353 23.7 10.6287 23.7 10.6222C23.7 10.6156 23.7 10.6091 23.7 10.6025C23.7 10.596 23.7 10.5894 23.7 10.5829C23.7 10.5763 23.7 10.5698 23.7 10.5632C23.7 10.5567 23.7 10.5501 23.7 10.5436C23.7 10.5371 23.7 10.5305 23.7 10.524C23.7 10.5174 23.7 10.5109 23.7 10.5043C23.7 10.4978 23.7 10.4912 23.7 10.4847C23.7 10.4781 23.7 10.4716 23.7 10.465C23.7 10.4585 23.7 10.4519 23.7 10.4454C23.7 10.4388 23.7 10.4323 23.7 10.4257C23.7 10.4192 23.7 10.4126 23.7 10.4061C23.7 10.3995 23.7 10.393 23.7 10.3865C23.7 10.3799 23.7 10.3734 23.7 10.3668C23.7 10.3603 23.7 10.3537 23.7 10.3472C23.7 10.3406 23.7 10.3341 23.7 10.3275C23.7 10.321 23.7 10.3144 23.7 10.3079C23.7 10.3014 23.7 10.2948 23.7 10.2883C23.7 10.2817 23.7 10.2752 23.7 10.2686C23.7 10.2621 23.7 10.2555 23.7 10.249C23.7 10.2424 23.7 10.2359 23.7 10.2294C23.7 10.2228 23.7 10.2163 23.7 10.2097C23.7 10.2032 23.7 10.1966 23.7 10.1901C23.7 10.1836 23.7 10.177 23.7 10.1705C23.7 10.1639 23.7 10.1574 23.7 10.1508C23.7 10.1443 23.7 10.1378 23.7 10.1312C23.7 10.1247 23.7 10.1181 23.7 10.1116C23.7 10.1051 23.7 10.0985 23.7 10.092C23.7 10.0854 23.7 10.0789 23.7 10.0724C23.7 10.0658 23.7 10.0593 23.7 10.0527C23.7 10.0462 23.7 10.0397 23.7 10.0331C23.7 10.0266 23.7 10.02 23.7 10.0135C23.7 10.007 23.7 10.0004 23.7 9.99389C23.7 9.98735 23.7 9.98082 23.7 9.97428C23.7 9.96774 23.7 9.96121 23.7 9.95467C23.7 9.94814 23.7 9.9416 23.7 9.93507C23.7 9.92853 23.7 9.922 23.7 9.91546C23.7 9.90893 23.7 9.9024 23.7 9.89586C23.7 9.88933 23.7 9.8828 23.7 9.87627C23.7 9.86973 23.7 9.8632 23.7 9.85667C23.7 9.85014 23.7 9.84361 23.7 9.83708C23.7 9.83055 23.7 9.82402 23.7 9.81749C23.7 9.81096 23.7 9.80443 23.7 9.7979C23.7 9.79137 23.7 9.78484 23.7 9.77832C23.7 9.77179 23.7 9.76526 23.7 9.75873C23.7 9.75221 23.7 9.74568 23.7 9.73916C23.7 9.73263 23.7 9.7261 23.7 9.71958C23.7 9.71306 23.7 9.70653 23.7 9.70001C23.7 9.69349 23.7 9.68696 23.7 9.68044C23.7 9.67392 23.7 9.6674 23.7 9.66087C23.7 9.65435 23.7 9.64783 23.7 9.64131C23.7 9.63479 23.7 9.62827 23.7 9.62175C23.7 9.61523 23.7 9.60872 23.7 9.6022C23.7 9.59568 23.7 9.58916 23.7 9.58265C23.7 9.57613 23.7 9.56961 23.7 9.5631C23.7 9.55658 23.7 9.55007 23.7 9.54355C23.7 9.53704 23.7 9.53053 23.7 9.52401C23.7 9.5175 23.7 9.51099 23.7 9.50448C23.7 9.49796 23.7 9.49145 23.7 9.48494C23.7 9.47843 23.7 9.47192 23.7 9.46542C23.7 9.45891 23.7 9.4524 23.7 9.44589C23.7 9.43938 23.7 9.43288 23.7 9.42637C23.7 9.41986 23.7 9.41336 23.7 9.40685C23.7 9.40035 23.7 9.39384 23.7 9.38734C23.7 9.38084 23.7 9.37434 23.7 9.36783C23.7 9.36133 23.7 9.35483 23.7 9.34833C23.7 9.34183 23.7 9.33533 23.7 9.32883C23.7 9.32233 23.7 9.31583 23.7 9.30934C23.7 9.30284 23.7 9.29634 23.7 9.28985C23.7 9.28335 23.7 9.27686 23.7 9.27036C23.7 9.26387 23.7 9.25737 23.7 9.25088C23.7 9.24439 23.7 9.2379 23.7 9.23141C23.7 9.22492 23.7 9.21843 23.7 9.21194C23.7 9.20545 23.7 9.19896 23.7 9.19247C23.7 9.18598 23.7 9.1795 23.7 9.17301C23.7 9.16652 23.7 9.16004 23.7 9.15356C23.7 9.14707 23.7 9.14059 23.7 9.13411C23.7 9.12762 23.7 9.12114 23.7 9.11466C23.7 9.10818 23.7 9.1017 23.7 9.09522C23.7 9.08874 23.7 9.08226 23.7 9.07579C23.7 9.06931 23.7 9.06283 23.7 9.05636C23.7 9.04988 23.7 9.04341 23.7 9.03694C23.7 9.03046 23.7 9.02399 23.7 9.01752C23.7 9.01105 23.7 9.00458 23.7 8.99811C23.7 8.99164 23.7 8.98517 23.7 8.9787C23.7 8.97223 23.7 8.96577 23.7 8.9593C23.7 8.95284 23.7 8.94637 23.7 8.93991C23.7 8.93344 23.7 8.92698 23.7 8.92052C23.7 8.91406 23.7 8.9076 23.7 8.90114C23.7 8.89468 23.7 8.88822 23.7 8.88176C23.7 8.8753 23.7 8.86885 23.7 8.86239C23.7 8.85593 23.7 8.84948 23.7 8.84303C23.7 8.83657 23.7 8.83012 23.7 8.82367C23.7 8.81722 23.7 8.81077 23.7 8.80432C23.7 8.79787 23.7 8.79142 23.7 8.78497C23.7 8.77853 23.7 8.77208 23.7 8.76564C23.7 8.75919 23.7 8.75275 23.7 8.7463C23.7 8.73986 23.7 8.73342 23.7 8.72698C23.7 8.72054 23.7 8.7141 23.7 8.70766C23.7 8.70122 23.7 8.69479 23.7 8.68835C23.7 8.68191 23.7 8.67548 23.7 8.66905C23.7 8.66261 23.7 8.65618 23.7 8.64975C23.7 8.64332 23.7 8.63689 23.7 8.63046C23.7 8.62403 23.7 8.6176 23.7 8.61117C23.7 8.60475 23.7 8.59832 23.7 8.5919C23.7 8.58547 23.7 8.57905 23.7 8.57263C23.7 8.56621 23.7 8.55979 23.7 8.55337C23.7 8.54695 23.7 8.54053 23.7 8.53411C23.7 8.5277 23.7 8.52128 23.7 8.51487C23.7 8.50845 23.7 8.50204 23.7 8.49563C23.7 8.48922 23.7 8.4828 23.7 8.4764C23.7 8.46999 23.7 8.46358 23.7 8.45717C23.7 8.45076 23.7 8.44436 23.7 8.43795C23.7 8.43155 23.7 8.42515 23.7 8.41875C23.7 8.41234 23.7 8.40594 23.7 8.39955C23.7 8.39315 23.7 8.38675 23.7 8.38035C23.7 8.37396 23.7 8.36756 23.7 8.36117C23.7 8.35477 23.7 8.34838 23.7 8.34199C23.7 8.3356 23.7 8.32921 23.7 8.32282C23.7 8.31643 23.7 8.31005 23.7 8.30366C23.7 8.29728 23.7 8.29089 23.7 8.28451C23.7 8.27813 23.7 8.27175 23.7 8.26537C23.7 8.25899 23.7 8.25261 23.7 8.24623C23.7 8.23985 23.7 8.23348 23.7 8.2271C23.7 8.22073 23.7 8.21436 23.7 8.20799C23.7 8.20161 23.7 8.19524 23.7 8.18888C23.7 8.18251 23.7 8.17614 23.7 8.16978C23.7 8.16341 23.7 8.15705 23.7 8.15068C23.7 8.14432 23.7 8.13796 23.7 8.1316C23.7 8.12524 23.7 8.11888 23.7 8.11252C23.7 8.10617 23.7 8.09981 23.7 8.09346C23.7 8.08711 23.7 8.08075 23.7 8.0744C23.7 8.06805 23.7 8.0617 23.7 8.05536C23.7 8.04901 23.7 8.04266 23.7 8.03632C23.7 8.02997 23.7 8.02363 23.7 8.01729C23.7 8.01095 23.7 8.00461 23.7 7.99827C23.7 7.99193 23.7 7.98559 23.7 7.97926C23.7 7.97292 23.7 7.96659 23.7 7.96026C23.7 7.95393 23.7 7.9476 23.7 7.94127C23.7 7.93494 23.7 7.92861 23.7 7.92229C23.7 7.91596 23.7 7.90964 23.7 7.90331C23.7 7.89699 23.7 7.89067 23.7 7.88435C23.7 7.87803 23.7 7.87172 23.7 7.8654C23.7 7.85908 23.7 7.85277 23.7 7.84646C23.7 7.84015 23.7 7.83383 23.7 7.82753C23.7 7.82122 23.7 7.81491 23.7 7.8086C23.7 7.8023 23.7 7.79599 23.7 7.78969C23.7 7.78339 23.7 7.77709 23.7 7.77079C23.7 7.76449 23.7 7.75819 23.7 7.7519C23.7 7.7456 23.7 7.73931 23.7 7.73301C23.7 7.72672 23.7 7.72043 23.7 7.71414C23.7 7.70785 23.7 7.70157 23.7 7.69528C23.7 7.689 23.7 7.68271 23.7 7.67643C23.7 7.67015 23.7 7.66387 23.7 7.65759C23.7 7.65132 23.7 7.64504 23.7 7.63876C23.7 7.63249 23.7 7.62622 23.7 7.61995C23.7 7.61368 23.7 7.60741 23.7 7.60114C23.7 7.59487 23.7 7.58861 23.7 7.58234C23.7 7.57608 23.7 7.56982 23.7 7.56356C23.7 7.5573 23.7 7.55104 23.7 7.54478C23.7 7.53853 23.7 7.53227 23.7 7.52602C23.7 7.51977 23.7 7.51351 23.7 7.50727C23.7 7.50102 23.7 7.49477 23.7 7.48852C23.7 7.48228 23.7 7.47604 23.7 7.46979C23.7 7.46355 23.7 7.45731 23.7 7.45108C23.7 7.44484 23.7 7.4386 23.7 7.43237C23.7 7.42614 23.7 7.4199 23.7 7.41367C23.7 7.40744 23.7 7.40122 23.7 7.39499C23.7 7.38876 23.7 7.38254 23.7 7.37632C23.7 7.3701 23.7 7.36387 23.7 7.35766C23.7 7.35144 23.7 7.34522 23.7 7.33901C23.7 7.33279 23.7 7.32658 23.7 7.32037C23.7 7.31416 23.7 7.30795 23.7 7.30175C23.7 7.29554 23.7 7.28934 23.7 7.28313C23.7 7.27693 23.7 7.27073 23.7 7.26453C23.7 7.25833 23.7 7.25214 23.7 7.24594C23.7 7.23975 23.7 7.23356 23.7 7.22737C23.7 7.22118 23.7 7.21499 23.7 7.2088C23.7 7.20262 23.7 7.19643 23.7 7.19025C23.7 7.18407 23.7 7.17789 23.7 7.17171C23.7 7.16553 23.7 7.15936 23.7 7.15318C23.7 7.14701 23.7 7.14084 23.7 7.13467C23.7 7.1285 23.7 7.12233 23.7 7.11617C23.7 7.11 23.7 7.10384 23.7 7.09768C23.7 7.09152 23.7 7.08536 23.7 7.0792C23.7 7.07304 23.7 7.06689 23.7 7.06074C23.7 7.05458 23.7 7.04843 23.7 7.04229C23.7 7.03614 23.7 7.02999 23.7 7.02385C23.7 7.0177 23.7 7.01156 23.7 7.00542C23.7 6.99928 23.7 6.99315 23.7 6.98701C23.7 6.98088 23.7 6.97474 23.7 6.96861C23.7 6.96248 23.7 6.95636 23.7 6.95023C23.7 6.9441 23.7 6.93798 23.7 6.93186C23.7 6.92573 23.7 6.91962 23.7 6.9135C23.7 6.90738 23.7 6.90127 23.7 6.89515C23.7 6.88904 23.7 6.88293 23.7 6.87682C23.7 6.87071 23.7 6.86461 23.7 6.8585C23.7 6.8524 23.7 6.8463 23.7 6.8402C23.7 6.8341 23.7 6.828 23.7 6.82191C23.7 6.81581 23.7 6.80972 23.7 6.80363C23.7 6.79754 23.7 6.79146 23.7 6.78537C23.7 6.77928 23.7 6.7732 23.7 6.76712C23.7 6.76104 23.7 6.75496 23.7 6.74889C23.7 6.74281 23.7 6.73674 23.7 6.73067C23.7 6.72459 23.7 6.71853 23.7 6.71246C23.7 6.70639 23.7 6.70033 23.7 6.69427C23.7 6.68821 23.7 6.68215 23.7 6.67609C23.7 6.67003 23.7 6.66398 23.7 6.65793C23.7 6.65187 23.7 6.64582 23.7 6.63978C23.7 6.63373 23.7 6.62768 23.7 6.62164C23.7 6.6156 23.7 6.60956 23.7 6.60352C23.7 6.59748 23.7 6.59145 23.7 6.58542C23.7 6.57938 23.7 6.57335 23.7 6.56733C23.7 6.5613 23.7 6.55527 23.7 6.54925C23.7 6.54323 23.7 6.53721 23.7 6.53119C23.7 6.52517 23.7 6.51916 23.7 6.51314C23.7 6.50713 23.7 6.50112 23.7 6.49511C23.7 6.4891 23.7 6.4831 23.7 6.4771C23.7 6.47109 23.7 6.46509 23.7 6.4591C23.7 6.4531 23.7 6.4471 23.7 6.44111C23.7 6.43512 23.7 6.42913 23.7 6.42314C23.7 6.41715 23.7 6.41117 23.7 6.40518C23.7 6.3992 23.7 6.39322 23.7 6.38725C23.7 6.38127 23.7 6.37529 23.7 6.36932C23.7 6.36335 23.7 6.35738 23.7 6.35141C23.7 6.34545 23.7 6.33948 23.7 6.33352C23.7 6.32756 23.7 6.3216 23.7 6.31564C23.7 6.30969 23.7 6.30373 23.7 6.29778C23.7 6.29183 23.7 6.28588 23.7 6.27994C23.7 6.27399 23.7 6.26805 23.7 6.26211C23.7 6.25617 23.7 6.25023 23.7 6.24429C23.7 6.23836 23.7 6.23243 23.7 6.2265C23.7 6.22057 23.7 6.21464 23.7 6.20871C23.7 6.20279 23.7 6.19687 23.7 6.19095C23.7 6.18503 23.7 6.17911 23.7 6.1732C23.7 6.16729 23.7 6.16138 23.7 6.15547C23.7 6.14956 23.7 6.14365 23.7 6.13775C23.7 6.13185 23.7 6.12595 23.7 6.12005C23.7 6.11416 23.7 6.10826 23.7 6.10237C23.7 6.09648 23.7 6.09059 23.7 6.0847C23.7 6.07882 23.7 6.07293 23.7 6.06705C23.7 6.06117 23.7 6.05529 23.7 6.04942C23.7 6.04355 23.7 6.03767 23.7 6.0318C23.7 6.02593 23.7 6.02007 23.7 6.0142C23.7 6.00834 23.7 6.00248 23.7 5.99662C23.7 5.99076 23.7 5.98491 23.7 5.97906C23.7 5.97321 23.7 5.96736 23.7 5.96151C23.7 5.95566 23.7 5.94982 23.7 5.94398C23.7 5.93814 23.7 5.9323 23.7 5.92646C23.7 5.92063 23.7 5.9148 23.7 5.90897C23.7 5.90314 23.7 5.89731 23.7 5.89149C23.7 5.88567 23.7 5.87985 23.7 5.87403C23.7 5.86821 23.7 5.8624 23.7 5.85658C23.7 5.85077 23.7 5.84496 23.7 5.83916C23.7 5.83335 23.7 5.82755 23.7 5.82175C23.7 5.81595 23.7 5.81015 23.7 5.80436C23.7 5.79856 23.7 5.79277 23.7 5.78698C23.7 5.7812 23.7 5.77541 23.7 5.76963C23.7 5.76385 23.7 5.75807 23.7 5.75229C23.7 5.74652 23.7 5.74074 23.7 5.73497C23.7 5.7292 23.7 5.72343 23.7 5.71767C23.7 5.71191 23.7 5.70615 23.7 5.70039C23.7 5.69463 23.7 5.68888 23.7 5.68312C23.7 5.67737 23.7 5.67162 23.7 5.66588C23.7 5.66013 23.7 5.65439 23.7 5.64865C23.7 5.64291 23.7 5.63717 23.7 5.63144C23.7 5.62571 23.7 5.61997 23.7 5.61425C23.7 5.60852 23.7 5.6028 23.7 5.59707C23.7 5.59135 23.7 5.58564 23.7 5.57992C23.7 5.57421 23.7 5.56849 23.7 5.56279C23.7 5.55708 23.7 5.55137 23.7 5.54567C23.7 5.53997 23.7 5.53427 23.7 5.52857C23.7 5.52288 23.7 5.51718 23.7 5.51149C23.7 5.5058 23.7 5.50012 23.7 5.49443C23.7 5.48875 23.7 5.48307 23.7 5.47739C23.7 5.47172 23.7 5.46604 23.7 5.46037C23.7 5.4547 23.7 5.44903 23.7 5.44337C23.7 5.43771 23.7 5.43204 23.7 5.42639C23.7 5.42073 23.7 5.41507 23.7 5.40942C23.7 5.40377 23.7 5.39812 23.7 5.39248C23.7 5.38683 23.7 5.38119 23.7 5.37555C23.7 5.36992 23.7 5.36428 23.7 5.35865C23.7 5.35302 23.7 5.34739 23.7 5.34176C23.7 5.33614 23.7 5.33052 23.7 5.3249C23.7 5.31928 23.7 5.31366 23.7 5.30805C23.7 5.30244 23.7 5.29683 23.7 5.29123C23.7 5.28562 23.7 5.28002 23.7 5.27442C23.7 5.26882 23.7 5.26323 23.7 5.25763C23.7 5.25204 23.7 5.24645 23.7 5.24087C23.7 5.23528 23.7 5.2297 23.7 5.22412C23.7 5.21854 23.7 5.21297 23.7 5.2074C23.7 5.20182 23.7 5.19626 23.7 5.19069C23.7 5.18512 23.7 5.17956 23.7 5.17401C23.7 5.16845 23.7 5.16289 23.7 5.15734C23.7 5.15179 23.7 5.14624 23.7 5.1407C23.7 5.13515 23.7 5.12961 23.7 5.12407C23.7 5.11853 23.7 5.113 23.7 5.10747C23.7 5.10194 23.7 5.09641 23.7 5.09089C23.7 5.08536 23.7 5.07984 23.7 5.07432C23.7 5.06881 23.7 5.06329 23.7 5.05778C23.7 5.05227 23.7 5.04677 23.7 5.04126C23.7 5.03576 23.7 5.03026 23.7 5.02477C23.7 5.01927 23.7 5.01378 23.7 5.00829C23.7 5.0028 23.7 4.99731 23.7 4.99183C23.7 4.98635 23.7 4.98087 23.7 4.97539C23.7 4.96992 23.7 4.96445 23.7 4.95898C23.7 4.95351 23.7 4.94805 23.7 4.94259C23.7 4.93713 23.7 4.93167 23.7 4.92622C23.7 4.92076 23.7 4.91531 23.7 4.90986C23.7 4.90442 23.7 4.89898 23.7 4.89354C23.7 4.8881 23.7 4.88266 23.7 4.87723C23.7 4.8718 23.7 4.86637 23.7 4.86094C23.7 4.85552 23.7 4.8501 23.7 4.84468C23.7 4.83926 23.7 4.83385 23.7 4.82844C23.7 4.82303 23.7 4.81762 23.7 4.81222C23.7 4.80681 23.7 4.80141 23.7 4.79602H22.7ZM19.2 17.8998H10.4V18.8998H19.2V17.8998ZM10.0747 18.0202L4.47465 22.8202L5.12544 23.5794L10.7254 18.7794L10.0747 18.0202ZM5.30005 23.1998V19.1998H4.30005V23.1998H5.30005ZM1.30005 15.1998V4.79981H0.300049V15.1998H1.30005ZM22.7 14.4016C22.7 16.3343 21.1333 17.8998 19.2 17.8998V18.8998C21.685 18.8998 23.7 16.8872 23.7 14.4016H22.7ZM4.00005 17.8998C2.50888 17.8998 1.30005 16.691 1.30005 15.1998H0.300049C0.300049 17.2433 1.9566 18.8998 4.00005 18.8998V17.8998ZM19.2001 1.2998C21.1337 1.2998 22.7 2.86364 22.7 4.79602H23.7C23.7 2.31012 21.6847 0.299805 19.2001 0.299805V1.2998ZM5.30005 19.1998C5.30005 18.4818 4.71802 17.8998 4.00005 17.8998V18.8998C4.16573 18.8998 4.30005 19.0341 4.30005 19.1998H5.30005ZM4.80005 0.299805C2.31477 0.299805 0.300049 2.31452 0.300049 4.79981H1.30005C1.30005 2.86681 2.86705 1.2998 4.80005 1.2998V0.299805Z" fill="white"/>
<path d="M7 4.49285L6.72265 4.07682C6.58355 4.16955 6.5 4.32567 6.5 4.49285H7ZM16.5072 14.0001V14.5001C16.6744 14.5001 16.8305 14.4165 16.9232 14.2774L16.5072 14.0001ZM7.33777 4.26767L7.61512 4.6837L7.61512 4.6837L7.33777 4.26767ZM9.77969 5.32559L10.2729 5.24339V5.24339L9.77969 5.32559ZM10.0006 6.65132L9.50744 6.73352V6.73352L10.0006 6.65132ZM9.31661 8.23023L9.59396 8.64626H9.59396L9.31661 8.23023ZM16.7324 13.6623L17.1484 13.9397V13.9397L16.7324 13.6623ZM15.6745 11.2204L15.7567 10.7272L15.6745 11.2204ZM14.3487 10.9994L14.2665 11.4926L14.2665 11.4926L14.3487 10.9994ZM12.7698 11.6835L12.3538 11.4061L12.7698 11.6835ZM6.5 4.49285V6.07738H7.5V4.49285H6.5ZM14.9227 14.5001H16.5072V13.5001H14.9227V14.5001ZM6.5 6.07738C6.5 10.7291 10.271 14.5001 14.9227 14.5001V13.5001C10.8232 13.5001 7.5 10.1768 7.5 6.07738H6.5ZM7.27735 4.90887L7.61512 4.6837L7.06042 3.85164L6.72265 4.07682L7.27735 4.90887ZM9.28649 5.40779L9.50744 6.73352L10.4938 6.56912L10.2729 5.24339L9.28649 5.40779ZM9.03926 7.81421L7.51492 8.83043L8.06962 9.66248L9.59396 8.64626L9.03926 7.81421ZM9.50744 6.73352C9.57761 7.15449 9.39436 7.57747 9.03926 7.81421L9.59396 8.64626C10.2765 8.19124 10.6287 7.37825 10.4938 6.56912L9.50744 6.73352ZM7.61512 4.6837C8.26994 4.24714 9.15711 4.63149 9.28649 5.40779L10.2729 5.24339C10.0242 3.75131 8.31902 3.01257 7.06042 3.85164L7.61512 4.6837ZM16.9232 14.2774L17.1484 13.9397L16.3164 13.3849L16.0912 13.7227L16.9232 14.2774ZM15.7567 10.7272L14.4309 10.5062L14.2665 11.4926L15.5923 11.7136L15.7567 10.7272ZM12.3538 11.4061L11.3376 12.9304L12.1696 13.4851L13.1859 11.9608L12.3538 11.4061ZM14.4309 10.5062C13.6218 10.3714 12.8088 10.7236 12.3538 11.4061L13.1859 11.9608C13.4226 11.6057 13.8456 11.4225 14.2665 11.4926L14.4309 10.5062ZM17.1484 13.9397C17.9875 12.681 17.2488 10.9759 15.7567 10.7272L15.5923 11.7136C16.3686 11.843 16.7529 12.7301 16.3164 13.385L17.1484 13.9397Z" fill="white"/>
</svg>
