<svg width="24" height="24" viewBox="0 0 24 24" fill="none" xmlns="http://www.w3.org/2000/svg">
<path d="M3.03972 18.7205L3.48693 18.9441L3.62525 18.6674L3.43948 18.4201L3.03972 18.7205ZM5.27939 20.9601L5.57971 20.5604L5.33243 20.3746L5.05579 20.5129L5.27939 20.9601ZM0.800049 23.1998L0.352835 22.9762C0.256588 23.1687 0.294315 23.4012 0.446495 23.5534C0.598676 23.7055 0.831161 23.7433 1.02366 23.647L0.800049 23.1998ZM7.20005 7.19981L6.9227 6.78378C6.7836 6.87651 6.70005 7.03263 6.70005 7.19981H7.20005ZM16.8001 16.7998V17.2998C16.9672 17.2998 17.1233 17.2163 17.2161 17.0772L16.8001 16.7998ZM10.0069 8.04067L10.5001 7.95847V7.95847L10.0069 8.04067ZM10.23 9.37934L9.73678 9.46154L10.23 9.37934ZM9.53926 10.9737L9.81661 11.3897L9.53926 10.9737ZM17.0274 16.4587L17.4434 16.7361L17.0274 16.4587ZM15.9592 13.993L16.0414 13.4998V13.4998L15.9592 13.993ZM14.6205 13.7699L14.5383 14.2631L14.6205 13.7699ZM13.0262 14.4606L12.6102 14.1832L13.0262 14.4606ZM0.300049 11.9998C0.300049 14.6335 1.17082 17.0652 2.63996 19.0208L3.43948 18.4201C2.09598 16.6318 1.30005 14.4095 1.30005 11.9998H0.300049ZM12 0.299805C5.53832 0.299805 0.300049 5.53807 0.300049 11.9998H1.30005C1.30005 6.09036 6.0906 1.2998 12 1.2998V0.299805ZM23.7001 11.9998C23.7001 5.53807 18.4618 0.299805 12 0.299805V1.2998C17.9095 1.2998 22.7001 6.09036 22.7001 11.9998H23.7001ZM12 23.6998C18.4618 23.6998 23.7001 18.4615 23.7001 11.9998H22.7001C22.7001 17.9093 17.9095 22.6998 12 22.6998V23.6998ZM4.97908 21.3599C6.93469 22.829 9.3664 23.6998 12 23.6998V22.6998C9.5904 22.6998 7.36809 21.9039 5.57971 20.5604L4.97908 21.3599ZM1.02366 23.647L5.503 21.4073L5.05579 20.5129L0.576442 22.7526L1.02366 23.647ZM2.59251 18.4969L0.352835 22.9762L1.24726 23.4234L3.48693 18.9441L2.59251 18.4969ZM6.70005 7.19981V8.79981H7.70005V7.19981H6.70005ZM15.2001 17.2998H16.8001V16.2998H15.2001V17.2998ZM6.70005 8.79981C6.70005 13.4942 10.5056 17.2998 15.2001 17.2998V16.2998C11.0579 16.2998 7.70005 12.9419 7.70005 8.79981H6.70005ZM7.4774 7.61583L7.81846 7.38846L7.26376 6.55641L6.9227 6.78378L7.4774 7.61583ZM9.51366 8.12287L9.73678 9.46154L10.7232 9.29714L10.5001 7.95847L9.51366 8.12287ZM9.26191 10.5576L7.7227 11.5838L8.2774 12.4158L9.81661 11.3897L9.26191 10.5576ZM9.73678 9.46154C9.80794 9.88852 9.62208 10.3175 9.26191 10.5576L9.81661 11.3897C10.5042 10.9313 10.859 10.1123 10.7232 9.29714L9.73678 9.46154ZM7.81846 7.38846C8.48262 6.94568 9.38244 7.33551 9.51366 8.12287L10.5001 7.95847C10.2495 6.45533 8.53171 5.71111 7.26376 6.55641L7.81846 7.38846ZM17.2161 17.0772L17.4434 16.7361L16.6114 16.1814L16.384 16.5225L17.2161 17.0772ZM16.0414 13.4998L14.7027 13.2767L14.5383 14.2631L15.877 14.4862L16.0414 13.4998ZM12.6102 14.1832L11.584 15.7225L12.4161 16.2772L13.4422 14.7379L12.6102 14.1832ZM14.7027 13.2767C13.8876 13.1408 13.0686 13.4957 12.6102 14.1832L13.4422 14.7379C13.6823 14.3778 14.1113 14.1919 14.5383 14.2631L14.7027 13.2767ZM17.4434 16.7361C18.2887 15.4681 17.5445 13.7503 16.0414 13.4998L15.877 14.4862C16.6643 14.6174 17.0542 15.5172 16.6114 16.1814L17.4434 16.7361Z" fill="white"/>
</svg>
