<svg width="568" height="518" viewBox="0 0 568 518" fill="none" xmlns="http://www.w3.org/2000/svg">
<g clip-path="url(#clip0)">
<g opacity="0.5">
<path opacity="0.5" d="M957.94 318.158C955.138 317.738 952.161 317.268 949.089 316.76L949.233 315.882C952.302 316.388 955.275 316.858 958.072 317.278L957.94 318.158ZM940.261 315.246C937.357 314.731 934.394 314.188 931.454 313.63L931.62 312.755C934.556 313.311 937.51 313.854 940.416 314.369L940.261 315.246ZM922.67 311.918C919.759 311.334 916.811 310.726 913.908 310.11L914.087 309.239C916.987 309.853 919.931 310.461 922.833 311.045L922.67 311.918ZM905.164 308.207C902.256 307.557 899.324 306.884 896.447 306.207L896.65 305.339C899.525 306.016 902.455 306.689 905.359 307.338L905.164 308.207ZM887.752 304.11C884.854 303.397 881.937 302.651 879.086 301.908L879.311 301.046C882.167 301.789 885.071 302.528 887.968 303.246L887.752 304.11ZM870.448 299.599C867.561 298.808 864.666 297.996 861.839 297.178L862.087 296.323C864.909 297.137 867.799 297.95 870.683 298.741L870.448 299.599ZM853.266 294.64C850.398 293.769 847.526 292.873 844.731 291.978L845.004 291.13C847.793 292.021 850.662 292.912 853.527 293.788L853.266 294.64ZM836.238 289.185C833.396 288.225 830.558 287.24 827.802 286.256L828.104 285.417C830.855 286.401 833.687 287.377 836.523 288.342L836.238 289.185ZM819.406 283.173C816.586 282.104 813.777 281.012 811.056 279.92L811.39 279.093C814.103 280.183 816.907 281.275 819.722 282.339L819.406 283.173ZM802.794 276.501C800.022 275.318 797.261 274.103 794.614 272.894L794.983 272.083C797.634 273.291 800.379 274.5 803.146 275.682L802.794 276.501ZM786.525 269.079C783.81 267.754 781.125 266.395 778.548 265.041L778.964 264.252C781.534 265.602 784.21 266.958 786.917 268.28L786.525 269.079ZM770.703 260.751C768.07 259.255 765.482 257.723 763.012 256.191L763.481 255.434C765.943 256.957 768.522 258.485 771.146 259.978L770.703 260.751ZM485.399 251.814L485.391 250.923C488.371 250.893 491.354 250.725 494.256 250.424L494.349 251.315C491.422 251.612 488.409 251.782 485.399 251.812V251.814ZM476.459 251.514C473.555 251.295 470.569 250.95 467.579 250.488L467.716 249.597C470.681 250.057 473.646 250.399 476.527 250.618L476.459 251.514ZM755.508 251.326C752.995 249.617 750.548 247.868 748.233 246.124L748.768 245.411C751.073 247.146 753.509 248.888 756.008 250.577L755.508 251.326ZM503.211 249.956L503.033 249.083C505.921 248.495 508.814 247.755 511.632 246.884L511.896 247.734C509.049 248.612 506.128 249.359 503.211 249.954V249.956ZM458.788 248.815C455.961 248.178 453.046 247.424 450.126 246.578L450.374 245.721C453.278 246.564 456.175 247.312 458.986 247.948L458.788 248.815ZM520.321 244.679L519.975 243.858C521.66 243.145 523.354 242.383 525.014 241.572L528.034 240.095L528.427 240.895L525.406 242.37C523.729 243.182 522.02 243.959 520.321 244.672V244.679ZM441.607 243.858C438.879 242.912 436.059 241.861 433.218 240.735L433.548 239.908C436.37 241.029 439.177 242.074 441.892 243.017L441.607 243.858ZM741.245 240.551C739.774 239.304 738.332 238.038 736.961 236.776C736.169 236.05 735.367 235.324 734.575 234.623L735.167 233.956C735.963 234.669 736.774 235.382 737.564 236.121C738.93 237.368 740.363 238.636 741.823 239.873L741.245 240.551ZM424.993 237.281C422.369 236.123 419.638 234.867 416.879 233.539L417.264 232.736C420.016 234.054 422.738 235.307 425.353 236.459L424.993 237.281ZM536.455 237.001L536.066 236.199C538.931 234.817 541.563 233.556 544.116 232.346L544.5 233.149C541.945 234.352 539.314 235.611 536.451 236.994L536.455 237.001ZM408.866 229.576C406.339 228.286 403.672 226.893 400.941 225.43L401.362 224.645C404.09 226.104 406.749 227.495 409.271 228.781L408.866 229.576ZM552.569 229.355L552.193 228.548C554.991 227.251 557.726 226.004 560.314 224.841L560.676 225.657C558.092 226.814 555.363 228.06 552.569 229.355ZM727.778 228.874C725.436 226.993 723.053 225.184 720.697 223.499L721.217 222.774C723.587 224.47 725.982 226.289 728.338 228.179L727.778 228.874ZM568.839 222.058L568.482 221.24C571.295 220.027 574.065 218.862 576.714 217.777L577.053 218.602C574.42 219.683 571.646 220.847 568.839 222.058ZM393.084 221.148C390.696 219.824 388.147 218.395 385.293 216.778L385.734 216.005C388.589 217.62 391.131 219.047 393.518 220.369L393.084 221.148ZM713.315 218.549C710.778 216.96 708.192 215.458 705.631 214.095L706.052 213.311C708.633 214.692 711.228 216.202 713.789 217.802L713.315 218.549ZM585.337 215.313L585.017 214.482C587.873 213.388 590.686 212.344 593.406 211.391L593.704 212.23C590.991 213.186 588.178 214.223 585.337 215.313ZM377.534 212.358L375.677 211.289C373.7 210.157 371.736 209.034 369.787 207.92L370.23 207.147C372.183 208.261 374.146 209.384 376.12 210.516L377.975 211.585L377.534 212.358ZM697.652 210.179C694.934 208.973 692.158 207.863 689.4 206.893L689.699 206.052C692.478 207.035 695.275 208.15 698.014 209.367L697.652 210.179ZM602.14 209.394L601.87 208.546C604.772 207.623 607.655 206.764 610.438 205.996L610.675 206.853C607.903 207.621 605.031 208.476 602.14 209.394ZM619.303 204.664L619.104 203.795C622.063 203.114 625.012 202.512 627.867 202.013L628.023 202.89C625.183 203.388 622.256 203.985 619.303 204.664ZM680.913 204.274C678.057 203.52 675.144 202.875 672.237 202.357L672.394 201.48C675.325 202.002 678.268 202.653 681.14 203.412L680.913 204.274ZM362.016 203.536C359.16 201.933 356.604 200.533 354.2 199.238L354.623 198.454C357.032 199.752 359.594 201.16 362.453 202.76L362.016 203.536ZM636.826 201.577L636.721 200.686C639.723 200.33 642.723 200.073 645.636 199.918L645.684 200.809C642.782 200.966 639.805 201.224 636.822 201.577H636.826ZM663.437 201.156C660.531 200.878 657.547 200.709 654.568 200.654L654.584 199.763C657.586 199.818 660.594 199.988 663.523 200.269L663.437 201.156ZM346.301 195.099C343.456 193.656 340.834 192.384 338.285 191.209L338.658 190.4C341.218 191.579 343.851 192.856 346.705 194.305L346.301 195.099ZM330.109 187.692C327.194 186.538 324.376 185.54 321.732 184.728L321.994 183.878C324.661 184.696 327.501 185.702 330.437 186.864L330.109 187.692ZM313.132 182.586C310.238 182.039 307.303 181.731 304.358 181.667L304.372 180.776C307.368 180.841 310.353 181.154 313.297 181.712L313.132 182.586ZM298.521 174.86L293.4 167.565L294.132 167.056L299.253 174.36L298.521 174.86ZM288.276 160.277L283.155 152.973L283.887 152.464L289.007 159.768L288.276 160.277ZM282.921 151.817L282.352 151.13C282.377 151.11 284.895 149.02 288.767 144.985L289.411 145.602C285.502 149.671 282.944 151.789 282.925 151.81L282.921 151.817ZM295.399 138.948L294.725 138.365C296.609 136.139 298.473 133.803 300.281 131.418L300.995 131.952C299.187 134.354 297.298 136.703 295.403 138.941L295.399 138.948ZM306.191 124.696L305.452 124.198C307.101 121.76 308.715 119.242 310.248 116.715L311.012 117.177C309.475 119.708 307.853 122.24 306.194 124.689L306.191 124.696ZM315.442 109.411L314.657 108.991C316.054 106.394 317.405 103.725 318.671 101.06L319.478 101.441C318.209 104.113 316.857 106.795 315.446 109.404L315.442 109.411ZM323.105 93.2715L322.28 92.9312C323.412 90.2074 324.488 87.4087 325.48 84.6404L326.321 84.9396C325.329 87.7312 324.247 90.5352 323.105 93.2715ZM329.114 76.4582L328.261 76.2016C329.113 73.3816 329.905 70.501 330.617 67.6346L331.483 67.8484C330.78 70.7272 329.977 73.6239 329.12 76.4582H329.114ZM333.65 59.2369L332.795 58.9839C333.643 56.1241 334.648 53.3129 335.804 50.563L336.627 50.9086C335.484 53.6283 334.492 56.4086 333.655 59.2369H333.65ZM340.495 42.9473L339.715 42.5161C341.163 39.9068 342.742 37.3721 344.447 34.9218L345.18 35.4295C343.494 37.8548 341.932 40.3639 340.5 42.9473H340.495ZM350.592 28.4017L349.91 27.8263C351.799 25.5923 353.837 23.3816 355.979 21.2509L356.609 21.8834C354.492 23.9962 352.465 26.1873 350.592 28.4017ZM363.162 15.8763L362.583 15.1976C364.813 13.3057 367.178 11.4387 369.614 9.65191L370.15 10.3645C367.727 12.1442 365.375 13.9969 363.162 15.8763ZM377.484 5.34436L377.009 4.59436C379.483 3.01243 382.069 1.46792 384.697 0L385.132 0.778494C382.515 2.23572 379.943 3.77312 377.484 5.34436Z" fill="#151E24"/>
</g>
<path d="M568 512.871H0V514.581H568V512.871Z" fill="#151E23"/>
<path d="M196.481 435.097H119.784V443.872H196.481V435.097Z" fill="white"/>
<path d="M196.829 444.221H119.436V434.749H196.829V444.221ZM120.132 443.525H196.131V435.446H120.132V443.525Z" fill="#151E23"/>
<path d="M126.134 312.175H113.433V513.212H126.134V312.175Z" fill="white"/>
<path d="M126.482 513.561H113.085V311.827H126.482V513.561ZM113.781 512.864H125.786V312.524H113.781V512.864Z" fill="#151E23"/>
<path d="M202.832 312.175H190.13V513.212H202.832V312.175Z" fill="white"/>
<path d="M203.18 513.561H189.78V311.827H203.18V513.561ZM190.478 512.864H202.482V312.524H190.485L190.478 512.864Z" fill="#151E23"/>
<path d="M214.459 300.763H104.947V318.15H214.459V300.763Z" fill="white"/>
<path d="M214.807 318.5H104.598V300.417H214.807V318.5ZM105.296 317.804H214.111V301.112H105.296V317.804Z" fill="#151E23"/>
<path d="M195.764 468.952L198.498 480.472H226.248L223.344 460.709L195.764 468.952Z" fill="#FD9F84"/>
<path d="M227.544 476.07L197.07 477.668L197.74 488.143L228.513 486.449L227.544 476.07Z" fill="#00E26C"/>
<path d="M197.491 486.509C197.491 486.509 197.491 511.824 198.644 511.824C199.797 511.824 252.581 514.006 253.504 511.948C254.426 509.891 253.273 500.658 250.505 499.749C248.383 499.051 238.291 494.898 233.691 492.997C232.21 492.384 230.99 491.275 230.241 489.86L228.277 483.32L197.491 486.509Z" fill="white"/>
<path d="M239.749 513.211C232.31 513.211 218.641 512.867 201.086 512.255C199.701 512.206 198.787 512.174 198.652 512.174C198.227 512.174 198.068 511.688 197.925 510.792C197.818 510.124 197.722 509.15 197.634 507.892C197.491 505.788 197.375 502.854 197.292 499.175C197.149 492.913 197.147 486.571 197.147 486.509V486.199L228.486 482.943L230.559 489.696C231.271 491.038 232.429 492.09 233.834 492.673C238.173 494.469 248.497 498.717 250.612 499.416C251.398 499.674 252.094 500.485 252.681 501.808C254.109 505.015 254.541 510.493 253.821 512.092C253.648 512.483 253.315 513.211 239.749 513.211ZM198.793 511.476C199.11 511.484 199.884 511.511 201.113 511.554C206.241 511.733 220.504 512.278 231.526 512.445C249.896 512.721 252.822 512.089 253.206 511.779C253.786 510.402 253.448 505.253 252.051 502.093C251.553 500.969 250.98 500.273 250.403 500.082C248.261 499.378 237.909 495.119 233.566 493.321C232.007 492.678 230.722 491.512 229.932 490.024L228.085 483.698L197.843 486.817C197.848 495.814 198.107 509.996 198.786 511.476H198.793Z" fill="#151E23"/>
<path d="M254.728 512.64L197.491 512.515V508.597L254.728 508.722V512.64Z" fill="#151E23"/>
<path d="M255.08 512.99L197.14 512.866V508.246L255.08 508.373V512.99ZM197.841 512.166L254.377 512.29V509.073L197.841 508.948V512.166Z" fill="#151E23"/>
<path d="M237.898 503.112C238.255 502.35 243.363 495.936 244.127 496.284C244.891 496.631 246.316 497.109 246.373 497.771C246.43 498.434 241.105 504.461 240.631 504.491C240.156 504.521 237.898 503.112 237.898 503.112Z" fill="#151E23"/>
<path d="M231.442 499.988C231.799 499.225 236.908 492.812 237.672 493.159C238.436 493.507 239.86 493.984 239.917 494.647C239.974 495.31 234.648 501.336 234.175 501.365C233.702 501.393 231.442 499.988 231.442 499.988Z" fill="#151E23"/>
<path d="M224.72 497.186C225.077 496.423 230.186 490.01 230.95 490.357C231.714 490.705 233.136 491.182 233.195 491.845C233.254 492.508 227.926 498.534 227.453 498.564C226.98 498.595 224.72 497.186 224.72 497.186Z" fill="#151E23"/>
<path d="M159.703 461.15L158.189 463.564L153.133 468.534L149.076 472.519L145.973 475.569L129.574 453.226L131.476 451.01L134.363 447.625L137.274 444.217L159.703 461.15Z" fill="#FD9F84"/>
<path d="M150.3 474.012L131.002 450.419L122.929 457.149L142.484 480.924L150.3 474.012Z" fill="#00E26C"/>
<path d="M124.103 455.984C124.103 455.984 103.643 470.948 104.323 471.871C105.003 472.794 134.432 516.585 136.64 516.115C138.848 515.645 145.631 509.258 144.73 506.495C144.039 504.373 141.433 493.793 140.251 488.967C139.871 487.413 140.047 485.774 140.749 484.336L144.876 478.893L124.103 455.984Z" fill="white"/>
<path d="M143.869 502.01C143.623 501.059 143.359 500.018 143.088 498.944C142.766 497.67 142.436 496.347 142.117 495.062C141.831 493.917 141.556 492.803 141.304 491.786C141.031 490.678 140.789 489.682 140.59 488.881C140.519 488.588 140.469 488.29 140.439 487.99C140.343 487.05 140.454 486.1 140.765 485.207C140.85 484.961 140.949 484.72 141.063 484.486L145.297 478.826L145.101 478.611L124.464 455.868L124.146 455.512L123.894 455.69C123.844 455.728 118.718 459.478 113.742 463.292C110.818 465.533 108.514 467.361 106.898 468.72L106.627 468.95C106.534 469.026 106.449 469.103 106.359 469.178C105.87 469.598 105.457 469.967 105.121 470.284C104.974 470.421 104.842 470.548 104.728 470.665C104.128 471.269 103.836 471.672 103.998 472.001C104.01 472.025 104.023 472.048 104.039 472.069C104.118 472.178 104.633 472.931 105.413 474.077C107.085 476.532 108.696 478.889 110.247 481.149C112.887 485.002 115.336 488.553 117.565 491.754C121.731 497.752 125.11 502.528 127.491 505.771C130.365 509.69 132.31 512.184 133.642 513.759C134.264 514.529 134.939 515.255 135.662 515.932C136.075 516.288 136.316 516.42 136.478 516.454C136.557 516.473 136.639 516.473 136.717 516.454C137.347 516.319 138.306 515.75 139.354 514.936L139.63 514.717C139.721 514.644 139.809 514.571 139.901 514.494C141.57 513.101 143.357 511.19 144.364 509.458C145.09 508.199 145.329 507.162 145.078 506.378C144.837 505.687 144.396 504.051 143.869 502.01ZM136.598 515.766C136.383 515.709 135.805 515.271 134.249 513.417C132.367 511.179 129.063 506.882 123.255 498.714C121.371 496.063 119.346 493.167 117.354 490.29C112.601 483.428 108.035 476.685 106.001 473.701C105.312 472.685 104.876 472.048 104.694 471.788C104.873 471.483 105.52 470.849 106.515 469.988C106.6 469.912 106.693 469.835 106.781 469.758C106.868 469.682 106.959 469.609 107.048 469.532C110.663 466.473 117.656 461.174 123.002 457.24L124.073 456.458L144.467 478.963L143.921 479.676L140.446 484.188C140.341 484.407 140.247 484.629 140.162 484.856C139.67 486.202 139.586 487.664 139.923 489.057C140.101 489.787 140.321 490.678 140.565 491.669C140.824 492.723 141.112 493.89 141.412 495.096C141.711 496.302 142.027 497.569 142.334 498.789C142.629 499.959 142.918 501.096 143.186 502.131C143.721 504.217 144.176 505.895 144.408 506.608C144.598 507.187 144.371 508.056 143.757 509.123C142.77 510.83 141.06 512.64 139.5 513.946C139.409 514.022 139.321 514.095 139.229 514.168L138.954 514.389C137.981 515.125 137.126 515.642 136.598 515.766Z" fill="#151E23"/>
<path d="M136.804 517.51L103.082 471.351L106.25 469.035L139.973 515.194L136.804 517.51Z" fill="#151E23"/>
<path d="M139.898 514.499L139.693 514.218L139.487 513.937L107.041 469.525L106.836 469.243L106.629 468.96L106.326 468.547L102.593 471.276L117.562 491.763L133.638 513.767L136.73 517.998L140.462 515.269L139.898 514.499ZM135.918 515.702L134.249 513.416L117.354 490.29L110.37 480.73L104.007 472.019L103.58 471.435L105.13 470.302L106.183 469.532L106.309 469.71L106.515 469.988L138.948 514.387L139.152 514.667L139.357 514.948L139.489 515.127L136.889 517.027L136.482 516.472L135.918 515.702Z" fill="#151E23"/>
<path d="M134.561 498.329C135.391 498.169 143.591 498.489 143.762 499.311C143.934 500.132 144.387 501.559 143.887 501.997C143.387 502.435 135.366 501.708 135.063 501.343C134.759 500.978 134.561 498.329 134.561 498.329Z" fill="#151E23"/>
<path d="M133.272 491.284C134.101 491.123 142.302 491.444 142.472 492.265C142.641 493.086 143.098 494.513 142.597 494.952C142.095 495.39 134.083 494.656 133.772 494.3C133.462 493.943 133.272 491.284 133.272 491.284Z" fill="#151E23"/>
<path d="M131.564 484.217C132.394 484.056 140.594 484.377 140.765 485.197C140.936 486.016 141.39 487.447 140.89 487.883C140.39 488.32 132.369 487.594 132.066 487.231C131.762 486.868 131.564 484.217 131.564 484.217Z" fill="#151E23"/>
<path d="M191.378 129.993C190.181 132.234 189.079 134.281 188.96 137.133C188.781 141.23 189.852 145.36 191.28 149.177C196.514 163.334 199.68 173.69 193.065 180.974C186.45 188.259 122.774 180.78 122.729 180.778C122.356 180.768 121.635 176.024 121.578 175.68C120.872 171.638 120.707 167.52 121.087 163.434C121.588 158.446 123.082 153.511 125.942 149.346C128.946 144.971 133.276 142.477 137.399 139.324C140.403 137.031 142.65 134.268 143.923 130.705C145.276 126.945 146.193 123.184 149.524 120.606C151.622 118.985 154.053 117.846 156.644 117.273C159.425 116.671 162.097 117.818 164.855 117.398C168.335 116.863 171.102 114.013 174.315 113.046C178.063 111.927 182.525 112.274 186.184 113.552C188.628 114.405 190.905 115.928 192.253 118.13C193.968 120.918 193.992 124.575 192.61 127.545C192.23 128.409 191.8 129.214 191.378 129.993Z" fill="#151E23"/>
<path d="M152.619 180.978H174.827L175.824 163.839L175.946 161.763L176.028 160.361L166.659 158.45L156.335 156.342L154.386 169.268L152.619 180.978Z" fill="#FD9F84"/>
<path d="M154.386 169.268C162.953 168.573 172.817 164.382 175.862 163.211L175.946 161.763L166.664 158.449L156.34 156.344L154.386 169.268Z" fill="#D17C68"/>
<path d="M168.104 165.287C172.211 165.287 176.15 163.658 179.055 160.76C181.959 157.861 183.59 153.93 183.59 149.831V131.126L152.617 132.775V149.838C152.619 153.936 154.251 157.866 157.156 160.763C160.06 163.66 163.998 165.287 168.104 165.287Z" fill="#FD9F84"/>
<path d="M163.762 148.685C164.656 148.685 165.381 147.962 165.381 147.07C165.381 146.177 164.656 145.454 163.762 145.454C162.868 145.454 162.143 146.177 162.143 147.07C162.143 147.962 162.868 148.685 163.762 148.685Z" fill="#151E23"/>
<path d="M175.987 148.685C176.881 148.685 177.606 147.962 177.606 147.07C177.606 146.177 176.881 145.454 175.987 145.454C175.093 145.454 174.368 146.177 174.368 147.07C174.368 147.962 175.093 148.685 175.987 148.685Z" fill="#151E23"/>
<path d="M154.847 146.051C154.866 145.873 153.776 145.265 153.652 145.185C152.899 144.713 152.046 144.271 151.139 144.194C148.837 144 148.515 146.656 148.842 148.356C149.285 150.659 151.32 152.081 153.378 152.932C153.417 152.948 154.061 153.173 154.059 153.185C154.058 153.198 154.847 146.058 154.847 146.051Z" fill="#FD9F84"/>
<path d="M169.254 165.474C171.144 165.444 173.002 164.981 174.684 164.12C178.129 162.36 180.931 159.566 182.359 156.46C183.828 153.269 183.942 149.362 184.044 145.915C184.055 145.509 184.067 145.106 184.081 144.711C184.234 140.174 184.148 135.632 183.824 131.104C183.82 131.044 183.792 130.987 183.746 130.948C183.7 130.908 183.64 130.888 183.58 130.892C183.519 130.896 183.463 130.925 183.423 130.97C183.383 131.016 183.363 131.076 183.367 131.136C183.689 135.648 183.775 140.174 183.623 144.695C183.608 145.093 183.596 145.495 183.585 145.903C183.485 149.305 183.371 153.162 181.943 156.269C180.554 159.287 177.838 162 174.48 163.714C172.859 164.544 171.067 164.989 169.245 165.016C169.188 165.021 169.134 165.047 169.096 165.09C169.057 165.132 169.035 165.187 169.035 165.245C169.035 165.302 169.057 165.358 169.096 165.4C169.134 165.442 169.188 165.469 169.245 165.474H169.254Z" fill="#151E23"/>
<path d="M173.454 142.434C173.11 142.091 173.336 141.585 173.841 141.522C175.091 141.371 177.907 141.134 178.982 141.939C179.248 142.139 180.355 143.02 179.55 143.168C179.159 143.241 178.63 143.044 178.238 142.99C177.311 142.867 176.383 142.857 175.455 142.789C174.973 142.753 173.97 142.805 173.552 142.515C173.517 142.491 173.484 142.464 173.454 142.434Z" fill="#151E23"/>
<path d="M165.827 142.757C166.138 142.379 165.863 141.898 165.354 141.886C164.105 141.854 161.27 141.886 160.278 142.798C160.033 143.02 159.018 144.006 159.834 144.075C160.228 144.109 160.726 143.861 161.12 143.772C162.031 143.56 162.954 143.46 163.871 143.304C164.348 143.222 165.351 143.175 165.738 142.846C165.77 142.819 165.8 142.789 165.827 142.757Z" fill="#151E23"/>
<path d="M170.152 154.081C171.044 154.081 172.033 153.843 172.526 153.257C172.804 152.925 173.036 152.352 172.551 151.504C171.48 149.63 171.63 144.248 171.631 144.2C171.628 144.129 171.598 144.062 171.547 144.012C171.497 143.962 171.429 143.933 171.358 143.931C171.287 143.929 171.217 143.954 171.164 144.001C171.11 144.048 171.077 144.113 171.069 144.184C171.069 144.41 170.91 149.779 172.062 151.79C172.326 152.252 172.337 152.615 172.096 152.902C171.56 153.531 169.991 153.693 169.118 153.38C169.047 153.354 168.969 153.359 168.901 153.391C168.833 153.423 168.781 153.481 168.756 153.552C168.731 153.623 168.735 153.701 168.767 153.769C168.8 153.837 168.858 153.889 168.929 153.914C169.325 154.037 169.738 154.093 170.152 154.081Z" fill="#151E23"/>
<path d="M160.102 153.959C161.523 153.624 162.403 152.203 162.067 150.785C161.732 149.367 160.308 148.488 158.887 148.823C157.466 149.158 156.586 150.579 156.922 151.997C157.257 153.415 158.681 154.294 160.102 153.959Z" fill="#F2564A"/>
<path d="M180.678 153.972C182.119 153.739 183.098 152.384 182.864 150.945C182.63 149.507 181.272 148.53 179.831 148.764C178.39 148.997 177.411 150.352 177.645 151.791C177.879 153.229 179.237 154.206 180.678 153.972Z" fill="#F2564A"/>
<path d="M170.218 159.732C172.671 159.732 174.641 158.366 175.407 157.746L175.453 157.71C175.484 157.69 175.51 157.663 175.531 157.633C175.551 157.602 175.565 157.568 175.572 157.532C175.579 157.496 175.579 157.458 175.571 157.422C175.564 157.386 175.549 157.352 175.528 157.322C175.486 157.261 175.421 157.218 175.347 157.204C175.274 157.19 175.198 157.206 175.136 157.247C175.123 157.247 175.096 157.276 175.054 157.309C173.904 158.239 169.834 160.979 165.69 157.272C165.663 157.244 165.631 157.222 165.595 157.207C165.559 157.192 165.521 157.184 165.482 157.185C165.443 157.185 165.405 157.194 165.369 157.21C165.334 157.226 165.302 157.249 165.276 157.278C165.25 157.306 165.23 157.34 165.218 157.377C165.206 157.414 165.201 157.453 165.205 157.491C165.208 157.53 165.22 157.567 165.238 157.601C165.257 157.635 165.283 157.665 165.313 157.689C167.018 159.208 168.71 159.732 170.218 159.732Z" fill="#151E23"/>
<path d="M186.305 116.045C186.305 116.045 195.84 122.589 189.299 132.665C182.757 142.741 169.475 137.612 163.084 135.23C156.692 132.848 149.206 140.911 149.206 140.911L153.213 124.967L186.305 116.045Z" fill="#151E23"/>
<path d="M259.383 230.408L246.387 215.527L207.582 242.094C203.318 246.689 202.175 256.143 205.552 260.326C207.086 262.227 209.292 263.469 211.715 263.797C214.138 264.126 216.596 263.515 218.582 262.091C233.415 251.456 260.178 229.77 259.383 230.408Z" fill="#FD9F84"/>
<path d="M251.482 211.64L252.358 211.107L269.225 206.289L272.203 213.389L273.88 215.794L273.122 216.247L275.103 219.087L251.378 236.832L239.208 220.437L251.482 211.64Z" fill="#FD9F84"/>
<path d="M258.697 201.888L252.44 206.055L265.324 225.321L271.58 221.154L258.697 201.888Z" fill="white"/>
<path d="M265.229 225.787L251.957 205.941L258.793 201.388L272.063 221.233L265.229 225.787ZM252.924 206.136L265.418 224.821L271.094 221.039L258.6 202.353L252.924 206.136Z" fill="#151E23"/>
<path d="M306.844 189.65L294.384 188.996C287.645 189.161 281.065 191.068 275.285 194.529L242.571 214.125L231.596 197.714L262.093 176.102C267.509 172.264 271.852 167.108 274.71 161.123C275.104 160.3 275.445 159.453 275.733 158.587L279.176 148.267L306.844 189.65Z" fill="white"/>
<path d="M242.457 214.592L231.108 197.625L261.882 175.815C267.247 172.009 271.551 166.9 274.387 160.972C274.773 160.162 275.109 159.329 275.392 158.478L278.839 148.163L279.499 148.384L276.056 158.704C275.763 159.583 275.417 160.443 275.019 161.28C272.131 167.316 267.749 172.517 262.287 176.392L232.074 197.8L242.676 213.655L275.106 194.237C280.941 190.745 287.582 188.821 294.383 188.654H294.396L306.873 189.308L306.835 190.003L294.387 189.351C287.712 189.518 281.194 191.407 275.467 194.834L242.457 214.592Z" fill="#151E23"/>
<path d="M232.003 197.451L228.964 199.475L239.939 215.887L242.978 213.862L232.003 197.451Z" fill="white"/>
<path d="M239.844 216.352L228.481 199.362L232.099 196.952L243.462 213.942L239.844 216.352ZM229.448 199.555L240.036 215.387L242.494 213.749L231.906 197.918L229.448 199.555Z" fill="#151E23"/>
<path d="M296.52 166.616C303.636 177.256 308.179 186.897 307.26 189.185C307.203 189.341 307.1 189.475 306.963 189.57C305.088 190.817 297.373 182.569 289.728 171.14C282.084 159.712 277.413 149.435 279.287 148.186C279.453 148.082 279.652 148.039 279.847 148.065C282.408 148.281 289.491 156.103 296.52 166.616Z" fill="#151E23"/>
<path d="M306.525 190.038C305.275 190.038 303.171 188.465 300.254 185.348C296.988 181.853 293.147 176.875 289.439 171.333C285.732 165.791 282.601 160.342 280.62 155.989C278.51 151.358 277.996 148.627 279.092 147.896C279.326 147.748 279.603 147.685 279.878 147.718C282.594 147.948 289.716 155.813 296.811 166.423C303.01 175.687 308.702 186.532 307.583 189.315C307.501 189.536 307.352 189.726 307.158 189.86C306.969 189.981 306.749 190.043 306.525 190.038ZM279.74 148.409C279.649 148.405 279.558 148.428 279.48 148.475C278.944 148.832 279.089 150.939 281.265 155.703C283.228 160.021 286.343 165.435 290.028 170.947C293.714 176.458 297.525 181.404 300.774 184.872C304.343 188.697 306.244 189.638 306.78 189.281C306.857 189.224 306.915 189.145 306.946 189.055C307.715 187.14 303.922 178.295 296.236 166.808C288.688 155.523 281.957 148.593 279.815 148.413C279.79 148.41 279.765 148.409 279.74 148.409Z" fill="#151E23"/>
<path d="M296.52 166.616C303.636 177.257 308.179 186.898 307.26 189.185C303.479 185.651 297.759 178.511 291.974 169.86C286.071 161.035 281.596 152.872 279.847 148.066C282.409 148.281 289.491 156.104 296.52 166.616Z" fill="#00E26C"/>
<path d="M253.351 179.794L230.116 195.272L243.953 215.964L267.189 200.486L253.351 179.794Z" fill="#00E26C"/>
<path d="M235.178 191.9L234.165 192.574L248.002 213.267L249.015 212.592L235.178 191.9Z" fill="#151E23"/>
<path d="M266.892 220.637L268.127 222.407C268.527 222.981 269.318 223.122 269.894 222.723L276.551 218.096C277.126 217.696 277.268 216.907 276.867 216.333L275.632 214.562C275.232 213.988 274.441 213.847 273.865 214.247L267.208 218.873C266.633 219.273 266.491 220.063 266.892 220.637Z" fill="#FD9F84"/>
<path d="M266.73 220.75L267.951 222.501L267.971 222.528C268.141 222.764 268.38 222.942 268.654 223.039C268.731 223.067 268.811 223.089 268.892 223.104C268.972 223.118 269.053 223.125 269.134 223.125C269.438 223.13 269.736 223.038 269.984 222.863L270.976 222.174L276.622 218.254C276.868 218.085 277.055 217.843 277.157 217.563C277.216 217.404 277.247 217.236 277.248 217.066C277.251 216.766 277.16 216.472 276.988 216.225L275.765 214.474C275.592 214.229 275.348 214.042 275.066 213.94C275.002 213.917 274.937 213.899 274.871 213.885L274.825 213.876C274.775 213.866 274.725 213.859 274.675 213.856C274.643 213.854 274.612 213.854 274.58 213.856C274.5 213.854 274.42 213.86 274.341 213.874C274.122 213.907 273.913 213.991 273.732 214.118L273.038 214.599L267.092 218.732C266.911 218.858 266.761 219.024 266.653 219.216C266.614 219.285 266.582 219.356 266.555 219.43C266.543 219.462 266.534 219.494 266.525 219.525C266.51 219.573 266.498 219.621 266.489 219.671C266.489 219.706 266.478 219.742 266.475 219.778C266.471 219.823 266.471 219.868 266.475 219.913C266.47 220.212 266.559 220.505 266.73 220.75ZM268.245 222.297L267.025 220.544C266.942 220.426 266.884 220.292 266.853 220.152C266.822 220.011 266.82 219.866 266.846 219.724C266.862 219.629 266.892 219.537 266.934 219.45C267.012 219.276 267.135 219.127 267.291 219.017L273.236 214.882L273.93 214.401C274.049 214.318 274.183 214.26 274.324 214.229C274.465 214.199 274.611 214.197 274.753 214.223C275.032 214.273 275.281 214.428 275.448 214.656C275.452 214.663 275.457 214.669 275.462 214.676L276.684 216.428C276.851 216.668 276.915 216.963 276.864 217.249C276.812 217.536 276.649 217.79 276.41 217.957L274.994 218.942L269.77 222.571C269.53 222.733 269.236 222.795 268.952 222.744C268.667 222.692 268.413 222.532 268.245 222.297Z" fill="#151E23"/>
<path d="M263.15 217.701L264.385 219.472C264.786 220.046 265.577 220.187 266.152 219.787L274.532 213.964C275.107 213.564 275.249 212.774 274.848 212.2L273.613 210.43C273.213 209.856 272.422 209.715 271.846 210.114L263.466 215.938C262.891 216.338 262.749 217.127 263.15 217.701Z" fill="#FD9F84"/>
<path d="M262.987 217.818L264.21 219.569L264.227 219.596C264.397 219.828 264.633 220.004 264.904 220.102C265.063 220.161 265.231 220.192 265.4 220.192C265.701 220.195 265.994 220.104 266.241 219.932L266.459 219.781L266.475 219.77L266.932 219.453L273.329 214.999L274.473 214.203L274.603 214.114C274.702 214.045 274.792 213.965 274.871 213.874L274.883 213.859C274.996 213.726 275.084 213.573 275.142 213.409C275.198 213.256 275.227 213.095 275.228 212.933C275.233 212.63 275.142 212.333 274.967 212.085L273.744 210.332C273.569 210.083 273.319 209.896 273.031 209.798C272.962 209.774 272.893 209.756 272.822 209.742H272.804C272.724 209.729 272.642 209.721 272.561 209.719C272.52 209.719 272.481 209.719 272.442 209.719C272.179 209.736 271.926 209.825 271.71 209.976L270.98 210.482L270.266 210.973L269.855 211.258L265.88 214.021L265.679 214.162L265.459 214.314L264.095 215.263L263.806 215.463L263.758 215.498L263.342 215.787C263.093 215.963 262.906 216.212 262.807 216.499C262.751 216.653 262.723 216.814 262.723 216.977C262.72 217.278 262.813 217.572 262.987 217.818ZM264.504 219.364L263.283 217.613C263.2 217.495 263.142 217.361 263.111 217.22C263.08 217.08 263.077 216.934 263.102 216.792C263.128 216.65 263.181 216.515 263.259 216.393C263.337 216.272 263.438 216.167 263.556 216.084L264.147 215.673L264.163 215.662L264.627 215.34L265.723 214.579L265.934 214.431L266.135 214.292L270.071 211.556L270.276 211.413L270.482 211.271L271.124 210.824L271.919 210.271C272.139 210.118 272.408 210.051 272.675 210.083H272.699C272.845 210.103 272.985 210.152 273.112 210.227C273.238 210.303 273.348 210.402 273.436 210.521L273.45 210.542L274.671 212.293C274.837 212.532 274.902 212.827 274.851 213.114C274.8 213.401 274.637 213.655 274.398 213.822L274.341 213.863L273.122 214.709L266.653 219.206L266.035 219.633C265.917 219.716 265.784 219.774 265.642 219.806C265.501 219.837 265.355 219.84 265.213 219.814C265.071 219.789 264.935 219.736 264.813 219.658C264.692 219.58 264.586 219.479 264.504 219.36V219.364Z" fill="#151E23"/>
<path d="M262.263 213.213L263.498 214.984C263.898 215.558 264.689 215.699 265.265 215.299L272.136 210.524C272.711 210.124 272.853 209.335 272.452 208.761L271.217 206.99C270.817 206.416 270.026 206.275 269.45 206.675L262.579 211.45C262.004 211.85 261.862 212.639 262.263 213.213Z" fill="#FD9F84"/>
<path d="M262.095 213.325L262.312 213.639L262.6 214.048L263.314 215.078L263.333 215.105C263.449 215.263 263.595 215.396 263.764 215.497C263.821 215.531 263.881 215.562 263.942 215.589L264.019 215.618C264.064 215.634 264.11 215.648 264.156 215.659C264.187 215.659 264.219 215.673 264.251 215.68C264.329 215.693 264.408 215.701 264.487 215.703C264.793 215.707 265.093 215.615 265.343 215.44L266.011 214.977L266.216 214.834L266.421 214.692L270.348 211.961L270.759 211.676L271.316 211.291L272.197 210.678C272.413 210.527 272.583 210.322 272.692 210.083C272.708 210.049 272.722 210.012 272.736 209.974C272.764 209.897 272.785 209.817 272.799 209.736C272.8 209.73 272.8 209.725 272.799 209.72C272.812 209.646 272.819 209.572 272.82 209.497C272.824 209.194 272.733 208.897 272.558 208.649L271.337 206.896C271.228 206.739 271.088 206.605 270.926 206.502C270.764 206.398 270.584 206.328 270.395 206.296C270.317 206.281 270.239 206.273 270.161 206.271C269.86 206.267 269.565 206.356 269.317 206.525C269.312 206.527 269.307 206.53 269.304 206.534L267.853 207.543L267.646 207.685L267.439 207.829L262.441 211.296C262.193 211.472 262.005 211.721 261.906 212.009C261.828 212.228 261.804 212.462 261.835 212.692C261.866 212.922 261.952 213.141 262.084 213.332L262.095 213.325ZM264.628 215.336C264.528 215.347 264.426 215.343 264.328 215.324C264.251 215.311 264.176 215.29 264.105 215.262C263.907 215.181 263.737 215.046 263.614 214.871L262.919 213.879L262.775 213.671L262.628 213.462L262.391 213.12C262.224 212.881 262.16 212.586 262.211 212.3C262.262 212.013 262.425 211.759 262.664 211.592L267.662 208.113L268.072 207.828L269.458 206.864L269.509 206.828C269.745 206.664 270.035 206.599 270.319 206.646C270.602 206.693 270.855 206.85 271.025 207.081C271.031 207.088 271.036 207.095 271.041 207.103L272.263 208.854C272.351 208.978 272.412 209.118 272.443 209.267C272.474 209.416 272.473 209.569 272.442 209.718C272.44 209.725 272.44 209.732 272.442 209.739C272.41 209.871 272.353 209.995 272.276 210.106C272.202 210.214 272.109 210.308 272.001 210.382L271.184 210.95L270.564 211.38L270.359 211.524L270.154 211.667L266.227 214.398L266.022 214.538L265.815 214.683L265.149 215.146C264.994 215.253 264.815 215.319 264.628 215.336Z" fill="#151E23"/>
<path d="M256.572 217.929L262.357 213.91C262.642 213.712 262.963 213.572 263.302 213.497C263.641 213.423 263.991 213.417 264.333 213.478C264.674 213.539 265.001 213.666 265.293 213.853C265.585 214.04 265.837 214.283 266.036 214.567L266.312 214.964C266.511 215.249 266.763 215.491 267.056 215.678C267.348 215.865 267.674 215.993 268.016 216.054C268.358 216.115 268.708 216.108 269.048 216.034C269.387 215.96 269.708 215.82 269.993 215.622C270.278 215.424 270.521 215.172 270.708 214.88C270.895 214.588 271.023 214.262 271.084 213.921C271.146 213.58 271.139 213.23 271.065 212.892C270.99 212.553 270.85 212.233 270.651 211.948L267.846 207.926C267.474 207.395 266.92 207.018 266.289 206.868L261.34 205.69C260.977 205.604 260.601 205.595 260.235 205.664C259.869 205.733 259.521 205.879 259.216 206.091L251.872 211.195C251.588 211.393 251.345 211.645 251.158 211.937C250.971 212.228 250.843 212.554 250.782 212.895C250.721 213.236 250.728 213.585 250.802 213.924C250.877 214.262 251.017 214.582 251.216 214.866L252.893 217.273C253.092 217.557 253.344 217.8 253.637 217.987C253.929 218.173 254.255 218.301 254.597 218.362C254.938 218.423 255.289 218.416 255.628 218.341C255.966 218.267 256.287 218.127 256.572 217.929Z" fill="#FD9F84"/>
<path d="M262.214 213.705C262.536 213.479 262.901 213.322 263.287 213.244C263.672 213.165 264.069 213.166 264.454 213.247C265.204 213.413 265.861 213.859 266.291 214.494L266.469 214.763C266.713 215.12 267.047 215.407 267.437 215.595C267.827 215.783 268.26 215.864 268.692 215.832C269.197 215.786 269.674 215.58 270.055 215.246C270.436 214.911 270.7 214.464 270.81 213.97C270.88 213.636 270.879 213.292 270.808 212.959C270.737 212.625 270.597 212.31 270.398 212.034L267.63 208.066C267.295 207.584 266.793 207.243 266.221 207.108L261.272 205.929C260.944 205.85 260.604 205.841 260.273 205.903C259.941 205.964 259.627 206.094 259.349 206.285L255.867 208.733C255.76 208.603 255.653 208.476 255.544 208.348L259.073 205.895C259.407 205.663 259.786 205.504 260.186 205.428C260.586 205.352 260.997 205.361 261.393 205.455L266.343 206.634C267.033 206.799 267.639 207.211 268.045 207.792L270.807 211.725C271.094 212.126 271.278 212.591 271.343 213.08C271.407 213.568 271.349 214.065 271.174 214.526C270.977 215.023 270.644 215.456 270.213 215.775C269.783 216.095 269.272 216.288 268.738 216.334C268.217 216.371 267.695 216.271 267.225 216.043C266.755 215.816 266.354 215.469 266.061 215.037L265.882 214.774C265.533 214.257 265.004 213.89 264.397 213.744C264.074 213.67 263.738 213.665 263.413 213.729C263.087 213.793 262.778 213.924 262.507 214.114L260.952 215.194C260.925 215.214 260.893 215.228 260.86 215.236C260.826 215.243 260.792 215.244 260.758 215.237C260.724 215.23 260.693 215.217 260.665 215.197C260.637 215.177 260.613 215.152 260.595 215.123C260.56 215.069 260.548 215.003 260.56 214.94C260.573 214.877 260.609 214.821 260.661 214.784L262.214 213.705Z" fill="#151E23"/>
<path d="M251.009 215.01C250.57 214.382 250.399 213.606 250.533 212.853C250.667 212.099 251.094 211.429 251.722 210.99L255.537 208.339C255.646 208.467 255.753 208.594 255.86 208.724L252.212 211.259C251.927 211.456 251.684 211.708 251.498 212C251.311 212.291 251.183 212.616 251.122 212.957C251.061 213.297 251.068 213.647 251.142 213.985C251.216 214.323 251.357 214.643 251.555 214.927L251.733 215.181C251.771 215.236 251.786 215.303 251.774 215.368C251.762 215.433 251.725 215.491 251.671 215.529C251.616 215.567 251.549 215.581 251.484 215.57C251.418 215.558 251.361 215.521 251.323 215.466L251.009 215.01Z" fill="#151E23"/>
<path d="M175.034 202.218L201.706 257.636C202.963 260.258 205.183 262.296 207.905 263.328C210.628 264.359 213.644 264.305 216.328 263.176C219.012 262.047 221.157 259.93 222.318 257.264C223.479 254.598 223.567 251.589 222.564 248.86L204.567 199.68L175.034 202.218Z" fill="#FD9F84"/>
<path d="M217.841 223.21L183.482 232.652L173.984 199.975C170.975 189.623 175.914 179.255 186.286 176.251C196.658 173.248 205.333 180.171 208.342 190.523L217.841 223.21Z" fill="white"/>
<path d="M183.242 233.089L173.649 200.08C170.511 189.288 175.903 178.904 186.189 175.926C191.225 174.468 196.096 175.213 200.274 178.103C204.16 180.775 207.144 185.162 208.677 190.436L218.275 223.453L183.242 233.089ZM191.082 175.904C189.491 175.909 187.91 176.14 186.384 176.588C176.479 179.455 171.292 189.468 174.318 199.879L183.721 232.228L217.407 222.965L208.008 190.626C205.34 181.45 198.723 175.911 191.082 175.911V175.904Z" fill="#151E23"/>
<path d="M229.454 373.222C233.677 367.163 236.293 360.136 237.058 352.795C237.824 345.454 236.712 338.039 233.829 331.243C224.959 310.315 211.835 279.362 211.08 277.654L210.418 276.156L176.967 300.809L177.445 301.789C185.488 318.292 197.507 343.233 198.768 346.617C197.947 348.427 192.399 357.84 166.703 397.757C151.219 421.807 133.683 447.415 133.522 447.654L152.528 471.682L153.633 470.343C153.686 470.279 154.975 468.714 157.202 465.994L159.007 463.789C167.071 453.921 183.028 434.268 198.669 414.241C211.655 397.619 221.888 383.992 229.088 373.738L229.454 373.222Z" fill="#0038FF"/>
<path d="M211.985 351.342C211.945 351.342 211.905 351.335 211.867 351.321L198.912 346.689C198.848 346.666 198.792 346.624 198.751 346.57C198.711 346.515 198.687 346.45 198.683 346.382C198.679 346.314 198.695 346.247 198.729 346.188C198.763 346.129 198.814 346.081 198.875 346.051L212.481 339.267C212.56 339.247 212.644 339.255 212.718 339.289C212.792 339.323 212.852 339.381 212.888 339.454C212.924 339.527 212.935 339.61 212.917 339.689C212.9 339.769 212.855 339.84 212.792 339.891L199.917 346.304L212.103 350.665C212.174 350.698 212.231 350.754 212.267 350.823C212.303 350.892 212.316 350.971 212.302 351.048C212.289 351.125 212.251 351.196 212.193 351.249C212.136 351.302 212.063 351.334 211.985 351.342Z" fill="#151E23"/>
<path d="M140.313 227.413C140.258 227.414 140.203 227.401 140.153 227.376C140.104 227.351 140.061 227.314 140.029 227.269C139.996 227.224 139.975 227.172 139.967 227.117C139.959 227.062 139.965 227.006 139.983 226.954C140.04 226.79 145.602 210.473 145.972 197.75C145.992 197.672 146.038 197.603 146.103 197.554C146.168 197.506 146.247 197.481 146.328 197.483C146.409 197.486 146.487 197.516 146.549 197.568C146.61 197.621 146.652 197.692 146.668 197.772C146.297 210.598 140.701 227.014 140.644 227.178C140.619 227.246 140.574 227.305 140.515 227.347C140.456 227.389 140.386 227.412 140.313 227.413Z" fill="#151E23"/>
<path d="M134.577 175.578H190.22L197.404 188.276C202.196 196.744 204.184 206.506 203.086 216.168L198.875 253.208L140.316 256.949L134.577 175.578Z" fill="white"/>
<path d="M226.248 470.963L195.764 473.393C186.7 443.699 169.017 383.34 167.823 380.629C166.668 378.012 144.483 334.854 133.786 314.042C129.931 306.538 128.378 299.024 128.937 290.626C129.472 282.64 129.82 274.803 133.02 267.323C133.496 266.213 134.015 265.124 134.577 264.058C135.593 262.129 136.749 260.277 138.034 258.516C138.857 257.391 141.013 254.087 142.88 252.343C143.167 252.069 143.479 251.821 143.81 251.602C144.073 251.418 144.374 251.296 144.69 251.245L199.541 247.348L199.585 247.463L203.678 258.284L211.401 278.699L185.725 297.624L180.192 301.705L202.387 365.25L202.404 365.317L226.248 470.963Z" fill="#0038FF"/>
<path d="M202.703 365.241L202.684 365.153L180.551 301.812L185.654 298.05C185.715 298.005 185.757 297.941 185.774 297.868C185.79 297.795 185.779 297.718 185.743 297.652C185.722 297.613 185.693 297.578 185.657 297.551C185.622 297.524 185.581 297.505 185.537 297.495C185.493 297.485 185.448 297.484 185.404 297.493C185.36 297.502 185.319 297.521 185.283 297.547L179.994 301.445L179.816 301.582L202.088 365.322L202.098 365.374L225.868 470.667L195.996 473.049C192.092 460.274 186.737 442.308 181.561 424.923C174.711 401.921 168.796 382.056 168.107 380.495C166.964 377.907 145.867 336.85 134.532 314.802L134.063 313.89C130.22 306.408 128.69 299.024 129.244 290.639L129.329 289.315C129.829 281.673 130.3 274.454 133.303 267.435C134.627 264.342 136.298 261.409 138.282 258.69C138.441 258.475 138.639 258.177 138.889 257.831C139.755 256.584 141.41 254.226 142.87 252.776C142.903 252.742 142.929 252.702 142.945 252.657C142.96 252.612 142.965 252.564 142.959 252.517C142.953 252.458 142.931 252.401 142.895 252.354C142.858 252.307 142.809 252.271 142.753 252.251C142.696 252.231 142.636 252.227 142.577 252.24C142.519 252.253 142.466 252.283 142.423 252.325C141.124 253.606 139.693 255.582 138.372 257.475C138.133 257.817 137.926 258.111 137.772 258.323C135.758 261.079 134.064 264.054 132.722 267.191C129.677 274.308 129.203 281.578 128.701 289.281C128.673 289.719 128.644 290.159 128.614 290.598C128.072 298.755 129.76 306.906 133.497 314.181L133.967 315.094C144.498 335.581 166.391 378.183 167.523 380.753C168.196 382.278 174.391 403.082 180.951 425.112C186.161 442.607 191.548 460.696 195.451 473.485L195.526 473.726L226.619 471.246L202.703 365.241Z" fill="#151E23"/>
<path d="M203.726 258.922L134.945 264.022L134.577 264.049C135.593 262.12 136.749 260.268 138.035 258.506C138.857 257.382 141.014 254.078 142.881 252.334C143.168 252.059 143.479 251.811 143.81 251.593L199.589 247.454L203.682 258.275L203.726 258.922Z" fill="white"/>
<path d="M133.976 264.442L134.268 263.887C135.293 261.943 136.458 260.077 137.754 258.302C137.91 258.09 138.111 257.792 138.358 257.447C139.386 255.977 141.106 253.515 142.641 252.081C142.944 251.791 143.273 251.53 143.623 251.299L143.698 251.253L199.819 247.089L204.023 258.198L204.099 259.242L133.976 264.442ZM143.926 251.933C143.64 252.13 143.37 252.35 143.118 252.589C141.636 253.973 139.943 256.397 138.929 257.846C138.686 258.202 138.477 258.494 138.316 258.712C137.165 260.289 136.118 261.94 135.184 263.655L203.353 258.599L203.335 258.35L199.352 247.822L143.926 251.933Z" fill="#151E23"/>
<path d="M188.178 247.724L168.548 249.009L169.416 262.224L189.046 260.94L188.178 247.724Z" fill="#00E26C"/>
<path d="M169.106 262.579L168.192 248.671L188.517 247.341L189.431 261.248L169.106 262.579ZM168.927 249.32L169.75 261.84L188.683 260.593L187.86 248.073L168.927 249.32Z" fill="#151E23"/>
<path d="M175.576 175.688L212.949 342.878L239.171 339.26L193.222 175.697L175.576 175.688Z" fill="#0038FF"/>
<path d="M212.679 343.268L175.135 175.341H193.481L239.608 339.541L212.679 343.268ZM176.012 176.038L213.22 342.492L238.726 338.97L192.958 176.045L176.012 176.038Z" fill="#151E23"/>
<path d="M130.932 175.688H159.703L168.178 342.878H120.896L130.932 175.688Z" fill="#0038FF"/>
<path d="M168.544 343.233H120.517L130.596 175.347H160.035L168.544 343.233ZM121.265 342.538H167.817L159.378 176.043H131.26L121.265 342.538Z" fill="#151E23"/>
<path d="M161.522 230.705C161.522 230.705 169.434 221.534 174.107 219.885C178.78 218.235 180.176 218.549 180.296 219.142C180.415 219.735 177.727 228.461 177.727 228.461L161.522 230.705Z" fill="#FD9F84"/>
<path d="M181.441 249.494L215.783 240.668L204.662 197.561L170.319 206.387L181.441 249.494Z" fill="white"/>
<path d="M209.704 233.427L183.559 240.145L209.704 233.427Z" fill="#006557"/>
<path d="M183.559 240.494C183.48 240.485 183.406 240.449 183.349 240.393C183.293 240.337 183.257 240.264 183.247 240.185C183.236 240.106 183.253 240.027 183.294 239.958C183.335 239.89 183.397 239.837 183.471 239.808L209.617 233.09C209.698 233.087 209.778 233.111 209.844 233.159C209.91 233.207 209.957 233.277 209.978 233.355C209.999 233.434 209.992 233.517 209.959 233.592C209.926 233.666 209.868 233.727 209.795 233.764L183.648 240.483C183.619 240.491 183.589 240.494 183.559 240.494Z" fill="#151E23"/>
<path d="M209.049 230.855L182.903 237.575L209.049 230.855Z" fill="#006557"/>
<path d="M182.895 237.922C182.816 237.912 182.743 237.876 182.687 237.82C182.632 237.765 182.596 237.692 182.586 237.614C182.576 237.535 182.592 237.456 182.632 237.388C182.672 237.32 182.734 237.267 182.807 237.238L208.952 230.518C209.035 230.513 209.116 230.537 209.183 230.586C209.249 230.634 209.297 230.704 209.318 230.783C209.339 230.862 209.332 230.947 209.298 231.021C209.264 231.096 209.205 231.157 209.131 231.193L182.989 237.911C182.958 237.919 182.926 237.922 182.895 237.922Z" fill="#151E23"/>
<path d="M204.975 215.098L178.83 221.816L204.975 215.098Z" fill="#006557"/>
<path d="M178.829 222.163C178.744 222.163 178.662 222.132 178.598 222.076C178.535 222.02 178.494 221.943 178.483 221.859C178.473 221.775 178.493 221.69 178.541 221.62C178.589 221.55 178.661 221.5 178.743 221.479L204.888 214.759C204.936 214.736 204.988 214.724 205.041 214.723C205.094 214.722 205.146 214.733 205.194 214.755C205.242 214.777 205.285 214.809 205.319 214.849C205.353 214.89 205.378 214.937 205.391 214.988C205.405 215.039 205.407 215.093 205.397 215.144C205.387 215.196 205.366 215.245 205.335 215.288C205.304 215.331 205.264 215.366 205.217 215.392C205.171 215.417 205.12 215.432 205.067 215.435L178.921 222.153C178.891 222.16 178.86 222.164 178.829 222.163Z" fill="#151E23"/>
<path d="M204.312 212.525L178.17 219.243L204.312 212.525Z" fill="#006557"/>
<path d="M178.169 219.6C178.09 219.59 178.017 219.555 177.96 219.499C177.904 219.443 177.867 219.37 177.857 219.291C177.847 219.212 177.864 219.132 177.905 219.064C177.945 218.995 178.008 218.943 178.082 218.914L204.229 212.189C204.311 212.185 204.391 212.209 204.457 212.258C204.523 212.306 204.57 212.375 204.591 212.454C204.612 212.532 204.605 212.616 204.572 212.69C204.538 212.765 204.48 212.825 204.408 212.862L178.262 219.58C178.233 219.591 178.201 219.598 178.169 219.6Z" fill="#151E23"/>
<path d="M203.931 209.88L177.784 216.6L203.931 209.88Z" fill="#006557"/>
<path d="M177.784 216.947C177.699 216.947 177.617 216.916 177.554 216.86C177.49 216.804 177.449 216.727 177.439 216.643C177.428 216.559 177.449 216.474 177.497 216.404C177.544 216.334 177.616 216.284 177.698 216.263L203.844 209.544C203.926 209.539 204.007 209.563 204.074 209.611C204.141 209.659 204.188 209.729 204.209 209.808C204.23 209.888 204.223 209.972 204.189 210.047C204.155 210.122 204.096 210.182 204.022 210.219L177.877 216.937C177.847 216.944 177.815 216.948 177.784 216.947Z" fill="#151E23"/>
<path d="M203.268 207.307L177.122 214.025L203.268 207.307Z" fill="#006557"/>
<path d="M177.122 214.377C177.043 214.367 176.969 214.332 176.913 214.276C176.856 214.22 176.82 214.147 176.81 214.068C176.8 213.989 176.817 213.909 176.857 213.841C176.898 213.772 176.96 213.72 177.035 213.691L203.18 206.973C203.228 206.949 203.28 206.936 203.333 206.934C203.386 206.933 203.439 206.943 203.488 206.965C203.536 206.987 203.58 207.019 203.614 207.06C203.649 207.1 203.674 207.148 203.687 207.199C203.701 207.251 203.703 207.304 203.693 207.357C203.683 207.409 203.661 207.458 203.63 207.501C203.598 207.544 203.558 207.579 203.511 207.604C203.464 207.63 203.412 207.644 203.359 207.646L177.211 214.364C177.182 214.373 177.152 214.377 177.122 214.377Z" fill="#151E23"/>
<path d="M208.085 227.151L193.222 230.969L208.085 227.151Z" fill="#006557"/>
<path d="M193.222 231.318C193.143 231.309 193.069 231.273 193.013 231.217C192.957 231.161 192.921 231.087 192.911 231.009C192.901 230.93 192.918 230.85 192.959 230.782C193 230.714 193.062 230.661 193.136 230.632L207.997 226.813C208.079 226.808 208.161 226.832 208.227 226.88C208.294 226.928 208.342 226.998 208.363 227.078C208.384 227.157 208.377 227.241 208.343 227.316C208.309 227.391 208.25 227.452 208.176 227.488L193.315 231.308C193.284 231.315 193.253 231.319 193.222 231.318Z" fill="#151E23"/>
<path d="M207.423 224.587L192.562 228.405L207.423 224.587Z" fill="#006557"/>
<path d="M192.56 228.753C192.481 228.743 192.407 228.707 192.351 228.651C192.295 228.595 192.259 228.522 192.249 228.443C192.239 228.364 192.256 228.285 192.297 228.216C192.337 228.148 192.4 228.096 192.474 228.067L207.335 224.247C207.417 224.243 207.499 224.267 207.565 224.315C207.632 224.363 207.68 224.433 207.701 224.512C207.722 224.592 207.715 224.676 207.681 224.751C207.646 224.825 207.588 224.886 207.514 224.923L192.651 228.742C192.621 228.749 192.59 228.753 192.56 228.753Z" fill="#151E23"/>
<path d="M206.761 222.021L191.899 225.835L206.761 222.021Z" fill="#006557"/>
<path d="M191.899 226.191C191.82 226.182 191.747 226.146 191.69 226.09C191.634 226.034 191.597 225.961 191.587 225.882C191.577 225.803 191.594 225.723 191.635 225.655C191.675 225.587 191.738 225.534 191.812 225.505L206.675 221.686C206.757 221.681 206.838 221.705 206.905 221.753C206.972 221.801 207.019 221.871 207.04 221.95C207.061 222.03 207.054 222.114 207.02 222.189C206.986 222.264 206.927 222.324 206.853 222.361L191.991 226.18C191.961 226.188 191.93 226.191 191.899 226.191Z" fill="#151E23"/>
<path d="M206.119 219.533L191.256 223.353L206.119 219.533Z" fill="#006557"/>
<path d="M191.257 223.697C191.172 223.697 191.09 223.666 191.026 223.61C190.963 223.554 190.922 223.477 190.911 223.393C190.901 223.309 190.921 223.224 190.969 223.154C191.017 223.084 191.089 223.034 191.171 223.013L206.032 219.193C206.114 219.19 206.194 219.214 206.26 219.262C206.326 219.31 206.373 219.38 206.394 219.458C206.415 219.537 206.408 219.621 206.375 219.695C206.341 219.769 206.283 219.83 206.211 219.867L191.344 223.697C191.315 223.7 191.286 223.7 191.257 223.697Z" fill="#151E23"/>
<path d="M181.934 233.878L192.051 231.278L190.086 223.662L179.969 226.262L181.934 233.878Z" fill="#0038FF"/>
<path d="M176.128 210.2L202.273 203.48L201.67 201.143L175.525 207.862L176.128 210.2Z" fill="#0038FF"/>
<path d="M185.297 245.744L211.442 239.025L210.839 236.687L184.694 243.407L185.297 245.744Z" fill="#0038FF"/>
<path d="M119.123 197.786L109.215 261.464C108.745 264.472 109.453 267.546 111.192 270.048C112.932 272.55 115.569 274.287 118.557 274.901C121.546 275.514 124.656 274.956 127.243 273.343C129.831 271.729 131.697 269.184 132.455 266.235L146.148 213.087L119.123 197.786Z" fill="#FD9F84"/>
<path d="M145.281 231.471L110.043 226.127L114.704 192.42C116.18 181.744 124.924 174.283 135.621 175.756C146.318 177.23 151.418 187.079 149.942 197.755L145.281 231.471Z" fill="white"/>
<path d="M145.281 231.819C145.263 231.82 145.245 231.82 145.228 231.819L109.992 226.474C109.938 226.478 109.885 226.469 109.835 226.449C109.786 226.43 109.741 226.399 109.705 226.36C109.669 226.32 109.642 226.274 109.626 226.222C109.611 226.171 109.607 226.118 109.615 226.065C109.623 226.012 109.643 225.962 109.673 225.918C109.703 225.874 109.743 225.837 109.789 225.81C109.835 225.784 109.887 225.768 109.94 225.763C109.994 225.759 110.047 225.767 110.097 225.787L144.985 231.069L149.845 196.85C149.874 196.774 149.927 196.71 149.997 196.668C150.067 196.626 150.149 196.61 150.23 196.621C150.311 196.633 150.385 196.672 150.441 196.731C150.496 196.791 150.53 196.867 150.536 196.948L145.626 231.509C145.619 231.554 145.604 231.598 145.58 231.637C145.557 231.677 145.525 231.711 145.488 231.738C145.43 231.786 145.357 231.814 145.281 231.819Z" fill="#151E23"/>
<path d="M173.145 246.566L161.522 230.711L116.666 256.369C114.385 257.678 112.711 259.83 112.005 262.359C111.299 264.889 111.618 267.594 112.892 269.891C114.166 272.189 116.294 273.894 118.817 274.64C121.34 275.386 124.055 275.113 126.377 273.879C143.266 264.868 174.065 246.012 173.145 246.566Z" fill="#FD9F84"/>
<path d="M161.522 230.705C161.522 230.705 177.377 227.066 179.782 225.683C182.186 224.301 193.138 220.385 194.102 219.903C194.657 219.626 195.65 222.63 194.355 224.107C193.061 225.584 186.252 228.548 185.235 228.869C185.235 228.869 192.585 225.687 193.511 225.103C194.62 224.403 196.01 225.459 195.653 227.374C195.296 229.289 194.113 229.742 191.987 230.937C189.861 232.132 183.205 233.354 183.205 233.354C183.205 233.354 193.135 227.921 195.191 228.14C196.638 228.293 196.485 231.185 194.636 233.028C192.786 234.872 184.685 239.333 183.667 238.595C182.65 237.858 193.774 232.97 194.791 233.091C195.808 233.212 195.93 235.346 194.545 237.211C193.16 239.076 180.979 243.338 179.785 243.457C178.591 243.576 171.692 247.451 171.692 247.451L161.522 230.705Z" fill="#FD9F84"/>
<path d="M116.391 256.428L161.249 230.764L116.391 256.428Z" fill="#006557"/>
<path d="M116.392 256.777C116.318 256.772 116.247 256.744 116.189 256.697C116.132 256.651 116.09 256.587 116.07 256.515C116.051 256.444 116.054 256.368 116.08 256.298C116.105 256.228 116.152 256.168 116.214 256.126L161.076 230.466C161.115 230.442 161.16 230.425 161.206 230.418C161.252 230.411 161.3 230.413 161.345 230.424C161.39 230.435 161.433 230.456 161.47 230.484C161.508 230.512 161.539 230.547 161.562 230.588C161.586 230.629 161.6 230.673 161.606 230.72C161.612 230.766 161.608 230.813 161.595 230.858C161.582 230.903 161.559 230.945 161.53 230.981C161.5 231.017 161.464 231.047 161.422 231.069L116.565 256.73C116.513 256.76 116.453 256.776 116.392 256.777Z" fill="#151E23"/>
</g>
<defs>
<clipPath id="clip0">
<rect width="568" height="518" fill="white"/>
</clipPath>
</defs>
</svg>
