<svg width="104" height="104" viewBox="0 0 104 104" fill="none" xmlns="http://www.w3.org/2000/svg">
<rect x="24" width="80" height="80" rx="40" fill="#00E26C"/>
<path d="M74.6549 26.6694C74.4798 26.6693 74.3064 26.7038 74.1446 26.7707C73.9828 26.8377 73.8357 26.9359 73.7119 27.0597C73.5881 27.1836 73.4899 27.3306 73.4229 27.4924C73.3559 27.6542 73.3215 27.8276 73.3216 28.0028V28.8517C72.1971 30.246 70.7758 31.372 69.1613 32.1477C67.5467 32.9235 65.7795 33.3294 63.9883 33.3361H55.9883C54.9278 33.3373 53.911 33.7591 53.1611 34.509C52.4112 35.2588 51.9894 36.2756 51.9883 37.3361V40.0028C51.9894 41.0633 52.4112 42.08 53.1611 42.8299C53.911 43.5798 54.9278 44.0016 55.9883 44.0028H56.6333L53.4297 51.478C53.3426 51.6807 53.3073 51.9019 53.3268 52.1217C53.3464 52.3415 53.4202 52.553 53.5417 52.7372C53.6631 52.9214 53.8284 53.0725 54.0227 53.1771C54.2171 53.2816 54.4343 53.3363 54.6549 53.3361H59.9883C60.2493 53.3363 60.5046 53.2597 60.7224 53.1159C60.9403 52.9722 61.1111 52.7676 61.2135 52.5275L64.8452 44.0534C66.4861 44.1739 68.0848 44.6295 69.5427 45.392C71.0006 46.1545 72.2867 47.2078 73.3216 48.4869V49.3361C73.3216 49.6897 73.4621 50.0289 73.7121 50.2789C73.9622 50.529 74.3013 50.6694 74.6549 50.6694C75.0086 50.6694 75.3477 50.529 75.5978 50.2789C75.8478 50.0289 75.9883 49.6897 75.9883 49.3361V28.0028C75.9884 27.8276 75.954 27.6542 75.887 27.4924C75.82 27.3306 75.7218 27.1836 75.598 27.0597C75.4741 26.9359 75.3271 26.8377 75.1653 26.7707C75.0035 26.7038 74.8301 26.6693 74.6549 26.6694V26.6694ZM55.9883 41.3361C55.6347 41.3359 55.2957 41.1953 55.0457 40.9453C54.7957 40.6953 54.6552 40.3563 54.6549 40.0028V37.3361C54.6552 36.9826 54.7957 36.6436 55.0457 36.3936C55.2957 36.1436 55.6347 36.003 55.9883 36.0028H57.3216V41.3361H55.9883ZM59.1094 50.6694H56.6771L59.5339 44.0028H61.9661L59.1094 50.6694ZM73.3216 44.6985C70.6926 42.5327 67.3945 41.3445 63.9883 41.336H59.9883V36.0027H63.9883C67.3946 35.994 70.6927 34.8056 73.3216 32.6396V44.6985Z" fill="white"/>
<circle cx="12" cy="76" r="12" fill="#00E26C"/>
<circle cx="40" cy="96" r="8" fill="#00E26C"/>
</svg>
