<svg width="171" height="134" viewBox="0 0 171 134" fill="none" xmlns="http://www.w3.org/2000/svg">
<path d="M30.6081 128.868C29.7973 130.766 27.5676 132.731 23.2432 133.544C12.7703 135.441 0 131.646 0 117.959C0 104.272 8.37838 96.0732 8.37838 96.0732L13.6486 102.172C13.6486 102.172 10.7432 104.95 8.78378 109.015C7.36486 111.861 6.41892 115.384 7.16216 118.976C9.05405 127.784 20.5405 125.684 26.4189 124.193C29.8649 123.38 31.7568 126.09 30.6081 128.868Z" fill="#0038FF"/>
<path opacity="0.14" d="M30.6081 128.868C29.7973 130.766 27.5676 132.731 23.2432 133.544C12.7703 135.441 0 131.646 0 117.959C0 104.272 8.37838 96.0732 8.37838 96.0732L13.6486 102.172C13.6486 102.172 10.7432 104.95 8.78378 109.015C8.37838 108.541 7.83784 107.999 7.16216 107.457C3.24324 103.798 1.48649 113.555 4.72973 124.396C7.22973 132.866 21.0135 132.324 30.6081 128.868Z" fill="#821500"/>
<path d="M94.7296 96.0735C89.2566 99.2581 75.6755 102.578 66.4188 104.272C64.5269 104.611 61.6215 104.95 58.108 105.289C44.0539 106.644 20.135 107.863 13.5809 107.186C5.40525 106.373 0.607948 84.148 26.7566 73.7809C28.7161 72.9678 30.8106 72.2902 32.8377 71.6804C46.8242 67.4794 62.4323 66.5308 73.7161 66.5985C82.9728 66.5985 89.2566 67.2761 89.2566 67.2761C91.0134 67.2761 92.5674 69.2411 93.8512 72.087C97.3647 79.6759 98.6485 93.7697 94.7296 96.0735Z" fill="#0038FF"/>
<path opacity="0.59" d="M73.7837 66.598C73.7837 68.9696 73.3107 71.2734 72.5674 73.3061C71.6891 75.5421 69.9323 77.8459 67.5674 77.8459C66.2837 77.8459 65.135 77.2361 63.9188 76.8296C60.8782 75.8132 57.5674 76.2197 54.3242 76.4908C49.5945 76.8973 44.662 76.9651 40.135 75.5421C37.4999 74.729 34.9999 73.4416 32.9053 71.6122C46.8918 67.4789 62.4999 66.5303 73.7837 66.598Z" fill="#00114F"/>
<path opacity="0.14" d="M93.9863 72.0866C82.7025 71.6123 72.4323 71.4767 66.4188 72.1543C46.6215 74.2548 61.2836 90.7879 52.162 96.1408C47.0269 99.1222 53.6485 100.952 58.1079 105.356C44.0539 106.711 20.135 107.931 13.5809 107.253C5.40525 106.44 0.607949 84.2153 26.7566 73.8483C28.7161 73.0352 30.8106 72.3576 32.8377 71.7478C46.8242 67.5468 62.4323 66.5981 73.716 66.6659C82.9728 66.6659 89.2566 67.3435 89.2566 67.3435C91.0809 67.2757 92.635 69.2407 93.9863 72.0866Z" fill="#821500"/>
<path d="M45.4054 109.625C36.1486 112.403 16.7567 113.216 12.4324 109.76C6.68915 105.22 2.56753 94.5823 11.7567 84.2152C16.0135 79.4044 25.2702 76.3552 33.5811 76.0842C41.8243 75.8132 49.1892 78.1847 50 84.2152C51.6892 96.344 31.6216 98.6478 30.8783 100.613C30.0675 102.646 47.5 98.1735 50.1351 106.033C50.6756 107.389 48.7162 108.608 45.4054 109.625Z" fill="#0038FF"/>
<path opacity="0.14" d="M45.4047 109.624C36.2155 112.403 16.8236 113.148 12.4993 109.76C6.75605 105.22 2.63443 94.5821 11.8236 84.215C16.0804 79.4042 25.3371 76.355 33.6479 76.084C32.9047 76.1517 10.7425 77.7779 10.5398 96.0727C10.3371 114.3 43.9182 109.828 45.4047 109.624Z" fill="#821500"/>
<path d="M132.432 73.3741C132.027 88.2809 125.27 98.1737 109.189 100.071C101.216 101.02 95.4052 100.748 91.0809 98.7157C86.689 96.6152 83.8512 92.753 81.7566 86.3837C81.4188 85.4351 81.1485 84.4187 80.9458 83.4701C79.3242 76.762 79.8647 70.5282 80.8782 65.9884C80.8782 65.9884 80.8782 65.9884 80.8782 65.9206C81.6215 62.736 82.5674 60.4322 83.2431 59.4158C83.2431 59.4158 92.9728 56.2989 109.121 55.4858C123.446 54.7405 130.946 57.5863 132.23 68.631C132.432 70.1217 132.5 71.6801 132.432 73.3741Z" fill="white"/>
<path d="M136.014 88.4843C136.216 104.882 127.23 107.795 113.716 109.083C106.689 109.76 101.081 110.167 97.1622 110.167C93.5135 110.167 91.2838 109.896 90.473 109.083C88.8514 107.389 88.2433 102.985 93.9189 101.494C99.5946 100.003 103.108 98.5803 107.297 95.3956C111.554 92.211 112.365 88.7553 119.257 85.7739C126.216 82.7925 130.405 61.3809 130.405 61.3809C130.405 61.3809 131.892 64.2945 133.311 69.4441C134.595 74.1194 135.946 80.692 136.014 88.4843Z" fill="#0038FF"/>
<path opacity="0.14" d="M133.311 69.4443C132.027 71.0705 130.676 73.7131 129.392 77.9141C125.743 89.7719 119.595 88.5522 115.541 94.1084C112.095 98.7838 94.2568 103.662 97.1622 110.303C93.5135 110.303 91.2838 110.032 90.473 109.219C88.8514 107.525 88.2433 103.12 93.919 101.63C99.5946 100.139 103.108 98.716 107.297 95.5313C111.554 92.3467 112.365 88.891 119.257 85.9097C126.216 82.9283 130.405 61.5166 130.405 61.5166C130.405 61.5166 131.892 64.2947 133.311 69.4443Z" fill="#821500"/>
<path d="M91.7567 97.1576C91.6216 97.6319 91.4189 98.1739 91.081 98.7838C89.1216 102.239 83.7162 106.576 79.3918 107.457C76.1486 108.134 65.8108 109.286 59.1216 108.405C55.5405 107.931 53.0405 106.915 53.1756 104.95C53.581 99.2581 59.054 101.359 65.7432 97.5641C72.4324 93.7696 76.0135 88.2812 77.2972 79.2693C78.1081 73.2388 79.8648 68.4957 80.8783 66.0564C80.8783 66.0564 80.8783 66.0564 80.8783 65.9887C81.3513 64.769 81.6891 64.1592 81.6891 64.1592C80.8783 70.1219 81.2162 75.0005 82.2297 78.9983C85.0675 89.9074 92.4324 94.515 91.7567 97.1576Z" fill="#0038FF"/>
<path opacity="0.14" d="M132.297 68.6989C127.094 71.8836 119.662 75.4748 110.608 76.0846C97.1619 76.9655 86.0808 73.8486 82.2971 78.9982C81.4863 80.0823 81.0133 81.573 80.9457 83.538C80.4052 94.6504 75.0673 100.41 66.4187 104.272C62.4322 106.034 60.0673 107.05 59.189 108.338C55.6079 107.863 53.1079 106.847 53.243 104.882C53.6484 99.1902 59.1214 101.291 65.8106 97.4963C72.4998 93.7018 76.0809 88.2134 77.3646 79.2015C78.1755 73.171 79.9322 68.4279 80.9457 65.9886C80.9457 65.9886 80.9457 65.9886 80.9457 65.9208C81.689 62.7362 82.6349 60.4324 83.3106 59.416C83.3106 59.416 93.0403 56.2991 109.189 55.486C123.513 54.8084 131.013 57.6543 132.297 68.6989Z" fill="#821500"/>
<path d="M112.162 20.3868C112.162 20.3868 114.392 20.4545 117.568 21.2676C123.243 22.7583 132.162 26.5528 137.568 36.581C138.446 38.2072 139.257 40.0367 139.865 42.0017C139.865 42.0017 138.108 16.118 131.824 4.87008C125.54 -6.31007 118.243 2.97284 112.162 20.3868Z" fill="#0038FF"/>
<path opacity="0.59" d="M117.567 21.2677C123.243 22.7584 132.162 26.5529 137.567 36.5811C136.621 22.2841 132.5 5.27672 127.432 2.90517C123.04 0.872421 118.986 15.7115 117.567 21.2677Z" fill="#00114F"/>
<path opacity="0.45" d="M120.135 27.9759C120.135 27.9759 122.23 10.2232 127.568 10.9008C132.906 11.5783 131.892 34.955 131.892 34.955L120.135 27.9759Z" fill="#00114F"/>
<path d="M97.1622 20.3868C97.1622 20.3868 94.9324 20.4545 91.7568 21.2676C86.0811 22.7583 77.1622 26.5528 71.7568 36.581C70.8784 38.2072 70.0676 40.0367 69.4595 42.0017C69.4595 42.0017 71.2162 16.118 77.5 4.87008C83.8514 -6.31007 91.0811 2.97284 97.1622 20.3868Z" fill="#0038FF"/>
<path opacity="0.59" d="M91.7568 21.2677C86.0812 22.7584 77.1622 26.5529 71.7568 36.5811C72.7028 22.2841 76.8244 5.27672 81.892 2.90517C86.2839 0.872421 90.3379 15.7115 91.7568 21.2677Z" fill="#00114F"/>
<path opacity="0.45" d="M74.0542 36.7844C74.0542 36.7844 77.4326 13.069 81.4191 10.9007C85.4055 8.73242 89.392 25.6721 89.392 25.6721L74.0542 36.7844Z" fill="#00114F"/>
<path d="M139.662 48.1681C138.716 55.6215 135.067 60.5001 131.892 63.6848C131.081 64.4979 130.27 65.2432 129.527 65.853C121.554 72.6966 94.5269 74.5261 82.162 68.2924C82.162 68.2924 71.2836 63.4137 69.5944 47.7615V47.6938C68.1079 33.1935 78.5809 20.7259 97.8377 18.2866C99.2566 18.0833 100.676 17.9478 102.162 17.9478C102.5 17.9478 102.635 17.9478 102.635 17.9478C105.946 17.8123 109.054 17.9478 111.959 18.3543C128.716 20.4549 138.784 30.2121 139.73 41.731C140 44.0348 139.932 46.2031 139.662 48.1681Z" fill="white"/>
<path d="M100 40.4441C97.6353 53.7926 79.2569 56.7739 69.6623 47.6943C68.1758 33.194 78.6488 20.7264 97.838 18.2871C99.392 22.2171 101.757 30.2804 100 40.4441Z" fill="#0038FF"/>
<path d="M139.662 48.1681C129.865 56.6379 112.162 53.521 109.865 40.4436C108.108 30.2799 110.473 22.2166 112.027 18.2866C128.784 20.3871 138.851 30.1444 139.797 41.5956C140 44.0349 139.933 46.2031 139.662 48.1681Z" fill="#0038FF"/>
<path d="M86.9593 52.9113C86.9593 52.9113 64.8647 45.119 42.5674 47.2873" stroke="#00114F" stroke-width="1.396" stroke-miterlimit="10" stroke-linecap="round" stroke-linejoin="round"/>
<path d="M80.9457 55.554C80.9457 55.554 58.716 54.8765 42.5674 59.484" stroke="#00114F" stroke-width="1.396" stroke-miterlimit="10" stroke-linecap="round" stroke-linejoin="round"/>
<path d="M125.608 52.9113C125.608 52.9113 147.703 45.119 170 47.2873" stroke="#00114F" stroke-width="1.396" stroke-miterlimit="10" stroke-linecap="round" stroke-linejoin="round"/>
<path d="M131.622 55.554C131.622 55.554 153.851 54.8765 170 59.4841" stroke="#00114F" stroke-width="1.396" stroke-miterlimit="10" stroke-linecap="round" stroke-linejoin="round"/>
<path d="M100.743 44.9834C100.743 44.9834 100.811 47.2872 103.04 47.2872C105.203 47.2872 105 44.9834 105 44.9834C105 44.9834 105.067 47.2872 107.297 47.2872C109.459 47.2872 109.257 44.9834 109.257 44.9834" stroke="black" stroke-width="1.3519" stroke-miterlimit="10" stroke-linecap="round" stroke-linejoin="round"/>
<path d="M104.932 44.9837V39.9019" stroke="black" stroke-width="1.3519" stroke-miterlimit="10" stroke-linecap="round" stroke-linejoin="round"/>
<path d="M102.838 50.6753C102.838 50.6753 104.459 52.5725 107.297 50.6753" stroke="black" stroke-width="1.3519" stroke-miterlimit="10" stroke-linecap="round" stroke-linejoin="round"/>
<path d="M101.622 37.4624C101.622 34.6166 108.243 34.2778 108.243 37.4624C108.243 40.6471 101.622 40.8504 101.622 37.4624Z" fill="#00114F"/>
<path d="M88.7162 31.093C100.608 31.1607 100.743 49.7943 88.7162 49.7943C76.7568 49.7943 76.0135 31.0252 88.7162 31.093Z" fill="white"/>
<path d="M121.419 31.093C133.311 31.1607 133.446 49.7943 121.419 49.7943C109.459 49.7943 108.716 31.0252 121.419 31.093Z" fill="white"/>
<path d="M90.5406 35.9038C97.7703 35.9716 97.8379 47.2872 90.5406 47.2872C83.2433 47.2872 82.8379 35.9038 90.5406 35.9038Z" fill="#44281D"/>
<path d="M119.324 35.9038C126.554 35.9716 126.622 47.2872 119.324 47.2872C112.027 47.2872 111.622 35.9038 119.324 35.9038Z" fill="#44281D"/>
<path opacity="0.14" d="M131.824 63.6847C131.014 64.4978 130.203 65.2432 129.459 65.853C121.486 72.6966 94.4595 74.5261 82.0946 68.2923C82.0946 68.2923 71.2162 63.4137 69.527 47.7615V47.6937C68.0406 33.1934 78.5135 20.7259 97.7703 18.2865C99.1892 18.0833 100.608 17.9478 102.095 17.9478C98.3784 18.151 74.3243 20.3871 73.9865 43.5605C73.6487 68.5634 107.365 75.3392 131.824 63.6847Z" fill="#9E1E00"/>
</svg>
