<svg width="32" height="32" viewBox="0 0 32 32" fill="none" xmlns="http://www.w3.org/2000/svg">
<path d="M16 13.334C15.4726 13.334 14.957 13.4904 14.5185 13.7834C14.08 14.0764 13.7382 14.4929 13.5363 14.9802C13.3345 15.4674 13.2817 16.0036 13.3846 16.5209C13.4875 17.0382 13.7414 17.5133 14.1144 17.8863C14.4873 18.2592 14.9625 18.5132 15.4798 18.6161C15.997 18.719 16.5332 18.6662 17.0205 18.4643C17.5078 18.2625 17.9242 17.9207 18.2173 17.4822C18.5103 17.0436 18.6667 16.5281 18.6667 16.0007C18.6667 15.2934 18.3857 14.6151 17.8856 14.115C17.3855 13.6149 16.7072 13.334 16 13.334ZM6.66667 13.334C6.13925 13.334 5.62368 13.4904 5.18515 13.7834C4.74662 14.0764 4.40482 14.4929 4.20299 14.9802C4.00116 15.4674 3.94835 16.0036 4.05124 16.5209C4.15413 17.0382 4.40811 17.5133 4.78105 17.8863C5.15399 18.2592 5.62914 18.5132 6.14643 18.6161C6.66371 18.719 7.19989 18.6662 7.68716 18.4643C8.17443 18.2625 8.5909 17.9207 8.88392 17.4822C9.17694 17.0436 9.33333 16.5281 9.33333 16.0007C9.33333 15.2934 9.05238 14.6151 8.55229 14.115C8.05219 13.6149 7.37391 13.334 6.66667 13.334ZM25.3333 13.334C24.8059 13.334 24.2903 13.4904 23.8518 13.7834C23.4133 14.0764 23.0715 14.4929 22.8697 14.9802C22.6678 15.4674 22.615 16.0036 22.7179 16.5209C22.8208 17.0382 23.0748 17.5133 23.4477 17.8863C23.8207 18.2592 24.2958 18.5132 24.8131 18.6161C25.3304 18.719 25.8666 18.6662 26.3538 18.4643C26.8411 18.2625 27.2576 17.9207 27.5506 17.4822C27.8436 17.0436 28 16.5281 28 16.0007C28 15.2934 27.719 14.6151 27.219 14.115C26.7189 13.6149 26.0406 13.334 25.3333 13.334Z" fill="#0038FF"/>
</svg>
