<svg width="32" height="32" viewBox="0 0 32 32" fill="none" xmlns="http://www.w3.org/2000/svg">
<path d="M16.0002 9.33333C16.5276 9.33333 17.0432 9.17694 17.4817 8.88392C17.9202 8.5909 18.262 8.17443 18.4638 7.68716C18.6657 7.19989 18.7185 6.66371 18.6156 6.14643C18.5127 5.62914 18.2587 5.15399 17.8858 4.78105C17.5128 4.40811 17.0377 4.15413 16.5204 4.05124C16.0031 3.94835 15.4669 4.00116 14.9797 4.20299C14.4924 4.40482 14.0759 4.74662 13.7829 5.18515C13.4899 5.62368 13.3335 6.13925 13.3335 6.66667C13.3335 7.37391 13.6144 8.05219 14.1145 8.55229C14.6146 9.05238 15.2929 9.33333 16.0002 9.33333ZM16.0002 22.6667C15.4727 22.6667 14.9572 22.8231 14.5186 23.1161C14.0801 23.4091 13.7383 23.8256 13.5365 24.3128C13.3347 24.8001 13.2818 25.3363 13.3847 25.8536C13.4876 26.3709 13.7416 26.846 14.1145 27.2189C14.4875 27.5919 14.9626 27.8459 15.4799 27.9488C15.9972 28.0517 16.5334 27.9988 17.0207 27.797C17.5079 27.5952 17.9244 27.2534 18.2174 26.8149C18.5104 26.3763 18.6668 25.8607 18.6668 25.3333C18.6668 24.6261 18.3859 23.9478 17.8858 23.4477C17.3857 22.9476 16.7074 22.6667 16.0002 22.6667ZM16.0002 13.3333C15.4727 13.3333 14.9572 13.4897 14.5186 13.7827C14.0801 14.0758 13.7383 14.4922 13.5365 14.9795C13.3347 15.4668 13.2818 16.003 13.3847 16.5202C13.4876 17.0375 13.7416 17.5127 14.1145 17.8856C14.4875 18.2586 14.9626 18.5125 15.4799 18.6154C15.9972 18.7183 16.5334 18.6655 17.0207 18.4637C17.5079 18.2618 17.9244 17.9201 18.2174 17.4815C18.5104 17.043 18.6668 16.5274 18.6668 16C18.6668 15.2928 18.3859 14.6145 17.8858 14.1144C17.3857 13.6143 16.7074 13.3333 16.0002 13.3333Z" fill="#0038FF"/>
</svg>
