<svg width="8" height="14" viewBox="0 0 8 14" fill="none" xmlns="http://www.w3.org/2000/svg">
<path d="M0.459774 6.29004L6.11977 0.640037C6.21274 0.546308 6.32334 0.471914 6.4452 0.421145C6.56706 0.370377 6.69776 0.344238 6.82977 0.344238C6.96179 0.344238 7.09249 0.370377 7.21435 0.421145C7.33621 0.471914 7.44681 0.546308 7.53977 0.640037C7.72602 0.827399 7.83057 1.08085 7.83057 1.34504C7.83057 1.60922 7.72602 1.86267 7.53977 2.05004L2.58977 7.05004L7.53977 12C7.72602 12.1874 7.83057 12.4409 7.83057 12.705C7.83057 12.9692 7.72602 13.2227 7.53977 13.41C7.44716 13.5045 7.33671 13.5797 7.21484 13.6312C7.09296 13.6827 6.96208 13.7095 6.82977 13.71C6.69747 13.7095 6.56658 13.6827 6.44471 13.6312C6.32283 13.5797 6.21239 13.5045 6.11977 13.41L0.459774 7.76004C0.358269 7.66639 0.277261 7.55274 0.221853 7.42624C0.166446 7.29974 0.137841 7.16314 0.137841 7.02504C0.137841 6.88693 0.166446 6.75033 0.221853 6.62383C0.277261 6.49733 0.358269 6.38368 0.459774 6.29004Z" fill="#0038FF"/>
</svg>
