<svg width="222" height="154" viewBox="0 0 222 154" fill="none" xmlns="http://www.w3.org/2000/svg">
<path opacity="0.7" fill-rule="evenodd" clip-rule="evenodd" d="M13.8335 153.147C13.8335 153.147 23.4346 147.079 33.9988 130.062C44.5556 113.045 68.1288 101.101 107.274 110.641C107.274 110.641 119.92 100.508 138.596 101.272C157.273 102.036 156.317 110.003 165.214 116.101C174.119 122.199 183.654 118.608 193.899 135.878C204.152 153.147 219.917 153.147 219.917 153.147L13.8557 153.162L13.8335 153.147Z" fill="#F7F8FF"/>
<path d="M69.4034 105.3L146.19 124.832L172.638 20.5771L95.8509 1.04508C92.695 0.243923 89.4798 2.15039 88.6797 5.31793L65.1362 98.1189C64.3435 101.279 66.2474 104.498 69.4034 105.3Z" fill="#C4C0BF"/>
<path opacity="0.8" d="M68.554 101.694L145.956 121.382L169.59 28.2187L92.1884 8.53069L68.554 101.694Z" fill="#C4C0BF"/>
<path d="M79.9526 13.5302L97.614 18.0256L99.3846 11.0525L81.7158 6.55713L83.4123 10.7335L79.9526 13.5302Z" fill="#EC6256"/>
<path d="M71.4803 99.9511L148.882 119.639L172.516 26.4755L95.1147 6.78752L71.4803 99.9511Z" fill="white"/>
<path d="M148.954 119.75L71.374 100.018L71.3962 99.9287L95.0509 6.67529L95.1398 6.69755L172.63 26.4075L172.608 26.4966L148.954 119.75ZM71.5963 99.8842L148.82 119.527L172.408 26.5411L95.1842 6.89784L71.5963 99.8842Z" fill="#5473B3"/>
<path d="M161.843 23.7598L138.211 116.924L161.843 23.7598Z" fill="#EC6256"/>
<path d="M161.748 23.7266L138.133 116.9L138.312 116.946L161.928 23.7723L161.748 23.7266Z" fill="#EC6256"/>
<path d="M165.943 37.308C166.153 36.3264 165.528 35.3605 164.548 35.1507C163.568 34.9408 162.603 35.5663 162.394 36.5479C162.184 37.5295 162.809 38.4953 163.789 38.7052C164.769 38.9151 165.734 38.2895 165.943 37.308Z" fill="#999695"/>
<path d="M163.004 48.8968C163.213 47.9153 162.588 46.9494 161.608 46.7395C160.628 46.5296 159.663 47.1552 159.454 48.1368C159.244 49.1183 159.869 50.0842 160.849 50.2941C161.829 50.504 162.794 49.8784 163.004 48.8968Z" fill="#999695"/>
<path d="M158.529 61.9055C159.522 61.7692 160.217 60.8526 160.081 59.8582C159.944 58.8638 159.029 58.1682 158.036 58.3045C157.043 58.4408 156.348 59.3574 156.484 60.3518C156.62 61.3462 157.536 62.0418 158.529 61.9055Z" fill="#999695"/>
<path d="M157.052 72.3378C157.408 71.3998 156.938 70.3497 156.002 69.9924C155.065 69.6351 154.016 70.1058 153.659 71.0438C153.302 71.9818 153.773 73.0319 154.709 73.3892C155.646 73.7465 156.695 73.2758 157.052 72.3378Z" fill="#999695"/>
<path d="M152.861 85.0431C153.831 84.791 154.414 83.799 154.162 82.8275C153.91 81.8559 152.919 81.2728 151.949 81.5249C150.979 81.777 150.397 82.769 150.648 83.7405C150.9 84.7121 151.891 85.2952 152.861 85.0431Z" fill="#999695"/>
<path d="M150.401 96.4221C151.262 95.9089 151.545 94.7936 151.033 93.9309C150.52 93.0683 149.406 92.7851 148.545 93.2983C147.683 93.8115 147.4 94.9268 147.913 95.7895C148.425 96.6521 149.539 96.9353 150.401 96.4221Z" fill="#999695"/>
<path d="M147.391 108.052C148.272 107.573 148.6 106.47 148.122 105.588C147.645 104.705 146.543 104.378 145.662 104.856C144.78 105.334 144.453 106.437 144.931 107.32C145.408 108.202 146.51 108.53 147.391 108.052Z" fill="#999695"/>
<path d="M168.296 44.4339C168.193 44.4339 168.089 44.4265 167.978 44.4191C167.926 44.4116 167.889 44.3671 167.896 44.3152C167.904 44.2633 167.948 44.2262 168 44.2336C168.57 44.2855 169.096 44.1891 169.563 43.9591C170.341 43.5734 170.867 42.8464 170.993 41.9785C171.126 41.0809 170.815 40.1611 170.148 39.5305C167.859 37.3422 162.451 36.5781 162.399 36.5707C162.347 36.5633 162.31 36.5188 162.318 36.4668C162.325 36.4149 162.37 36.3778 162.422 36.3852C162.473 36.3926 167.941 37.1641 170.274 39.397C170.978 40.072 171.319 41.0438 171.171 42.0082C171.03 42.9429 170.474 43.7143 169.637 44.1298C169.23 44.3301 168.778 44.4339 168.296 44.4339Z" fill="#1B1A1F"/>
<path d="M165.326 56.1546C165.222 56.1546 165.119 56.1472 165.007 56.1398C164.956 56.1324 164.919 56.0879 164.926 56.0359C164.933 55.984 164.978 55.9469 165.03 55.9543C165.6 56.0063 166.126 55.9098 166.593 55.6799C167.371 55.2941 167.897 54.5671 168.023 53.6992C168.156 52.8016 167.845 51.8818 167.185 51.2512C164.889 49.0629 159.488 48.2988 159.436 48.2914C159.385 48.284 159.348 48.2395 159.355 48.1875C159.362 48.1356 159.407 48.0985 159.459 48.1059C159.511 48.1133 164.978 48.8848 167.311 51.1177C168.015 51.7927 168.349 52.7645 168.208 53.7289C168.067 54.6636 167.511 55.4351 166.674 55.8505C166.259 56.0508 165.808 56.1546 165.326 56.1546Z" fill="#1B1A1F"/>
<path d="M162.385 67.7264C162.281 67.7264 162.177 67.719 162.066 67.7116C162.014 67.7041 161.977 67.6596 161.985 67.6077C161.992 67.5558 162.037 67.5187 162.088 67.5261C162.659 67.578 163.185 67.4816 163.652 67.2516C164.429 66.8659 164.955 66.1389 165.081 65.271C165.215 64.3734 164.904 63.4535 164.237 62.823C161.948 60.6346 156.54 59.8706 156.488 59.8632C156.436 59.8557 156.399 59.8112 156.406 59.7593C156.414 59.7074 156.458 59.6703 156.51 59.6777C156.562 59.6851 162.029 60.4566 164.363 62.6895C165.067 63.3645 165.407 64.3363 165.259 65.3007C165.118 66.2353 164.563 67.0068 163.726 67.4222C163.318 67.63 162.866 67.7264 162.385 67.7264Z" fill="#1B1A1F"/>
<path d="M159.451 79.3069C159.347 79.3069 159.244 79.2995 159.133 79.2921C159.081 79.2847 159.044 79.2402 159.051 79.1882C159.058 79.1363 159.103 79.0992 159.155 79.1066C159.725 79.1586 160.251 79.0621 160.718 78.8322C161.496 78.4464 162.022 77.7195 162.148 76.8515C162.281 75.9539 161.97 75.0341 161.303 74.4036C159.007 72.2152 153.606 71.4511 153.554 71.4437C153.502 71.4363 153.465 71.3918 153.473 71.3399C153.48 71.2879 153.524 71.2509 153.576 71.2583C153.628 71.2657 159.095 72.0372 161.429 74.27C162.133 74.9451 162.474 75.9168 162.326 76.8812C162.185 77.8159 161.629 78.5874 160.792 79.0028C160.385 79.2031 159.933 79.3069 159.451 79.3069Z" fill="#1B1A1F"/>
<path d="M156.51 90.8787C156.406 90.8787 156.302 90.8713 156.191 90.8639C156.139 90.8564 156.102 90.8119 156.11 90.76C156.117 90.7081 156.162 90.671 156.213 90.6784C156.784 90.7303 157.31 90.6339 157.777 90.4039C158.554 90.0182 159.08 89.2912 159.206 88.4233C159.34 87.5257 159.029 86.6059 158.362 85.9753C156.073 83.787 150.665 83.0229 150.613 83.0155C150.561 83.0081 150.524 82.9636 150.531 82.9116C150.539 82.8597 150.583 82.8226 150.635 82.83C150.687 82.8375 156.154 83.6089 158.488 85.8418C159.192 86.5169 159.532 87.4886 159.384 88.453C159.243 89.3877 158.688 90.1592 157.851 90.5746C157.451 90.7823 156.999 90.8787 156.51 90.8787Z" fill="#1B1A1F"/>
<path d="M153.576 102.459C153.472 102.459 153.369 102.451 153.258 102.444C153.206 102.437 153.169 102.392 153.176 102.34C153.183 102.288 153.228 102.251 153.28 102.258C153.85 102.31 154.376 102.214 154.843 101.984C155.621 101.598 156.147 100.871 156.273 100.003C156.406 99.1058 156.095 98.1859 155.428 97.5554C153.139 95.3671 147.731 94.603 147.679 94.5956C147.627 94.5882 147.59 94.5436 147.598 94.4917C147.605 94.4398 147.649 94.4027 147.701 94.4101C147.753 94.4175 153.221 95.189 155.554 97.4219C156.258 98.0969 156.599 99.0687 156.451 100.033C156.31 100.968 155.754 101.739 154.917 102.155C154.51 102.355 154.058 102.459 153.576 102.459Z" fill="#1B1A1F"/>
<path d="M150.643 114.031C150.539 114.031 150.435 114.023 150.324 114.016C150.272 114.008 150.235 113.964 150.242 113.912C150.25 113.86 150.294 113.823 150.346 113.83C150.917 113.882 151.443 113.786 151.909 113.556C152.687 113.17 153.213 112.443 153.339 111.575C153.472 110.678 153.161 109.758 152.495 109.127C150.205 106.939 144.797 106.175 144.746 106.167C144.694 106.16 144.657 106.115 144.664 106.063C144.671 106.012 144.716 105.974 144.768 105.982C144.82 105.989 150.287 106.761 152.621 108.994C153.324 109.669 153.665 110.64 153.517 111.605C153.376 112.54 152.821 113.311 151.983 113.726C151.576 113.927 151.124 114.031 150.643 114.031Z" fill="#1B1A1F"/>
<path d="M150.85 33.6408C150.843 33.6408 150.835 33.6408 150.828 33.6408L98.9846 20.4514C98.9327 20.4366 98.9031 20.3846 98.9179 20.3401C98.9327 20.2882 98.9846 20.2585 99.029 20.2734L150.872 33.4554C150.924 33.4702 150.954 33.5221 150.939 33.5667C150.931 33.6112 150.894 33.6408 150.85 33.6408Z" fill="#1B1A1F"/>
<path d="M148.642 42.3278C148.635 42.3278 148.627 42.3278 148.62 42.3278L96.7765 29.1457C96.7247 29.1309 96.6951 29.079 96.7099 29.0345C96.7247 28.9825 96.7765 28.9528 96.821 28.9677L148.664 42.1497C148.716 42.1646 148.746 42.2165 148.731 42.261C148.723 42.2981 148.686 42.3278 148.642 42.3278Z" fill="#1B1A1F"/>
<path d="M146.442 51.0211C146.435 51.0211 146.427 51.0211 146.42 51.0211L94.5768 37.8391C94.525 37.8242 94.4953 37.7797 94.5102 37.7278C94.525 37.6759 94.5768 37.6462 94.6213 37.661L146.464 50.8431C146.516 50.8579 146.546 50.9099 146.531 50.9544C146.516 50.9915 146.479 51.0211 146.442 51.0211Z" fill="#1B1A1F"/>
<path d="M144.234 59.7081C144.227 59.7081 144.219 59.7081 144.212 59.7081L92.3688 46.5261C92.317 46.5113 92.2873 46.4593 92.3022 46.4148C92.317 46.3629 92.3688 46.3332 92.4133 46.3481L144.256 59.5301C144.308 59.5449 144.338 59.5969 144.323 59.6414C144.316 59.6785 144.279 59.7081 144.234 59.7081Z" fill="#1B1A1F"/>
<path d="M142.034 68.402C142.027 68.402 142.019 68.402 142.012 68.402L90.1686 55.2199C90.1168 55.2051 90.0871 55.1532 90.102 55.1087C90.1168 55.0567 90.1686 55.0271 90.2131 55.0419L142.056 68.2239C142.108 68.2388 142.138 68.2907 142.123 68.3352C142.108 68.3723 142.071 68.402 142.034 68.402Z" fill="#1B1A1F"/>
<path d="M139.826 77.0885C139.819 77.0885 139.812 77.0885 139.804 77.0885L87.9611 63.9065C87.9093 63.8916 87.8796 63.8397 87.8944 63.7952C87.9093 63.7433 87.9611 63.7136 88.0056 63.7284L139.849 76.9105C139.901 76.9253 139.93 76.9772 139.915 77.0217C139.908 77.0588 139.871 77.0885 139.826 77.0885Z" fill="#1B1A1F"/>
<path d="M137.618 85.7833C137.611 85.7833 137.604 85.7833 137.596 85.7833L85.7531 72.6013C85.7012 72.5865 85.6716 72.5345 85.6864 72.49C85.7012 72.4381 85.7531 72.4084 85.7976 72.4233L137.641 85.6053C137.693 85.6201 137.722 85.672 137.707 85.7166C137.7 85.7536 137.663 85.7833 137.618 85.7833Z" fill="#1B1A1F"/>
<path d="M135.418 94.4694C135.411 94.4694 135.403 94.4694 135.396 94.4694L83.5529 81.28C83.5011 81.2652 83.4714 81.2132 83.4862 81.1687C83.5011 81.1168 83.5529 81.0871 83.5974 81.102L135.44 94.284C135.492 94.2988 135.522 94.3507 135.507 94.3952C135.5 94.4472 135.463 94.4694 135.418 94.4694Z" fill="#1B1A1F"/>
<path d="M133.211 103.164C133.203 103.164 133.196 103.164 133.189 103.164L81.3454 89.9743C81.2935 89.9595 81.2639 89.9076 81.2787 89.8631C81.2935 89.8111 81.3454 89.7815 81.3898 89.7963L133.233 102.978C133.285 102.993 133.315 103.045 133.3 103.09C133.292 103.134 133.255 103.164 133.211 103.164Z" fill="#1B1A1F"/>
<path fill-rule="evenodd" clip-rule="evenodd" d="M28.8132 153.089C28.8132 153.089 26.0869 149.253 26.6722 145.003C26.7315 144.572 27.2056 144.335 27.5834 144.55C28.6724 145.166 30.6578 146.791 31.8284 150.715C31.8284 150.715 31.4579 140.811 33.4582 140.033C35.451 139.254 36.3622 147.762 36.2363 150.455C36.2363 150.455 36.7549 144.662 39.6293 141.65C40.1034 141.153 40.9479 141.427 41.0517 142.11C41.4295 144.587 41.8962 149.75 39.8812 153.096H28.8132V153.089Z" fill="#00E26C"/>
<path d="M31.169 153.236C31.1319 153.236 31.1023 153.214 31.0875 153.184L26.9018 144.579C26.8796 144.535 26.9018 144.475 26.9462 144.453C26.9907 144.431 27.05 144.453 27.0722 144.498L31.2579 153.103C31.2801 153.147 31.2579 153.206 31.2134 153.229C31.1912 153.236 31.1764 153.236 31.169 153.236Z" fill="#1B1A1F"/>
<path d="M34.5178 153.236C34.4734 153.236 34.4289 153.199 34.4289 153.154L33.3621 140.039C33.3547 139.987 33.3992 139.943 33.4436 139.943C33.4955 139.935 33.5399 139.98 33.5399 140.024L34.6067 153.14C34.6141 153.191 34.5697 153.236 34.5252 153.236C34.5252 153.236 34.5252 153.236 34.5178 153.236Z" fill="#1B1A1F"/>
<path d="M38.2219 153.184C38.2145 153.184 38.2071 153.184 38.1997 153.184C38.1479 153.177 38.1182 153.125 38.1256 153.073L40.5037 141.471C40.5111 141.419 40.563 141.389 40.6148 141.397C40.6667 141.404 40.6963 141.456 40.6889 141.508L38.3108 153.11C38.3034 153.147 38.2664 153.184 38.2219 153.184Z" fill="#1B1A1F"/>
<path d="M177.379 152.91C177.379 152.91 173.497 146.908 177.379 142.546C181.261 138.185 174.727 134.09 179.898 128.904C185.069 123.719 181.846 121.776 183.869 117.325C185.891 112.874 189.314 112.941 189.751 108.408C190.188 103.876 194.885 102.807 195.337 106.902C195.789 110.997 193.774 113.771 195.337 117.258C197.337 121.724 191.41 123.267 192.314 127.087C192.336 127.191 192.366 127.295 192.388 127.391C193.351 131.345 194.929 132.792 193.151 136.449C192.233 138.34 188.943 139.646 190.425 144.757C191.929 149.935 189.61 150.996 186.521 152.91H177.379Z" fill="#00E26C"/>
<path d="M181.987 152.909C181.942 152.909 181.905 152.879 181.898 152.842C181.883 152.798 181.602 151.7 181.735 149.994C181.861 148.421 182.387 146.032 184.18 143.54C186.232 140.699 185.691 137.835 185.209 135.313C184.891 133.614 184.609 132.146 185.165 130.959C185.387 130.477 185.632 129.987 185.891 129.468C187.18 126.857 188.647 123.889 188.521 120.907C188.395 118.007 189.803 115.447 191.166 112.97C192.884 109.839 194.507 106.879 193.159 103.386C193.144 103.341 193.166 103.282 193.21 103.267C193.255 103.245 193.314 103.274 193.329 103.319C194.707 106.894 193.062 109.884 191.321 113.059C189.973 115.514 188.58 118.051 188.706 120.9C188.832 123.934 187.358 126.916 186.061 129.549C185.802 130.069 185.565 130.558 185.343 131.033C184.809 132.168 185.084 133.607 185.402 135.276C185.884 137.835 186.439 140.743 184.335 143.651C180.95 148.339 182.068 152.753 182.083 152.798C182.098 152.85 182.068 152.902 182.016 152.909C182.002 152.909 181.994 152.909 181.987 152.909Z" fill="#1B1A1F"/>
<path d="M184.802 153.228C184.758 153.228 184.721 153.198 184.713 153.154C184.713 153.132 184.409 151.255 184.728 148.925C185.017 146.767 185.899 143.777 188.469 141.745C191.529 139.334 191.107 136.641 190.729 134.267C190.507 132.873 190.299 131.56 190.87 130.514C192.21 128.051 193.477 127.049 194.603 126.174C195.603 125.388 196.47 124.713 197.041 123.14C197.707 121.315 198.989 120.514 199.841 120.788C200.56 121.018 201.108 122.064 200.485 124.29C199.589 127.48 199.678 128.333 199.819 129.75C199.871 130.284 199.93 130.892 199.959 131.723C200.026 133.993 198.87 136.055 197.759 138.043C196.589 140.128 195.492 142.093 195.944 144.074C196.492 146.455 196.063 148.606 194.7 150.298C193.655 151.589 192.047 152.605 190.381 153.005C190.373 153.005 190.366 153.005 190.366 153.005L184.802 153.228ZM199.485 120.915C198.737 120.915 197.767 121.693 197.211 123.199C196.618 124.824 195.737 125.514 194.714 126.315C193.603 127.183 192.351 128.17 191.032 130.595C190.492 131.589 190.699 132.873 190.914 134.23C191.299 136.656 191.729 139.401 188.58 141.878C186.062 143.866 185.187 146.811 184.906 148.933C184.632 150.965 184.832 152.649 184.884 153.035L190.351 152.813C192.788 152.219 197.041 149.645 195.766 144.104C195.3 142.056 196.418 140.061 197.604 137.939C198.707 135.973 199.848 133.941 199.782 131.715C199.759 130.885 199.7 130.284 199.648 129.757C199.508 128.318 199.419 127.45 200.322 124.23C200.908 122.131 200.441 121.167 199.804 120.959C199.693 120.929 199.589 120.915 199.485 120.915Z" fill="#1B1A1F"/>
<path d="M187.521 152.909C187.469 152.909 187.425 152.864 187.425 152.812C187.425 152.768 187.425 152.679 187.417 152.568C187.388 151.989 187.314 150.631 187.773 149.111C188.343 147.212 189.521 145.721 191.284 144.675C193.944 143.095 193.862 139.794 193.796 136.878C193.751 134.861 193.707 132.954 194.522 131.76C196.418 128.993 199.404 123.6 199.774 120.811C199.782 120.759 199.826 120.722 199.878 120.729C199.93 120.736 199.967 120.781 199.959 120.833C199.589 123.652 196.589 129.082 194.677 131.864C193.892 133.006 193.937 134.883 193.981 136.871C194.048 139.838 194.129 143.198 191.381 144.83C188.691 146.433 187.417 149.029 187.602 152.553C187.61 152.671 187.61 152.76 187.61 152.812C187.617 152.872 187.573 152.909 187.521 152.909Z" fill="#1B1A1F"/>
<path d="M66.6365 49.3869L66.6416 49.5206L66.6219 50.4553L66.6103 50.7148L66.5392 54.5353L63.1743 54.7273L60.4559 54.0863L60.5283 45.7759L61.5431 46.3678L64.317 47.997L66.0219 49.0109L66.6365 49.3869Z" fill="#FFBD9D"/>
<path d="M60.87 53.738L60.8693 53.7527L60.8379 53.7153C60.8486 53.7229 60.8593 53.7305 60.87 53.738Z" fill="#FFC9B3"/>
<path fill-rule="evenodd" clip-rule="evenodd" d="M66.6296 49.5426L66.6099 50.4773L66.6093 50.737C65.836 50.6918 64.9757 50.3628 64.2197 49.932C63.1832 49.3323 62.5075 48.5915 62.2308 48.341C61.9862 48.1134 61.9246 47.5111 61.9682 46.7847L64.6553 48.3675L66.3063 49.3432L66.6296 49.5426Z" fill="#1B1A1F"/>
<path fill-rule="evenodd" clip-rule="evenodd" d="M66.9283 39.4113C66.9283 39.4113 68.5348 40.6384 68.826 45.765C68.9145 47.251 68.9639 48.1278 67.9667 49.1244C66.9692 50.1285 65.023 49.8073 63.4382 49.0852C62.168 48.5105 61.3061 47.7213 60.9522 47.4619C59.9444 46.7143 60.8047 41.1063 60.8047 41.1063L66.9283 39.4113Z" fill="#FFBD9D"/>
<path fill-rule="evenodd" clip-rule="evenodd" d="M65.8066 44.652C65.7015 44.6561 65.6194 44.7642 65.616 44.9018C65.6125 45.0395 65.7107 45.1493 65.8158 45.1452C65.9209 45.141 66.003 45.0329 66.0064 44.8953C66.007 44.7649 65.9237 44.65 65.8066 44.652Z" fill="#1B1A1F"/>
<path fill-rule="evenodd" clip-rule="evenodd" d="M68.0776 44.2672C67.9725 44.2714 67.8904 44.3795 67.8869 44.5171C67.8835 44.6547 67.9817 44.7645 68.0868 44.7604C68.1919 44.7563 68.274 44.6482 68.2774 44.5105C68.278 44.3801 68.1827 44.2631 68.0776 44.2672Z" fill="#1B1A1F"/>
<path d="M66.1808 46.8605C66.329 46.9421 66.566 47.0757 66.8772 47.2463C66.9809 47.3056 66.9957 47.4466 66.9068 47.5282C66.7957 47.6172 66.6179 47.6839 66.3216 47.5504C65.966 47.3872 65.9067 47.1573 65.9289 46.9866C65.9363 46.8605 66.0697 46.8012 66.1808 46.8605Z" fill="white"/>
<path d="M62.3506 41.415C62.3506 41.415 63.9804 44.7013 60.743 44.4639L59.2539 44.3675L59.3502 41.6524L62.3506 41.415Z" fill="#1B1A1F"/>
<path d="M68.3065 40.5545C67.9065 40.7919 67.0694 41.0367 66.6767 41.3853C65.284 42.6464 63.6986 43.6776 61.9799 44.4268C61.8984 44.4639 61.8539 44.4787 61.8539 44.4787C59.187 44.8496 59.3648 42.3645 59.3648 42.3645L59.3499 41.9491C59.2759 39.8498 60.6982 38.0249 62.6763 37.5427C62.9133 37.4834 63.1578 37.4463 63.4023 37.4315C64.8395 37.3276 66.0692 38.0397 67.062 38.967C67.4916 39.3676 68.1287 39.9907 68.3065 40.5545Z" fill="#313133"/>
<path fill-rule="evenodd" clip-rule="evenodd" d="M61.8561 44.4546C61.8561 44.4546 59.929 43.2136 59.1722 44.037C58.7763 44.4669 58.8444 45.1733 58.9967 45.4806C59.281 46.0578 60.0124 46.7924 61.1367 46.6666C62.3831 46.5358 61.8561 44.4546 61.8561 44.4546Z" fill="#FFBD9D"/>
<path d="M67.5512 46.4891C67.5438 46.4891 67.529 46.4891 67.5215 46.4817C67.4771 46.4669 67.4475 46.4075 67.4697 46.363C67.6178 45.955 67.3512 45.1316 67.166 44.5827C67.0845 44.3453 67.0252 44.1524 67.003 44.0263C66.8844 43.3513 67.5364 42.9952 67.892 42.9062C67.9438 42.8913 67.9883 42.921 68.0031 42.9729C68.0179 43.0249 67.9883 43.0768 67.9364 43.0842C67.8994 43.0916 67.0622 43.3216 67.1808 43.9966C67.203 44.1079 67.2623 44.3008 67.3363 44.5233C67.5364 45.1316 67.8031 45.955 67.6327 46.4224C67.6179 46.4669 67.5882 46.4891 67.5512 46.4891Z" fill="#1B1A1F"/>
<path d="M60.7284 45.4952C60.7136 45.4952 60.6988 45.4952 60.6914 45.4877L59.4394 44.8869C59.3949 44.8646 59.3727 44.8127 59.3949 44.7608C59.4172 44.7163 59.469 44.694 59.5209 44.7162L60.7729 45.3171C60.8173 45.3394 60.8396 45.3913 60.8173 45.4432C60.7951 45.4729 60.7581 45.4952 60.7284 45.4952Z" fill="#1B1A1F"/>
<path fill-rule="evenodd" clip-rule="evenodd" d="M64.0986 114.202C64.4097 111.035 61.3353 106.784 58.1645 106.94L58.0682 106.992C55.342 107.125 53.1639 111.175 53.0973 113.913L52.6676 116.398C52.3935 119.373 51.9564 122.036 52.2379 124.862L52.1861 146.041L60.8167 146.048L64.0986 114.202Z" fill="#FFBD9D"/>
<path fill-rule="evenodd" clip-rule="evenodd" d="M61.1799 142.792L51.9937 142.762L51.9492 146.768L57.261 147.272L61.0688 146.427L61.1799 142.792Z" fill="#00E26C"/>
<path d="M61.6094 144.661C61.5131 144.031 60.9353 143.571 60.2982 143.63C59.8833 143.667 59.5277 143.86 59.1425 143.993C58.7424 144.134 58.3275 144.246 57.9127 144.312C56.8237 144.498 55.705 144.461 54.6679 144.06C54.127 143.852 53.5937 143.571 53.0084 143.526C52.7417 143.511 52.475 143.548 52.2305 143.652C51.9564 143.778 51.8823 143.882 51.8749 144.186C51.8675 145.321 51.7934 146.456 51.7934 147.591C51.7564 148.756 51.7194 149.928 51.6823 151.093C51.6749 151.219 51.6749 151.345 51.6675 151.471L51.623 152.947L61.9354 153.088C62.1576 151.085 61.9132 146.686 61.6094 144.661Z" fill="white"/>
<path d="M62.1578 151.516C62.1503 152.302 62.1578 153.029 62.1578 153.029L51.4824 152.962L51.5269 151.486L62.1578 151.516Z" fill="#1B1A1F"/>
<path fill-rule="evenodd" clip-rule="evenodd" d="M43.6004 72.5717C42.141 74.8787 42.9485 77.9424 45.3636 79.2109L61.8396 88.1127L64.4844 82.2301L50.3272 71.318C48.1491 69.7083 45.0525 70.2795 43.6004 72.5717Z" fill="#0038FF"/>
<path d="M71.4407 86.3466L67.7588 83.4016L63.3138 81.918L58.2466 85.0929L60.7358 87.6893L64.677 90.1818L68.9589 87.6077C70.6703 88.6685 71.4778 88.2828 71.7741 87.7709C72.0408 87.2887 71.8778 86.6804 71.4407 86.3466Z" fill="#FFBD9D"/>
<path d="M67.0771 88.5279C67.0771 88.5279 69.0774 89.7816 69.5071 89.878C70.2331 90.0338 71.3814 88.6466 70.2405 87.8974C69.2996 87.2817 68.2847 87.0146 68.2847 87.0146L67.0771 88.5279Z" fill="#FFBD9D"/>
<path d="M65.5586 89.3584C65.5586 89.3584 67.7218 90.6269 68.0774 90.7011C68.9294 90.8791 69.6331 90.1892 69.5368 89.8628C69.4405 89.5364 66.6402 88.127 66.6402 88.127L65.5586 89.3584Z" fill="#FFBD9D"/>
<path d="M64.6768 90.1819C64.6768 90.1819 66.0917 91.0053 66.9659 91.1981C67.8104 91.391 68.0327 90.4341 68.0327 90.4341L65.4991 89.0098L64.6768 90.1819Z" fill="#FFBD9D"/>
<path d="M70.5888 88.3421C70.574 88.3421 70.5518 88.3347 70.537 88.3273L68.5515 87.0439C68.5071 87.0142 68.4997 86.9623 68.5219 86.9178C68.5515 86.8733 68.6034 86.8659 68.6478 86.8881L70.6333 88.1715C70.6777 88.2012 70.6851 88.2531 70.6629 88.2976C70.6481 88.3273 70.6185 88.3421 70.5888 88.3421Z" fill="#1B1A1F"/>
<path d="M69.5368 89.9521C69.5145 89.9521 69.4997 89.9447 69.4849 89.9373L67.2402 88.3053C67.1957 88.2757 67.1883 88.2163 67.218 88.1792C67.2476 88.1347 67.3069 88.1273 67.3439 88.157L69.5886 89.7889C69.6331 89.8186 69.6405 89.8779 69.6109 89.915C69.596 89.9373 69.5664 89.9521 69.5368 89.9521Z" fill="#1B1A1F"/>
<path d="M67.9585 90.7382C67.9363 90.7382 67.9215 90.7308 67.9067 90.7233L65.8471 89.2545C65.8027 89.2249 65.7953 89.1655 65.8249 89.1284C65.8545 89.0839 65.9138 89.0765 65.9508 89.1062L68.0104 90.575C68.0548 90.6047 68.0622 90.664 68.0326 90.7011C68.0178 90.7233 67.9882 90.7382 67.9585 90.7382Z" fill="#1B1A1F"/>
<path d="M58.4019 59.6859L55.7868 67.5565L55.6312 67.9942L54.4311 71.3917L52.579 76.6215C51.6752 78.9953 49.149 80.3157 46.6894 79.7C43.7261 78.9656 42.1111 75.7684 43.2594 72.9421L45.8153 66.1693L45.8375 66.11L46.4968 64.3593L49.2675 56.4293C49.4972 55.7914 49.8528 55.2276 50.2973 54.7602C51.5937 53.3805 53.6384 52.8389 55.5201 53.5437C57.9871 54.4709 59.2687 57.1934 58.4019 59.6859Z" fill="#0038FF"/>
<path d="M107.934 66.7809L27.5376 75.3516L28.3998 83.4834L108.796 74.9127L107.934 66.7809Z" fill="#FBCE95"/>
<path d="M38.2611 100.352C38.3066 100.429 38.2799 100.529 38.2035 100.582C38.1198 100.635 38.0134 100.617 37.9598 100.533L33.3985 93.7849C33.3449 93.7011 33.3635 93.5947 33.4473 93.5411C33.531 93.4874 33.6374 93.5059 33.691 93.5896L38.2522 100.338C38.2522 100.338 38.2604 100.344 38.2611 100.352Z" fill="#1B1A1F"/>
<path d="M74.7228 93.8249L82.0869 92.7397L8.76224 90.345L1.39816 91.4302L74.7228 93.8249Z" fill="#1B1A1F"/>
<path d="M43.849 77.5992L56.3882 84.5767L56.5906 82.5828L44.0514 75.6053L43.849 77.5992Z" fill="#1B1A1F"/>
<path d="M55.805 76.1309L59.2246 76.2554L59.666 74.8179L56.2464 74.6935L55.805 76.1309Z" fill="#1B1A1F"/>
<path d="M99.3623 49.063L109.512 47.29L103.941 55.8506L99.3623 49.063Z" fill="#F2F2F2"/>
<path fill-rule="evenodd" clip-rule="evenodd" d="M109.512 47.29L105.571 47.9799L107.327 50.643L109.512 47.29Z" fill="#1B1A1F"/>
<path fill-rule="evenodd" clip-rule="evenodd" d="M52.8973 82.9863L52.3417 111.383L51.749 141.486H61.565L64.6024 107.451L66.5878 83.3721L52.8973 82.9863Z" fill="#EDDBC6"/>
<path fill-rule="evenodd" clip-rule="evenodd" d="M80.2637 114.832L71.27 127.643L74.9149 148.414L83.3751 146.693L80.2637 114.832Z" fill="#FFBD9D"/>
<path fill-rule="evenodd" clip-rule="evenodd" d="M82.9753 142.628H73.7891L73.878 146.767L79.1897 147.272L83.4939 146.263L82.9753 142.628Z" fill="#00E26C"/>
<path d="M92.0141 151.515C92.0067 152.301 91.7696 153.028 91.7696 153.028L73.5601 152.961L73.6045 151.485L73.8416 143.83C75.3751 142.873 76.3085 145.336 77.9754 145.551C79.6423 145.773 83.0056 143.362 83.0056 143.362C83.0056 143.362 84.0872 145.573 86.1245 147.316C88.1618 149.052 89.2138 149.089 90.9547 149.653C91.2436 149.742 91.4585 149.898 91.614 150.091C91.9252 150.469 92.0141 151.003 92.0141 151.515Z" fill="white"/>
<path d="M92.0136 151.515C92.0062 152.301 91.7691 153.028 91.7691 153.028L73.5596 152.961L73.604 151.485L92.0136 151.515Z" fill="#1B1A1F"/>
<path d="M82.7979 146.812C82.746 146.812 82.709 146.767 82.709 146.723C82.709 146.671 82.746 146.626 82.7979 146.626H82.9979L85.4426 146.597C85.4945 146.597 85.5315 146.634 85.5315 146.686C85.5315 146.738 85.4945 146.782 85.4426 146.782L82.7979 146.812Z" fill="#1B1A1F"/>
<path d="M83.5313 147.835C83.4794 147.835 83.4424 147.798 83.4424 147.746C83.4424 147.694 83.4794 147.65 83.5313 147.65L86.5983 147.613C86.6502 147.613 86.6946 147.65 86.6946 147.702C86.6946 147.754 86.6576 147.798 86.6057 147.798L83.5313 147.835Z" fill="#1B1A1F"/>
<path fill-rule="evenodd" clip-rule="evenodd" d="M80.649 114.373C80.5527 112.169 76.9004 84.1733 76.9004 84.1733L62.0098 84.2475L69.344 116.116C69.4921 120.225 70.0478 123.245 70.7515 127.347C71.6405 132.54 72.5295 136.694 73.3148 141.441L83.5086 141.397C83.5086 141.397 80.7453 116.583 80.649 114.373Z" fill="#EDDBC6"/>
<path fill-rule="evenodd" clip-rule="evenodd" d="M51.0456 54.1295C52.4754 52.8684 60.4541 51.6815 60.4541 51.6815C63.9212 53.1948 66.6697 51.2661 66.6697 51.2661C70.3516 51.8967 72.3074 52.7201 72.3074 52.7201L75.0188 60.2124L76.8709 84.173L52.8532 84.0988C52.8606 84.0988 49.6158 55.398 51.0456 54.1295Z" fill="#0038FF"/>
<path d="M73.1815 53.2098L80.0045 57.9055L80.3823 58.1726L83.3086 60.2719L87.8128 63.4988C89.8353 65.0195 90.4057 67.8236 89.1389 70.0193C87.6128 72.6676 84.0939 73.3352 81.701 71.451L75.9077 67.1114L75.8559 67.0743L74.3594 65.9542L67.5142 61.0953C66.966 60.6947 66.5214 60.1977 66.2029 59.6488C65.2398 58.0168 65.2843 55.9026 66.4844 54.2854C68.0624 52.1639 71.0331 51.6891 73.1815 53.2098Z" fill="#0038FF"/>
<path d="M96.1994 56.1253C96.1994 56.1253 97.3995 53.2768 97.607 52.4978C97.8144 51.7189 98.9405 51.4519 99.1034 52.9726C99.2664 54.4933 99.2664 55.4503 99.2664 55.4503L95.9253 56.5556L96.1994 56.1253Z" fill="#FFBD9D"/>
<path d="M103.519 50.7473L99.0662 53.7368L95.3398 56.9192L96.3844 60.9621L99.3477 60.2944C100.289 59.9458 101.304 59.3672 102 58.6402L102.97 57.6313L102.222 53.7739C103.467 52.7947 104.711 51.8526 104.659 50.8957C104.637 50.4506 103.889 50.5099 103.519 50.7473Z" fill="#FFBD9D"/>
<path d="M102.4 55.4057C102.4 55.4057 105.541 52.5572 105.771 52.2975C106.401 51.5854 105.712 50.4652 104.852 51.1106C104.141 51.6447 101.607 54.1075 101.607 54.1075L102.4 55.4057Z" fill="#FFBD9D"/>
<path d="M102.6 56.7559C102.6 56.7559 106.052 54.1076 106.208 53.8628C106.571 53.2767 106.008 52.5794 105.489 52.8242C105.252 52.9355 101.985 55.6209 101.985 55.6209L102.6 56.7559Z" fill="#FFBD9D"/>
<path d="M102.971 57.6311C102.971 57.6311 105.756 56.0733 106.134 55.4798C106.334 55.1608 106.238 54.8938 106.104 54.7158C105.993 54.5674 105.786 54.5303 105.63 54.6342L102.341 56.7112L102.971 57.6311Z" fill="#FFBD9D"/>
<path d="M101.659 53.9451C101.63 53.9451 101.608 53.9377 101.593 53.9154C101.556 53.8783 101.563 53.819 101.6 53.7819L104.563 51.2226C104.6 51.1855 104.66 51.193 104.697 51.23C104.734 51.2671 104.726 51.3265 104.689 51.3636L101.726 53.9228C101.704 53.9377 101.682 53.9451 101.659 53.9451Z" fill="#1B1A1F"/>
<path d="M102.474 55.272C102.444 55.272 102.422 55.2646 102.407 55.2423C102.37 55.2053 102.378 55.1459 102.415 55.1088L105.57 52.3716C105.608 52.3345 105.667 52.3419 105.704 52.379C105.741 52.4161 105.733 52.4754 105.696 52.5125L102.541 55.2498C102.511 55.2646 102.496 55.272 102.474 55.272Z" fill="#1B1A1F"/>
<path d="M103.185 56.2514C103.155 56.2514 103.126 56.2366 103.111 56.2143C103.081 56.1698 103.089 56.1179 103.133 56.0882L105.956 53.9963C106 53.9666 106.052 53.9741 106.082 54.0186C106.111 54.0631 106.104 54.115 106.06 54.1447L103.237 56.2366C103.222 56.2514 103.207 56.2514 103.185 56.2514Z" fill="#1B1A1F"/>
<path fill-rule="evenodd" clip-rule="evenodd" d="M81.264 70.6351C82.9235 72.8012 86.0794 73.0831 88.1019 71.2508L100.148 60.5391L95.9843 55.4873L82.3901 63.8772C80.1306 65.3757 79.612 68.4839 81.264 70.6351Z" fill="#0038FF"/>
<path d="M82.5309 72.074C82.5086 72.074 82.4938 72.0665 82.479 72.0591L72.7075 64.8932C72.663 64.8635 72.6556 64.8042 72.6853 64.7671C72.7149 64.7226 72.7742 64.7152 72.8112 64.7449L82.5827 71.9108C82.6272 71.9404 82.6346 71.9998 82.6049 72.0369C82.5901 72.0591 82.5605 72.074 82.5309 72.074Z" fill="#1B1A1F"/>
<path d="M86.1608 66.0507C86.1163 66.0507 86.0793 66.0136 86.0719 65.9691L85.5014 61.9188C85.494 61.8668 85.5311 61.8223 85.5829 61.8149C85.6348 61.8075 85.6792 61.8446 85.6866 61.8965L86.2571 65.9468C86.2645 65.9987 86.2274 66.0432 86.1756 66.0507C86.1682 66.0507 86.1682 66.0507 86.1608 66.0507Z" fill="#1B1A1F"/>
<path d="M52.8607 84.1951C52.8163 84.1951 52.7718 84.158 52.7718 84.1135L51.1049 66.5325C51.0975 66.4806 51.1346 66.4361 51.1864 66.4287C51.2383 66.4213 51.2827 66.4584 51.2902 66.5103L52.957 84.0913C52.9644 84.1432 52.9274 84.1877 52.8755 84.1951C52.8607 84.1951 52.8607 84.1951 52.8607 84.1951Z" fill="#1B1A1F"/>
<path d="M73.3152 141.538C73.2707 141.538 73.2337 141.508 73.2263 141.464C71.8854 133.801 69.3073 116.494 69.2554 116.138L63.6918 93.1566C63.677 93.1047 63.7066 93.0602 63.7585 93.0453C63.8103 93.0305 63.8548 93.0676 63.8696 93.1121L69.4406 116.101V116.108C69.4703 116.286 72.0632 133.734 73.4115 141.434C73.4189 141.486 73.3893 141.53 73.3374 141.538C73.33 141.53 73.3226 141.538 73.3152 141.538Z" fill="#1B1A1F"/>
<path d="M62.2767 37.6392C62.2767 37.6392 55.8241 39.2415 54.2832 48.9147C52.7423 58.5806 43.0226 59.5301 43.2967 67.8607C43.593 77.0443 60.032 77.3782 64.9437 72.2745C68.07 69.0253 68.833 62.8979 69.4553 58.6622C70.211 53.5066 70.737 47.6314 69.1738 42.5722C68.8923 41.6524 68.1515 39.3157 67.0477 39.0041C67.0477 38.9967 62.2767 37.6392 62.2767 37.6392Z" fill="#313133"/>
<path d="M221.918 153.895L172.527 153.463L10.7076 153.667C10.6558 153.667 10.6113 153.531 10.6113 153.395C10.6113 153.258 10.6558 153.099 10.7002 153.099L172.519 152.895L221.91 153.326C221.962 153.326 221.999 153.463 221.999 153.622C222.007 153.758 221.97 153.895 221.918 153.895Z" fill="#1B1A1F"/>
<g opacity="0.5">
<path opacity="0.5" d="M100.147 17.0605L101.777 17.3944C102.318 17.5131 102.859 17.6317 103.4 17.7504C104.481 17.9952 105.563 18.2549 106.637 18.5219C108.786 19.0634 110.927 19.6421 113.06 20.2503C117.32 21.4669 121.557 22.8022 125.795 24.0929C127.914 24.7383 130.04 25.3688 132.173 25.9623L133.774 26.4L135.381 26.8228L136.989 27.2308C137.256 27.2976 137.53 27.3643 137.796 27.4311L138.604 27.624C140.76 28.1358 142.93 28.5883 145.108 28.9741C147.286 29.3672 149.487 29.6788 151.687 29.9087C149.479 29.7233 147.279 29.4266 145.094 29.0705C142.908 28.707 140.73 28.2693 138.567 27.7797C136.404 27.2901 134.255 26.7412 132.114 26.1552C129.973 25.5691 127.847 24.946 125.728 24.3081C124.669 23.9891 123.609 23.6627 122.55 23.3289L119.372 22.3423C117.253 21.6895 115.134 21.0441 113.008 20.421C110.882 19.7978 108.748 19.1895 106.607 18.6332C105.533 18.3513 104.466 18.0768 103.385 17.8098C102.844 17.6763 102.303 17.5501 101.77 17.424L100.147 17.0605Z" fill="#1B1A1F"/>
</g>
<g opacity="0.5">
<path opacity="0.5" d="M98.4585 25.9399C100.629 26.1106 102.763 26.6076 104.844 27.2381C106.926 27.8687 108.963 28.6401 111.008 29.3745C113.053 30.1089 115.12 30.784 117.238 31.2588L123.587 32.7424C125.706 33.2394 127.818 33.7364 129.929 34.2631C132.04 34.7898 134.144 35.3536 136.233 35.9544C138.322 36.5553 140.397 37.2229 142.464 37.9054L145.56 38.9291C146.59 39.2778 147.62 39.619 148.65 39.9751C147.605 39.6709 146.568 39.3519 145.523 39.033L142.404 38.0686C141.367 37.7496 140.33 37.4158 139.293 37.0894C139.034 37.0078 138.774 36.9262 138.515 36.8446L137.737 36.6072C137.219 36.4515 136.693 36.3031 136.174 36.1473C134.085 35.5464 131.981 34.9975 129.877 34.4708C127.773 33.9441 125.654 33.4397 123.543 32.9353C121.424 32.4382 119.313 31.9412 117.194 31.4294C116.668 31.3033 116.135 31.1697 115.609 31.0288C115.083 30.8804 114.564 30.7246 114.046 30.5614C113.008 30.235 111.979 29.8716 110.956 29.5007C108.912 28.7588 106.882 27.9725 104.815 27.3123C102.748 26.6595 100.622 26.1476 98.4585 25.9399Z" fill="#1B1A1F"/>
</g>
<g opacity="0.5">
<path opacity="0.5" d="M93.4136 42.4976C94.1248 42.5643 94.836 42.6533 95.5472 42.7498C96.2583 42.8462 96.9695 42.9501 97.6733 43.0613C98.3845 43.1726 99.0883 43.2987 99.7921 43.4322C100.496 43.5658 101.2 43.7067 101.903 43.8551C103.311 44.1518 104.696 44.5079 106.074 44.9085C107.452 45.3164 108.815 45.769 110.141 46.3401C110.475 46.4737 110.801 46.6369 111.127 46.7852L112.09 47.2674C112.727 47.5864 113.379 47.8905 114.038 48.1576C114.698 48.4246 115.364 48.6843 116.046 48.9068C116.72 49.1368 117.409 49.3445 118.091 49.5448C119.469 49.9379 120.861 50.2569 122.269 50.524C123.676 50.791 125.091 51.0061 126.521 51.1397C123.662 50.9468 120.824 50.4498 118.046 49.7154C116.661 49.3445 115.29 48.892 113.964 48.3505C113.297 48.0834 112.638 47.7867 112.001 47.4603L111.038 46.9855C110.712 46.8372 110.393 46.6814 110.06 46.5479C107.43 45.4277 104.659 44.6711 101.866 44.0331C101.17 43.8699 100.466 43.7215 99.7699 43.5806C99.0661 43.4397 98.3623 43.3061 97.6585 43.18C96.2509 42.913 94.836 42.6904 93.4136 42.4976Z" fill="#1B1A1F"/>
</g>
<g opacity="0.5">
<path opacity="0.5" d="M96.8066 34.6714C98.8513 35.2723 100.881 35.9251 102.904 36.5853C104.926 37.2455 106.956 37.9057 108.993 38.514C110.008 38.8256 111.038 39.1149 112.06 39.3968C113.083 39.6786 114.12 39.9383 115.157 40.1682C117.231 40.6282 119.335 40.962 121.439 41.2958C122.491 41.459 123.543 41.6222 124.595 41.7928C125.647 41.9634 126.699 42.1415 127.744 42.3492C128.27 42.4456 128.788 42.5643 129.314 42.6682C129.833 42.7868 130.351 42.9055 130.87 43.0391C131.389 43.1726 131.9 43.321 132.411 43.4767C132.922 43.6325 133.426 43.8031 133.93 43.9737C135.945 44.6711 137.915 45.4945 139.886 46.3031C141.849 47.1265 143.82 47.9276 145.842 48.6175C143.812 47.9795 141.827 47.1932 139.849 46.4069C137.871 45.6132 135.9 44.812 133.878 44.1369C133.374 43.9663 132.87 43.8031 132.359 43.6548C131.848 43.5064 131.337 43.358 130.825 43.2245C130.314 43.091 129.788 42.9797 129.277 42.861C128.759 42.7498 128.24 42.6385 127.714 42.542C126.669 42.3418 125.617 42.1637 124.573 41.9931C123.521 41.8225 122.469 41.6667 121.417 41.5035C119.313 41.1771 117.209 40.8285 115.127 40.3611C114.09 40.1237 113.053 39.8641 112.023 39.5748C110.994 39.2929 109.971 38.9962 108.956 38.6772C106.919 38.0466 104.904 37.3642 102.881 36.6817L99.8515 35.658C98.8291 35.3316 97.8142 34.9978 96.8066 34.6714Z" fill="#1B1A1F"/>
</g>
</svg>
