<svg width="222" height="154" viewBox="0 0 222 154" fill="none" xmlns="http://www.w3.org/2000/svg">
<path d="M74.9071 49.7134C74.9071 49.7134 81.8942 51.8823 80.5404 71.2569C79.1867 90.646 64.31 78.8117 64.31 78.8117L53.2617 50.7469L74.9071 49.7134Z" fill="#1B1A1F"/>
<path d="M65.6641 65.4341L67.6874 52.1441L51.2823 40.6445L49.2153 64.2405L65.6641 65.4341Z" fill="#FD9F84"/>
<path d="M108.896 83.5136C110.396 91.7379 110.978 98.4776 109.188 98.7978C107.412 99.118 103.933 92.9025 102.448 84.6781C100.949 76.4537 100.774 69.554 102.55 69.2337C104.34 68.928 107.397 75.2892 108.896 83.5136Z" fill="#1B1A1F"/>
<path d="M26.4489 135.159L17.3657 152.35H83.9322L76.8724 133.078L26.4489 135.159Z" fill="#1B1A1F"/>
<path d="M84.937 70.2378L127.194 72.6978C132.886 73.0326 137.413 77.5742 137.733 83.2658C138.083 89.4377 133.352 94.7362 127.18 95.0856L91.5893 97.1235L84.937 70.2378Z" fill="#FD9F84"/>
<path d="M108.955 98.8121L88.8376 99.2488L82.0543 99.3943L80.0747 99.438L74.6597 68.3892L102.535 69.248C100.759 69.5682 100.934 76.468 102.433 84.6924C103.874 92.5674 107.12 98.5937 108.955 98.8121Z" fill="#00E26C"/>
<path d="M108.184 98.2441C108.111 98.2587 108.023 98.2587 107.951 98.2441H108.184Z" fill="#1B1A1F"/>
<path d="M122.376 31.9541L116.568 82.4649C115.855 88.695 120.658 94.1974 126.932 94.3138C132.74 94.4303 137.573 89.845 137.762 84.037L139.451 33.1477L122.376 31.9541Z" fill="#FD9F84"/>
<path d="M69.1576 67.821L67.1197 62.5807L48.764 60.6738L45.0376 66.8603L69.6088 67.821H69.1576Z" fill="#00E26C"/>
<path d="M66.9304 57.1516L59.2446 52.5518L66.2754 61.4312L66.9304 57.1516Z" fill="#D1836D"/>
<path d="M80.5407 26.8161C80.5407 26.8161 80.3224 55.9726 70.1038 57.3118C59.8852 58.6655 51.2969 40.6301 51.2969 40.6301L60.2636 22.8276L80.5407 26.8161Z" fill="#FD9F84"/>
<path d="M73.6699 26.7431C73.6699 26.7431 66.8721 34.7054 57.3231 35.7535C57.3231 35.7535 59.1426 47.2531 51.2821 50.3972C51.2821 50.3972 55.6636 66.1764 45.0374 67.2973C34.4112 68.4181 23.9015 83.4549 23.9015 83.4549C23.9015 83.4549 14.6436 73.2508 22.5041 59.9754C28.5887 49.6985 36.8131 49.3783 36.8131 49.3783C36.8131 49.3783 32.6499 36.4231 45.7361 32.027C45.7361 32.027 51.2821 9.5956 74.8927 17.7181L73.6699 26.7431Z" fill="#1B1A1F"/>
<path d="M74.9076 17.7324C74.9076 17.7324 84.7914 23.5113 84.4129 32.6236C83.9617 43.1625 78.7359 43.7011 78.7359 43.7011C78.7359 43.7011 79.5656 40.4987 79.653 38.3152C79.653 38.3152 73.0298 28.6934 73.0298 25.3891C73.0298 22.0848 74.9076 17.7324 74.9076 17.7324Z" fill="#1B1A1F"/>
<path d="M88.8379 99.2487L82.0692 99.3943L81.8945 99.3215L80.4243 79.8887L88.8379 99.2487Z" fill="#1B1A1F"/>
<path d="M83.9321 68.6659C83.9321 68.6659 42.126 63.6002 35.1244 67.9963C27.3804 72.8581 20.8154 77.0067 23.7413 107.663L26.4488 135.16H75.8096C75.8096 135.16 84.7909 106.469 84.82 98.0844C84.8637 87.9386 83.9321 68.6659 83.9321 68.6659Z" fill="#00E26C"/>
<path d="M46.784 111.389C38.9526 114.329 32.4314 116.105 31.7909 114.417C31.1504 112.728 36.6527 108.201 44.4695 105.261C52.2863 102.32 59.0405 100.908 59.681 102.597C60.3215 104.285 54.6008 108.449 46.784 111.389Z" fill="#1B1A1F"/>
<path d="M49.4337 80.166L67.3672 127.329C69.5361 133.035 66.6976 139.44 61.0061 141.667C55.7075 143.734 49.6812 141.478 47.061 136.427L26.4346 96.6293L49.4337 80.166Z" fill="#FD9F84"/>
<path d="M55.0669 119.613L104.777 107.037L111.648 121.185L59.4484 142.147L55.0669 119.613Z" fill="#FD9F84"/>
<path d="M104.777 107.037C104.777 107.037 116.233 104.126 119.828 104.359C123.438 104.577 138.388 115.698 138.46 116.979C138.533 118.26 137.558 120.881 131.095 116.979C124.632 113.078 124.632 113.078 124.632 113.078L111.633 121.186L104.762 117.809V107.037H104.777Z" fill="#FD9F84"/>
<path d="M125.083 111.288C125.083 111.288 131.735 115.989 131.866 117.43C131.997 118.857 131.197 120.88 128.475 119.978C125.753 119.075 119.595 112.758 119.595 112.758L125.374 111.288H125.083Z" fill="#FD9F84"/>
<path d="M120.061 111.288C120.061 111.288 127.645 117.998 127.5 119.512C127.354 121.026 126.524 122.54 123.366 121.186C120.207 119.832 115.622 116.077 115.622 116.077L120.061 111.288Z" fill="#FD9F84"/>
<path d="M118.023 115.756C118.023 115.756 123.657 118.944 123.729 120.516C123.802 122.088 122.681 123.602 120.28 122.772C117.878 121.942 114.064 119.686 114.064 119.686L118.023 115.756Z" fill="#FD9F84"/>
<path d="M59.6809 102.568C58.9967 100.909 52.2717 102.321 44.4694 105.247C36.6526 108.187 31.1503 112.714 31.7908 114.403C31.7325 114.301 29.913 111.04 25.1967 95.1007C20.3058 78.5646 34.5419 67.8365 42.0967 71.4902C49.5496 75.0711 59.3752 101.738 59.6809 102.568Z" fill="#00E26C"/>
<path d="M31.7912 114.621C31.7039 114.621 31.6165 114.563 31.5874 114.476L26.1288 98.9439C26.0851 98.8274 26.1433 98.711 26.2598 98.6673C26.3762 98.6237 26.4927 98.6819 26.5363 98.7983L31.995 114.33C32.0387 114.446 31.9804 114.563 31.864 114.607C31.8349 114.621 31.8203 114.621 31.7912 114.621Z" fill="#1B1A1F"/>
<path d="M59.681 102.787C59.5936 102.787 59.5209 102.743 59.4772 102.656L51.0781 83.5577C51.0345 83.4413 51.0781 83.3248 51.1946 83.2666C51.311 83.2229 51.4275 83.2666 51.4857 83.3831L59.8848 102.481C59.9284 102.598 59.8848 102.714 59.7683 102.772C59.7392 102.787 59.7101 102.787 59.681 102.787Z" fill="#1B1A1F"/>
<path d="M69.885 38.6646C69.8559 38.6646 69.8122 38.65 69.7831 38.6355C68.342 37.8349 64.7029 37.8931 64.6593 37.8931C64.5428 37.8931 64.4409 37.8058 64.4409 37.6747C64.4409 37.5583 64.5283 37.4564 64.6593 37.4564C64.8194 37.4564 68.4585 37.3982 70.0015 38.257C70.1034 38.3152 70.147 38.4462 70.0888 38.5481C70.0306 38.6209 69.9578 38.6646 69.885 38.6646Z" fill="#1B1A1F"/>
<path d="M78.765 39.6989C78.7505 39.6989 78.7359 39.6989 78.7213 39.6989C76.7999 39.2914 73.8158 39.0876 73.7867 39.0876C73.6703 39.073 73.5684 38.9711 73.5829 38.8547C73.5975 38.7382 73.6994 38.6509 73.8158 38.6509C73.8449 38.6509 76.8727 38.8692 78.8087 39.2768C78.9251 39.3059 78.9979 39.4224 78.9834 39.5388C78.9688 39.6262 78.8669 39.6989 78.765 39.6989Z" fill="#1B1A1F"/>
<path d="M71.1374 48.01C70.9918 48.01 70.8463 48.01 70.6861 47.9954C70.5697 47.9954 70.4678 47.879 70.4823 47.7625C70.4823 47.646 70.5988 47.5587 70.7153 47.5587C72.3456 47.6606 73.3063 47.2094 73.4955 46.7436C73.6265 46.4379 73.4228 46.1613 73.219 45.9721C72.0399 44.8658 72.724 40.5571 72.8114 40.0622C72.8259 39.9457 72.9424 39.8584 73.0588 39.8875C73.1753 39.902 73.2626 40.0185 73.2335 40.1349C73.0152 41.4013 72.6513 44.8512 73.5101 45.6518C74.0778 46.1758 73.9904 46.6708 73.8886 46.9037C73.5974 47.6024 72.5494 48.01 71.1374 48.01Z" fill="#1B1A1F"/>
<path d="M67.4545 42.3036C67.0614 42.2163 66.814 41.8378 66.9013 41.4448L67.0614 40.6879C67.1488 40.2948 67.5272 40.0474 67.9203 40.1347C68.3133 40.2221 68.5608 40.6005 68.4734 40.9935L68.3133 41.7505C68.226 42.1435 67.8475 42.391 67.4545 42.3036Z" fill="#1B1A1F"/>
<path d="M75.475 43.934C75.082 43.8467 74.8345 43.4682 74.9218 43.0752L75.082 42.3182C75.1693 41.9252 75.5478 41.6778 75.9408 41.7651C76.3338 41.8524 76.5813 42.2309 76.4939 42.6239L76.3338 43.3809C76.2465 43.7884 75.8534 44.0213 75.475 43.934Z" fill="#1B1A1F"/>
<path d="M69.2303 51.0957C69.2158 50.7609 68.9683 50.4698 68.6626 50.3533C68.1968 50.1786 67.3817 49.7419 66.8285 48.7375C66.0134 47.2528 65.2419 48.3445 65.3874 49.1451C65.533 49.9457 66.8576 51.5469 68.3424 51.6634C69.0702 51.7216 69.2449 51.4159 69.2303 51.0957Z" fill="white"/>
<path d="M60.2928 38.5044C60.2928 38.5044 57.2942 33.8609 53.9025 34.0356C50.5254 34.2102 50.3362 40.9062 57.9346 44.3415L60.2928 38.5044Z" fill="#FD9F84"/>
<path d="M57.818 40.7171C57.7597 40.7171 57.7161 40.7025 57.6724 40.6588L53.9605 37.1944C53.8732 37.1071 53.8732 36.9761 53.946 36.8887C54.0333 36.8014 54.1643 36.8014 54.2516 36.8742L57.949 40.3241C58.0363 40.4114 58.0363 40.5424 57.9635 40.6297C57.9344 40.688 57.8762 40.7171 57.818 40.7171Z" fill="#1B1A1F"/>
<path d="M123.628 121.68C123.569 121.68 123.511 121.651 123.468 121.622L117.863 115.916C117.776 115.828 117.776 115.697 117.863 115.61C117.951 115.523 118.082 115.523 118.169 115.61L123.773 121.316C123.861 121.403 123.861 121.534 123.773 121.622C123.744 121.651 123.686 121.68 123.628 121.68Z" fill="#1B1A1F"/>
<path d="M127.5 119.729C127.441 119.729 127.383 119.7 127.339 119.657L121.4 113.048C121.313 112.961 121.328 112.815 121.415 112.742C121.502 112.655 121.648 112.669 121.721 112.757L127.66 119.365C127.747 119.453 127.733 119.598 127.645 119.671C127.602 119.715 127.543 119.729 127.5 119.729Z" fill="#1B1A1F"/>
<path d="M131.881 118.085C131.823 118.085 131.765 118.056 131.721 118.012L125.287 110.909C125.2 110.821 125.214 110.676 125.302 110.603C125.389 110.516 125.535 110.53 125.607 110.618L132.041 117.721C132.129 117.809 132.114 117.954 132.027 118.027C131.983 118.056 131.939 118.085 131.881 118.085Z" fill="#1B1A1F"/>
<path d="M111.648 121.185L112.652 114.314L114.064 119.671L111.648 121.185Z" fill="#D1836D"/>
<path d="M122.347 32.2455C122.347 32.2455 123.89 25.8698 123.06 22.9439C122.23 20.0181 119.028 12.2304 121.561 11.1532C124.559 9.87227 128.358 20.0763 128.358 20.0763L140.673 22.3471L139.45 33.1334L122.347 32.2455Z" fill="#FD9F84"/>
<path d="M126.394 22.0999C126.394 22.0999 129.407 0.250729 131.357 0.0323824C133.73 -0.229633 133.905 1.08045 133.686 4.61766C133.468 8.15487 130.6 23.3954 130.6 23.3954L126.394 22.0999Z" fill="#FD9F84"/>
<path d="M131.052 12.3468C131.052 12.3468 133.672 9.945 135.346 12.0266C135.346 12.0266 135.826 11.6918 136.51 11.5025C137.85 11.1386 139.174 12.1576 139.174 13.555C139.174 13.555 139.436 12.3468 141.037 12.6962C142.711 13.0455 140.601 22.9148 140.601 22.9148L127.966 24.0938L131.052 12.3468Z" fill="#FD9F84"/>
<path d="M133.337 19.8435C132.842 19.8435 132.376 19.6397 132.041 19.2613C131.663 18.8391 131.488 18.286 131.561 17.7328L133.497 3.83144C133.511 3.71499 133.628 3.62766 133.744 3.64221C133.861 3.65677 133.948 3.77322 133.933 3.88967L131.997 17.7911C131.939 18.2132 132.07 18.6499 132.361 18.9701C132.638 19.2758 133.002 19.4214 133.395 19.4068C133.686 19.3923 133.919 19.2904 134.137 19.1011C134.967 18.3442 135.302 13.6425 135.36 11.8957C135.36 11.7793 135.462 11.6774 135.578 11.6774C135.695 11.6774 135.797 11.7793 135.797 11.8957C135.782 12.5653 135.564 18.4024 134.443 19.4214C134.152 19.6834 133.817 19.8144 133.424 19.829C133.395 19.8435 133.366 19.8435 133.337 19.8435Z" fill="#1B1A1F"/>
<path d="M136.685 20.2949C136.423 20.2949 136.161 20.2512 135.913 20.1784C135.025 19.8873 134.56 19.1158 134.632 18.0678C134.647 17.9513 134.749 17.8494 134.865 17.864C134.982 17.8785 135.084 17.9804 135.069 18.0969C134.996 19.1741 135.564 19.5962 136.059 19.7563C136.772 19.9892 137.558 19.7563 137.733 19.4943C138.504 18.3007 138.825 13.2933 138.839 13.235C138.854 13.1186 138.956 13.0312 139.072 13.0312C139.189 13.0458 139.29 13.1477 139.276 13.2641C139.261 13.4679 138.941 18.4317 138.111 19.7272C137.864 20.0911 137.296 20.2949 136.685 20.2949Z" fill="#1B1A1F"/>
<path d="M139.64 20.1059C139.145 20.1059 138.665 19.8875 138.33 19.48C138.126 19.2325 138.024 19.0142 138.01 18.9996C137.966 18.8831 138.01 18.7667 138.111 18.7085C138.228 18.6648 138.344 18.7085 138.403 18.8104C138.403 18.8104 138.49 18.985 138.65 19.1888C138.985 19.5964 139.509 19.742 140.018 19.5964C140.426 19.4654 140.892 19.1015 140.95 18.461L141.459 13.2353C141.474 13.1188 141.576 13.0315 141.692 13.046C141.809 13.0606 141.896 13.1625 141.882 13.2789L141.372 18.5047C141.299 19.2325 140.819 19.8002 140.135 20.0186C139.989 20.0768 139.8 20.1059 139.64 20.1059Z" fill="#1B1A1F"/>
<path d="M123.278 24.4292L128.49 26.9766L123.045 28.4613C123.045 28.4613 123.322 24.9241 123.278 24.4292Z" fill="#D1836D"/>
<path d="M58.8227 127.037C58.7936 127.037 58.7499 127.022 58.7208 127.008C58.6189 126.95 58.5752 126.819 58.6189 126.717L63.408 117.342C63.4662 117.24 63.5972 117.197 63.6991 117.24C63.801 117.299 63.8447 117.43 63.801 117.532L59.0119 126.906C58.9828 126.993 58.91 127.037 58.8227 127.037Z" fill="#1B1A1F"/>
<path d="M124.341 79.714C124.283 79.714 124.224 79.6849 124.181 79.6412L117.601 72.3048C117.514 72.2175 117.528 72.0719 117.616 71.9991C117.703 71.9118 117.849 71.9263 117.921 72.0137L124.501 79.3501C124.588 79.4374 124.574 79.583 124.486 79.6558C124.443 79.6849 124.384 79.714 124.341 79.714Z" fill="#1B1A1F"/>
<path d="M221.767 153.132H0.218346C0.101895 153.132 0 152.899 0 152.632C0 152.366 0.101895 152.132 0.218346 152.132H221.782C221.898 152.132 222 152.366 222 152.632C221.985 152.899 221.898 153.132 221.767 153.132Z" fill="#1B1A1F"/>
<path d="M166.554 111.287H166.118V149.468H166.554V111.287Z" fill="#FF7777"/>
<path d="M151.183 146.717H150.746V127.765L159.218 108.812L159.626 108.987L151.183 127.852V146.717Z" fill="#FF7777"/>
<path d="M181.926 146.717H181.489V127.852L173.061 108.987L173.454 108.812L181.926 127.764V146.717Z" fill="#FF7777"/>
<path d="M158.956 114.795L158.505 119.511H148.286V114.795H158.956Z" fill="#0038FF"/>
<path d="M158.505 119.73H148.286C148.17 119.73 148.068 119.628 148.068 119.512V114.781C148.068 114.752 148.082 114.708 148.097 114.679L160.121 90.8355C160.164 90.7481 160.281 90.6899 160.368 90.719C160.47 90.7481 160.528 90.8355 160.528 90.9519L159.32 107.808L158.723 119.512C158.709 119.643 158.621 119.73 158.505 119.73ZM148.505 119.293H158.286L158.869 107.794L160.004 92.0145L148.49 114.839V119.293H148.505Z" fill="#1B1A1F"/>
<path d="M158.665 115.014H148.432C148.315 115.014 148.213 114.912 148.213 114.795C148.213 114.679 148.315 114.577 148.432 114.577H158.665C158.781 114.577 158.883 114.679 158.883 114.795C158.883 114.912 158.781 115.014 158.665 115.014Z" fill="#1B1A1F"/>
<path d="M174.007 114.795L174.459 119.511H184.677V114.795H174.007Z" fill="#0038FF"/>
<path d="M184.677 119.73H174.459C174.342 119.73 174.24 119.642 174.24 119.526L173.644 107.808L172.435 90.9517C172.421 90.8498 172.494 90.7479 172.596 90.7188C172.697 90.6897 172.799 90.7334 172.843 90.8353L184.867 114.679C184.881 114.708 184.896 114.737 184.896 114.781V119.511C184.896 119.642 184.794 119.73 184.677 119.73ZM174.663 119.293H184.444V114.839L172.93 92.0143L174.066 107.794L174.663 119.293Z" fill="#1B1A1F"/>
<path d="M184.677 115.014H174.298C174.182 115.014 174.08 114.912 174.08 114.795C174.08 114.679 174.182 114.577 174.298 114.577H184.677C184.794 114.577 184.895 114.679 184.895 114.795C184.895 114.912 184.794 115.014 184.677 115.014Z" fill="#1B1A1F"/>
<path d="M175.143 115.756H157.617C157.617 115.756 158.461 91.2427 161.897 77.8071C163.163 72.8433 164.794 69.3935 166.861 69.2479C169 69.0878 170.587 72.625 171.766 77.8071C174.823 91.2281 175.143 115.756 175.143 115.756Z" fill="white"/>
<path d="M171.766 77.7924H161.911C163.178 72.8287 164.808 69.3788 166.875 69.2332C169 69.0731 170.587 72.6103 171.766 77.7924Z" fill="#0038FF"/>
<path d="M171.766 78.0109H161.911C161.795 78.0109 161.693 77.909 161.693 77.7926C161.693 77.6761 161.795 77.5742 161.911 77.5742H171.766C171.882 77.5742 171.984 77.6761 171.984 77.7926C171.984 77.9236 171.882 78.0109 171.766 78.0109Z" fill="#1B1A1F"/>
<path d="M166.38 89.001C164.487 89.001 162.944 87.458 162.944 85.5657C162.944 83.6734 164.487 82.1304 166.38 82.1304C168.272 82.1304 169.815 83.6734 169.815 85.5657C169.815 87.458 168.272 89.001 166.38 89.001ZM166.38 82.5816C164.735 82.5816 163.381 83.9208 163.381 85.5803C163.381 87.2397 164.72 88.5789 166.38 88.5789C168.025 88.5789 169.378 87.2397 169.378 85.5803C169.378 83.9208 168.039 82.5816 166.38 82.5816Z" fill="#1B1A1F"/>
<path d="M175.143 115.974H157.617C157.559 115.974 157.501 115.945 157.457 115.901C157.413 115.858 157.399 115.799 157.399 115.741C157.413 115.494 158.272 91.0536 161.679 77.749C163.149 72.0283 164.837 69.1607 166.831 69.0151C168.913 68.855 170.587 71.7226 171.955 77.749C174.983 91.0536 175.332 115.494 175.347 115.741C175.347 115.799 175.318 115.858 175.289 115.901C175.26 115.945 175.201 115.974 175.143 115.974ZM157.85 115.537H174.925C174.881 113.048 174.415 90.4422 171.548 77.8509C170.267 72.2321 168.651 69.3208 166.875 69.4518C165.114 69.5828 163.498 72.4068 162.115 77.8509C158.898 90.4276 157.952 113.019 157.85 115.537Z" fill="#1B1A1F"/>
<path d="M171.606 119.511H161.445L161.809 114.795H171.402L171.606 119.511Z" fill="#0038FF"/>
<path d="M171.606 119.73H161.445C161.387 119.73 161.329 119.701 161.285 119.657C161.242 119.613 161.227 119.555 161.227 119.497L161.576 114.766L164.662 91.6067C164.677 91.5048 164.764 91.4175 164.881 91.4175H168.986C169.102 91.4175 169.189 91.5048 169.204 91.6067L171.62 114.751L171.824 119.497C171.824 119.555 171.81 119.613 171.766 119.657C171.722 119.715 171.664 119.73 171.606 119.73ZM161.678 119.293H171.373L171.184 114.795L168.796 91.8687H165.07L162.013 114.824L161.678 119.293Z" fill="#1B1A1F"/>
<path d="M171.402 115.013H161.795C161.678 115.013 161.576 114.911 161.576 114.795C161.576 114.679 161.678 114.577 161.795 114.577H171.402C171.518 114.577 171.62 114.679 171.62 114.795C171.62 114.911 171.533 115.013 171.402 115.013Z" fill="#1B1A1F"/>
<path d="M143.06 148.581H136.233V145.437C136.233 145.117 136.495 144.869 136.801 144.869H142.478C142.798 144.869 143.046 145.131 143.046 145.437V148.581H143.06Z" fill="#FF7777"/>
<path d="M153.759 148.58H146.932V145.436C146.932 145.116 147.194 144.868 147.5 144.868H153.177C153.497 144.868 153.745 145.13 153.745 145.436V148.58H153.759Z" fill="#1B1A1F"/>
<path d="M164.444 148.58H157.617V145.436C157.617 145.116 157.879 144.868 158.185 144.868H163.862C164.182 144.868 164.43 145.13 164.43 145.436V148.58H164.444Z" fill="#1B1A1F"/>
<path d="M175.143 148.58H168.316V145.436C168.316 145.116 168.578 144.868 168.884 144.868H174.561C174.881 144.868 175.128 145.13 175.128 145.436V148.58H175.143Z" fill="#1B1A1F"/>
<path d="M185.842 148.58H179.015V145.436C179.015 145.116 179.277 144.868 179.582 144.868H185.259C185.58 144.868 185.827 145.13 185.827 145.436V148.58H185.842Z" fill="#1B1A1F"/>
<path d="M189.03 150.298L212.844 86.2495H218.477L194.692 152.35L189.03 150.298Z" fill="#1B1A1F"/>
<path d="M194.692 152.35H127.194L128.359 147.561H196.294L194.692 152.35Z" fill="white"/>
<path d="M194.692 152.569H127.194C127.121 152.569 127.063 152.54 127.019 152.482C126.976 152.423 126.961 152.365 126.976 152.292L128.14 147.503C128.169 147.402 128.257 147.343 128.359 147.343H196.293C196.366 147.343 196.424 147.372 196.468 147.431C196.512 147.489 196.526 147.562 196.497 147.634L194.896 152.423C194.867 152.511 194.779 152.569 194.692 152.569ZM127.471 152.132H194.532L195.988 147.78H128.533L127.471 152.132Z" fill="#1B1A1F"/>
</svg>
