<svg width="222" height="169" viewBox="0 0 222 169" fill="none" xmlns="http://www.w3.org/2000/svg">
<path d="M141 40.8964C141 40.8964 137.176 33.0124 112 39.6739L119.878 54L138.472 47.1034L141 40.8964Z" fill="#0038FF"/>
<path d="M157.454 55L196.875 85.9772C202.666 90.5258 203.703 98.9641 199.198 104.83C195.28 109.928 188.328 111.465 182.661 108.5L149 90.8865L157.454 55Z" fill="#0038FF"/>
<path d="M93.9727 53.2575C93.9727 53.2575 72.9062 64.5617 71.2641 67.843C69.6219 71.1244 76.1749 155.717 76.1749 155.717L155.389 156L157 55.0787C157 55.0787 139.39 42.3144 117.229 47.0559C98.8991 50.9809 93.9727 53.2575 93.9727 53.2575Z" fill="#0038FF"/>
<path d="M71.3311 68C71.3311 68 41.2798 127.897 43.0776 142.189C44.8754 156.482 61.0712 151.891 66.8366 139.082C72.602 126.273 87 102.263 87 102.263L71.3311 68Z" fill="#0038FF"/>
<path d="M118.797 46.5128C107.838 61.3663 96.0485 54.8433 96.0485 54.8433L94.796 52.4385L89.7703 43.3692L76.6973 19.7766L92.4475 7.35938L118.797 46.5128Z" fill="#FD9F84"/>
<path d="M102.279 42.1905L94.8113 52.4386L89.7856 43.3693L93.1987 41.6875L102.279 42.1905Z" fill="#D1836D"/>
<path d="M70.0591 16.2558C70.0591 16.2558 74.0045 34.4415 82.5371 43.998C90.741 53.1616 101.199 43.5107 102.045 42.5362C102.89 41.5617 107.681 30.0405 107.681 30.0405L97.0818 7.37516L83.5078 6.2749L70.0591 16.2558Z" fill="#FD9F84"/>
<path d="M80.2669 1.79534C78.1689 2.9899 76.4467 4.45167 74.1296 7.06085C73.6443 7.61098 73.1902 8.39688 72.3604 8.91557C70.419 10.1259 63.2328 12.6407 65.7378 17.5133C68.2428 22.3859 74.3018 24.6492 86.592 15.9729C86.592 15.9729 98.9605 31.1408 107.274 29.6004C107.274 29.6004 108.339 29.2389 107.697 24.0362C107.055 18.8493 106.006 12.2321 103.156 8.71124C100.448 5.36331 90.1303 -3.86313 80.2669 1.79534Z" fill="#1B1A1F"/>
<path d="M94.6553 26.1896C94.6553 26.1896 96.5967 16.2087 101.356 17.1832C106.131 18.1577 103.939 30.8893 103.939 30.8893L94.6553 26.1896Z" fill="#FD9F84"/>
<path d="M99.6496 26.3468C99.6339 26.3468 99.6026 26.3468 99.5869 26.3311C99.4617 26.2996 99.399 26.1582 99.4303 26.0324L100.98 20.7355C101.012 20.6097 101.153 20.5311 101.278 20.5783C101.403 20.6097 101.466 20.7512 101.434 20.8769L99.8844 26.1739C99.8531 26.2839 99.7591 26.3468 99.6496 26.3468Z" fill="#1B1A1F"/>
<path d="M76.7287 31.8165C76.6817 31.8165 76.6191 31.8008 76.5878 31.7693C76.4938 31.6907 76.4782 31.5335 76.5565 31.4392C77.9186 29.726 81.6291 28.8143 81.7857 28.7672C81.9109 28.7357 82.0362 28.8143 82.0675 28.9401C82.0988 29.0658 82.0205 29.1916 81.8952 29.223C81.8639 29.2387 78.2004 30.1504 76.9322 31.7379C76.8539 31.785 76.7913 31.8165 76.7287 31.8165Z" fill="#1B1A1F"/>
<path d="M85.1049 27.8238C85.0579 27.8238 85.0109 27.8081 84.9796 27.7767C84.87 27.6981 84.8387 27.5566 84.917 27.4466C84.9953 27.3209 86.9993 24.413 90.8821 23.8472C91.0073 23.8315 91.1326 23.9101 91.1482 24.0515C91.1639 24.1773 91.0856 24.303 90.9447 24.3187C87.2811 24.8531 85.3241 27.6981 85.3084 27.7138C85.2615 27.7924 85.1832 27.8238 85.1049 27.8238Z" fill="#1B1A1F"/>
<path d="M87.0777 38.041C86.8115 38.041 86.5767 37.9938 86.3732 37.8524C86.0444 37.6323 85.9191 37.2237 85.9974 36.6578C86.3575 33.9386 84.0717 31.0622 84.0403 31.0308C83.9621 30.9365 83.9777 30.7793 84.0717 30.7007C84.1656 30.6221 84.3222 30.6378 84.4004 30.7321C84.4944 30.8579 86.8428 33.7971 86.4514 36.705C86.4045 37.0822 86.4671 37.3337 86.6393 37.4594C87.109 37.7895 88.4241 37.2865 89.1443 36.8779C89.2539 36.815 89.3948 36.8622 89.4574 36.9722C89.5201 37.0822 89.4731 37.2237 89.3635 37.2865C89.2069 37.4123 88.0171 38.041 87.0777 38.041Z" fill="#1B1A1F"/>
<path d="M82.4433 35.3847C82.0989 35.5418 81.6918 35.3847 81.5352 35.0389L81.1438 34.1744C80.9873 33.8286 81.1439 33.4199 81.4883 33.2627C81.8327 33.1056 82.2398 33.2627 82.3963 33.6085L82.7877 34.473C82.9287 34.8188 82.7878 35.2275 82.4433 35.3847Z" fill="#1B1A1F"/>
<path d="M90.0522 30.8266C89.7078 30.9837 89.3007 30.8265 89.1441 30.4808L88.7527 29.6163C88.5962 29.2705 88.7527 28.8618 89.0972 28.7046C89.4416 28.5474 89.8487 28.7046 90.0052 29.0504L90.3966 29.9149C90.5375 30.2607 90.3966 30.6694 90.0522 30.8266Z" fill="#1B1A1F"/>
<path d="M93.5904 39.8639C93.5121 39.8639 93.4339 39.8168 93.3869 39.7539C93.3243 39.6439 93.3556 39.5024 93.4652 39.4238C93.4965 39.4081 94.7803 38.5122 95.1717 34.5513C95.1874 34.4255 95.297 34.3312 95.4222 34.3469C95.5475 34.3626 95.6414 34.4727 95.6257 34.5984C95.1873 38.858 93.7626 39.7853 93.7 39.8325C93.6687 39.8482 93.6374 39.8639 93.5904 39.8639Z" fill="#1B1A1F"/>
<path d="M113.693 113.267L118.014 110.359L155.089 102.453L163.793 125.086L162.009 127.9L113.693 113.267Z" fill="#242424"/>
<path d="M133.06 54.1828L136.88 52.8311L155.057 99.2462L150.908 100.048L137.694 92.9118L133.06 54.1828Z" fill="#242424"/>
<path d="M85.606 73.2485L88.0014 71.8496L112.613 106.948L92.4634 143.948L90.6786 142.109L85.606 73.2485Z" fill="#242424"/>
<path d="M92.4634 146.699L95.3128 154.023L162.009 127.9L153.21 105.266L113.693 113.267L92.4634 146.699Z" fill="#00E26C"/>
<path d="M121.475 153.788C121.334 153.788 121.193 153.788 121.052 153.772C118.297 153.489 115.651 150.392 113.615 145.08C111.001 138.274 107.838 134.407 104.206 133.59C100.605 132.788 97.8494 135.398 97.8181 135.429L97.7085 135.319C97.7398 135.288 100.558 132.615 104.237 133.448C107.916 134.266 111.11 138.164 113.756 145.033C115.776 150.298 118.375 153.347 121.068 153.63C122.68 153.803 124.183 152.939 125.311 151.21C127.346 148.066 127.956 141.889 124.449 135.79C115.932 120.937 112.692 112.811 114.242 110.202C114.617 109.589 115.259 109.274 116.167 109.306C118.751 109.369 121.678 114.037 125.06 119.412C129.24 126.077 134.454 134.36 140.654 136.199C142.063 136.624 143.206 136.403 144.051 135.586C149.233 130.509 142.266 103.914 142.188 103.647L142.345 103.6C142.36 103.663 144.145 110.406 145.241 117.683C146.728 127.476 146.368 133.543 144.161 135.696C143.268 136.561 142.078 136.781 140.607 136.356C134.344 134.502 129.115 126.187 124.919 119.507C121.569 114.163 118.657 109.541 116.152 109.463C115.291 109.431 114.711 109.714 114.367 110.28C112.378 113.628 119.252 126.391 124.575 135.712C128.097 141.873 127.487 148.113 125.436 151.288C124.387 152.907 122.993 153.788 121.475 153.788Z" fill="white"/>
<path d="M85.606 73.2485L109.701 107.812L90.6786 142.109L66.7715 80.6203L85.606 73.2485Z" fill="white"/>
<path d="M87.2971 129.896C85.4966 129.896 83.8527 129.582 82.6472 128.765C79.6725 126.737 85.4966 117.322 94.0606 104.229C96.5186 100.457 98.8514 96.9043 100.417 94.2008C102.672 90.287 102.421 89.6269 102.28 89.5168C102.139 89.4068 101.482 89.2496 98.5853 92.0003C96.5813 93.9179 94.0763 96.6842 91.4147 99.6078C84.1972 107.545 78.7018 113.33 75.9307 113.33C75.5549 113.33 75.2261 113.22 74.9599 112.999C72.6585 111.145 77.5276 103.679 83.1795 95.0495C87.939 87.7721 93.3248 79.5202 92.6202 76.5495C92.5106 76.0623 92.2601 75.9522 92.1036 75.9051C91.1642 75.685 88.1739 76.8953 78.7644 87.332C73.363 93.3206 68.4313 99.5134 68.3687 99.5763L67.8833 99.1834C67.9303 99.1205 72.8777 92.9119 78.2947 86.9076C81.473 83.3711 84.1971 80.6047 86.389 78.6557C89.2228 76.1409 91.1486 75.0249 92.2445 75.2764C92.6046 75.355 93.0586 75.6064 93.2309 76.3923C93.998 79.6302 88.988 87.2849 83.6962 95.3796C78.9053 102.704 73.4882 111.003 75.3513 112.496C75.9306 112.968 77.4493 112.779 81.3634 109.196C84.2598 106.539 87.6729 102.799 90.9607 99.1677C97.5363 91.9374 101.325 87.8822 102.687 89.0138C103.971 90.0827 100.793 95.081 94.5929 104.559C91.3364 109.526 87.6572 115.169 85.2461 119.648C81.974 125.762 82.2245 127.68 83.0073 128.214C87.9547 131.578 101.325 125.621 101.466 125.574L101.717 126.155C101.278 126.36 93.3248 129.896 87.2971 129.896Z" fill="#0038FF"/>
<path d="M90.7256 70.7655L114.836 105.408L150.908 100.048L133.06 54.1831L90.7256 70.7655Z" fill="#FF7777"/>
<path d="M120.144 108.96L129.428 95.9455L107.759 99.4034L111.251 76.8324L102.499 90.9786L102.295 90.8529L111.329 76.2352L114.257 57.3422L114.492 57.3736L111.642 75.7322L125.545 53.2555L125.576 53.2398L143.847 44.8936L147.245 71.3312L147.213 71.3626L129.929 95.6468L159.77 90.8843L120.144 108.96ZM129.741 95.914L120.832 108.394L158.094 91.3873L129.741 95.914ZM111.564 76.3452L108.026 99.1362L129.6 95.694L147.01 71.284L143.675 45.2551L125.717 53.4598L111.564 76.3452Z" fill="#1B1A1F"/>
<path d="M84.5884 103.699C85.2966 102.211 80.3683 98.3652 73.5806 95.1094C66.7929 91.8536 60.7162 90.4207 60.008 91.9089C59.2997 93.3971 64.2281 97.2429 71.0158 100.499C77.8035 103.754 83.8801 105.187 84.5884 103.699Z" fill="#1B1A1F"/>
<path d="M141.128 41C141.483 42.1988 141.252 43.491 140.527 44.503C139.988 45.2659 139.572 46.0755 140.049 46.2623C141.005 46.6515 142.669 47.5234 141.714 48.2862C140.758 49.0491 120 54 120 54C120 54 139.217 44.5964 141.128 41Z" fill="#1B1A1F"/>
<path d="M82.5215 72.951C81.3943 72.2751 72.298 75.8274 69.5268 76.9434C69.0101 77.1477 68.6031 77.5564 68.3995 78.0593L61.7143 94.7047L60.5088 101.07L69.4798 106.933L75.9615 101.07L81.9266 88.1188L72.6424 79.9298C74.7717 79.0339 80.815 76.4561 81.9266 75.796C83.2887 75.0258 83.8523 73.7369 82.5215 72.951Z" fill="#FD9F84"/>
<path d="M71.3433 79.5371C71.3433 79.5371 82.8193 74.2874 84.6354 74.7746C86.4516 75.2619 86.6864 76.5665 85.5905 77.3052C84.4945 78.0597 74.4588 83.1208 74.4588 83.1208L71.3433 79.5371Z" fill="#FD9F84"/>
<path d="M73.7383 82.2878C73.7383 82.2878 85.2457 76.3464 86.6547 77.3995C89.8016 79.7729 77.4488 86.0444 77.4488 86.0444L73.7383 82.2878Z" fill="#FD9F84"/>
<path d="M77.5586 84.9437C77.5586 84.9437 84.8388 79.8982 86.5297 80.8099C88.2205 81.7215 81.9424 88.1345 81.9424 88.1345L77.5586 84.9437Z" fill="#FD9F84"/>
<path d="M71.9223 80.4953C71.8283 80.4953 71.7501 80.4482 71.7031 80.3539C71.6405 80.2438 71.7031 80.1024 71.8127 80.0395L82.8034 74.774C82.913 74.7111 83.0539 74.774 83.1165 74.884C83.1791 74.9941 83.1165 75.1355 83.0069 75.1984L72.0162 80.4639C71.9849 80.4796 71.9536 80.4953 71.9223 80.4953Z" fill="#1B1A1F"/>
<path d="M76.3063 83.3876C76.228 83.3876 76.1497 83.3561 76.1027 83.2776C76.0401 83.1675 76.0714 83.0261 76.181 82.9475L85.4809 77.1004C85.5905 77.0375 85.7313 77.069 85.8096 77.179C85.8722 77.289 85.8409 77.4305 85.7313 77.5091L76.4315 83.3561C76.3845 83.3876 76.3532 83.3876 76.3063 83.3876Z" fill="#1B1A1F"/>
<path d="M79.3432 85.7614C79.2806 85.7614 79.2023 85.73 79.1554 85.6671C79.0771 85.5571 79.0928 85.4156 79.2023 85.337L85.4492 80.4959C85.5588 80.4173 85.6997 80.433 85.778 80.5431C85.8563 80.6531 85.8406 80.7945 85.731 80.8731L79.4842 85.7143C79.4529 85.7457 79.4059 85.7614 79.3432 85.7614Z" fill="#1B1A1F"/>
<path d="M85 103.759L63.8918 145.13C60.9491 150.891 54.0933 153.48 48.0329 151.144C43.0382 149.202 40 144.467 40 139.479C40 137.775 40.3499 136.038 41.0975 134.381L59.9947 92C59.2789 93.4837 64.2895 97.3509 71.1771 100.618C78.0647 103.886 84.2365 105.322 84.9523 103.838C84.9682 103.807 84.9841 103.775 84.9841 103.759H85Z" fill="#0038FF"/>
<path d="M221.709 156H0.291379C0.134488 156 0 155.77 0 155.5C0 155.231 0.134488 155 0.291379 155H221.709C221.866 155 222 155.231 222 155.5C222 155.77 221.866 156 221.709 156Z" fill="#1B1A1F"/>
<path d="M168.634 148.616C169.56 147.437 165.743 142.864 160.108 138.403C154.472 133.942 149.153 131.281 148.227 132.46C147.301 133.639 151.118 138.212 156.753 142.673C162.388 147.135 167.708 149.795 168.634 148.616Z" fill="#1B1A1F"/>
<path d="M153.523 130.258C153.523 130.258 146.697 142.077 143.894 143.775C141.092 145.472 132.857 149.261 134.046 151.98C135.471 155.202 145.945 149.936 145.945 149.936L157.296 157.23L167.707 142.125L167.504 117.84L153.523 130.258Z" fill="#FD9F84"/>
<path d="M145.898 146.902C145.898 146.902 132.23 166.361 133.593 167.964C135.252 169.913 136.379 169.018 138.79 166.063C141.201 163.108 150.157 148.977 150.157 148.977L145.898 146.902Z" fill="#FD9F84"/>
<path d="M142.016 159.477C142.016 159.477 143.268 163.155 145.382 161.41C145.382 161.41 145.413 161.803 145.82 162.447C146.603 163.721 148.231 163.972 149.687 163.076C149.687 163.076 149.108 164.381 150.799 164.868C153.179 165.544 157.672 156.742 157.672 156.742L148.607 146.494L142.016 159.477Z" fill="#FD9F84"/>
<path d="M138.274 166.927C138.227 166.927 138.18 166.911 138.133 166.88C138.023 166.801 138.008 166.66 138.07 166.55L146.744 154.148C146.822 154.038 146.963 154.023 147.073 154.086C147.182 154.164 147.198 154.306 147.135 154.416L138.462 166.817C138.415 166.896 138.352 166.927 138.274 166.927Z" fill="#1B1A1F"/>
<path d="M145.163 142.769L151.128 144.592L147.934 139.405C147.934 139.421 145.554 142.407 145.163 142.769Z" fill="#D1836D"/>
<path d="M145.554 161.677C145.507 161.677 145.46 161.662 145.413 161.63C145.304 161.552 145.288 161.41 145.351 161.3L149.265 155.626C149.343 155.516 149.484 155.485 149.593 155.563C149.703 155.642 149.719 155.783 149.656 155.893L145.742 161.567C145.695 161.646 145.632 161.677 145.554 161.677Z" fill="#1B1A1F"/>
<path d="M149.359 163.422C149.312 163.422 149.28 163.406 149.233 163.39C149.124 163.328 149.092 163.17 149.155 163.06L152.521 157.685C152.584 157.575 152.74 157.543 152.85 157.606C152.959 157.669 152.991 157.826 152.928 157.936L149.562 163.312C149.515 163.39 149.437 163.422 149.359 163.422Z" fill="#1B1A1F"/>
<path d="M200.225 106.131L168.741 148.428C169.21 147.013 165.484 142.659 160.114 138.4C154.603 134.046 149.405 131.405 148.309 132.38L177.665 89.8314C182.221 83.2141 191.395 81.8309 197.705 86.8135C203.623 91.4817 204.75 100.064 200.225 106.131Z" fill="#0038FF"/>
<path d="M148.294 132.616C148.247 132.616 148.2 132.6 148.153 132.569C148.043 132.49 148.012 132.349 148.09 132.239L176.006 91.7808C176.084 91.6708 176.225 91.6394 176.334 91.718C176.444 91.7966 176.475 91.938 176.397 92.048L148.497 132.506C148.45 132.569 148.372 132.616 148.294 132.616Z" fill="#1B1A1F"/>
</svg>
