<svg width="222" height="165" viewBox="0 0 222 165" fill="none" xmlns="http://www.w3.org/2000/svg">
<path d="M80.1092 56.0005L98 85.5432L67.1649 93.0005L53 57.2248L80.1092 56.0005Z" fill="#1B1A1F"/>
<path d="M189.167 42.9582C189.167 42.9582 193.152 40.3606 194.717 37.505C196.282 34.6493 195.588 25.8564 195.588 25.8564L185.876 33.0843L189.167 42.9582Z" fill="#242424"/>
<path d="M189.974 38.3282L184.085 66.5299L168.645 70.5795L163.434 54.9621L165.338 46.6694L168.339 33.6011L174.308 34.9079L189.974 38.3282Z" fill="#FD9F84"/>
<path d="M182.698 45.846L165.338 46.6689L168.339 33.6006L174.308 34.9074L182.698 45.846Z" fill="#D1836D"/>
<path d="M84.1372 159.411C84.1372 159.411 105.805 69.1272 130.296 55.349L163.773 53.5098L169.823 64.1096L185.36 59.7212C185.36 59.7212 205.688 75.9517 209.076 80.3724L204.753 159.411H84.1372Z" fill="#1B1A1F"/>
<path d="M168.888 9.1582C168.888 9.1582 157.578 38.3763 165.548 42.7969C177.955 49.6699 188.91 44.0231 188.91 44.0231L195.928 16.0957L168.888 9.1582Z" fill="#FD9F84"/>
<path d="M167.452 12.3042C167.452 12.3042 174.825 14.9663 188.651 17.4832C188.651 17.4832 187.796 26.6794 192.991 27.7926C198.186 28.9219 198.928 21.9845 196.573 20.5324C196.573 20.5324 198.654 17.5799 195.944 16.0795L177.229 7.6416H170.872L167.468 9.78737V12.3042H167.452Z" fill="#242424"/>
<path d="M195.927 16.0796C195.927 16.0796 149.124 3.51142 147.381 4.28584C145.639 5.06025 148.849 7.49644 155.448 9.14207C162.031 10.7877 167.435 12.2881 167.435 12.2881L168.71 9.75516L195.927 16.0796Z" fill="#0038FF"/>
<path d="M168.016 8.80329C168.016 8.80329 175.26 -1.31252 186.183 1.17206C197.105 3.65665 195.944 16.0796 195.944 16.0796L168.016 8.80329Z" fill="#0038FF"/>
<path d="M187.651 23.2753C187.586 23.2753 187.522 23.2591 187.474 23.2268C183.376 20.6939 180.859 22.0491 180.746 22.1136C180.584 22.2104 180.375 22.1459 180.294 21.9846C180.197 21.8232 180.262 21.6135 180.423 21.5328C180.536 21.4683 183.376 19.9033 187.828 22.6622C187.99 22.759 188.038 22.9687 187.941 23.13C187.877 23.2107 187.764 23.2753 187.651 23.2753Z" fill="#1B1A1F"/>
<path d="M175.421 20.839C175.324 20.839 175.244 20.8067 175.179 20.7261C175.163 20.7099 173.195 18.5964 169.484 18.8062C169.307 18.8223 169.145 18.6771 169.129 18.4835C169.113 18.306 169.258 18.1447 169.452 18.1286C173.518 17.9027 175.599 20.1775 175.679 20.2743C175.809 20.4195 175.792 20.6293 175.647 20.7422C175.583 20.8229 175.502 20.839 175.421 20.839Z" fill="#1B1A1F"/>
<path d="M172.114 32.8262C172.017 32.8262 171.921 32.7777 171.856 32.6971C171.84 32.6809 170.21 30.5997 170.662 29.3413C170.759 29.0509 171.017 28.6959 171.646 28.5669C173.066 28.2926 175.518 23.0169 175.712 22.307C175.744 22.1457 175.873 22.0327 176.051 22.0327C176.228 22.0327 176.39 22.1779 176.39 22.3715C176.39 22.7103 173.76 28.8411 171.791 29.2283C171.437 29.2929 171.34 29.4542 171.307 29.5672C171.065 30.2448 171.969 31.7613 172.388 32.2615C172.501 32.4067 172.485 32.6164 172.34 32.7294C172.259 32.81 172.195 32.8262 172.114 32.8262Z" fill="#1B1A1F"/>
<path d="M171.227 25.0658C170.775 24.9206 170.533 24.4527 170.662 24.0171L170.985 22.9845C171.13 22.5328 171.598 22.2908 172.033 22.4198C172.485 22.565 172.727 23.0329 172.598 23.4685L172.275 24.5011C172.146 24.9528 171.678 25.211 171.227 25.0658Z" fill="#1B1A1F"/>
<path d="M181.585 27.5018C181.133 27.3566 180.891 26.8887 181.02 26.4531L181.343 25.4205C181.488 24.9688 181.956 24.7268 182.391 24.8559C182.843 25.0011 183.085 25.4689 182.956 25.9045L182.633 26.9371C182.504 27.3889 182.02 27.6309 181.585 27.5018Z" fill="#1B1A1F"/>
<path d="M175.131 36.1819C174.954 36.1819 174.792 36.0367 174.792 35.8592C174.792 35.6818 174.938 35.5204 175.115 35.5204C175.147 35.5204 178.293 35.4397 180.036 33.7618C180.165 33.6328 180.375 33.6328 180.504 33.7618C180.633 33.8909 180.633 34.1006 180.504 34.2297C178.584 36.1012 175.277 36.1819 175.131 36.1819Z" fill="#1B1A1F"/>
<path d="M186.683 29.1477C186.683 29.1477 192.926 24.2431 195.588 25.8565C198.25 27.4699 197.089 33.8911 189.861 35.8594L186.683 29.1477Z" fill="#FD9F84"/>
<path d="M189.006 32.8263C188.893 32.8263 188.78 32.7618 188.716 32.6488C188.619 32.4875 188.684 32.2778 188.845 32.1971L194.04 29.3092C194.201 29.2123 194.411 29.2769 194.492 29.4382C194.589 29.5996 194.524 29.8093 194.363 29.89L189.168 32.7779C189.119 32.8263 189.055 32.8263 189.006 32.8263Z" fill="#1B1A1F"/>
<path d="M211.9 86.4543L221.741 144.068C222.887 150.812 220.176 157.685 214.61 161.637C211.738 163.67 208.496 164.687 205.35 163.751C198.977 161.863 194.863 155.7 195.54 149.085L186.828 90.4393C185.892 84.0988 189.813 78.0487 195.992 76.3385C203.236 74.354 210.625 79.0328 211.9 86.4543Z" fill="#1B1A1F"/>
<path d="M193.056 132.532C192.943 132.532 192.83 132.451 192.814 132.322L187.312 98.3769C187.296 98.2478 187.377 98.1188 187.506 98.1026C187.635 98.0865 187.764 98.1672 187.78 98.2962L193.282 132.242C193.298 132.371 193.217 132.5 193.088 132.516C193.072 132.532 193.056 132.532 193.056 132.532Z" fill="white"/>
<path d="M172.679 72.2243C172.582 72.2243 172.485 72.1598 172.453 72.063L169.678 64.4318L160.546 68.2716C160.417 68.32 160.288 68.2716 160.224 68.1425L154.222 54.1223C154.174 53.9933 154.222 53.8642 154.351 53.7997C154.48 53.7513 154.609 53.7997 154.674 53.9287L160.579 67.723L169.727 63.8832C169.791 63.8509 169.856 63.8509 169.92 63.8832C169.985 63.9155 170.033 63.9639 170.049 64.0284L172.84 71.6758L191.846 65.0126C191.975 64.9642 192.104 65.0287 192.152 65.1578C192.201 65.2868 192.136 65.4159 192.007 65.4643L172.776 72.2082C172.727 72.2082 172.711 72.2243 172.679 72.2243Z" fill="white"/>
<path d="M161.192 49.3306H12.0518V60.5919H161.192V49.3306Z" fill="#0038FF"/>
<path d="M131.619 58.5428C129.65 58.5428 128.037 56.9455 128.037 54.9611C128.037 52.9766 129.634 51.3794 131.619 51.3794C133.603 51.3794 135.2 52.9766 135.2 54.9611C135.2 56.9455 133.587 58.5428 131.619 58.5428ZM131.619 51.8795C129.909 51.8795 128.521 53.267 128.521 54.9772C128.521 56.6874 129.909 58.0749 131.619 58.0749C133.329 58.0749 134.716 56.6874 134.716 54.9772C134.716 53.267 133.329 51.8795 131.619 51.8795Z" fill="white"/>
<path d="M154.432 58.5428C152.463 58.5428 150.85 56.9455 150.85 54.9611C150.85 52.9766 152.447 51.3794 154.432 51.3794C156.416 51.3794 158.013 52.9766 158.013 54.9611C158.013 56.9455 156.4 58.5428 154.432 58.5428ZM154.432 51.8795C152.722 51.8795 151.334 53.267 151.334 54.9772C151.334 56.6874 152.722 58.0749 154.432 58.0749C156.142 58.0749 157.529 56.6874 157.529 54.9772C157.529 53.267 156.142 51.8795 154.432 51.8795Z" fill="white"/>
<path d="M143.026 58.5428C141.057 58.5428 139.444 56.9455 139.444 54.9611C139.444 52.9766 141.041 51.3794 143.026 51.3794C145.01 51.3794 146.607 52.9766 146.607 54.9611C146.607 56.9455 144.994 58.5428 143.026 58.5428ZM143.026 51.8795C141.315 51.8795 139.928 53.267 139.928 54.9772C139.928 56.6874 141.315 58.0749 143.026 58.0749C144.736 58.0749 146.123 56.6874 146.123 54.9772C146.123 53.267 144.736 51.8795 143.026 51.8795Z" fill="white"/>
<path d="M161.192 63.9805H12.0522V137.421H161.192V63.9805Z" fill="white"/>
<path d="M161.192 137.662H12.0521C11.923 137.662 11.8101 137.549 11.8101 137.42V63.9798C11.8101 63.8507 11.923 63.7378 12.0521 63.7378H161.192C161.321 63.7378 161.434 63.8507 161.434 63.9798V137.42C161.434 137.549 161.321 137.662 161.192 137.662ZM12.2941 137.178H160.95V64.2218H12.2941V137.178Z" fill="#1B1A1F"/>
<path d="M58.6459 81.8076H12.0518V103.911H58.6459V81.8076Z" fill="#1B1A1F"/>
<path d="M55.3226 78.5811H0.242188V100.684H55.3226V78.5811Z" fill="white"/>
<path d="M55.3224 100.942H0.242005C0.112936 100.942 0 100.829 0 100.7V78.597C0 78.4679 0.112936 78.355 0.242005 78.355H55.3224C55.4515 78.355 55.5644 78.4679 55.5644 78.597V100.7C55.5644 100.829 55.4515 100.942 55.3224 100.942ZM0.484011 100.458H55.0804V78.839H0.484011V100.458Z" fill="#1B1A1F"/>
<path d="M20.667 88.9552H7.80841C7.67934 88.9552 7.56641 88.8423 7.56641 88.7132C7.56641 88.5841 7.67934 88.4712 7.80841 88.4712H20.667C20.796 88.4712 20.909 88.5841 20.909 88.7132C20.909 88.8423 20.796 88.9552 20.667 88.9552Z" fill="#1B1A1F"/>
<path d="M42.625 88.9552H29.7664C29.6373 88.9552 29.5244 88.8423 29.5244 88.7132C29.5244 88.5841 29.6373 88.4712 29.7664 88.4712H42.625C42.754 88.4712 42.867 88.5841 42.867 88.7132C42.867 88.8423 42.754 88.9552 42.625 88.9552Z" fill="#1B1A1F"/>
<path d="M20.8771 95.9568C20.861 95.9568 20.8288 95.9568 20.8126 95.9406C20.6836 95.9084 20.619 95.7632 20.6513 95.6341L24.2814 83.5177C24.3136 83.3886 24.4588 83.3241 24.5879 83.3564C24.717 83.3886 24.7815 83.5338 24.7492 83.6629L21.1192 95.7793C21.0707 95.8761 20.9739 95.9568 20.8771 95.9568Z" fill="#1B1A1F"/>
<path d="M26.2493 95.9568C26.2331 95.9568 26.2008 95.9568 26.1847 95.9406C26.0556 95.9084 25.9911 95.7632 26.0234 95.6341L29.6534 83.5177C29.6857 83.3886 29.8309 83.3241 29.96 83.3564C30.0891 83.3886 30.1536 83.5338 30.1213 83.6629L26.4913 95.7793C26.4429 95.8761 26.3461 95.9568 26.2493 95.9568Z" fill="#1B1A1F"/>
<path d="M144.413 97.9736H84.1372V123.868H144.413V97.9736Z" fill="#00E26C"/>
<path d="M136.023 116.576H75.7479C75.6188 116.576 75.5059 116.463 75.5059 116.334V88.6483C75.5059 88.5192 75.6188 88.4062 75.7479 88.4062H136.023C136.152 88.4062 136.265 88.5192 136.265 88.6483V116.334C136.265 116.463 136.152 116.576 136.023 116.576ZM75.9899 116.092H135.781V88.8903H75.9899V116.092Z" fill="#1B1A1F"/>
<path d="M136.023 95.1183H75.7479C75.6188 95.1183 75.5059 95.0054 75.5059 94.8763C75.5059 94.7472 75.6188 94.6343 75.7479 94.6343H136.023C136.152 94.6343 136.265 94.7472 136.265 94.8763C136.265 95.0054 136.152 95.1183 136.023 95.1183Z" fill="#1B1A1F"/>
<path d="M123.694 93.0153C124.393 92.316 124.393 91.1821 123.694 90.4827C122.995 89.7833 121.861 89.7834 121.161 90.4827C120.462 91.1821 120.462 92.316 121.161 93.0153C121.861 93.7147 122.995 93.7147 123.694 93.0153Z" fill="#00E26C"/>
<path d="M129.02 92.0394C129.178 91.0631 128.515 90.1433 127.539 89.9848C126.562 89.8264 125.643 90.4894 125.484 91.4656C125.326 92.4419 125.989 93.3618 126.965 93.5203C127.941 93.6787 128.861 93.0157 129.02 92.0394Z" fill="#00E26C"/>
<path d="M133.31 93.0163C134.01 92.3169 134.009 91.1831 133.31 90.4837C132.611 89.7843 131.477 89.7843 130.778 90.4837C130.078 91.183 130.078 92.3169 130.778 93.0163C131.477 93.7157 132.611 93.7157 133.31 93.0163Z" fill="#00E26C"/>
<path d="M114.678 100.942H72.3758C72.2467 100.942 72.1338 100.829 72.1338 100.7C72.1338 100.571 72.2467 100.458 72.3758 100.458H114.678C114.807 100.458 114.92 100.571 114.92 100.7C114.92 100.829 114.807 100.942 114.678 100.942Z" fill="#1B1A1F"/>
<path d="M114.678 106.041H72.3758C72.2467 106.041 72.1338 105.928 72.1338 105.799C72.1338 105.67 72.2467 105.557 72.3758 105.557H114.678C114.807 105.557 114.92 105.67 114.92 105.799C114.92 105.928 114.807 106.041 114.678 106.041Z" fill="#1B1A1F"/>
<path d="M114.678 111.155H72.3758C72.2467 111.155 72.1338 111.042 72.1338 110.913C72.1338 110.784 72.2467 110.671 72.3758 110.671H114.678C114.807 110.671 114.92 110.784 114.92 110.913C114.92 111.042 114.807 111.155 114.678 111.155Z" fill="#1B1A1F"/>
<path d="M158.633 132.397C161.433 125.552 162.546 119.53 161.12 118.946C159.693 118.362 156.266 123.439 153.466 130.284C150.666 137.129 149.553 143.152 150.98 143.735C152.407 144.319 155.833 139.243 158.633 132.397Z" fill="white"/>
<path d="M151.205 144.035C151.092 144.035 150.979 144.019 150.866 143.971C150.043 143.632 149.866 142.067 150.382 139.324C150.85 136.759 151.866 133.532 153.222 130.193C155.722 124.078 159.368 117.963 161.192 118.722C162.014 119.06 162.192 120.625 161.676 123.368C161.208 125.933 160.191 129.16 158.836 132.5C157.481 135.823 155.932 138.84 154.464 141.002C153.109 143.019 152.012 144.035 151.205 144.035ZM160.837 119.141C159.578 119.141 156.464 123.546 153.673 130.386C152.318 133.678 151.318 136.888 150.85 139.421C150.334 142.18 150.608 143.358 151.044 143.535C151.479 143.713 152.496 143.067 154.06 140.744C155.496 138.615 157.029 135.63 158.384 132.322C159.74 129.031 160.74 125.82 161.208 123.288C161.724 120.529 161.45 119.351 161.014 119.173C160.966 119.157 160.901 119.141 160.837 119.141Z" fill="#1B1A1F"/>
<path d="M163.467 125.836L148.462 119.415L142.057 134.968L157.787 142.228L163.467 125.836Z" fill="#FD9F84"/>
<path d="M148.462 119.416C148.462 119.416 132.877 113.124 131.99 113.22C130.764 113.333 130.409 115.415 131.538 116.463C132.667 117.496 147.301 124.917 147.301 124.917L148.462 119.416Z" fill="#FD9F84"/>
<path d="M137.846 132.838C138.653 133.338 141.267 134.613 144.364 136.065C146.559 134.758 148.043 123.691 148.043 123.691C148.043 123.691 138.718 119.657 137.83 119.98C136.943 120.286 135.2 122.174 136.491 123.384C136.669 123.545 136.975 123.755 137.346 123.997C135.475 124.046 134.313 126.708 136.136 128.208H136.12C136.023 128.337 134.103 130.499 137.846 132.838Z" fill="#FD9F84"/>
<path d="M144.8 127.692C144.752 127.692 144.703 127.676 144.655 127.66L136.346 123.675C136.185 123.594 136.12 123.4 136.201 123.255C136.281 123.094 136.475 123.029 136.62 123.11L144.929 127.095C145.09 127.176 145.155 127.369 145.074 127.514C145.042 127.627 144.929 127.692 144.8 127.692Z" fill="#1B1A1F"/>
<path d="M146.478 124.175C146.429 124.175 146.381 124.159 146.333 124.143L132.216 117.302C132.054 117.221 131.99 117.028 132.07 116.883C132.151 116.721 132.345 116.657 132.49 116.737L146.607 123.578C146.768 123.659 146.833 123.852 146.752 123.998C146.72 124.11 146.607 124.175 146.478 124.175Z" fill="#1B1A1F"/>
<path d="M143.299 132.177C143.251 132.177 143.202 132.161 143.154 132.145L135.974 128.499C135.813 128.418 135.748 128.225 135.829 128.063C135.91 127.902 136.103 127.837 136.265 127.918L143.444 131.564C143.606 131.645 143.67 131.839 143.589 132C143.525 132.113 143.428 132.177 143.299 132.177Z" fill="#1B1A1F"/>
<path d="M161.757 125.11C161.757 125.11 156.465 119.302 155.093 116.737C153.722 114.156 150.963 114.156 151.592 117.592C152.205 121.029 152.222 123.691 152.222 123.691L159.337 127.982L161.757 125.11Z" fill="#FD9F84"/>
<path d="M201.848 163.009L151.172 143.794C152.705 143.858 155.948 138.937 158.626 132.403C161.369 125.724 162.482 119.819 161.208 118.996L211.528 136.017C219.353 138.663 223.322 147.359 220.208 155.006C217.272 162.218 209.125 165.768 201.848 163.009Z" fill="#1B1A1F"/>
<path d="M209.06 135.437C209.028 135.437 209.012 135.437 208.98 135.42L161.127 119.238C160.998 119.19 160.933 119.061 160.982 118.932C161.03 118.803 161.159 118.738 161.288 118.787L209.141 134.969C209.27 135.017 209.335 135.146 209.286 135.275C209.254 135.372 209.157 135.437 209.06 135.437Z" fill="white"/>
<path d="M59.1303 47.4272C58.8076 48.1371 58.856 48.9761 59.1787 49.6859C60.1467 51.8317 62.9862 57.6076 65.1966 57.1236C67.907 56.5266 65.5838 51.7349 64.2124 48.8954C63.0508 46.4753 60.0822 45.2814 59.1303 47.4272Z" fill="#FD9F84"/>
<path d="M63.2764 47.7496C63.2764 47.7496 66.9387 57.8009 69.633 57.1394C72.3435 56.4618 70.0203 51.0086 68.6489 47.7496C67.2775 44.4906 63.4054 43.1676 63.2764 47.7496Z" fill="#FD9F84"/>
<path d="M71.7792 48.7176C71.7792 48.7176 75.2479 57.3814 77.555 55.8487C79.12 54.8 78.1036 51.3313 76.1998 48.4595C74.4412 45.8135 71.0531 45.0553 71.7792 48.7176Z" fill="#FD9F84"/>
<path d="M67.2617 47.9593C67.2617 47.9593 70.8918 57.7685 73.6023 57.1232C76.3127 56.4778 73.812 51.3473 72.6181 48.169C71.0531 43.942 67.3908 43.587 67.2617 47.9593Z" fill="#FD9F84"/>
<path d="M74.6991 53.9933C74.6346 53.9933 74.5862 53.961 74.5539 53.8965L72.1016 47.5237C72.0693 47.443 72.1177 47.3624 72.1822 47.3301C72.2629 47.2978 72.3436 47.3462 72.3758 47.4108L74.8282 53.7836C74.8604 53.8642 74.812 53.9449 74.7475 53.9772C74.7314 53.9933 74.7153 53.9933 74.6991 53.9933Z" fill="#1B1A1F"/>
<path d="M71.0531 55.6394C70.9885 55.6394 70.9402 55.6072 70.9079 55.5426L67.3101 45.9754C67.2778 45.8947 67.3262 45.814 67.3907 45.7818C67.4714 45.7495 67.5521 45.7979 67.5843 45.8624L71.1822 55.4297C71.2144 55.5104 71.166 55.591 71.1015 55.6233C71.0854 55.6394 71.0692 55.6394 71.0531 55.6394Z" fill="#1B1A1F"/>
<path d="M66.4229 54.9615C66.3584 54.9615 66.31 54.9292 66.2777 54.8647L63.0026 47.5238C62.9703 47.4432 63.0026 47.3625 63.0833 47.3302C63.1639 47.298 63.2446 47.3302 63.2769 47.4109L66.552 54.7517C66.5843 54.8324 66.552 54.9131 66.4713 54.9453C66.4552 54.9453 66.4391 54.9615 66.4229 54.9615Z" fill="#1B1A1F"/>
</svg>
