<svg width="41" height="40" viewBox="0 0 41 40" fill="none" xmlns="http://www.w3.org/2000/svg">
<path d="M20.9883 0C9.9425 0 0.988281 8.95434 0.988281 20C0.988281 31.0457 9.9425 40 20.9883 40C32.0339 40 40.9883 31.0457 40.9883 20C40.9883 8.95434 32.0339 0 20.9883 0ZM27.3479 30.3049C27.0579 31.0282 26.2364 31.3794 25.5132 31.0892C25.455 31.0659 25.3984 31.0388 25.3439 31.0079L19.9145 26.7892L16.4299 30.004C16.2656 30.1254 16.0508 30.1548 15.86 30.0819L16.5279 24.105L16.5493 24.1219L16.563 24.0039C16.563 24.0039 26.333 15.1089 26.7309 14.73C27.1339 14.3519 27.001 14.2699 27.001 14.2699C27.0239 13.8088 26.2779 14.2699 26.2779 14.2699L13.3329 22.598L7.94188 20.762C7.94188 20.762 7.11388 20.465 7.03588 19.812C6.95384 19.1639 7.96886 18.812 7.96886 18.812L29.4028 10.297C29.4028 10.297 31.1649 9.51196 31.1649 10.812L27.3479 30.3049Z" fill="#0038FF"/>
</svg>
