<svg width="48" height="48" viewBox="0 0 48 48" fill="none" xmlns="http://www.w3.org/2000/svg">
<path d="M30.3475 34.3049C30.0574 35.0281 29.236 35.3793 28.5127 35.0892C28.4546 35.0659 28.398 35.0387 28.3435 35.0079L22.9141 30.7891L19.4295 34.004C19.2652 34.1254 19.0504 34.1547 18.8595 34.0818L19.5275 28.1049L19.5489 28.1219L19.5625 28.0039C19.5625 28.0039 29.3325 19.1089 29.7305 18.7299C30.1335 18.3519 30.0005 18.2699 30.0005 18.2699C30.0235 17.8088 29.2775 18.2699 29.2775 18.2699L16.3325 26.598L10.9415 24.762C10.9415 24.762 10.1135 24.465 10.0355 23.812C9.95348 23.164 10.9685 22.812 10.9685 22.812L32.4025 14.2969C32.4025 14.2969 34.1645 13.5119 34.1645 14.812L30.3475 34.3049Z" fill="#0038FF"/>
<path d="M23.9883 4C12.9425 4 3.98828 12.9543 3.98828 24C3.98828 35.0457 12.9425 44 23.9883 44C35.0339 44 43.9883 35.0457 43.9883 24C43.9883 12.9543 35.0339 4 23.9883 4ZM30.3479 34.3049C30.0579 35.0282 29.2364 35.3794 28.5132 35.0892C28.455 35.0659 28.3984 35.0388 28.3439 35.0079L22.9145 30.7892L19.4299 34.004C19.2656 34.1254 19.0508 34.1548 18.86 34.0819L19.5279 28.105L19.5493 28.1219L19.563 28.0039C19.563 28.0039 29.333 19.1089 29.7309 18.73C30.1339 18.3519 30.001 18.2699 30.001 18.2699C30.0239 17.8088 29.2779 18.2699 29.2779 18.2699L16.3329 26.598L10.9419 24.762C10.9419 24.762 10.1139 24.465 10.0359 23.812C9.95384 23.1639 10.9689 22.812 10.9689 22.812L32.4028 14.297C32.4028 14.297 34.1649 13.512 34.1649 14.812L30.3479 34.3049Z" fill="white"/>
</svg>
