<svg width="565" height="307" viewBox="0 0 565 307" fill="none" xmlns="http://www.w3.org/2000/svg">
<path d="M71.5083 50.2632H62.4043V86.6949H71.5083V50.2632Z" fill="#0038FF"/>
<path d="M98.4844 58.022H84.9971V86.6949H98.4844V58.022Z" fill="#33DC87"/>
<path d="M66.9562 59.3724C68.2601 59.3724 69.3171 58.3149 69.3171 57.0104C69.3171 55.7059 68.2601 54.6485 66.9562 54.6485C65.6523 54.6485 64.5952 55.7059 64.5952 57.0104C64.5952 58.3149 65.6523 59.3724 66.9562 59.3724Z" fill="white"/>
<path d="M84.9957 86.9183H71.5084C71.4496 86.9183 71.3932 86.895 71.3516 86.8534C71.31 86.8118 71.2866 86.7553 71.2866 86.6965V42.5045C71.2866 42.4457 71.31 42.3892 71.3516 42.3476C71.3932 42.306 71.4496 42.2827 71.5084 42.2827H84.9957C85.0545 42.2827 85.1109 42.306 85.1525 42.3476C85.1941 42.3892 85.2174 42.4457 85.2174 42.5045V86.6965C85.2174 86.7553 85.1941 86.8118 85.1525 86.8534C85.1109 86.895 85.0545 86.9183 84.9957 86.9183ZM71.7301 86.4747H84.768V42.7263H71.7301V86.4747Z" fill="#1B1A1F"/>
<path d="M84.9957 48.6141H71.5084C71.4496 48.6141 71.3932 48.5908 71.3516 48.5492C71.31 48.5076 71.2866 48.4511 71.2866 48.3923C71.2866 48.3335 71.31 48.2771 71.3516 48.2355C71.3932 48.1939 71.4496 48.1705 71.5084 48.1705H84.9957C85.0545 48.1705 85.1109 48.1939 85.1525 48.2355C85.1941 48.2771 85.2174 48.3335 85.2174 48.3923C85.2174 48.4511 85.1941 48.5076 85.1525 48.5492C85.1109 48.5908 85.0545 48.6141 84.9957 48.6141Z" fill="#1B1A1F"/>
<path d="M84.9957 51.8354H71.5084C71.4496 51.8354 71.3932 51.812 71.3516 51.7704C71.31 51.7288 71.2866 51.6724 71.2866 51.6136C71.2866 51.5547 71.31 51.4983 71.3516 51.4567C71.3932 51.4151 71.4496 51.3917 71.5084 51.3917H84.9957C85.0545 51.3917 85.1109 51.4151 85.1525 51.4567C85.1941 51.4983 85.2174 51.5547 85.2174 51.6136C85.2174 51.6724 85.1941 51.7288 85.1525 51.7704C85.1109 51.812 85.0545 51.8354 84.9957 51.8354Z" fill="#1B1A1F"/>
<path d="M95.7867 83.8819H87.6939C87.6351 83.8819 87.5787 83.8585 87.5371 83.8169C87.4955 83.7753 87.4722 83.7189 87.4722 83.6601V60.7211C87.4722 60.6623 87.4955 60.6059 87.5371 60.5643C87.5787 60.5227 87.6351 60.4993 87.6939 60.4993H95.7867C95.8455 60.4993 95.9019 60.5227 95.9435 60.5643C95.9851 60.6059 96.0084 60.6623 96.0084 60.7211V83.6601C96.0084 83.7189 95.9851 83.7753 95.9435 83.8169C95.9019 83.8585 95.8455 83.8819 95.7867 83.8819ZM87.9157 83.4382H95.5605V60.943H87.9112L87.9157 83.4382Z" fill="white"/>
<path d="M217.517 306.864H38.462C38.4032 306.864 38.3468 306.84 38.3052 306.799C38.2636 306.757 38.2402 306.7 38.2402 306.642V17.8795C38.2402 17.8206 38.2636 17.7642 38.3052 17.7226C38.3468 17.681 38.4032 17.6576 38.462 17.6576H217.517C217.576 17.6576 217.632 17.681 217.674 17.7226C217.716 17.7642 217.739 17.8206 217.739 17.8795V306.64C217.739 306.669 217.734 306.698 217.723 306.726C217.712 306.753 217.695 306.777 217.675 306.798C217.654 306.819 217.629 306.835 217.602 306.846C217.575 306.858 217.547 306.864 217.517 306.864ZM38.6838 306.42H217.296V18.1013H38.6838V306.42Z" fill="#1B1A1F"/>
<path d="M217.517 91.725H38.462C38.4032 91.725 38.3468 91.7016 38.3052 91.66C38.2636 91.6184 38.2402 91.562 38.2402 91.5031V86.7807C38.2402 86.7219 38.2636 86.6655 38.3052 86.6239C38.3468 86.5823 38.4032 86.5589 38.462 86.5589H217.517C217.576 86.5589 217.632 86.5823 217.674 86.6239C217.716 86.6655 217.739 86.7219 217.739 86.7807V91.5031C217.739 91.5323 217.733 91.5611 217.722 91.588C217.711 91.615 217.695 91.6394 217.674 91.66C217.653 91.6806 217.629 91.697 217.602 91.7081C217.575 91.7193 217.546 91.725 217.517 91.725ZM38.6838 91.2813H217.296V87.0026H38.6838V91.2813Z" fill="#1B1A1F"/>
<path d="M217.517 165.349H38.462C38.4032 165.349 38.3468 165.325 38.3052 165.284C38.2636 165.242 38.2402 165.186 38.2402 165.127V160.404C38.2402 160.346 38.2636 160.289 38.3052 160.248C38.3468 160.206 38.4032 160.183 38.462 160.183H217.517C217.576 160.183 217.632 160.206 217.674 160.248C217.716 160.289 217.739 160.346 217.739 160.404V165.127C217.739 165.186 217.716 165.242 217.674 165.284C217.632 165.325 217.576 165.349 217.517 165.349ZM38.6838 164.905H217.296V160.626H38.6838V164.905Z" fill="#1B1A1F"/>
<path d="M217.517 238.978H38.462C38.4032 238.978 38.3468 238.955 38.3052 238.913C38.2636 238.872 38.2402 238.815 38.2402 238.756V234.034C38.2402 233.975 38.2636 233.919 38.3052 233.877C38.3468 233.835 38.4032 233.812 38.462 233.812H217.517C217.576 233.812 217.632 233.835 217.674 233.877C217.716 233.919 217.739 233.975 217.739 234.034V238.756C217.739 238.815 217.716 238.872 217.674 238.913C217.632 238.955 217.576 238.978 217.517 238.978ZM38.6838 238.535H217.296V234.245H38.6838V238.535Z" fill="#1B1A1F"/>
<path d="M69.4841 137.297C69.4841 137.297 62.7411 124.134 66.1133 120.436C69.4855 116.739 77.2397 138.314 77.2397 138.314L69.4841 137.297Z" fill="#33DC87"/>
<path d="M79.4727 139.503C77.876 139.503 75.7323 139.296 74.8571 139.208C74.8059 139.202 74.7583 139.179 74.7222 139.142C74.6861 139.106 74.6638 139.058 74.659 139.007C74.5939 138.305 73.08 121.784 77.0111 119.806C77.1961 119.701 77.4057 119.648 77.6184 119.651C77.831 119.655 78.0389 119.715 78.2204 119.826C79.9945 120.885 81.0738 127.092 81.4182 138.274C81.4286 138.643 81.4375 138.907 81.4434 138.965C81.4476 139.015 81.4406 139.065 81.423 139.112C81.4053 139.159 81.3774 139.201 81.3414 139.236C81.1388 139.434 80.3967 139.503 79.4727 139.503ZM75.0847 138.782C77.6587 139.045 80.543 139.172 80.9984 138.93C80.9984 138.826 80.9865 138.634 80.9762 138.279C80.5327 123.825 78.9168 120.746 77.9957 120.197C77.8777 120.125 77.7422 120.087 77.6039 120.087C77.4657 120.087 77.3302 120.125 77.2122 120.197C73.7542 121.938 74.928 136.954 75.0847 138.782Z" fill="#1B1A1F"/>
<path d="M77.9155 141.365C77.9155 141.365 80.6121 128.525 83.6473 126.163C86.6824 123.801 85.6712 134.593 84.3214 138.644C82.9716 142.695 77.9155 141.365 77.9155 141.365Z" fill="#33DC87"/>
<path d="M92.7528 135.272L92.095 143.368H63.8444L63.0786 135.272H92.7528Z" fill="white"/>
<path d="M90.7284 160.458H65.4376C65.3825 160.458 65.3293 160.437 65.2886 160.4C65.2479 160.363 65.2225 160.311 65.2173 160.257L62.8519 135.294C62.8492 135.263 62.853 135.232 62.8629 135.203C62.8728 135.174 62.8887 135.147 62.9095 135.124C62.9303 135.101 62.9557 135.083 62.9839 135.07C63.0121 135.057 63.0427 135.051 63.0737 135.05H92.7509C92.7816 135.05 92.812 135.057 92.8401 135.069C92.8683 135.082 92.8935 135.1 92.9144 135.122C92.9352 135.145 92.9511 135.172 92.9611 135.201C92.9711 135.23 92.9751 135.261 92.9726 135.291L92.3147 143.387L90.9487 160.248C90.946 160.304 90.9217 160.358 90.8806 160.397C90.8396 160.436 90.7851 160.458 90.7284 160.458ZM65.6401 160.014H90.5244L91.8727 143.35L92.5114 135.494H63.322L65.6401 160.014Z" fill="#1B1A1F"/>
<path d="M187.844 149.103H111.973V160.236H187.844V149.103Z" fill="#F0EDEA"/>
<path d="M188.065 160.458H111.75V148.882H188.065V160.458ZM112.194 160.014H187.622V149.325H112.194V160.014Z" fill="#1B1A1F"/>
<path d="M187.843 141.682H137.263V148.766H187.843V141.682Z" fill="white"/>
<path d="M194.924 137.971H144.344V141.682H194.924V137.971Z" fill="#1B1A1F"/>
<path d="M111.973 277.291H57.0098V306.64H111.973V277.291Z" fill="#F0EDEA"/>
<path d="M112.194 306.863H56.7866V277.069H112.194V306.863ZM57.2301 306.42H111.75V277.513H57.2301V306.42Z" fill="#1B1A1F"/>
<path d="M115.852 275.942H53.1323V282.689H115.852V275.942Z" fill="#F0EDEA"/>
<path d="M116.071 282.911H52.9082V275.72H116.071V282.911ZM53.3517 282.468H115.627V276.164H53.3517V282.468Z" fill="#1B1A1F"/>
<path d="M84.4915 296.098C86.7727 296.098 88.6221 294.248 88.6221 291.966C88.6221 289.683 86.7727 287.833 84.4915 287.833C82.2102 287.833 80.3608 289.683 80.3608 291.966C80.3608 294.248 82.2102 296.098 84.4915 296.098Z" fill="#F0EDEA"/>
<path d="M84.4901 296.32C83.6293 296.32 82.7878 296.064 82.072 295.586C81.3563 295.108 80.7984 294.427 80.469 293.632C80.1396 292.836 80.0534 291.961 80.2213 291.116C80.3893 290.272 80.8038 289.496 81.4125 288.887C82.0212 288.278 82.7967 287.863 83.641 287.695C84.4852 287.527 85.3604 287.613 86.1557 287.943C86.9509 288.273 87.6307 288.831 88.1089 289.547C88.5872 290.263 88.8425 291.104 88.8425 291.966C88.8409 293.12 88.3818 294.227 87.5659 295.043C86.75 295.859 85.6439 296.318 84.4901 296.32ZM84.4901 288.055C83.717 288.055 82.9612 288.285 82.3184 288.714C81.6756 289.144 81.1746 289.755 80.8788 290.469C80.5829 291.184 80.5055 291.97 80.6563 292.729C80.8071 293.487 81.1794 294.184 81.7261 294.731C82.2728 295.278 82.9692 295.65 83.7275 295.801C84.4857 295.952 85.2717 295.874 85.9859 295.578C86.7002 295.282 87.3106 294.781 87.7402 294.138C88.1697 293.495 88.3989 292.739 88.3989 291.966C88.3978 290.929 87.9855 289.935 87.2528 289.202C86.52 288.469 85.5264 288.056 84.4901 288.055Z" fill="#1B1A1F"/>
<path d="M274.128 159.566C273.932 159.565 273.743 159.495 273.595 159.366C273.448 159.238 273.351 159.06 273.324 158.867C273.297 158.673 273.34 158.476 273.446 158.311C273.552 158.147 273.714 158.026 273.901 157.972L325.746 142.96L323.904 80.1549C323.897 79.9392 323.977 79.7297 324.125 79.5726C324.273 79.4155 324.477 79.3235 324.692 79.3171C324.908 79.3106 325.117 79.3901 325.275 79.5381C325.432 79.686 325.523 79.8904 325.53 80.1061L327.39 143.543C327.395 143.723 327.339 143.901 327.232 144.047C327.125 144.192 326.973 144.298 326.798 144.347L274.349 159.535C274.277 159.555 274.203 159.565 274.128 159.566Z" fill="#1B1A1F"/>
<path d="M226.206 279.622V306.279H151.2C147.666 306.279 144.277 304.875 141.779 302.375C139.28 299.876 137.876 296.486 137.876 292.951C137.876 289.416 139.28 286.026 141.779 283.526C144.277 281.026 147.666 279.622 151.2 279.622H226.206Z" fill="#0038FF"/>
<path d="M255.901 279.65C255.901 279.64 255.901 279.629 255.901 279.624H221.271C217.754 279.623 214.38 281.014 211.884 283.492C209.388 285.97 207.973 289.335 207.948 292.853C207.894 300.239 214.135 306.281 221.518 306.281H255.901V279.65Z" fill="white"/>
<path d="M256.02 285.451H207.125V285.894H256.02V285.451Z" fill="#1B1A1F"/>
<path d="M256.02 289.401H207.125V289.845H256.02V289.401Z" fill="#1B1A1F"/>
<path d="M256.02 293.35H207.125V293.794H256.02V293.35Z" fill="#1B1A1F"/>
<path d="M256.02 297.299H207.125V297.743H256.02V297.299Z" fill="#1B1A1F"/>
<path d="M256.02 301.248H207.125V301.691H256.02V301.248Z" fill="#1B1A1F"/>
<path d="M259.103 303.647H212.061V306.279H259.103V303.647Z" fill="#0038FF"/>
<path d="M259.103 279.622H212.061V282.255H259.103V279.622Z" fill="#0038FF"/>
<path d="M157.595 306.279C154.185 302.661 152.312 297.859 152.371 292.886C152.431 287.913 154.418 283.158 157.914 279.622H163.322C159.638 282.738 157.261 288.255 157.261 293.115C157.261 297.769 159.33 303.139 162.709 306.278L157.595 306.279Z" fill="white"/>
<path d="M234.108 253.286V279.946H159.103C155.57 279.946 152.181 278.542 149.682 276.042C147.183 273.543 145.78 270.152 145.78 266.617C145.78 263.082 147.183 259.692 149.682 257.193C152.181 254.693 155.57 253.289 159.103 253.289L234.108 253.286Z" fill="#00E26C"/>
<path d="M263.802 253.312C263.802 253.302 263.802 253.292 263.802 253.286H229.175C225.658 253.285 222.284 254.676 219.788 257.154C217.292 259.632 215.877 262.997 215.851 266.515C215.798 273.901 222.038 279.943 229.422 279.943H263.802V253.312Z" fill="white"/>
<path d="M263.924 259.114H215.029V259.558H263.924V259.114Z" fill="#1B1A1F"/>
<path d="M263.924 263.065H215.029V263.509H263.924V263.065Z" fill="#1B1A1F"/>
<path d="M263.924 267.014H215.029V267.457H263.924V267.014Z" fill="#1B1A1F"/>
<path d="M263.924 270.963H215.029V271.406H263.924V270.963Z" fill="#1B1A1F"/>
<path d="M263.924 274.911H215.029V275.355H263.924V274.911Z" fill="#1B1A1F"/>
<path d="M267.006 277.31H219.964V279.943H267.006V277.31Z" fill="#30DE83"/>
<path d="M267.006 253.286H219.964V255.918H267.006V253.286Z" fill="#FE7777"/>
<path d="M165.499 279.946C162.088 276.327 160.216 271.526 160.275 266.553C160.335 261.58 162.322 256.824 165.818 253.289H171.226C167.542 256.405 165.165 261.922 165.165 266.782C165.165 271.436 167.234 276.806 170.612 279.944L165.499 279.946Z" fill="white"/>
<path d="M213.767 280.085C211.175 276.966 209.562 273.607 208.974 270.102C208.506 267.223 208.687 264.276 209.506 261.476C210.373 258.448 211.821 255.617 213.768 253.141L214.105 253.437C214.077 253.469 211.296 256.747 209.927 261.618C208.665 266.1 208.363 272.893 214.108 279.81L213.767 280.085Z" fill="white"/>
<path d="M241.504 70.4218C241.504 70.4218 242.193 81.6753 240.125 84.9261C238.057 88.1769 219.318 76.882 219.318 76.882L241.504 70.4218Z" fill="#1B1A1F"/>
<path d="M238.982 72.9449C238.982 72.9449 242.678 116.427 220.728 123.389C198.778 130.35 197.337 106.201 197.337 106.201L212.586 76.6217L238.982 72.9449Z" fill="#1B1A1F"/>
<path d="M236.222 85.5088C236.281 84.5696 236.689 83.5447 237.553 84.0875C238.132 84.4543 238.051 85.4645 237.896 86.025C237.715 86.6787 236.918 87.6002 236.38 86.6166C236.249 86.3903 236.195 85.9599 236.222 85.5088Z" fill="#1B1A1F"/>
<path d="M235.404 92.3979L231.496 102.567L229.254 108.398L228.793 109.601L225.931 117.039L201.094 117.907C201.537 117.634 219.364 77.7013 219.364 77.7013L235.404 92.3979Z" fill="#FD9F84"/>
<path d="M231.496 102.567L229.254 108.398L228.793 109.601L217.876 100.794L231.496 102.567Z" fill="#DE856A"/>
<path d="M237.895 69.8598C240.409 72.5545 241.384 76.3303 240.719 79.9539C240.283 82.3202 239.737 85.3669 239.859 87.0959C240.169 91.5432 241.661 92.1421 241.3 93.5841C241.106 94.3636 239.253 94.8975 239.253 94.8975C239.253 94.8975 238.417 103.678 233.012 105.12C226.394 106.886 212.226 97.7149 212.111 97.1899C211.996 96.6649 210.554 77.0521 216.03 74.1991C220.615 71.8106 230.929 62.3762 237.895 69.8598Z" fill="#FD9F84"/>
<path d="M234.825 87.0085C234.857 86.2054 235.187 85.3209 235.929 85.7676C236.432 86.0634 236.381 86.936 236.26 87.4182C236.112 87.9817 235.455 88.7848 234.974 87.955C234.848 87.6564 234.797 87.3314 234.825 87.0085Z" fill="#1B1A1F"/>
<path d="M232.11 83.8923C232.057 83.8915 232.005 83.8713 231.966 83.8354C231.926 83.7996 231.9 83.7506 231.894 83.6974C231.887 83.6442 231.9 83.5904 231.93 83.5461C231.96 83.5017 232.005 83.4697 232.057 83.456C233.845 83.0157 235.676 82.7717 237.517 82.7284C237.576 82.7284 237.632 82.7517 237.674 82.7933C237.715 82.8349 237.739 82.8914 237.739 82.9502C237.739 83.009 237.715 83.0655 237.674 83.1071C237.632 83.1487 237.576 83.1721 237.517 83.1721C235.712 83.2156 233.918 83.4551 232.165 83.8864C232.147 83.8905 232.129 83.8925 232.11 83.8923Z" fill="#1B1A1F"/>
<path d="M207.472 209.173C228.209 197.196 243.688 185.18 242.046 182.335C240.404 179.49 222.263 186.893 201.526 198.87C180.79 210.847 165.311 222.863 166.953 225.708C168.595 228.553 186.736 221.15 207.472 209.173Z" fill="#1B1A1F"/>
<path d="M166.706 225.527C166.706 225.527 175.29 126.564 202.168 115.121C229.047 103.678 234.093 127.831 235.173 131.437C236.254 135.043 243.463 181.907 243.463 181.907L166.706 225.527Z" fill="#8DB9FA"/>
<path d="M240.553 215.066L401.299 260.135L389.768 296.907L202.17 253.219L240.553 215.066Z" fill="#1B1A1F"/>
<path d="M175 220.972L287.787 156.671C308.82 144.315 334.383 158.241 333.552 182.628L334.272 262.658H292.47L295.051 203.316L211.805 249.72C197.191 257.868 178.952 248.812 176.6 232.241L175 220.972Z" fill="#0038FF"/>
<path d="M334.272 263.381C334.272 264.011 333.111 264.603 331.101 265.101C327.405 266.017 320.845 266.626 313.372 266.626C306.32 266.626 300.081 266.085 296.298 265.252C293.887 264.726 292.47 264.076 292.47 263.381C292.47 262.686 293.887 262.037 296.298 261.51C300.081 260.678 306.32 260.136 313.372 260.136C320.764 260.136 327.257 260.728 330.965 261.629C333.061 262.133 334.272 262.738 334.272 263.381Z" fill="#1B1A1F"/>
<path d="M331.389 272.752L296.298 269.858V261.509C300.081 260.676 306.32 260.135 313.372 260.135C320.764 260.135 327.257 260.727 330.965 261.627L331.093 265.1L331.389 272.752Z" fill="#FD9F84"/>
<path d="M295.353 269.868V306.303H360.217C360.217 306.303 362.019 300.15 358.056 296.542C354.092 292.933 334.993 288.25 333.912 285.726C332.832 283.201 332.11 271.306 332.11 271.306L295.353 269.868Z" fill="#FF7777"/>
<path d="M360.62 302.897H295.354C295.295 302.897 295.238 302.873 295.197 302.832C295.155 302.79 295.132 302.734 295.132 302.675C295.132 302.616 295.155 302.56 295.197 302.518C295.238 302.476 295.295 302.453 295.354 302.453H360.62C360.679 302.453 360.735 302.476 360.777 302.518C360.819 302.56 360.842 302.616 360.842 302.675C360.842 302.734 360.819 302.79 360.777 302.832C360.735 302.873 360.679 302.897 360.62 302.897Z" fill="white"/>
<path d="M304.543 298.21C303.537 298.21 302.554 297.911 301.717 297.352C300.88 296.793 300.228 295.998 299.843 295.068C299.458 294.138 299.358 293.115 299.554 292.128C299.75 291.141 300.235 290.234 300.946 289.522C301.658 288.81 302.564 288.326 303.551 288.129C304.538 287.933 305.56 288.034 306.49 288.419C307.42 288.804 308.214 289.456 308.773 290.293C309.332 291.13 309.63 292.114 309.63 293.121C309.629 294.47 309.092 295.763 308.139 296.717C307.185 297.672 305.892 298.208 304.543 298.21ZM304.543 288.477C303.625 288.477 302.727 288.749 301.963 289.26C301.2 289.77 300.604 290.496 300.253 291.345C299.901 292.194 299.81 293.128 299.989 294.029C300.168 294.93 300.611 295.758 301.26 296.407C301.91 297.057 302.737 297.499 303.638 297.678C304.539 297.858 305.473 297.765 306.321 297.414C307.17 297.062 307.895 296.466 308.405 295.702C308.915 294.938 309.187 294.04 309.187 293.121C309.185 291.889 308.696 290.709 307.825 289.838C306.954 288.968 305.774 288.478 304.543 288.477Z" fill="white"/>
<path d="M335.392 287.162C335.345 287.162 335.299 287.147 335.26 287.119C335.228 287.095 335.202 287.062 335.187 287.025C335.171 286.987 335.167 286.946 335.173 286.906C335.243 286.447 336.955 275.626 341.452 273.254C342.617 272.64 343.871 272.646 345.179 273.274C346.885 274.094 347.753 275.154 347.757 276.426C347.774 281.082 335.991 286.894 335.487 287.14C335.457 287.154 335.425 287.161 335.392 287.162ZM343.244 273.245C342.69 273.246 342.146 273.384 341.659 273.647C337.849 275.657 336.056 284.483 335.685 286.544C337.755 285.482 347.329 280.353 347.314 276.427C347.314 275.34 346.527 274.413 344.987 273.674C344.446 273.401 343.85 273.254 343.244 273.245Z" fill="white"/>
<path d="M296.074 275.277C296.074 275.277 294.633 275.636 294.272 273.113C293.592 268.352 295.938 268.775 298.596 268.067C304.001 266.625 329.227 267.345 332.11 269.509C334.434 271.253 333.272 274.95 331.749 275.277C330.226 275.604 296.074 275.277 296.074 275.277Z" fill="#FF7777"/>
<path d="M296.074 279.962C296.074 279.962 294.633 280.323 294.272 277.8C293.592 273.039 295.938 273.462 298.596 272.752C304.001 271.31 329.227 272.032 332.11 274.194C334.434 275.938 333.272 279.637 331.749 279.962C330.226 280.288 296.074 279.962 296.074 279.962Z" fill="#FF7777"/>
<path d="M334.782 287.165C323.73 287.165 320.466 284.831 319.684 282.852C319.1 281.373 319.765 279.607 321.508 277.997C321.881 277.644 322.328 277.38 322.817 277.222C323.305 277.065 323.822 277.02 324.331 277.089C329.18 277.627 335.315 286.439 335.574 286.814C335.597 286.847 335.61 286.886 335.613 286.926C335.615 286.966 335.607 287.006 335.589 287.042C335.57 287.078 335.542 287.108 335.508 287.129C335.474 287.151 335.434 287.162 335.394 287.162L334.782 287.165ZM323.868 277.506C323.101 277.497 322.362 277.791 321.81 278.324C320.209 279.802 319.584 281.394 320.097 282.689C320.695 284.207 323.41 286.721 334.787 286.721H334.962C333.758 285.06 328.404 277.986 324.28 277.529C324.143 277.513 324.006 277.506 323.868 277.506Z" fill="white"/>
<path d="M332.586 275.361C332.533 275.361 332.482 275.342 332.442 275.308C332.402 275.273 332.375 275.226 332.367 275.173C332.367 275.155 331.423 272.282 314.387 272.282H314.174C298.024 272.304 294.776 274.5 294.745 274.523C294.722 274.54 294.695 274.552 294.667 274.559C294.638 274.566 294.609 274.568 294.58 274.563C294.551 274.559 294.524 274.549 294.499 274.534C294.474 274.519 294.452 274.499 294.435 274.475C294.418 274.452 294.405 274.425 294.398 274.397C294.391 274.368 294.39 274.339 294.394 274.31C294.399 274.281 294.409 274.254 294.424 274.229C294.439 274.204 294.459 274.182 294.482 274.165C294.609 274.07 297.779 271.86 314.173 271.838H314.392C331.801 271.838 332.755 274.771 332.805 275.107C332.814 275.165 332.799 275.224 332.765 275.271C332.73 275.319 332.678 275.35 332.62 275.36L332.586 275.361Z" fill="white"/>
<path d="M295.353 280.202C295.295 280.206 295.236 280.187 295.192 280.148C295.147 280.11 295.12 280.055 295.115 279.996C295.111 279.937 295.13 279.879 295.169 279.835C295.207 279.79 295.262 279.762 295.321 279.758C295.501 279.731 313.462 277.112 332.615 279.495C332.673 279.503 332.726 279.533 332.762 279.58C332.798 279.626 332.814 279.685 332.807 279.743C332.804 279.772 332.795 279.8 332.78 279.826C332.766 279.851 332.747 279.874 332.724 279.891C332.701 279.909 332.675 279.922 332.647 279.93C332.618 279.938 332.589 279.94 332.56 279.936C313.471 277.56 295.565 280.169 295.387 280.196L295.353 280.202Z" fill="white"/>
<path d="M399.284 278.405C397.128 285.424 393.713 293.369 391.688 295.699C390.959 296.531 390.319 296.925 389.818 296.769C389.316 296.614 389.003 295.929 388.87 294.83C388.499 291.761 390.236 283.294 392.395 276.285C395.133 267.37 398.74 260.449 400.748 260.074C400.877 260.044 401.012 260.049 401.139 260.089C401.174 260.1 401.208 260.113 401.241 260.128C403.01 260.972 402.159 269.047 399.284 278.405Z" fill="#0038FF"/>
<path d="M409.259 261.988L396.181 294.693L392.408 293.535L389.046 292.581C388.675 289.512 390.229 283.3 392.395 276.286C395.133 267.37 398.74 260.449 400.748 260.074L401.241 260.128H401.299L409.259 261.988Z" fill="#FD9F84"/>
<path d="M395.915 295.599L430.728 306.303L449.783 244.276C449.783 244.276 444.434 240.746 439.826 243.477C435.218 246.209 425.128 263.094 422.399 263.387C419.67 263.68 408.093 260.873 408.093 260.873L395.915 295.599Z" fill="#FF7777"/>
<path d="M427.261 305.458C427.239 305.459 427.217 305.455 427.196 305.448C427.168 305.44 427.142 305.426 427.119 305.408C427.097 305.389 427.078 305.366 427.064 305.341C427.05 305.315 427.042 305.287 427.039 305.258C427.036 305.229 427.039 305.199 427.048 305.172L446.223 242.758C446.24 242.702 446.279 242.655 446.331 242.627C446.382 242.6 446.443 242.594 446.499 242.611C446.556 242.628 446.602 242.667 446.63 242.719C446.658 242.771 446.664 242.832 446.647 242.889L427.472 305.302C427.459 305.347 427.431 305.387 427.393 305.415C427.354 305.443 427.308 305.459 427.261 305.458Z" fill="white"/>
<path d="M420.839 298.729C420.107 298.729 419.384 298.572 418.718 298.267C418.053 297.962 417.461 297.517 416.983 296.963C416.505 296.408 416.152 295.757 415.949 295.054C415.745 294.351 415.696 293.612 415.804 292.888C415.913 292.163 416.176 291.471 416.576 290.858C416.976 290.245 417.503 289.725 418.123 289.335C418.742 288.944 419.438 288.692 420.163 288.595C420.889 288.499 421.626 288.56 422.326 288.774C423.489 289.133 424.485 289.897 425.133 290.927C425.781 291.958 426.039 293.187 425.859 294.391C425.679 295.595 425.074 296.695 424.153 297.491C423.232 298.286 422.056 298.726 420.839 298.729ZM420.827 288.991C419.652 288.99 418.52 289.434 417.658 290.233C416.796 291.032 416.268 292.127 416.179 293.299C416.091 294.471 416.448 295.633 417.181 296.553C417.913 297.472 418.965 298.081 420.127 298.257C421.289 298.432 422.474 298.162 423.445 297.5C424.416 296.839 425.101 295.834 425.363 294.688C425.625 293.542 425.444 292.34 424.857 291.321C424.269 290.303 423.319 289.545 422.196 289.199C421.752 289.063 421.291 288.995 420.827 288.996V288.991Z" fill="white"/>
<path d="M423.989 262.549C423.956 262.549 423.923 262.541 423.893 262.527C423.475 262.324 413.639 257.508 412.693 252.511C412.448 251.217 412.823 250.02 413.806 248.961C415.091 247.57 416.359 247.051 417.576 247.42C422.029 248.774 424.122 261.749 424.208 262.3C424.215 262.34 424.21 262.381 424.195 262.419C424.18 262.456 424.155 262.489 424.122 262.513C424.083 262.538 424.036 262.551 423.989 262.549ZM416.815 247.744C415.959 247.744 415.058 248.25 414.131 249.254C413.244 250.211 412.91 251.28 413.128 252.43C413.929 256.665 421.835 260.972 423.695 261.93C423.289 259.641 421.201 248.978 417.446 247.837C417.241 247.776 417.029 247.744 416.815 247.744Z" fill="white"/>
<path d="M401.292 296.499C401.292 296.499 401.212 297.978 398.696 297.586C393.946 296.838 395.04 294.718 395.148 291.966C395.357 286.372 403.458 262.463 406.372 260.342C408.719 258.631 411.913 260.829 411.777 262.38C411.641 263.932 401.292 296.499 401.292 296.499Z" fill="#FF7777"/>
<path d="M405.772 297.875C405.772 297.875 405.693 299.354 403.176 298.963C398.427 298.214 399.521 296.095 399.628 293.342C399.837 287.749 407.938 263.84 410.85 261.719C413.199 260.008 416.392 262.206 416.256 263.757C416.12 265.308 405.772 297.875 405.772 297.875Z" fill="#FF7777"/>
<path d="M415.239 276.157C413.743 276.157 412.343 275.011 411.366 272.976C411.139 272.517 411.018 272.013 411.012 271.501C411.005 270.989 411.113 270.482 411.327 270.018C413.265 265.539 423.488 262.26 423.923 262.123C423.962 262.111 424.003 262.11 424.042 262.12C424.081 262.129 424.116 262.149 424.145 262.177C424.174 262.205 424.194 262.241 424.205 262.28C424.215 262.318 424.214 262.359 424.203 262.398C420.895 273.461 417.628 275.985 415.47 276.152C415.393 276.154 415.314 276.157 415.239 276.157ZM423.654 262.673C421.714 263.337 413.382 266.379 411.734 270.188C411.541 270.594 411.444 271.039 411.45 271.489C411.456 271.939 411.564 272.382 411.766 272.783C412.708 274.749 414.046 275.814 415.434 275.706C417.068 275.577 420.292 273.703 423.654 262.673Z" fill="white"/>
<path d="M399.97 297.842C399.924 297.841 399.88 297.827 399.843 297.8C399.805 297.774 399.777 297.737 399.762 297.694C399.708 297.546 398.529 293.865 403.323 278.182C408.475 261.33 411.581 261.274 411.92 261.321C411.949 261.325 411.977 261.335 412.002 261.35C412.028 261.366 412.05 261.385 412.067 261.409C412.085 261.433 412.098 261.46 412.105 261.488C412.112 261.517 412.114 261.546 412.109 261.576C412.105 261.605 412.095 261.633 412.08 261.658C412.065 261.683 412.045 261.705 412.021 261.723C411.998 261.74 411.971 261.753 411.942 261.76C411.914 261.768 411.884 261.769 411.855 261.765C411.828 261.765 408.783 261.839 403.747 278.313C398.996 293.857 400.167 297.513 400.18 297.549C400.199 297.604 400.195 297.665 400.17 297.718C400.144 297.771 400.099 297.812 400.044 297.831C400.02 297.839 399.995 297.843 399.97 297.842Z" fill="white"/>
<path d="M405.579 298.791C405.567 298.793 405.556 298.793 405.545 298.791C405.516 298.787 405.488 298.777 405.463 298.762C405.438 298.747 405.417 298.728 405.399 298.704C405.382 298.681 405.369 298.654 405.362 298.626C405.355 298.598 405.354 298.569 405.358 298.54C405.385 298.359 408.16 280.415 416.064 262.8C416.075 262.774 416.093 262.75 416.114 262.73C416.135 262.71 416.16 262.694 416.187 262.684C416.214 262.673 416.243 262.668 416.273 262.669C416.302 262.67 416.33 262.677 416.357 262.688C416.384 262.7 416.408 262.717 416.428 262.739C416.448 262.76 416.463 262.785 416.474 262.812C416.484 262.839 416.489 262.868 416.488 262.898C416.487 262.927 416.481 262.955 416.469 262.982C408.59 280.539 405.824 298.427 405.798 298.606C405.789 298.658 405.762 298.705 405.722 298.738C405.682 298.772 405.631 298.791 405.579 298.791Z" fill="white"/>
<path d="M295.053 203.315L301.734 196.897L293.656 235.412L295.053 203.315Z" fill="#1B1A1F"/>
<path d="M216.699 166.384C226.647 164.615 234.571 162.386 234.396 161.405C234.222 160.425 226.016 161.065 216.068 162.834C206.12 164.603 198.197 166.832 198.371 167.812C198.545 168.792 206.751 168.153 216.699 166.384Z" fill="#1B1A1F"/>
<path d="M313.552 260.538H313.536C313.507 260.536 313.478 260.528 313.452 260.515C313.426 260.502 313.403 260.483 313.384 260.461C313.365 260.439 313.35 260.414 313.341 260.386C313.332 260.358 313.328 260.329 313.33 260.3C313.345 260.092 314.859 239.428 314.636 218.724C314.34 191.428 311.213 176.466 305.585 175.456C302.075 174.826 294.508 177.97 282.444 185.069C271.742 191.368 258.929 199.918 246.538 208.189C225.397 222.3 205.415 235.63 199.082 235.632H199.073C194.507 235.621 190.968 234.169 188.553 231.314C183.499 225.342 185.115 215.13 185.132 215.028C185.136 214.999 185.147 214.971 185.162 214.946C185.178 214.921 185.198 214.899 185.222 214.882C185.246 214.864 185.273 214.852 185.302 214.845C185.331 214.838 185.36 214.837 185.389 214.842C185.419 214.847 185.447 214.857 185.472 214.873C185.497 214.888 185.518 214.909 185.536 214.933C185.553 214.957 185.565 214.984 185.572 215.013C185.579 215.041 185.58 215.071 185.575 215.1C185.559 215.201 183.977 225.215 188.897 231.029C191.225 233.778 194.651 235.17 199.08 235.188H199.089C205.278 235.188 225.199 221.893 246.29 207.819C271.521 190.982 297.612 173.57 305.662 175.017C311.61 176.085 314.778 190.787 315.078 218.718C315.301 239.441 313.787 260.129 313.771 260.329C313.768 260.385 313.743 260.438 313.703 260.476C313.662 260.515 313.608 260.537 313.552 260.538Z" fill="white"/>
<path d="M217.353 119.772C212.044 120.633 206.347 124.949 204.905 132.512C201.434 150.739 194.602 200.418 204.544 207.497C216.627 216.1 228.327 201.729 230.49 176.493C232.362 154.644 234.1 117.061 217.353 119.772Z" fill="#FD9F84"/>
<path d="M285.625 149.59L286.345 144.415L288.133 148.431L285.625 149.59Z" fill="#BF7864"/>
<path d="M313.984 134.848C315.094 132.761 304.904 131.063 303.436 130.807C298.519 129.951 293.164 129.341 288.281 130.461C283.294 131.604 278.704 134.01 274.322 136.588C264.227 142.504 254.795 149.485 245.384 156.444L223.385 172.712C220.631 174.749 217.828 176.834 215.836 179.624C213.672 182.654 212.611 186.316 211.62 189.907C210.331 194.588 209.092 199.364 209.216 204.218C209.275 206.543 210.069 209.348 212.331 209.887C213.373 210.134 214.46 209.802 215.456 209.411C219.609 207.77 223.217 205.018 226.728 202.258C243.571 189.012 259.623 174.79 274.802 159.663C280.093 154.392 285.594 148.818 292.72 146.607C295.478 145.751 298.372 145.442 301.249 145.208C302.219 145.128 303.286 145.013 303.949 144.301C304.611 143.59 304.364 142.095 303.394 142.031C304.252 142.565 305.539 142.179 305.958 141.253C306.376 140.327 305.819 139.106 304.852 138.813C306.296 139.631 308.165 137.362 307.086 136.1C309.048 136.122 310.471 136.347 311.57 136.122C312.235 135.988 313.523 135.71 313.984 134.848Z" fill="#FD9F84"/>
<path d="M307.426 136.165H307.395L296.415 134.638C296.386 134.634 296.358 134.624 296.332 134.609C296.307 134.594 296.285 134.575 296.267 134.551C296.249 134.528 296.236 134.501 296.229 134.473C296.221 134.444 296.219 134.415 296.223 134.385C296.227 134.356 296.237 134.328 296.252 134.303C296.267 134.277 296.286 134.255 296.31 134.237C296.333 134.22 296.36 134.207 296.388 134.199C296.417 134.192 296.446 134.19 296.475 134.194L307.457 135.722C307.486 135.724 307.514 135.732 307.54 135.745C307.567 135.758 307.59 135.776 307.609 135.798C307.628 135.82 307.643 135.845 307.652 135.873C307.661 135.901 307.665 135.93 307.663 135.959C307.661 135.988 307.653 136.017 307.64 136.043C307.627 136.069 307.609 136.092 307.587 136.111C307.565 136.131 307.539 136.145 307.512 136.155C307.484 136.164 307.455 136.168 307.426 136.165Z" fill="#060608"/>
<path d="M305.184 139.404H305.164L295.936 138.552C295.877 138.547 295.823 138.519 295.785 138.473C295.747 138.428 295.729 138.369 295.734 138.311C295.74 138.252 295.768 138.197 295.813 138.16C295.859 138.122 295.917 138.103 295.976 138.109L305.204 138.961C305.263 138.963 305.318 138.989 305.358 139.033C305.398 139.076 305.418 139.134 305.416 139.193C305.413 139.252 305.387 139.307 305.343 139.347C305.3 139.386 305.242 139.407 305.184 139.404Z" fill="#060608"/>
<path d="M303.635 142.349H303.614L295.927 141.626C295.868 141.62 295.814 141.592 295.776 141.546C295.738 141.501 295.72 141.442 295.726 141.383C295.731 141.324 295.76 141.27 295.805 141.233C295.851 141.195 295.909 141.177 295.968 141.182L303.656 141.907C303.714 141.91 303.77 141.936 303.809 141.979C303.849 142.023 303.87 142.08 303.867 142.139C303.864 142.198 303.838 142.253 303.795 142.293C303.751 142.333 303.694 142.353 303.635 142.351V142.349Z" fill="#060608"/>
<path d="M282.953 152.084L283.463 145.857L286.706 149.461L282.953 152.084Z" fill="#DB8A72"/>
<path d="M231.405 162.969L199.701 174.091L200.316 166.604C200.316 166.604 221.706 160.711 231.683 161.215L231.405 162.969Z" fill="#DB8A72"/>
<path d="M198.418 167.126C209.287 164.073 220.428 162.091 231.682 161.21L234.453 160.993C234.453 160.993 236.65 125.139 227.444 119.635C218.238 114.13 204.116 119 202.163 126.839C200.21 134.677 198.418 167.126 198.418 167.126Z" fill="#8DB9FA"/>
<path d="M198.941 157.544C198.941 157.544 216.616 151.258 234.454 154.055L234.652 156.421C234.652 156.421 223.067 154.533 198.941 159.835V157.544Z" fill="white"/>
<path d="M198.372 168.03H198.356C198.297 168.026 198.243 167.999 198.204 167.954C198.166 167.91 198.146 167.852 198.15 167.793L199.985 142.105C199.987 142.076 199.995 142.047 200.008 142.021C200.021 141.995 200.039 141.971 200.061 141.952C200.083 141.933 200.109 141.918 200.137 141.909C200.165 141.9 200.194 141.897 200.223 141.899C200.282 141.904 200.336 141.932 200.374 141.976C200.413 142.021 200.432 142.079 200.429 142.137L198.594 167.817C198.591 167.874 198.567 167.928 198.526 167.968C198.484 168.007 198.429 168.03 198.372 168.03Z" fill="#1B1A1F"/>
<path d="M234.454 161.219C234.425 161.219 234.396 161.213 234.369 161.201C234.342 161.19 234.318 161.173 234.298 161.152C234.277 161.131 234.261 161.107 234.251 161.08C234.24 161.053 234.234 161.024 234.235 160.995L234.464 141.768C234.466 141.709 234.49 141.654 234.532 141.613C234.574 141.572 234.63 141.549 234.689 141.549C234.718 141.549 234.747 141.555 234.773 141.567C234.8 141.578 234.824 141.595 234.845 141.616C234.865 141.637 234.881 141.662 234.892 141.689C234.903 141.716 234.908 141.745 234.908 141.774L234.678 161.001C234.678 161.03 234.672 161.058 234.66 161.085C234.649 161.112 234.632 161.136 234.611 161.157C234.591 161.177 234.566 161.193 234.539 161.204C234.512 161.214 234.483 161.22 234.454 161.219Z" fill="#1B1A1F"/>
<path d="M241.505 70.4218C239.859 77.0017 231.21 84.2118 222.561 85.6553L219.678 86.0161L220.4 87.4581C220.4 87.4581 221.841 86.0161 220.4 89.9813C219.913 91.3124 219.678 97.9116 218.237 101.517C214.878 109.916 206.677 121.347 203.585 125.512C200.023 124.834 196.55 123.748 193.236 122.278L194.89 117.116L191.524 121.463C188.573 119.986 185.834 118.119 183.381 115.912L184.429 113.324L181.759 114.34C179.613 112.137 177.793 109.639 176.353 106.922C180.907 104.455 188.011 100.021 195.542 92.1435C203.471 83.8524 206.176 73.5321 210.678 69.4323C216.482 64.1479 222.727 62.8612 227.552 62.9071C233.16 62.9603 238.472 65.692 241.505 70.4218Z" fill="#1B1A1F"/>
<path d="M235.535 98.132C235.397 98.132 232.135 98.1024 231.007 95.4697C230.984 95.4156 230.983 95.3545 231.005 95.2998C231.027 95.2452 231.069 95.2015 231.123 95.1783C231.178 95.1552 231.239 95.1545 231.293 95.1764C231.348 95.1983 231.392 95.241 231.415 95.2952C232.424 97.6513 235.504 97.6838 235.535 97.6838C235.594 97.6838 235.65 97.7072 235.692 97.7488C235.733 97.7904 235.757 97.8468 235.757 97.9057C235.757 97.9645 235.733 98.0209 235.692 98.0625C235.65 98.1041 235.594 98.1275 235.535 98.1275V98.132Z" fill="#1B1A1F"/>
<path d="M224.794 86.658C224.794 86.658 222.469 83.5522 220.006 82.7166C217.543 81.881 212.992 85.4453 217.574 91.7383C221.122 96.6026 225.94 92.3299 225.94 92.3299L224.794 86.658Z" fill="#FD9F84"/>
<path d="M221.815 88.9859C221.769 88.9858 221.724 88.9714 221.687 88.9445L217.306 85.8268C217.261 85.7915 217.232 85.7403 217.223 85.6838C217.215 85.6273 217.229 85.5699 217.262 85.5234C217.296 85.4769 217.345 85.445 217.401 85.4343C217.457 85.4236 217.515 85.4349 217.563 85.4659L221.944 88.5821C221.982 88.6098 222.01 88.6486 222.024 88.6932C222.039 88.7377 222.039 88.7857 222.025 88.8304C222.011 88.8751 221.983 88.9141 221.945 88.942C221.908 88.97 221.862 88.9853 221.815 88.9859Z" fill="#1B1A1F"/>
<path d="M345.623 135.45C344.724 135.45 343.845 135.183 343.097 134.683C342.349 134.183 341.767 133.473 341.423 132.642C341.079 131.811 340.989 130.897 341.164 130.014C341.339 129.132 341.772 128.322 342.408 127.686C343.044 127.05 343.854 126.617 344.736 126.441C345.618 126.266 346.532 126.356 347.362 126.7C348.193 127.044 348.903 127.627 349.403 128.375C349.902 129.123 350.169 130.002 350.169 130.902C350.167 132.107 349.688 133.263 348.836 134.116C347.983 134.968 346.828 135.448 345.623 135.45ZM345.623 126.797C344.811 126.797 344.018 127.038 343.343 127.489C342.669 127.94 342.143 128.581 341.832 129.331C341.522 130.081 341.441 130.906 341.599 131.702C341.757 132.498 342.148 133.23 342.722 133.804C343.296 134.378 344.027 134.769 344.822 134.927C345.618 135.085 346.443 135.004 347.193 134.693C347.942 134.383 348.583 133.857 349.034 133.182C349.485 132.507 349.725 131.713 349.725 130.902C349.726 129.812 349.294 128.768 348.525 127.997C347.755 127.226 346.711 126.793 345.623 126.792V126.797Z" fill="#1B1A1F"/>
<path d="M371.029 119.762C368.704 119.762 366.432 119.072 364.499 117.78C362.567 116.489 361.06 114.652 360.171 112.504C359.281 110.355 359.048 107.991 359.502 105.71C359.955 103.429 361.075 101.334 362.718 99.69C364.362 98.0456 366.456 96.9258 368.736 96.4721C371.016 96.0184 373.379 96.2513 375.527 97.1412C377.674 98.0311 379.51 99.5382 380.801 101.472C382.093 103.405 382.782 105.679 382.782 108.004C382.779 111.121 381.539 114.11 379.336 116.314C377.132 118.519 374.145 119.759 371.029 119.762ZM371.029 96.6899C368.792 96.6899 366.606 97.3535 364.746 98.5967C362.886 99.8399 361.436 101.607 360.58 103.674C359.724 105.742 359.5 108.017 359.937 110.211C360.373 112.406 361.45 114.422 363.032 116.005C364.614 117.587 366.629 118.664 368.823 119.101C371.016 119.538 373.29 119.313 375.357 118.457C377.424 117.601 379.19 116.151 380.433 114.29C381.675 112.429 382.339 110.242 382.339 108.004C382.335 105.004 381.142 102.129 379.022 100.008C376.902 97.8866 374.027 96.6934 371.029 96.6899Z" fill="#1B1A1F"/>
<path d="M564.72 306.863H0.221759C0.162945 306.863 0.106538 306.84 0.0649503 306.798C0.0233625 306.757 0 306.7 0 306.642C0 306.583 0.0233625 306.526 0.0649503 306.485C0.106538 306.443 0.162945 306.42 0.221759 306.42H564.72C564.779 306.42 564.835 306.443 564.877 306.485C564.919 306.526 564.942 306.583 564.942 306.642C564.942 306.7 564.919 306.757 564.877 306.798C564.835 306.84 564.779 306.863 564.72 306.863Z" fill="#1B1A1F"/>
<path d="M443.82 117.6C429.25 117.578 415.208 112.144 404.416 102.351C393.624 92.5576 386.853 79.1037 385.417 64.5989C383.98 50.0941 387.979 35.5724 396.639 23.8507C405.299 12.1289 418.003 4.04285 432.285 1.16093C446.568 -1.72099 461.411 0.806689 473.936 8.25366C486.461 15.7006 495.775 27.536 500.07 41.464C504.366 55.3919 503.338 70.4196 497.185 83.6319C491.031 96.8442 480.192 107.299 466.77 112.969C459.509 116.041 451.704 117.616 443.82 117.6ZM443.82 0.0769935C411.554 0.0769935 385.304 26.3378 385.304 58.6165C385.304 90.8952 411.554 117.156 443.82 117.156C476.086 117.156 502.337 90.8952 502.337 58.6165C502.337 26.3378 476.086 0.0769935 443.82 0.0769935Z" fill="#1B1A1F"/>
<path d="M443.687 36.2647L478.638 47.2742L444.014 58.0841L409.004 47.1751L443.687 36.2647Z" fill="#0038FF"/>
<path d="M461.496 55.5846V66.4891C461.496 66.4891 444.288 77.5015 425.345 66.4891V55.5846L443.825 61.0687L461.496 55.5846Z" fill="#0038FF"/>
<path d="M465.47 49.8344C465.47 49.8344 468.832 53.2804 469.033 61.0199C469.235 68.7594 471.047 79.8192 471.047 79.8192C471.047 79.8192 467.616 82.403 463.689 79.8192C463.689 79.8192 465.364 67.0926 465.031 61.0199C464.699 54.9472 462.896 51.7348 461.496 51.3059C460.096 50.877 465.47 49.8344 465.47 49.8344Z" fill="#0038FF"/>
<path d="M467.365 67.2922C469.391 67.2922 471.033 65.6494 471.033 63.6228C471.033 61.5963 469.391 59.9535 467.365 59.9535C465.339 59.9535 463.697 61.5963 463.697 63.6228C463.697 65.6494 465.339 67.2922 467.365 67.2922Z" fill="#0038FF"/>
<path d="M118.594 234.401H62.3898C61.7084 234.401 61.0551 234.13 60.5733 233.648C60.0915 233.166 59.8207 232.512 59.8203 231.83V205.886C59.8207 205.204 60.0915 204.551 60.5733 204.069C61.0551 203.587 61.7084 203.316 62.3898 203.316H118.594C119.275 203.316 119.928 203.587 120.41 204.069C120.891 204.551 121.162 205.205 121.163 205.886V231.83C121.162 232.512 120.891 233.165 120.41 233.647C119.928 234.129 119.275 234.4 118.594 234.401ZM62.3898 203.759C61.8262 203.76 61.2859 203.984 60.8874 204.383C60.4888 204.782 60.2646 205.322 60.2638 205.886V231.83C60.2646 232.394 60.4888 232.935 60.8874 233.333C61.2859 233.732 61.8262 233.956 62.3898 233.957H118.594C119.157 233.956 119.698 233.732 120.096 233.333C120.495 232.935 120.719 232.394 120.72 231.83V205.886C120.719 205.322 120.495 204.782 120.096 204.383C119.698 203.984 119.157 203.76 118.594 203.759H62.3898Z" fill="#1B1A1F"/>
<path d="M106.707 229.174C104.668 229.174 102.674 228.569 100.978 227.435C99.2826 226.302 97.9609 224.691 97.1804 222.806C96.4 220.921 96.1958 218.847 96.5937 216.845C96.9915 214.844 97.9736 213.006 99.4158 211.564C100.858 210.121 102.695 209.138 104.696 208.74C106.696 208.342 108.769 208.547 110.653 209.327C112.538 210.108 114.148 211.43 115.281 213.127C116.414 214.823 117.019 216.818 117.019 218.858C117.016 221.593 115.929 224.215 113.995 226.149C112.062 228.083 109.441 229.171 106.707 229.174ZM106.707 208.986C104.756 208.986 102.848 209.565 101.225 210.65C99.602 211.734 98.3371 213.276 97.5902 215.08C96.8433 216.884 96.6479 218.869 97.0287 220.784C97.4094 222.699 98.3493 224.458 99.7294 225.839C101.109 227.219 102.868 228.16 104.782 228.541C106.696 228.922 108.681 228.726 110.484 227.979C112.287 227.232 113.828 225.966 114.913 224.343C115.997 222.719 116.576 220.811 116.576 218.858C116.573 216.241 115.532 213.731 113.682 211.88C111.832 210.029 109.324 208.988 106.707 208.986Z" fill="#1B1A1F"/>
<path d="M80.9995 203.579H77.9156C77.8676 203.579 77.8209 203.563 77.7825 203.534C77.7442 203.506 77.7161 203.465 77.7027 203.419L70.4587 178.905C70.4424 178.847 70.4498 178.785 70.4794 178.732C70.4943 178.706 70.5143 178.683 70.5382 178.665C70.5621 178.647 70.5893 178.634 70.6183 178.627L73.5012 177.907C73.556 177.892 73.6143 177.9 73.6639 177.927C73.7134 177.955 73.7505 178 73.7673 178.054L81.2198 203.293C81.23 203.326 81.2321 203.362 81.226 203.396C81.2198 203.43 81.2055 203.462 81.1843 203.49C81.1628 203.518 81.1348 203.541 81.1027 203.557C81.0705 203.572 81.0351 203.58 80.9995 203.579ZM78.0812 203.135H80.7038L73.4021 178.389L70.9495 179.001L78.0812 203.135Z" fill="#1B1A1F"/>
<path d="M85.6552 203.579H82.5698C82.5354 203.579 82.5014 203.57 82.4706 203.555C82.4398 203.539 82.4131 203.517 82.3925 203.489C82.3718 203.461 82.3579 203.429 82.3517 203.395C82.3456 203.361 82.3474 203.327 82.357 203.293L86.9193 187.973C86.9364 187.919 86.9735 187.873 87.0229 187.846C87.0724 187.818 87.1305 187.811 87.1854 187.825L90.0682 188.545C90.0972 188.553 90.1245 188.566 90.1483 188.584C90.1721 188.602 90.1921 188.625 90.2069 188.651C90.2218 188.677 90.2313 188.706 90.2349 188.736C90.2385 188.766 90.2361 188.796 90.2279 188.825L85.8666 203.425C85.8522 203.47 85.824 203.509 85.786 203.536C85.748 203.564 85.7022 203.579 85.6552 203.579ZM82.867 203.135H85.4897L89.7356 188.915L87.2844 188.302L82.867 203.135Z" fill="#1B1A1F"/>
<path d="M91.9341 209.484H64.5469V213.81H91.9341V209.484Z" fill="#0038FF"/>
<path d="M70.6715 208.584H69.5908V215.072H70.6715V208.584Z" fill="#1B1A1F"/>
<path d="M10.5822 218.179C9.73622 218.18 8.90916 217.929 8.20562 217.459C7.50207 216.989 6.95365 216.321 6.6297 215.539C6.30576 214.757 6.22085 213.897 6.38571 213.067C6.55058 212.237 6.9578 211.474 7.5559 210.876C8.15399 210.277 8.91607 209.869 9.74577 209.704C10.5755 209.539 11.4355 209.624 12.2171 209.947C12.9987 210.271 13.6668 210.82 14.1368 211.523C14.6068 212.227 14.8577 213.054 14.8577 213.901C14.855 215.034 14.4037 216.121 13.6025 216.922C12.8013 217.724 11.7154 218.176 10.5822 218.179ZM10.5822 210.067C9.82388 210.067 9.08251 210.291 8.45187 210.713C7.82123 211.134 7.32965 211.733 7.03932 212.434C6.74899 213.135 6.67295 213.906 6.82082 214.65C6.96869 215.394 7.33382 216.077 7.87004 216.614C8.40625 217.15 9.08945 217.515 9.83321 217.663C10.577 217.811 11.3479 217.735 12.0484 217.445C12.749 217.154 13.3476 216.663 13.7688 216.032C14.1899 215.401 14.4145 214.659 14.4142 213.901C14.4111 212.885 14.0064 211.911 13.2884 211.193C12.5704 210.475 11.5976 210.07 10.5822 210.067Z" fill="#1B1A1F"/>
<path d="M533.792 240.669C533.759 240.668 533.726 240.661 533.696 240.646L521.532 234.776C521.497 234.759 521.467 234.734 521.445 234.701C521.423 234.669 521.41 234.632 521.408 234.593C521.405 234.554 521.412 234.515 521.429 234.48C521.446 234.445 521.472 234.415 521.504 234.393L532.669 226.79C532.701 226.768 532.738 226.755 532.777 226.752C532.815 226.749 532.854 226.757 532.889 226.774C532.924 226.79 532.954 226.816 532.976 226.848C532.999 226.881 533.012 226.918 533.015 226.957L534.014 240.43C534.017 240.469 534.01 240.508 533.993 240.543C533.976 240.578 533.95 240.608 533.918 240.63C533.881 240.656 533.837 240.669 533.792 240.669ZM522.076 234.541L533.55 240.077L532.607 227.37L522.076 234.541Z" fill="#1B1A1F"/>
</svg>
