<svg width="44" height="44" viewBox="0 0 44 44" fill="none" xmlns="http://www.w3.org/2000/svg">
<rect width="44" height="44" rx="5" fill="#F7F8FF"/>
<path d="M29.9912 12.002C29.8599 12.0019 29.7298 12.0277 29.6084 12.0779C29.4871 12.1281 29.3768 12.2018 29.2839 12.2947C29.1911 12.3876 29.1174 12.4978 29.0672 12.6192C29.017 12.7405 28.9911 12.8706 28.9912 13.002V13.6387C28.1478 14.6844 27.0819 15.5289 25.871 16.1107C24.66 16.6925 23.3346 16.997 21.9912 17.002H15.9912C15.1958 17.0028 14.4333 17.3192 13.8708 17.8816C13.3084 18.444 12.9921 19.2066 12.9912 20.002V22.002C12.9921 22.7973 13.3084 23.5599 13.8708 24.1223C14.4333 24.6847 15.1958 25.0011 15.9912 25.002H16.475L14.0723 30.6084C14.007 30.7604 13.9805 30.9263 13.9951 31.0911C14.0098 31.256 14.0651 31.4146 14.1562 31.5528C14.2473 31.6909 14.3713 31.8043 14.5171 31.8827C14.6628 31.9611 14.8257 32.0021 14.9912 32.002H18.9912C19.187 32.0021 19.3784 31.9446 19.5418 31.8368C19.7052 31.729 19.8333 31.5755 19.9102 31.3955L22.6339 25.04C23.8646 25.1303 25.0636 25.472 26.157 26.0439C27.2505 26.6158 28.215 27.4058 28.9912 28.365V29.002C28.9912 29.2672 29.0966 29.5215 29.2841 29.7091C29.4716 29.8966 29.726 30.002 29.9912 30.002C30.2564 30.002 30.5108 29.8966 30.6983 29.7091C30.8859 29.5215 30.9912 29.2672 30.9912 29.002V13.002C30.9913 12.8706 30.9655 12.7405 30.9152 12.6192C30.865 12.4978 30.7914 12.3876 30.6985 12.2947C30.6056 12.2018 30.4953 12.1281 30.374 12.0779C30.2526 12.0277 30.1226 12.0019 29.9912 12.002ZM15.9912 23.002C15.726 23.0018 15.4718 22.8964 15.2843 22.7089C15.0968 22.5214 14.9914 22.2671 14.9912 22.002V20.002C14.9914 19.7368 15.0968 19.4825 15.2843 19.295C15.4718 19.1075 15.726 19.0021 15.9912 19.002H16.9912V23.002H15.9912ZM18.332 30.002H16.5078L18.6504 25.002H20.4746L18.332 30.002ZM28.9912 25.5238C27.0195 23.8994 24.5459 23.0082 21.9912 23.0019H18.9912V19.0019H21.9912C24.5459 18.9954 27.0195 18.1041 28.9912 16.4796V25.5238Z" fill="#0038FF"/>
</svg>
