<svg width="537" height="463" viewBox="0 0 537 463" fill="none" xmlns="http://www.w3.org/2000/svg">
<path d="M503.105 79.7012C498.942 79.7012 495.539 76.3142 495.539 72.1255C495.539 67.9368 498.922 64.5498 503.105 64.5498C507.289 64.5498 510.672 67.9368 510.672 72.1255C510.672 76.3142 507.269 79.7012 503.105 79.7012ZM503.105 65.0709C499.222 65.0709 496.039 68.2375 496.039 72.1456C496.039 76.0537 499.202 79.2202 503.105 79.2202C507.008 79.2202 510.171 76.0537 510.171 72.1456C510.171 68.2375 506.988 65.0709 503.105 65.0709Z" fill="#151E23"/>
<path d="M405.341 345.969C405.261 345.969 405.181 345.929 405.121 345.849C405.081 345.769 405.061 345.668 405.121 345.608L410.866 334.746C410.906 334.666 410.986 334.626 411.086 334.605C411.186 334.605 411.266 334.646 411.306 334.726L417.812 345.147C417.852 345.227 417.872 345.328 417.812 345.388C417.772 345.468 417.692 345.508 417.592 345.528L405.341 345.969ZM411.106 335.367L405.761 345.468L417.171 345.067L411.106 335.367Z" fill="#151E23"/>
<path d="M82.9167 141.738C77.0317 141.738 72.2476 136.948 72.2476 131.056C72.2476 125.163 77.0317 120.374 82.9167 120.374C88.8018 120.374 93.5859 125.163 93.5859 131.056C93.5859 136.948 88.8018 141.738 82.9167 141.738ZM82.9167 120.895C77.3119 120.895 72.748 125.464 72.748 131.076C72.748 136.687 77.3119 141.257 82.9167 141.257C88.5216 141.257 93.0855 136.687 93.0855 131.076C93.0855 125.464 88.5216 120.895 82.9167 120.895Z" fill="#151E23"/>
<path d="M197.595 9.28285C197.495 9.28285 197.395 9.22272 197.355 9.12252C197.315 8.98222 197.375 8.84193 197.515 8.80185L210.786 4.27244C210.927 4.23236 211.067 4.29249 211.107 4.43278C211.147 4.57307 211.087 4.71336 210.947 4.75344L197.675 9.28285C197.655 9.28285 197.615 9.28285 197.595 9.28285Z" fill="#151E23"/>
<path d="M206.883 13.5112C206.783 13.5112 206.683 13.4511 206.643 13.3509L201.318 0.343877C201.258 0.223628 201.318 0.0632997 201.458 0.0232165C201.578 -0.0369084 201.738 0.0232128 201.779 0.163504L207.103 13.1705C207.163 13.2908 207.103 13.4511 206.963 13.4912C206.943 13.5112 206.923 13.5112 206.883 13.5112Z" fill="#151E23"/>
<path d="M351.587 156.451C351.486 156.451 351.386 156.391 351.346 156.291C351.306 156.171 351.366 156.01 351.486 155.97L364.297 151.16C364.417 151.12 364.578 151.18 364.618 151.301C364.658 151.421 364.598 151.581 364.478 151.621L351.667 156.431C351.647 156.431 351.607 156.451 351.587 156.451Z" fill="#151E23"/>
<path d="M360.394 160.46C360.294 160.46 360.194 160.4 360.154 160.299L355.35 147.473C355.31 147.352 355.37 147.192 355.49 147.152C355.61 147.112 355.77 147.172 355.81 147.292L360.614 160.119C360.654 160.239 360.594 160.4 360.474 160.44C360.454 160.44 360.414 160.46 360.394 160.46Z" fill="#151E23"/>
<path d="M535.965 415.885H5.45576C5.34102 415.885 5.24268 415.279 5.24268 414.574C5.24268 413.868 5.34102 413.263 5.45576 413.263H535.965C536.08 413.263 536.178 413.868 536.178 414.574C536.178 415.279 536.08 415.885 535.965 415.885Z" fill="#151E23"/>
<path fill-rule="evenodd" clip-rule="evenodd" d="M266.444 334.006L290.244 332.194L300.216 412.9L291.309 412.988L266.444 334.006Z" fill="#151E23"/>
<path fill-rule="evenodd" clip-rule="evenodd" d="M139.336 333.999L115.536 332.187L105.564 412.894L114.471 412.981L139.336 333.999Z" fill="#151E23"/>
<path fill-rule="evenodd" clip-rule="evenodd" d="M315.056 333.999L338.856 332.187L348.828 412.893L339.921 412.981L315.056 333.999Z" fill="#151E23"/>
<path fill-rule="evenodd" clip-rule="evenodd" d="M187.947 333.997L164.147 332.186L154.174 412.892L163.081 412.979L187.947 333.997Z" fill="#151E23"/>
<path fill-rule="evenodd" clip-rule="evenodd" d="M268.629 270.568L285.688 372.978C285.688 372.978 327.279 372.962 341.645 372.957C344.319 372.955 346.498 370.816 346.564 368.14C346.931 351 348.17 293.03 348.55 275.559C348.575 274.24 348.075 272.959 347.148 272.015C346.222 271.071 344.96 270.537 343.638 270.541C326.092 270.551 268.629 270.568 268.629 270.568Z" fill="#C4C0BF"/>
<path d="M300.907 337.611H130.741V372.968H300.907V337.611Z" fill="#C4C0BF"/>
<path d="M101.503 232.819C101.35 231.438 101.798 230.057 102.724 229.029C103.65 228 104.974 227.407 106.358 227.398C133.344 227.37 252.567 227.231 276.906 227.203C279.39 227.203 281.477 229.057 281.762 231.522C283.848 249.296 291.676 315.824 291.676 315.824L111.122 321.533C111.122 321.533 103.671 252.836 101.503 232.819Z" fill="#D9D5D4"/>
<path d="M209.904 325.546C209.782 325.546 209.67 325.453 209.66 325.323L199.033 223.496C199.022 223.357 199.114 223.237 199.256 223.218C199.389 223.2 199.521 223.302 199.531 223.441L210.159 325.268C210.169 325.407 210.077 325.527 209.935 325.546C209.925 325.546 209.914 325.546 209.904 325.546Z" fill="#151E23"/>
<path d="M127.118 276.217C126.989 276.217 126.879 276.116 126.879 275.996L120.084 227.215C120.066 227.074 120.157 226.954 120.304 226.934C120.433 226.914 120.561 227.014 120.58 227.155L127.375 275.936C127.393 276.076 127.302 276.197 127.155 276.217C127.136 276.217 127.118 276.217 127.118 276.217Z" fill="#151E23"/>
<path fill-rule="evenodd" clip-rule="evenodd" d="M142.008 328.776C142.008 324.091 143.865 319.607 147.171 316.299C150.478 312.99 154.96 311.131 159.635 311.131H299.539C304.214 311.131 308.697 312.99 312.004 316.299C315.31 319.607 317.167 324.099 317.167 328.776C317.167 333.453 315.31 337.945 312.004 341.254C308.697 344.562 304.214 346.422 299.539 346.422H159.635C154.96 346.422 150.478 344.562 147.171 341.254C143.865 337.945 142.008 333.453 142.008 328.776Z" fill="#D9D5D4"/>
<path d="M299.542 311.377H156.56C156.419 311.377 156.299 311.253 156.299 311.129C156.299 311.006 156.419 310.882 156.56 310.882H299.542C299.683 310.882 299.803 311.006 299.803 311.129C299.803 311.253 299.683 311.377 299.542 311.377Z" fill="#151E23"/>
<path d="M244.655 264.852C235.948 269.923 224.778 266.075 221.015 256.715L209.005 228.918L197.375 203.765C196.454 201.701 196.014 199.557 195.993 197.452C195.913 191.199 199.517 185.227 205.602 182.561C213.569 179.074 222.857 182.601 226.52 190.498L238.37 215.149L244.715 229.038L251.561 244.009C254.844 251.685 251.902 260.643 244.655 264.852Z" fill="#FD9F84"/>
<path opacity="0.4" d="M244.716 229.038C236.649 231.002 221.256 234.73 220.335 234.77L238.37 215.149L244.716 229.038Z" fill="#966954"/>
<path d="M230.884 190.057L246.037 222.164L209.225 238.959L195.914 205.99C194.813 203.525 194.272 200.94 194.252 198.414C194.152 190.919 199.317 183.944 206.623 180.758C216.191 176.569 226.5 180.597 230.884 190.057Z" fill="#0038FF"/>
<path fill-rule="evenodd" clip-rule="evenodd" d="M293.537 326.2L315.656 384.18L339.477 375.963L322.102 316.279L293.537 326.2Z" fill="#FD9F84"/>
<path d="M335.793 360.492L309.751 368.709L311.793 375.783L330.269 379.13L337.315 366.945L335.793 360.492Z" fill="white"/>
<path d="M367.961 381.073C368.502 383.298 368.362 385.523 368.362 385.523L316.797 398.43L315.876 394.221L311.052 372.395C314.715 368.588 319.099 374.881 323.983 374.299C328.848 373.718 336.634 364.479 336.634 364.479C336.634 364.479 341.278 369.97 348.304 373.418C355.31 376.865 358.313 376.223 363.637 376.544C364.518 376.604 365.239 376.885 365.819 377.306C366.98 378.167 367.621 379.63 367.961 381.073Z" fill="white"/>
<path d="M367.961 381.073C368.502 383.298 368.362 385.522 368.362 385.522L316.797 398.429L315.876 394.221L367.961 381.073Z" fill="#151E23"/>
<path d="M338.456 374.38C338.335 374.38 338.235 374.3 338.215 374.2C338.175 374.059 338.255 373.919 338.396 373.899L338.956 373.759L345.862 371.915C346.002 371.875 346.142 371.955 346.162 372.095C346.202 372.236 346.122 372.376 345.982 372.396L338.516 374.4C338.496 374.38 338.476 374.38 338.456 374.38Z" fill="#151E23"/>
<path d="M341.258 376.745C341.138 376.745 341.038 376.665 341.018 376.564C340.978 376.424 341.058 376.284 341.198 376.264L349.845 373.959C349.985 373.919 350.125 373.999 350.145 374.139C350.185 374.28 350.105 374.42 349.965 374.44L341.318 376.745C341.318 376.745 341.298 376.745 341.258 376.745Z" fill="#151E23"/>
<path fill-rule="evenodd" clip-rule="evenodd" d="M289.134 397.268L279.426 397.929L263.992 399.011L263.092 390.193L262.291 382.537L257.627 337.283L287.793 335.119L288.794 381.395L288.934 388.429L289.134 397.268Z" fill="#FD9F84"/>
<path d="M288.934 388.429L279.426 397.928V397.948V397.928L263.092 390.192L262.431 389.892L262.291 382.536L288.794 381.394L288.934 388.429Z" fill="white"/>
<path d="M315.216 408.831C315.196 411.136 314.516 413.24 314.516 413.24L261.37 413.281L261.49 408.972L262.091 386.625C266.555 383.819 269.297 390.974 274.181 391.595C279.045 392.217 288.834 385.142 288.834 385.142C288.834 385.142 292.016 391.595 298.002 396.646C303.967 401.696 307.029 401.797 312.114 403.4C312.954 403.661 313.575 404.101 314.055 404.683C314.936 405.785 315.216 407.348 315.216 408.831Z" fill="white"/>
<path d="M315.216 408.832C315.196 411.136 314.516 413.241 314.516 413.241L261.37 413.281L261.49 408.972L315.216 408.832Z" fill="#151E23"/>
<path d="M288.253 395.203C288.113 395.203 288.013 395.103 288.013 394.963C288.013 394.823 288.113 394.702 288.253 394.702H288.833L295.98 394.582C296.12 394.582 296.24 394.682 296.24 394.823C296.24 394.963 296.14 395.083 296 395.083L288.253 395.203Z" fill="#151E23"/>
<path d="M290.395 398.169C290.255 398.169 290.155 398.069 290.155 397.929C290.155 397.788 290.255 397.668 290.395 397.668L299.343 397.528C299.483 397.528 299.603 397.628 299.603 397.768C299.603 397.909 299.503 398.029 299.363 398.029L290.395 398.169C290.415 398.169 290.415 398.169 290.395 398.169Z" fill="#151E23"/>
<path fill-rule="evenodd" clip-rule="evenodd" d="M312.195 275.077C312.195 275.077 311.251 271.779 309.975 267.319C306.162 253.992 292.753 245.838 279.175 248.585C272.026 250.029 266.064 251.235 266.064 251.235L205.811 269.065C205.811 269.065 205.716 270.41 206.023 274.377C206.488 280.511 209.54 286.124 214.375 289.759C219.211 293.394 225.367 294.696 231.234 293.325C249.318 289.102 271.298 283.961 271.298 283.961L312.195 275.077Z" fill="#151E23"/>
<path d="M177.182 279.428C171.519 286.195 170.364 295.683 174.232 303.603C178.118 311.536 186.289 316.44 195.109 316.125C225.539 314.991 258.557 313.773 258.557 313.773L257.248 375.928L296.975 376.135C296.975 376.135 295.681 325.104 294.889 293.48C294.54 279.773 283.43 268.784 269.745 268.595C243.451 268.251 204.258 268.07 195.442 269.901C182.927 272.508 177.182 279.428 177.182 279.428Z" fill="#151E23"/>
<path fill-rule="evenodd" clip-rule="evenodd" d="M274.338 286.384L296.929 367.142L304.357 359.904L299.049 333.377L274.338 286.384Z" fill="#313133"/>
<path fill-rule="evenodd" clip-rule="evenodd" d="M270.222 273.655L300.389 361.509L337.638 351.072L310.259 270.132L270.222 273.655Z" fill="#151E23"/>
<path d="M300.343 361.755C300.243 361.755 300.143 361.695 300.103 361.594L270.037 273.932L221.536 276.598C221.396 276.598 221.275 276.498 221.275 276.357C221.275 276.217 221.375 276.097 221.516 276.097L270.197 273.431C270.298 273.431 270.418 273.491 270.458 273.591L300.604 361.434C300.644 361.574 300.584 361.715 300.443 361.755C300.403 361.755 300.383 361.755 300.343 361.755Z" fill="#313133"/>
<path d="M174.595 158.532L175.516 180.197C175.576 181.539 174.735 182.762 173.474 183.203L159.442 187.953L189.888 193.264L217.192 185.428L199.396 181.58C198.075 181.299 197.094 180.157 197.014 178.814L196.734 174.064L196.394 168.573L196.374 168.112L190.669 163.763L174.595 158.532Z" fill="#FD9F84"/>
<path opacity="0.4" d="M185.304 170.938C188.407 172.661 194.091 173.443 196.714 172.982L196.373 167.491C193.971 168.172 189.287 168.473 185.384 167.21L183.843 167.09C183.843 167.09 182.281 169.274 185.304 170.938Z" fill="#966954"/>
<path d="M201.138 140.014C201.138 140.014 206.603 163.223 197.094 169.656C189.468 174.807 178.438 171.379 174.935 162.782C171.432 154.184 176.557 138.13 176.557 138.13L190.168 132.338L201.138 140.014Z" fill="#FD9F84"/>
<path fill-rule="evenodd" clip-rule="evenodd" d="M194.514 129.763C187.41 127.944 179.537 130.042 173.344 133.994C164.913 139.369 164.443 153.694 171.124 160.63C171.381 160.899 174.5 164.086 174.797 163.52C179.605 154.502 182.291 141.227 182.291 141.227C182.291 141.227 204.11 149.987 207.357 140.996C207.691 140.078 205.339 137.131 204.801 136.43C203.703 135.014 202.397 133.754 200.93 132.724C198.92 131.305 196.75 130.338 194.514 129.763Z" fill="#313133"/>
<path d="M179.939 151.859C179.939 151.859 174.515 146.608 171.112 148.532C167.689 150.436 168.489 159.134 176.797 160.557L179.939 151.859Z" fill="#FD9F84"/>
<path d="M176.196 155.065C176.136 155.065 176.096 155.045 176.036 155.005L171.813 151.698C171.712 151.618 171.692 151.458 171.773 151.338C171.853 151.237 172.013 151.217 172.133 151.298L176.356 154.604C176.457 154.685 176.477 154.845 176.396 154.965C176.356 155.025 176.276 155.065 176.196 155.065Z" fill="#151E23"/>
<path fill-rule="evenodd" clip-rule="evenodd" d="M191.477 152.585C191.103 152.559 190.744 152.931 190.721 153.424C190.698 153.918 190.982 154.343 191.356 154.369C191.73 154.394 192.088 154.023 192.111 153.529C192.167 153.041 191.883 152.617 191.477 152.585Z" fill="#151E23"/>
<path fill-rule="evenodd" clip-rule="evenodd" d="M200.661 153.526C200.287 153.5 199.929 153.872 199.906 154.365C199.882 154.859 200.166 155.284 200.54 155.309C200.914 155.335 201.273 154.964 201.296 154.47C201.352 153.982 201.068 153.558 200.661 153.526Z" fill="#151E23"/>
<path d="M194.712 163.964C190.909 163.904 190.268 161.198 190.268 161.178C190.248 161.038 190.328 160.918 190.468 160.878C190.608 160.858 190.729 160.938 190.769 161.078C190.789 161.178 191.349 163.423 194.732 163.483C194.872 163.483 194.972 163.603 194.972 163.744C194.952 163.844 194.832 163.964 194.712 163.964Z" fill="#151E23"/>
<path d="M196.133 160.436C196.013 160.436 195.893 160.416 195.793 160.396C195.653 160.356 195.573 160.215 195.613 160.095C195.653 159.955 195.793 159.875 195.913 159.915C195.993 159.935 196.754 160.095 197.014 159.133C197.174 158.552 197.094 157.45 197.034 156.247C196.954 154.984 196.874 153.662 197.034 152.72C197.394 150.696 201.078 150.976 201.238 150.996C201.378 151.016 201.478 151.136 201.458 151.277C201.438 151.417 201.318 151.517 201.178 151.497C201.138 151.497 197.795 151.237 197.514 152.82C197.354 153.722 197.434 155.005 197.514 156.227C197.595 157.45 197.675 158.612 197.474 159.273C197.254 160.195 196.614 160.436 196.133 160.436Z" fill="#151E23"/>
<path d="M193.971 151.197C193.911 151.197 193.851 151.177 193.791 151.117C192.35 149.714 189.948 150.235 189.908 150.235C189.768 150.255 189.648 150.175 189.608 150.035C189.588 149.894 189.668 149.774 189.808 149.734C189.908 149.714 192.49 149.173 194.131 150.736C194.232 150.836 194.232 150.997 194.131 151.097C194.091 151.177 194.031 151.197 193.971 151.197Z" fill="#151E23"/>
<path fill-rule="evenodd" clip-rule="evenodd" d="M149.834 187.031C154.218 182.522 175.296 178.574 175.296 178.574C189.208 188.775 197.214 176.95 197.214 176.95C209.505 178.113 218.032 179.556 218.032 179.556L226.38 202.984L233.646 260.724L166.808 293.612C166.808 293.612 145.45 191.561 149.834 187.031Z" fill="#0038FF"/>
<path d="M147.572 277.359C137.043 274.954 134.04 267.318 136.162 256.716L141.406 198.455C142.027 195.83 143.168 193.445 144.669 191.421C149.133 185.408 156.92 182.322 164.646 184.206C174.775 186.691 181.081 196.812 178.839 207.013L169.791 259.863L147.572 277.359Z" fill="#0038FF"/>
<path d="M201.675 196.343L197.63 200.787L218.579 219.903L222.624 215.459L201.675 196.343Z" fill="white"/>
<path fill-rule="evenodd" clip-rule="evenodd" d="M201.999 197.193L198.496 201.041C198.196 201.362 197.675 201.402 197.355 201.101L195.213 199.157C194.893 198.857 194.853 198.336 195.153 198.015L198.656 194.167C198.956 193.846 199.477 193.806 199.797 194.107L201.939 196.051C202.259 196.351 202.299 196.873 201.999 197.193Z" fill="#151E23"/>
<path fill-rule="evenodd" clip-rule="evenodd" d="M222.617 215.472L225.059 220.402L226.28 222.867L223.698 221.885L218.573 219.921L222.617 215.472Z" fill="white"/>
<path fill-rule="evenodd" clip-rule="evenodd" d="M225.058 220.401L226.279 222.867L223.697 221.884L225.058 220.401Z" fill="#151E23"/>
<path d="M218.573 220.161C218.513 220.161 218.453 220.141 218.413 220.101C218.313 220.001 218.313 219.841 218.393 219.74L222.436 215.291C222.536 215.191 222.696 215.191 222.796 215.271C222.897 215.371 222.897 215.532 222.816 215.632L218.773 220.081C218.713 220.141 218.633 220.161 218.573 220.161Z" fill="#151E23"/>
<path d="M219.854 218.758C219.794 218.758 219.734 218.738 219.694 218.698L198.856 199.679C198.756 199.579 198.756 199.418 198.836 199.318C198.936 199.218 199.096 199.218 199.196 199.298L220.034 218.318C220.134 218.418 220.134 218.578 220.054 218.678C219.994 218.738 219.914 218.758 219.854 218.758Z" fill="#151E23"/>
<path d="M221.335 217.135C221.275 217.135 221.215 217.115 221.175 217.075L200.337 198.055C200.237 197.955 200.237 197.795 200.317 197.695C200.417 197.594 200.577 197.594 200.677 197.675L221.515 216.694C221.615 216.794 221.615 216.955 221.535 217.055C221.475 217.095 221.415 217.135 221.335 217.135Z" fill="#151E23"/>
<path fill-rule="evenodd" clip-rule="evenodd" d="M176.155 240.864C186.478 240.792 185.001 243.296 196.226 231.606C196.226 231.606 202.818 229.532 210.682 223.371C213.389 221.382 216.294 219.138 218.195 217.952C220.289 216.508 218.098 214.051 218.098 214.051C218.553 212.378 217.922 211.095 216.864 210.095C217.256 207.971 216.841 206.645 215.139 205.965C215.139 205.965 214.681 206.027 216.838 205.035C217.483 204.714 217.877 204.199 218.264 203.685C218.62 202.946 218.235 201.856 217.69 201.243C216.888 200.436 215.805 200.82 214.935 201.172C212.328 202.228 209.913 203.024 207.337 204.305C205.598 205.009 203.877 205.942 202.17 206.872C200.238 207.833 198.32 208.792 196.644 209.947C190.041 213.632 187.978 215.298 173.392 232.517L176.155 240.864Z" fill="#F7A889"/>
<path d="M209.686 219.613C209.429 219.419 209.398 219.196 209.623 219.164L218.719 213.516L226.86 209.384L233.019 207.37C233.244 207.339 233.231 207.344 233.262 207.569C233.294 207.795 233.308 207.796 233.083 207.828L226.924 209.842L218.781 213.965L209.686 219.613C209.911 219.581 209.911 219.581 209.686 219.613Z" fill="#151E23"/>
<path d="M207.289 215.579C207.289 215.579 207.064 215.61 207.289 215.579C207.032 215.385 207.001 215.162 207.226 215.13L229.386 202.827C229.611 202.795 229.615 202.798 229.647 203.024C229.678 203.249 229.674 203.244 229.449 203.276L207.289 215.579Z" fill="#151E23"/>
<path d="M204.404 211.659C204.367 211.435 204.367 211.435 204.404 211.659C204.142 211.473 204.103 211.242 204.327 211.204L224.3 201.122C224.525 201.084 224.529 201.087 224.567 201.311C224.604 201.535 224.6 201.531 224.376 201.569L204.404 211.659C204.629 211.621 204.404 211.659 204.404 211.659Z" fill="#151E23"/>
<path d="M149.374 238.038L190.369 210.662L204.461 232.046L161.704 271.608C155.759 277.12 146.571 277.14 140.586 271.668C134.401 265.997 133.8 256.457 139.205 250.043L149.374 238.038Z" fill="#0038FF"/>
<path d="M156.54 235.031C156.46 235.031 156.38 234.991 156.34 234.931C156.259 234.811 156.279 234.67 156.4 234.59L190.209 210.48C190.329 210.4 190.469 210.42 190.549 210.54C190.629 210.661 190.609 210.801 190.489 210.881L156.68 234.991C156.66 235.011 156.6 235.031 156.54 235.031Z" fill="#151E23"/>
<path d="M168.39 226.513C168.37 226.513 168.37 226.513 168.35 226.513C168.21 226.493 168.109 226.373 168.13 226.233L169.331 217.615C169.351 217.474 169.471 217.374 169.611 217.394C169.751 217.414 169.851 217.534 169.831 217.675L168.63 226.293C168.63 226.413 168.51 226.513 168.39 226.513Z" fill="#151E23"/>
<path d="M161.684 271.847C161.624 271.847 161.544 271.827 161.504 271.767C161.404 271.667 161.424 271.507 161.524 271.406L204.281 231.844C204.381 231.744 204.541 231.764 204.641 231.864C204.741 231.964 204.721 232.125 204.621 232.225L161.864 271.787C161.804 271.827 161.744 271.847 161.684 271.847Z" fill="#151E23"/>
<path fill-rule="evenodd" clip-rule="evenodd" d="M171.993 136.266C171.993 136.266 164.987 135.464 164.186 133.46C164.186 133.46 165.387 130.253 169.39 130.855C169.39 130.855 168.99 127.047 170.992 125.443C170.992 125.443 175.996 131.055 175.796 134.061C175.596 137.068 171.993 136.266 171.993 136.266Z" fill="#313133"/>
<path d="M229.723 229.861C229.623 229.861 229.522 229.801 229.482 229.701L221.456 207.454C221.415 207.334 221.476 207.174 221.616 207.134C221.736 207.094 221.896 207.154 221.936 207.294L229.963 229.54C230.003 229.661 229.943 229.821 229.803 229.861C229.783 229.861 229.763 229.861 229.723 229.861Z" fill="#151E23"/>
<path d="M165.611 270.564C167.822 270.566 169.766 272.049 170.352 274.182C175.334 292.374 197.439 372.98 197.439 372.98C197.439 372.98 130.185 372.957 111.416 372.95C108.743 372.948 106.555 370.807 106.498 368.134C106.131 350.994 104.892 293.029 104.521 275.561C104.489 274.237 104.995 272.962 105.922 272.018C106.849 271.074 108.11 270.54 109.432 270.544C121.983 270.55 154.537 270.557 165.611 270.564Z" fill="#C4C0BF"/>
<path d="M155.539 371.273C155.398 371.273 155.278 371.153 155.278 371.013V275.655C155.278 275.514 155.398 275.394 155.539 275.394C155.679 275.394 155.799 275.514 155.799 275.655V371.013C155.799 371.153 155.679 371.273 155.539 371.273Z" fill="#151E23"/>
<path d="M318.358 347.064C318.338 347.064 318.318 347.064 318.298 347.064C318.158 347.024 318.078 346.904 318.118 346.763L335.053 275.896C335.093 275.756 335.213 275.676 335.353 275.716C335.493 275.756 335.573 275.876 335.533 276.017L318.599 346.884C318.579 346.984 318.479 347.064 318.358 347.064Z" fill="#151E23"/>
<path fill-rule="evenodd" clip-rule="evenodd" d="M231.244 221.703L225.039 259.481H255.985L263.432 219.158H234.246C232.745 219.178 231.484 220.24 231.244 221.703Z" fill="white"/>
<path fill-rule="evenodd" clip-rule="evenodd" d="M234.667 219.177L228.041 259.501H258.988L266.454 219.177H234.667Z" fill="#EC6256"/>
<path fill-rule="evenodd" clip-rule="evenodd" d="M267.695 236.013C268.015 234.691 267.215 233.388 265.893 233.087L260.969 232.426C260.028 232.306 259.008 232.326 258.107 232.687C257.286 233.007 256.465 233.709 256.565 234.57C256.686 235.713 258.267 236.254 259.248 236.494L264.752 237.837C266.074 238.118 267.375 237.316 267.695 236.013Z" fill="#FD9F84"/>
<path fill-rule="evenodd" clip-rule="evenodd" d="M266.634 240.403C266.914 239.26 266.193 237.577 264.872 237.276C264.872 237.276 259.147 236.835 258.086 236.715C257.046 236.595 254.904 237.236 254.824 238.459C254.764 239.401 255.264 240.383 256.085 240.743C256.745 241.044 263.771 241.946 263.771 241.946C265.072 242.226 266.354 241.545 266.634 240.403Z" fill="#FD9F84"/>
<path fill-rule="evenodd" clip-rule="evenodd" d="M265.493 244.852C265.813 243.529 265.193 241.846 263.851 241.545C262.03 241.305 260.048 241.445 258.227 241.184C256.965 241.004 255.564 241.605 255.204 243.168C254.904 244.531 256.145 245.052 257.126 245.533L262.53 246.676C263.851 246.976 265.172 246.155 265.493 244.852Z" fill="#FD9F84"/>
<path fill-rule="evenodd" clip-rule="evenodd" d="M264.512 249.461C264.852 248.138 264.011 246.455 262.55 246.134L258.627 245.914C256.965 245.613 255.003 246.756 255.944 248.419C256.305 249.04 256.965 249.621 257.726 249.802L261.409 250.724C262.61 251.024 264.211 250.543 264.512 249.461Z" fill="#FD9F84"/>
<path d="M265.813 238.038C265.793 238.038 265.793 238.038 265.773 238.038C264.572 237.837 263.511 237.677 262.59 237.537C258.827 236.955 257.126 236.695 256.505 235.693C256.185 235.172 256.205 234.49 256.545 233.408C257.286 231.143 265.072 232.666 265.953 232.847C266.093 232.867 266.173 233.007 266.153 233.147C266.133 233.288 265.993 233.368 265.853 233.348C262.67 232.706 257.466 232.185 257.026 233.568C256.725 234.49 256.705 235.051 256.925 235.432C257.426 236.234 259.267 236.514 262.65 237.035C263.591 237.176 264.652 237.336 265.853 237.537C265.993 237.557 266.073 237.697 266.053 237.817C266.033 237.957 265.933 238.038 265.813 238.038Z" fill="#151E23"/>
<path d="M264.793 242.105C264.793 242.105 264.773 242.105 264.793 242.105C264.512 242.105 257.967 241.885 255.605 240.723C254.764 240.302 254.324 239.24 254.604 238.278C254.744 237.776 255.445 236.173 258.407 236.474C258.547 236.494 258.647 236.614 258.627 236.754C258.607 236.895 258.487 236.995 258.347 236.975C256.606 236.794 255.384 237.336 255.064 238.418C254.844 239.159 255.164 239.961 255.805 240.282C258.067 241.404 264.713 241.624 264.773 241.624C264.913 241.624 265.013 241.745 265.013 241.885C265.033 241.985 264.913 242.105 264.793 242.105Z" fill="#151E23"/>
<path d="M263.571 246.895H263.551C263.311 246.875 257.646 246.414 255.745 244.951C255.104 244.45 254.884 243.609 255.184 242.807C255.544 241.865 256.685 240.903 258.787 241.083C258.927 241.104 259.027 241.224 259.027 241.344C259.007 241.484 258.887 241.585 258.767 241.585C256.926 241.444 255.965 242.226 255.665 242.987C255.444 243.589 255.585 244.19 256.065 244.551C257.846 245.913 263.551 246.374 263.611 246.394C263.752 246.414 263.852 246.535 263.832 246.655C263.812 246.795 263.711 246.895 263.571 246.895Z" fill="#151E23"/>
<path d="M262.931 250.985H262.911L258.908 250.584C258.147 250.504 257.447 250.283 256.826 249.943C256.406 249.702 255.685 249.201 255.525 248.56C255.325 247.758 255.405 247.097 255.805 246.616C256.566 245.654 258.127 245.694 258.207 245.694C258.347 245.694 258.447 245.814 258.447 245.954C258.447 246.094 258.347 246.215 258.187 246.195C258.167 246.195 256.786 246.175 256.205 246.936C255.925 247.297 255.845 247.818 256.025 248.439C256.105 248.78 256.506 249.161 257.086 249.502C257.627 249.822 258.267 250.003 258.968 250.083L262.971 250.484C263.111 250.504 263.211 250.624 263.191 250.764C263.171 250.885 263.051 250.985 262.931 250.985Z" fill="#151E23"/>
<path fill-rule="evenodd" clip-rule="evenodd" d="M477.762 401.611C477.762 401.611 482.927 394.533 484.655 383.298C485.143 380.143 485.353 372.985 485.835 369.086C485.991 367.833 479.906 370.465 479.906 370.465C479.906 370.465 485.657 366.966 485.607 366.321C485.218 361.468 484.702 359.642 483.601 355.423C483.288 354.237 477.838 356.951 477.838 356.951C477.838 356.951 482.562 353.118 482.179 352.019C478.63 341.918 473.478 333.993 466.538 329.203C465.766 328.673 464.726 328.786 464.092 329.461C462.494 331.155 460.418 332.904 460.162 342.204C460.045 346.414 460.633 351.843 460.633 351.843L468.53 350.619L461.283 354.701C461.455 361.935 474.374 401.166 477.762 401.611Z" fill="#C4C0BF"/>
<path d="M475.857 413.429C475.841 413.43 475.827 413.424 475.811 413.425C475.678 413.4 475.583 413.273 475.604 413.134C479.796 389.51 477.511 370.825 474.85 359.314C471.97 346.836 468.052 339.855 468.012 339.783C467.946 339.662 467.99 339.509 468.108 339.441C468.225 339.374 468.382 339.417 468.451 339.532C468.491 339.604 472.437 346.628 475.337 359.169C478.008 370.731 480.304 389.499 476.104 413.214C476.079 413.343 475.975 413.432 475.857 413.429Z" fill="#151E23"/>
<g opacity="0.8">
<g opacity="0.8">
<path opacity="0.8" fill-rule="evenodd" clip-rule="evenodd" d="M486.873 398.008C486.873 398.008 491.045 367.535 515.783 360.522C516.272 360.383 516.795 360.447 517.235 360.695C517.676 360.943 518.001 361.362 518.133 361.853C518.586 363.543 518.576 366.538 515.814 371.091C515.674 371.322 515.139 372.165 514.951 372.425C514.632 372.877 512.126 371.244 512.126 371.244C512.126 371.244 514.303 373.377 513.828 373.915C512.386 375.547 509.725 378.263 508.092 379.853C507.5 380.428 505.027 377.831 505.027 377.831C505.027 377.831 506.718 381.252 505.98 381.918C498.753 388.473 489.374 395.87 486.873 398.008Z" fill="#C4C0BF"/>
</g>
</g>
<path d="M482.465 413.424C482.445 413.422 482.431 413.42 482.411 413.419C482.277 413.387 482.193 413.254 482.221 413.118C486.711 392.891 494.761 381.351 500.722 375.228C507.195 368.576 512.702 366.698 512.753 366.679C512.885 366.634 513.025 366.705 513.07 366.839C513.116 366.972 513.043 367.114 512.912 367.154C512.856 367.172 507.444 369.026 501.051 375.605C495.144 381.679 487.167 393.135 482.71 413.227C482.683 413.344 482.582 413.425 482.465 413.424Z" fill="#151E23"/>
<g opacity="0.6">
<g opacity="0.6">
<path opacity="0.6" fill-rule="evenodd" clip-rule="evenodd" d="M467.085 402.398C467.085 402.398 468.699 376.582 455.732 363.546C442.766 350.511 442.897 351.972 441.988 355.341C441.573 356.871 440.597 360.47 440.339 365.204C440.299 365.903 447.161 365.727 447.161 365.727C447.161 365.727 440.196 367.795 440.242 368.591C440.315 369.966 440.463 371.48 440.719 373.078C440.831 373.793 448.351 371.931 448.351 371.931C448.351 371.931 441.042 374.851 441.203 375.82C441.69 378.702 443.363 383.055 444.814 385.714C452.215 399.26 467.085 402.398 467.085 402.398Z" fill="#C4C0BF"/>
</g>
</g>
<path d="M470.064 413.431C469.946 413.429 469.839 413.345 469.818 413.228C469.3 410.527 468.465 406.537 467.107 403.092C453.756 369.117 444.303 358.422 444.205 358.319C444.113 358.218 444.119 358.058 444.221 357.968C444.324 357.878 444.481 357.881 444.573 357.982C444.672 358.085 454.177 368.825 467.568 402.91C468.938 406.399 469.785 410.417 470.301 413.141C470.33 413.277 470.24 413.411 470.104 413.432C470.097 413.429 470.081 413.43 470.064 413.431Z" fill="#151E23"/>
<g opacity="0.7">
<g opacity="0.7">
<path opacity="0.7" fill-rule="evenodd" clip-rule="evenodd" d="M198.321 80.7629L85.5701 79.2487C85.5701 79.2487 91.4823 63.719 116.51 62.1725C116.51 62.1725 125.997 49.4137 142.945 49.0915C162.399 48.6726 169.55 62.3336 169.55 62.3336C169.55 62.3336 188.327 60.2715 198.321 80.7629Z" fill="#F5F1EE"/>
</g>
</g>
<path fill-rule="evenodd" clip-rule="evenodd" d="M80.8037 304.918C80.8037 304.918 91.148 266.035 75.5643 236.537C70.8677 227.648 65.3223 221.859 58.8586 217.529C54.239 214.439 48.2076 214.475 43.6342 217.627C39.0608 220.78 36.8734 226.404 38.1118 231.822C39.7682 239.088 43.0543 247.31 49.2316 255.486C62.2048 272.681 74.4249 295.1 80.8037 304.918Z" fill="#00E26C"/>
<path d="M78.2397 361.677C78.2251 361.678 78.216 361.677 78.2023 361.674C78.0648 361.654 77.9735 361.525 77.9924 361.389C85.9861 307.924 76.2092 272.459 66.6031 252.124C56.1969 230.095 43.741 220.583 43.6137 220.49C43.5038 220.406 43.4797 220.249 43.5643 220.138C43.6489 220.027 43.8043 220.006 43.9151 220.087C44.0424 220.179 56.5807 229.749 67.0423 251.876C73.184 264.862 77.4211 279.573 79.6437 295.606C82.4187 315.635 82.0323 337.796 78.4918 361.465C78.4664 361.586 78.358 361.676 78.2397 361.677Z" fill="#615F5D"/>
<path fill-rule="evenodd" clip-rule="evenodd" d="M90.6057 301.513C90.6057 301.513 87.2652 249.84 115.682 238.546C116.238 238.325 116.863 238.347 117.395 238.618C117.929 238.889 118.321 239.379 118.47 239.961C119.462 243.935 121.049 252.817 118.472 262.018C115.001 274.433 94.9417 295.045 90.6057 301.513Z" fill="#00E26C"/>
<path d="M83.0183 354.697C82.8869 354.698 82.7762 354.595 82.7692 354.461C82.1067 343.272 83.3483 330.747 86.4536 317.232C88.9374 306.427 92.6122 294.966 97.3804 283.173C105.495 263.093 114.075 248.811 114.16 248.67C114.232 248.551 114.384 248.512 114.505 248.584C114.622 248.655 114.661 248.81 114.589 248.929C114.504 249.07 105.94 263.323 97.8413 283.369C90.3689 301.858 81.778 329.197 83.2684 354.431C83.2759 354.568 83.17 354.687 83.0341 354.697C83.0275 354.696 83.0244 354.696 83.0183 354.697Z" fill="#615F5D"/>
<path fill-rule="evenodd" clip-rule="evenodd" d="M54.8745 298.558C54.8745 298.558 43.5152 293.513 36.9719 297.837C32.9725 300.478 31.1564 305.797 26.2822 304.311C16.5656 301.346 21.8641 289.485 23.0244 288.61L42.775 286.097L54.8745 298.558Z" fill="#009748"/>
<path fill-rule="evenodd" clip-rule="evenodd" d="M72.2861 329.061C72.2861 329.061 79.0305 307.085 62.6734 284.909C56.2396 276.178 46.129 274.108 38.1817 276.485C28.7944 279.29 22.3929 289.308 22.3929 289.308C22.3929 289.308 39.1534 283.16 49.9423 303.345C59.3061 320.867 72.2861 329.061 72.2861 329.061Z" fill="#00E26C"/>
<path d="M76.5346 366.637C76.411 366.635 76.3045 366.544 76.2885 366.419C75.9467 363.89 75.8692 361.125 75.7805 357.919C75.5904 350.976 75.3542 342.337 72.3465 329.899C66.3221 304.985 64.1157 298.286 56.2369 289.675C47.368 279.99 41.0229 278.748 35.2811 278.302C35.144 278.291 35.0383 278.17 35.0518 278.032C35.0614 277.892 35.1848 277.791 35.3219 277.802C41.1614 278.255 47.6158 279.518 56.6077 289.335C64.5666 298.035 66.7893 304.767 72.8363 329.783C75.8591 342.274 76.0946 350.943 76.2875 357.908C76.3755 361.097 76.4488 363.851 76.7896 366.354C76.8098 366.49 76.7136 366.619 76.5758 366.637C76.555 366.633 76.5439 366.636 76.5346 366.637Z" fill="#615F5D"/>
<path fill-rule="evenodd" clip-rule="evenodd" d="M98.6754 320.832C98.6754 320.832 104.682 298.701 119.28 291.468C133.879 284.238 133.345 285.424 133.148 288.512C132.951 291.605 132.197 303.935 122.121 313.19C112.046 322.453 98.6754 320.832 98.6754 320.832Z" fill="#00E26C"/>
<path d="M78.2767 353.274C78.2681 353.274 78.2593 353.272 78.2507 353.273C78.1137 353.258 78.0143 353.134 78.0297 352.997C78.3454 350.125 80.2579 349.005 82.2809 347.818C83.9364 346.848 85.6471 345.844 86.7439 343.793C87.5254 342.33 88.1026 340.583 88.7738 338.56C90.328 333.859 92.2604 328.007 98.1049 321.1C119.067 296.32 130.11 290.021 130.221 289.961C130.343 289.894 130.494 289.937 130.561 290.058C130.628 290.178 130.585 290.33 130.463 290.397C130.355 290.458 119.374 296.731 98.4855 321.421C92.7046 328.254 90.7885 334.055 89.2484 338.715C88.5733 340.762 87.989 342.528 87.1871 344.027C86.0249 346.202 84.1733 347.29 82.5371 348.248C80.5418 349.42 78.8172 350.429 78.528 353.049C78.5121 353.178 78.401 353.273 78.2767 353.274Z" fill="#615F5D"/>
<path fill-rule="evenodd" clip-rule="evenodd" d="M101.582 344.256H62.5171V413.094H101.582V344.256Z" fill="white"/>
<path d="M101.584 413.349H62.5189C62.3789 413.349 62.2681 413.235 62.2681 413.096V344.258C62.2681 344.118 62.3789 344.004 62.5189 344.004H101.584C101.724 344.004 101.835 344.118 101.835 344.258V413.096C101.835 413.235 101.724 413.349 101.584 413.349ZM62.7697 412.849H101.339V344.511H62.7697V412.849Z" fill="#615F5D"/>
</svg>
