<svg width="48" height="48" viewBox="0 0 48 48" fill="none" xmlns="http://www.w3.org/2000/svg">
<path d="M43.9803 13.0933C43.9634 12.2351 43.8942 11.3788 43.7733 10.5291C43.6299 9.77419 43.3862 9.04187 43.0487 8.35156C42.3085 6.8887 41.1211 5.7 39.6591 4.95826C38.9728 4.62168 38.2448 4.37812 37.4941 4.234C36.638 4.11066 35.775 4.04022 34.9101 4.02308C34.5432 4.00976 34.0683 4.00318 33.8492 4.00318L14.1538 4C13.9355 4 13.4606 4.0066 13.0933 4.01966C12.2351 4.03652 11.3788 4.10566 10.5291 4.22668C9.77419 4.3701 9.04188 4.61376 8.35156 4.95118C6.88872 5.69148 5.70001 6.87891 4.95812 8.34094C4.62165 9.02722 4.37809 9.75526 4.23388 10.5059C4.11064 11.3621 4.0402 12.225 4.02294 13.0899C4.00988 13.4568 4.00318 13.9317 4.00318 14.1507L4 33.8462C4 34.0643 4.0066 34.5393 4.01966 34.9067C4.03652 35.7649 4.10566 36.6212 4.22668 37.4709C4.37012 38.2258 4.61378 38.9581 4.95118 39.6484C5.69144 41.1112 6.87883 42.2999 8.34082 43.0417C9.02715 43.3782 9.75523 43.6218 10.5059 43.766C11.362 43.8894 12.225 43.9598 13.0899 43.9769C13.4567 43.9901 13.9317 43.9968 14.1507 43.9968L33.8462 44C34.0643 44 34.5394 43.9934 34.9066 43.9803C35.7648 43.9634 36.6212 43.8943 37.4709 43.7733C38.2257 43.6298 38.958 43.3862 39.6483 43.0488C41.1112 42.3085 42.2999 41.1211 43.0417 39.6591C43.3783 38.9728 43.6218 38.2448 43.766 37.4941C43.8893 36.638 43.9598 35.775 43.9771 34.9101C43.9902 34.5432 43.9968 34.0683 43.9968 33.8493L44 14.1538C44 13.9357 43.9934 13.4606 43.9803 13.0933ZM24.4335 37.913H24.4276C22.0471 37.9128 19.7045 37.3164 17.6138 36.1781L10.0552 38.1601L12.078 30.7738C10.5109 28.0546 9.88458 24.8943 10.2963 21.783C10.708 18.6717 12.1347 15.7831 14.3552 13.5651C16.5756 11.3471 19.4658 9.9236 22.5776 9.51535C25.6894 9.10711 28.849 9.73689 31.5664 11.3071C34.2839 12.8772 36.4074 15.3001 37.6077 18.1999C38.8081 21.0998 39.0182 24.3147 38.2054 27.3461C37.3927 30.3775 35.6026 33.0561 33.1126 34.9666C30.6227 36.8771 27.5719 37.9127 24.4335 37.913V37.913Z" fill="white"/>
<path d="M24.4379 11.8022C22.3202 11.8018 20.241 12.3686 18.4166 13.4439C16.5922 14.5192 15.0892 16.0636 14.0639 17.9165C13.0386 19.7695 12.5285 21.8633 12.5865 23.9802C12.6445 26.0971 13.2686 28.1598 14.3939 29.9537L14.6758 30.402L13.4785 34.7737L17.9638 33.5974L18.3965 33.8542C20.2227 34.9356 22.3061 35.5059 24.4284 35.5056H24.4331C27.5738 35.5022 30.5847 34.2524 32.8044 32.0307C35.0242 29.8089 36.2714 26.797 36.272 23.6563C36.2727 20.5157 35.0267 17.5032 32.8078 15.2806C30.5889 13.058 27.5786 11.8069 24.4379 11.8022H24.4379ZM31.4087 28.7422C31.1464 29.1752 30.7973 29.5491 30.3835 29.8405C29.9696 30.132 29.4999 30.3346 29.0039 30.4357C28.2552 30.5639 27.4868 30.5156 26.7599 30.2947C26.0702 30.0805 25.3923 29.83 24.7289 29.5444C22.2684 28.3096 20.1712 26.4564 18.6429 24.1666C17.8097 23.1062 17.3042 21.8258 17.1882 20.4822C17.1783 19.9276 17.2841 19.3769 17.4988 18.8653C17.7135 18.3538 18.0324 17.8925 18.4352 17.511C18.5542 17.3753 18.7001 17.2656 18.8636 17.1889C19.0271 17.1122 19.2046 17.0701 19.3852 17.0654C19.6226 17.0654 19.8604 17.0676 20.0679 17.0779C20.2866 17.0888 20.5804 16.9948 20.8696 17.6894C21.1664 18.4024 21.8789 20.1554 21.9679 20.3337C22.0244 20.427 22.0567 20.533 22.0619 20.6419C22.0671 20.7509 22.045 20.8594 21.9977 20.9577C21.9079 21.1718 21.7879 21.3719 21.6414 21.5519C21.4633 21.7599 21.2672 22.0163 21.1071 22.1759C20.9286 22.3535 20.7429 22.5463 20.9507 22.9027C21.4858 23.8186 22.1537 24.6501 22.9327 25.37C23.7777 26.1214 24.7472 26.7196 25.7977 27.1378C26.1539 27.3162 26.3617 27.2864 26.5695 27.0487C26.7774 26.811 27.4602 26.0087 27.6975 25.6522C27.9349 25.2958 28.1725 25.3551 28.499 25.474C28.8256 25.5929 30.5773 26.4545 30.9336 26.6327C31.2899 26.811 31.5274 26.9002 31.6164 27.0487C31.714 27.6215 31.6418 28.2102 31.4087 28.7424V28.7422Z" fill="white"/>
</svg>
