<svg width="70" height="88" viewBox="0 0 70 88" fill="none" xmlns="http://www.w3.org/2000/svg">
<path opacity="0.5" d="M65.12 86.5H65.62V86V65.6755V65.1755H65.12H40.0302L50.5958 54.3961C50.5961 54.3957 50.5964 54.3954 50.5967 54.3951C55.2558 49.6763 58.6898 45.292 60.8798 41.242L60.8817 41.2385C63.0794 37.0947 64.18 32.7067 64.18 28.0811C64.18 19.8798 61.2441 13.3867 55.3559 8.6614C49.579 3.88296 42.6244 1.5 34.52 1.5C27.8719 1.5 21.8593 3.16821 16.4956 6.50989L16.4956 6.50988L16.4927 6.51172C11.2024 9.85834 7.21903 14.5987 4.54196 20.7142L4.35831 21.1337L4.76014 21.3534L23.2401 31.4569L23.7207 31.7197L23.9387 31.2171C25.1551 28.4127 26.6692 26.3476 28.4626 24.984C30.2496 23.6254 32.3415 22.942 34.76 22.942C36.9894 22.942 38.6489 23.542 39.8102 24.679L39.8214 24.6899L39.8331 24.7001C41.0634 25.7628 41.7 27.2582 41.7 29.2559C41.7 30.8578 41.1432 32.5251 39.9839 34.2654L39.9808 34.2702C38.8874 35.9523 36.8349 38.3911 33.7986 41.5985C33.798 41.5991 33.7975 41.5997 33.7969 41.6003L5.96061 70.3797L5.82 70.525V70.7273V86V86.5H6.32H65.12Z" stroke="#231B2F"/>
</svg>
