<svg width="70" height="88" viewBox="0 0 70 88" fill="none" xmlns="http://www.w3.org/2000/svg">
<path opacity="0.5" d="M61.6248 18.8844L61.74 18.7455V18.565V2V1.5H61.24H6.64H6.14V2V22.0895V22.5895H6.64H33.7711L21.0162 37.8641L20.7725 38.156L20.9886 38.4688L29.2686 50.4521L29.4177 50.6678H29.68H34.24C37.2095 50.6678 39.393 51.3568 40.8694 52.6577L40.8792 52.6663L40.8894 52.6744C42.4372 53.901 43.22 55.5905 43.22 57.8042C43.22 60.0181 42.4365 61.753 40.8786 63.0603L40.8785 63.0602L40.8694 63.0682C39.393 64.3691 37.2095 65.058 34.24 65.058C31.3617 65.058 29.0336 64.3641 27.2186 63.0129C25.4031 61.6614 24.0545 59.6176 23.1979 56.8347L23.016 56.2438L22.4762 56.5453L3.75618 67.0012L3.37768 67.2127L3.53334 67.6173C5.89195 73.7484 9.80378 78.459 15.263 81.7296L15.2677 81.7324C20.7149 84.9162 27.0446 86.5 34.24 86.5C43.1353 86.5 50.5728 84.0831 56.5166 79.2206L56.5171 79.2201C62.5706 74.2547 65.58 67.2889 65.58 58.3916C65.58 52.7264 63.9067 47.8355 60.5497 43.7455C57.4228 39.7675 53.2528 36.9306 48.06 35.2292L61.6248 18.8844Z" stroke="#231B2F"/>
</svg>
