<svg width="65" height="86" viewBox="0 0 65 86" fill="none" xmlns="http://www.w3.org/2000/svg">
<path opacity="0.5" d="M35.2186 29.4007H29.7576L30.2892 21.5895H59.4429H59.9429V21.0895V1V0.5H59.4429H10.0348H9.56953L9.53611 0.96408L6.05835 49.2494L6.01975 49.7853H6.55706H33.4197C36.1415 49.7853 38.2132 50.4324 39.6955 51.6667L39.6954 51.6669L39.7048 51.6743C41.2472 52.8975 42.0338 54.6233 42.0338 56.9217C42.0338 59.1353 41.251 60.8701 39.6946 62.1773C38.2189 63.4058 36.0328 64.058 33.06 64.058C29.8944 64.058 27.3538 63.3596 25.4002 62.0033C23.4504 60.6495 22.0389 58.608 21.1858 55.8348L21.004 55.2436L20.464 55.5454L1.75606 66.0013L1.37509 66.2142L1.53458 66.6205C3.97153 72.8276 7.92076 77.5393 13.3801 80.7323L13.3828 80.7339C18.909 83.9185 25.4745 85.5 33.06 85.5C41.9518 85.5 49.4242 83.0427 55.443 78.1026L55.446 78.1001C61.4948 73.0552 64.5 65.9724 64.5 56.9217C64.5 48.1917 61.6997 41.3836 56.0523 36.5713C50.59 31.7806 43.6317 29.4007 35.2186 29.4007Z" stroke="#231B2F"/>
</svg>
