<svg width="70" height="88" viewBox="0 0 70 88" fill="none" xmlns="http://www.w3.org/2000/svg">
<path opacity="0.5" d="M58.2357 2.28177L58.769 1.5H57.8226H33.3094H33.0401L32.8919 1.72495L7.90014 39.665C4.29942 44.7633 2.5 50.5409 2.5 56.9818C2.5 65.6479 5.48921 72.7557 11.4766 78.2618L11.4791 78.264C17.5446 83.7664 25.4003 86.5 35 86.5C44.5997 86.5 52.4554 83.7664 58.5209 78.264L58.5234 78.2617C64.5108 72.7557 67.5 65.6479 67.5 56.9818C67.5 49.036 65.0048 42.4457 59.9951 37.2514C55.1551 32.1573 48.7508 29.0192 40.8166 27.8169L58.2357 2.28177ZM42.1462 50.0639L42.1461 50.064L42.154 50.0711C43.9576 51.6796 44.8849 53.9589 44.8849 56.9818C44.8849 59.8366 43.9645 62.0848 42.1499 63.7787C40.3262 65.4033 37.9578 66.2329 35 66.2329C31.9579 66.2329 29.5506 65.4011 27.7291 63.7785C26.0025 62.1696 25.1151 59.9264 25.1151 56.9818C25.1151 53.9589 26.0424 51.6796 27.846 50.0711L27.8461 50.0712L27.8538 50.0639C29.5919 48.4465 31.9548 47.6133 35 47.6133C38.0452 47.6133 40.4081 48.4465 42.1462 50.0639Z" stroke="#231B2F"/>
</svg>
