<svg width="24" height="25" viewBox="0 0 24 25" fill="none" xmlns="http://www.w3.org/2000/svg">
<path opacity="0.4" d="M14.4183 5.98994C13.9422 5.902 13.505 6.20579 13.4144 6.67047C13.3238 7.13515 13.6285 7.58884 14.0916 7.67978C15.4859 7.95159 16.5624 9.03085 16.8353 10.4299V10.4309C16.913 10.8336 17.2675 11.1264 17.6759 11.1264C17.7306 11.1264 17.7854 11.1214 17.8412 11.1114C18.3043 11.0185 18.609 10.5658 18.5184 10.1001C18.1111 8.01055 16.5027 6.39666 14.4183 5.98994Z" fill="white"/>
<path opacity="0.4" d="M14.3561 2.50793C14.133 2.47595 13.9089 2.54191 13.7307 2.68381C13.5474 2.82771 13.4329 3.03557 13.408 3.26841C13.3552 3.73908 13.6948 4.16479 14.1649 4.21776C17.4065 4.57951 19.9262 7.10477 20.2907 10.3565C20.3395 10.7922 20.705 11.121 21.1412 11.121C21.174 11.121 21.2059 11.119 21.2388 11.115C21.4668 11.09 21.67 10.9771 21.8134 10.7972C21.9558 10.6174 22.0206 10.3935 21.9947 10.1647C21.5405 6.10746 18.4005 2.95862 14.3561 2.50793Z" fill="white"/>
<path d="M17.6049 15.173C16.9566 15.0351 16.4437 15.3349 15.9896 15.5967C15.5245 15.8666 14.6391 16.5811 14.1332 16.3972C11.5379 15.3339 9.09693 13.0705 8.04028 10.4763C7.85405 9.95961 8.56811 9.07322 8.83601 8.60554C9.09793 8.15185 9.39272 7.63521 9.25827 6.98565C9.13677 6.40106 7.56524 4.40942 7.00952 3.8648C6.64204 3.50504 6.26758 3.30718 5.88216 3.2742C4.43313 3.21324 2.81479 5.13892 2.53095 5.59961C1.81888 6.58193 1.82386 7.88903 2.5429 9.47395C4.27577 13.731 10.8298 20.1556 15.1201 21.9464C15.9109 22.3151 16.6359 22.5 17.2862 22.5C17.9226 22.5 18.4893 22.3231 18.9763 21.9724C19.3428 21.7615 21.3565 20.0697 21.3027 18.5877C21.2718 18.2099 21.0736 17.8322 20.7171 17.4665C20.1734 16.9078 18.1875 15.2959 17.6049 15.173Z" fill="#79D1E5"/>
</svg>
