<svg width="25" height="25" viewBox="0 0 25 25" fill="none" xmlns="http://www.w3.org/2000/svg">
<path opacity="0.4" d="M22.5 16.44C22.5 19.23 20.26 21.49 17.47 21.5H17.46H7.55C4.77 21.5 2.5 19.25 2.5 16.46V16.45C2.5 16.45 2.506 12.024 2.514 9.798C2.515 9.38 2.995 9.146 3.322 9.406C5.698 11.291 9.947 14.728 10 14.773C10.71 15.342 11.61 15.663 12.53 15.663C13.45 15.663 14.35 15.342 15.06 14.762C15.113 14.727 19.267 11.393 21.679 9.477C22.007 9.216 22.489 9.45 22.49 9.867C22.5 12.076 22.5 16.44 22.5 16.44Z" fill="white"/>
<path d="M21.9759 6.17351C21.1099 4.54151 19.4059 3.49951 17.5299 3.49951H7.54988C5.67388 3.49951 3.96988 4.54151 3.10388 6.17351C2.90988 6.53851 3.00188 6.99351 3.32488 7.25151L10.7499 13.1905C11.2699 13.6105 11.8999 13.8195 12.5299 13.8195C12.5339 13.8195 12.5369 13.8195 12.5399 13.8195C12.5429 13.8195 12.5469 13.8195 12.5499 13.8195C13.1799 13.8195 13.8099 13.6105 14.3299 13.1905L21.7549 7.25151C22.0779 6.99351 22.1699 6.53851 21.9759 6.17351Z" fill="white"/>
</svg>
