<svg width="70" height="88" viewBox="0 0 70 88" fill="none" xmlns="http://www.w3.org/2000/svg">
<path opacity="0.5" d="M37.2186 30.4007H31.7576L32.2892 22.5895H61.4429H61.9429V22.0895V2V1.5H61.4429H12.0348H11.5695L11.5361 1.96408L8.05835 50.2494L8.01975 50.7853H8.55706H35.4197C38.1415 50.7853 40.2132 51.4324 41.6955 52.6667L41.6954 52.6669L41.7048 52.6743C43.2472 53.8975 44.0338 55.6233 44.0338 57.9217C44.0338 60.1353 43.251 61.8701 41.6946 63.1773C40.2189 64.4058 38.0328 65.058 35.06 65.058C31.8944 65.058 29.3538 64.3596 27.4002 63.0033C25.4504 61.6495 24.0389 59.608 23.1858 56.8348L23.004 56.2436L22.464 56.5454L3.75606 67.0013L3.37509 67.2142L3.53458 67.6205C5.97153 73.8276 9.92076 78.5393 15.3801 81.7323L15.3828 81.7339C20.909 84.9185 27.4745 86.5 35.06 86.5C43.9518 86.5 51.4242 84.0427 57.443 79.1026L57.446 79.1001C63.4948 74.0552 66.5 66.9724 66.5 57.9217C66.5 49.1917 63.6997 42.3836 58.0523 37.5713C52.59 32.7806 45.6317 30.4007 37.2186 30.4007Z" stroke="#231B2F"/>
</svg>
