<svg width="32" height="32" viewBox="0 0 32 32" fill="none" xmlns="http://www.w3.org/2000/svg">
<path d="M18.7541 17.5178C18.6799 17.5179 18.607 17.4987 18.5426 17.462C18.4428 17.4057 18.3695 17.3121 18.3387 17.2018C18.3079 17.0914 18.3221 16.9734 18.3783 16.8735L19.7015 14.5211C19.7577 14.4211 19.8513 14.3475 19.9618 14.3165C20.0722 14.2855 20.1905 14.2997 20.2905 14.3559C20.3905 14.4121 20.4641 14.5057 20.4951 14.6161C20.526 14.7266 20.5119 14.8448 20.4557 14.9448L19.1316 17.2973C19.0939 17.3643 19.0391 17.42 18.9727 17.4588C18.9064 17.4975 18.8309 17.5179 18.7541 17.5178Z" fill="#003744"/>
<path d="M13.7467 26.4173C13.6725 26.4174 13.5997 26.3982 13.5352 26.3615L6.9709 22.6685C6.87106 22.6123 6.79763 22.5187 6.76674 22.4084C6.73585 22.298 6.75002 22.1799 6.80615 22.08L18.3473 1.5654C18.4354 1.40806 18.5537 1.26965 18.6954 1.15811C18.8371 1.04657 18.9994 0.964091 19.173 0.915401C19.3467 0.866712 19.5282 0.852768 19.7072 0.874371C19.8862 0.895974 20.0592 0.952697 20.2163 1.04129L25.1421 3.81318C25.4584 3.99259 25.6909 4.28968 25.789 4.63975C25.8872 4.98981 25.8431 5.36449 25.6662 5.68216L21.5149 13.0638C21.4882 13.1154 21.4514 13.1611 21.4067 13.1981C21.362 13.2352 21.3103 13.2629 21.2547 13.2795C21.199 13.2962 21.1406 13.3015 21.0829 13.295C21.0252 13.2886 20.9693 13.2706 20.9187 13.2421C20.8681 13.2137 20.8237 13.1753 20.7883 13.1293C20.7528 13.0833 20.727 13.0306 20.7123 12.9744C20.6976 12.9182 20.6944 12.8596 20.7029 12.8022C20.7114 12.7447 20.7313 12.6896 20.7616 12.64L24.9129 5.25837C24.9784 5.14067 24.9947 5.00184 24.9581 4.8722C24.9216 4.74257 24.8352 4.63266 24.7179 4.56648L19.7925 1.79502C19.7344 1.76228 19.6703 1.74132 19.604 1.73336C19.5378 1.7254 19.4706 1.73059 19.4063 1.74862C19.342 1.76665 19.282 1.79718 19.2295 1.83846C19.1771 1.87974 19.1333 1.93096 19.1006 1.98918L7.7709 22.1267L13.5811 25.3959L14.9346 22.992C14.9919 22.8941 15.0854 22.8227 15.1949 22.7931C15.3045 22.7635 15.4212 22.7782 15.52 22.8339C15.6189 22.8896 15.6918 22.9819 15.7232 23.0909C15.7546 23.1999 15.7419 23.3169 15.6879 23.4166L14.1225 26.1972C14.0849 26.2638 14.0303 26.3193 13.9643 26.358C13.8983 26.3967 13.8232 26.4171 13.7467 26.4173Z" fill="#003744"/>
<path d="M16.3714 21.7514C16.2959 21.7513 16.2217 21.7314 16.1563 21.6938C16.0909 21.6562 16.0364 21.6021 15.9984 21.5369C15.9603 21.4717 15.94 21.3977 15.9395 21.3222C15.9389 21.2467 15.9581 21.1724 15.9952 21.1066L17.3184 18.7585C17.3458 18.708 17.3829 18.6635 17.4276 18.6276C17.4723 18.5916 17.5238 18.5649 17.5789 18.549C17.6341 18.5331 17.6918 18.5284 17.7488 18.535C17.8058 18.5417 17.8609 18.5597 17.9109 18.5878C17.9609 18.616 18.0048 18.6539 18.04 18.6992C18.0753 18.7445 18.1011 18.7964 18.1161 18.8518C18.131 18.9072 18.1348 18.965 18.1272 19.0219C18.1196 19.0788 18.1007 19.1336 18.0717 19.1831L16.7485 21.5313C16.7108 21.5981 16.656 21.6537 16.5897 21.6924C16.5235 21.7311 16.4481 21.7514 16.3714 21.7514Z" fill="#003744"/>
<path d="M6.77157 31.1351C6.71296 31.1352 6.65494 31.1233 6.60105 31.1003C6.54715 31.0772 6.4985 31.0435 6.45806 31.001C6.41761 30.9586 6.38621 30.9084 6.36577 30.8535C6.34533 30.7985 6.33627 30.74 6.33914 30.6815L6.75039 22.2702C6.754 22.1966 6.77639 22.1251 6.81543 22.0625C6.85446 22 6.90885 21.9484 6.97341 21.9128C7.03798 21.8772 7.11058 21.8587 7.18432 21.859C7.25805 21.8594 7.33048 21.8786 7.39471 21.9148L13.9586 25.6077C14.0229 25.6438 14.0769 25.6958 14.1154 25.7586C14.154 25.8214 14.1759 25.8931 14.1789 25.9668C14.182 26.0404 14.1662 26.1136 14.133 26.1795C14.0998 26.2453 14.0504 26.3015 13.9893 26.3429L7.01417 31.0607C6.94256 31.1092 6.85806 31.1351 6.77157 31.1351ZM7.58022 23.0114L7.24595 29.8599L12.9251 26.0186L7.58022 23.0114Z" fill="#003744"/>
<path d="M22.7484 10.4164C22.6744 10.4164 22.6015 10.3973 22.537 10.3611L15.9726 6.66767C15.8751 6.61026 15.8039 6.51686 15.7744 6.40755C15.745 6.29824 15.7595 6.18173 15.815 6.08305C15.8705 5.98436 15.9625 5.91137 16.0712 5.87976C16.1799 5.84814 16.2967 5.86041 16.3964 5.91394L22.962 9.60735C23.0453 9.65431 23.1107 9.72754 23.1479 9.81558C23.1851 9.90363 23.1921 10.0015 23.1678 10.094C23.1435 10.1864 23.0892 10.2682 23.0135 10.3266C22.9378 10.3849 22.8449 10.4165 22.7493 10.4164H22.7484Z" fill="#003744"/>
<path d="M12.5405 20.8783C12.4664 20.8784 12.3935 20.8592 12.3291 20.8225C12.2292 20.7663 12.1558 20.6727 12.1249 20.5624C12.094 20.452 12.1082 20.3339 12.1643 20.234L17.0127 11.6182C17.0394 11.5666 17.0762 11.5209 17.1209 11.4838C17.1656 11.4468 17.2173 11.4191 17.273 11.4024C17.3286 11.3858 17.387 11.3805 17.4448 11.3869C17.5025 11.3934 17.5583 11.4113 17.6089 11.4398C17.6595 11.4683 17.7039 11.5067 17.7394 11.5527C17.7748 11.5987 17.8007 11.6513 17.8153 11.7075C17.83 11.7637 17.8332 11.8223 17.8247 11.8798C17.8162 11.9372 17.7963 11.9924 17.766 12.042L12.9189 20.6578C12.8812 20.7249 12.8262 20.7807 12.7597 20.8195C12.6932 20.8583 12.6175 20.8786 12.5405 20.8783Z" fill="#003744"/>
<path d="M10.512 28.605C10.4495 28.6052 10.3877 28.5918 10.331 28.5656C10.2742 28.5395 10.2238 28.5013 10.1834 28.4537C9.3428 27.4816 8.18965 26.8329 6.9224 26.6193C6.86635 26.6101 6.81265 26.59 6.76437 26.5601C6.71608 26.5302 6.67416 26.4911 6.64099 26.445C6.60782 26.3989 6.58406 26.3468 6.57106 26.2915C6.55805 26.2362 6.55607 26.1789 6.56521 26.1228C6.57435 26.0668 6.59445 26.0131 6.62434 25.9648C6.65424 25.9165 6.69335 25.8746 6.73945 25.8414C6.78555 25.8083 6.83773 25.7845 6.89301 25.7715C6.94829 25.7585 7.00559 25.7565 7.06164 25.7657C8.53081 26.0115 9.86761 26.7637 10.8402 27.8919C10.8938 27.9547 10.9283 28.0315 10.9396 28.1133C10.9509 28.1951 10.9386 28.2784 10.9041 28.3534C10.8696 28.4284 10.8143 28.4919 10.7448 28.5365C10.6754 28.5811 10.5946 28.6049 10.512 28.605Z" fill="#003744"/>
<path d="M22.5765 31.1351H10.0359C9.92126 31.1351 9.81127 31.0896 9.73017 31.0085C9.64908 30.9274 9.60352 30.8174 9.60352 30.7027C9.60352 30.588 9.64908 30.478 9.73017 30.3969C9.81127 30.3158 9.92126 30.2703 10.0359 30.2703H22.5765C22.6912 30.2703 22.8012 30.3158 22.8823 30.3969C22.9634 30.478 23.0089 30.588 23.0089 30.7027C23.0089 30.8174 22.9634 30.9274 22.8823 31.0085C22.8012 31.0896 22.6912 31.1351 22.5765 31.1351Z" fill="#003744"/>
</svg>
