<svg width="6" height="10" viewBox="0 0 6 10" fill="none" xmlns="http://www.w3.org/2000/svg">
<path d="M0.540517 9.87831C0.466379 9.87842 0.393495 9.85919 0.329057 9.82253C0.229218 9.76628 0.155789 9.6727 0.124897 9.56235C0.0940051 9.452 0.108177 9.3339 0.1643 9.23399L5.01273 0.618191C5.0394 0.566593 5.07618 0.520895 5.12089 0.483824C5.1656 0.446752 5.21732 0.419068 5.27296 0.402421C5.3286 0.385774 5.38703 0.380506 5.44475 0.386933C5.50247 0.393359 5.55831 0.411347 5.60893 0.439824C5.65955 0.468301 5.70391 0.506683 5.73937 0.55268C5.77484 0.598676 5.80067 0.651345 5.81533 0.707543C5.82999 0.763742 5.83318 0.822318 5.82471 0.879777C5.81624 0.937235 5.79629 0.992398 5.76603 1.04198L0.918895 9.65777C0.881169 9.72489 0.826208 9.78071 0.75969 9.81949C0.693172 9.85826 0.617509 9.87856 0.540517 9.87831Z" fill="#003744"/>
</svg>
