<svg width="270" height="188" viewBox="0 0 270 188" fill="none" xmlns="http://www.w3.org/2000/svg">
<path d="M77.8174 188H98.9657L111.422 170.784L125.452 151.364L145.437 170.784L163.163 188H187.802L170.076 170.784L135.65 137.316L144.205 125.471L189.787 169.751L190.814 170.784L208.54 188H233.179L215.452 170.784L206.897 162.451L189.787 145.855L154.403 111.423L162.958 99.578L189.855 125.678L206.966 142.274L221.338 156.253L236.258 170.715L253.985 187.931H270V0H252.89V163.002L238.517 149.023V0H213.81L207.034 9.43443L189.924 33.1238L160.768 73.4784L150.639 87.5267L142.084 99.3026L131.954 113.351L123.194 125.196L113.065 139.244L90.3421 170.715L77.8174 188ZM206.76 38.7018L221.133 18.8V132.358L206.76 118.378V38.7018ZM172.95 85.5297L189.65 62.3912V101.782L172.95 85.5297Z" fill="white"/>
<path d="M189.65 169.751V170.783H190.745L189.65 169.751Z" fill="#1A2128"/>
<path d="M38.9434 188H60.0916L72.4795 170.784L102.594 129.121L112.723 115.073L121.278 103.297L131.407 89.1795L139.962 77.4037L150.092 63.3553L189.651 8.47033L195.81 0H174.662L137.635 51.2352L127.506 65.3524L118.951 77.1282L108.822 91.1766L100.267 103.021L90.1373 117.07L51.3312 170.784L38.9434 188Z" fill="#014DFE"/>
<path d="M0 188H21.1483L33.6046 170.784L79.6654 106.947L89.8631 92.8982L98.3498 81.0535L108.548 67.0051L117.103 55.1604L127.232 41.1121L156.935 0H135.787L114.776 29.0608L104.646 43.1092L96.0912 54.885L85.962 69.0022L77.4068 80.778L67.2776 94.8264L12.4563 170.784L0 188Z" fill="#014DFE"/>
</svg>
