<svg width="148" height="32" viewBox="0 0 148 32" fill="none" xmlns="http://www.w3.org/2000/svg">
<g clip-path="url(#clip0)">
<path d="M13.2085 31.9418H16.7981L18.9124 29.0221L21.2939 25.7287L24.686 29.0221L27.6948 31.9418H31.8769L28.8682 29.0221L23.0248 23.3462L24.4769 21.3374L32.2138 28.8469L32.3881 29.0221L35.3969 31.9418H39.579L36.5702 29.0221L35.1181 27.609L32.2138 24.7944L26.2079 18.9549L27.66 16.9462L32.2255 21.3725L35.1297 24.1871L37.5693 26.5579L40.1017 29.0104L43.1105 31.9301H45.8289V0.0585938H42.9247V27.7024L40.4851 25.3316V0.0585938H36.2914L35.1413 1.65859L32.2371 5.67611L27.2882 12.5199L25.5689 14.9024L24.1168 16.8995L22.3975 19.282L20.9105 21.2907L19.1912 23.6732L15.3344 29.0104L13.2085 31.9418ZM35.0948 6.6221L37.5344 3.24692V22.5053L35.0948 20.1345V6.6221ZM29.3561 14.5637L32.1906 10.6396V17.3199L29.3561 14.5637Z" fill="white"/>
<path d="M32.1904 28.8467V29.0219H32.3763L32.1904 28.8467Z" fill="white"/>
<path d="M6.61011 31.9418H10.1997L12.3024 29.0221L17.4139 21.9564L19.1332 19.5739L20.5853 17.5768L22.3046 15.1827L23.7567 13.1856L25.476 10.8031L32.1906 1.49509L33.2362 0.0585938H29.6465L23.3618 8.74765L21.6424 11.1418L20.1903 13.1389L18.471 15.5214L17.0189 17.5301L15.2996 19.9126L8.71278 29.0221L6.61011 31.9418Z" fill="#014DFE"/>
<path d="M0 31.9418H3.58964L5.70392 29.0221L13.5221 18.1958L15.2531 15.8133L16.6936 13.8046L18.4245 11.4221L19.8766 9.41334L21.5959 7.03086L26.6377 0.0585938H23.048L19.4816 4.98706L17.7623 7.36954L16.3102 9.36662L14.5909 11.7608L13.1388 13.7579L11.4195 16.1403L2.11429 29.0221L0 31.9418Z" fill="#014DFE"/>
<path d="M65.1708 6.71533H67.9705L75.2659 25.5416H72.1526L70.3171 20.4263H62.8125L60.9654 25.5416H57.8289L65.1708 6.71533ZM69.5271 18.2307L66.5764 9.98541L63.6141 18.2307H69.5271Z" fill="white"/>
<path d="M93.4931 11.7842H96.2695L90.461 25.5418H87.975L85.489 19.3287L83.0029 25.5418H80.5169L74.6736 11.7842H77.45L81.8877 22.7272L83.8394 17.647L81.4579 11.8075H83.9091L85.4657 16.0937L86.9992 11.8075H89.4504L87.1037 17.647L89.0554 22.7272L93.4931 11.7842Z" fill="white"/>
<path d="M98.1978 9.40162V6.18994H101.102V9.40162H98.1978ZM98.1978 25.5418V11.679H101.102V25.5418H98.1978Z" fill="white"/>
<path d="M103.716 18.6863C103.716 17.3783 103.983 16.1753 104.517 15.1009C105.052 14.0264 105.795 13.1622 106.725 12.5315C107.654 11.8892 108.734 11.5739 109.943 11.5739C111 11.5739 111.952 11.8425 112.812 12.3914C113.672 12.9403 114.334 13.6177 114.81 14.4352V6.18994H117.714V22.26C117.714 22.5987 117.772 22.8323 117.9 22.9724C118.028 23.1126 118.225 23.1943 118.504 23.206V25.5418C117.958 25.6352 117.54 25.6702 117.238 25.6702C116.692 25.6702 116.227 25.5067 115.856 25.1914C115.472 24.8761 115.275 24.4907 115.263 24.0469L115.24 23.0075C114.717 23.8951 113.997 24.5724 113.102 25.0629C112.208 25.5534 111.267 25.787 110.303 25.787C109.35 25.787 108.479 25.6002 107.677 25.2381C106.876 24.8644 106.179 24.3505 105.586 23.6848C104.994 23.0191 104.541 22.26 104.215 21.3958C103.878 20.5666 103.716 19.6556 103.716 18.6863ZM114.81 20.6016V17.0162C114.613 16.4556 114.299 15.9534 113.869 15.5096C113.439 15.0659 112.951 14.7155 112.417 14.4469C111.883 14.1899 111.348 14.0498 110.814 14.0498C110.198 14.0498 109.64 14.1783 109.141 14.4469C108.641 14.7038 108.212 15.0542 107.851 15.498C107.491 15.9301 107.213 16.4323 107.015 16.9929C106.818 17.5534 106.725 18.1374 106.725 18.7447C106.725 19.3753 106.829 19.9593 107.038 20.5082C107.247 21.0571 107.549 21.5476 107.944 21.968C108.339 22.4002 108.804 22.7272 109.315 22.9607C109.838 23.1943 110.407 23.3111 111.023 23.3111C111.406 23.3111 111.801 23.241 112.196 23.1009C112.591 22.9607 112.975 22.7739 113.335 22.5286C113.695 22.2834 114.008 22.0031 114.264 21.6644C114.52 21.3374 114.705 20.987 114.81 20.6016Z" fill="white"/>
<path d="M127.67 25.8103C126.601 25.8103 125.625 25.6234 124.754 25.2497C123.883 24.876 123.128 24.3504 122.5 23.6964C121.861 23.0424 121.373 22.2833 121.037 21.4307C120.688 20.5782 120.525 19.6672 120.525 18.7095C120.525 17.4132 120.827 16.2336 121.42 15.1592C122.024 14.0847 122.86 13.2205 123.929 12.5665C124.998 11.9125 126.264 11.5854 127.705 11.5854C129.145 11.5854 130.4 11.9125 131.445 12.5665C132.491 13.2205 133.304 14.0847 133.885 15.1475C134.466 16.2103 134.756 17.3665 134.756 18.5927C134.756 18.803 134.745 19.0015 134.733 19.1884C134.71 19.3752 134.698 19.5271 134.675 19.6438H123.604C123.662 20.4497 123.883 21.1504 124.278 21.746C124.673 22.3533 125.184 22.8205 125.799 23.1592C126.415 23.4979 127.077 23.673 127.786 23.673C128.564 23.673 129.296 23.4745 129.993 23.0891C130.69 22.7037 131.155 22.1898 131.41 21.5475L133.897 22.2599C133.594 22.9373 133.141 23.5329 132.537 24.0818C131.933 24.619 131.213 25.0511 130.388 25.3548C129.54 25.6584 128.646 25.8103 127.67 25.8103ZM123.523 17.6935H131.875C131.817 16.911 131.596 16.2219 131.201 15.6263C130.806 15.0307 130.307 14.5636 129.691 14.2249C129.087 13.8862 128.413 13.7227 127.67 13.7227C126.95 13.7227 126.287 13.8862 125.672 14.2249C125.068 14.5636 124.568 15.0307 124.185 15.6263C123.801 16.2336 123.581 16.9227 123.523 17.6935Z" fill="white"/>
<path d="M138.241 11.7841L141.517 16.4907L141.75 16.9345L141.982 16.4907L145.235 11.7841H148.383L143.411 18.6747L148.43 25.5418H145.281L141.982 20.8586L141.75 20.4382L141.517 20.8586L138.218 25.5418H135.07L140.089 18.698L135.117 11.7725H138.241V11.7841Z" fill="white"/>
</g>
<defs>
<clipPath id="clip0">
<rect width="148" height="32" fill="white"/>
</clipPath>
</defs>
</svg>
