<svg width="148" height="32" viewBox="0 0 148 32" fill="none" xmlns="http://www.w3.org/2000/svg">
<g clip-path="url(#clip0)">
<path d="M13.2085 31.9416H16.7981L18.9124 29.0219L21.2939 25.7285L24.686 29.0219L27.6948 31.9416H31.8769L28.8682 29.0219L23.0248 23.346L24.4769 21.3372L32.2138 28.8467L32.3881 29.0219L35.3969 31.9416H39.579L36.5702 29.0219L35.1181 27.6087L32.2138 24.7941L26.2079 18.9547L27.66 16.946L32.2255 21.3722L35.1297 24.1868L37.5693 26.5577L40.1017 29.0102L43.1105 31.9299H45.8289V0.0583801H42.9247V27.7022L40.4851 25.3314V0.0583801H36.2914L35.1413 1.65838L32.2371 5.6759L27.2882 12.5197L25.5689 14.9022L24.1168 16.8993L22.3975 19.2817L20.9105 21.2905L19.1912 23.673L15.3344 29.0102L13.2085 31.9416ZM35.0948 6.62188L37.5344 3.2467V22.5051L35.0948 20.1343V6.62188ZM29.3561 14.5635L32.1906 10.6394V17.3197L29.3561 14.5635Z" fill="#1A2128"/>
<path d="M32.1904 28.8467V29.0219H32.3763L32.1904 28.8467Z" fill="#1A2128"/>
<path d="M6.61011 31.9416H10.1997L12.3024 29.0219L17.4139 21.9562L19.1332 19.5737L20.5853 17.5766L22.3046 15.1825L23.7567 13.1854L25.476 10.8029L32.1906 1.49488L33.2362 0.0583801H29.6465L23.3618 8.74743L21.6424 11.1416L20.1903 13.1387L18.471 15.5212L17.0189 17.5299L15.2996 19.9124L8.71278 29.0219L6.61011 31.9416Z" fill="#014DFE"/>
<path d="M0 31.9416H3.58964L5.70392 29.0219L13.5221 18.1956L15.2531 15.8131L16.6936 13.8044L18.4245 11.4219L19.8766 9.41313L21.5959 7.03064L26.6377 0.0583801H23.048L19.4816 4.98685L17.7623 7.36933L16.3102 9.36641L14.5909 11.7606L13.1388 13.7577L11.4195 16.1401L2.11429 29.0219L0 31.9416Z" fill="#014DFE"/>
<path d="M65.1708 6.71533H67.9705L75.2659 25.5416H72.1526L70.3171 20.4263H62.8125L60.9654 25.5416H57.8289L65.1708 6.71533ZM69.5271 18.2307L66.5764 9.98541L63.6141 18.2307H69.5271Z" fill="#1A2128"/>
<path d="M93.4931 11.784H96.2695L90.461 25.5416H87.975L85.489 19.3285L83.0029 25.5416H80.5169L74.6736 11.784H77.45L81.8877 22.727L83.8394 17.6467L81.4579 11.8073H83.9091L85.4657 16.0935L86.9992 11.8073H89.4504L87.1037 17.6467L89.0554 22.727L93.4931 11.784Z" fill="#1A2128"/>
<path d="M98.1978 9.40147V6.18979H101.102V9.40147H98.1978ZM98.1978 25.5416V11.6788H101.102V25.5416H98.1978Z" fill="#1A2128"/>
<path d="M103.716 18.6861C103.716 17.3781 103.983 16.1752 104.517 15.1007C105.052 14.0263 105.795 13.1621 106.725 12.5314C107.654 11.8891 108.734 11.5737 109.943 11.5737C111 11.5737 111.952 11.8423 112.812 12.3912C113.672 12.9402 114.334 13.6175 114.81 14.435V6.18979H117.714V22.2599C117.714 22.5985 117.772 22.8321 117.9 22.9723C118.028 23.1124 118.225 23.1942 118.504 23.2058V25.5416C117.958 25.635 117.54 25.6701 117.238 25.6701C116.692 25.6701 116.227 25.5066 115.856 25.1912C115.472 24.8759 115.275 24.4905 115.263 24.0467L115.24 23.0073C114.717 23.8949 113.997 24.5723 113.102 25.0628C112.208 25.5533 111.267 25.7869 110.303 25.7869C109.35 25.7869 108.479 25.6 107.677 25.238C106.876 24.8642 106.179 24.3504 105.586 23.6847C104.994 23.019 104.541 22.2599 104.215 21.3956C103.878 20.5664 103.716 19.6555 103.716 18.6861ZM114.81 20.6015V17.0161C114.613 16.4555 114.299 15.9533 113.869 15.5095C113.439 15.0657 112.951 14.7153 112.417 14.4467C111.883 14.1898 111.348 14.0496 110.814 14.0496C110.198 14.0496 109.64 14.1781 109.141 14.4467C108.641 14.7037 108.212 15.054 107.851 15.4978C107.491 15.9299 107.213 16.4321 107.015 16.9927C106.818 17.5533 106.725 18.1372 106.725 18.7445C106.725 19.3752 106.829 19.9591 107.038 20.508C107.247 21.0569 107.549 21.5475 107.944 21.9679C108.339 22.4 108.804 22.727 109.315 22.9606C109.838 23.1942 110.407 23.311 111.023 23.311C111.406 23.311 111.801 23.2409 112.196 23.1007C112.591 22.9606 112.975 22.7737 113.335 22.5285C113.695 22.2832 114.008 22.0029 114.264 21.6642C114.52 21.3372 114.705 20.9869 114.81 20.6015Z" fill="#1A2128"/>
<path d="M127.67 25.8102C126.601 25.8102 125.625 25.6234 124.754 25.2497C123.883 24.8759 123.128 24.3504 122.5 23.6964C121.861 23.0424 121.373 22.2832 121.037 21.4307C120.688 20.5781 120.525 19.6672 120.525 18.7095C120.525 17.4132 120.827 16.2336 121.42 15.1591C122.024 14.0847 122.86 13.2205 123.929 12.5664C124.998 11.9124 126.264 11.5854 127.705 11.5854C129.145 11.5854 130.4 11.9124 131.445 12.5664C132.491 13.2205 133.304 14.0847 133.885 15.1475C134.466 16.2102 134.756 17.3664 134.756 18.5927C134.756 18.8029 134.745 19.0015 134.733 19.1883C134.71 19.3752 134.698 19.527 134.675 19.6438H123.604C123.662 20.4497 123.883 21.1504 124.278 21.746C124.673 22.3533 125.184 22.8205 125.799 23.1591C126.415 23.4978 127.077 23.673 127.786 23.673C128.564 23.673 129.296 23.4745 129.993 23.0891C130.69 22.7037 131.155 22.1898 131.41 21.5475L133.897 22.2599C133.594 22.9372 133.141 23.5329 132.537 24.0818C131.933 24.619 131.213 25.0511 130.388 25.3548C129.54 25.6584 128.646 25.8102 127.67 25.8102ZM123.523 17.6934H131.875C131.817 16.911 131.596 16.2219 131.201 15.6263C130.806 15.0307 130.307 14.5635 129.691 14.2248C129.087 13.8861 128.413 13.7226 127.67 13.7226C126.95 13.7226 126.287 13.8861 125.672 14.2248C125.068 14.5635 124.568 15.0307 124.185 15.6263C123.801 16.2336 123.581 16.9226 123.523 17.6934Z" fill="#1A2128"/>
<path d="M138.241 11.784L141.517 16.4905L141.75 16.9343L141.982 16.4905L145.235 11.784H148.383L143.411 18.6745L148.43 25.5416H145.281L141.982 20.8584L141.75 20.438L141.517 20.8584L138.218 25.5416H135.07L140.089 18.6978L135.117 11.7723H138.241V11.784Z" fill="#1A2128"/>
</g>
<defs>
<clipPath id="clip0">
<rect width="148" height="32" fill="white"/>
</clipPath>
</defs>
</svg>
