<svg width="170" height="170" viewBox="0 0 170 170" fill="none" xmlns="http://www.w3.org/2000/svg">
<path d="M85.2143 16.9977C85.2671 16.3465 85.4985 15.8034 85.9084 15.3685C86.3193 14.9203 86.8606 14.5964 87.5323 14.3968C88.2183 14.1849 88.9933 14.1141 89.8571 14.1842C90.3621 14.2252 90.8838 14.3077 91.4222 14.4317C91.9606 14.5556 92.436 14.7146 92.8483 14.9086L92.9195 14.0315C92.9907 13.1544 92.7881 12.4357 92.3119 11.8753C91.8357 11.3149 91.1391 10.9975 90.2221 10.923C89.6639 10.8777 89.1038 10.9393 88.5417 11.1076C87.9939 11.2638 87.4115 11.5175 86.7944 11.8687L86.3537 10.8698C87.0692 10.4597 87.7618 10.1681 88.4313 9.99507C89.1019 9.80873 89.7761 9.74307 90.4539 9.7981C91.7297 9.90169 92.71 10.3492 93.3949 11.1405C94.0798 11.9319 94.3699 12.9721 94.2653 14.2612L93.8754 19.0654C93.8603 19.2514 93.8889 19.3942 93.961 19.4937C94.0343 19.5799 94.1568 19.6367 94.3285 19.664L94.2411 20.7405C94.0938 20.7419 93.9665 20.7449 93.8591 20.7496C93.7517 20.7543 93.672 20.7478 93.6199 20.7302C93.2887 20.6899 93.0449 20.5631 92.8883 20.3497C92.7317 20.1363 92.6559 19.9162 92.661 19.6892L92.7025 18.93C92.1888 19.4903 91.5464 19.9063 90.7752 20.1782C90.0051 20.4367 89.2347 20.5347 88.4639 20.4721C87.7994 20.4181 87.2061 20.2295 86.6838 19.9062C86.176 19.5706 85.7886 19.1512 85.5218 18.648C85.2693 18.1325 85.1668 17.5824 85.2143 16.9977ZM92.1067 18.3599C92.268 18.1858 92.3955 18.0155 92.4892 17.8492C92.583 17.6829 92.6353 17.5333 92.6461 17.4004L92.769 15.8854C92.3312 15.676 91.8702 15.5048 91.386 15.3718C90.9152 15.2399 90.4339 15.154 89.9422 15.1141C88.972 15.0354 88.1723 15.1644 87.543 15.5012C86.9137 15.8381 86.572 16.3387 86.5181 17.0032C86.4868 17.3886 86.5568 17.7622 86.7281 18.1239C86.9005 18.4723 87.1702 18.7751 87.5373 19.0324C87.9055 19.2763 88.3487 19.4193 88.867 19.4614C89.5182 19.5142 90.1331 19.4371 90.7117 19.2299C91.3037 19.0238 91.7687 18.7338 92.1067 18.3599Z" fill="#014DFE"/>
<path d="M111.571 14.3275L112.862 14.6878L105.746 23.5195L104.609 23.2022L103.902 17.6266L100.429 22.035L99.2927 21.7177L97.7788 10.4765L99.0502 10.8315L100.285 20.5413L103.398 16.5307L102.859 11.9157L104.034 12.2438L104.397 15.8543L106.596 12.9591L107.752 13.2818L104.92 16.9556L105.506 21.9989L111.571 14.3275Z" fill="#014DFE"/>
<path d="M110.462 25.4016L114.84 15.9459L116.074 16.5175L111.696 25.9732L110.462 25.4016ZM115.756 13.9677L116.596 12.1528L117.83 12.7244L116.99 14.5393L115.756 13.9677Z" fill="#014DFE"/>
<path d="M117.957 23.0197C118.492 22.1912 119.149 21.544 119.926 21.0782C120.722 20.6084 121.556 20.3619 122.429 20.3386C123.301 20.3153 124.124 20.5535 124.896 21.0531C125.624 21.5238 126.147 22.1397 126.464 22.9009C126.8 23.6581 126.953 24.4161 126.923 25.1747L130.376 19.8337L131.518 20.5722L124.482 31.4559C124.381 31.6126 124.338 31.7519 124.355 31.8738C124.379 31.9844 124.454 32.0887 124.581 32.1868L123.995 33.0938C123.749 32.9826 123.568 32.8815 123.452 32.7907C123.225 32.6274 123.079 32.3983 123.016 32.1033C122.952 31.8083 122.989 31.5544 123.127 31.3417L123.681 30.4851C122.965 30.8317 122.201 30.981 121.391 30.9332C120.58 30.8853 119.856 30.655 119.218 30.2423C118.613 29.8513 118.133 29.3661 117.777 28.7866C117.432 28.2145 117.207 27.5925 117.102 26.9208C117.007 26.2564 117.028 25.5867 117.162 24.9116C117.316 24.2326 117.58 23.602 117.957 23.0197ZM124.393 29.0881L126.142 26.384C126.257 25.8868 126.257 25.3708 126.142 24.8361C126.035 24.2902 125.835 23.7881 125.544 23.3299C125.271 22.8676 124.933 22.5062 124.53 22.2455C124.06 21.9414 123.569 21.767 123.059 21.7224C122.555 21.6665 122.054 21.716 121.557 21.8709C121.071 22.0331 120.618 22.2798 120.198 22.6112C119.777 22.9425 119.422 23.3322 119.132 23.78C118.828 24.2503 118.617 24.7489 118.499 25.2758C118.392 25.8099 118.381 26.3426 118.466 26.8741C118.558 27.3943 118.742 27.8707 119.018 28.3033C119.294 28.7359 119.662 29.1006 120.121 29.3975C120.412 29.5857 120.751 29.7253 121.136 29.816C121.522 29.9068 121.917 29.9475 122.32 29.9382C122.741 29.9249 123.134 29.8455 123.498 29.6998C123.862 29.5542 124.16 29.3503 124.393 29.0881Z" fill="#014DFE"/>
<path d="M129.086 37.8579C128.543 37.3455 128.135 36.7678 127.862 36.1248C127.598 35.4722 127.465 34.8063 127.464 34.1272C127.472 33.4383 127.604 32.7648 127.858 32.1065C128.122 31.4574 128.51 30.8612 129.023 30.3181C129.691 29.61 130.464 29.1112 131.342 28.8215C132.229 28.541 133.124 28.4962 134.026 28.6869C134.936 28.868 135.755 29.3016 136.483 29.988C137.229 30.6926 137.71 31.4852 137.924 32.3656C138.148 33.2553 138.141 34.1469 137.903 35.0405C137.674 35.9244 137.23 36.7156 136.571 37.4139C136.498 37.4915 136.425 37.5691 136.352 37.6467C136.288 37.7146 136.232 37.7634 136.186 37.793L129.699 31.6709C129.235 32.2598 128.928 32.8866 128.777 33.5513C128.646 34.2154 128.665 34.8658 128.834 35.5023C129.022 36.1383 129.359 36.685 129.844 37.1426C130.338 37.6093 130.923 37.9225 131.597 38.0821C132.281 38.2509 132.902 38.2139 133.461 37.9713L134.1 39.0139C133.606 39.2264 133.062 39.3271 132.467 39.3161C131.873 39.3051 131.28 39.1761 130.688 38.9292C130.115 38.6817 129.581 38.3246 129.086 37.8579ZM130.342 30.9306L135.942 36.2153C136.425 35.6259 136.732 34.9991 136.864 34.335C137.005 33.68 136.977 33.0393 136.779 32.4131C136.601 31.7862 136.264 31.2395 135.77 30.7728C135.275 30.3061 134.71 30.0018 134.074 29.8599C133.447 29.7084 132.801 29.7224 132.137 29.9021C131.491 30.0812 130.893 30.4241 130.342 30.9306Z" fill="#014DFE"/>
<path d="M142.674 36.6759L141.282 41.5827L141.14 41.8918L141.476 41.8373L146.563 41.7841L147.496 43.0094L140.929 43.0334L139.207 49.3228L138.274 48.0975L139.662 43.2187L139.788 42.9218L139.468 42.9641L134.397 43.0052L133.464 41.7799L139.972 41.7763L141.754 35.4665L142.674 36.6759Z" fill="#014DFE"/>
<path d="M144.222 59.3117C143.887 58.527 143.704 57.7424 143.674 56.958C143.643 56.1736 143.786 55.4235 144.104 54.7077L145.207 54.8453C144.935 55.5997 144.797 56.2964 144.795 56.9354C144.81 57.5815 144.948 58.2111 145.21 58.8241C145.53 59.572 145.936 60.1161 146.43 60.4562C146.935 60.7911 147.47 60.838 148.034 60.597C148.414 60.4345 148.652 60.1949 148.749 59.878C148.863 59.5683 148.89 59.1726 148.829 58.691C148.786 58.2165 148.712 57.6536 148.608 57.0021C148.509 56.2614 148.46 55.6223 148.463 55.0848C148.483 54.5543 148.596 54.1071 148.803 53.7431C149.027 53.3862 149.391 53.1003 149.894 52.8854C150.519 52.6181 151.099 52.5513 151.635 52.6848C152.188 52.8254 152.684 53.1209 153.123 53.5713C153.579 54.0287 153.952 54.5946 154.24 55.269C154.554 56.0046 154.715 56.7043 154.723 57.3678C154.731 58.0314 154.603 58.6301 154.338 59.1638L153.233 58.9185C153.478 58.4075 153.591 57.8736 153.571 57.3168C153.568 56.7671 153.443 56.204 153.197 55.6278C153.029 55.2354 152.814 54.885 152.552 54.5766C152.302 54.263 152.005 54.0421 151.66 53.914C151.333 53.7928 150.96 53.8214 150.544 53.9996C150.2 54.1463 149.967 54.3474 149.844 54.6029C149.734 54.8532 149.685 55.1788 149.696 55.5798C149.72 55.9755 149.766 56.4561 149.834 57.0217C149.947 57.829 150.014 58.5469 150.037 59.1754C150.071 59.7988 149.992 60.3257 149.799 60.7562C149.606 61.1867 149.221 61.5252 148.645 61.7715C147.75 62.1541 146.907 62.1156 146.116 61.6561C145.325 61.1966 144.694 60.4152 144.222 59.3117Z" fill="#014DFE"/>
<path d="M148.572 70.1052C148.506 70.0127 148.391 69.871 148.229 69.6801C148.067 69.4892 147.905 69.2498 147.744 68.9619C147.583 68.674 147.454 68.3498 147.356 67.9895C147.255 67.6163 147.23 67.2432 147.281 66.8702C147.336 66.5101 147.478 66.1952 147.709 65.9254C147.953 65.6521 148.287 65.4579 148.711 65.3428L155.912 63.3912L155.535 62.0013L156.578 61.7188L156.954 63.1087L160.351 62.1878L160.707 63.5005L157.31 64.4214L157.937 66.7378L156.895 67.0204L156.267 64.7039L149.434 66.5561C149.081 66.6795 148.845 66.8814 148.728 67.1619C148.614 67.4553 148.599 67.7564 148.682 68.0652C148.78 68.4256 148.927 68.7381 149.123 69.0027C149.332 69.2638 149.471 69.4195 149.54 69.4699L148.572 70.1052Z" fill="#014DFE"/>
<path d="M152.982 71.9848L159.058 71.2552L159.22 72.6055L153.382 73.3065C152.204 73.448 151.347 73.7523 150.812 74.2194C150.279 74.6997 150.06 75.337 150.156 76.1313C150.219 76.6608 150.393 77.157 150.677 77.6198C150.975 78.0942 151.36 78.498 151.829 78.831C152.312 79.1625 152.85 79.3933 153.443 79.5236L159.956 78.7415L160.119 80.0918L151.401 81.1385C151.216 81.1608 151.082 81.2172 150.998 81.3077C150.929 81.3967 150.897 81.5214 150.902 81.6819L149.83 81.8106C149.798 81.6533 149.776 81.5284 149.765 81.4357C149.741 81.3446 149.724 81.2594 149.714 81.1799C149.709 80.912 149.787 80.6676 149.948 80.4468C150.111 80.2392 150.325 80.1129 150.588 80.0678L151.973 79.8612C151.125 79.5065 150.429 78.9656 149.885 78.2386C149.343 77.5248 149.017 76.7178 148.909 75.8176C148.779 74.7321 149.058 73.866 149.746 73.2194C150.434 72.5728 151.512 72.1613 152.982 71.9848Z" fill="#014DFE"/>
<path d="M155.159 83.8615C156.144 83.9261 157.029 84.1847 157.814 84.6372C158.612 85.1038 159.233 85.7125 159.678 86.4633C160.124 87.2141 160.316 88.0485 160.256 88.9665C160.199 89.8313 159.915 90.5877 159.405 91.2357C158.907 91.8978 158.32 92.4003 157.643 92.7434L163.989 93.1603L163.9 94.5173L150.968 93.6678C150.781 93.6555 150.639 93.6863 150.541 93.76C150.456 93.8346 150.401 93.9513 150.377 94.11L149.3 94.0392C149.277 93.7705 149.278 93.5634 149.3 93.418C149.332 93.1394 149.461 92.9007 149.688 92.7018C149.915 92.5029 150.155 92.4118 150.408 92.4284L151.425 92.4953C150.774 92.0383 150.272 91.4441 149.919 90.7127C149.566 89.9813 149.415 89.2365 149.464 88.4781C149.512 87.7596 149.702 87.104 150.035 86.5112C150.367 85.9317 150.8 85.4324 151.336 85.0133C151.87 84.6074 152.465 84.2991 153.12 84.0883C153.788 83.8916 154.467 83.816 155.159 83.8615ZM152.993 92.4379L156.206 92.649C156.696 92.5075 157.147 92.2565 157.558 91.896C157.982 91.5364 158.324 91.1179 158.582 90.6404C158.853 90.1772 159.004 89.7061 159.036 89.2271C159.073 88.6683 158.986 88.1549 158.776 87.6868C158.58 87.2196 158.293 86.8066 157.916 86.4477C157.537 86.1022 157.101 85.8263 156.607 85.6202C156.113 85.414 155.6 85.2934 155.067 85.2585C154.509 85.2217 153.97 85.2799 153.453 85.433C152.934 85.5993 152.463 85.849 152.04 86.182C151.631 86.5159 151.305 86.9087 151.061 87.3603C150.818 87.812 150.678 88.3106 150.642 88.8561C150.62 89.202 150.662 89.5656 150.771 89.9469C150.88 90.3282 151.036 90.6925 151.24 91.04C151.457 91.4017 151.718 91.7061 152.022 91.9532C152.327 92.2004 152.65 92.3619 152.993 92.4379Z" fill="#014DFE"/>
<path d="M148.734 96.6999L158.93 98.8477L158.65 100.178L148.453 98.0307L148.734 96.6999ZM161.063 99.297L163.02 99.7093L162.74 101.04L160.783 100.628L161.063 99.297Z" fill="#014DFE"/>
<path d="M145.908 106.512C146.159 105.809 146.525 105.203 147.004 104.695C147.492 104.204 148.046 103.822 148.668 103.549C149.298 103.293 149.957 103.154 150.645 103.132C151.345 103.113 152.034 103.226 152.712 103.469C153.415 103.72 154.025 104.073 154.542 104.528C155.072 104.987 155.49 105.519 155.797 106.125C156.117 106.735 156.303 107.382 156.355 108.067C156.416 108.768 156.32 109.47 156.068 110.173C155.816 110.876 155.447 111.473 154.959 111.964C154.485 112.46 153.93 112.842 153.296 113.11C152.674 113.383 152.013 113.529 151.312 113.547C150.624 113.57 149.929 113.455 149.226 113.203C148.548 112.96 147.944 112.61 147.415 112.151C146.898 111.696 146.479 111.164 146.16 110.554C145.848 109.961 145.662 109.313 145.602 108.612C145.549 107.927 145.651 107.227 145.908 106.512ZM152.228 104.761C151.5 104.5 150.779 104.419 150.064 104.517C149.357 104.632 148.731 104.896 148.186 105.31C147.654 105.728 147.271 106.264 147.037 106.917C146.804 107.569 146.766 108.229 146.924 108.894C147.082 109.56 147.404 110.164 147.89 110.706C148.388 111.253 148.995 111.654 149.71 111.911C150.438 112.172 151.162 112.247 151.881 112.136C152.601 112.026 153.233 111.763 153.777 111.35C154.322 110.936 154.711 110.402 154.945 109.75C155.179 109.097 155.21 108.435 155.04 107.765C154.865 107.108 154.534 106.508 154.048 105.966C153.575 105.428 152.969 105.026 152.228 104.761Z" fill="#014DFE"/>
<path d="M134.123 127.575L134.987 128.465C134.729 128.715 134.564 129.005 134.494 129.334C134.432 129.673 134.487 130.084 134.66 130.567C134.822 131.06 135.139 131.645 135.61 132.321C136.09 133.007 136.757 133.818 137.611 134.755L139.545 136.919L134.697 141.629L127.437 134.154L128.413 133.207L134.822 139.806L137.835 136.88L136.609 135.561C135.644 134.49 134.885 133.546 134.331 132.727C133.787 131.917 133.434 131.2 133.273 130.576C133.103 129.96 133.097 129.408 133.255 128.92C133.413 128.432 133.702 127.984 134.123 127.575Z" fill="#1A2128"/>
<path d="M121.649 133.225C121.836 133.097 122.051 132.999 122.294 132.929C122.519 132.856 122.768 132.807 123.041 132.782L123.17 133.857C123.004 133.873 122.857 133.894 122.727 133.917C122.587 133.949 122.457 134.006 122.336 134.088C122.049 134.284 121.878 134.612 121.82 135.071C121.762 135.53 121.806 136.114 121.951 136.822L122.256 138.189L131.92 144.107L130.732 144.92L122.489 139.629L124.673 149.063L123.55 149.83L120.839 137.074C120.706 136.406 120.647 135.824 120.664 135.328C120.68 134.833 120.773 134.414 120.943 134.071C121.105 133.718 121.341 133.436 121.649 133.225Z" fill="#1A2128"/>
<path d="M110.715 144.598L112.547 148.555C112.85 148.194 113.191 147.867 113.57 147.574C113.954 147.293 114.388 147.041 114.872 146.817C115.913 146.335 116.822 146.237 117.601 146.522C118.368 146.814 119.006 147.51 119.516 148.611L120.81 151.406L119.576 151.978L118.357 149.346C117.965 148.499 117.51 147.96 116.992 147.73C116.462 147.505 115.816 147.57 115.054 147.923C114.63 148.119 114.229 148.363 113.85 148.656C113.472 148.949 113.186 149.236 112.993 149.517L115.093 154.054L113.859 154.625L109.481 145.17L110.715 144.598Z" fill="#1A2128"/>
<path d="M106.639 146.542L109.095 156.668L107.774 156.989L105.6 148.029L101.266 149.081L103.439 158.041L102.098 158.366L99.9246 149.406L95.6098 150.453L97.7835 159.413L96.4619 159.734L94.0053 149.608L106.639 146.542Z" fill="#1A2128"/>
<path d="M93.3672 152.599C93.3974 153.251 93.2368 153.819 92.8854 154.303C92.5347 154.8 92.0388 155.19 91.3979 155.473C90.7443 155.77 89.9846 155.939 89.1189 155.979C88.6127 156.003 88.0848 155.987 87.535 155.933C86.9852 155.878 86.4936 155.781 86.06 155.641L86.1006 156.52C86.1413 157.399 86.4333 158.086 86.9768 158.581C87.5202 159.077 88.2515 159.303 89.1705 159.26C89.7299 159.234 90.2777 159.102 90.8139 158.864C91.3374 158.639 91.883 158.314 92.4505 157.887L93.0143 158.822C92.3566 159.319 91.7067 159.697 91.0645 159.953C90.423 160.223 89.7626 160.374 89.0833 160.406C87.8047 160.465 86.7755 160.146 85.9957 159.448C85.216 158.75 84.7963 157.755 84.7365 156.463L84.5139 151.648C84.5053 151.462 84.4589 151.324 84.3746 151.234C84.291 151.158 84.1623 151.117 83.9886 151.112L83.9387 150.033C84.0846 150.013 84.2105 149.994 84.3164 149.976C84.4224 149.957 84.5023 149.954 84.5562 149.965C84.8898 149.962 85.1477 150.057 85.3301 150.249C85.5125 150.441 85.6156 150.649 85.6394 150.875L85.6945 151.633C86.1329 151.012 86.7174 150.518 87.4478 150.151C88.1789 149.796 88.9307 149.601 89.7032 149.565C90.3692 149.534 90.9817 149.646 91.5407 149.9C92.087 150.169 92.5244 150.535 92.8529 151.001C93.1687 151.48 93.3401 152.013 93.3672 152.599ZM86.3578 152.123C86.2199 152.317 86.115 152.502 86.0431 152.678C85.9712 152.855 85.9383 153.01 85.9445 153.144L86.0147 154.662C86.4756 154.814 86.9545 154.925 87.4516 154.996C87.9354 155.067 88.4237 155.091 88.9165 155.068C89.8888 155.023 90.6657 154.793 91.2472 154.379C91.8287 153.965 92.1041 153.425 92.0733 152.759C92.0554 152.373 91.9386 152.011 91.7228 151.674C91.5076 151.35 91.2016 151.084 90.8049 150.876C90.4088 150.68 89.951 150.595 89.4316 150.619C88.779 150.649 88.1788 150.804 87.6311 151.083C87.0701 151.363 86.6457 151.709 86.3578 152.123Z" fill="#1A2128"/>
<path d="M82.014 150.062L78.4147 153.908C79.1029 154.101 79.6342 154.476 80.0087 155.033C80.3683 155.602 80.4933 156.329 80.3836 157.216C80.31 157.812 80.1056 158.324 79.7704 158.752C79.4353 159.181 78.9991 159.503 78.462 159.718C77.9116 159.932 77.2923 159.996 76.6043 159.911L72.6546 159.42L73.936 149.059L75.2857 149.227L74.7898 153.236L77.0921 153.522L80.5055 149.875L82.014 150.062ZM77.282 154.594L74.6622 154.268L74.1368 158.516L76.5185 158.812C77.2066 158.897 77.7802 158.767 78.2395 158.421C78.6971 158.088 78.9628 157.624 79.0364 157.029C79.1117 156.42 79.0101 155.883 78.7317 155.419C78.4401 154.953 77.9568 154.678 77.282 154.594Z" fill="#1A2128"/>
<path d="M64.96 146.881L61.2634 156.623L55.4483 154.415L55.8811 153.275L60.4247 155L63.6885 146.398L64.96 146.881Z" fill="#1A2128"/>
<path d="M56.4226 146.899C56.1028 147.469 55.666 147.866 55.1121 148.09C54.5516 148.326 53.9246 148.394 53.2309 148.295C52.5191 148.202 51.7853 147.943 51.0296 147.518C50.5878 147.27 50.1481 146.978 49.7106 146.64C49.2731 146.303 48.9074 145.96 48.6137 145.612L48.183 146.379C47.7524 147.146 47.6365 147.884 47.8355 148.592C48.0344 149.3 48.535 149.879 49.3372 150.33C49.8255 150.604 50.3602 150.782 50.9413 150.863C51.5042 150.95 52.1394 150.963 52.8467 150.901L52.8303 151.993C52.009 152.067 51.258 152.043 50.5774 151.921C49.8902 151.81 49.2502 151.588 48.6572 151.255C47.5411 150.629 46.8369 149.813 46.5447 148.808C46.2525 147.803 46.4229 146.736 47.0559 145.609L49.4147 141.405C49.5061 141.242 49.5397 141.101 49.5156 140.98C49.485 140.871 49.3974 140.769 49.2528 140.672L49.7813 139.73C49.9157 139.79 50.0327 139.841 50.1323 139.881C50.2318 139.922 50.3015 139.961 50.3415 139.999C50.6257 140.174 50.7944 140.391 50.8476 140.65C50.9009 140.909 50.8779 141.141 50.7786 141.345L50.4241 142.018C51.1246 141.723 51.882 141.613 52.6962 141.688C53.5039 141.774 54.2449 142.007 54.9193 142.385C55.5006 142.712 55.9611 143.131 56.3007 143.643C56.6222 144.159 56.7992 144.702 56.8317 145.271C56.8461 145.845 56.7097 146.388 56.4226 146.899ZM50.7277 142.785C50.5084 142.876 50.3215 142.977 50.1669 143.089C50.0123 143.201 49.9024 143.315 49.8372 143.431L49.0933 144.757C49.4038 145.13 49.7512 145.478 50.1357 145.801C50.5086 146.117 50.9101 146.396 51.3403 146.638C52.1891 147.114 52.9696 147.331 53.682 147.287C54.3945 147.244 54.9138 146.931 55.2401 146.35C55.4293 146.013 55.5215 145.644 55.5168 145.244C55.5055 144.855 55.3868 144.467 55.1605 144.08C54.9278 143.705 54.5847 143.39 54.1313 143.136C53.5616 142.816 52.9706 142.629 52.3583 142.576C51.7344 142.516 51.1908 142.586 50.7277 142.785Z" fill="#1A2128"/>
<path d="M43.9938 135.122C44.6637 135.672 45.1228 136.342 45.3711 137.133C45.6092 137.915 45.6713 138.69 45.5576 139.459L49.63 134.496L50.6812 135.359L41.3693 146.708L40.4263 145.934L41.7077 144.372C40.9737 144.615 40.212 144.671 39.4223 144.54C38.6242 144.42 37.9212 144.11 37.3131 143.611C36.7566 143.154 36.3437 142.617 36.0745 141.999C35.7968 141.392 35.6486 140.753 35.6299 140.082C35.6112 139.411 35.7163 138.747 35.9452 138.089C36.1554 137.434 36.4803 136.838 36.9201 136.302C37.5375 135.55 38.263 134.981 39.0966 134.596C39.9114 134.212 40.7483 134.054 41.6075 134.121C42.4666 134.188 43.2621 134.522 43.9938 135.122ZM43.5263 136.291C43.0832 135.927 42.6145 135.689 42.1203 135.577C41.6177 135.475 41.1158 135.477 40.6147 135.583C40.1034 135.681 39.6242 135.865 39.1773 136.137C38.7219 136.418 38.3251 136.765 37.9868 137.178C37.6316 137.611 37.3706 138.086 37.2038 138.605C37.0267 139.115 36.9546 139.634 36.9876 140.161C37.0206 140.689 37.1455 141.188 37.3625 141.659C37.5794 142.13 37.8991 142.54 38.3217 142.886C38.5896 143.106 38.9102 143.283 39.2833 143.417C39.6564 143.551 40.0573 143.63 40.486 143.654C40.8959 143.68 41.2857 143.646 41.6554 143.553C42.0251 143.46 42.3406 143.296 42.6017 143.062L44.6315 140.588C44.7795 140.071 44.8413 139.544 44.8168 139.006C44.7838 138.479 44.6631 137.975 44.4546 137.493C44.2274 137.013 43.9179 136.613 43.5263 136.291Z" fill="#1A2128"/>
<path d="M36.9556 133.373C36.4597 133.798 35.9132 134.021 35.316 134.042C34.7087 134.071 34.0962 133.92 33.4786 133.589C32.8422 133.257 32.2419 132.762 31.6776 132.104C31.3478 131.719 31.0352 131.294 30.74 130.827C30.4448 130.36 30.2191 129.912 30.0627 129.484L29.3949 130.057C28.727 130.63 28.3651 131.283 28.309 132.017C28.2529 132.75 28.5243 133.466 29.1233 134.164C29.4879 134.589 29.9291 134.94 30.4469 135.216C30.9459 135.49 31.5382 135.72 32.2237 135.905L31.8337 136.925C31.0368 136.712 30.3397 136.432 29.7423 136.084C29.1348 135.744 28.6097 135.316 28.167 134.8C27.3337 133.829 26.9522 132.821 27.0226 131.776C27.093 130.732 27.619 129.789 28.6005 128.947L32.2584 125.808C32.4001 125.686 32.4803 125.565 32.499 125.443C32.5077 125.33 32.4606 125.204 32.3579 125.064L33.1775 124.36C33.2831 124.463 33.3757 124.55 33.4553 124.623C33.5348 124.695 33.5869 124.756 33.6115 124.805C33.8184 125.067 33.9024 125.328 33.8635 125.59C33.8245 125.852 33.7234 126.062 33.5601 126.219L32.9963 126.73C33.7555 126.693 34.5046 126.85 35.2437 127.199C35.9727 127.558 36.5889 128.03 37.0924 128.617C37.5264 129.123 37.8151 129.675 37.9585 130.272C38.0831 130.868 38.0631 131.439 37.8985 131.984C37.7151 132.528 37.4008 132.991 36.9556 133.373ZM33.0183 127.554C32.7812 127.564 32.5708 127.595 32.3872 127.647C32.2036 127.7 32.0611 127.769 31.96 127.856L30.8064 128.846C30.97 129.303 31.177 129.749 31.4274 130.184C31.669 130.609 31.9505 131.009 32.2716 131.383C32.9053 132.122 33.5642 132.593 34.2483 132.797C34.9324 133.001 35.5274 132.885 36.0333 132.451C36.3267 132.2 36.5399 131.885 36.6728 131.507C36.7955 131.138 36.8171 130.733 36.7373 130.292C36.6475 129.86 36.4333 129.446 36.0948 129.052C35.6694 128.556 35.1783 128.178 34.6215 127.918C34.0559 127.647 33.5216 127.526 33.0183 127.554Z" fill="#1A2128"/>
<path d="M31.7113 122.492L22.7599 127.826L22.0639 126.657L25.9126 124.364L22.8628 119.244L19.0141 121.537L18.3182 120.368L27.2697 115.035L27.9656 116.203L23.9108 118.619L26.9606 123.74L31.0154 121.324L31.7113 122.492Z" fill="#1A2128"/>
<path d="M24.9484 109.846L16.3719 113.175L17.7177 116.643L16.5804 117.085L13.3969 108.881L14.5342 108.439L15.88 111.907L24.4564 108.578L24.9484 109.846Z" fill="#1A2128"/>
<path d="M22.5119 103.515L12.3353 105.658L12.055 104.328L20.4312 102.563L10.7292 98.1278L10.4778 96.934L20.674 94.7862L20.9543 96.117L12.7151 97.8525L22.24 102.223L22.5119 103.515Z" fill="#1A2128"/>
<path d="M20.2876 92.6317L15.9223 89.6812C15.8403 90.3911 15.5538 90.9748 15.0627 91.4321C14.5579 91.8765 13.8591 92.1142 12.9663 92.1451C12.3666 92.1659 11.8287 92.0445 11.3526 91.7809C10.8765 91.5172 10.4897 91.137 10.1922 90.6404C9.8943 90.1304 9.73328 89.529 9.70915 88.836L9.57066 84.8585L20.0044 84.4966L20.0517 85.8558L16.0141 85.9958L16.0949 88.3144L20.2347 91.1126L20.2876 92.6317ZM15.0666 88.6703L14.9748 86.0319L10.6973 86.1802L10.7808 88.5787C10.805 89.2717 11.0241 89.8177 11.4383 90.2169C11.8391 90.6166 12.3393 90.8061 12.9389 90.7853C13.5519 90.764 14.0658 90.5794 14.4806 90.2315C14.8949 89.8703 15.0903 89.3498 15.0666 88.6703Z" fill="#1A2128"/>
<path d="M25.2171 74.6604C25.1662 74.8812 25.0748 75.0996 24.943 75.3155C24.8271 75.5214 24.6772 75.7263 24.4934 75.9302L23.6703 75.2272C23.7812 75.1023 23.8761 74.9873 23.955 74.8824C24.0369 74.7644 24.0944 74.634 24.1273 74.4911C24.2052 74.1533 24.1097 73.796 23.8408 73.4193C23.5719 73.0426 23.1441 72.6429 22.5573 72.2202L21.4074 71.4213L10.2895 73.6189L10.613 72.2158L20.2605 70.5205L12.262 65.0634L12.5675 63.7381L23.2047 71.2817C23.7555 71.6824 24.1928 72.0706 24.5166 72.4463C24.8405 72.822 25.0559 73.1933 25.1629 73.56C25.283 73.9298 25.301 74.2966 25.2171 74.6604Z" fill="#1A2128"/>
<path d="M25.1713 60.2965C24.8805 60.9987 24.4834 61.5918 23.9798 62.076C23.4691 62.5427 22.8878 62.9009 22.2361 63.1504C21.5894 63.3877 20.9133 63.5045 20.2077 63.5008C19.5072 63.4848 18.8182 63.3365 18.1407 63.0558C17.2291 62.6782 16.4818 62.1305 15.8988 61.4127C15.3157 60.6949 14.9529 59.8807 14.8104 58.9702C14.668 58.0597 14.7931 57.1301 15.1859 56.1816C15.5583 55.2823 16.0968 54.5745 16.8012 54.0581C17.4934 53.5366 18.2594 53.255 19.0993 53.2133L18.9823 54.5936C18.3773 54.6605 17.8373 54.8842 17.3623 55.2647C16.88 55.6278 16.5165 56.105 16.2716 56.6963C16.0063 57.3368 15.9303 57.9909 16.0436 58.6584C16.1568 59.3259 16.4366 59.9397 16.8829 60.4998C17.3343 61.0476 17.9296 61.4746 18.6687 61.7808C19.3954 62.0819 20.1208 62.1947 20.8447 62.1194C21.5686 62.0441 22.2188 61.8155 22.7954 61.4338C23.3597 61.047 23.7744 60.5333 24.0397 59.8927C24.2131 59.4738 24.305 59.0429 24.3153 58.5997C24.3308 58.1443 24.274 57.7239 24.1449 57.3385C24.0087 56.9357 23.8131 56.6237 23.5583 56.4027L24.4405 55.3178C24.8249 55.679 25.1177 56.1395 25.3189 56.6991C25.5128 57.2413 25.6023 57.8268 25.5873 58.4556C25.565 59.0669 25.4263 59.6806 25.1713 60.2965Z" fill="#1A2128"/>
<path d="M27.3757 54.6957L18.5644 49.1336L23.0363 42.0465L31.8476 47.6087L31.1218 48.7588L23.3422 43.8479L20.3218 48.6346L28.1014 53.5456L27.3757 54.6957Z" fill="#1A2128"/>
<path d="M36.7574 41.9113C36.255 42.4637 35.685 42.8824 35.0472 43.1674C34.3996 43.4435 33.7364 43.5881 33.0575 43.6013C32.3688 43.6055 31.6931 43.4865 31.0304 43.244C30.3767 42.9917 29.7737 42.6144 29.2215 42.1118C28.5016 41.4568 27.9888 40.6928 27.6833 39.8199C27.3868 38.9372 27.3256 38.0433 27.4999 37.1383C27.6643 36.2244 28.083 35.3975 28.7558 34.6577C29.4466 33.8982 30.2301 33.4034 31.1064 33.1731C31.9916 32.9331 32.8831 32.924 33.7807 33.1458C34.6685 33.3587 35.4674 33.7882 36.1774 34.4343C36.2563 34.5061 36.3352 34.5779 36.4141 34.6497C36.4832 34.7125 36.5329 34.7668 36.5634 34.8125L30.5615 41.4113C31.1587 41.8645 31.7908 42.1603 32.458 42.2987C33.1243 42.4182 33.774 42.3875 34.4072 42.2065C35.0395 42.0067 35.58 41.6602 36.0286 41.167C36.4861 40.664 36.7885 40.0739 36.9358 39.3967C37.0921 38.7097 37.0439 38.0889 36.7912 37.5345L37.8218 36.8769C38.0432 37.3668 38.1537 37.909 38.1535 38.5037C38.1533 39.0984 38.0352 39.694 37.7991 40.2904C37.5622 40.868 37.215 41.4083 36.7574 41.9113ZM29.8098 40.7814L34.9907 35.0851C34.3927 34.6131 33.7606 34.3173 33.0943 34.1978C32.437 34.0684 31.7971 34.108 31.1746 34.3168C30.5513 34.5068 30.0108 34.8533 29.5533 35.3563C29.0958 35.8594 28.8019 36.4302 28.6716 37.0688C28.5315 37.6984 28.5573 38.3438 28.749 39.005C28.9398 39.6473 29.2934 40.2394 29.8098 40.7814Z" fill="#1A2128"/>
<path d="M35.2894 28.3269L40.2197 29.6295L40.5313 29.7656L40.4707 29.431L40.325 24.3446L41.533 23.3894L41.6764 29.9565L47.9948 31.5638L46.7869 32.519L41.8847 31.2197L41.5855 31.0993L41.6337 31.4182L41.767 36.4889L40.559 37.4442L40.4371 30.9365L34.0972 29.2698L35.2894 28.3269Z" fill="#1A2128"/>
<path d="M47.0497 28.4791C46.7299 27.9093 46.6186 27.3296 46.7158 26.7399C46.8064 26.1385 47.0746 25.5674 47.5203 25.0267C47.9711 24.4678 48.5744 23.9762 49.3301 23.5519C49.7719 23.3039 50.2507 23.0809 50.7666 22.8831C51.2824 22.6852 51.7655 22.5517 52.2159 22.4823L51.7852 21.7149C51.3545 20.9475 50.7852 20.4643 50.0773 20.2654C49.3694 20.0665 48.6143 20.1922 47.8121 20.6426C47.3238 20.9167 46.8935 21.2806 46.5212 21.7343C46.1541 22.1698 45.8126 22.7056 45.4968 23.3416L44.5735 22.759C44.9381 22.0191 45.3498 21.3904 45.8085 20.8729C46.2608 20.3438 46.7834 19.9128 47.3763 19.5799C48.4924 18.9533 49.5555 18.777 50.5655 19.051C51.5754 19.325 52.3969 20.0259 53.0298 21.1538L55.3887 25.3571C55.48 25.5199 55.5834 25.6224 55.6989 25.6646C55.8078 25.6953 55.9411 25.6739 56.0987 25.6007L56.6273 26.5425C56.5059 26.626 56.402 26.6996 56.3155 26.7635C56.229 26.8273 56.1592 26.8665 56.1062 26.8809C55.809 27.0325 55.5359 27.0635 55.2869 26.9739C55.0379 26.8844 54.8521 26.744 54.7295 26.5529L54.3402 25.8999C54.2269 26.6516 53.9262 27.3555 53.4383 28.0118C52.9438 28.6563 52.3594 29.1679 51.6851 29.5465C51.1038 29.8729 50.5062 30.0478 49.8925 30.0712C49.2839 30.0765 48.7285 29.9449 48.2261 29.6764C47.7289 29.3898 47.3368 28.9907 47.0497 28.4791ZM53.5276 25.7597C53.5641 25.5251 53.5749 25.3127 53.5598 25.1224C53.5447 24.9321 53.5046 24.7788 53.4393 24.6625L52.6955 23.3369C52.2153 23.4077 51.7373 23.5231 51.2615 23.6833C50.7973 23.8368 50.3501 24.0344 49.9199 24.2759C49.0712 24.7524 48.4798 25.3061 48.1459 25.937C47.8119 26.5679 47.808 27.1741 48.1343 27.7555C48.3235 28.0927 48.5902 28.3635 48.9342 28.5679C49.2718 28.7606 49.6646 28.8612 50.1127 28.8696C50.5542 28.8664 51.0017 28.7375 51.4552 28.4829C52.0249 28.1631 52.4919 27.7556 52.8562 27.2605C53.2322 26.759 53.456 26.2587 53.5276 25.7597Z" fill="#1A2128"/>
<ellipse cx="68.8231" cy="15.3217" rx="1.69684" ry="1.69718" fill="#014DFE"/>
<ellipse cx="145.181" cy="123.093" rx="1.69684" ry="1.69718" fill="#014DFE"/>
<path d="M70.5034 109.381H75.8297L78.9668 104.985L82.5004 100.027L87.5336 104.985L91.998 109.381H98.2033L93.7389 104.985L85.0687 96.4402L87.2233 93.416L98.7032 104.722L98.9617 104.985L103.426 109.381H109.631L105.167 104.985L103.012 102.858L98.7032 98.6204L89.7916 89.8292L91.9463 86.805L98.7204 93.4688L103.03 97.7061L106.649 101.275L110.407 104.968L114.871 109.363H118.905V61.3809H114.596V102.998L110.976 99.4292V61.3809H104.753L103.047 63.7897L98.7376 69.838L91.3947 80.1413L88.8436 83.7281L86.689 86.7347L84.1379 90.3215L81.9316 93.3457L79.3805 96.9325L73.6578 104.968L70.5034 109.381ZM102.978 71.2622L106.598 66.1809V95.1743L102.978 91.605V71.2622ZM94.4629 83.2182L98.6687 77.3105V87.3677L94.4629 83.2182Z" fill="#1A2128"/>
<path d="M98.6687 104.722V104.986H98.9446L98.6687 104.722Z" fill="#1A2128"/>
<path d="M60.7129 109.381H66.0391L69.159 104.985L76.7433 94.3479L79.2944 90.7611L81.449 87.7545L84.0001 84.1501L86.1547 81.1435L88.7058 77.5567L98.6688 63.5435L100.22 61.3809H94.8939L85.5686 74.4622L83.0176 78.0666L80.8629 81.0732L78.3119 84.66L76.1572 87.6842L73.6062 91.271L63.8328 104.985L60.7129 109.381Z" fill="#014DFE"/>
<path d="M50.905 109.381H56.2313L59.3684 104.985L70.9689 88.6864L73.5372 85.0995L75.6746 82.0754L78.2429 78.4886L80.3975 75.4644L82.9486 71.8776L90.4295 61.3809H85.1032L79.8115 68.8006L77.2604 72.3875L75.1058 75.394L72.5547 78.9984L70.4001 82.005L67.849 85.5918L54.0422 104.985L50.905 109.381Z" fill="#014DFE"/>
</svg>
