<svg width="48" height="48" viewBox="0 0 48 48" fill="none" xmlns="http://www.w3.org/2000/svg">
<rect width="48" height="48" rx="24" fill="#EFF1F3"/>
<path d="M33.7099 19.2899C33.617 19.1962 33.5064 19.1218 33.3845 19.071C33.2627 19.0203 33.132 18.9941 32.9999 18.9941C32.8679 18.9941 32.7372 19.0203 32.6154 19.071C32.4935 19.1218 32.3829 19.1962 32.2899 19.2899L25.9999 25.5899L21.7099 21.2899C21.617 21.1962 21.5064 21.1218 21.3845 21.071C21.2627 21.0203 21.132 20.9941 20.9999 20.9941C20.8679 20.9941 20.7372 21.0203 20.6154 21.071C20.4935 21.1218 20.3829 21.1962 20.2899 21.2899L14.2899 27.2899C14.1962 27.3829 14.1218 27.4935 14.071 27.6154C14.0203 27.7372 13.9941 27.8679 13.9941 27.9999C13.9941 28.132 14.0203 28.2627 14.071 28.3845C14.1218 28.5064 14.1962 28.617 14.2899 28.7099C14.3829 28.8037 14.4935 28.8781 14.6154 28.9288C14.7372 28.9796 14.8679 29.0057 14.9999 29.0057C15.132 29.0057 15.2627 28.9796 15.3845 28.9288C15.5064 28.8781 15.617 28.8037 15.7099 28.7099L20.9999 23.4099L25.2899 27.7099C25.3829 27.8037 25.4935 27.8781 25.6154 27.9288C25.7372 27.9796 25.8679 28.0057 25.9999 28.0057C26.132 28.0057 26.2627 27.9796 26.3845 27.9288C26.5064 27.8781 26.617 27.8037 26.7099 27.7099L33.7099 20.7099C33.8037 20.617 33.8781 20.5064 33.9288 20.3845C33.9796 20.2627 34.0057 20.132 34.0057 19.9999C34.0057 19.8679 33.9796 19.7372 33.9288 19.6154C33.8781 19.4935 33.8037 19.3829 33.7099 19.2899Z" fill="#014DFE"/>
</svg>
