<svg width="124" height="78" viewBox="0 0 124 78" fill="none" xmlns="http://www.w3.org/2000/svg">
<path d="M117 4C117 3 117.6 1 120 1C122.4 1 123 3 123 4" stroke="#1A2128" stroke-width="2"/>
<rect x="2" y="1" width="106" height="76" stroke="#1A2128" stroke-width="2"/>
<rect x="20" y="60" width="89" height="18" fill="#014DFE"/>
<line x1="67" y1="46" x2="94" y2="46" stroke="#1A2128" stroke-width="2"/>
<line x1="53" y1="39" x2="94" y2="39" stroke="#1A2128" stroke-width="2"/>
<rect x="2" y="61" width="17" height="16" stroke="#1A2128" stroke-width="2"/>
<rect x="8" y="67" width="4" height="4" fill="#014DFE"/>
<rect x="8" y="6" width="13" height="21" fill="#014DFE"/>
<rect y="37" width="4" height="4" fill="white"/>
<path d="M117 5H123V60H117V5Z" stroke="#1A2128" stroke-width="2"/>
<rect x="118" y="4" width="4" height="2" fill="white"/>
<path d="M117 60H123V64C123 65.6569 121.657 67 120 67C118.343 67 117 65.6569 117 64V60Z" stroke="#014DFE" stroke-width="2"/>
</svg>
