<svg width="470" height="470" viewBox="0 0 470 470" fill="none" xmlns="http://www.w3.org/2000/svg">
<path d="M118 104.667C114.582 104.676 111.298 105.999 108.827 108.36V106C108.827 105.646 108.687 105.307 108.436 105.057C108.186 104.807 107.847 104.667 107.494 104.667C107.14 104.667 106.801 104.807 106.551 105.057C106.301 105.307 106.16 105.646 106.16 106V112C106.16 112.354 106.301 112.693 106.551 112.943C106.801 113.193 107.14 113.333 107.494 113.333H113.494C113.847 113.333 114.186 113.193 114.436 112.943C114.687 112.693 114.827 112.354 114.827 112C114.827 111.646 114.687 111.307 114.436 111.057C114.186 110.807 113.847 110.667 113.494 110.667H110.294C112.008 108.875 114.293 107.737 116.756 107.448C119.218 107.158 121.705 107.736 123.788 109.081C125.871 110.427 127.42 112.456 128.169 114.82C128.918 117.184 128.82 119.734 127.892 122.034C126.963 124.333 125.263 126.237 123.083 127.419C120.903 128.601 118.38 128.986 115.946 128.508C113.513 128.031 111.322 126.721 109.75 124.803C108.179 122.885 107.324 120.48 107.334 118C107.334 117.646 107.193 117.307 106.943 117.057C106.693 116.807 106.354 116.667 106 116.667C105.647 116.667 105.308 116.807 105.058 117.057C104.807 117.307 104.667 117.646 104.667 118C104.667 120.637 105.449 123.215 106.914 125.408C108.379 127.6 110.462 129.309 112.898 130.318C115.334 131.328 118.015 131.592 120.602 131.077C123.188 130.563 125.564 129.293 127.428 127.428C129.293 125.563 130.563 123.188 131.077 120.601C131.592 118.015 131.328 115.334 130.319 112.898C129.31 110.461 127.601 108.379 125.408 106.914C123.215 105.449 120.637 104.667 118 104.667ZM118 112.667C117.647 112.667 117.308 112.807 117.058 113.057C116.807 113.307 116.667 113.646 116.667 114V118C116.667 118.354 116.807 118.693 117.058 118.943C117.308 119.193 117.647 119.333 118 119.333H120.667C121.021 119.333 121.36 119.193 121.61 118.943C121.86 118.693 122 118.354 122 118C122 117.646 121.86 117.307 121.61 117.057C121.36 116.807 121.021 116.667 120.667 116.667H119.334V114C119.334 113.646 119.193 113.307 118.943 113.057C118.693 112.807 118.354 112.667 118 112.667Z" fill="#014DFE"/>
<path d="M0.5 117.5C0.5 52.8827 52.8827 0.5 117.5 0.5C182.117 0.5 234.5 52.8827 234.5 117.5V234.5H117.5C52.8827 234.5 0.5 182.117 0.5 117.5Z" stroke="#014DFE"/>
<path d="M235 0H352.5C417.393 0 470 52.6065 470 117.5C470 182.393 417.393 235 352.5 235C287.607 235 235 182.393 235 117.5V0Z" fill="#014DFE"/>
<path d="M362.334 111.333H361V110C361 108.939 360.579 107.922 359.829 107.172C359.079 106.421 358.061 106 357 106H343.667C342.606 106 341.589 106.421 340.839 107.172C340.088 107.922 339.667 108.939 339.667 110V126C339.667 127.061 340.088 128.078 340.839 128.828C341.589 129.579 342.606 130 343.667 130H362.334C363.395 130 364.412 129.579 365.162 128.828C365.912 128.078 366.334 127.061 366.334 126V115.333C366.334 114.272 365.912 113.255 365.162 112.505C364.412 111.755 363.395 111.333 362.334 111.333ZM343.667 108.667H357C357.354 108.667 357.693 108.807 357.943 109.057C358.193 109.307 358.334 109.646 358.334 110V111.333H343.667C343.313 111.333 342.974 111.193 342.724 110.943C342.474 110.693 342.334 110.354 342.334 110C342.334 109.646 342.474 109.307 342.724 109.057C342.974 108.807 343.313 108.667 343.667 108.667ZM363.667 122H362.334C361.98 122 361.641 121.86 361.391 121.609C361.141 121.359 361 121.02 361 120.667C361 120.313 361.141 119.974 361.391 119.724C361.641 119.474 361.98 119.333 362.334 119.333H363.667V122ZM363.667 116.667H362.334C361.273 116.667 360.255 117.088 359.505 117.838C358.755 118.588 358.334 119.606 358.334 120.667C358.334 121.728 358.755 122.745 359.505 123.495C360.255 124.245 361.273 124.667 362.334 124.667H363.667V126C363.667 126.354 363.527 126.693 363.276 126.943C363.026 127.193 362.687 127.333 362.334 127.333H343.667C343.313 127.333 342.974 127.193 342.724 126.943C342.474 126.693 342.334 126.354 342.334 126V113.773C342.762 113.924 343.213 114.001 343.667 114H362.334C362.687 114 363.026 114.14 363.276 114.391C363.527 114.641 363.667 114.98 363.667 115.333V116.667Z" fill="white"/>
<path d="M0 352.5C0 287.607 52.6065 235 117.5 235C182.393 235 235 287.607 235 352.5V470H117.5C52.6065 470 0 417.393 0 352.5Z" fill="#014DFE"/>
<path d="M108.666 353C108.313 353 107.974 353.141 107.724 353.391C107.473 353.641 107.333 353.98 107.333 354.333V365C107.333 365.354 107.473 365.693 107.724 365.943C107.974 366.193 108.313 366.333 108.666 366.333C109.02 366.333 109.359 366.193 109.609 365.943C109.859 365.693 110 365.354 110 365V354.333C110 353.98 109.859 353.641 109.609 353.391C109.359 353.141 109.02 353 108.666 353ZM115.333 339.667C114.979 339.667 114.64 339.807 114.39 340.057C114.14 340.307 114 340.646 114 341V365C114 365.354 114.14 365.693 114.39 365.943C114.64 366.193 114.979 366.333 115.333 366.333C115.687 366.333 116.026 366.193 116.276 365.943C116.526 365.693 116.666 365.354 116.666 365V341C116.666 340.646 116.526 340.307 116.276 340.057C116.026 339.807 115.687 339.667 115.333 339.667ZM128.666 358.333C128.313 358.333 127.974 358.474 127.724 358.724C127.473 358.974 127.333 359.313 127.333 359.667V365C127.333 365.354 127.473 365.693 127.724 365.943C127.974 366.193 128.313 366.333 128.666 366.333C129.02 366.333 129.359 366.193 129.609 365.943C129.859 365.693 130 365.354 130 365V359.667C130 359.313 129.859 358.974 129.609 358.724C129.359 358.474 129.02 358.333 128.666 358.333ZM122 347.667C121.646 347.667 121.307 347.807 121.057 348.057C120.807 348.307 120.666 348.646 120.666 349V365C120.666 365.354 120.807 365.693 121.057 365.943C121.307 366.193 121.646 366.333 122 366.333C122.353 366.333 122.692 366.193 122.942 365.943C123.193 365.693 123.333 365.354 123.333 365V349C123.333 348.646 123.193 348.307 122.942 348.057C122.692 347.807 122.353 347.667 122 347.667Z" fill="white"/>
<path d="M353 361V366.333" stroke="#014DFE" stroke-width="2" stroke-linecap="round" stroke-linejoin="round"/>
<path d="M358.653 358.653L362.427 362.427" stroke="#014DFE" stroke-width="2" stroke-linecap="round" stroke-linejoin="round"/>
<path d="M343.573 362.427L347.347 358.653" stroke="#014DFE" stroke-width="2" stroke-linecap="round" stroke-linejoin="round"/>
<path d="M361 353H366.333" stroke="#014DFE" stroke-width="2" stroke-linecap="round" stroke-linejoin="round"/>
<path d="M339.667 353H345" stroke="#014DFE" stroke-width="2" stroke-linecap="round" stroke-linejoin="round"/>
<path d="M358.653 347.347L362.427 343.573" stroke="#014DFE" stroke-width="2" stroke-linecap="round" stroke-linejoin="round"/>
<path d="M343.573 343.573L347.347 347.347" stroke="#014DFE" stroke-width="2" stroke-linecap="round" stroke-linejoin="round"/>
<path d="M353 339.667V345" stroke="#014DFE" stroke-width="2" stroke-linecap="round" stroke-linejoin="round"/>
<path d="M235.5 235.5H352.5C417.117 235.5 469.5 287.883 469.5 352.5C469.5 417.117 417.117 469.5 352.5 469.5C287.883 469.5 235.5 417.117 235.5 352.5V235.5Z" stroke="#014DFE"/>
</svg>
