<svg width="24" height="24" viewBox="0 0 24 24" fill="none" xmlns="http://www.w3.org/2000/svg">
<g clip-path="url(#clip0)">
<path d="M22.2252 13.7356C22.8816 8.21089 21.9099 4.72297 20.1572 3.14539L20.1582 3.14447C17.3293 0.450389 7.77583 0.0516386 4.3915 3.26547C2.87166 4.83755 2.33633 7.1448 2.27766 10.0011C2.219 12.8584 2.14933 18.2108 7.13691 19.6628H7.14149L7.13691 21.8802C7.13691 21.8802 7.10299 22.7786 7.67683 22.9591C8.33316 23.1718 8.63016 22.7547 10.6716 20.3164C14.0852 20.6125 16.7069 19.9341 17.0048 19.8351C17.6942 19.6041 21.5946 19.0881 22.2252 13.7356ZM11.008 18.7562C11.008 18.7562 8.84741 21.4503 8.17549 22.1497C7.95549 22.3771 7.71441 22.356 7.71808 21.905C7.71808 21.6089 7.73458 18.2236 7.73458 18.2236C3.506 17.0118 3.75533 12.4541 3.80116 10.0699C3.847 7.68472 4.28333 5.7313 5.57033 4.41589C8.53941 1.63197 16.915 2.25439 19.049 4.26006C21.6578 6.5728 20.7292 13.1068 20.7347 13.3296C20.1985 17.7974 17.0378 18.0806 16.4567 18.2741C16.2082 18.3566 13.9028 18.9496 11.008 18.7562Z" fill="#1A2128"/>
<path d="M12.2032 4.93896C11.8502 4.93896 11.8502 5.48896 12.2032 5.49355C14.9412 5.51463 17.1962 7.42313 17.221 10.9239C17.221 11.2933 17.7618 11.2887 17.7572 10.9193H17.7563C17.727 7.14721 15.2648 4.96005 12.2032 4.93896Z" fill="#1A2128"/>
<path d="M15.8052 10.3436C15.7969 10.7085 16.3369 10.7259 16.3414 10.3565C16.3864 8.27653 15.1039 6.56328 12.694 6.3827C12.3411 6.35703 12.3044 6.91162 12.6564 6.93728C14.7464 7.09587 15.8474 8.5222 15.8052 10.3436Z" fill="#1A2128"/>
<path d="M15.2274 12.7094C14.7745 12.4473 14.3135 12.6104 14.1228 12.868L13.724 13.3841C13.5215 13.6463 13.1429 13.6114 13.1429 13.6114C10.38 12.8808 9.64121 9.98968 9.64121 9.98968C9.64121 9.98968 9.60729 9.59826 9.86029 9.38835L10.359 8.97585C10.6083 8.77785 10.766 8.30118 10.512 7.83277C9.83371 6.60718 9.37812 6.1846 9.14621 5.8601C8.90237 5.55485 8.53571 5.4861 8.15437 5.69235H8.14612C7.35321 6.15618 6.48512 7.02427 6.76287 7.91802C7.23679 8.86035 8.10762 11.8643 10.8833 14.1339C12.1877 15.2073 14.252 16.3073 15.1284 16.5613L15.1366 16.5741C16.0001 16.8619 16.8398 15.9599 17.288 15.1432V15.1368C17.487 14.7417 17.421 14.3677 17.1304 14.1229C16.6152 13.6206 15.8379 13.066 15.2274 12.7094Z" fill="#1A2128"/>
<path d="M13.0712 8.42871C13.9522 8.48004 14.3793 8.94021 14.4252 9.88529C14.4417 10.2547 14.9779 10.229 14.9614 9.85962C14.9028 8.62579 14.2592 7.93829 13.1006 7.87412C12.7477 7.85304 12.7147 8.40762 13.0712 8.42871Z" fill="#1A2128"/>
</g>
<defs>
<clipPath id="clip0">
<rect width="22" height="22" fill="white" transform="translate(1 1)"/>
</clipPath>
</defs>
</svg>
