<svg width="22" height="22" viewBox="0 0 22 22" fill="none" xmlns="http://www.w3.org/2000/svg">
<g clip-path="url(#clip0)">
<path d="M21.2255 12.7356C21.8818 7.21089 20.9102 3.72297 19.1575 2.14539L19.1584 2.14447C16.3296 -0.549611 6.77607 -0.948361 3.39174 2.26547C1.87191 3.83755 1.33657 6.1448 1.27791 9.00114C1.21924 11.8584 1.14957 17.2108 6.13716 18.6628H6.14174L6.13716 20.8802C6.13716 20.8802 6.10324 21.7786 6.67707 21.9591C7.33341 22.1718 7.6304 21.7547 9.67182 19.3164C13.0855 19.6125 15.7072 18.9341 16.0051 18.8351C16.6944 18.6041 20.5948 18.0881 21.2255 12.7356ZM10.0082 17.7562C10.0082 17.7562 7.84766 20.4503 7.17574 21.1497C6.95574 21.3771 6.71466 21.356 6.71832 20.905C6.71832 20.6089 6.73482 17.2236 6.73482 17.2236C2.50624 16.0118 2.75557 11.4541 2.80141 9.06989C2.84724 6.68472 3.28357 4.7313 4.57057 3.41589C7.53966 0.631972 15.9152 1.25439 18.0492 3.26006C20.6581 5.5728 19.7295 12.1068 19.735 12.3296C19.1987 16.7974 16.0381 17.0806 15.4569 17.2741C15.2085 17.3566 12.9031 17.9496 10.0082 17.7562Z" fill="white"/>
<path d="M11.2034 3.93896C10.8505 3.93896 10.8505 4.48896 11.2034 4.49355C13.9415 4.51463 16.1965 6.42313 16.2212 9.92388C16.2212 10.2933 16.7621 10.2887 16.7575 9.9193H16.7566C16.7272 6.14721 14.2651 3.96005 11.2034 3.93896Z" fill="white"/>
<path d="M14.8049 9.34362C14.7967 9.70845 15.3366 9.72587 15.3412 9.35645C15.3861 7.27653 14.1037 5.56328 11.6938 5.3827C11.3409 5.35703 11.3042 5.91162 11.6562 5.93728C13.7462 6.09587 14.8471 7.5222 14.8049 9.34362Z" fill="white"/>
<path d="M14.2276 11.7094C13.7748 11.4473 13.3137 11.6104 13.123 11.868L12.7243 12.3841C12.5217 12.6463 12.1431 12.6114 12.1431 12.6114C9.38028 11.8808 8.64145 8.98968 8.64145 8.98968C8.64145 8.98968 8.60753 8.59826 8.86053 8.38835L9.3592 7.97585C9.60853 7.77785 9.7662 7.30118 9.51228 6.83277C8.83395 5.60718 8.37837 5.1846 8.14645 4.8601C7.90262 4.55485 7.53595 4.4861 7.15462 4.69235H7.14637C6.35345 5.15618 5.48537 6.02427 5.76312 6.91802C6.23703 7.86035 7.10787 10.8643 9.88353 13.1339C11.188 14.2073 13.2523 15.3073 14.1286 15.5613L14.1369 15.5741C15.0004 15.8619 15.84 14.9599 16.2883 14.1432V14.1368C16.4872 13.7417 16.4212 13.3677 16.1306 13.1229C15.6155 12.6206 14.8381 12.066 14.2276 11.7094Z" fill="white"/>
<path d="M12.0717 7.42871C12.9527 7.48004 13.3798 7.94021 13.4257 8.88529C13.4422 9.25471 13.9784 9.22904 13.9619 8.85962C13.9032 7.62579 13.2597 6.93829 12.1011 6.87412C11.7481 6.85304 11.7151 7.40762 12.0717 7.42871Z" fill="white"/>
</g>
<defs>
<clipPath id="clip0">
<rect width="22" height="22" fill="white"/>
</clipPath>
</defs>
</svg>
