<svg width="24" height="24" viewBox="0 0 24 24" fill="none" xmlns="http://www.w3.org/2000/svg">
<g clip-path="url(#clip0)">
<path d="M22.2255 13.7356C22.8818 8.21089 21.9102 4.72297 20.1575 3.14539L20.1584 3.14447C17.3296 0.450389 7.77607 0.0516386 4.39174 3.26547C2.87191 4.83755 2.33657 7.1448 2.27791 10.0011C2.21924 12.8584 2.14957 18.2108 7.13716 19.6628H7.14174L7.13716 21.8802C7.13716 21.8802 7.10324 22.7786 7.67707 22.9591C8.33341 23.1718 8.6304 22.7547 10.6718 20.3164C14.0855 20.6125 16.7072 19.9341 17.0051 19.8351C17.6944 19.6041 21.5948 19.0881 22.2255 13.7356ZM11.0082 18.7562C11.0082 18.7562 8.84766 21.4503 8.17574 22.1497C7.95574 22.3771 7.71466 22.356 7.71832 21.905C7.71832 21.6089 7.73482 18.2236 7.73482 18.2236C3.50624 17.0118 3.75557 12.4541 3.80141 10.0699C3.84724 7.68472 4.28357 5.7313 5.57057 4.41589C8.53966 1.63197 16.9152 2.25439 19.0492 4.26006C21.6581 6.5728 20.7295 13.1068 20.735 13.3296C20.1987 17.7974 17.0381 18.0806 16.4569 18.2741C16.2085 18.3566 13.9031 18.9496 11.0082 18.7562Z" fill="#1A2128"/>
<path d="M12.2034 4.93896C11.8505 4.93896 11.8505 5.48896 12.2034 5.49355C14.9415 5.51463 17.1965 7.42313 17.2212 10.9239C17.2212 11.2933 17.7621 11.2887 17.7575 10.9193H17.7566C17.7272 7.14721 15.2651 4.96005 12.2034 4.93896Z" fill="#1A2128"/>
<path d="M15.8049 10.3436C15.7967 10.7085 16.3366 10.7259 16.3412 10.3565C16.3861 8.27653 15.1037 6.56328 12.6938 6.3827C12.3409 6.35703 12.3042 6.91162 12.6562 6.93728C14.7462 7.09587 15.8471 8.5222 15.8049 10.3436Z" fill="#1A2128"/>
<path d="M15.2276 12.7094C14.7748 12.4473 14.3137 12.6104 14.123 12.868L13.7243 13.3841C13.5217 13.6463 13.1431 13.6114 13.1431 13.6114C10.3803 12.8808 9.64145 9.98968 9.64145 9.98968C9.64145 9.98968 9.60753 9.59826 9.86053 9.38835L10.3592 8.97585C10.6085 8.77785 10.7662 8.30118 10.5123 7.83277C9.83395 6.60718 9.37837 6.1846 9.14645 5.8601C8.90262 5.55485 8.53595 5.4861 8.15462 5.69235H8.14637C7.35345 6.15618 6.48537 7.02427 6.76312 7.91802C7.23703 8.86035 8.10787 11.8643 10.8835 14.1339C12.188 15.2073 14.2523 16.3073 15.1286 16.5613L15.1369 16.5741C16.0004 16.8619 16.84 15.9599 17.2883 15.1432V15.1368C17.4872 14.7417 17.4212 14.3677 17.1306 14.1229C16.6155 13.6206 15.8381 13.066 15.2276 12.7094Z" fill="#1A2128"/>
<path d="M13.0717 8.42871C13.9527 8.48004 14.3798 8.94021 14.4257 9.88529C14.4422 10.2547 14.9784 10.229 14.9619 9.85962C14.9032 8.62579 14.2597 7.93829 13.1011 7.87412C12.7481 7.85304 12.7151 8.40762 13.0717 8.42871Z" fill="#1A2128"/>
</g>
<defs>
<clipPath id="clip0">
<rect width="22" height="22" fill="white" transform="translate(1 1)"/>
</clipPath>
</defs>
</svg>
