<svg width="40" height="40" viewBox="0 0 40 40" fill="none" xmlns="http://www.w3.org/2000/svg">
<path d="M29.1198 24.88C28.6816 24.4453 28.12 24.1563 27.5115 24.0525C26.9031 23.9487 26.2774 24.0351 25.7198 24.3L24.5698 23.16C26.9259 20.6176 28.7034 17.5949 29.7798 14.3C29.9841 13.7308 30.0224 13.1152 29.8901 12.525C29.7579 11.9349 29.4606 11.3945 29.033 10.9668C28.6053 10.5392 28.0649 10.2419 27.4748 10.1097C26.8846 9.97747 26.2691 10.0157 25.6998 10.22C22.4049 11.2965 19.3823 13.0739 16.8398 15.43L15.6998 14.28C15.9367 13.7831 16.0322 13.2306 15.976 12.683C15.9198 12.1354 15.7141 11.6139 15.3812 11.1754C15.0484 10.737 14.6014 10.3985 14.0891 10.1972C13.5768 9.99581 13.0189 9.9393 12.4766 10.0338C11.9344 10.1283 11.4285 10.3702 11.0145 10.733C10.6005 11.0958 10.2943 11.5655 10.1294 12.0907C9.96456 12.6158 9.94735 13.1763 10.0797 13.7106C10.2121 14.2449 10.4889 14.7325 10.8798 15.12C11.4419 15.6828 12.2045 15.9993 12.9998 16C13.4434 15.9959 13.8806 15.8934 14.2798 15.7L15.4298 16.84C13.0737 19.3824 11.2963 22.4051 10.2198 25.7C10.0323 26.2684 10.006 26.8777 10.1437 27.4602C10.2813 28.0427 10.5777 28.5757 10.9998 29C11.2857 29.3048 11.629 29.55 12.01 29.7216C12.391 29.8933 12.8022 29.9879 13.2198 30C13.5862 29.9965 13.9501 29.9393 14.2998 29.83C17.5948 28.7535 20.6174 26.9761 23.1598 24.62L24.2998 25.77C24.063 26.2669 23.9675 26.8194 24.0236 27.367C24.0798 27.9146 24.2856 28.4361 24.6184 28.8746C24.9512 29.313 25.3983 29.6515 25.9106 29.8528C26.4229 30.0542 26.9807 30.1107 27.523 30.0162C28.0653 29.9217 28.5711 29.6798 28.9851 29.317C29.3991 28.9542 29.7053 28.4845 29.8702 27.9593C30.0351 27.4341 30.0523 26.8737 29.92 26.3394C29.7876 25.8051 29.5108 25.3175 29.1198 24.93V24.88ZM13.7098 13.7C13.5229 13.8883 13.2687 13.9946 13.0034 13.9955C12.738 13.9965 12.4831 13.892 12.2948 13.705C12.1065 13.518 12.0002 13.2639 11.9993 12.9985C11.9983 12.7332 12.1029 12.4783 12.2898 12.29C12.4768 12.1017 12.7309 11.9954 12.9963 11.9944C13.2617 11.9935 13.5165 12.098 13.7048 12.285C13.8931 12.472 13.9995 12.7261 14.0004 12.9915C14.0013 13.2568 13.8968 13.5117 13.7098 13.7ZM26.3098 12.13C26.4616 12.08 26.6201 12.053 26.7798 12.05C26.9338 12.0487 27.0865 12.0782 27.229 12.1365C27.3715 12.1949 27.501 12.2811 27.6098 12.39C27.7728 12.5592 27.8839 12.7716 27.93 13.002C27.976 13.2323 27.9552 13.4711 27.8698 13.69C27.3416 15.3138 26.6268 16.8709 25.7398 18.33L21.6698 14.26C23.129 13.373 24.686 12.6583 26.3098 12.13ZM13.6898 27.87C13.4718 27.9573 13.2329 27.9787 13.0028 27.9314C12.7727 27.8842 12.5615 27.7706 12.3954 27.6045C12.2293 27.4384 12.1156 27.2272 12.0684 26.9971C12.0212 26.767 12.0425 26.5281 12.1298 26.31C12.6581 24.6862 13.3729 23.1291 14.2598 21.67L18.3298 25.74C16.8707 26.6269 15.3136 27.3417 13.6898 27.87ZM19.9998 24.59L15.4098 20C15.8555 19.3952 16.3328 18.8144 16.8398 18.26L21.7498 23.17C21.192 23.6739 20.6078 24.1479 19.9998 24.59ZM23.1498 21.75L18.2498 16.84C18.8074 16.3327 19.3916 15.8553 19.9998 15.41L24.5998 20.01C24.151 20.6151 23.6703 21.1959 23.1598 21.75H23.1498ZM27.6998 27.75C27.6073 27.8432 27.4972 27.9173 27.376 27.968C27.2548 28.0187 27.1248 28.0451 26.9934 28.0456C26.862 28.046 26.7318 28.0206 26.6102 27.9707C26.4886 27.9209 26.3781 27.8476 26.2848 27.755C26.1916 27.6624 26.1175 27.5524 26.0668 27.4312C26.0161 27.3099 25.9897 27.1799 25.9893 27.0485C25.9888 26.9171 26.0142 26.7869 26.0641 26.6654C26.1139 26.5438 26.1873 26.4332 26.2798 26.34C26.4672 26.1537 26.7207 26.0492 26.9848 26.0492C27.249 26.0492 27.5025 26.1537 27.6898 26.34C27.8669 26.5229 27.9676 26.7665 27.9713 27.021C27.975 27.2756 27.8815 27.522 27.7098 27.71L27.6998 27.75Z" fill="#014DFE"/>
<rect x="0.5" y="0.5" width="39" height="39" rx="2.5" stroke="#014DFE"/>
</svg>
