<svg width="40" height="40" viewBox="0 0 40 40" fill="none" xmlns="http://www.w3.org/2000/svg">
<path d="M12.5 17.9998H18C18.7 17.9981 19.3774 17.7518 19.915 17.3033C20.4525 16.8548 20.8162 16.2325 20.9432 15.5441C21.0702 14.8556 20.9525 14.1445 20.6104 13.5337C20.2683 12.923 19.7234 12.4511 19.07 12.1998C18.694 11.4618 18.0982 10.8588 17.3649 10.4738C16.6315 10.0889 15.7968 9.94115 14.9759 10.0509C14.155 10.1607 13.3883 10.5225 12.7819 11.0866C12.1754 11.6506 11.7589 12.389 11.59 13.1998C11.0648 13.4229 10.6318 13.819 10.3628 14.3223C10.0938 14.8256 10.0051 15.4057 10.1114 15.9664C10.2177 16.527 10.5126 17.0344 10.9471 17.4043C11.3816 17.7742 11.9296 17.9843 12.5 17.9998ZM12.5 14.9998C12.7652 14.9998 13.0196 14.8944 13.2071 14.7069C13.3946 14.5194 13.5 14.265 13.5 13.9998C13.5033 13.5281 13.6732 13.0727 13.9798 12.7141C14.2864 12.3556 14.7098 12.1169 15.1753 12.0403C15.6408 11.9637 16.1183 12.0541 16.5236 12.2956C16.9289 12.537 17.2357 12.914 17.39 13.3598C17.4487 13.5298 17.5521 13.6808 17.6893 13.7969C17.8266 13.9131 17.9927 13.9901 18.17 14.0198C18.4014 14.0597 18.6114 14.1798 18.7631 14.3589C18.9149 14.5381 18.9987 14.765 19 14.9998C19 15.265 18.8946 15.5194 18.7071 15.7069C18.5196 15.8944 18.2652 15.9998 18 15.9998H12.5C12.3674 15.9998 12.2402 15.9471 12.1464 15.8533C12.0527 15.7596 12 15.6324 12 15.4998C12 15.3672 12.0527 15.24 12.1464 15.1462C12.2402 15.0525 12.3674 14.9998 12.5 14.9998ZM29 23.9998H28V16.9998C28 16.2041 27.6839 15.4411 27.1213 14.8785C26.5587 14.3159 25.7956 13.9998 25 13.9998H24C23.7348 13.9998 23.4804 14.1051 23.2929 14.2927C23.1054 14.4802 23 14.7346 23 14.9998C23 15.265 23.1054 15.5194 23.2929 15.7069C23.4804 15.8944 23.7348 15.9998 24 15.9998H25C25.2652 15.9998 25.5196 16.1051 25.7071 16.2927C25.8946 16.4802 26 16.7346 26 16.9998V23.9998H14V20.9998C14 20.7346 13.8946 20.4802 13.7071 20.2927C13.5196 20.1051 13.2652 19.9998 13 19.9998C12.7348 19.9998 12.4804 20.1051 12.2929 20.2927C12.1054 20.4802 12 20.7346 12 20.9998V23.9998H11C10.7348 23.9998 10.4804 24.1051 10.2929 24.2927C10.1054 24.4802 10 24.7346 10 24.9998V26.9998C10 27.7954 10.3161 28.5585 10.8787 29.1211C11.4413 29.6837 12.2044 29.9998 13 29.9998H27C27.7956 29.9998 28.5587 29.6837 29.1213 29.1211C29.6839 28.5585 30 27.7954 30 26.9998V24.9998C30 24.7346 29.8946 24.4802 29.7071 24.2927C29.5196 24.1051 29.2652 23.9998 29 23.9998ZM28 26.9998C28 27.265 27.8946 27.5194 27.7071 27.7069C27.5196 27.8944 27.2652 27.9998 27 27.9998H13C12.7348 27.9998 12.4804 27.8944 12.2929 27.7069C12.1054 27.5194 12 27.265 12 26.9998V25.9998H28V26.9998Z" fill="#014DFE"/>
<rect x="0.5" y="0.5" width="39" height="39" rx="2.5" stroke="#014DFE"/>
</svg>
